<svg xmlns="http://www.w3.org/2000/svg" viewBox="0 0 40.04502 40.04567"><defs><style>.cls-1{fill:#060a11;}</style></defs><title>ball_icon</title><g id="Capa_2" data-name="Capa 2"><g id="Capa_1-2" data-name="Capa 1"><path class="cls-1" d="M7.97206,36.01041l1.437-3.334.011-.028a.36862.36862,0,0,0-.071-.38495.38377.38377,0,0,0-.105-.081.34405.34405,0,0,0-.06-.02405,15.06318,15.06318,0,0,1-8.627-9.551.28252.28252,0,0,0-.013-.044.396.396,0,0,0-.073-.123.3713.3713,0,0,0-.337-.117c.004.028.006.057.009.086a19.96525,19.96525,0,0,0,7.829,13.601"/><path class="cls-1" d="M.00646,20.50559l3.551-.968.028-.009a.37005.37005,0,0,0,.257-.296.36555.36555,0,0,0-.002-.132.544.544,0,0,0-.018-.061A15.06044,15.06044,0,0,1,5.91046,6.3386a.22533.22533,0,0,0,.025-.038.38519.38519,0,0,0,.052-.133.37426.37426,0,0,0-.104-.322,19.99247,19.99247,0,0,0-5.877,14.66"/><path class="cls-1" d="M7.21126,4.63431l2.851,2.12006.024.017a.36881.36881,0,0,0,.495-.064.29669.29669,0,0,0,.036-.051,15.06259,15.06259,0,0,1,11.282-6.197.2332.2332,0,0,0,.046-.003.39124.39124,0,0,0,.136-.042.37606.37606,0,0,0,.191-.29,20.06994,20.06994,0,0,0-15.061,4.51"/><path class="cls-1" d="M24.15425.42667l.148,3.539.002.02906a.3711.3711,0,0,0,.231.318.34714.34714,0,0,0,.13.026.33115.33115,0,0,0,.063-.003,15.0587,15.0587,0,0,1,11.917,4.863.20255.20255,0,0,0,.031.034.386.386,0,0,0,.119.079.37559.37559,0,0,0,.163.027,20.08246,20.08246,0,0,0-12.804-8.912"/><path class="cls-1" d="M39.90056,17.635a19.9839,19.9839,0,0,0-2.012-6.66l-2.736,2.355-.022.02a.36975.36975,0,0,0-.106.378.38147.38147,0,0,0,.06.119.31454.31454,0,0,0,.042.047,15.07073,15.07073,0,0,1,3.577,12.365.22439.22439,0,0,0-.009.045.42748.42748,0,0,0,.012.142.37244.37244,0,0,0,.201.233,19.9405,19.9405,0,0,0,.993-9.044"/><path class="cls-1" d="M34.396,27.91752c-.005.021-.008.042-.011.06305a15.06331,15.06331,0,0,1-7.392,10.537.21575.21575,0,0,0-.039.022.38753.38753,0,0,0-.104.098.37394.37394,0,0,0-.066.234,20.05074,20.05074,0,0,0,11.481-10.593l-3.424-.632-.029-.00494a.37194.37194,0,0,0-.361.155.3573.3573,0,0,0-.055.121"/><path class="cls-1" d="M25.03935,39.40592l-1.62-3.056-.014-.026a.37194.37194,0,0,0-.345-.187.39043.39043,0,0,0-.129.032.282.282,0,0,0-.056.032,15.07253,15.07253,0,0,1-12.85.748.2095.2095,0,0,0-.041-.017.37808.37808,0,0,0-.142-.021.37164.37164,0,0,0-.293.17505,19.93438,19.93438,0,0,0,12.86,2.815,20.18771,20.18771,0,0,0,2.63-.49506"/><path class="cls-1" d="M30.15656,20.02262a10.134,10.134,0,1,1-10.134-10.134,10.13382,10.13382,0,0,1,10.134,10.134"/></g></g></svg>