<?xml version="1.0" encoding="utf-8"?>
<!-- Generator: Adobe Illustrator 22.1.0, SVG Export Plug-In . SVG Version: 6.00 Build 0)  -->
<svg version="1.1" id="Capa_1" focusable="false" xmlns="http://www.w3.org/2000/svg" xmlns:xlink="http://www.w3.org/1999/xlink"
	 x="0px" y="0px" viewBox="0 0 996.2 996.2" style="enable-background:new 0 0 996.2 996.2;" xml:space="preserve">
<style type="text/css">
	.st0{fill:#F6BE00;}
	.st1{fill:#FFFFFF;}
	.st2{opacity:0.6;fill:#F6BE00;}
</style>
<path class="st0" d="M498.1,0C223,0,0,223,0,498.1s223,498.1,498.1,498.1s498.1-223,498.1-498.1S773.2,0,498.1,0z M746.6,388.1
	L506.1,628.5l-72-72.8l240.1-240c10-10,26.2-10,36.2,0l36.2,36.2C756.6,361.9,756.6,378.1,746.6,388.1z"/>
<path class="st1" d="M434.8,555.1l-0.4-0.5l-0.2,0.2L322,442.7c-10-10-26.2-10-36.2,0l-36.2,36.2c-10,10-10,26.2,0,36.2L416,681.5
	c10,10,26.2,10,36.2,0l53.5-53.5l-71.6-72.3L434.8,555.1z"/>
<polygon class="st1" points="434.8,555.1 434.1,555.7 505.7,628.1 506.4,627.3 "/>
<path class="st2" d="M746.6,351.9l-36.2-36.2c-10-10-26.2-10-36.2,0l-240.1,240l0,0l72,72.8l240.5-240.4
	C756.6,378.1,756.6,361.9,746.6,351.9z"/>
</svg>
