<?xml version="1.0" encoding="utf-8"?>
<!-- Generator: Adobe Illustrator 26.2.1, SVG Export Plug-In . SVG Version: 6.00 Build 0)  -->
<svg version="1.1" id="Capa_1" xmlns="http://www.w3.org/2000/svg" xmlns:xlink="http://www.w3.org/1999/xlink" x="0px" y="0px"
	 viewBox="0 0 512 512" style="enable-background:new 0 0 512 512;" xml:space="preserve">
<style type="text/css">
	.st0{fill:#CECECE;}
</style>
<path class="st0" d="M256,512c141.4,0,256-114.6,256-256S397.4,0,256,0S0,114.6,0,256S114.6,512,256,512z M369,209L241,337
	c-9.4,9.4-24.6,9.4-33.9,0l-64-64c-9.4-9.4-9.4-24.6,0-33.9s24.6-9.4,33.9,0l47,47L335,175c9.4-9.4,24.6-9.4,33.9,0s9.4,24.6,0,33.9
	L369,209z"/>
<path class="st0" d="M258.6,254.1c0.2,0.2,0.2,0.5,0,0.7c0,0,0,0,0,0l-3,3c-0.2,0.2-0.5,0.2-0.7,0c0,0,0,0,0,0l-1.5-1.5
	c-0.2-0.2-0.2-0.5,0-0.7s0.5-0.2,0.7,0l1.1,1.1l2.6-2.6C258.1,254,258.4,254,258.6,254.1C258.6,254.1,258.6,254.1,258.6,254.1z"/>
</svg>
