<?xml version="1.0" encoding="utf-8"?>
<!-- Generator: Adobe Illustrator 22.1.0, SVG Export Plug-In . SVG Version: 6.00 Build 0)  -->
<svg version="1.1" id="Capa_1" focusable="false" xmlns="http://www.w3.org/2000/svg" xmlns:xlink="http://www.w3.org/1999/xlink"
	 x="0px" y="0px" viewBox="0 0 761.6 761.8" style="enable-background:new 0 0 761.6 761.8;" xml:space="preserve">
<style type="text/css">
	.st0{opacity:0.4;fill:#3699FF;enable-background:new    ;}
	.st1{fill:#3699FF;}
</style>
<path class="st0" d="M727.7,761.8H34c-18.6,0-34-15.4-34-34.1V34C0,15.4,15.4,0,34,0h693.7c18.7,0,34,15.4,34,34v693.7
	C761.8,746.4,746.4,761.8,727.7,761.8z"/>
<path class="st1" d="M347,123.6h80c13.3,0,24,10.7,24,24v168h87.7c17.8,0,26.7,21.5,14.1,34.1L400.7,501.9c-7.5,7.5-19.8,7.5-27.3,0
	L221.1,349.7c-12.6-12.6-3.7-34.1,14.1-34.1H323v-168C323,134.3,333.7,123.6,347,123.6z M643,499.6v112c0,13.3-10.7,24-24,24H155
	c-13.3,0-24-10.7-24-24v-112c0-13.3,10.7-24,24-24h146.7l49,49c20.1,20.1,52.5,20.1,72.6,0l49-49H619
	C632.3,475.6,643,486.3,643,499.6z M519,587.6c0-11-9-20-20-20s-20,9-20,20s9,20,20,20S519,598.6,519,587.6z M583,587.6
	c0-11-9-20-20-20s-20,9-20,20s9,20,20,20S583,598.6,583,587.6z"/>
</svg>
