<?xml version="1.0" encoding="utf-8"?>
<!-- Generator: Adobe Illustrator 22.1.0, SVG Export Plug-In . SVG Version: 6.00 Build 0)  -->
<svg version="1.1" id="Capa_1" focusable="false" xmlns="http://www.w3.org/2000/svg" xmlns:xlink="http://www.w3.org/1999/xlink"
	 x="0px" y="0px" viewBox="0 0 220 220" style="enable-background:new 0 0 220 220;" xml:space="preserve">
<style type="text/css">
	.st0{fill:#D20028;}
	.st1{fill:#FCFCFC;}
</style>
<path class="st0" d="M191.7,220H28.3C12.8,220,0,207.2,0,191.7V28.3C0,12.8,12.8,0,28.3,0h163.3C207.2,0,220,12.8,220,28.3v163.3
	C220,207.2,207.2,220,191.7,220z"/>
<path class="st1" d="M90.8,126.9L57.2,93.2c-3-3-7.9-3-10.9,0l-10.9,10.9c-3,3-3,7.9,0,10.9l49.9,49.9c3,3,7.9,3,10.9,0l16.3-16.3
	L90.8,126.9L90.8,126.9z"/>
<path class="st1" d="M184.6,66l-10.9-10.9c-3-3-7.9-3-10.9,0l-72,72l0,0l21.6,21.8l72.2-72.1C187.6,73.8,187.6,69,184.6,66z"/>
</svg>
