<?xml version="1.0" encoding="utf-8"?>
<!-- Generator: Adobe Illustrator 22.1.0, SVG Export Plug-In . SVG Version: 6.00 Build 0)  -->
<svg version="1.1" id="Capa_1" focusable="false" xmlns="http://www.w3.org/2000/svg" xmlns:xlink="http://www.w3.org/1999/xlink"
	 x="0px" y="0px" viewBox="0 0 525.7 512" style="enable-background:new 0 0 525.7 512;" xml:space="preserve">
<style type="text/css">
	.st0{fill:#FFFFFF;}
	.st1{fill:#9B9B9B;}
</style>
<path class="st0" d="M384,121.9c0-6.3-2.5-12.4-7-16.9L279.1,7c-4.5-4.5-10.6-7-17-7H256v128h128V121.9z"/>
<path class="st1" d="M274.2,340c0-60.1,48.8-108.9,108.9-108.9c0.3,0,0.6,0,0.9,0V160H248c-13.2,0-24-10.8-24-24V0H24
	C10.7,0,0,10.7,0,24v464c0,13.3,10.7,24,24,24h336c13.3,0,24-10.7,24-24v-39.1c-0.3,0-0.6,0-0.9,0
	C322.9,448.9,274.2,400.2,274.2,340z"/>
<path class="st0" d="M522.6,448l-44.9-44.9c-2-2-4.8-3.1-7.6-3.1h-7.3c12.4-15.9,19.8-35.9,19.8-57.6c0-51.7-41.9-93.6-93.6-93.6
	s-93.6,41.9-93.6,93.6s41.9,93.6,93.6,93.6c21.7,0,41.7-7.4,57.6-19.8v7.3c0,2.9,1.1,5.6,3.1,7.6l44.9,44.9c4.2,4.2,11.1,4.2,15.3,0
	l12.7-12.7C526.7,459.1,526.7,452.3,522.6,448z M388.9,400c-31.8,0-57.6-25.7-57.6-57.6c0-31.8,25.7-57.6,57.6-57.6
	c31.8,0,57.6,25.7,57.6,57.6C446.5,374.2,420.8,400,388.9,400z"/>
</svg>
