<?xml version="1.0" encoding="utf-8"?>
<!-- Generator: Adobe Illustrator 26.2.1, SVG Export Plug-In . SVG Version: 6.00 Build 0)  -->
<svg version="1.1" id="Capa_1" xmlns="http://www.w3.org/2000/svg" xmlns:xlink="http://www.w3.org/1999/xlink" x="0px" y="0px"
	 viewBox="0 0 384 512" style="enable-background:new 0 0 384 512;" xml:space="preserve">
<style type="text/css">
	.st0{fill:#CECECE;}
</style>
<path class="st0" d="M64,0C28.7,0,0,28.7,0,64v384c0,35.3,28.7,64,64,64h256c35.3,0,64-28.7,64-64V160H256c-17.7,0-32-14.3-32-32V0
	H64z M256,0v128h128L256,0z M216,232v102.1l31-31c9.4-9.4,24.6-9.4,33.9,0s9.4,24.6,0,33.9l-72,72c-9.4,9.4-24.6,9.4-33.9,0l-72-72
	c-9.4-9.4-9.4-24.6,0-33.9s24.6-9.4,33.9,0l31,31V232c0-13.3,10.7-24,24-24s24,10.7,24,24H216z"/>
</svg>
