<?xml version="1.0" encoding="utf-8"?>
<!-- Generator: Adobe Illustrator 22.1.0, SVG Export Plug-In . SVG Version: 6.00 Build 0)  -->
<svg version="1.1" id="Capa_1" focusable="false" xmlns="http://www.w3.org/2000/svg" xmlns:xlink="http://www.w3.org/1999/xlink"
	 x="0px" y="0px" viewBox="0 0 512 384" style="enable-background:new 0 0 512 384;" xml:space="preserve">
<style type="text/css">
	.st0{fill:#C5C8D2;}
	.st1{fill:#7F8297;}
</style>
<path class="st0" d="M464,64H272L208,0H48C21.5,0,0,21.5,0,48v288c0,26.5,21.5,48,48,48h416c26.5,0,48-21.5,48-48V112
	C512,85.5,490.5,64,464,64z"/>
<path class="st1" d="M255.3,237.3h-10.2c-9.4,0-17-7.7-17-17v-45.9c0-9.4,7.7-17,17-17h10.2c9.4,0,17,7.7,17,17v45.8
	C272.4,229.7,264.7,237.3,255.3,237.3z"/>
<path class="st1" d="M179.5,252.5l50.2,50.2c11.2,11.2,29.5,11.2,40.6,0l50.2-50.2c5.6-5.6,8.4-13,8.4-20.3H171.1
	C171.1,239.6,173.9,246.9,179.5,252.5z"/>
<path class="st1" d="M311.8,251.3H188.1c-9.4,0-17-7.7-17-17l0,0c0-9.4,7.7-17,17-17h123.7c9.4,0,17,7.7,17,17l0,0
	C328.8,243.6,321.1,251.3,311.8,251.3z"/>
</svg>
