<?xml version="1.0" encoding="utf-8"?>
<!-- Generator: Adobe Illustrator 24.1.1, SVG Export Plug-In . SVG Version: 6.00 Build 0)  -->
<svg version="1.1" id="Capa_1" xmlns="http://www.w3.org/2000/svg" xmlns:xlink="http://www.w3.org/1999/xlink" x="0px" y="0px"
	 viewBox="0 0 60.9 91.5" style="enable-background:new 0 0 60.9 91.5;" xml:space="preserve">
<style type="text/css">
	.st0{fill:#FFFFFF;}
</style>
<g id="Capa_2_1_">
	<g id="Capa_1-2">
		<path class="st0" d="M30.5,91.5l-25-43.6C5.3,47.5,0,37.1,0,30.5C0,13.7,13.6,0,30.5,0l0,0c16.8,0,30.5,13.6,30.5,30.5
			c0,6.6-5.3,17-5.5,17.4L55.4,48L30.5,91.5z M10,45.5l20.5,35.8l20.5-35.8c1.4-2.7,4.9-10.6,4.9-15.1C56.1,16.4,45,4.8,31,4.6
			C16.9,4.3,5.3,15.4,5.1,29.5c0,0.3,0,0.7,0,1C5.1,34.9,8.6,42.8,10,45.5z M30.5,40.7c-5.6,0-10.1-4.5-10.1-10.1
			c0-5.6,4.5-10.1,10.1-10.1S40.6,25,40.6,30.6c0,0,0,0,0,0C40.6,36.2,36.1,40.7,30.5,40.7L30.5,40.7z M30.5,25.5
			c-2.8,0-5.1,2.3-5.1,5.1s2.3,5.1,5.1,5.1c2.8,0,5.1-2.3,5.1-5.1c0,0,0,0,0,0C35.6,27.8,33.3,25.5,30.5,25.5L30.5,25.5L30.5,25.5z
			 M45.6,32.8c-0.1,2.1-0.6,4.1-1.5,5.9c-0.9,1.9-2.2,3.7-3.8,5.1c-1.7,1.5-3.6,2.6-5.7,3.3c-0.5,0.2-1.1,0.3-1.7,0.5v0.9
			c0.7,0,1.3-0.1,2-0.2c2.4-0.4,4.8-1.2,6.9-2.5c2.2-1.3,4.1-3.1,5.6-5.2c1.6-2.1,2.7-4.6,3.3-7.1L45.6,32.8z M28,13.3v-0.9
			c-0.6,0-1.3,0.1-1.9,0.2c-2.4,0.4-4.8,1.2-6.9,2.5c-2.2,1.3-4.1,3.1-5.6,5.1c-1.5,2.1-2.7,4.6-3.3,7.1l5,0.8
			c0.1-2.1,0.6-4.1,1.5-5.9c0.9-1.9,2.2-3.7,3.8-5.1c1.7-1.5,3.6-2.6,5.7-3.3C27,13.6,27.5,13.5,28,13.3z"/>
	</g>
</g>
</svg>
