<?xml version="1.0" encoding="utf-8"?>
<!-- Generator: Adobe Illustrator 22.1.0, SVG Export Plug-In . SVG Version: 6.00 Build 0)  -->
<svg version="1.1" id="Capa_1" focusable="false" xmlns="http://www.w3.org/2000/svg" xmlns:xlink="http://www.w3.org/1999/xlink"
	 x="0px" y="0px" viewBox="0 0 512 512" style="enable-background:new 0 0 512 512;" xml:space="preserve">
<style type="text/css">
	.st0{opacity:0.6;fill:#F6BE00;enable-background:new    ;}
	.st1{fill:#F6BE00;}
</style>
<path class="st0" d="M358.7,369.2l0.3-28.9c0.1-8-6.3-14.4-14.3-14.3l-191.4,1.8l0,0l6.7,111h178.8
	C346.7,438.7,358.6,377.1,358.7,369.2z"/>
<path class="st1" d="M504,256c0,137-111,248-248,248S8,393,8,256C8,119.1,119,8,256,8S504,119.1,504,256z M262.7,90
	c-54.5,0-89.3,23-116.5,63.8c-3.5,5.3-2.4,12.4,2.7,16.3l34.7,26.3c5.2,3.9,12.6,3,16.7-2.1c17.9-22.7,30.1-35.8,57.3-35.8
	c20.4,0,45.7,13.1,45.7,33c0,15-12.4,22.7-32.5,34c-23.7,13-54.8,29.4-54.8,70.5v4c0,6.6,5.4,12,12,12h56c6.6,0,12-5.4,12-12v-1.3
	c0-28.5,83.2-29.6,83.2-106.7C379.2,134,319,90,262.7,90z M256,338c-25.4,0-46,20.6-46,46s20.6,46,46,46s46-20.6,46-46
	S281.4,338,256,338z"/>
</svg>
