<?xml version="1.0" encoding="UTF-8"?>
<!-- Generator: Adobe Illustrator 18.0.0, SVG Export Plug-In . SVG Version: 6.00 Build 0)  -->
<!DOCTYPE svg PUBLIC "-//W3C//DTD SVG 1.1//EN" "http://www.w3.org/Graphics/SVG/1.1/DTD/svg11.dtd">
<svg version="1.1" xmlns="http://www.w3.org/2000/svg" xmlns:xlink="http://www.w3.org/1999/xlink" x="0px" y="0px" viewBox="0 0 83.2 58.8" enable-background="new 0 0 83.2 58.8" xml:space="preserve">
<g id="Capa_2" display="none">
	<linearGradient id="SVGID_1_" gradientUnits="userSpaceOnUse" x1="-7.2009" y1="28.7729" x2="92.7991" y2="28.7729">
		<stop offset="0" style="stop-color:#FEF050"/>
		<stop offset="5.948725e-002" style="stop-color:#F9E43E"/>
		<stop offset="0.1303" style="stop-color:#F3D727"/>
		<stop offset="0.2032" style="stop-color:#F0CE09"/>
		<stop offset="0.2809" style="stop-color:#EFCB00"/>
		<stop offset="0.6685" style="stop-color:#D99544"/>
		<stop offset="0.8876" style="stop-color:#CD6F3C"/>
		<stop offset="1" style="stop-color:#C34435"/>
	</linearGradient>
	<rect x="-7.2" y="-6.4" fill="url(#SVGID_1_)" width="100" height="70.3"/>
</g>
<g id="Capa_1">
	<path display="none" fill="#FFFFFF" d="M36.5,17.3H26.2V1.4L2,25.1l24.3,23.7V29.7h-5.1v7.1l-12-11.7l12-11.7v8.9h2.5h2.5h10.3   c19.6,0,35.6,15.6,35.6,34.7h5.1C77.2,35.1,58.9,17.3,36.5,17.3 M79.7,30.8l-4.3,2.6c-2.4-4.6-5.7-8.9-9.8-12.5   c-1.3-1.1-2.6-2.2-4-3.2l1.1-1.4c1.5,0.8,3,1.7,4.5,2.6C72,22.1,76.2,26.1,79.7,30.8"/>
	<path fill="#FFFFFF" d="M16,19.1c1.4-1,2.9-1.9,4.4-2.7l1,1.4c-1.4,1-2.7,2.1-3.9,3.2C13.6,24.7,10.4,29,8,33.7l-4.2-2.6   C7.1,26.3,11.3,22.3,16,19.1"/>
	<path fill="#FFFFFF" d="M56.3,1.4v16H46.2c-22,0-40,17.9-40,40h5c0-19.3,15.7-35,35-35h10.1h2.5h2.5v-9l11.8,11.8L61.3,37.1v-7.2   h-5v19.2l20.3-20.3l3.5-3.5L56.3,1.4z"/>
</g>
</svg>