<svg id="Capa_1" data-name="Capa 1" xmlns="http://www.w3.org/2000/svg" width="42.8" height="34.5" viewBox="0 0 42.8 34.5">
  <title>check-con-border</title>
  <g>
    <path d="M17.4,33A4.9,4.9,0,0,1,14,31.5L2.6,18.4A4.7,4.7,0,0,1,3,12a4.8,4.8,0,0,1,3-1.1,4.9,4.9,0,0,1,3.4,1.5l8,9.2,16-18.5a4.4,4.4,0,0,1,3.4-1.6,4.4,4.4,0,0,1,2.9,1.1,4.5,4.5,0,0,1,.5,6.3L20.8,31.4A4.4,4.4,0,0,1,17.4,33Z" style="fill: #70d990"/>
    <path d="M36.8,3a3.1,3.1,0,0,1,2,.7A3.1,3.1,0,0,1,39.1,8L19.7,30.5a3.3,3.3,0,0,1-2.3,1h0a3.3,3.3,0,0,1-2.3-1L3.7,17.4A3.1,3.1,0,0,1,4,13.1a3.1,3.1,0,0,1,2-.7,3,3,0,0,1,2.3,1l9.1,10.5L34.5,4a3.4,3.4,0,0,1,2.3-1m0-3h0a6,6,0,0,0-4.5,2.1L17.4,19.3l-6.9-7.8A6,6,0,0,0,6,9.4a5.4,5.4,0,0,0-3.9,1.5,5.9,5.9,0,0,0-.6,8.4L12.9,32.4a6,6,0,0,0,4.5,2.1,5.9,5.9,0,0,0,4.5-2.1L41.3,9.9a5.9,5.9,0,0,0-.6-8.4A5.8,5.8,0,0,0,36.8,0Z" style="fill: #fff"/>
  </g>
</svg>
