<?xml version="1.0" encoding="utf-8"?>
<!-- Generator: Adobe Illustrator 24.2.3, SVG Export Plug-In . SVG Version: 6.00 Build 0)  -->
<svg version="1.1" id="Capa_1" xmlns="http://www.w3.org/2000/svg" xmlns:xlink="http://www.w3.org/1999/xlink" x="0px" y="0px"
	 viewBox="0 0 90 90" style="enable-background:new 0 0 90 90;" xml:space="preserve">
<style type="text/css">
	.st0{fill:#a5c814;}
</style>
<path class="st0" d="M45.1,0c-24.8,0-45,20.2-45,45s20.2,45,45,45s45-20.2,45-45S69.9,0,45.1,0z M45.1,84.1C25.8,84.1,6,67.1,6,45
	S25.1,5.9,45.1,5.9c20.1,0,39.1,17,39.1,39.1S65.2,84.1,45.1,84.1z"/>
<path class="st0" d="M65,60L50,45l15-15c1.7-1.8,1.1-3.8,0-4.9s-3.1-1.7-4.9,0l-15,15l-15-15c-1.6-1.6-3.8-1.1-4.9,0s-1.6,3.3,0,4.9
	l15,15l-15,15c-1.6,1.5-1.1,3.8,0,4.9c1.1,1.1,3.2,1.5,4.9,0l15-15l15,15c1.6,1.4,3.8,1.1,4.9,0C66.1,63.8,66.6,61.7,65,60z"/>
</svg>
