<svg id="Capa_1" data-name="Capa 1" xmlns="http://www.w3.org/2000/svg" width="62.8" height="44" viewBox="0 0 62.8 44">

  <style>
    
    .st1{stroke-width: 1.5;}
    .st2{stroke-width: 0.75;}

  .st1, .st2{
    fill: none;stroke: #000;stroke-linecap: round;stroke-linejoin: round;
    stroke-dasharray: 500;
    stroke-dashoffset: 500;
    animation: dash 5s linear;
  
    animation-fill-mode: forwards;
    animation-delay: 0.5s;
  }

  @keyframes dash {
    from {
      stroke-dashoffset: 500;
    }
    to {
      stroke-dashoffset: 0;
    }
    }

    .bk{
    fill: #81bcbf;
    opacity: 0;
    isolation: isolate;
    animation: opa 0.5s linear;
    animation-fill-mode: forwards;
    animation-delay: 1.5s;
    }

      @keyframes opa {
    from {
      opacity: 0;
    }
    to {
      opacity: 0.3;
    }
    }

  </style>


  <title>comunication</title>
  <g>
    <path class="bk" d="M62.7,24.9a1.6,1.6,0,0,0-1.6-1.6H48.6V6a2.2,2.2,0,0,0-2.2-2.2H8.9A2.2,2.2,0,0,0,6.7,6V28.9H33.4v2h-.2v.9H22.1v-.9H3.7C4,32.4,5.1,34,6.3,34H33.5v8.7A1.3,1.3,0,0,0,34.8,44H61A1.8,1.8,0,0,0,62.8,42Z" style=""/>

    <path class="st1" d="M30.3,28h0v.9H19.1V28H.8c.2,1.4,1.3,3.1,2.6,3.1H30.3" style=""/>
    <path class="st1" d="M45.5,21V3A2.2,2.2,0,0,0,43.3.8H5.8A2.2,2.2,0,0,0,3.6,3V25.8H31.1" style=""/>
    <polyline class="st2" points="31.3 23.9 5.8 23.9 5.8 2.9 43.5 2.9 43.5 21.1" style=""/>
    <path class="st2" d="M32.4,22.9,45.5,34.3a1.1,1.1,0,0,0,1.5,0L58.8,22.5" style=""/>
    <line class="st2" x1="31.6" y1="41.1" x2="42.7" y2="31.8" style=""/>
    <line class="st2" x1="60.1" y1="40.9" x2="49.3" y2="32" style=""/>
    <path class="st1" d="M32.2,21.2a1.1,1.1,0,0,0-1.1,1.1v18a1.3,1.3,0,0,0,1.3,1.3H58.7a1.8,1.8,0,0,0,1.8-1.9V22.5a1.6,1.6,0,0,0-1.6-1.6Z" style=""/>
  </g>
</svg>
