<?xml version="1.0" encoding="utf-8"?>
<!-- Generator: Adobe Illustrator 24.2.3, SVG Export Plug-In . SVG Version: 6.00 Build 0)  -->
<svg version="1.1" id="Capa_1" xmlns="http://www.w3.org/2000/svg" xmlns:xlink="http://www.w3.org/1999/xlink" x="0px" y="0px"
	 viewBox="0 0 45 45" style="enable-background:new 0 0 45 45;" xml:space="preserve">
<style type="text/css">
	.st0{fill:#00acd2;}
	.st1{display:none;}
	.st2{display:inline;fill:#81BCBF;}
</style>
<g id="Capa_1_1_">
	<g>
		<path class="st0" d="M24.2,28.9V17.7c0-0.8-0.6-1.5-1.5-1.5c-0.8,0-1.5,0.6-1.5,1.5v11.2l-3.1-3.1c-0.5-0.5-1.5-0.5-2.1,0
			c-0.3,0.3-0.4,0.6-0.4,1c0,0.4,0.1,0.8,0.4,1l5.6,5.6l0,0c0.1,0,0.1,0.1,0.2,0.2c0,0,0.1,0.1,0.1,0.1l0.1,0.1c0,0,0.1,0,0.1,0
			l0.1,0c0.1,0,0.2,0,0.3,0c0.1,0,0.2,0,0.3,0l0.2-0.1c0,0,0.1,0,0.1-0.1l0.1-0.1c0.1-0.1,0.2-0.1,0.2-0.2l5.6-5.6
			c0.3-0.3,0.4-0.6,0.4-1c0-0.4-0.1-0.8-0.4-1c-0.3-0.3-0.6-0.4-1-0.4l0,0c-0.4,0-0.8,0.1-1,0.4L24.2,28.9z M22.9,33.3L22.9,33.3
			L22.9,33.3L22.9,33.3z"/>
		<path class="st0" d="M40.7,11.3C40.6,11.2,30.3,0.5,30.3,0.5l-0.1-0.1c-0.3-0.3-0.6-0.4-1-0.4H8.5C6.3,0,4.5,1.8,4.5,4.1v36.8
			c0,2.2,1.8,4.1,4.1,4.1H37c2.2,0,4-1.8,4-4.1V12.1C41,11.7,40.9,11.5,40.7,11.3z M30.6,10.7V5l5.5,5.6H30.6z M29.2,13.6h8.9v27.3
			c0,0.6-0.5,1.1-1.1,1.1H8.5c-0.6,0-1.1-0.5-1.1-1.1V4.1c0-0.6,0.5-1.1,1.1-1.1h19.2v9.2C27.7,12.9,28.4,13.6,29.2,13.6z"/>
	</g>
</g>
<g id="Capa_2_1_" class="st1">
	<path class="st2" d="M67.6,0.1c-12.4,0-22.4,10.1-22.4,22.4s10.1,22.4,22.4,22.4S90,34.9,90,22.5S79.9,0.1,67.6,0.1z M87,22.5
		c0,10.7-8.7,19.4-19.4,19.4s-19.4-8.7-19.4-19.4S56.8,3.1,67.6,3.1S87,11.8,87,22.5z"/>
	<path class="st2" d="M67.7,11.1c-2.2,0-4,0.7-5.3,2.1c-1,1-1.6,2.3-1.8,3.9c-0.1,0.5,0.1,1,0.4,1.4c0.3,0.4,0.8,0.6,1.4,0.6
		c0.9,0,1.7-0.7,1.8-1.6c0.1-0.7,0.2-1.2,0.4-1.6c0.5-1,1.5-1.5,2.9-1.5c1.2,0,2,0.3,2.4,0.9l0,0c0.5,0.6,0.7,1.3,0.7,2.2
		c0,0.6-0.2,1.1-0.5,1.7c-0.2,0.3-0.4,0.6-0.8,0.9l-1.2,1.1c-1.2,1.2-1.9,2.2-2.3,3.1c-0.2,0.6-0.4,1.3-0.5,2.1
		c-0.1,0.5,0.1,1,0.4,1.4c0.3,0.4,0.8,0.6,1.3,0.6c0.9,0,1.7-0.7,1.8-1.6c0.1-0.6,0.2-1.1,0.3-1.4c0.2-0.6,0.8-1.3,1.7-2.1
		c1.3-1.3,2.2-2.2,2.6-2.9c0.5-0.7,0.7-1.7,0.7-2.8c0-1.8-0.6-3.4-1.9-4.6C71.4,11.7,69.7,11.1,67.7,11.1z"/>
	<path class="st2" d="M67.4,30.8c-1.1,0-1.9,0.9-1.9,1.9c0,1.1,0.9,2,1.9,2c1.1,0,1.9-0.9,1.9-2C69.3,31.7,68.5,30.8,67.4,30.8z"/>
	<path class="st2" d="M-23.2-0.1c-6.5,0-12.7,2.8-17,7.7l-0.5,0.6c-3.3,4-5.1,9.1-5.1,14.3c0,12.5,10.1,22.6,22.6,22.6
		S-0.6,34.9-0.6,22.5S-10.8-0.1-23.2-0.1z M-11,21.1c-0.1-2.9-0.5-5.8-1.1-8.4c1.6-0.5,3.3-1.2,4.9-1.9c2.2,3,3.5,6.6,3.8,10.3H-11z
		 M-13.8,21.1h-8.1v-6.7c2.4-0.1,4.7-0.4,7.1-1C-14.2,15.8-13.9,18.4-13.8,21.1z M-12.9,10.1c-0.4-1.1-0.9-2.2-1.4-3.2
		c-0.6-1.1-1.2-2.1-1.8-2.9c2.6,1,5,2.6,7,4.6C-10.4,9.2-11.6,9.7-12.9,10.1z M-21.9,11.7V2.9c2.5,0.8,4.8,3.6,6.3,7.9
		C-17.7,11.3-19.8,11.6-21.9,11.7z M-21.9,30.3v-6.4h8.1c-0.1,2.6-0.4,5.1-1,7.4C-17.1,30.7-19.5,30.4-21.9,30.3z M-15.6,34
		c-0.4,1-0.8,2-1.2,2.9c-1.5,2.8-3.2,4.7-5.1,5.3v-9.1C-19.8,33.2-17.6,33.5-15.6,34z M-8.9,36.2c-2.1,2.1-4.5,3.8-7.2,4.8
		c1.3-1.7,2.4-3.8,3.3-6.3C-11.6,35.1-10.2,35.6-8.9,36.2z M-3.4,23.8C-3.7,27.5-4.9,31-7.1,34c-1.6-0.8-3.3-1.5-5-2
		c0.6-2.5,1-5.4,1.1-8.2L-3.4,23.8L-3.4,23.8z M-31.7,31.2c-0.5-2.3-0.9-4.8-1-7.3h8.1v6.4c-1.9,0.1-3.7,0.2-5.5,0.6
		C-30.6,30.9-31.2,31.1-31.7,31.2z M-24.6,33v9.1c-1.9-0.6-3.6-2.5-5.1-5.3c-0.5-0.9-0.9-1.9-1.3-3c0.5-0.1,1.1-0.2,1.6-0.3
		C-27.8,33.2-26.2,33.1-24.6,33z M-36.1,35.5c0.8-0.3,1.7-0.7,2.5-0.9c0.9,2.6,2,4.8,3.3,6.5c-2.8-1-5.2-2.7-7.3-4.9
		C-37.2,36-36.7,35.7-36.1,35.5z M-34.4,31.9c-2.5,0.8-4.2,1.6-5,2.1c-2.1-3-3.4-6.5-3.6-10.1h7.6C-35.3,26.7-35,29.4-34.4,31.9z
		 M-43,21.1c0.3-3.7,1.5-7.3,3.8-10.3c1.3,0.7,3.1,1.4,4.9,2c-0.6,2.6-1,5.4-1.1,8.3H-43z M-24.6,2.9v8.9c-1.6-0.1-3.2-0.2-4.7-0.5
		c-0.5-0.1-1.1-0.2-1.6-0.3C-29.4,6.6-27.1,3.7-24.6,2.9z M-32.2,6.8L-32.2,6.8c-0.5,1-1,2.2-1.4,3.4c-0.9-0.3-1.7-0.6-2.5-0.9
		c-0.5-0.2-0.9-0.4-1.3-0.6c2-2.1,4.4-3.7,7.1-4.7C-31,4.8-31.6,5.8-32.2,6.8z M-31.7,13.5c0.5,0.1,1,0.2,1.6,0.3
		c1.9,0.3,3.7,0.5,5.5,0.6v6.6h-8.1C-32.6,18.5-32.3,15.9-31.7,13.5z"/>
</g>
</svg>
