<svg id="Capa_1" data-name="Capa 1" xmlns="http://www.w3.org/2000/svg" width="426.6" height="265.6" viewBox="0 0 426.6 265.6">

<style>

      .st2 {
        stroke-dasharray: 500;
        stroke-dashoffset: 500;
        animation: dash 1.5s linear;
        animation-fill-mode: forwards;
    }

    @keyframes dash {
        from {
            stroke-dashoffset: 500;
        }

        to {
            stroke-dashoffset: 0;
        }
    } 

      .st0 {
          opacity: 0;
          animation: opa 0.25s linear;
          animation-fill-mode: forwards;
      }

      @keyframes opa {
          from {
              opacity: 0;
          }

          to {
              opacity: 0.3;
          }
      }


</style>

  <title>enhorabuena</title>
  <g>
    <path class="st0" d="M66.2,221.4l-10.3,8.9-1-52.9c-14.7-7-34-14-40-18.6a.1.1,0,0,0-.1-.1,1.8,1.8,0,0,1-.5-.7l-.2-.2c0-.1-.1-.1-.1-.2a.4.4,0,0,0-.1-.3c0-.2-.1-.4-.1-.6a1.3,1.3,0,0,1,.1-.6,1.1,1.1,0,0,1,.1-.5c0-.2.1-.3.2-.5a.4.4,0,0,0,.1-.3l.2-.2.4-.3.5-.4h.1c2.5-1.1,5.7-2.9,5.7-2.9L13.4,145h-.1l-1.5-1.2h-.1l-.5-.4a13.1,13.1,0,0,1-4.5-8.8c-.7-7.9,4.1-14.9,7.8-19.5s9.2-9.7,17.4-11.4a16.1,16.1,0,0,1,11.6,1.6l.4.2,47.5,46.2,13,9.6,63.3,33.9h0l.5.6a15.4,15.4,0,0,1,4.6,8.5c2.1,26.7-21.9,37.1-33.6,41.6h-1.8l-.8-.3h-.1c-13.6-9.3-51.3-47.6-58.4-52.7l11,37.1-11.4-4.6-9.5,10.2Z" style="fill: #b8d38d; animation-delay: 2.6s"/>
    <path class="st0" d="M325.9,61.8a7.4,7.4,0,0,0-4.3-4.5L210.7,13.9a7.1,7.1,0,0,0-2.9-.5h0a8.6,8.6,0,0,0-2.3.5L94.6,57.3a7.7,7.7,0,0,0-4.3,9.9,7.4,7.4,0,0,0,4.3,4.5l10.4,4v29.1c-1.7,3.6-3.7,8.5-3.7,10.3v10.6c.1,2.9,3.1,2.5,5.8,2.5s5.5.3,5.5-2.5c0,0,.3-7.3,0-10.6-.1-1.8-1.9-6.7-3.5-10.3V77.3l23,8.5v32.3c0,6.5,3.4,10.9,7.8,14.6s9.9,6.6,16.7,9.4c13.5,5.4,31.5,9.2,51.5,9.2s38-3.8,51.5-9.2c6.7-2.8,12.3-5.8,16.7-9.4s8.1-8.1,8.1-14.6l-.6-32.3,37.8-14.1A7.8,7.8,0,0,0,325.9,61.8Z" style="fill: #80c2c2; animation-delay: 2.6s"/>
    <path class="st2" d="M277.6,83.5l.7,23.3c0,6.5-3.9,10.9-8.2,14.5s-10,6.7-16.7,9.5c-13.5,5.4-31.5,9.2-51.5,9.2s-38-3.8-51.5-9.2c-6.8-2.8-12.4-5.8-16.7-9.5s-7.8-8-7.8-14.5V74.5l-25-9.3m0,24.6c1.5,1.8,5.3,11.4,5.5,14s0,10.6,0,10.6c0,2.8-3.2,2.5-5.5,2.5s-5.7.4-5.8-2.5V103.8c0-2.6,4.3-12.2,5.8-14V65.2L88.4,60.4a7.4,7.4,0,0,1-4.3-4.5A7.7,7.7,0,0,1,88.4,46L199.3,2.6a8.6,8.6,0,0,1,2.3-.5h0a7.1,7.1,0,0,1,2.9.5L315.4,46a7.4,7.4,0,0,1,4.3,4.5,7.8,7.8,0,0,1-4.3,9.9L277.6,74.5M98.7,53.1,198.7,90c3.2,1.2,4.4,1.2,7.6,0L302,53.1M277.6,74.5l-71.3,29.3a14,14,0,0,1-7.6,0L125.9,74.5" style="fill: none;stroke: #5857a1;stroke-linecap: round;stroke-linejoin: round;stroke-width: 4.223724485728493px; animation-delay: 0.2s"/>
    
    <g>
      <path class="st2" d="M73.5,184.2c7.2,5.1,44.9,43.5,58.5,52.8h.1l.8.4h1.8c11.7-4.6,35.6-14.9,33.6-41.7a15.2,15.2,0,0,0-4.7-8.5,1.2,1.2,0,0,0-.5-.5h0L99.9,152.7l-13-9.7L39.4,96.9l-.4-.3A16.2,16.2,0,0,0,27.4,95c-8.2,1.7-14,7.2-17.5,11.4s-8.4,11.7-7.7,19.5a12.9,12.9,0,0,0,4.5,8.8l.5.4h0l1.6,1.1h0l7.9,5.9s-3.2,1.8-5.7,2.9h-.2l-.4.3-.5.4H9.8a.4.4,0,0,0-.1.3l-.3.6a4.3,4.3,0,0,0-.1.5v.5c0,.2.1.4.1.6a.4.4,0,0,0,.1.3v.5l.6.6h.1c7.2,5.6,33.3,14.9,48.2,23.2M127,222.2a9.8,9.8,0,0,0,4.1,3.2c3.5,1.4,7.6.9,11.8-1.3A24.1,24.1,0,0,0,154.5,207h0c0-.1.1-.2.1-.3s-.1-.2-.1-.4v-.6l-.2-.5-.2-.4-.4-.5-.2-.3-11.1-8.3c2.8-2.3,11.4-9.5,21.2-8.6M18.9,143.8c7.5,5.7,21.2,15.9,28.8,21.5l20.2,15H68l21.3,15.2c12.3,8.9,28.1,20.7,40.8,29.4m-3.1-2.7c-3-6,9.3-22.4,15.4-26.5" style="fill: none;stroke: #4e89a5;stroke-linecap: round;stroke-linejoin: round;stroke-width: 4.223724485728493px; animation-delay: 0.3s"/>
      <path class="st2" d="M73,183.5c1.4-11.6,8-30.9,29.1-29.5" style="fill: none;stroke: #4e89a5;stroke-linecap: round;stroke-linejoin: round;stroke-width: 4.223724485728493px; animation-delay: 0.4s"/>
      <path class="st2" d="M86.9,143c-18.5-.1-28.9,19.6-27,31.7" style="fill: none;stroke: #4e89a5;stroke-linecap: round;stroke-linejoin: round;stroke-width: 4.223724485728493px; animation-delay: 0.5s"/>
    </g>

    <polyline class="st2" points="78.3 198.6 84.6 221.4 73.2 216.8 63.6 226.9 56.3 174.5" style="fill: none;stroke: #4e89a5;stroke-linecap: round;stroke-linejoin: round;stroke-width: 4.223724485728493px; animation-delay: 1.2s"/>
    <polyline class="st2" points="61.6 212.8 51.4 221.7 50.4 168.5" style="fill: none;stroke: #4e89a5;stroke-linecap: round;stroke-linejoin: round;stroke-width: 4.223724485728493px; animation-delay: 0.6s"/>
    
    <g>
      <path class="st0" d="M417,177.4c1.3-5.1,9.6-9.3,9.6-14.8s-8.3-9.8-9.6-14.9,3.4-13.2.8-17.7-11.9-4.2-15.7-8.1-3.4-12.9-8.1-15.7-12.3,2.3-17.6.8-9.4-9.5-14.9-9.5-9.8,8.3-14.9,9.5-13.2-3.4-17.7-.8-4.2,11.9-8,15.7-13,3.4-15.8,8.1,2.4,12.4.9,17.7-9.6,9.3-9.6,14.9,5.7,8.3,8.4,12.3l-36.3,34.2,20.7,7.3,5.5,21.2L324.1,210c1.1,3.6,2.1,7.3,4.8,8.9s6.5.5,10.1-.4l-6.7,40.8,20.8-7,17.4,13.3,9-47.8c4.9.3,10.9,3.2,14.5,1.1s4.3-11.9,8.1-15.7,13-3.4,15.7-8.1S415.7,182.8,417,177.4Zm-73.5,40.4h0Zm34.6,0h0Zm-16.4-11.2a43.8,43.8,0,1,1,43.8-43.8A43.7,43.7,0,0,1,361.7,206.6Z" style="fill: #cc9661; animation-delay: 2.8s"/>
      <polygon class="st0" points="377.3 136.7 360.5 147.8 341.7 140.4 347.1 159.8 334.3 175.2 354.4 176.1 365.1 193.1 372.1 174.3 391.7 169.5 375.9 156.8 377.3 136.7" style="fill: #cc9661; animation-delay: 2.8s"/>
    </g>

    <path class="st2" d="M412.5,187.9c-2.8,4.7-11.9,4.3-15.8,8.1s-3.4,13-8.1,15.8-12.3-2.4-17.6-.9-9.4,9.6-14.9,9.6-9.8-8.3-14.9-9.6-13,3.4-17.6.9-4.3-11.9-8.1-15.8-13-3.4-15.8-8.1,2.4-12.3.9-17.6-9.6-9.4-9.6-14.9,8.3-9.8,9.6-14.9-3.4-13-.9-17.6,12-4.3,15.8-8.1,3.4-13,8.1-15.8,12.3,2.4,17.6.9,9.4-9.6,14.9-9.6,9.8,8.3,14.9,9.6,13-3.4,17.6-.9,4.3,12,8.1,15.8,13,3.4,15.8,8.1-2.4,12.3-.9,17.6,9.6,9.4,9.6,14.9-8.3,9.8-9.6,14.9S415.2,183.5,412.5,187.9Zm-12.4-32.3a43.8,43.8,0,1,0-43.8,43.8A43.7,43.7,0,0,0,400.1,155.6Z" style="fill: none;stroke: #8468a8;stroke-linecap: round;stroke-linejoin: round;stroke-width: 4.592502722131097px; animation-delay: 1s"/>
    <path class="st2" d="M299.4,167.8l-36.3,34.1,20.7,7.3,5.5,21.2,28.6-26.5" style="fill: none;stroke: #8468a8;stroke-linecap: round;stroke-linejoin: round;stroke-width: 4.592502722131097px"/>
    <path class="st2" d="M333.4,212.8l-6.5,39.3,20.8-6.9,17.4,13.3,9-47.8" style="fill: none;stroke: #8468a8;stroke-linecap: round;stroke-linejoin: round;stroke-width: 4.592502722131097px; animation-delay: 1.2s"/>
    <polygon class="st2" points="371.9 129.6 370.6 149.7 386.3 162.3 366.8 167.2 359.8 186 349 168.9 328.9 168 341.8 152.6 336.3 133.2 355.1 140.7 371.9 129.6" style="fill: none;stroke: #8468a8;stroke-linecap: round;stroke-linejoin: round;stroke-width: 4.592502722131097px; animation-delay: 1.4s"/>

  </g>
</svg>
