<?xml version="1.0" encoding="utf-8"?>
<!-- Generator: Adobe Illustrator 22.1.0, SVG Export Plug-In . SVG Version: 6.00 Build 0)  -->
<svg version="1.1" id="Capa_1" xmlns="http://www.w3.org/2000/svg" xmlns:xlink="http://www.w3.org/1999/xlink" x="0px" y="0px"
	 viewBox="0 0 169.8 139" style="enable-background:new 0 0 169.8 139;" xml:space="preserve">
<style type="text/css">
	.st0{fill:#FFFFFF;}
</style>
<title>ethics_grey</title>
<path class="st0" d="M125.6,86.4c0,0,0-0.1,0-0.1c0-0.1,0-0.2,0-0.3c0-0.1-0.1-0.3-0.1-0.5c0,0,0-0.1,0-0.1l-16.3-50.1
	c-0.5-1.4-1.7-2.3-3.2-2.3c-0.4,0-0.8,0.1-1.1,0.2l0,0L19,63.9l0,0C18,64.2,17.3,65,17,66L0.2,116.1c0,0,0,0.1,0,0.1
	c0,0.2-0.1,0.3-0.1,0.5v0.3c0,0.1,0,0.1,0,0.2c0,10.6,9.2,19.6,20.1,19.6c10.8,0,19.6-8.8,19.6-19.6c0,0,0-0.1,0-0.1v-0.3
	c0-0.2-0.1-0.3-0.1-0.5c0,0,0-0.1,0-0.1l-15.2-47l35.2-12.6v75.8H39.8v6.7h46.3v-6.7H66.3V54.1l34.4-12.3L86.6,85.4c0,0,0,0.1,0,0.1
	c0,0.2-0.1,0.3-0.1,0.5v0.3c0,0,0,0.1,0,0.1c0,10.8,8.8,19.6,19.6,19.6C116.9,106,125.7,97.2,125.6,86.4L125.6,86.4z M20.1,130
	c-5.9,0-11.1-3.8-12.9-9.5h25.3C31,126.1,25.9,130,20.1,130z M8.1,113.8l12-35.9l11.6,35.9H8.1z M106,47.3L117.6,83H94.4L106,47.3z
	 M93.6,89.8h24.8c-1.9,6.8-8.9,10.9-15.8,9C98.2,97.6,94.8,94.2,93.6,89.8z"/>
<path class="st0" d="M169.4,79.9L158.8,58c-0.6-1.4-0.9-2.9-0.9-4.4c0.1-8.4-1.1-29.5-15.1-42.7c-8.8-8.2-20.9-11.9-36-10.7
	C77.9,2.4,66.5,20,62.1,34.3l6.5,2c5.5-18,18.6-27.9,38.8-29.4c13.2-1,23.6,2,30.9,8.9c4,3.8,13.3,15,13,37.6c0,2.5,0.5,5,1.5,7.3
	L162,80l-9.8,3.7v22.2c0,3.6-2.9,6.5-6.5,6.5h-13c-3.9,0-7,3.1-7,7V132c0,0.1-0.1,0.3-0.3,0.3H99.4v6.7h26.1c3.9,0,7-3.1,7-7v-12.5
	c0-0.1,0.1-0.3,0.3-0.2h12.9c7.3,0,13.2-5.9,13.3-13.3V88.4l8.2-3.1c2.1-0.7,3.2-3,2.4-5C169.5,80.2,169.5,80,169.4,79.9L169.4,79.9
	z"/>
</svg>
