<svg id="Capa_1" data-name="Capa 1" xmlns="http://www.w3.org/2000/svg" viewBox="0 0 169.81 138.96"><title>ethics_grey</title><path d="M139.88,116.15a.77.77,0,0,0,0-.15c0-.09,0-.18,0-.28s-.06-.32-.1-.47a.58.58,0,0,0,0-.14L123.49,65a3.37,3.37,0,0,0-3.21-2.33,3.33,3.33,0,0,0-1.14.2h0L33.32,93.62h0a3.36,3.36,0,0,0-2.06,2.1L14.48,145.82a.8.8,0,0,1,0,.15,3.39,3.39,0,0,0-.1.48l0,.28c0,.05,0,.11,0,.16,0,10.62,9.22,19.6,20.14,19.6a19.62,19.62,0,0,0,19.6-19.6s0-.1,0-.14l0-.28a4,4,0,0,0-.09-.48.7.7,0,0,1,0-.14l-15.22-47,35.18-12.6V162H54.14v6.74h46.3V162H80.6V83.85L115,71.54l-14.12,43.57s0,.09,0,.14a2.46,2.46,0,0,0-.1.47l0,.28s0,.1,0,.15a19.6,19.6,0,0,0,39.2,0ZM34.45,159.74a13.54,13.54,0,0,1-12.91-9.48H46.86A12.87,12.87,0,0,1,34.45,159.74ZM22.37,143.52l12-35.94L46,143.52ZM120.28,77l11.59,35.77H108.69Zm-12.4,42.52h24.8a12.85,12.85,0,0,1-24.8,0Z" transform="translate(-14.31 -29.73)" style="fill:#ffffff"/><path d="M183.72,109.59,173.13,87.76a10.84,10.84,0,0,1-.87-4.45c.12-8.43-1.1-29.47-15.1-42.65-8.77-8.25-20.89-11.86-36-10.73C92.2,32.11,80.84,49.7,76.42,64.07l6.45,2c5.54-18,18.58-27.88,38.78-29.4,13.16-1,23.55,2,30.89,8.91,4,3.78,13.31,15,13,37.64A17.37,17.37,0,0,0,167,90.52l9.33,19.25-9.8,3.69v22.21a6.52,6.52,0,0,1-6.51,6.51H147.06a7,7,0,0,0-7,7v12.51a.26.26,0,0,1-.26.26H113.67v6.74H139.8a7,7,0,0,0,7-7V149.18a.26.26,0,0,1,.26-.25H160a13.28,13.28,0,0,0,13.26-13.26V118.13l8.2-3.09a3.94,3.94,0,0,0,2.26-5.45Z" transform="translate(-14.31 -29.73)" style="fill:#ffffff"/></svg>