<?xml version="1.0" encoding="utf-8"?>
<!-- Generator: Adobe Illustrator 23.0.1, SVG Export Plug-In . SVG Version: 6.00 Build 0)  -->
<svg version="1.1" id="Capa_1" xmlns="http://www.w3.org/2000/svg" xmlns:xlink="http://www.w3.org/1999/xlink" x="0px" y="0px"
	 viewBox="0 0 67.9 75.7" style="enable-background:new 0 0 67.9 75.7;" xml:space="preserve">
<style type="text/css">
	.st0{opacity:0.25;fill:#81BCBF;}
	.st1{fill:none;stroke:#292929;stroke-width:2;stroke-linecap:round;stroke-linejoin:round;stroke-miterlimit:10;}
	.st2{fill:none;stroke:#292929;stroke-linejoin:round;stroke-miterlimit:10;}
	.st3{fill:none;stroke:#292929;stroke-linecap:round;stroke-linejoin:round;stroke-miterlimit:10;}
	.st4{fill:none;stroke:#292929;stroke-width:1.5;stroke-linecap:round;stroke-linejoin:round;stroke-miterlimit:10;}
	.st5{fill:none;stroke:#292929;stroke-width:2;stroke-linejoin:round;stroke-miterlimit:10;}

  .st1, .st2, .st3, .st4, .st5{
	stroke-dasharray: 500;
    stroke-dashoffset: 500;
    animation: dash 2.5s linear;
    stroke-width: 2;
    animation-fill-mode: forwards;
  }

  @keyframes dash {
    from {
      stroke-dashoffset: 500;
    }
    to {
      stroke-dashoffset: 0;
    }
  }
  .st1{
  stroke-dashoffset: 500;
  }

</style>
<g>
	<rect x="6.9" y="6.9" class="st0" width="54.6" height="68.8"/>
	<polyline style="animation-delay: 1s;" class="st1" points="55.6,56.8 55.6,69.8 1,69.8 1,1 55.6,1 55.6,23.7 	"/>
	<rect x="8.4" y="8.4" class="st2" width="12.5" height="12.5"/>
	<line style="animation-delay: 0.5s;" class="st3" x1="26" y1="14.6" x2="44.1" y2="14.6"/>
	<line style="animation-delay: 0.75s;" class="st3" x1="26" y1="19.1" x2="44.1" y2="19.1"/>
	<line style="animation-delay: 1s;" class="st4" x1="13.1" y1="29.4" x2="43.5" y2="29.4"/>
	<line style="animation-delay: 1.25s;" class="st4" x1="13.1" y1="36.8" x2="43.5" y2="36.8"/>
	<line style="animation-delay: 1.5s;" class="st4" x1="13.1" y1="44.2" x2="37.5" y2="44.2"/>
	<line style="animation-delay: 1.75s;" class="st4" x1="13.1" y1="51.5" x2="33.5" y2="51.5"/>
	<line style="animation-delay: 2s;" class="st4" x1="13.1" y1="58.9" x2="32.5" y2="58.9"/>
	<g>
		<polygon style="animation-delay: 2.25s;" class="st5" points="56.9,31.6 38.4,50.1 36.8,58.9 45.6,57.3 64.1,38.8 		"/>
		<line style="animation-delay: 2.5s;" class="st5" x1="38.4" y1="50.1" x2="45.6" y2="57.3"/>
		<line style="animation-delay: 2.6s;" class="st5" x1="60.5" y1="35.2" x2="42" y2="53.7"/>
		<polyline style="animation-delay: 2.7s;" class="st5" points="56.9,31.6 59.7,28.8 66.9,36 64.1,38.8 		"/>
	</g>
</g>
</svg>
