<?xml version="1.0" encoding="utf-8"?>
<!-- Generator: Adobe Illustrator 22.1.0, SVG Export Plug-In . SVG Version: 6.00 Build 0)  -->
<svg version="1.1" id="Capa_1" xmlns="http://www.w3.org/2000/svg" xmlns:xlink="http://www.w3.org/1999/xlink" x="0px" y="0px"
	 viewBox="0 0 487.4 731.8" style="enable-background:new 0 0 487.4 731.8;" xml:space="preserve">
<style type="text/css">
	.st0{fill:#81BCBF;}
</style>
<g>
	<path class="st0" d="M415.9,32.7c-3.4-0.8-7-1.2-10.5-1.2c-8.9,0-18,2.5-27,7.1c-11.5,5.9-22.9,15.4-33.9,27.8
		c-7.6,8.5-14.9,18.4-21.9,29.5c22.5,24.5,43.7,52.7,62.7,83.9c43.1,71.2,66.6,145.4,70.2,209.4c6.7-18.2,12.6-37.7,17.4-58.1
		c2.2-9.1,4.1-18.4,5.9-27.9c2.2-12.3,4-24.3,5.3-36C498.8,138.6,463.3,44,415.9,32.7z"/>
	<path class="st0" d="M333.7,561.1c-6,0-12-0.4-18.2-1.1c-12.3-1.5-24.9-4.5-37.7-8.8c-33.9-11.5-69.3-32.7-103.1-61.9
		c-1.4,0.8-2.8,1.6-4.1,2.5c-3,1.8-5.9,3.7-8.8,5.6C69,556.7,12.5,624.6,1.8,668.6c-3.1,12.9-2.3,23.7,2.6,31.7
		c9.8,15.8,33.8,19.1,52.2,19.1c0,0,0,0,0,0c54.1,0,134-28.6,208.5-74.7c45.7-28.3,85.8-60.5,116.1-93.1
		C366.6,558,350.6,561.1,333.7,561.1z"/>
	<path class="st0" d="M442.8,399.3c-1.6-66.8-26-142.4-68.7-212.9C306.5,74.9,206.6,0,125.6,0c-20,0-38,4.8-53.5,14.1
		c-30.2,18.3-48.8,52.9-54.1,99.3c-1.3,11.1-1.8,22.9-1.5,35.3c1.6,66.8,26,142.4,68.7,212.8c67.6,111.5,167.5,186.5,248.5,186.5
		c0,0,0,0,0,0c20,0,38-4.8,53.5-14.1c12.4-7.5,22.8-17.8,31.2-30.5C435.4,477.9,443.9,442.3,442.8,399.3z"/>
	<path class="st0" d="M272,655.8c-7,4.3-14,8.4-21,12.4c-7.8,33.7-5.5,56.7,3.9,62.2c1.7,1,3.7,1.4,6.1,1.4
		c25.3,0,78.7-46.5,124.1-124.3c18.6-31.9,33-64.1,41.8-93.1C398.3,559.9,343,611.9,272,655.8z"/>
</g>
<g>
</g>
<g>
</g>
<g>
</g>
<g>
</g>
<g>
</g>
<g>
</g>
<g>
</g>
<g>
</g>
<g>
</g>
<g>
</g>
<g>
</g>
<g>
</g>
<g>
</g>
<g>
</g>
<g>
</g>
</svg>
