<?xml version="1.0" encoding="utf-8"?>
<!-- Generator: Adobe Illustrator 22.1.0, SVG Export Plug-In . SVG Version: 6.00 Build 0)  -->
<svg version="1.1" xmlns="http://www.w3.org/2000/svg" xmlns:xlink="http://www.w3.org/1999/xlink" x="0px" y="0px"
	 viewBox="0 0 35 39.4" style="enable-background:new 0 0 35 39.4;" xml:space="preserve">
<style type="text/css">
	.st0{fill:#81BCBF;}
	.st1{fill:#585799;}
	.st2{fill:url(#SVGID_1_);}
	.st3{fill:#B6CE8C;}
	.st4{fill:#508AA6;}
	.st5{fill:url(#SVGID_2_);}
	.st6{opacity:0.2;fill:#4E8AA7;}
	.st7{fill:#292929;}
	.st8{fill:none;stroke:#292929;stroke-width:2;stroke-linejoin:round;stroke-miterlimit:10;}
	.st9{fill:none;stroke:#292929;stroke-linecap:round;stroke-linejoin:round;stroke-miterlimit:10;}
	.st10{opacity:0.2;}
	.st11{fill:#4E8AA7;}
	.st12{opacity:0.5;fill:#81BCBF;}
	.st13{fill:none;stroke:#292929;stroke-width:2;stroke-linecap:round;stroke-linejoin:round;stroke-miterlimit:10;}
	.st14{fill:none;stroke:#292929;stroke-linejoin:round;stroke-miterlimit:10;}
	.st15{fill:none;stroke:#292929;stroke-width:1.5;stroke-linecap:round;stroke-linejoin:round;stroke-miterlimit:10;}
	.st16{opacity:0.25;}
	.st17{opacity:0.2;fill:#585799;}
	.st18{fill:none;stroke:#282828;stroke-linecap:round;stroke-linejoin:round;stroke-miterlimit:10;}
	.st19{fill:none;stroke:#282828;stroke-linejoin:round;stroke-miterlimit:10;}
	.st20{fill:#282828;}
	.st21{opacity:0.5;fill:#B6CE8C;}
	.st22{opacity:0.5;}
	.st23{fill:none;stroke:#292929;stroke-width:1.9456;stroke-linecap:round;stroke-linejoin:round;stroke-miterlimit:10;}
</style>
<g id="COLORES">
	<rect x="-246.9" y="-388.4" class="st0" width="36" height="36"/>
	<rect x="-246.9" y="-352.4" class="st1" width="36" height="36"/>
	<linearGradient id="SVGID_1_" gradientUnits="userSpaceOnUse" x1="-318.9458" y1="-352.4175" x2="-246.9458" y2="-352.4175">
		<stop  offset="0" style="stop-color:#81BCBF"/>
		<stop  offset="1" style="stop-color:#585799"/>
	</linearGradient>
	<rect x="-318.9" y="-388.4" class="st2" width="72" height="72"/>
	<rect x="-246.9" y="-310.4" class="st3" width="36" height="36"/>
	<rect x="-246.9" y="-274.4" class="st4" width="36" height="36"/>
	<linearGradient id="SVGID_2_" gradientUnits="userSpaceOnUse" x1="-318.9458" y1="-274.4175" x2="-246.9458" y2="-274.4175">
		<stop  offset="0" style="stop-color:#B6CE8C"/>
		<stop  offset="1" style="stop-color:#508AA6"/>
	</linearGradient>
	<rect x="-318.9" y="-310.4" class="st5" width="72" height="72"/>
	<g>
		<rect x="204.5" y="-52.1" class="st6" width="27.3" height="27.3"/>
		<g>
			<path class="st7" d="M208-38.7l0.7-0.8c1,0.9,2,1.4,3.4,1.4c1.3,0,2.2-0.7,2.2-1.7v0c0-0.9-0.5-1.5-2.6-1.9
				c-2.3-0.5-3.4-1.2-3.4-2.9v0c0-1.6,1.4-2.7,3.3-2.7c1.5,0,2.5,0.4,3.5,1.2l-0.7,0.9c-0.9-0.8-1.9-1.1-2.9-1.1
				c-1.3,0-2.1,0.7-2.1,1.6v0c0,0.9,0.5,1.5,2.7,1.9c2.2,0.5,3.3,1.3,3.3,2.8v0c0,1.7-1.4,2.8-3.4,2.8
				C210.5-37.1,209.2-37.6,208-38.7z"/>
			<path class="st7" d="M217.7-44.6h1.1v7.4h-1.1V-44.6z M219.2-47.8l1.1,0.5l-1.6,1.5h-0.9L219.2-47.8z"/>
		</g>
		<rect x="200.5" y="-56.1" class="st8" width="27.3" height="27.3"/>
	</g>
	<g>
		<rect x="283.4" y="-51.9" class="st6" width="27.3" height="27.3"/>
		<rect x="279.4" y="-55.9" class="st8" width="27.3" height="27.3"/>
		<polyline class="st9" points="283.4,-36.4 291,-48.1 288.6,-38.7 294.4,-42.9 292.8,-39 298.8,-42.2 297.1,-38.8 302.7,-41.1 		
			"/>
	</g>
	<g>
		<rect x="364.5" y="-51.9" class="st6" width="27.3" height="27.3"/>
		<rect x="360.5" y="-55.9" class="st8" width="27.3" height="27.3"/>
		<g>
			<polyline class="st9" points="370.5,-41.2 372.8,-38.2 377,-45.4 			"/>
			<path class="st9" d="M381.9-42.2c0,4.3-3.5,7.8-7.8,7.8c-4.3,0-7.8-3.5-7.8-7.8c0-4.3,3.5-7.8,7.8-7.8
				C378.4-50,381.9-46.5,381.9-42.2z"/>
		</g>
	</g>
	<g>
		<g class="st10">
			<rect x="204.5" y="7.4" class="st11" width="27.3" height="27.3"/>
		</g>
		<g>
			<g>
				<path class="st7" d="M208,20.8l0.7-0.8c1,0.9,2,1.4,3.4,1.4c1.3,0,2.2-0.7,2.2-1.7v0c0-0.9-0.5-1.5-2.6-1.9
					c-2.3-0.5-3.4-1.2-3.4-2.9v0c0-1.6,1.4-2.7,3.3-2.7c1.5,0,2.5,0.4,3.5,1.2l-0.7,0.9c-0.9-0.8-1.9-1.1-2.9-1.1
					c-1.3,0-2.1,0.7-2.1,1.6v0c0,0.9,0.5,1.5,2.7,1.9c2.2,0.5,3.3,1.3,3.3,2.8v0c0,1.7-1.4,2.8-3.4,2.8
					C210.5,22.4,209.2,21.9,208,20.8z"/>
			</g>
			<g>
				<path class="st7" d="M217.7,14.9h1.1v7.4h-1.1V14.9z M219.2,11.7l1.1,0.5l-1.6,1.5h-0.9L219.2,11.7z"/>
			</g>
		</g>
		<g>
			<path class="st7" d="M227.8,31.7h-27.3c-0.6,0-1-0.4-1-1V3.4c0-0.6,0.4-1,1-1h27.3c0.6,0,1,0.4,1,1v27.3
				C228.8,31.3,228.3,31.7,227.8,31.7z M201.5,29.7h25.3V4.4h-25.3V29.7z"/>
		</g>
	</g>
	<g>
		<g class="st10">
			<rect x="283.4" y="7.6" class="st11" width="27.3" height="27.3"/>
		</g>
		<g>
			<path class="st7" d="M306.7,31.9h-27.3c-0.6,0-1-0.4-1-1V3.6c0-0.6,0.4-1,1-1h27.3c0.6,0,1,0.4,1,1v27.3
				C307.7,31.5,307.2,31.9,306.7,31.9z M280.4,29.9h25.3V4.6h-25.3V29.9z"/>
		</g>
		<g>
			<path class="st7" d="M283.4,23.6c-0.1,0-0.2,0-0.3-0.1c-0.2-0.2-0.3-0.5-0.1-0.7l7.6-11.6c0.1-0.2,0.4-0.3,0.6-0.2
				c0.2,0.1,0.3,0.3,0.3,0.6l-2.1,8l4.7-3.4c0.2-0.1,0.4-0.1,0.6,0c0.2,0.1,0.2,0.4,0.2,0.6l-1.1,2.6l4.8-2.6
				c0.2-0.1,0.4-0.1,0.6,0.1c0.2,0.2,0.2,0.4,0.1,0.6l-1.1,2.2l4.3-1.7c0.3-0.1,0.5,0,0.7,0.3c0.1,0.3,0,0.5-0.3,0.7l-5.6,2.2
				c-0.2,0.1-0.4,0-0.6-0.1s-0.2-0.4-0.1-0.6l1-2L293,21c-0.2,0.1-0.4,0.1-0.6-0.1c-0.2-0.1-0.2-0.4-0.1-0.6l0.9-2.2l-4.4,3.2
				c-0.2,0.1-0.4,0.1-0.6,0c-0.2-0.1-0.3-0.3-0.2-0.5l1.7-6.4l-6,9.1C283.7,23.5,283.6,23.6,283.4,23.6z"/>
		</g>
	</g>
	<g>
		<g class="st10">
			<rect x="364.5" y="7.6" class="st11" width="27.3" height="27.3"/>
		</g>
		<g>
			<path class="st7" d="M387.8,31.9h-27.3c-0.6,0-1-0.4-1-1V3.6c0-0.6,0.4-1,1-1h27.3c0.6,0,1,0.4,1,1v27.3
				C388.8,31.5,388.3,31.9,387.8,31.9z M361.5,29.9h25.3V4.6h-25.3V29.9z"/>
		</g>
		<g>
			<g>
				<path class="st7" d="M372.8,21.8c-0.2,0-0.3-0.1-0.4-0.2l-2.4-2.9c-0.2-0.2-0.1-0.5,0.1-0.7c0.2-0.2,0.5-0.1,0.7,0.1l1.9,2.4
					l3.8-6.5c0.1-0.2,0.4-0.3,0.7-0.2c0.2,0.1,0.3,0.4,0.2,0.7l-4.2,7.1C373.2,21.7,373,21.8,372.8,21.8
					C372.9,21.8,372.9,21.8,372.8,21.8z"/>
			</g>
			<g>
				<path class="st7" d="M374.1,25.6c-4.6,0-8.3-3.7-8.3-8.3s3.7-8.3,8.3-8.3c4.6,0,8.3,3.7,8.3,8.3S378.7,25.6,374.1,25.6z
					 M374.1,10c-4,0-7.3,3.3-7.3,7.3s3.3,7.3,7.3,7.3c4,0,7.3-3.3,7.3-7.3S378.2,10,374.1,10z"/>
			</g>
		</g>
	</g>
</g>
<g id="Tratamiento_de_Datos">
	<path class="st12" d="M466.4-167.9h20.2c2.8,0,5,2.2,5,5v48.6c0,2.8-2.2,5-5,5h-58.2c-2.8,0-5-2.2-5-5v-48.6c0-2.8,2.2-5,5-5h20.2"
		/>
	<g>
		<rect x="-79.4" y="-292.6" class="st12" width="54.6" height="68.8"/>
		<polyline class="st13" points="-30.8,-242.6 -30.8,-229.7 -85.3,-229.7 -85.3,-298.4 -30.8,-298.4 -30.8,-275.7 		"/>
		<rect x="-78" y="-291.1" class="st14" width="12.5" height="12.5"/>
		<line class="st9" x1="-60.3" y1="-284.8" x2="-42.3" y2="-284.8"/>
		<line class="st9" x1="-60.3" y1="-280.4" x2="-42.3" y2="-280.4"/>
		<line class="st15" x1="-73.2" y1="-270" x2="-42.9" y2="-270"/>
		<line class="st15" x1="-73.2" y1="-262.6" x2="-42.9" y2="-262.6"/>
		<line class="st15" x1="-73.2" y1="-255.3" x2="-48.9" y2="-255.3"/>
		<line class="st15" x1="-73.2" y1="-247.9" x2="-52.9" y2="-247.9"/>
		<line class="st15" x1="-73.2" y1="-240.5" x2="-53.9" y2="-240.5"/>
		<g>
			<polygon class="st8" points="-29.5,-267.8 -48,-249.3 -49.5,-240.5 -40.8,-242.1 -22.3,-260.6 			"/>
			<line class="st8" x1="-48" y1="-249.3" x2="-40.8" y2="-242.1"/>
			<line class="st8" x1="-25.9" y1="-264.2" x2="-44.4" y2="-245.7"/>
			<polyline class="st8" points="-29.5,-267.8 -26.6,-270.7 -19.4,-263.5 -22.3,-260.6 			"/>
		</g>
	</g>
	<rect x="-79.4" y="-176.6" class="st12" width="54.6" height="68.8"/>
	<rect x="-85.3" y="-182.4" class="st13" width="54.6" height="68.8"/>
	<rect x="-78" y="-175.1" class="st14" width="12.5" height="12.5"/>
	<line class="st9" x1="-60.3" y1="-168.8" x2="-42.3" y2="-168.8"/>
	<line class="st9" x1="-60.3" y1="-164.4" x2="-42.3" y2="-164.4"/>
	<line class="st15" x1="-73.2" y1="-154" x2="-42.9" y2="-154"/>
	<line class="st15" x1="-73.2" y1="-146.6" x2="-42.9" y2="-146.6"/>
	<line class="st15" x1="-73.2" y1="-139.3" x2="-42.9" y2="-139.3"/>
	<line class="st15" x1="-73.2" y1="-131.9" x2="-42.9" y2="-131.9"/>
	<line class="st15" x1="-73.2" y1="-124.5" x2="-42.9" y2="-124.5"/>
	<g>
		<g class="st16">
			<rect x="36.8" y="-176.6" class="st0" width="54.6" height="68.8"/>
		</g>
		<g>
			<path class="st7" d="M85.5-112.7H30.9c-0.6,0-1-0.4-1-1v-68.8c0-0.6,0.4-1,1-1h54.6c0.6,0,1,0.4,1,1v68.8
				C86.5-113.1,86-112.7,85.5-112.7z M31.9-114.7h52.6v-66.8H31.9V-114.7z"/>
		</g>
		<g>
			<path class="st7" d="M50.8-162.1H38.3c-0.3,0-0.5-0.2-0.5-0.5v-12.5c0-0.3,0.2-0.5,0.5-0.5h12.5c0.3,0,0.5,0.2,0.5,0.5v12.5
				C51.3-162.3,51.1-162.1,50.8-162.1z M38.8-163.1h11.5v-11.5H38.8V-163.1z"/>
		</g>
		<g>
			<path class="st7" d="M74-168.3H55.9c-0.3,0-0.5-0.2-0.5-0.5s0.2-0.5,0.5-0.5H74c0.3,0,0.5,0.2,0.5,0.5S74.2-168.3,74-168.3z"/>
		</g>
		<g>
			<path class="st7" d="M74-163.9H55.9c-0.3,0-0.5-0.2-0.5-0.5s0.2-0.5,0.5-0.5H74c0.3,0,0.5,0.2,0.5,0.5S74.2-163.9,74-163.9z"/>
		</g>
		<g>
			<path class="st7" d="M73.4-153.3H43c-0.4,0-0.8-0.3-0.8-0.8s0.3-0.8,0.8-0.8h30.4c0.4,0,0.8,0.3,0.8,0.8S73.8-153.3,73.4-153.3z"
				/>
		</g>
		<g>
			<path class="st7" d="M73.4-145.9H43c-0.4,0-0.8-0.3-0.8-0.8s0.3-0.8,0.8-0.8h30.4c0.4,0,0.8,0.3,0.8,0.8S73.8-145.9,73.4-145.9z"
				/>
		</g>
		<g>
			<path class="st7" d="M73.4-138.5H43c-0.4,0-0.8-0.3-0.8-0.8s0.3-0.8,0.8-0.8h30.4c0.4,0,0.8,0.3,0.8,0.8S73.8-138.5,73.4-138.5z"
				/>
		</g>
		<g>
			<path class="st7" d="M73.4-131.2H43c-0.4,0-0.8-0.3-0.8-0.8s0.3-0.8,0.8-0.8h30.4c0.4,0,0.8,0.3,0.8,0.8S73.8-131.2,73.4-131.2z"
				/>
		</g>
		<g>
			<path class="st7" d="M73.4-123.8H43c-0.4,0-0.8-0.3-0.8-0.8s0.3-0.8,0.8-0.8h30.4c0.4,0,0.8,0.3,0.8,0.8S73.8-123.8,73.4-123.8z"
				/>
		</g>
	</g>
	<g>
		<g class="st16">
			<rect x="36.6" y="-292.6" class="st0" width="54.6" height="68.8"/>
		</g>
		<g>
			<path class="st7" d="M85.2-228.7H30.7c-0.6,0-1-0.4-1-1v-68.8c0-0.6,0.4-1,1-1h54.6c0.6,0,1,0.4,1,1v22.7c0,0.6-0.4,1-1,1
				s-1-0.4-1-1v-21.7H31.7v66.8h52.6v-11.9c0-0.6,0.4-1,1-1s1,0.4,1,1v12.9C86.2-229.1,85.8-228.7,85.2-228.7z"/>
		</g>
		<g>
			<path class="st7" d="M50.6-278.1H38c-0.3,0-0.5-0.2-0.5-0.5v-12.5c0-0.3,0.2-0.5,0.5-0.5h12.5c0.3,0,0.5,0.2,0.5,0.5v12.5
				C51.1-278.3,50.8-278.1,50.6-278.1z M38.5-279.1h11.5v-11.5H38.5V-279.1z"/>
		</g>
		<g>
			<path class="st7" d="M73.7-284.3H55.7c-0.3,0-0.5-0.2-0.5-0.5s0.2-0.5,0.5-0.5h18.1c0.3,0,0.5,0.2,0.5,0.5S74-284.3,73.7-284.3z"
				/>
		</g>
		<g>
			<path class="st7" d="M73.7-279.9H55.7c-0.3,0-0.5-0.2-0.5-0.5s0.2-0.5,0.5-0.5h18.1c0.3,0,0.5,0.2,0.5,0.5S74-279.9,73.7-279.9z"
				/>
		</g>
		<g>
			<path class="st7" d="M73.1-269.3H42.8c-0.4,0-0.8-0.3-0.8-0.8s0.3-0.8,0.8-0.8h30.4c0.4,0,0.8,0.3,0.8,0.8S73.5-269.3,73.1-269.3
				z"/>
		</g>
		<g>
			<path class="st7" d="M73.1-261.9H42.8c-0.4,0-0.8-0.3-0.8-0.8s0.3-0.8,0.8-0.8h30.4c0.4,0,0.8,0.3,0.8,0.8S73.5-261.9,73.1-261.9
				z"/>
		</g>
		<g>
			<path class="st7" d="M67.1-254.5H42.8c-0.4,0-0.8-0.3-0.8-0.8s0.3-0.8,0.8-0.8h24.4c0.4,0,0.8,0.3,0.8,0.8S67.5-254.5,67.1-254.5
				z"/>
		</g>
		<g>
			<path class="st7" d="M63.1-247.2H42.8c-0.4,0-0.8-0.3-0.8-0.8s0.3-0.8,0.8-0.8h20.4c0.4,0,0.8,0.3,0.8,0.8S63.5-247.2,63.1-247.2
				z"/>
		</g>
		<g>
			<path class="st7" d="M62.1-239.8H42.8c-0.4,0-0.8-0.3-0.8-0.8s0.3-0.8,0.8-0.8h19.4c0.4,0,0.8,0.3,0.8,0.8S62.5-239.8,62.1-239.8
				z"/>
		</g>
		<g>
			<g>
				<path class="st7" d="M66.5-239.5c-0.3,0-0.5-0.1-0.7-0.3c-0.2-0.2-0.3-0.6-0.3-0.9l1.6-8.8c0-0.2,0.1-0.4,0.3-0.5l18.5-18.5
					c0.2-0.2,0.4-0.3,0.7-0.3l0,0c0.3,0,0.5,0.1,0.7,0.3l7.2,7.2c0.4,0.4,0.4,1,0,1.4l-18.5,18.5c-0.1,0.1-0.3,0.2-0.5,0.3l-8.8,1.6
					C66.6-239.5,66.5-239.5,66.5-239.5z M69-248.8l-1.3,7.1l7-1.3l17.6-17.6l-5.8-5.8L69-248.8z"/>
			</g>
			<g>
				
					<rect x="70.6" y="-250.8" transform="matrix(0.7072 -0.707 0.707 0.7072 194.7009 -21.3033)" class="st7" width="2" height="10.2"/>
			</g>
			<g>
				
					<rect x="67.8" y="-256" transform="matrix(0.7071 -0.7071 0.7071 0.7071 203.9747 -17.4824)" class="st7" width="26.2" height="2"/>
			</g>
			<g>
				<path class="st7" d="M94.4-259.9l-1.4-1.4l2.1-2.1l-5.8-5.8l-2.1,2.1l-1.4-1.4l2.8-2.9c0.2-0.2,0.4-0.3,0.7-0.3l0,0
					c0.3,0,0.5,0.1,0.7,0.3l7.2,7.2c0.4,0.4,0.4,1,0,1.4L94.4-259.9z"/>
			</g>
		</g>
	</g>
	<g>
		<rect x="-73.9" y="-54.5" class="st17" width="27.3" height="34.4"/>
		<rect x="-77.9" y="-58.5" class="st8" width="27.3" height="34.4"/>
		<g>
			<line class="st15" x1="-71.8" y1="-51.5" x2="-56.7" y2="-51.5"/>
			<line class="st15" x1="-71.8" y1="-47.4" x2="-56.7" y2="-47.4"/>
			<line class="st15" x1="-71.8" y1="-43.4" x2="-56.7" y2="-43.4"/>
			<line class="st15" x1="-71.8" y1="-39.3" x2="-56.7" y2="-39.3"/>
			<line class="st15" x1="-71.8" y1="-35.3" x2="-56.7" y2="-35.3"/>
			<line class="st15" x1="-71.8" y1="-31.2" x2="-56.7" y2="-31.2"/>
		</g>
	</g>
	<g>
		<rect x="5" y="-54.5" class="st17" width="27.3" height="34.4"/>
		<polyline class="st13" points="28.3,-29.3 28.3,-24.1 1,-24.1 1,-58.5 28.3,-58.5 28.3,-47.3 		"/>
		<g>
			<line class="st15" x1="7.1" y1="-51.5" x2="22.2" y2="-51.5"/>
			<line class="st15" x1="7.1" y1="-47.4" x2="22.2" y2="-47.4"/>
			<line class="st15" x1="7.1" y1="-43.4" x2="22.2" y2="-43.4"/>
			<line class="st15" x1="7.1" y1="-39.3" x2="21.3" y2="-39.3"/>
			<line class="st15" x1="7.1" y1="-35.3" x2="17.9" y2="-35.3"/>
			<line class="st15" x1="7.1" y1="-31.2" x2="17.2" y2="-31.2"/>
		</g>
		<g>
			<polygon class="st18" points="29.8,-43.8 21,-35 20.3,-30.9 24.4,-31.6 33.2,-40.4 			"/>
			<line class="st18" x1="21" y1="-35" x2="24.4" y2="-31.6"/>
			<line class="st19" x1="31.5" y1="-42.1" x2="22.7" y2="-33.3"/>
			<polyline class="st18" points="29.8,-43.8 31.1,-45.1 34.5,-41.7 33.2,-40.4 			"/>
		</g>
	</g>
	<g>
		<rect x="86.1" y="-54.5" class="st17" width="27.3" height="34.4"/>
		<polyline class="st13" points="109.4,-29.3 109.4,-24.1 82.1,-24.1 82.1,-58.5 109.4,-58.5 109.4,-47.3 		"/>
		<g>
			<line class="st15" x1="88.2" y1="-51.5" x2="103.3" y2="-51.5"/>
			<line class="st15" x1="88.2" y1="-47.4" x2="103.3" y2="-47.4"/>
			<line class="st15" x1="88.2" y1="-43.4" x2="98.3" y2="-43.4"/>
			<line class="st15" x1="88.2" y1="-39.3" x2="97.5" y2="-39.3"/>
			<line class="st15" x1="88.2" y1="-35.3" x2="99" y2="-35.3"/>
			<line class="st15" x1="88.2" y1="-31.2" x2="103.3" y2="-31.2"/>
		</g>
		<path class="st9" d="M109.5-40.9c0.5,2.5-1.1,5-3.6,5.5c-2.5,0.5-5-1.1-5.5-3.6c-0.5-2.5,1.1-5,3.6-5.5
			C106.6-45,109-43.4,109.5-40.9z"/>
		<path class="st9" d="M109.5-40.9c0.5,2.5-1.1,5-3.6,5.5c-2.5,0.5-5-1.1-5.5-3.6c-0.5-2.5,1.1-5,3.6-5.5
			C106.6-45,109-43.4,109.5-40.9z"/>
		<line class="st9" x1="108.1" y1="-36.5" x2="112.4" y2="-31.6"/>
	</g>
	<g>
		<g class="st10">
			<rect x="-73.9" y="5" class="st1" width="27.3" height="34.4"/>
		</g>
		<g>
			<path class="st7" d="M-50.6,36.4h-27.3c-0.6,0-1-0.4-1-1V1c0-0.6,0.4-1,1-1h27.3c0.6,0,1,0.4,1,1v34.4
				C-49.6,35.9-50,36.4-50.6,36.4z M-76.9,34.4h25.3V2h-25.3V34.4z"/>
		</g>
		<g>
			<g>
				<path class="st7" d="M-56.7,8.8h-15.2c-0.4,0-0.8-0.3-0.8-0.8s0.3-0.8,0.8-0.8h15.2c0.4,0,0.8,0.3,0.8,0.8S-56.2,8.8-56.7,8.8z"
					/>
			</g>
			<g>
				<path class="st7" d="M-56.7,12.9h-15.2c-0.4,0-0.8-0.3-0.8-0.8s0.3-0.8,0.8-0.8h15.2c0.4,0,0.8,0.3,0.8,0.8
					S-56.2,12.9-56.7,12.9z"/>
			</g>
			<g>
				<path class="st7" d="M-56.7,16.9h-15.2c-0.4,0-0.8-0.3-0.8-0.8s0.3-0.8,0.8-0.8h15.2c0.4,0,0.8,0.3,0.8,0.8
					S-56.2,16.9-56.7,16.9z"/>
			</g>
			<g>
				<path class="st7" d="M-56.7,21h-15.2c-0.4,0-0.8-0.3-0.8-0.8s0.3-0.8,0.8-0.8h15.2c0.4,0,0.8,0.3,0.8,0.8S-56.2,21-56.7,21z"/>
			</g>
			<g>
				<path class="st7" d="M-56.7,25h-15.2c-0.4,0-0.8-0.3-0.8-0.8s0.3-0.8,0.8-0.8h15.2c0.4,0,0.8,0.3,0.8,0.8S-56.2,25-56.7,25z"/>
			</g>
			<g>
				<path class="st7" d="M-56.7,29.1h-15.2c-0.4,0-0.8-0.3-0.8-0.8s0.3-0.8,0.8-0.8h15.2c0.4,0,0.8,0.3,0.8,0.8
					S-56.2,29.1-56.7,29.1z"/>
			</g>
		</g>
	</g>
	<g>
		<g class="st10">
			<rect x="5" y="5" class="st1" width="27.3" height="34.4"/>
		</g>
		<g>
			<path class="st7" d="M28.3,36.4H1c-0.6,0-1-0.4-1-1V1c0-0.6,0.4-1,1-1h27.3c0.6,0,1,0.4,1,1v11.3c0,0.6-0.4,1-1,1s-1-0.4-1-1V2H2
				v32.4h25.3v-4.1c0-0.6,0.4-1,1-1s1,0.4,1,1v5.1C29.3,35.9,28.8,36.4,28.3,36.4z"/>
		</g>
		<g>
			<g>
				<path class="st7" d="M22.2,8.8H7.1c-0.4,0-0.8-0.3-0.8-0.8s0.3-0.8,0.8-0.8h15.2c0.4,0,0.8,0.3,0.8,0.8S22.6,8.8,22.2,8.8z"/>
			</g>
			<g>
				<path class="st7" d="M22.2,12.9H7.1c-0.4,0-0.8-0.3-0.8-0.8s0.3-0.8,0.8-0.8h15.2c0.4,0,0.8,0.3,0.8,0.8S22.6,12.9,22.2,12.9z"
					/>
			</g>
			<g>
				<path class="st7" d="M22.2,16.9H7.1c-0.4,0-0.8-0.3-0.8-0.8s0.3-0.8,0.8-0.8h15.2c0.4,0,0.8,0.3,0.8,0.8S22.6,16.9,22.2,16.9z"
					/>
			</g>
			<g>
				<path class="st7" d="M21.3,21H7.1c-0.4,0-0.8-0.3-0.8-0.8s0.3-0.8,0.8-0.8h14.3c0.4,0,0.8,0.3,0.8,0.8S21.8,21,21.3,21z"/>
			</g>
			<g>
				<path class="st7" d="M17.9,25H7.1c-0.4,0-0.8-0.3-0.8-0.8s0.3-0.8,0.8-0.8h10.9c0.4,0,0.8,0.3,0.8,0.8S18.3,25,17.9,25z"/>
			</g>
			<g>
				<path class="st7" d="M17.2,29.1H7.1c-0.4,0-0.8-0.3-0.8-0.8s0.3-0.8,0.8-0.8h10.2c0.4,0,0.8,0.3,0.8,0.8S17.6,29.1,17.2,29.1z"
					/>
			</g>
		</g>
		<g>
			<g>
				<path class="st20" d="M20.3,29.2c-0.1,0-0.3-0.1-0.4-0.1c-0.1-0.1-0.2-0.3-0.1-0.4l0.7-4.1c0-0.1,0.1-0.2,0.1-0.3l8.7-8.7
					c0.1-0.1,0.2-0.1,0.4-0.1l0,0c0.1,0,0.3,0.1,0.4,0.1l3.4,3.4c0.2,0.2,0.2,0.5,0,0.7l-8.7,8.7c-0.1,0.1-0.2,0.1-0.3,0.1
					L20.3,29.2C20.3,29.2,20.3,29.2,20.3,29.2z M21.5,24.8L20.9,28l3.3-0.6l8.3-8.3l-2.7-2.7L21.5,24.8z"/>
			</g>
			<g>
				<path class="st20" d="M24.4,28.4c-0.1,0-0.3,0-0.4-0.1l-3.4-3.4c-0.2-0.2-0.2-0.5,0-0.7s0.5-0.2,0.7,0l3.4,3.4
					c0.2,0.2,0.2,0.5,0,0.7C24.7,28.4,24.6,28.4,24.4,28.4z"/>
			</g>
			<g>
				
					<rect x="20.9" y="21.3" transform="matrix(0.7071 -0.7071 0.7071 0.7071 -7.5103 25.5561)" class="st20" width="12.4" height="1"/>
			</g>
			<g>
				<path class="st20" d="M33.2,19.7c-0.1,0-0.3,0-0.4-0.1c-0.2-0.2-0.2-0.5,0-0.7l1-1l-2.7-2.7l-1,1c-0.2,0.2-0.5,0.2-0.7,0
					s-0.2-0.5,0-0.7l1.3-1.3c0.1-0.1,0.2-0.1,0.4-0.1l0,0c0.1,0,0.3,0.1,0.4,0.1l3.4,3.4c0.2,0.2,0.2,0.5,0,0.7l-1.3,1.3
					C33.4,19.6,33.3,19.7,33.2,19.7z"/>
			</g>
		</g>
	</g>
	<g>
		<g class="st10">
			<rect x="86.1" y="5" class="st1" width="27.3" height="34.4"/>
		</g>
		<g>
			<path class="st7" d="M109.4,36.4H82.1c-0.6,0-1-0.4-1-1V1c0-0.6,0.4-1,1-1h27.3c0.6,0,1,0.4,1,1v11.3c0,0.6-0.4,1-1,1s-1-0.4-1-1
				V2H83.1v32.4h25.3v-4.1c0-0.6,0.4-1,1-1s1,0.4,1,1v5.1C110.4,35.9,110,36.4,109.4,36.4z"/>
		</g>
		<g>
			<g>
				<path class="st7" d="M103.3,8.8H88.2c-0.4,0-0.8-0.3-0.8-0.8s0.3-0.8,0.8-0.8h15.2c0.4,0,0.8,0.3,0.8,0.8S103.8,8.8,103.3,8.8z"
					/>
			</g>
			<g>
				<path class="st7" d="M103.3,12.9H88.2c-0.4,0-0.8-0.3-0.8-0.8s0.3-0.8,0.8-0.8h15.2c0.4,0,0.8,0.3,0.8,0.8
					S103.8,12.9,103.3,12.9z"/>
			</g>
			<g>
				<path class="st7" d="M98.3,16.9H88.2c-0.4,0-0.8-0.3-0.8-0.8s0.3-0.8,0.8-0.8h10.2c0.4,0,0.8,0.3,0.8,0.8S98.8,16.9,98.3,16.9z"
					/>
			</g>
			<g>
				<path class="st7" d="M97.5,21h-9.3c-0.4,0-0.8-0.3-0.8-0.8s0.3-0.8,0.8-0.8h9.3c0.4,0,0.8,0.3,0.8,0.8S97.9,21,97.5,21z"/>
			</g>
			<g>
				<path class="st7" d="M99,25H88.2c-0.4,0-0.8-0.3-0.8-0.8s0.3-0.8,0.8-0.8H99c0.4,0,0.8,0.3,0.8,0.8S99.4,25,99,25z"/>
			</g>
			<g>
				<path class="st7" d="M103.3,29.1H88.2c-0.4,0-0.8-0.3-0.8-0.8s0.3-0.8,0.8-0.8h15.2c0.4,0,0.8,0.3,0.8,0.8
					S103.8,29.1,103.3,29.1z"/>
			</g>
		</g>
		<g>
			<path class="st7" d="M105,24.8c-2.4,0-4.5-1.7-5.1-4.1c-0.3-1.3,0-2.7,0.7-3.9c0.8-1.2,1.9-1.9,3.3-2.2c2.8-0.6,5.5,1.2,6.1,4
				c0.3,1.3,0,2.7-0.7,3.9c-0.8,1.2-1.9,1.9-3.3,2.2C105.7,24.7,105.3,24.8,105,24.8z M105,15.4c-0.3,0-0.6,0-0.8,0.1
				c-1.1,0.2-2,0.9-2.6,1.8c-0.6,0.9-0.8,2-0.6,3.1c0.5,2.2,2.7,3.7,4.9,3.2c1.1-0.2,2-0.9,2.6-1.8c0.6-0.9,0.8-2,0.6-3.1
				C108.7,16.8,106.9,15.4,105,15.4z"/>
		</g>
		<g>
			<path class="st7" d="M105,24.8c-2.4,0-4.5-1.7-5.1-4.1c-0.3-1.3,0-2.7,0.7-3.9c0.8-1.2,1.9-1.9,3.3-2.2c2.8-0.6,5.5,1.2,6.1,4
				c0.3,1.3,0,2.7-0.7,3.9c-0.8,1.2-1.9,1.9-3.3,2.2C105.7,24.7,105.3,24.8,105,24.8z M105,15.4c-0.3,0-0.6,0-0.8,0.1
				c-1.1,0.2-2,0.9-2.6,1.8c-0.6,0.9-0.8,2-0.6,3.1c0.5,2.2,2.7,3.7,4.9,3.2c1.1-0.2,2-0.9,2.6-1.8c0.6-0.9,0.8-2,0.6-3.1
				C108.7,16.8,106.9,15.4,105,15.4z"/>
		</g>
		<g>
			<path class="st7" d="M112.4,28.4c-0.1,0-0.3-0.1-0.4-0.2l-4.3-4.8c-0.2-0.2-0.2-0.5,0-0.7s0.5-0.2,0.7,0l4.3,4.8
				c0.2,0.2,0.2,0.5,0,0.7C112.6,28.4,112.5,28.4,112.4,28.4z"/>
		</g>
	</g>
	<rect x="188.5" y="-293.3" class="st21" width="54.6" height="68.8"/>
	<g>
		<line class="st15" x1="194.7" y1="-285.8" x2="225" y2="-285.8"/>
		<line class="st15" x1="194.7" y1="-278.3" x2="225" y2="-278.3"/>
		<line class="st15" x1="194.7" y1="-270.8" x2="218" y2="-270.8"/>
		<line class="st15" x1="194.7" y1="-263.3" x2="215" y2="-263.3"/>
		<line class="st15" x1="194.7" y1="-255.8" x2="215" y2="-255.8"/>
		<line class="st15" x1="194.7" y1="-248.3" x2="218" y2="-248.3"/>
	</g>
	<polyline class="st13" points="237.1,-243.4 237.1,-230.5 182.6,-230.5 182.6,-299.2 237.1,-299.2 237.1,-276.5 	"/>
	<rect x="188.5" y="-177.1" class="st12" width="54.6" height="68.8"/>
	<polyline class="st13" points="237.1,-127.2 237.1,-114.2 182.6,-114.2 182.6,-183 237.1,-183 237.1,-127.2 	"/>
	<g>
		<polyline class="st13" points="225.4,-258.2 229.1,-253.6 235.6,-264.7 		"/>
		<path class="st13" d="M243.3-259.9c0,6.7-5.5,12.2-12.2,12.2c-6.7,0-12.2-5.5-12.2-12.2c0-6.7,5.5-12.2,12.2-12.2
			C237.9-272.1,243.3-266.6,243.3-259.9z"/>
	</g>
	<g>
		<g class="st22">
			<rect x="304.7" y="-293.3" class="st3" width="54.6" height="68.8"/>
		</g>
		<g>
			<g>
				<path class="st7" d="M341.2-285h-30.4c-0.4,0-0.8-0.3-0.8-0.8s0.3-0.8,0.8-0.8h30.4c0.4,0,0.8,0.3,0.8,0.8S341.7-285,341.2-285z
					"/>
			</g>
			<g>
				<path class="st7" d="M341.2-277.6h-30.4c-0.4,0-0.8-0.3-0.8-0.8s0.3-0.8,0.8-0.8h30.4c0.4,0,0.8,0.3,0.8,0.8
					S341.7-277.6,341.2-277.6z"/>
			</g>
			<g>
				<path class="st7" d="M334.2-270.1h-23.4c-0.4,0-0.8-0.3-0.8-0.8s0.3-0.8,0.8-0.8h23.4c0.4,0,0.8,0.3,0.8,0.8
					S334.7-270.1,334.2-270.1z"/>
			</g>
			<g>
				<path class="st7" d="M331.2-262.6h-20.4c-0.4,0-0.8-0.3-0.8-0.8s0.3-0.8,0.8-0.8h20.4c0.4,0,0.8,0.3,0.8,0.8
					S331.7-262.6,331.2-262.6z"/>
			</g>
			<g>
				<path class="st7" d="M331.2-255.1h-20.4c-0.4,0-0.8-0.3-0.8-0.8s0.3-0.8,0.8-0.8h20.4c0.4,0,0.8,0.3,0.8,0.8
					S331.7-255.1,331.2-255.1z"/>
			</g>
			<g>
				<path class="st7" d="M334.2-247.6h-23.4c-0.4,0-0.8-0.3-0.8-0.8s0.3-0.8,0.8-0.8h23.4c0.4,0,0.8,0.3,0.8,0.8
					S334.7-247.6,334.2-247.6z"/>
			</g>
		</g>
		<g>
			<path class="st7" d="M353.4-229.5h-54.6c-0.6,0-1-0.4-1-1v-68.8c0-0.6,0.4-1,1-1h54.6c0.6,0,1,0.4,1,1v22.7c0,0.6-0.4,1-1,1
				s-1-0.4-1-1v-21.7h-52.6v66.8h52.6v-11.9c0-0.6,0.4-1,1-1s1,0.4,1,1v12.9C354.4-229.9,353.9-229.5,353.4-229.5z"/>
		</g>
		<g>
			<g>
				<path class="st7" d="M345.3-252.6c-0.3,0-0.6-0.1-0.8-0.4l-3.7-4.6c-0.3-0.4-0.3-1.1,0.2-1.4c0.4-0.3,1.1-0.3,1.4,0.2l2.8,3.5
					l5.8-9.9c0.3-0.5,0.9-0.6,1.4-0.4c0.5,0.3,0.6,0.9,0.4,1.4l-6.5,11.2C346-252.8,345.7-252.6,345.3-252.6
					C345.4-252.6,345.3-252.6,345.3-252.6z"/>
			</g>
			<g>
				<path class="st7" d="M347.4-246.6c-7.3,0-13.2-5.9-13.2-13.2s5.9-13.2,13.2-13.2c7.3,0,13.2,5.9,13.2,13.2
					S354.6-246.6,347.4-246.6z M347.4-271.1c-6.2,0-11.2,5-11.2,11.2s5,11.2,11.2,11.2s11.2-5,11.2-11.2S353.5-271.1,347.4-271.1z"
					/>
			</g>
		</g>
	</g>
	<g>
		<line class="st9" x1="203.1" y1="-169.6" x2="227.7" y2="-169.6"/>
		<circle class="st9" cx="194.9" cy="-169.6" r="2.9"/>
	</g>
	<g>
		<line class="st9" x1="203.1" y1="-158.2" x2="227.7" y2="-158.2"/>
		<circle class="st9" cx="194.9" cy="-158.2" r="2.9"/>
	</g>
	<g>
		<line class="st9" x1="203.1" y1="-146.9" x2="227.7" y2="-146.9"/>
		<circle class="st9" cx="194.9" cy="-146.9" r="2.9"/>
	</g>
	<g>
		<line class="st9" x1="203.1" y1="-135.6" x2="227.7" y2="-135.6"/>
		<circle class="st9" cx="194.9" cy="-135.6" r="2.9"/>
	</g>
	<g>
		<g class="st16">
			<rect x="304.7" y="-177.1" class="st0" width="54.6" height="68.8"/>
		</g>
		<g>
			<path class="st7" d="M353.4-113.2h-54.6c-0.6,0-1-0.4-1-1V-183c0-0.6,0.4-1,1-1h54.6c0.6,0,1,0.4,1,1v68.8
				C354.4-113.7,353.9-113.2,353.4-113.2z M299.8-115.2h52.6V-182h-52.6V-115.2z"/>
		</g>
		<g>
			<g>
				<path class="st7" d="M343.9-168.9h-24.5c-0.4,0-0.7-0.3-0.7-0.7s0.3-0.7,0.7-0.7h24.5c0.4,0,0.7,0.3,0.7,0.7
					S344.3-168.9,343.9-168.9z"/>
			</g>
			<g>
				<path class="st7" d="M311.2-166c-2,0-3.6-1.6-3.6-3.6c0-2,1.6-3.6,3.6-3.6c2,0,3.6,1.6,3.6,3.6C314.7-167.6,313.1-166,311.2-166
					z M311.2-171.8c-1.2,0-2.2,1-2.2,2.2s1,2.2,2.2,2.2s2.2-1,2.2-2.2S312.4-171.8,311.2-171.8z"/>
			</g>
		</g>
		<g>
			<g>
				<path class="st7" d="M343.9-157.6h-24.5c-0.4,0-0.7-0.3-0.7-0.7s0.3-0.7,0.7-0.7h24.5c0.4,0,0.7,0.3,0.7,0.7
					S344.3-157.6,343.9-157.6z"/>
			</g>
			<g>
				<path class="st7" d="M311.2-154.7c-2,0-3.6-1.6-3.6-3.6s1.6-3.6,3.6-3.6c2,0,3.6,1.6,3.6,3.6S313.1-154.7,311.2-154.7z
					 M311.2-160.5c-1.2,0-2.2,1-2.2,2.2s1,2.2,2.2,2.2s2.2-1,2.2-2.2S312.4-160.5,311.2-160.5z"/>
			</g>
		</g>
		<g>
			<g>
				<path class="st7" d="M343.9-146.2h-24.5c-0.4,0-0.7-0.3-0.7-0.7s0.3-0.7,0.7-0.7h24.5c0.4,0,0.7,0.3,0.7,0.7
					S344.3-146.2,343.9-146.2z"/>
			</g>
			<g>
				<path class="st7" d="M311.2-143.3c-2,0-3.6-1.6-3.6-3.6c0-2,1.6-3.6,3.6-3.6c2,0,3.6,1.6,3.6,3.6
					C314.7-144.9,313.1-143.3,311.2-143.3z M311.2-149.1c-1.2,0-2.2,1-2.2,2.2s1,2.2,2.2,2.2s2.2-1,2.2-2.2S312.4-149.1,311.2-149.1
					z"/>
			</g>
		</g>
		<g>
			<g>
				<path class="st7" d="M343.9-134.9h-24.5c-0.4,0-0.7-0.3-0.7-0.7s0.3-0.7,0.7-0.7h24.5c0.4,0,0.7,0.3,0.7,0.7
					S344.3-134.9,343.9-134.9z"/>
			</g>
			<g>
				<path class="st7" d="M311.2-132c-2,0-3.6-1.6-3.6-3.6s1.6-3.6,3.6-3.6c2,0,3.6,1.6,3.6,3.6S313.1-132,311.2-132z M311.2-137.8
					c-1.2,0-2.2,1-2.2,2.2s1,2.2,2.2,2.2s2.2-1,2.2-2.2S312.4-137.8,311.2-137.8z"/>
			</g>
		</g>
	</g>
	<path class="st23" d="M460.7-173.6h20.2c2.8,0,5,2.2,5,5v48.6c0,2.8-2.2,5-5,5h-58.2c-2.8,0-5-2.2-5-5v-48.6c0-2.8,2.2-5,5-5h20.2"
		/>
	<path class="st23" d="M460.7-173.6h20.2c2.8,0,5,2.2,5,5v48.6c0,2.8-2.2,5-5,5h-58.2c-2.8,0-5-2.2-5-5v-48.6c0-2.8,2.2-5,5-5h20.2"
		/>
	<line class="st23" x1="446.6" y1="-173.6" x2="457.1" y2="-173.6"/>
	<g>
		<rect x="426.8" y="-162.3" class="st9" width="7.6" height="7.6"/>
		<rect x="440.9" y="-162.3" class="st9" width="7.6" height="7.6"/>
		<rect x="455.1" y="-162.3" class="st9" width="7.6" height="7.6"/>
		<rect x="469.3" y="-162.3" class="st9" width="7.6" height="7.6"/>
	</g>
	<g>
		<rect x="426.8" y="-148.1" class="st9" width="7.6" height="7.6"/>
		<rect x="440.9" y="-148.1" class="st9" width="7.6" height="7.6"/>
		<rect x="455.1" y="-148.1" class="st9" width="7.6" height="7.6"/>
		<rect x="469.3" y="-148.1" class="st9" width="7.6" height="7.6"/>
	</g>
	<g>
		<rect x="426.8" y="-133.9" class="st9" width="7.6" height="7.6"/>
		<rect x="440.9" y="-133.9" class="st9" width="7.6" height="7.6"/>
		<rect x="455.1" y="-133.9" class="st9" width="7.6" height="7.6"/>
		<rect x="469.3" y="-133.9" class="st9" width="7.6" height="7.6"/>
	</g>
	<path class="st23" d="M444.7-178.8L444.7-178.8c-1,0-1.8,0.8-1.8,1.8v6.7c0,1,0.8,1.8,1.8,1.8l0,0c1,0,1.8-0.8,1.8-1.8v-6.7
		C446.6-178,445.7-178.8,444.7-178.8z"/>
	<path class="st23" d="M458.9-178.8L458.9-178.8c-1,0-1.8,0.8-1.8,1.8v6.7c0,1,0.8,1.8,1.8,1.8h0c1,0,1.8-0.8,1.8-1.8v-6.7
		C460.7-178,459.9-178.8,458.9-178.8z"/>
	<g>
		<g class="st16">
			<path class="st0" d="M582.6-167.9h20.2c2.8,0,5,2.2,5,5v48.6c0,2.8-2.2,5-5,5h-58.2c-2.8,0-5-2.2-5-5v-48.6c0-2.8,2.2-5,5-5h20.2
				"/>
		</g>
		<g>
			<path class="st7" d="M597.2-114h-58.2c-3.3,0-6-2.7-6-6v-48.6c0-3.3,2.7-6,6-6h20.2c0.5,0,1,0.4,1,1s-0.4,1-1,1h-20.2
				c-2.2,0-4,1.8-4,4v48.6c0,2.2,1.8,4,4,4h58.2c2.2,0,4-1.8,4-4v-48.6c0-2.2-1.8-4-4-4H577c-0.5,0-1-0.4-1-1s0.4-1,1-1h20.2
				c3.3,0,6,2.7,6,6v48.6C603.1-116.7,600.5-114,597.2-114z"/>
		</g>
		<g>
			<path class="st7" d="M597.2-114h-58.2c-3.3,0-6-2.7-6-6v-48.6c0-3.3,2.7-6,6-6h20.2c0.5,0,1,0.4,1,1s-0.4,1-1,1h-20.2
				c-2.2,0-4,1.8-4,4v48.6c0,2.2,1.8,4,4,4h58.2c2.2,0,4-1.8,4-4v-48.6c0-2.2-1.8-4-4-4H577c-0.5,0-1-0.4-1-1s0.4-1,1-1h20.2
				c3.3,0,6,2.7,6,6v48.6C603.1-116.7,600.5-114,597.2-114z"/>
		</g>
		<g>
			<path class="st7" d="M573.3-172.6h-10.5c-0.5,0-1-0.4-1-1s0.4-1,1-1h10.5c0.5,0,1,0.4,1,1S573.8-172.6,573.3-172.6z"/>
		</g>
		<g>
			<g>
				<path class="st7" d="M550.6-154.2H543c-0.3,0-0.5-0.2-0.5-0.5v-7.6c0-0.3,0.2-0.5,0.5-0.5h7.6c0.3,0,0.5,0.2,0.5,0.5v7.6
					C551.1-154.4,550.8-154.2,550.6-154.2z M543.5-155.2h6.6v-6.6h-6.6V-155.2z"/>
			</g>
			<g>
				<path class="st7" d="M564.7-154.2h-7.6c-0.3,0-0.5-0.2-0.5-0.5v-7.6c0-0.3,0.2-0.5,0.5-0.5h7.6c0.3,0,0.5,0.2,0.5,0.5v7.6
					C565.2-154.4,565-154.2,564.7-154.2z M557.7-155.2h6.6v-6.6h-6.6V-155.2z"/>
			</g>
			<g>
				<path class="st7" d="M578.9-154.2h-7.6c-0.3,0-0.5-0.2-0.5-0.5v-7.6c0-0.3,0.2-0.5,0.5-0.5h7.6c0.3,0,0.5,0.2,0.5,0.5v7.6
					C579.4-154.4,579.2-154.2,578.9-154.2z M571.8-155.2h6.6v-6.6h-6.6V-155.2z"/>
			</g>
			<g>
				<path class="st7" d="M593.1-154.2h-7.6c-0.3,0-0.5-0.2-0.5-0.5v-7.6c0-0.3,0.2-0.5,0.5-0.5h7.6c0.3,0,0.5,0.2,0.5,0.5v7.6
					C593.6-154.4,593.4-154.2,593.1-154.2z M586-155.2h6.6v-6.6H586V-155.2z"/>
			</g>
		</g>
		<g>
			<g>
				<path class="st7" d="M550.6-140H543c-0.3,0-0.5-0.2-0.5-0.5v-7.6c0-0.3,0.2-0.5,0.5-0.5h7.6c0.3,0,0.5,0.2,0.5,0.5v7.6
					C551.1-140.2,550.8-140,550.6-140z M543.5-141h6.6v-6.6h-6.6V-141z"/>
			</g>
			<g>
				<path class="st7" d="M564.7-140h-7.6c-0.3,0-0.5-0.2-0.5-0.5v-7.6c0-0.3,0.2-0.5,0.5-0.5h7.6c0.3,0,0.5,0.2,0.5,0.5v7.6
					C565.2-140.2,565-140,564.7-140z M557.7-141h6.6v-6.6h-6.6V-141z"/>
			</g>
			<g>
				<path class="st7" d="M578.9-140h-7.6c-0.3,0-0.5-0.2-0.5-0.5v-7.6c0-0.3,0.2-0.5,0.5-0.5h7.6c0.3,0,0.5,0.2,0.5,0.5v7.6
					C579.4-140.2,579.2-140,578.9-140z M571.8-141h6.6v-6.6h-6.6V-141z"/>
			</g>
			<g>
				<path class="st7" d="M593.1-140h-7.6c-0.3,0-0.5-0.2-0.5-0.5v-7.6c0-0.3,0.2-0.5,0.5-0.5h7.6c0.3,0,0.5,0.2,0.5,0.5v7.6
					C593.6-140.2,593.4-140,593.1-140z M586-141h6.6v-6.6H586V-141z"/>
			</g>
		</g>
		<g>
			<g>
				<path class="st7" d="M550.6-125.8H543c-0.3,0-0.5-0.2-0.5-0.5v-7.6c0-0.3,0.2-0.5,0.5-0.5h7.6c0.3,0,0.5,0.2,0.5,0.5v7.6
					C551.1-126.1,550.8-125.8,550.6-125.8z M543.5-126.8h6.6v-6.6h-6.6V-126.8z"/>
			</g>
			<g>
				<path class="st7" d="M564.7-125.8h-7.6c-0.3,0-0.5-0.2-0.5-0.5v-7.6c0-0.3,0.2-0.5,0.5-0.5h7.6c0.3,0,0.5,0.2,0.5,0.5v7.6
					C565.2-126.1,565-125.8,564.7-125.8z M557.7-126.8h6.6v-6.6h-6.6V-126.8z"/>
			</g>
			<g>
				<path class="st7" d="M578.9-125.8h-7.6c-0.3,0-0.5-0.2-0.5-0.5v-7.6c0-0.3,0.2-0.5,0.5-0.5h7.6c0.3,0,0.5,0.2,0.5,0.5v7.6
					C579.4-126.1,579.2-125.8,578.9-125.8z M571.8-126.8h6.6v-6.6h-6.6V-126.8z"/>
			</g>
			<g>
				<path class="st7" d="M593.1-125.8h-7.6c-0.3,0-0.5-0.2-0.5-0.5v-7.6c0-0.3,0.2-0.5,0.5-0.5h7.6c0.3,0,0.5,0.2,0.5,0.5v7.6
					C593.6-126.1,593.4-125.8,593.1-125.8z M586-126.8h6.6v-6.6H586V-126.8z"/>
			</g>
		</g>
		<g>
			<path class="st7" d="M560.9-167.4c-1.5,0-2.8-1.3-2.8-2.8v-6.7c0-1.5,1.3-2.8,2.8-2.8c1.5,0,2.8,1.3,2.8,2.8v6.7
				C563.8-168.7,562.5-167.4,560.9-167.4z M560.9-177.8c-0.5,0-0.9,0.4-0.9,0.9v6.7c0,0.5,0.4,0.9,0.9,0.9s0.9-0.4,0.9-0.9v-6.7
				C561.8-177.4,561.4-177.8,560.9-177.8z"/>
		</g>
		<g>
			<path class="st7" d="M575.1-167.4c-1.5,0-2.8-1.3-2.8-2.8v-6.7c0-1.5,1.3-2.8,2.8-2.8c1.5,0,2.8,1.3,2.8,2.8v6.7
				C577.9-168.7,576.7-167.4,575.1-167.4z M575.1-177.8c-0.5,0-0.9,0.4-0.9,0.9v6.7c0,0.5,0.4,0.9,0.9,0.9s0.9-0.4,0.9-0.9v-6.7
				C576-177.4,575.6-177.8,575.1-177.8z"/>
		</g>
	</g>
	<g>
		<path class="st21" d="M479.6-265.5L479.6-265.5c0.8-2.5,1.2-5.2,1.2-8c0-14.7-11.9-26.7-26.7-26.7s-26.7,11.9-26.7,26.7
			c0,2.8,0.4,5.5,1.2,8h0l0,0c0.3,1,0.7,2,1.1,3l10.4,27.2h27.8l10.4-27.2C478.9-263.5,479.3-264.5,479.6-265.5L479.6-265.5z"/>
		<path class="st13" d="M474-271.2L474-271.2c0.8-2.5,1.2-5.2,1.2-8c0-14.7-11.9-26.7-26.7-26.7c-14.7,0-26.7,11.9-26.7,26.7
			c0,2.8,0.4,5.5,1.2,8h0l0,0c0.3,1,0.7,2,1.1,3l10.4,27.2h27.8l10.4-27.2C473.2-269.1,473.6-270.1,474-271.2L474-271.2z"/>
		<line class="st13" x1="434.6" y1="-236" x2="462.4" y2="-236"/>
		<line class="st13" x1="437.1" y1="-230.8" x2="460" y2="-230.8"/>
		<line class="st13" x1="439.5" y1="-225.7" x2="457.5" y2="-225.7"/>
		<polyline class="st13" points="444.5,-240.9 439.5,-259.5 457.5,-259.5 452.6,-240.9 		"/>
		<line class="st13" x1="442" y1="-263.2" x2="455" y2="-263.2"/>
		<line class="st13" x1="444.5" y1="-266.9" x2="452.6" y2="-266.9"/>
	</g>
	<path class="st13" d="M428.1-278.7c0-11.3,9.2-20.4,20.4-20.4"/>
	<g>
		<g>
			<g class="st16">
				<path class="st3" d="M595.8-265.5L595.8-265.5c0.8-2.5,1.2-5.2,1.2-8c0-14.7-11.9-26.7-26.7-26.7s-26.7,11.9-26.7,26.7
					c0,2.8,0.4,5.5,1.2,8h0l0,0c0.3,1,0.7,2,1.1,3l10.4,27.2h27.8l10.4-27.2C595.1-263.5,595.5-264.5,595.8-265.5L595.8-265.5z"/>
			</g>
			<g>
				<path class="st7" d="M578.6-239.9h-27.8c-0.4,0-0.8-0.3-0.9-0.6l-10.4-27.2c-0.4-1-0.8-2-1.2-3.1c-0.8-2.7-1.3-5.5-1.3-8.3
					c0-15.2,12.4-27.7,27.7-27.7s27.7,12.4,27.7,27.7c0,2.8-0.4,5.6-1.3,8.3c0,0,0,0,0,0c-0.3,1.1-0.7,2.1-1.2,3.1l-10.4,27.2
					C579.4-240.2,579-239.9,578.6-239.9z M551.5-241.9h26.4l10.1-26.6c0.4-1,0.8-2,1.1-3c0,0,0,0,0,0c0.8-2.5,1.2-5,1.2-7.7
					c0-14.1-11.5-25.7-25.7-25.7c-14.1,0-25.7,11.5-25.7,25.7c0,2.6,0.4,5.2,1.2,7.7c0.3,1,0.7,2,1.1,2.9L551.5-241.9z M590.2-271.2
					L590.2-271.2L590.2-271.2z"/>
			</g>
			<g>
				<path class="st7" d="M578.6-235h-27.8c-0.6,0-1-0.4-1-1s0.4-1,1-1h27.8c0.6,0,1,0.4,1,1S579.2-235,578.6-235z"/>
			</g>
			<g>
				<path class="st7" d="M576.2-229.8h-22.9c-0.6,0-1-0.4-1-1s0.4-1,1-1h22.9c0.6,0,1,0.4,1,1S576.7-229.8,576.2-229.8z"/>
			</g>
			<g>
				<path class="st7" d="M573.7-224.7h-18c-0.6,0-1-0.4-1-1s0.4-1,1-1h18c0.6,0,1,0.4,1,1S574.3-224.7,573.7-224.7z"/>
			</g>
			<g>
				<path class="st7" d="M568.8-239.9c-0.1,0-0.2,0-0.3,0c-0.5-0.1-0.9-0.7-0.7-1.2l4.6-17.3h-15.4l4.6,17.3
					c0.1,0.5-0.2,1.1-0.7,1.2c-0.5,0.1-1.1-0.2-1.2-0.7l-4.9-18.6c-0.1-0.3,0-0.6,0.2-0.9c0.2-0.2,0.5-0.4,0.8-0.4h18
					c0.3,0,0.6,0.1,0.8,0.4c0.2,0.2,0.3,0.6,0.2,0.9l-4.9,18.6C569.6-240.2,569.2-239.9,568.8-239.9z"/>
			</g>
			<g>
				<path class="st7" d="M571.3-262.2h-13c-0.6,0-1-0.4-1-1s0.4-1,1-1h13c0.6,0,1,0.4,1,1S571.8-262.2,571.3-262.2z"/>
			</g>
			<g>
				<path class="st7" d="M568.8-265.9h-8.1c-0.6,0-1-0.4-1-1s0.4-1,1-1h8.1c0.6,0,1,0.4,1,1S569.3-265.9,568.8-265.9z"/>
			</g>
		</g>
		<g>
			<path class="st7" d="M544.3-277.7c-0.6,0-1-0.4-1-1c0-11.8,9.6-21.4,21.4-21.4c0.6,0,1,0.4,1,1s-0.4,1-1,1
				c-10.7,0-19.4,8.7-19.4,19.4C545.3-278.1,544.9-277.7,544.3-277.7z"/>
		</g>
	</g>
	<g>
	</g>
	<g>
	</g>
	<g>
	</g>
	<g>
	</g>
	<g>
	</g>
	<g>
	</g>
	<g>
	</g>
	<g>
	</g>
	<g>
	</g>
	<g>
	</g>
	<g>
	</g>
	<g>
	</g>
	<g>
	</g>
	<g>
	</g>
	<g>
	</g>
</g>
</svg>
