<?xml version="1.0" encoding="utf-8"?>
<!-- Generator: Adobe Illustrator 22.1.0, SVG Export Plug-In . SVG Version: 6.00 Build 0)  -->
<svg version="1.1" xmlns="http://www.w3.org/2000/svg" xmlns:xlink="http://www.w3.org/1999/xlink" x="0px" y="0px"
	 viewBox="0 0 74.9 70.5" style="enable-background:new 0 0 74.9 70.5;" xml:space="preserve">
<style type="text/css">
	.st0{fill:#81BCBF;}
	.st1{fill:#585799;}
	.st2{fill:url(#SVGID_1_);}
	.st3{fill:#B6CE8C;}
	.st4{fill:#508AA6;}
	.st5{fill:url(#SVGID_2_);}
	.st6{opacity:0.2;fill:#4E8AA7;}
	.st7{fill:#292929;}
	.st8{fill:none;stroke:#292929;stroke-width:2;stroke-linejoin:round;stroke-miterlimit:10;}
	.st9{fill:none;stroke:#292929;stroke-linecap:round;stroke-linejoin:round;stroke-miterlimit:10;}
	.st10{opacity:0.2;}
	.st11{fill:#4E8AA7;}
	.st12{opacity:0.5;fill:#81BCBF;}
	.st13{fill:none;stroke:#292929;stroke-width:2;stroke-linecap:round;stroke-linejoin:round;stroke-miterlimit:10;}
	.st14{fill:none;stroke:#292929;stroke-linejoin:round;stroke-miterlimit:10;}
	.st15{fill:none;stroke:#292929;stroke-width:1.5;stroke-linecap:round;stroke-linejoin:round;stroke-miterlimit:10;}
	.st16{opacity:0.5;}
	.st17{opacity:0.25;}
	.st18{opacity:0.2;fill:#585799;}
	.st19{fill:none;stroke:#282828;stroke-linecap:round;stroke-linejoin:round;stroke-miterlimit:10;}
	.st20{fill:none;stroke:#282828;stroke-linejoin:round;stroke-miterlimit:10;}
	.st21{fill:#282828;}
	.st22{opacity:0.5;fill:#B6CE8C;}
	.st23{fill:none;stroke:#292929;stroke-width:1.9456;stroke-linecap:round;stroke-linejoin:round;stroke-miterlimit:10;}
	.st24{fill:#FFFFFF;}
</style>
<g id="COLORES">
	<rect x="-779.9" y="-208.6" class="st0" width="36" height="36"/>
	<rect x="-779.9" y="-172.6" class="st1" width="36" height="36"/>
	<linearGradient id="SVGID_1_" gradientUnits="userSpaceOnUse" x1="-851.8809" y1="-172.6416" x2="-779.8809" y2="-172.6416">
		<stop  offset="0" style="stop-color:#81BCBF"/>
		<stop  offset="1" style="stop-color:#585799"/>
	</linearGradient>
	<rect x="-851.9" y="-208.6" class="st2" width="72" height="72"/>
	<rect x="-779.9" y="-130.6" class="st3" width="36" height="36"/>
	<rect x="-779.9" y="-94.6" class="st4" width="36" height="36"/>
	<linearGradient id="SVGID_2_" gradientUnits="userSpaceOnUse" x1="-851.8809" y1="-94.6416" x2="-779.8809" y2="-94.6416">
		<stop  offset="0" style="stop-color:#B6CE8C"/>
		<stop  offset="1" style="stop-color:#508AA6"/>
	</linearGradient>
	<rect x="-851.9" y="-130.6" class="st5" width="72" height="72"/>
	<g>
		<rect x="-328.4" y="127.7" class="st6" width="27.3" height="27.3"/>
		<g>
			<path class="st7" d="M-325,141.1l0.7-0.8c1,0.9,2,1.4,3.4,1.4c1.3,0,2.2-0.7,2.2-1.7v0c0-0.9-0.5-1.5-2.6-1.9
				c-2.3-0.5-3.4-1.2-3.4-2.9v0c0-1.6,1.4-2.7,3.3-2.7c1.5,0,2.5,0.4,3.5,1.2l-0.7,0.9c-0.9-0.8-1.9-1.1-2.9-1.1
				c-1.3,0-2.1,0.7-2.1,1.6v0c0,0.9,0.5,1.5,2.7,1.9c2.2,0.5,3.3,1.3,3.3,2.8v0c0,1.7-1.4,2.8-3.4,2.8
				C-322.5,142.7-323.8,142.2-325,141.1z"/>
			<path class="st7" d="M-315.2,135.1h1.1v7.4h-1.1V135.1z M-313.8,131.9l1.1,0.5l-1.6,1.5h-0.9L-313.8,131.9z"/>
		</g>
		<rect x="-332.4" y="123.7" class="st8" width="27.3" height="27.3"/>
	</g>
	<g>
		<rect x="-249.5" y="127.9" class="st6" width="27.3" height="27.3"/>
		<rect x="-253.5" y="123.9" class="st8" width="27.3" height="27.3"/>
		<polyline class="st9" points="-249.5,143.3 -241.9,131.7 -244.3,141.1 -238.5,136.9 -240.2,140.8 -234.1,137.5 -235.8,141 
			-230.3,138.7 		"/>
	</g>
	<g>
		<rect x="-168.4" y="127.9" class="st6" width="27.3" height="27.3"/>
		<rect x="-172.4" y="123.9" class="st8" width="27.3" height="27.3"/>
		<g>
			<polyline class="st9" points="-162.5,138.6 -160.1,141.5 -155.9,134.4 			"/>
			<path class="st9" d="M-151,137.5c0,4.3-3.5,7.8-7.8,7.8c-4.3,0-7.8-3.5-7.8-7.8c0-4.3,3.5-7.8,7.8-7.8
				C-154.5,129.8-151,133.2-151,137.5z"/>
		</g>
	</g>
	<g>
		<g class="st10">
			<rect x="-328.4" y="187.2" class="st11" width="27.3" height="27.3"/>
		</g>
		<g>
			<g>
				<path class="st7" d="M-325,200.6l0.7-0.8c1,0.9,2,1.4,3.4,1.4c1.3,0,2.2-0.7,2.2-1.7v0c0-0.9-0.5-1.5-2.6-1.9
					c-2.3-0.5-3.4-1.2-3.4-2.9v0c0-1.6,1.4-2.7,3.3-2.7c1.5,0,2.5,0.4,3.5,1.2l-0.7,0.9c-0.9-0.8-1.9-1.1-2.9-1.1
					c-1.3,0-2.1,0.7-2.1,1.6v0c0,0.9,0.5,1.5,2.7,1.9c2.2,0.5,3.3,1.3,3.3,2.8v0c0,1.7-1.4,2.8-3.4,2.8
					C-322.5,202.2-323.8,201.7-325,200.6z"/>
			</g>
			<g>
				<path class="st7" d="M-315.2,194.7h1.1v7.4h-1.1V194.7z M-313.8,191.5l1.1,0.5l-1.6,1.5h-0.9L-313.8,191.5z"/>
			</g>
		</g>
		<g>
			<path class="st7" d="M-305.1,211.5h-27.3c-0.6,0-1-0.4-1-1v-27.3c0-0.6,0.4-1,1-1h27.3c0.6,0,1,0.4,1,1v27.3
				C-304.1,211-304.6,211.5-305.1,211.5z M-331.4,209.5h25.3v-25.3h-25.3V209.5z"/>
		</g>
	</g>
	<g>
		<g class="st10">
			<rect x="-249.5" y="187.4" class="st11" width="27.3" height="27.3"/>
		</g>
		<g>
			<path class="st7" d="M-226.3,211.7h-27.3c-0.6,0-1-0.4-1-1v-27.3c0-0.6,0.4-1,1-1h27.3c0.6,0,1,0.4,1,1v27.3
				C-225.3,211.3-225.7,211.7-226.3,211.7z M-252.5,209.7h25.3v-25.3h-25.3V209.7z"/>
		</g>
		<g>
			<path class="st7" d="M-249.5,203.4c-0.1,0-0.2,0-0.3-0.1c-0.2-0.2-0.3-0.5-0.1-0.7l7.6-11.6c0.1-0.2,0.4-0.3,0.6-0.2
				c0.2,0.1,0.3,0.3,0.3,0.6l-2.1,8l4.7-3.4c0.2-0.1,0.4-0.1,0.6,0c0.2,0.1,0.2,0.4,0.2,0.6l-1.1,2.6l4.8-2.6
				c0.2-0.1,0.4-0.1,0.6,0.1c0.2,0.2,0.2,0.4,0.1,0.6l-1.1,2.2l4.3-1.7c0.3-0.1,0.5,0,0.7,0.3c0.1,0.3,0,0.5-0.3,0.7l-5.6,2.2
				c-0.2,0.1-0.4,0-0.6-0.1s-0.2-0.4-0.1-0.6l1-2l-4.7,2.5c-0.2,0.1-0.4,0.1-0.6-0.1c-0.2-0.1-0.2-0.4-0.1-0.6l0.9-2.2l-4.4,3.2
				c-0.2,0.1-0.4,0.1-0.6,0c-0.2-0.1-0.3-0.3-0.2-0.5l1.7-6.4l-6,9.1C-249.2,203.3-249.4,203.4-249.5,203.4z"/>
		</g>
	</g>
	<g>
		<g class="st10">
			<rect x="-168.4" y="187.4" class="st11" width="27.3" height="27.3"/>
		</g>
		<g>
			<path class="st7" d="M-145.1,211.7h-27.3c-0.6,0-1-0.4-1-1v-27.3c0-0.6,0.4-1,1-1h27.3c0.6,0,1,0.4,1,1v27.3
				C-144.1,211.3-144.6,211.7-145.1,211.7z M-171.4,209.7h25.3v-25.3h-25.3V209.7z"/>
		</g>
		<g>
			<g>
				<path class="st7" d="M-160.1,201.6c-0.2,0-0.3-0.1-0.4-0.2l-2.4-2.9c-0.2-0.2-0.1-0.5,0.1-0.7c0.2-0.2,0.5-0.1,0.7,0.1l1.9,2.4
					l3.8-6.5c0.1-0.2,0.4-0.3,0.7-0.2c0.2,0.1,0.3,0.4,0.2,0.7l-4.2,7.1C-159.7,201.4-159.9,201.5-160.1,201.6
					C-160.1,201.6-160.1,201.6-160.1,201.6z"/>
			</g>
			<g>
				<path class="st7" d="M-158.8,205.3c-4.6,0-8.3-3.7-8.3-8.3s3.7-8.3,8.3-8.3c4.6,0,8.3,3.7,8.3,8.3S-154.2,205.3-158.8,205.3z
					 M-158.8,189.8c-4,0-7.3,3.3-7.3,7.3s3.3,7.3,7.3,7.3c4,0,7.3-3.3,7.3-7.3S-154.8,189.8-158.8,189.8z"/>
			</g>
		</g>
	</g>
</g>
<g id="Tratamiento_de_Datos">
	<path class="st12" d="M-66.5,11.8h20.2c2.8,0,5,2.2,5,5v48.6c0,2.8-2.2,5-5,5h-58.2c-2.8,0-5-2.2-5-5V16.8c0-2.8,2.2-5,5-5h20.2"/>
	<g>
		<rect x="-612.4" y="-112.8" class="st12" width="54.6" height="68.8"/>
		<polyline class="st13" points="-563.7,-62.8 -563.7,-49.9 -618.3,-49.9 -618.3,-118.7 -563.7,-118.7 -563.7,-96 		"/>
		<rect x="-610.9" y="-111.3" class="st14" width="12.5" height="12.5"/>
		<line class="st9" x1="-593.3" y1="-105" x2="-575.2" y2="-105"/>
		<line class="st9" x1="-593.3" y1="-100.6" x2="-575.2" y2="-100.6"/>
		<line class="st15" x1="-606.2" y1="-90.2" x2="-575.8" y2="-90.2"/>
		<line class="st15" x1="-606.2" y1="-82.9" x2="-575.8" y2="-82.9"/>
		<line class="st15" x1="-606.2" y1="-75.5" x2="-581.8" y2="-75.5"/>
		<line class="st15" x1="-606.2" y1="-68.1" x2="-585.8" y2="-68.1"/>
		<line class="st15" x1="-606.2" y1="-60.8" x2="-586.8" y2="-60.8"/>
		<g>
			<polygon class="st8" points="-562.4,-88 -580.9,-69.5 -582.5,-60.8 -573.7,-62.3 -555.2,-80.8 			"/>
			<line class="st8" x1="-580.9" y1="-69.5" x2="-573.7" y2="-62.3"/>
			<line class="st8" x1="-558.8" y1="-84.4" x2="-577.3" y2="-65.9"/>
			<polyline class="st8" points="-562.4,-88 -559.6,-90.9 -552.3,-83.7 -555.2,-80.8 			"/>
		</g>
	</g>
	<rect x="-612.4" y="3.2" class="st12" width="54.6" height="68.8"/>
	<rect x="-618.3" y="-2.7" class="st13" width="54.6" height="68.8"/>
	<rect x="-610.9" y="4.7" class="st14" width="12.5" height="12.5"/>
	<line class="st9" x1="-593.3" y1="11" x2="-575.2" y2="11"/>
	<line class="st9" x1="-593.3" y1="15.4" x2="-575.2" y2="15.4"/>
	<line class="st15" x1="-606.2" y1="25.8" x2="-575.8" y2="25.8"/>
	<line class="st15" x1="-606.2" y1="33.1" x2="-575.8" y2="33.1"/>
	<line class="st15" x1="-606.2" y1="40.5" x2="-575.8" y2="40.5"/>
	<line class="st15" x1="-606.2" y1="47.9" x2="-575.8" y2="47.9"/>
	<line class="st15" x1="-606.2" y1="55.2" x2="-575.8" y2="55.2"/>
	<g>
		<g class="st16">
			<rect x="-496.1" y="3.2" class="st0" width="54.6" height="68.8"/>
		</g>
		<g>
			<path class="st7" d="M-447.5,67.1H-502c-0.6,0-1-0.4-1-1V-2.7c0-0.6,0.4-1,1-1h54.6c0.6,0,1,0.4,1,1v68.8
				C-446.5,66.7-446.9,67.1-447.5,67.1z M-501,65.1h52.6V-1.7H-501V65.1z"/>
		</g>
		<g>
			<path class="st7" d="M-482.1,17.7h-12.5c-0.3,0-0.5-0.2-0.5-0.5V4.7c0-0.3,0.2-0.5,0.5-0.5h12.5c0.3,0,0.5,0.2,0.5,0.5v12.5
				C-481.6,17.5-481.9,17.7-482.1,17.7z M-494.2,16.7h11.5V5.2h-11.5V16.7z"/>
		</g>
		<g>
			<path class="st7" d="M-459,11.5H-477c-0.3,0-0.5-0.2-0.5-0.5s0.2-0.5,0.5-0.5h18.1c0.3,0,0.5,0.2,0.5,0.5S-458.7,11.5-459,11.5z"
				/>
		</g>
		<g>
			<path class="st7" d="M-459,15.9H-477c-0.3,0-0.5-0.2-0.5-0.5s0.2-0.5,0.5-0.5h18.1c0.3,0,0.5,0.2,0.5,0.5S-458.7,15.9-459,15.9z"
				/>
		</g>
		<g>
			<path class="st7" d="M-459.6,26.5h-30.4c-0.4,0-0.8-0.3-0.8-0.8s0.3-0.8,0.8-0.8h30.4c0.4,0,0.8,0.3,0.8,0.8
				S-459.2,26.5-459.6,26.5z"/>
		</g>
		<g>
			<path class="st7" d="M-459.6,33.9h-30.4c-0.4,0-0.8-0.3-0.8-0.8s0.3-0.8,0.8-0.8h30.4c0.4,0,0.8,0.3,0.8,0.8
				S-459.2,33.9-459.6,33.9z"/>
		</g>
		<g>
			<path class="st7" d="M-459.6,41.2h-30.4c-0.4,0-0.8-0.3-0.8-0.8s0.3-0.8,0.8-0.8h30.4c0.4,0,0.8,0.3,0.8,0.8
				S-459.2,41.2-459.6,41.2z"/>
		</g>
		<g>
			<path class="st7" d="M-459.6,48.6h-30.4c-0.4,0-0.8-0.3-0.8-0.8s0.3-0.8,0.8-0.8h30.4c0.4,0,0.8,0.3,0.8,0.8
				S-459.2,48.6-459.6,48.6z"/>
		</g>
		<g>
			<path class="st7" d="M-459.6,56h-30.4c-0.4,0-0.8-0.3-0.8-0.8s0.3-0.8,0.8-0.8h30.4c0.4,0,0.8,0.3,0.8,0.8S-459.2,56-459.6,56z"
				/>
		</g>
	</g>
	<g>
		<g class="st17">
			<rect x="-496.4" y="-112.8" class="st0" width="54.6" height="68.8"/>
		</g>
		<g>
			<path class="st7" d="M-447.7-48.9h-54.6c-0.6,0-1-0.4-1-1v-68.8c0-0.6,0.4-1,1-1h54.6c0.6,0,1,0.4,1,1V-96c0,0.6-0.4,1-1,1
				s-1-0.4-1-1v-21.7h-52.6v66.8h52.6v-11.9c0-0.6,0.4-1,1-1s1,0.4,1,1v12.9C-446.7-49.3-447.1-48.9-447.7-48.9z"/>
		</g>
		<g>
			<path class="st7" d="M-482.4-98.3h-12.5c-0.3,0-0.5-0.2-0.5-0.5v-12.5c0-0.3,0.2-0.5,0.5-0.5h12.5c0.3,0,0.5,0.2,0.5,0.5v12.5
				C-481.9-98.5-482.1-98.3-482.4-98.3z M-494.4-99.3h11.5v-11.5h-11.5V-99.3z"/>
		</g>
		<g>
			<path class="st7" d="M-459.2-104.5h-18.1c-0.3,0-0.5-0.2-0.5-0.5s0.2-0.5,0.5-0.5h18.1c0.3,0,0.5,0.2,0.5,0.5
				S-458.9-104.5-459.2-104.5z"/>
		</g>
		<g>
			<path class="st7" d="M-459.2-100.1h-18.1c-0.3,0-0.5-0.2-0.5-0.5s0.2-0.5,0.5-0.5h18.1c0.3,0,0.5,0.2,0.5,0.5
				S-458.9-100.1-459.2-100.1z"/>
		</g>
		<g>
			<path class="st7" d="M-459.8-89.5h-30.4c-0.4,0-0.8-0.3-0.8-0.8s0.3-0.8,0.8-0.8h30.4c0.4,0,0.8,0.3,0.8,0.8
				S-459.4-89.5-459.8-89.5z"/>
		</g>
		<g>
			<path class="st7" d="M-459.8-82.1h-30.4c-0.4,0-0.8-0.3-0.8-0.8s0.3-0.8,0.8-0.8h30.4c0.4,0,0.8,0.3,0.8,0.8
				S-459.4-82.1-459.8-82.1z"/>
		</g>
		<g>
			<path class="st7" d="M-465.8-74.8h-24.4c-0.4,0-0.8-0.3-0.8-0.8s0.3-0.8,0.8-0.8h24.4c0.4,0,0.8,0.3,0.8,0.8
				S-465.4-74.8-465.8-74.8z"/>
		</g>
		<g>
			<path class="st7" d="M-469.8-67.4h-20.4c-0.4,0-0.8-0.3-0.8-0.8s0.3-0.8,0.8-0.8h20.4c0.4,0,0.8,0.3,0.8,0.8
				S-469.4-67.4-469.8-67.4z"/>
		</g>
		<g>
			<path class="st7" d="M-470.8-60h-19.4c-0.4,0-0.8-0.3-0.8-0.8s0.3-0.8,0.8-0.8h19.4c0.4,0,0.8,0.3,0.8,0.8S-470.4-60-470.8-60z"
				/>
		</g>
		<g>
			<g>
				<path class="st7" d="M-466.5-59.8c-0.3,0-0.5-0.1-0.7-0.3c-0.2-0.2-0.3-0.6-0.3-0.9l1.6-8.8c0-0.2,0.1-0.4,0.3-0.5l18.5-18.5
					c0.2-0.2,0.4-0.3,0.7-0.3l0,0c0.3,0,0.5,0.1,0.7,0.3l7.2,7.2c0.4,0.4,0.4,1,0,1.4L-457-61.6c-0.1,0.1-0.3,0.2-0.5,0.3l-8.8,1.6
					C-466.4-59.8-466.4-59.8-466.5-59.8z M-464-69.1l-1.3,7.1l7-1.3l17.6-17.6l-5.8-5.8L-464-69.1z"/>
			</g>
			<g>
				
					<rect x="-462.3" y="-71" transform="matrix(0.7072 -0.707 0.707 0.7072 -88.4617 -345.4648)" class="st7" width="2" height="10.2"/>
			</g>
			<g>
				
					<rect x="-465.1" y="-76.2" transform="matrix(0.7071 -0.7071 0.7071 0.7071 -79.2391 -341.6692)" class="st7" width="26.2" height="2"/>
			</g>
			<g>
				<path class="st7" d="M-438.5-80.1l-1.4-1.4l2.1-2.1l-5.8-5.8l-2.1,2.1l-1.4-1.4l2.8-2.9c0.2-0.2,0.4-0.3,0.7-0.3l0,0
					c0.3,0,0.5,0.1,0.7,0.3l7.2,7.2c0.4,0.4,0.4,1,0,1.4L-438.5-80.1z"/>
			</g>
		</g>
	</g>
	<g>
		<rect x="-606.8" y="125.2" class="st18" width="27.3" height="34.4"/>
		<rect x="-610.8" y="121.2" class="st8" width="27.3" height="34.4"/>
		<g>
			<line class="st15" x1="-604.8" y1="128.3" x2="-589.6" y2="128.3"/>
			<line class="st15" x1="-604.8" y1="132.4" x2="-589.6" y2="132.4"/>
			<line class="st15" x1="-604.8" y1="136.4" x2="-589.6" y2="136.4"/>
			<line class="st15" x1="-604.8" y1="140.5" x2="-589.6" y2="140.5"/>
			<line class="st15" x1="-604.8" y1="144.5" x2="-589.6" y2="144.5"/>
			<line class="st15" x1="-604.8" y1="148.6" x2="-589.6" y2="148.6"/>
		</g>
	</g>
	<g>
		<rect x="-527.9" y="125.2" class="st18" width="27.3" height="34.4"/>
		<polyline class="st13" points="-504.6,150.5 -504.6,155.6 -531.9,155.6 -531.9,121.2 -504.6,121.2 -504.6,132.5 		"/>
		<g>
			<line class="st15" x1="-525.9" y1="128.3" x2="-510.7" y2="128.3"/>
			<line class="st15" x1="-525.9" y1="132.4" x2="-510.7" y2="132.4"/>
			<line class="st15" x1="-525.9" y1="136.4" x2="-510.7" y2="136.4"/>
			<line class="st15" x1="-525.9" y1="140.5" x2="-511.6" y2="140.5"/>
			<line class="st15" x1="-525.9" y1="144.5" x2="-515" y2="144.5"/>
			<line class="st15" x1="-525.9" y1="148.6" x2="-515.7" y2="148.6"/>
		</g>
		<g>
			<polygon class="st19" points="-503.2,136 -511.9,144.8 -512.7,148.9 -508.5,148.2 -499.8,139.4 			"/>
			<line class="st19" x1="-511.9" y1="144.8" x2="-508.5" y2="148.2"/>
			<line class="st20" x1="-501.5" y1="137.7" x2="-510.2" y2="146.5"/>
			<polyline class="st19" points="-503.2,136 -501.8,134.7 -498.4,138.1 -499.8,139.4 			"/>
		</g>
	</g>
	<g>
		<rect x="-446.8" y="125.2" class="st18" width="27.3" height="34.4"/>
		<polyline class="st13" points="-423.5,150.5 -423.5,155.6 -450.8,155.6 -450.8,121.2 -423.5,121.2 -423.5,132.5 		"/>
		<g>
			<line class="st15" x1="-444.8" y1="128.3" x2="-429.6" y2="128.3"/>
			<line class="st15" x1="-444.8" y1="132.4" x2="-429.6" y2="132.4"/>
			<line class="st15" x1="-444.8" y1="136.4" x2="-434.6" y2="136.4"/>
			<line class="st15" x1="-444.8" y1="140.5" x2="-435.5" y2="140.5"/>
			<line class="st15" x1="-444.8" y1="144.5" x2="-433.9" y2="144.5"/>
			<line class="st15" x1="-444.8" y1="148.6" x2="-429.6" y2="148.6"/>
		</g>
		<path class="st9" d="M-423.4,138.9c0.5,2.5-1.1,5-3.6,5.5c-2.5,0.5-5-1.1-5.5-3.6c-0.5-2.5,1.1-5,3.6-5.5
			C-426.4,134.8-423.9,136.4-423.4,138.9z"/>
		<path class="st9" d="M-423.4,138.9c0.5,2.5-1.1,5-3.6,5.5c-2.5,0.5-5-1.1-5.5-3.6c-0.5-2.5,1.1-5,3.6-5.5
			C-426.4,134.8-423.9,136.4-423.4,138.9z"/>
		<line class="st9" x1="-424.9" y1="143.3" x2="-420.5" y2="148.2"/>
	</g>
	<g>
		<g class="st10">
			<rect x="-606.8" y="184.8" class="st1" width="27.3" height="34.4"/>
		</g>
		<g>
			<path class="st7" d="M-583.5,216.2h-27.3c-0.6,0-1-0.4-1-1v-34.4c0-0.6,0.4-1,1-1h27.3c0.6,0,1,0.4,1,1v34.4
				C-582.5,215.7-583,216.2-583.5,216.2z M-609.8,214.2h25.3v-32.4h-25.3V214.2z"/>
		</g>
		<g>
			<g>
				<path class="st7" d="M-589.6,188.6h-15.2c-0.4,0-0.8-0.3-0.8-0.8s0.3-0.8,0.8-0.8h15.2c0.4,0,0.8,0.3,0.8,0.8
					S-589.2,188.6-589.6,188.6z"/>
			</g>
			<g>
				<path class="st7" d="M-589.6,192.6h-15.2c-0.4,0-0.8-0.3-0.8-0.8s0.3-0.8,0.8-0.8h15.2c0.4,0,0.8,0.3,0.8,0.8
					S-589.2,192.6-589.6,192.6z"/>
			</g>
			<g>
				<path class="st7" d="M-589.6,196.7h-15.2c-0.4,0-0.8-0.3-0.8-0.8s0.3-0.8,0.8-0.8h15.2c0.4,0,0.8,0.3,0.8,0.8
					S-589.2,196.7-589.6,196.7z"/>
			</g>
			<g>
				<path class="st7" d="M-589.6,200.7h-15.2c-0.4,0-0.8-0.3-0.8-0.8s0.3-0.8,0.8-0.8h15.2c0.4,0,0.8,0.3,0.8,0.8
					S-589.2,200.7-589.6,200.7z"/>
			</g>
			<g>
				<path class="st7" d="M-589.6,204.8h-15.2c-0.4,0-0.8-0.3-0.8-0.8s0.3-0.8,0.8-0.8h15.2c0.4,0,0.8,0.3,0.8,0.8
					S-589.2,204.8-589.6,204.8z"/>
			</g>
			<g>
				<path class="st7" d="M-589.6,208.8h-15.2c-0.4,0-0.8-0.3-0.8-0.8s0.3-0.8,0.8-0.8h15.2c0.4,0,0.8,0.3,0.8,0.8
					S-589.2,208.8-589.6,208.8z"/>
			</g>
		</g>
	</g>
	<g>
		<g class="st10">
			<rect x="-527.9" y="184.8" class="st1" width="27.3" height="34.4"/>
		</g>
		<g>
			<path class="st7" d="M-504.6,216.2h-27.3c-0.6,0-1-0.4-1-1v-34.4c0-0.6,0.4-1,1-1h27.3c0.6,0,1,0.4,1,1V192c0,0.6-0.4,1-1,1
				s-1-0.4-1-1v-10.3h-25.3v32.4h25.3V210c0-0.6,0.4-1,1-1s1,0.4,1,1v5.1C-503.6,215.7-504.1,216.2-504.6,216.2z"/>
		</g>
		<g>
			<g>
				<path class="st7" d="M-510.7,188.6h-15.2c-0.4,0-0.8-0.3-0.8-0.8s0.3-0.8,0.8-0.8h15.2c0.4,0,0.8,0.3,0.8,0.8
					S-510.3,188.6-510.7,188.6z"/>
			</g>
			<g>
				<path class="st7" d="M-510.7,192.6h-15.2c-0.4,0-0.8-0.3-0.8-0.8s0.3-0.8,0.8-0.8h15.2c0.4,0,0.8,0.3,0.8,0.8
					S-510.3,192.6-510.7,192.6z"/>
			</g>
			<g>
				<path class="st7" d="M-510.7,196.7h-15.2c-0.4,0-0.8-0.3-0.8-0.8s0.3-0.8,0.8-0.8h15.2c0.4,0,0.8,0.3,0.8,0.8
					S-510.3,196.7-510.7,196.7z"/>
			</g>
			<g>
				<path class="st7" d="M-511.6,200.7h-14.3c-0.4,0-0.8-0.3-0.8-0.8s0.3-0.8,0.8-0.8h14.3c0.4,0,0.8,0.3,0.8,0.8
					S-511.2,200.7-511.6,200.7z"/>
			</g>
			<g>
				<path class="st7" d="M-515,204.8h-10.9c-0.4,0-0.8-0.3-0.8-0.8s0.3-0.8,0.8-0.8h10.9c0.4,0,0.8,0.3,0.8,0.8
					S-514.6,204.8-515,204.8z"/>
			</g>
			<g>
				<path class="st7" d="M-515.7,208.8h-10.2c-0.4,0-0.8-0.3-0.8-0.8s0.3-0.8,0.8-0.8h10.2c0.4,0,0.8,0.3,0.8,0.8
					S-515.3,208.8-515.7,208.8z"/>
			</g>
		</g>
		<g>
			<g>
				<path class="st21" d="M-512.7,208.9c-0.1,0-0.3-0.1-0.4-0.1c-0.1-0.1-0.2-0.3-0.1-0.4l0.7-4.1c0-0.1,0.1-0.2,0.1-0.3l8.7-8.7
					c0.1-0.1,0.2-0.1,0.4-0.1l0,0c0.1,0,0.3,0.1,0.4,0.1l3.4,3.4c0.2,0.2,0.2,0.5,0,0.7l-8.7,8.7c-0.1,0.1-0.2,0.1-0.3,0.1
					L-512.7,208.9C-512.6,208.9-512.6,208.9-512.7,208.9z M-511.5,204.5l-0.6,3.3l3.3-0.6l8.3-8.3l-2.7-2.7L-511.5,204.5z"/>
			</g>
			<g>
				<path class="st21" d="M-508.5,208.2c-0.1,0-0.3,0-0.4-0.1l-3.4-3.4c-0.2-0.2-0.2-0.5,0-0.7s0.5-0.2,0.7,0l3.4,3.4
					c0.2,0.2,0.2,0.5,0,0.7C-508.3,208.1-508.4,208.2-508.5,208.2z"/>
			</g>
			<g>
				
					<rect x="-512" y="201.1" transform="matrix(0.7071 -0.7071 0.7071 0.7071 -290.7241 -298.6308)" class="st21" width="12.4" height="1"/>
			</g>
			<g>
				<path class="st21" d="M-499.8,199.5c-0.1,0-0.3,0-0.4-0.1c-0.2-0.2-0.2-0.5,0-0.7l1-1l-2.7-2.7l-1,1c-0.2,0.2-0.5,0.2-0.7,0
					s-0.2-0.5,0-0.7l1.3-1.3c0.1-0.1,0.2-0.1,0.4-0.1l0,0c0.1,0,0.3,0.1,0.4,0.1l3.4,3.4c0.2,0.2,0.2,0.5,0,0.7l-1.3,1.3
					C-499.5,199.4-499.6,199.5-499.8,199.5z"/>
			</g>
		</g>
	</g>
	<g>
		<g class="st10">
			<rect x="-446.8" y="184.8" class="st1" width="27.3" height="34.4"/>
		</g>
		<g>
			<path class="st7" d="M-423.5,216.2h-27.3c-0.6,0-1-0.4-1-1v-34.4c0-0.6,0.4-1,1-1h27.3c0.6,0,1,0.4,1,1V192c0,0.6-0.4,1-1,1
				s-1-0.4-1-1v-10.3h-25.3v32.4h25.3V210c0-0.6,0.4-1,1-1s1,0.4,1,1v5.1C-422.5,215.7-423,216.2-423.5,216.2z"/>
		</g>
		<g>
			<g>
				<path class="st7" d="M-429.6,188.6h-15.2c-0.4,0-0.8-0.3-0.8-0.8s0.3-0.8,0.8-0.8h15.2c0.4,0,0.8,0.3,0.8,0.8
					S-429.2,188.6-429.6,188.6z"/>
			</g>
			<g>
				<path class="st7" d="M-429.6,192.6h-15.2c-0.4,0-0.8-0.3-0.8-0.8s0.3-0.8,0.8-0.8h15.2c0.4,0,0.8,0.3,0.8,0.8
					S-429.2,192.6-429.6,192.6z"/>
			</g>
			<g>
				<path class="st7" d="M-434.6,196.7h-10.2c-0.4,0-0.8-0.3-0.8-0.8s0.3-0.8,0.8-0.8h10.2c0.4,0,0.8,0.3,0.8,0.8
					S-434.2,196.7-434.6,196.7z"/>
			</g>
			<g>
				<path class="st7" d="M-435.5,200.7h-9.3c-0.4,0-0.8-0.3-0.8-0.8s0.3-0.8,0.8-0.8h9.3c0.4,0,0.8,0.3,0.8,0.8
					S-435.1,200.7-435.5,200.7z"/>
			</g>
			<g>
				<path class="st7" d="M-433.9,204.8h-10.9c-0.4,0-0.8-0.3-0.8-0.8s0.3-0.8,0.8-0.8h10.9c0.4,0,0.8,0.3,0.8,0.8
					S-433.5,204.8-433.9,204.8z"/>
			</g>
			<g>
				<path class="st7" d="M-429.6,208.8h-15.2c-0.4,0-0.8-0.3-0.8-0.8s0.3-0.8,0.8-0.8h15.2c0.4,0,0.8,0.3,0.8,0.8
					S-429.2,208.8-429.6,208.8z"/>
			</g>
		</g>
		<g>
			<path class="st7" d="M-428,204.5c-2.4,0-4.5-1.7-5.1-4.1c-0.3-1.3,0-2.7,0.7-3.9c0.8-1.2,1.9-1.9,3.3-2.2c2.8-0.6,5.5,1.2,6.1,4
				c0.3,1.3,0,2.7-0.7,3.9c-0.8,1.2-1.9,1.9-3.3,2.2C-427.3,204.5-427.6,204.5-428,204.5z M-427.9,195.2c-0.3,0-0.6,0-0.8,0.1
				c-1.1,0.2-2,0.9-2.6,1.8c-0.6,0.9-0.8,2-0.6,3.1c0.5,2.2,2.7,3.7,4.9,3.2c1.1-0.2,2-0.9,2.6-1.8c0.6-0.9,0.8-2,0.6-3.1
				C-424.3,196.6-426,195.2-427.9,195.2z"/>
		</g>
		<g>
			<path class="st7" d="M-428,204.5c-2.4,0-4.5-1.7-5.1-4.1c-0.3-1.3,0-2.7,0.7-3.9c0.8-1.2,1.9-1.9,3.3-2.2c2.8-0.6,5.5,1.2,6.1,4
				c0.3,1.3,0,2.7-0.7,3.9c-0.8,1.2-1.9,1.9-3.3,2.2C-427.3,204.5-427.6,204.5-428,204.5z M-427.9,195.2c-0.3,0-0.6,0-0.8,0.1
				c-1.1,0.2-2,0.9-2.6,1.8c-0.6,0.9-0.8,2-0.6,3.1c0.5,2.2,2.7,3.7,4.9,3.2c1.1-0.2,2-0.9,2.6-1.8c0.6-0.9,0.8-2,0.6-3.1
				C-424.3,196.6-426,195.2-427.9,195.2z"/>
		</g>
		<g>
			<path class="st7" d="M-420.5,208.2c-0.1,0-0.3-0.1-0.4-0.2l-4.3-4.8c-0.2-0.2-0.2-0.5,0-0.7s0.5-0.2,0.7,0l4.3,4.8
				c0.2,0.2,0.2,0.5,0,0.7C-420.3,208.1-420.4,208.2-420.5,208.2z"/>
		</g>
	</g>
	<rect x="-344.5" y="-113.6" class="st22" width="54.6" height="68.8"/>
	<g>
		<line class="st15" x1="-338.3" y1="-106" x2="-307.9" y2="-106"/>
		<line class="st15" x1="-338.3" y1="-98.5" x2="-307.9" y2="-98.5"/>
		<line class="st15" x1="-338.3" y1="-91" x2="-314.9" y2="-91"/>
		<line class="st15" x1="-338.3" y1="-83.5" x2="-317.9" y2="-83.5"/>
		<line class="st15" x1="-338.3" y1="-76" x2="-317.9" y2="-76"/>
		<line class="st15" x1="-338.3" y1="-68.6" x2="-314.9" y2="-68.6"/>
	</g>
	<polyline class="st13" points="-295.8,-63.6 -295.8,-50.7 -350.4,-50.7 -350.4,-119.5 -295.8,-119.5 -295.8,-96.7 	"/>
	<rect x="-344.5" y="2.7" class="st12" width="54.6" height="68.8"/>
	<polyline class="st13" points="-295.8,52.6 -295.8,65.5 -350.4,65.5 -350.4,-3.2 -295.8,-3.2 -295.8,52.6 	"/>
	<g>
		<polyline class="st13" points="-307.6,-78.4 -303.9,-73.8 -297.3,-85 		"/>
		<path class="st13" d="M-289.6-80.1c0,6.7-5.5,12.2-12.2,12.2c-6.7,0-12.2-5.5-12.2-12.2s5.5-12.2,12.2-12.2
			C-295.1-92.3-289.6-86.8-289.6-80.1z"/>
	</g>
	<g>
		<g class="st16">
			<rect x="-228.3" y="-113.6" class="st3" width="54.6" height="68.8"/>
		</g>
		<g>
			<g>
				<path class="st7" d="M-191.7-105.3H-222c-0.4,0-0.8-0.3-0.8-0.8s0.3-0.8,0.8-0.8h30.4c0.4,0,0.8,0.3,0.8,0.8
					S-191.3-105.3-191.7-105.3z"/>
			</g>
			<g>
				<path class="st7" d="M-191.7-97.8H-222c-0.4,0-0.8-0.3-0.8-0.8s0.3-0.8,0.8-0.8h30.4c0.4,0,0.8,0.3,0.8,0.8
					S-191.3-97.8-191.7-97.8z"/>
			</g>
			<g>
				<path class="st7" d="M-198.7-90.3H-222c-0.4,0-0.8-0.3-0.8-0.8s0.3-0.8,0.8-0.8h23.4c0.4,0,0.8,0.3,0.8,0.8
					S-198.3-90.3-198.7-90.3z"/>
			</g>
			<g>
				<path class="st7" d="M-201.7-82.8H-222c-0.4,0-0.8-0.3-0.8-0.8s0.3-0.8,0.8-0.8h20.4c0.4,0,0.8,0.3,0.8,0.8
					S-201.3-82.8-201.7-82.8z"/>
			</g>
			<g>
				<path class="st7" d="M-201.7-75.3H-222c-0.4,0-0.8-0.3-0.8-0.8s0.3-0.8,0.8-0.8h20.4c0.4,0,0.8,0.3,0.8,0.8
					S-201.3-75.3-201.7-75.3z"/>
			</g>
			<g>
				<path class="st7" d="M-198.7-67.8H-222c-0.4,0-0.8-0.3-0.8-0.8s0.3-0.8,0.8-0.8h23.4c0.4,0,0.8,0.3,0.8,0.8
					S-198.3-67.8-198.7-67.8z"/>
			</g>
		</g>
		<g>
			<path class="st7" d="M-179.6-49.7h-54.6c-0.6,0-1-0.4-1-1v-68.8c0-0.6,0.4-1,1-1h54.6c0.6,0,1,0.4,1,1v22.7c0,0.6-0.4,1-1,1
				s-1-0.4-1-1v-21.7h-52.6v66.8h52.6v-11.9c0-0.6,0.4-1,1-1s1,0.4,1,1v12.9C-178.6-50.1-179-49.7-179.6-49.7z"/>
		</g>
		<g>
			<g>
				<path class="st7" d="M-187.6-72.8c-0.3,0-0.6-0.1-0.8-0.4l-3.7-4.6c-0.3-0.4-0.3-1.1,0.2-1.4c0.4-0.3,1.1-0.3,1.4,0.2l2.8,3.5
					l5.8-9.9c0.3-0.5,0.9-0.6,1.4-0.4c0.5,0.3,0.6,0.9,0.4,1.4l-6.5,11.2C-186.9-73-187.2-72.8-187.6-72.8
					C-187.6-72.8-187.6-72.8-187.6-72.8z"/>
			</g>
			<g>
				<path class="st7" d="M-185.6-66.9c-7.3,0-13.2-5.9-13.2-13.2s5.9-13.2,13.2-13.2c7.3,0,13.2,5.9,13.2,13.2
					S-178.3-66.9-185.6-66.9z M-185.6-91.3c-6.2,0-11.2,5-11.2,11.2s5,11.2,11.2,11.2s11.2-5,11.2-11.2S-179.4-91.3-185.6-91.3z"/>
			</g>
		</g>
	</g>
	<g>
		<line class="st9" x1="-329.8" y1="10.2" x2="-305.3" y2="10.2"/>
		<circle class="st9" cx="-338" cy="10.2" r="2.9"/>
	</g>
	<g>
		<line class="st9" x1="-329.8" y1="21.5" x2="-305.3" y2="21.5"/>
		<circle class="st9" cx="-338" cy="21.5" r="2.9"/>
	</g>
	<g>
		<line class="st9" x1="-329.8" y1="32.9" x2="-305.3" y2="32.9"/>
		<circle class="st9" cx="-338" cy="32.9" r="2.9"/>
	</g>
	<g>
		<line class="st9" x1="-329.8" y1="44.2" x2="-305.3" y2="44.2"/>
		<circle class="st9" cx="-338" cy="44.2" r="2.9"/>
	</g>
	<g>
		<g class="st17">
			<rect x="-228.3" y="2.7" class="st0" width="54.6" height="68.8"/>
		</g>
		<g>
			<path class="st7" d="M-179.6,66.5h-54.6c-0.6,0-1-0.4-1-1V-3.2c0-0.6,0.4-1,1-1h54.6c0.6,0,1,0.4,1,1v68.8
				C-178.6,66.1-179,66.5-179.6,66.5z M-233.1,64.5h52.6V-2.2h-52.6V64.5z"/>
		</g>
		<g>
			<g>
				<path class="st7" d="M-189.1,10.9h-24.5c-0.4,0-0.7-0.3-0.7-0.7s0.3-0.7,0.7-0.7h24.5c0.4,0,0.7,0.3,0.7,0.7
					S-188.7,10.9-189.1,10.9z"/>
			</g>
			<g>
				<path class="st7" d="M-221.8,13.8c-2,0-3.6-1.6-3.6-3.6c0-2,1.6-3.6,3.6-3.6c2,0,3.6,1.6,3.6,3.6
					C-218.2,12.2-219.8,13.8-221.8,13.8z M-221.8,8c-1.2,0-2.2,1-2.2,2.2s1,2.2,2.2,2.2s2.2-1,2.2-2.2S-220.6,8-221.8,8z"/>
			</g>
		</g>
		<g>
			<g>
				<path class="st7" d="M-189.1,22.2h-24.5c-0.4,0-0.7-0.3-0.7-0.7s0.3-0.7,0.7-0.7h24.5c0.4,0,0.7,0.3,0.7,0.7
					S-188.7,22.2-189.1,22.2z"/>
			</g>
			<g>
				<path class="st7" d="M-221.8,25.1c-2,0-3.6-1.6-3.6-3.6s1.6-3.6,3.6-3.6c2,0,3.6,1.6,3.6,3.6S-219.8,25.1-221.8,25.1z
					 M-221.8,19.3c-1.2,0-2.2,1-2.2,2.2s1,2.2,2.2,2.2s2.2-1,2.2-2.2S-220.6,19.3-221.8,19.3z"/>
			</g>
		</g>
		<g>
			<g>
				<path class="st7" d="M-189.1,33.5h-24.5c-0.4,0-0.7-0.3-0.7-0.7s0.3-0.7,0.7-0.7h24.5c0.4,0,0.7,0.3,0.7,0.7
					S-188.7,33.5-189.1,33.5z"/>
			</g>
			<g>
				<path class="st7" d="M-221.8,36.4c-2,0-3.6-1.6-3.6-3.6c0-2,1.6-3.6,3.6-3.6c2,0,3.6,1.6,3.6,3.6
					C-218.2,34.8-219.8,36.4-221.8,36.4z M-221.8,30.7c-1.2,0-2.2,1-2.2,2.2s1,2.2,2.2,2.2s2.2-1,2.2-2.2S-220.6,30.7-221.8,30.7z"
					/>
			</g>
		</g>
		<g>
			<g>
				<path class="st7" d="M-189.1,44.9h-24.5c-0.4,0-0.7-0.3-0.7-0.7s0.3-0.7,0.7-0.7h24.5c0.4,0,0.7,0.3,0.7,0.7
					S-188.7,44.9-189.1,44.9z"/>
			</g>
			<g>
				<path class="st7" d="M-221.8,47.8c-2,0-3.6-1.6-3.6-3.6s1.6-3.6,3.6-3.6c2,0,3.6,1.6,3.6,3.6S-219.8,47.8-221.8,47.8z
					 M-221.8,42c-1.2,0-2.2,1-2.2,2.2s1,2.2,2.2,2.2s2.2-1,2.2-2.2S-220.6,42-221.8,42z"/>
			</g>
		</g>
	</g>
	<path class="st23" d="M-72.2,6.2H-52c2.8,0,5,2.2,5,5v48.6c0,2.8-2.2,5-5,5h-58.3c-2.8,0-5-2.2-5-5V11.2c0-2.8,2.2-5,5-5H-90"/>
	<path class="st23" d="M-72.2,6.2H-52c2.8,0,5,2.2,5,5v48.6c0,2.8-2.2,5-5,5h-58.3c-2.8,0-5-2.2-5-5V11.2c0-2.8,2.2-5,5-5H-90"/>
	<line class="st23" x1="-86.4" y1="6.2" x2="-75.9" y2="6.2"/>
	<g>
		<rect x="-106.2" y="17.5" class="st9" width="7.6" height="7.6"/>
		<rect x="-92" y="17.5" class="st9" width="7.6" height="7.6"/>
		<rect x="-77.8" y="17.5" class="st9" width="7.6" height="7.6"/>
		<rect x="-63.7" y="17.5" class="st9" width="7.6" height="7.6"/>
	</g>
	<g>
		<rect x="-106.2" y="31.7" class="st9" width="7.6" height="7.6"/>
		<rect x="-92" y="31.7" class="st9" width="7.6" height="7.6"/>
		<rect x="-77.8" y="31.7" class="st9" width="7.6" height="7.6"/>
		<rect x="-63.7" y="31.7" class="st9" width="7.6" height="7.6"/>
	</g>
	<g>
		<rect x="-106.2" y="45.9" class="st9" width="7.6" height="7.6"/>
		<rect x="-92" y="45.9" class="st9" width="7.6" height="7.6"/>
		<rect x="-77.8" y="45.9" class="st9" width="7.6" height="7.6"/>
		<rect x="-63.7" y="45.9" class="st9" width="7.6" height="7.6"/>
	</g>
	<path class="st23" d="M-88.2,1L-88.2,1c-1,0-1.8,0.8-1.8,1.8v6.7c0,1,0.8,1.8,1.8,1.8h0c1,0,1.8-0.8,1.8-1.8V2.8
		C-86.4,1.8-87.2,1-88.2,1z"/>
	<path class="st23" d="M-74,1L-74,1c-1,0-1.8,0.8-1.8,1.8v6.7c0,1,0.8,1.8,1.8,1.8l0,0c1,0,1.8-0.8,1.8-1.8V2.8C-72.2,1.8-73,1-74,1
		z"/>
	<g>
		<g class="st17">
			<path class="st24" d="M49.7,11.8h20.2c2.8,0,5,2.2,5,5v48.6c0,2.8-2.2,5-5,5H11.6c-2.8,0-5-2.2-5-5V16.8c0-2.8,2.2-5,5-5h20.2"/>
		</g>
		<g>
			<path class="st24" d="M64.2,65.8H6c-3.3,0-6-2.7-6-6V11.2c0-3.3,2.7-6,6-6h20.2c0.5,0,1,0.4,1,1s-0.4,1-1,1H6c-2.2,0-4,1.8-4,4
				v48.6c0,2.2,1.8,4,4,4h58.2c2.2,0,4-1.8,4-4V11.2c0-2.2-1.8-4-4-4H44c-0.5,0-1-0.4-1-1s0.4-1,1-1h20.2c3.3,0,6,2.7,6,6v48.6
				C70.2,63.1,67.5,65.8,64.2,65.8z"/>
		</g>
		<g>
			<path class="st24" d="M64.2,65.8H6c-3.3,0-6-2.7-6-6V11.2c0-3.3,2.7-6,6-6h20.2c0.5,0,1,0.4,1,1s-0.4,1-1,1H6c-2.2,0-4,1.8-4,4
				v48.6c0,2.2,1.8,4,4,4h58.2c2.2,0,4-1.8,4-4V11.2c0-2.2-1.8-4-4-4H44c-0.5,0-1-0.4-1-1s0.4-1,1-1h20.2c3.3,0,6,2.7,6,6v48.6
				C70.2,63.1,67.5,65.8,64.2,65.8z"/>
		</g>
		<g>
			<path class="st24" d="M40.4,7.2H29.8c-0.5,0-1-0.4-1-1s0.4-1,1-1h10.5c0.5,0,1,0.4,1,1S40.9,7.2,40.4,7.2z"/>
		</g>
		<g>
			<g>
				<path class="st24" d="M17.6,25.6H10c-0.3,0-0.5-0.2-0.5-0.5v-7.6c0-0.3,0.2-0.5,0.5-0.5h7.6c0.3,0,0.5,0.2,0.5,0.5v7.6
					C18.1,25.4,17.9,25.6,17.6,25.6z M10.5,24.6h6.6V18h-6.6V24.6z"/>
			</g>
			<g>
				<path class="st24" d="M31.8,25.6h-7.6c-0.3,0-0.5-0.2-0.5-0.5v-7.6c0-0.3,0.2-0.5,0.5-0.5h7.6c0.3,0,0.5,0.2,0.5,0.5v7.6
					C32.3,25.4,32.1,25.6,31.8,25.6z M24.7,24.6h6.6V18h-6.6V24.6z"/>
			</g>
			<g>
				<path class="st24" d="M46,25.6h-7.6c-0.3,0-0.5-0.2-0.5-0.5v-7.6c0-0.3,0.2-0.5,0.5-0.5H46c0.3,0,0.5,0.2,0.5,0.5v7.6
					C46.5,25.4,46.3,25.6,46,25.6z M38.9,24.6h6.6V18h-6.6V24.6z"/>
			</g>
			<g>
				<path class="st24" d="M60.1,25.6h-7.6c-0.3,0-0.5-0.2-0.5-0.5v-7.6c0-0.3,0.2-0.5,0.5-0.5h7.6c0.3,0,0.5,0.2,0.5,0.5v7.6
					C60.6,25.4,60.4,25.6,60.1,25.6z M53.1,24.6h6.6V18h-6.6V24.6z"/>
			</g>
		</g>
		<g>
			<g>
				<path class="st24" d="M17.6,39.8H10c-0.3,0-0.5-0.2-0.5-0.5v-7.6c0-0.3,0.2-0.5,0.5-0.5h7.6c0.3,0,0.5,0.2,0.5,0.5v7.6
					C18.1,39.6,17.9,39.8,17.6,39.8z M10.5,38.8h6.6v-6.6h-6.6V38.8z"/>
			</g>
			<g>
				<path class="st24" d="M31.8,39.8h-7.6c-0.3,0-0.5-0.2-0.5-0.5v-7.6c0-0.3,0.2-0.5,0.5-0.5h7.6c0.3,0,0.5,0.2,0.5,0.5v7.6
					C32.3,39.6,32.1,39.8,31.8,39.8z M24.7,38.8h6.6v-6.6h-6.6V38.8z"/>
			</g>
			<g>
				<path class="st24" d="M46,39.8h-7.6c-0.3,0-0.5-0.2-0.5-0.5v-7.6c0-0.3,0.2-0.5,0.5-0.5H46c0.3,0,0.5,0.2,0.5,0.5v7.6
					C46.5,39.6,46.3,39.8,46,39.8z M38.9,38.8h6.6v-6.6h-6.6V38.8z"/>
			</g>
			<g>
				<path class="st24" d="M60.1,39.8h-7.6c-0.3,0-0.5-0.2-0.5-0.5v-7.6c0-0.3,0.2-0.5,0.5-0.5h7.6c0.3,0,0.5,0.2,0.5,0.5v7.6
					C60.6,39.6,60.4,39.8,60.1,39.8z M53.1,38.8h6.6v-6.6h-6.6V38.8z"/>
			</g>
		</g>
		<g>
			<g>
				<path class="st24" d="M17.6,53.9H10c-0.3,0-0.5-0.2-0.5-0.5v-7.6c0-0.3,0.2-0.5,0.5-0.5h7.6c0.3,0,0.5,0.2,0.5,0.5v7.6
					C18.1,53.7,17.9,53.9,17.6,53.9z M10.5,52.9h6.6v-6.6h-6.6V52.9z"/>
			</g>
			<g>
				<path class="st24" d="M31.8,53.9h-7.6c-0.3,0-0.5-0.2-0.5-0.5v-7.6c0-0.3,0.2-0.5,0.5-0.5h7.6c0.3,0,0.5,0.2,0.5,0.5v7.6
					C32.3,53.7,32.1,53.9,31.8,53.9z M24.7,52.9h6.6v-6.6h-6.6V52.9z"/>
			</g>
			<g>
				<path class="st24" d="M46,53.9h-7.6c-0.3,0-0.5-0.2-0.5-0.5v-7.6c0-0.3,0.2-0.5,0.5-0.5H46c0.3,0,0.5,0.2,0.5,0.5v7.6
					C46.5,53.7,46.3,53.9,46,53.9z M38.9,52.9h6.6v-6.6h-6.6V52.9z"/>
			</g>
			<g>
				<path class="st24" d="M60.1,53.9h-7.6c-0.3,0-0.5-0.2-0.5-0.5v-7.6c0-0.3,0.2-0.5,0.5-0.5h7.6c0.3,0,0.5,0.2,0.5,0.5v7.6
					C60.6,53.7,60.4,53.9,60.1,53.9z M53.1,52.9h6.6v-6.6h-6.6V52.9z"/>
			</g>
		</g>
		<g>
			<path class="st24" d="M28,12.4c-1.5,0-2.8-1.3-2.8-2.8V2.8C25.2,1.3,26.5,0,28,0c1.5,0,2.8,1.3,2.8,2.8v6.7
				C30.8,11.1,29.6,12.4,28,12.4z M28,1.9c-0.5,0-0.9,0.4-0.9,0.9v6.7c0,0.5,0.4,0.9,0.9,0.9s0.9-0.4,0.9-0.9V2.8
				C28.9,2.3,28.5,1.9,28,1.9z"/>
		</g>
		<g>
			<path class="st24" d="M42.2,12.4c-1.5,0-2.8-1.3-2.8-2.8V2.8c0-1.5,1.3-2.8,2.8-2.8C43.7,0,45,1.3,45,2.8v6.7
				C45,11.1,43.7,12.4,42.2,12.4z M42.2,1.9c-0.5,0-0.9,0.4-0.9,0.9v6.7c0,0.5,0.4,0.9,0.9,0.9S43,10,43,9.6V2.8
				C43,2.3,42.7,1.9,42.2,1.9z"/>
		</g>
	</g>
	<g>
		<path class="st22" d="M-53.3-85.7L-53.3-85.7c0.8-2.5,1.2-5.2,1.2-8c0-14.7-11.9-26.7-26.7-26.7s-26.7,11.9-26.7,26.7
			c0,2.8,0.4,5.5,1.2,8h0l0,0c0.3,1,0.7,2,1.1,3l10.4,27.2h27.8l10.4-27.2C-54-83.7-53.6-84.7-53.3-85.7L-53.3-85.7z"/>
		<path class="st13" d="M-59-91.4L-59-91.4c0.8-2.5,1.2-5.2,1.2-8c0-14.7-11.9-26.7-26.7-26.7s-26.7,11.9-26.7,26.7
			c0,2.8,0.4,5.5,1.2,8h0l0,0c0.3,1,0.7,2,1.1,3l10.4,27.2h27.8l10.4-27.2C-59.7-89.4-59.3-90.4-59-91.4L-59-91.4z"/>
		<line class="st13" x1="-98.3" y1="-56.2" x2="-70.5" y2="-56.2"/>
		<line class="st13" x1="-95.9" y1="-51.1" x2="-73" y2="-51.1"/>
		<line class="st13" x1="-93.4" y1="-45.9" x2="-75.4" y2="-45.9"/>
		<polyline class="st13" points="-88.5,-61.2 -93.4,-79.7 -75.4,-79.7 -80.4,-61.2 		"/>
		<line class="st13" x1="-90.9" y1="-83.4" x2="-77.9" y2="-83.4"/>
		<line class="st13" x1="-88.5" y1="-87.1" x2="-80.4" y2="-87.1"/>
	</g>
	<path class="st13" d="M-104.9-98.9c0-11.3,9.2-20.4,20.4-20.4"/>
	<g>
		<g class="st16">
			<path class="st3" d="M62.9-85.7L62.9-85.7c0.8-2.5,1.2-5.2,1.2-8c0-14.7-11.9-26.7-26.7-26.7s-26.7,11.9-26.7,26.7
				c0,2.8,0.4,5.5,1.2,8h0l0,0c0.3,1,0.7,2,1.1,3l10.4,27.2h27.8l10.4-27.2C62.2-83.7,62.6-84.7,62.9-85.7L62.9-85.7z"/>
		</g>
		<g>
			<path class="st7" d="M45.7-60.2H17.9c-0.4,0-0.8-0.3-0.9-0.6L6.6-88c-0.4-1-0.8-2-1.2-3.1c-0.8-2.7-1.3-5.5-1.3-8.3
				c0-15.2,12.4-27.7,27.7-27.7s27.7,12.4,27.7,27.7c0,2.8-0.4,5.6-1.3,8.3c0,0,0,0,0,0C57.9-90,57.5-89,57-88L46.6-60.8
				C46.5-60.4,46.1-60.2,45.7-60.2z M18.6-62.2H45l10.1-26.6c0.4-1,0.8-2,1.1-3c0,0,0,0,0,0c0.8-2.5,1.2-5,1.2-7.7
				c0-14.1-11.5-25.7-25.7-25.7c-14.1,0-25.7,11.5-25.7,25.7c0,2.6,0.4,5.2,1.2,7.7c0.3,1,0.7,2,1.1,2.9L18.6-62.2z M57.2-91.4
				L57.2-91.4L57.2-91.4z"/>
		</g>
		<g>
			<path class="st7" d="M45.7-55.2H17.9c-0.6,0-1-0.4-1-1s0.4-1,1-1h27.8c0.6,0,1,0.4,1,1S46.2-55.2,45.7-55.2z"/>
		</g>
		<g>
			<path class="st7" d="M43.2-50.1H20.4c-0.6,0-1-0.4-1-1s0.4-1,1-1h22.9c0.6,0,1,0.4,1,1S43.8-50.1,43.2-50.1z"/>
		</g>
		<g>
			<path class="st7" d="M40.8-44.9h-18c-0.6,0-1-0.4-1-1s0.4-1,1-1h18c0.6,0,1,0.4,1,1S41.3-44.9,40.8-44.9z"/>
		</g>
		<g>
			<path class="st7" d="M35.9-60.2c-0.1,0-0.2,0-0.3,0c-0.5-0.1-0.9-0.7-0.7-1.2l4.6-17.3H24.1l4.6,17.3c0.1,0.5-0.2,1.1-0.7,1.2
				c-0.5,0.1-1.1-0.2-1.2-0.7l-4.9-18.6c-0.1-0.3,0-0.6,0.2-0.9c0.2-0.2,0.5-0.4,0.8-0.4h18c0.3,0,0.6,0.1,0.8,0.4
				c0.2,0.2,0.3,0.6,0.2,0.9l-4.9,18.6C36.7-60.5,36.3-60.2,35.9-60.2z"/>
		</g>
		<g>
			<path class="st7" d="M38.3-82.4h-13c-0.6,0-1-0.4-1-1s0.4-1,1-1h13c0.6,0,1,0.4,1,1S38.9-82.4,38.3-82.4z"/>
		</g>
		<g>
			<path class="st7" d="M35.9-86.1h-8.1c-0.6,0-1-0.4-1-1s0.4-1,1-1h8.1c0.6,0,1,0.4,1,1S36.4-86.1,35.9-86.1z"/>
		</g>
	</g>
	<g>
		<path class="st7" d="M11.4-97.9c-0.6,0-1-0.4-1-1c0-11.8,9.6-21.4,21.4-21.4c0.6,0,1,0.4,1,1s-0.4,1-1,1
			c-10.7,0-19.4,8.7-19.4,19.4C12.4-98.4,11.9-97.9,11.4-97.9z"/>
	</g>
	<g>
	</g>
	<g>
	</g>
	<g>
	</g>
	<g>
	</g>
	<g>
	</g>
	<g>
	</g>
	<g>
	</g>
	<g>
	</g>
	<g>
	</g>
	<g>
	</g>
	<g>
	</g>
	<g>
	</g>
	<g>
	</g>
	<g>
	</g>
	<g>
	</g>
</g>
</svg>
