<?xml version="1.0" encoding="utf-8"?>
<!-- Generator: Adobe Illustrator 22.1.0, SVG Export Plug-In . SVG Version: 6.00 Build 0)  -->
<svg version="1.1" id="Capa_1" xmlns="http://www.w3.org/2000/svg" xmlns:xlink="http://www.w3.org/1999/xlink" x="0px" y="0px"
	 viewBox="0 0 61.5 75.7" style="enable-background:new 0 0 61.5 75.7;" xml:space="preserve">
<style type="text/css">
	.st0{fill:#81BCBF;}
	.st1{fill:#585799;}
	.st2{fill:url(#SVGID_1_);}
	.st3{fill:#B6CE8C;}
	.st4{fill:#508AA6;}
	.st5{fill:url(#SVGID_2_);}
	.st6{opacity:0.2;fill:#4E8AA7;enable-background:new    ;}
	.st7{fill:#292929;}
	.st8{fill:none;stroke:#292929;stroke-width:2;stroke-linejoin:round;stroke-miterlimit:10;}
	.st9{fill:none;stroke:#292929;stroke-linecap:round;stroke-linejoin:round;stroke-miterlimit:10;}
	.st10{opacity:0.2;}
	.st11{fill:#4E8AA7;}
	.st12{opacity:0.5;fill:#81BCBF;enable-background:new    ;}
	.st13{fill:none;stroke:#292929;stroke-width:2;stroke-linecap:round;stroke-linejoin:round;stroke-miterlimit:10;}
	.st14{fill:none;stroke:#292929;stroke-linejoin:round;stroke-miterlimit:10;}
	.st15{fill:none;stroke:#292929;stroke-width:1.5;stroke-linecap:round;stroke-linejoin:round;stroke-miterlimit:10;}
	.st16{opacity:0.5;}
	.st17{opacity:0.25;}
	.st18{opacity:0.2;fill:#585799;enable-background:new    ;}
	.st19{fill:none;stroke:#282828;stroke-linecap:round;stroke-linejoin:round;stroke-miterlimit:10;}
	.st20{fill:none;stroke:#282828;stroke-linejoin:round;stroke-miterlimit:10;}
	.st21{fill:#282828;}
	.st22{opacity:0.5;fill:#B6CE8C;enable-background:new    ;}
	.st23{fill:#FFFFFF;}
	.st24{fill:none;stroke:#292929;stroke-width:1.9456;stroke-linecap:round;stroke-linejoin:round;stroke-miterlimit:10;}
</style>
<g id="COLORES">
	<rect x="-544.7" y="-204.4" class="st0" width="36" height="36"/>
	<rect x="-544.7" y="-168.4" class="st1" width="36" height="36"/>
	
		<linearGradient id="SVGID_1_" gradientUnits="userSpaceOnUse" x1="-616.7" y1="1039.6" x2="-544.7" y2="1039.6" gradientTransform="matrix(1 0 0 -1 0 871.2)">
		<stop  offset="0" style="stop-color:#81BCBF"/>
		<stop  offset="1" style="stop-color:#585799"/>
	</linearGradient>
	<rect x="-616.7" y="-204.4" class="st2" width="72" height="72"/>
	<rect x="-544.7" y="-126.4" class="st3" width="36" height="36"/>
	<rect x="-544.7" y="-90.4" class="st4" width="36" height="36"/>
	
		<linearGradient id="SVGID_2_" gradientUnits="userSpaceOnUse" x1="-616.7" y1="961.6" x2="-544.7" y2="961.6" gradientTransform="matrix(1 0 0 -1 0 871.2)">
		<stop  offset="0" style="stop-color:#B6CE8C"/>
		<stop  offset="1" style="stop-color:#508AA6"/>
	</linearGradient>
	<rect x="-616.7" y="-126.4" class="st5" width="72" height="72"/>
	<g>
		<rect x="-93.2" y="131.9" class="st6" width="27.3" height="27.3"/>
		<g>
			<path class="st7" d="M-89.8,145.3l0.7-0.8c1,0.9,2,1.4,3.4,1.4c1.3,0,2.2-0.7,2.2-1.7l0,0c0-0.9-0.5-1.5-2.6-1.9
				c-2.3-0.5-3.4-1.2-3.4-2.9l0,0c0-1.6,1.4-2.7,3.3-2.7c1.5,0,2.5,0.4,3.5,1.2l-0.7,0.9c-0.9-0.8-1.9-1.1-2.9-1.1
				c-1.3,0-2.1,0.7-2.1,1.6l0,0c0,0.9,0.5,1.5,2.7,1.9c2.2,0.5,3.3,1.3,3.3,2.8l0,0c0,1.7-1.4,2.8-3.4,2.8
				C-87.3,146.9-88.6,146.4-89.8,145.3z"/>
			<path class="st7" d="M-80,139.4h1.1v7.4H-80V139.4z M-78.6,136.2l1.1,0.5l-1.6,1.5H-80L-78.6,136.2z"/>
		</g>
		<rect x="-97.2" y="127.9" class="st8" width="27.3" height="27.3"/>
	</g>
	<g>
		<rect x="-14.4" y="132.1" class="st6" width="27.3" height="27.3"/>
		<rect x="-18.4" y="128.1" class="st8" width="27.3" height="27.3"/>
		<polyline class="st9" points="-14.3,147.6 -6.7,136 -9.2,145.3 -3.4,141.1 -5,145 1.1,141.8 -0.7,145.2 4.9,143 		"/>
	</g>
	<g>
		<rect x="66.8" y="132.1" class="st6" width="27.3" height="27.3"/>
		<rect x="62.8" y="128.1" class="st8" width="27.3" height="27.3"/>
		<g>
			<polyline class="st9" points="72.7,142.8 75.1,145.8 79.3,138.7 			"/>
			<path class="st9" d="M84.2,141.8c0,4.3-3.5,7.8-7.8,7.8s-7.8-3.5-7.8-7.8s3.5-7.8,7.8-7.8C80.7,134,84.2,137.5,84.2,141.8z"/>
		</g>
	</g>
	<g>
		<g class="st10">
			<rect x="-93.2" y="191.4" class="st11" width="27.3" height="27.3"/>
		</g>
		<g>
			<g>
				<path class="st7" d="M-89.8,204.9l0.7-0.8c1,0.9,2,1.4,3.4,1.4c1.3,0,2.2-0.7,2.2-1.7l0,0c0-0.9-0.5-1.5-2.6-1.9
					c-2.3-0.5-3.4-1.2-3.4-2.9l0,0c0-1.6,1.4-2.7,3.3-2.7c1.5,0,2.5,0.4,3.5,1.2l-0.7,0.9c-0.9-0.8-1.9-1.1-2.9-1.1
					c-1.3,0-2.1,0.7-2.1,1.6l0,0c0,0.9,0.5,1.5,2.7,1.9c2.2,0.5,3.3,1.3,3.3,2.8l0,0c0,1.7-1.4,2.8-3.4,2.8
					C-87.3,206.5-88.6,205.9-89.8,204.9z"/>
			</g>
			<g>
				<path class="st7" d="M-80,198.9h1.1v7.4H-80V198.9z M-78.6,195.7l1.1,0.5l-1.6,1.5H-80L-78.6,195.7z"/>
			</g>
		</g>
		<g>
			<path class="st7" d="M-70,215.7h-27.3c-0.6,0-1-0.4-1-1v-27.3c0-0.6,0.4-1,1-1H-70c0.6,0,1,0.4,1,1v27.3
				C-69,215.3-69.4,215.7-70,215.7z M-96.2,213.7h25.3v-25.3h-25.3V213.7z"/>
		</g>
	</g>
	<g>
		<g class="st10">
			<rect x="-14.4" y="191.7" class="st11" width="27.3" height="27.3"/>
		</g>
		<g>
			<path class="st7" d="M8.9,215.9h-27.3c-0.6,0-1-0.4-1-1v-27.3c0-0.6,0.4-1,1-1H8.9c0.6,0,1,0.4,1,1v27.3
				C9.9,215.5,9.5,215.9,8.9,215.9z M-17.4,213.9H7.9v-25.3h-25.3V213.9z"/>
		</g>
		<g>
			<path class="st7" d="M-14.3,207.6c-0.1,0-0.2,0-0.3-0.1c-0.2-0.2-0.3-0.5-0.1-0.7l7.6-11.6c0.1-0.2,0.4-0.3,0.6-0.2
				c0.2,0.1,0.3,0.3,0.3,0.6l-2.1,8l4.7-3.4c0.2-0.1,0.4-0.1,0.6,0s0.2,0.4,0.2,0.6l-1.1,2.6l4.8-2.6c0.2-0.1,0.4-0.1,0.6,0.1
				s0.2,0.4,0.1,0.6l-1.1,2.2l4.3-1.7c0.3-0.1,0.5,0,0.7,0.3c0.1,0.3,0,0.5-0.3,0.7l-5.6,2.2c-0.2,0.1-0.4,0-0.6-0.1
				s-0.2-0.4-0.1-0.6l1-2l-4.7,2.5c-0.2,0.1-0.4,0.1-0.6-0.1c-0.2-0.1-0.2-0.4-0.1-0.6l0.9-2.2l-4.4,3.2c-0.2,0.1-0.4,0.1-0.6,0
				s-0.3-0.3-0.2-0.5l1.7-6.4l-6,9.1C-14,207.5-14.2,207.6-14.3,207.6z"/>
		</g>
	</g>
	<g>
		<g class="st10">
			<rect x="66.8" y="191.7" class="st11" width="27.3" height="27.3"/>
		</g>
		<g>
			<path class="st7" d="M90,215.9H62.7c-0.6,0-1-0.4-1-1v-27.3c0-0.6,0.4-1,1-1H90c0.6,0,1,0.4,1,1v27.3
				C91,215.5,90.6,215.9,90,215.9z M63.8,213.9h25.3v-25.3H63.8V213.9z"/>
		</g>
		<g>
			<g>
				<path class="st7" d="M75.1,205.8c-0.2,0-0.3-0.1-0.4-0.2l-2.4-2.9c-0.2-0.2-0.1-0.5,0.1-0.7c0.2-0.2,0.5-0.1,0.7,0.1l1.9,2.4
					l3.8-6.5c0.1-0.2,0.4-0.3,0.7-0.2c0.2,0.1,0.3,0.4,0.2,0.7l-4.2,7.1C75.4,205.7,75.3,205.8,75.1,205.8L75.1,205.8z"/>
			</g>
			<g>
				<path class="st7" d="M76.4,209.6c-4.6,0-8.3-3.7-8.3-8.3s3.7-8.3,8.3-8.3s8.3,3.7,8.3,8.3S81,209.6,76.4,209.6z M76.4,194
					c-4,0-7.3,3.3-7.3,7.3s3.3,7.3,7.3,7.3s7.3-3.3,7.3-7.3S80.4,194,76.4,194z"/>
			</g>
		</g>
	</g>
</g>
<g id="Tratamiento_de_Datos">
	<path class="st12" d="M168.6,16.1h20.2c2.8,0,5,2.2,5,5v48.6c0,2.8-2.2,5-5,5h-58.2c-2.8,0-5-2.2-5-5V21.1c0-2.8,2.2-5,5-5h20.2"/>
	<g>
		<rect x="-377.2" y="-108.5" class="st12" width="54.6" height="68.8"/>
		<polyline class="st13" points="-328.5,-58.6 -328.5,-45.7 -383.1,-45.7 -383.1,-114.4 -328.5,-114.4 -328.5,-91.7 		"/>
		<rect x="-375.7" y="-107.1" class="st14" width="12.5" height="12.5"/>
		<line class="st9" x1="-358.1" y1="-100.8" x2="-340" y2="-100.8"/>
		<line class="st9" x1="-358.1" y1="-96.4" x2="-340" y2="-96.4"/>
		<line class="st15" x1="-371" y1="-86" x2="-340.6" y2="-86"/>
		<line class="st15" x1="-371" y1="-78.6" x2="-340.6" y2="-78.6"/>
		<line class="st15" x1="-371" y1="-71.3" x2="-346.6" y2="-71.3"/>
		<line class="st15" x1="-371" y1="-63.9" x2="-350.6" y2="-63.9"/>
		<line class="st15" x1="-371" y1="-56.5" x2="-351.6" y2="-56.5"/>
		<g>
			<polygon class="st8" points="-327.2,-83.8 -345.7,-65.3 -347.3,-56.5 -338.5,-58.1 -320,-76.6 			"/>
			<line class="st8" x1="-345.7" y1="-65.3" x2="-338.5" y2="-58.1"/>
			<line class="st8" x1="-323.6" y1="-80.2" x2="-342.1" y2="-61.7"/>
			<polyline class="st8" points="-327.2,-83.8 -324.4,-86.7 -317.2,-79.4 -320,-76.6 			"/>
		</g>
	</g>
	<rect x="-377.2" y="7.5" class="st12" width="54.6" height="68.8"/>
	<rect x="-383.1" y="1.6" class="st13" width="54.6" height="68.8"/>
	<rect x="-375.7" y="8.9" class="st14" width="12.5" height="12.5"/>
	<line class="st9" x1="-358.1" y1="15.2" x2="-340" y2="15.2"/>
	<line class="st9" x1="-358.1" y1="19.6" x2="-340" y2="19.6"/>
	<line class="st15" x1="-371" y1="30" x2="-340.6" y2="30"/>
	<line class="st15" x1="-371" y1="37.4" x2="-340.6" y2="37.4"/>
	<line class="st15" x1="-371" y1="44.7" x2="-340.6" y2="44.7"/>
	<line class="st15" x1="-371" y1="52.1" x2="-340.6" y2="52.1"/>
	<line class="st15" x1="-371" y1="59.5" x2="-340.6" y2="59.5"/>
	<g>
		<g class="st16">
			<rect x="-261" y="7.5" class="st0" width="54.6" height="68.8"/>
		</g>
		<g>
			<path class="st7" d="M-212.3,71.3h-54.6c-0.6,0-1-0.4-1-1V1.6c0-0.6,0.4-1,1-1h54.6c0.6,0,1,0.4,1,1v68.8
				C-211.3,70.9-211.7,71.3-212.3,71.3z M-265.9,69.3h52.6V2.6h-52.6L-265.9,69.3L-265.9,69.3z"/>
		</g>
		<g>
			<path class="st7" d="M-247,22h-12.5c-0.3,0-0.5-0.2-0.5-0.5V9c0-0.3,0.2-0.5,0.5-0.5h12.5c0.3,0,0.5,0.2,0.5,0.5v12.5
				C-246.5,21.7-246.7,22-247,22z M-259,21h11.5V9.5H-259V21z"/>
		</g>
		<g>
			<path class="st7" d="M-223.8,15.7h-18.1c-0.3,0-0.5-0.2-0.5-0.5s0.2-0.5,0.5-0.5h18.1c0.3,0,0.5,0.2,0.5,0.5
				S-223.5,15.7-223.8,15.7z"/>
		</g>
		<g>
			<path class="st7" d="M-223.8,20.1h-18.1c-0.3,0-0.5-0.2-0.5-0.5s0.2-0.5,0.5-0.5h18.1c0.3,0,0.5,0.2,0.5,0.5
				S-223.5,20.1-223.8,20.1z"/>
		</g>
		<g>
			<path class="st7" d="M-224.4,30.8h-30.4c-0.4,0-0.8-0.3-0.8-0.8s0.3-0.8,0.8-0.8h30.4c0.4,0,0.8,0.3,0.8,0.8
				S-224,30.8-224.4,30.8z"/>
		</g>
		<g>
			<path class="st7" d="M-224.4,38.1h-30.4c-0.4,0-0.8-0.3-0.8-0.8s0.3-0.8,0.8-0.8h30.4c0.4,0,0.8,0.3,0.8,0.8
				S-224,38.1-224.4,38.1z"/>
		</g>
		<g>
			<path class="st7" d="M-224.4,45.5h-30.4c-0.4,0-0.8-0.3-0.8-0.8s0.3-0.8,0.8-0.8h30.4c0.4,0,0.8,0.3,0.8,0.8
				S-224,45.5-224.4,45.5z"/>
		</g>
		<g>
			<path class="st7" d="M-224.4,52.9h-30.4c-0.4,0-0.8-0.3-0.8-0.8s0.3-0.8,0.8-0.8h30.4c0.4,0,0.8,0.3,0.8,0.8
				S-224,52.9-224.4,52.9z"/>
		</g>
		<g>
			<path class="st7" d="M-224.4,60.2h-30.4c-0.4,0-0.8-0.3-0.8-0.8s0.3-0.8,0.8-0.8h30.4c0.4,0,0.8,0.3,0.8,0.8
				S-224,60.2-224.4,60.2z"/>
		</g>
	</g>
	<g>
		<g class="st17">
			<rect x="-261.2" y="-108.5" class="st0" width="54.6" height="68.8"/>
		</g>
		<g>
			<path class="st7" d="M-212.5-44.7h-54.6c-0.6,0-1-0.4-1-1v-68.7c0-0.6,0.4-1,1-1h54.6c0.6,0,1,0.4,1,1v22.7c0,0.6-0.4,1-1,1
				s-1-0.4-1-1v-21.7h-52.6v66.8h52.6v-11.9c0-0.6,0.4-1,1-1s1,0.4,1,1v12.9C-211.5-45.1-212-44.7-212.5-44.7z"/>
		</g>
		<g>
			<path class="st7" d="M-247.2-94h-12.5c-0.3,0-0.5-0.2-0.5-0.5v-12.6c0-0.3,0.2-0.5,0.5-0.5h12.5c0.3,0,0.5,0.2,0.5,0.5v12.5
				C-246.7-94.3-246.9-94-247.2-94z M-259.2-95h11.5v-11.6h-11.5V-95z"/>
		</g>
		<g>
			<path class="st7" d="M-224-100.3h-18.1c-0.3,0-0.5-0.2-0.5-0.5s0.2-0.5,0.5-0.5h18.1c0.3,0,0.5,0.2,0.5,0.5
				S-223.7-100.3-224-100.3z"/>
		</g>
		<g>
			<path class="st7" d="M-224-95.9h-18.1c-0.3,0-0.5-0.2-0.5-0.5s0.2-0.5,0.5-0.5h18.1c0.3,0,0.5,0.2,0.5,0.5S-223.7-95.9-224-95.9z
				"/>
		</g>
		<g>
			<path class="st7" d="M-224.6-85.2H-255c-0.4,0-0.8-0.3-0.8-0.8s0.3-0.8,0.8-0.8h30.4c0.4,0,0.8,0.3,0.8,0.8
				S-224.2-85.2-224.6-85.2z"/>
		</g>
		<g>
			<path class="st7" d="M-224.6-77.9H-255c-0.4,0-0.8-0.3-0.8-0.8s0.3-0.8,0.8-0.8h30.4c0.4,0,0.8,0.3,0.8,0.8
				S-224.2-77.9-224.6-77.9z"/>
		</g>
		<g>
			<path class="st7" d="M-230.6-70.5H-255c-0.4,0-0.8-0.3-0.8-0.8s0.3-0.8,0.8-0.8h24.4c0.4,0,0.8,0.3,0.8,0.8
				S-230.2-70.5-230.6-70.5z"/>
		</g>
		<g>
			<path class="st7" d="M-234.6-63.1H-255c-0.4,0-0.8-0.3-0.8-0.8s0.3-0.8,0.8-0.8h20.4c0.4,0,0.8,0.3,0.8,0.8
				S-234.2-63.1-234.6-63.1z"/>
		</g>
		<g>
			<path class="st7" d="M-235.6-55.8H-255c-0.4,0-0.8-0.3-0.8-0.8s0.3-0.8,0.8-0.8h19.4c0.4,0,0.8,0.3,0.8,0.8
				S-235.2-55.8-235.6-55.8z"/>
		</g>
		<g>
			<g>
				<path class="st7" d="M-231.3-55.5c-0.3,0-0.5-0.1-0.7-0.3s-0.3-0.6-0.3-0.9l1.6-8.8c0-0.2,0.1-0.4,0.3-0.5l18.5-18.5
					c0.2-0.2,0.4-0.3,0.7-0.3l0,0c0.3,0,0.5,0.1,0.7,0.3l7.2,7.2c0.4,0.4,0.4,1,0,1.4l-18.5,18.5c-0.1,0.1-0.3,0.2-0.5,0.3l-8.8,1.6
					C-231.2-55.5-231.2-55.5-231.3-55.5z M-228.8-64.8l-1.3,7.1l7-1.3l17.6-17.6l-5.8-5.8L-228.8-64.8z"/>
			</g>
			<g>
				
					<rect x="-227.1" y="-66.8" transform="matrix(0.7072 -0.707 0.707 0.7072 -22.5797 -177.9286)" class="st7" width="2" height="10.2"/>
			</g>
			<g>
				
					<rect x="-230" y="-71.9" transform="matrix(0.7071 -0.7071 0.7071 0.7071 -13.3906 -174.1089)" class="st7" width="26.2" height="2"/>
			</g>
			<g>
				<path class="st7" d="M-203.3-75.9l-1.4-1.4l2.1-2.1l-5.8-5.8l-2.1,2.1l-1.4-1.4l2.8-2.9c0.2-0.2,0.4-0.3,0.7-0.3l0,0
					c0.3,0,0.5,0.1,0.7,0.3l7.2,7.2c0.4,0.4,0.4,1,0,1.4L-203.3-75.9z"/>
			</g>
		</g>
	</g>
	<g>
		<rect x="-371.6" y="129.5" class="st18" width="27.3" height="34.4"/>
		<rect x="-375.6" y="125.5" class="st8" width="27.3" height="34.4"/>
		<g>
			<line class="st15" x1="-369.6" y1="132.6" x2="-354.4" y2="132.6"/>
			<line class="st15" x1="-369.6" y1="136.6" x2="-354.4" y2="136.6"/>
			<line class="st15" x1="-369.6" y1="140.7" x2="-354.4" y2="140.7"/>
			<line class="st15" x1="-369.6" y1="144.7" x2="-354.4" y2="144.7"/>
			<line class="st15" x1="-369.6" y1="148.8" x2="-354.4" y2="148.8"/>
			<line class="st15" x1="-369.6" y1="152.8" x2="-354.4" y2="152.8"/>
		</g>
	</g>
	<g>
		<rect x="-292.8" y="129.5" class="st18" width="27.3" height="34.4"/>
		<polyline class="st13" points="-269.5,154.7 -269.5,159.9 -296.8,159.9 -296.8,125.5 -269.5,125.5 -269.5,136.7 		"/>
		<g>
			<line class="st15" x1="-290.7" y1="132.6" x2="-275.5" y2="132.6"/>
			<line class="st15" x1="-290.7" y1="136.6" x2="-275.5" y2="136.6"/>
			<line class="st15" x1="-290.7" y1="140.7" x2="-275.5" y2="140.7"/>
			<line class="st15" x1="-290.7" y1="144.7" x2="-276.4" y2="144.7"/>
			<line class="st15" x1="-290.7" y1="148.8" x2="-279.8" y2="148.8"/>
			<line class="st15" x1="-290.7" y1="152.8" x2="-280.5" y2="152.8"/>
		</g>
		<g>
			<polygon class="st19" points="-268,140.3 -276.7,149 -277.5,153.2 -273.3,152.4 -264.6,143.7 			"/>
			<line class="st19" x1="-276.7" y1="149" x2="-273.3" y2="152.4"/>
			<line class="st20" x1="-266.3" y1="142" x2="-275" y2="150.7"/>
			<polyline class="st19" points="-268,140.3 -266.6,138.9 -263.2,142.3 -264.6,143.7 			"/>
		</g>
	</g>
	<g>
		<rect x="-211.6" y="129.5" class="st18" width="27.3" height="34.4"/>
		<polyline class="st13" points="-188.4,154.7 -188.4,159.9 -215.6,159.9 -215.6,125.5 -188.4,125.5 -188.4,136.7 		"/>
		<g>
			<line class="st15" x1="-209.6" y1="132.6" x2="-194.4" y2="132.6"/>
			<line class="st15" x1="-209.6" y1="136.6" x2="-194.4" y2="136.6"/>
			<line class="st15" x1="-209.6" y1="140.7" x2="-199.4" y2="140.7"/>
			<line class="st15" x1="-209.6" y1="144.7" x2="-200.3" y2="144.7"/>
			<line class="st15" x1="-209.6" y1="148.8" x2="-198.7" y2="148.8"/>
			<line class="st15" x1="-209.6" y1="152.8" x2="-194.4" y2="152.8"/>
		</g>
		<path class="st9" d="M-188.2,143.1c0.5,2.5-1.1,5-3.6,5.5s-5-1.1-5.5-3.6s1.1-5,3.6-5.5S-188.7,140.6-188.2,143.1z"/>
		<path class="st9" d="M-188.2,143.1c0.5,2.5-1.1,5-3.6,5.5s-5-1.1-5.5-3.6s1.1-5,3.6-5.5S-188.7,140.6-188.2,143.1z"/>
		<line class="st9" x1="-189.7" y1="147.6" x2="-185.4" y2="152.4"/>
	</g>
	<g>
		<g class="st10">
			<rect x="-371.6" y="189" class="st1" width="27.3" height="34.4"/>
		</g>
		<g>
			<path class="st7" d="M-348.4,220.4h-27.2c-0.6,0-1-0.4-1-1V185c0-0.6,0.4-1,1-1h27.3c0.6,0,1,0.4,1,1v34.4
				C-347.4,220-347.8,220.4-348.4,220.4z M-374.6,218.4h25.3V186h-25.3V218.4z"/>
		</g>
		<g>
			<g>
				<path class="st7" d="M-354.4,192.8h-15.2c-0.4,0-0.8-0.3-0.8-0.8s0.3-0.8,0.8-0.8h15.2c0.4,0,0.8,0.3,0.8,0.8
					S-354,192.8-354.4,192.8z"/>
			</g>
			<g>
				<path class="st7" d="M-354.4,196.9h-15.2c-0.4,0-0.8-0.3-0.8-0.8s0.3-0.8,0.8-0.8h15.2c0.4,0,0.8,0.3,0.8,0.8
					S-354,196.9-354.4,196.9z"/>
			</g>
			<g>
				<path class="st7" d="M-354.4,200.9h-15.2c-0.4,0-0.8-0.3-0.8-0.8s0.3-0.8,0.8-0.8h15.2c0.4,0,0.8,0.3,0.8,0.8
					S-354,200.9-354.4,200.9z"/>
			</g>
			<g>
				<path class="st7" d="M-354.4,205h-15.2c-0.4,0-0.8-0.3-0.8-0.8s0.3-0.8,0.8-0.8h15.2c0.4,0,0.8,0.3,0.8,0.8S-354,205-354.4,205z
					"/>
			</g>
			<g>
				<path class="st7" d="M-354.4,209h-15.2c-0.4,0-0.8-0.3-0.8-0.8s0.3-0.8,0.8-0.8h15.2c0.4,0,0.8,0.3,0.8,0.8S-354,209-354.4,209z
					"/>
			</g>
			<g>
				<path class="st7" d="M-354.4,213.1h-15.2c-0.4,0-0.8-0.3-0.8-0.8s0.3-0.8,0.8-0.8h15.2c0.4,0,0.8,0.3,0.8,0.8
					S-354,213.1-354.4,213.1z"/>
			</g>
		</g>
	</g>
	<g>
		<g class="st10">
			<rect x="-292.8" y="189" class="st1" width="27.3" height="34.4"/>
		</g>
		<g>
			<path class="st7" d="M-269.5,220.4h-27.3c-0.6,0-1-0.4-1-1V185c0-0.6,0.4-1,1-1h27.3c0.6,0,1,0.4,1,1v11.3c0,0.6-0.4,1-1,1
				c-0.6,0-1-0.4-1-1V186h-25.3v32.4h25.3v-4.1c0-0.6,0.4-1,1-1c0.6,0,1,0.4,1,1v5.1C-268.5,220-268.9,220.4-269.5,220.4z"/>
		</g>
		<g>
			<g>
				<path class="st7" d="M-275.5,192.8h-15.2c-0.4,0-0.8-0.3-0.8-0.8s0.3-0.8,0.8-0.8h15.2c0.4,0,0.8,0.3,0.8,0.8
					S-275.1,192.8-275.5,192.8z"/>
			</g>
			<g>
				<path class="st7" d="M-275.5,196.9h-15.2c-0.4,0-0.8-0.3-0.8-0.8s0.3-0.8,0.8-0.8h15.2c0.4,0,0.8,0.3,0.8,0.8
					S-275.1,196.9-275.5,196.9z"/>
			</g>
			<g>
				<path class="st7" d="M-275.5,200.9h-15.2c-0.4,0-0.8-0.3-0.8-0.8s0.3-0.8,0.8-0.8h15.2c0.4,0,0.8,0.3,0.8,0.8
					S-275.1,200.9-275.5,200.9z"/>
			</g>
			<g>
				<path class="st7" d="M-276.4,205h-14.3c-0.4,0-0.8-0.3-0.8-0.8s0.3-0.8,0.8-0.8h14.3c0.4,0,0.8,0.3,0.8,0.8S-276,205-276.4,205z
					"/>
			</g>
			<g>
				<path class="st7" d="M-279.8,209h-10.9c-0.4,0-0.8-0.3-0.8-0.8s0.3-0.8,0.8-0.8h10.9c0.4,0,0.8,0.3,0.8,0.8
					S-279.4,209-279.8,209z"/>
			</g>
			<g>
				<path class="st7" d="M-280.5,213.1h-10.2c-0.4,0-0.8-0.3-0.8-0.8s0.3-0.8,0.8-0.8h10.2c0.4,0,0.8,0.3,0.8,0.8
					S-280.1,213.1-280.5,213.1z"/>
			</g>
		</g>
		<g>
			<g>
				<path class="st21" d="M-277.5,213.2c-0.1,0-0.3-0.1-0.4-0.1c-0.1-0.1-0.2-0.3-0.1-0.4l0.7-4.1c0-0.1,0.1-0.2,0.1-0.3l8.7-8.7
					c0.1-0.1,0.2-0.1,0.4-0.1l0,0c0.1,0,0.3,0.1,0.4,0.1l3.4,3.4c0.2,0.2,0.2,0.5,0,0.7l-8.7,8.7c-0.1,0.1-0.2,0.1-0.3,0.1
					L-277.5,213.2C-277.4,213.2-277.4,213.2-277.5,213.2z M-276.3,208.8l-0.6,3.3l3.3-0.6l8.3-8.3l-2.7-2.7L-276.3,208.8z"/>
			</g>
			<g>
				<path class="st21" d="M-273.3,212.4c-0.1,0-0.3,0-0.4-0.1l-3.4-3.4c-0.2-0.2-0.2-0.5,0-0.7s0.5-0.2,0.7,0l3.4,3.4
					c0.2,0.2,0.2,0.5,0,0.7C-273.1,212.4-273.2,212.4-273.3,212.4z"/>
			</g>
			<g>
				
					<rect x="-276.8" y="205.3" transform="matrix(0.7071 -0.7071 0.7071 0.7071 -224.8092 -131.0487)" class="st21" width="12.4" height="1"/>
			</g>
			<g>
				<path class="st21" d="M-264.6,203.7c-0.1,0-0.3,0-0.4-0.1c-0.2-0.2-0.2-0.5,0-0.7l1-1l-2.7-2.7l-1,1c-0.2,0.2-0.5,0.2-0.7,0
					s-0.2-0.5,0-0.7l1.3-1.3c0.1-0.1,0.2-0.1,0.4-0.1l0,0c0.1,0,0.3,0.1,0.4,0.1l3.4,3.4c0.2,0.2,0.2,0.5,0,0.7l-1.3,1.3
					C-264.3,203.6-264.5,203.7-264.6,203.7z"/>
			</g>
		</g>
	</g>
	<g>
		<g class="st10">
			<rect x="-211.6" y="189" class="st1" width="27.3" height="34.4"/>
		</g>
		<g>
			<path class="st7" d="M-188.4,220.4h-27.3c-0.6,0-1-0.4-1-1V185c0-0.6,0.4-1,1-1h27.3c0.6,0,1,0.4,1,1v11.3c0,0.6-0.4,1-1,1
				s-1-0.4-1-1V186h-25.3v32.4h25.3v-4.1c0-0.6,0.4-1,1-1s1,0.4,1,1v5.1C-187.4,220-187.8,220.4-188.4,220.4z"/>
		</g>
		<g>
			<g>
				<path class="st7" d="M-194.4,192.8h-15.2c-0.4,0-0.8-0.3-0.8-0.8s0.3-0.8,0.8-0.8h15.2c0.4,0,0.8,0.3,0.8,0.8
					S-194,192.8-194.4,192.8z"/>
			</g>
			<g>
				<path class="st7" d="M-194.4,196.9h-15.2c-0.4,0-0.8-0.3-0.8-0.8s0.3-0.8,0.8-0.8h15.2c0.4,0,0.8,0.3,0.8,0.8
					S-194,196.9-194.4,196.9z"/>
			</g>
			<g>
				<path class="st7" d="M-199.4,200.9h-10.2c-0.4,0-0.8-0.3-0.8-0.8s0.3-0.8,0.8-0.8h10.2c0.4,0,0.8,0.3,0.8,0.8
					S-199,200.9-199.4,200.9z"/>
			</g>
			<g>
				<path class="st7" d="M-200.3,205h-9.3c-0.4,0-0.8-0.3-0.8-0.8s0.3-0.8,0.8-0.8h9.3c0.4,0,0.8,0.3,0.8,0.8S-199.9,205-200.3,205z
					"/>
			</g>
			<g>
				<path class="st7" d="M-198.7,209h-10.9c-0.4,0-0.8-0.3-0.8-0.8s0.3-0.8,0.8-0.8h10.9c0.4,0,0.8,0.3,0.8,0.8
					S-198.3,209-198.7,209z"/>
			</g>
			<g>
				<path class="st7" d="M-194.4,213.1h-15.2c-0.4,0-0.8-0.3-0.8-0.8s0.3-0.8,0.8-0.8h15.2c0.4,0,0.8,0.3,0.8,0.8
					S-194,213.1-194.4,213.1z"/>
			</g>
		</g>
		<g>
			<path class="st7" d="M-192.8,208.8c-2.4,0-4.5-1.7-5.1-4.1c-0.3-1.3,0-2.7,0.7-3.9c0.8-1.2,1.9-1.9,3.3-2.2
				c2.8-0.6,5.5,1.2,6.1,4c0.3,1.3,0,2.7-0.7,3.9c-0.8,1.2-1.9,1.9-3.3,2.2C-192.1,208.7-192.4,208.8-192.8,208.8z M-192.8,199.5
				c-0.3,0-0.6,0-0.8,0.1c-1.1,0.2-2,0.9-2.6,1.8s-0.8,2-0.6,3.1c0.5,2.2,2.7,3.7,4.9,3.2c1.1-0.2,2-0.9,2.6-1.8s0.8-2,0.6-3.1
				C-189.1,200.8-190.8,199.5-192.8,199.5z"/>
		</g>
		<g>
			<path class="st7" d="M-192.8,208.8c-2.4,0-4.5-1.7-5.1-4.1c-0.3-1.3,0-2.7,0.7-3.9c0.8-1.2,1.9-1.9,3.3-2.2
				c2.8-0.6,5.5,1.2,6.1,4c0.3,1.3,0,2.7-0.7,3.9c-0.8,1.2-1.9,1.9-3.3,2.2C-192.1,208.7-192.4,208.8-192.8,208.8z M-192.8,199.5
				c-0.3,0-0.6,0-0.8,0.1c-1.1,0.2-2,0.9-2.6,1.8s-0.8,2-0.6,3.1c0.5,2.2,2.7,3.7,4.9,3.2c1.1-0.2,2-0.9,2.6-1.8s0.8-2,0.6-3.1
				C-189.1,200.8-190.8,199.5-192.8,199.5z"/>
		</g>
		<g>
			<path class="st7" d="M-185.4,212.4c-0.1,0-0.3-0.1-0.4-0.2l-4.3-4.8c-0.2-0.2-0.2-0.5,0-0.7s0.5-0.2,0.7,0l4.3,4.8
				c0.2,0.2,0.2,0.5,0,0.7C-185.1,212.4-185.2,212.4-185.4,212.4z"/>
		</g>
	</g>
	<rect x="-109.3" y="-109.3" class="st22" width="54.6" height="68.8"/>
	<g>
		<line class="st15" x1="-103.1" y1="-101.8" x2="-72.7" y2="-101.8"/>
		<line class="st15" x1="-103.1" y1="-94.3" x2="-72.7" y2="-94.3"/>
		<line class="st15" x1="-103.1" y1="-86.8" x2="-79.7" y2="-86.8"/>
		<line class="st15" x1="-103.1" y1="-79.3" x2="-82.7" y2="-79.3"/>
		<line class="st15" x1="-103.1" y1="-71.8" x2="-82.7" y2="-71.8"/>
		<line class="st15" x1="-103.1" y1="-64.3" x2="-79.7" y2="-64.3"/>
	</g>
	<polyline class="st13" points="-60.6,-59.4 -60.6,-46.4 -115.2,-46.4 -115.2,-115.2 -60.6,-115.2 -60.6,-92.5 	"/>
	<rect x="-109.3" y="6.9" class="st12" width="54.6" height="68.8"/>
	<polyline class="st13" points="-60.6,56.8 -60.6,69.8 -115.2,69.8 -115.2,1 -60.6,1 -60.6,56.8 	"/>
	<g>
		<polyline class="st13" points="-72.4,-74.2 -68.7,-69.6 -62.1,-80.7 		"/>
		<path class="st13" d="M-54.4-75.8c0,6.7-5.5,12.2-12.2,12.2s-12.2-5.5-12.2-12.2S-73.3-88-66.6-88C-59.9-88-54.4-82.6-54.4-75.8z"
			/>
	</g>
	<g>
		<g class="st16">
			<rect x="6.9" y="-109.3" class="st3" width="54.6" height="68.8"/>
		</g>
		<g>
			<g>
				<path class="st7" d="M43.5-101H13.1c-0.4,0-0.8-0.3-0.8-0.8s0.3-0.8,0.8-0.8h30.4c0.4,0,0.8,0.3,0.8,0.8S43.9-101,43.5-101z"/>
			</g>
			<g>
				<path class="st7" d="M43.5-93.5H13.1c-0.4,0-0.8-0.3-0.8-0.8s0.3-0.8,0.8-0.8h30.4c0.4,0,0.8,0.3,0.8,0.8S43.9-93.5,43.5-93.5z"
					/>
			</g>
			<g>
				<path class="st7" d="M36.5-86H13.1c-0.4,0-0.8-0.3-0.8-0.8s0.3-0.8,0.8-0.8h23.4c0.4,0,0.8,0.3,0.8,0.8S36.9-86,36.5-86z"/>
			</g>
			<g>
				<path class="st7" d="M33.5-78.5H13.1c-0.4,0-0.8-0.3-0.8-0.8s0.3-0.8,0.8-0.8h20.4c0.4,0,0.8,0.3,0.8,0.8S33.9-78.5,33.5-78.5z"
					/>
			</g>
			<g>
				<path class="st7" d="M33.5-71.1H13.1c-0.4,0-0.8-0.3-0.8-0.8s0.3-0.8,0.8-0.8h20.4c0.4,0,0.8,0.3,0.8,0.8S33.9-71.1,33.5-71.1z"
					/>
			</g>
			<g>
				<path class="st7" d="M36.5-63.6H13.1c-0.4,0-0.8-0.3-0.8-0.8s0.3-0.8,0.8-0.8h23.4c0.4,0,0.8,0.3,0.8,0.8S36.9-63.6,36.5-63.6z"
					/>
			</g>
		</g>
		<g>
			<path class="st7" d="M55.6-45.4H1c-0.6,0-1-0.4-1-1v-68.8c0-0.6,0.4-1,1-1h54.6c0.6,0,1,0.4,1,1v22.7c0,0.6-0.4,1-1,1s-1-0.4-1-1
				v-21.7H2v66.8h52.6v-12c0-0.6,0.4-1,1-1s1,0.4,1,1v13C56.6-45.9,56.2-45.4,55.6-45.4z"/>
		</g>
		<g>
			<g>
				<path class="st7" d="M47.5-68.6c-0.3,0-0.6-0.1-0.8-0.4L43-73.6c-0.3-0.4-0.3-1.1,0.2-1.4c0.4-0.3,1.1-0.3,1.4,0.2l2.8,3.5
					l5.8-9.9c0.3-0.5,0.9-0.6,1.4-0.4c0.5,0.3,0.6,0.9,0.4,1.4L48.5-69C48.2-68.8,47.9-68.6,47.5-68.6
					C47.6-68.6,47.6-68.6,47.5-68.6z"/>
			</g>
			<g>
				<path class="st7" d="M49.6-62.6c-7.3,0-13.2-5.9-13.2-13.2S42.3-89,49.6-89c7.3,0,13.2,5.9,13.2,13.2
					C62.8-68.5,56.9-62.6,49.6-62.6z M49.6-87c-6.2,0-11.2,5-11.2,11.2c0,6.2,5,11.2,11.2,11.2s11.2-5,11.2-11.2S55.8-87,49.6-87z"
					/>
			</g>
		</g>
	</g>
	<g>
		<line class="st9" x1="-94.6" y1="14.4" x2="-70.1" y2="14.4"/>
		<circle class="st9" cx="-102.8" cy="14.4" r="2.9"/>
	</g>
	<g>
		<line class="st9" x1="-94.6" y1="25.8" x2="-70.1" y2="25.8"/>
		<circle class="st9" cx="-102.8" cy="25.8" r="2.9"/>
	</g>
	<g>
		<line class="st9" x1="-94.6" y1="37.1" x2="-70.1" y2="37.1"/>
		<circle class="st9" cx="-102.8" cy="37.1" r="2.9"/>
	</g>
	<g>
		<line class="st9" x1="-94.6" y1="48.5" x2="-70.1" y2="48.5"/>
		<circle class="st9" cx="-102.8" cy="48.5" r="2.9"/>
	</g>
	<g>
		<g class="st17">
			<rect x="6.9" y="6.9" class="st23" width="54.6" height="68.8"/>
		</g>
		<g>
			<path class="st23" d="M55.6,70.8H1c-0.6,0-1-0.4-1-1V1c0-0.6,0.4-1,1-1h54.6c0.6,0,1,0.4,1,1v68.8C56.6,70.3,56.2,70.8,55.6,70.8
				z M2,68.8h52.6V2H2L2,68.8L2,68.8z"/>
		</g>
		<g>
			<g>
				<path class="st23" d="M46.1,15.1H21.6c-0.4,0-0.7-0.3-0.7-0.7s0.3-0.7,0.7-0.7h24.5c0.4,0,0.7,0.3,0.7,0.7S46.5,15.1,46.1,15.1z
					"/>
			</g>
			<g>
				<path class="st23" d="M13.4,18c-2,0-3.6-1.6-3.6-3.6s1.6-3.6,3.6-3.6s3.6,1.6,3.6,3.6C17,16.4,15.4,18,13.4,18z M13.4,12.2
					c-1.2,0-2.2,1-2.2,2.2s1,2.2,2.2,2.2s2.2-1,2.2-2.2S14.6,12.2,13.4,12.2z"/>
			</g>
		</g>
		<g>
			<g>
				<path class="st23" d="M46.1,26.5H21.6c-0.4,0-0.7-0.3-0.7-0.7s0.3-0.7,0.7-0.7h24.5c0.4,0,0.7,0.3,0.7,0.7S46.5,26.5,46.1,26.5z
					"/>
			</g>
			<g>
				<path class="st23" d="M13.4,29.3c-2,0-3.6-1.6-3.6-3.6s1.6-3.6,3.6-3.6s3.6,1.6,3.6,3.6S15.4,29.3,13.4,29.3z M13.4,23.6
					c-1.2,0-2.2,1-2.2,2.2s1,2.2,2.2,2.2s2.2-1,2.2-2.2S14.6,23.6,13.4,23.6z"/>
			</g>
		</g>
		<g>
			<g>
				<path class="st23" d="M46.1,37.8H21.6c-0.4,0-0.7-0.3-0.7-0.7s0.3-0.7,0.7-0.7h24.5c0.4,0,0.7,0.3,0.7,0.7S46.5,37.8,46.1,37.8z
					"/>
			</g>
			<g>
				<path class="st23" d="M13.4,40.7c-2,0-3.6-1.6-3.6-3.6s1.6-3.6,3.6-3.6s3.6,1.6,3.6,3.6S15.4,40.7,13.4,40.7z M13.4,34.9
					c-1.2,0-2.2,1-2.2,2.2s1,2.2,2.2,2.2s2.2-1,2.2-2.2S14.6,34.9,13.4,34.9z"/>
			</g>
		</g>
		<g>
			<g>
				<path class="st23" d="M46.1,49.1H21.6c-0.4,0-0.7-0.3-0.7-0.7s0.3-0.7,0.7-0.7h24.5c0.4,0,0.7,0.3,0.7,0.7S46.5,49.1,46.1,49.1z
					"/>
			</g>
			<g>
				<path class="st23" d="M13.4,52c-2,0-3.6-1.6-3.6-3.6s1.6-3.6,3.6-3.6s3.6,1.6,3.6,3.6S15.4,52,13.4,52z M13.4,46.2
					c-1.2,0-2.2,1-2.2,2.2s1,2.2,2.2,2.2s2.2-1,2.2-2.2S14.6,46.2,13.4,46.2z"/>
			</g>
		</g>
	</g>
	<path class="st24" d="M163,10.4h20.2c2.8,0,5,2.2,5,5V64c0,2.8-2.2,5-5,5H125c-2.8,0-5-2.2-5-5V15.4c0-2.8,2.2-5,5-5h20.2"/>
	<path class="st24" d="M163,10.4h20.2c2.8,0,5,2.2,5,5V64c0,2.8-2.2,5-5,5H125c-2.8,0-5-2.2-5-5V15.4c0-2.8,2.2-5,5-5h20.2"/>
	<line class="st24" x1="148.8" y1="10.4" x2="159.3" y2="10.4"/>
	<g>
		<rect x="129" y="21.8" class="st9" width="7.6" height="7.6"/>
		<rect x="143.2" y="21.8" class="st9" width="7.6" height="7.6"/>
		<rect x="157.4" y="21.8" class="st9" width="7.6" height="7.6"/>
		<rect x="171.5" y="21.8" class="st9" width="7.6" height="7.6"/>
	</g>
	<g>
		<rect x="129" y="35.9" class="st9" width="7.6" height="7.6"/>
		<rect x="143.2" y="35.9" class="st9" width="7.6" height="7.6"/>
		<rect x="157.4" y="35.9" class="st9" width="7.6" height="7.6"/>
		<rect x="171.5" y="35.9" class="st9" width="7.6" height="7.6"/>
	</g>
	<g>
		<rect x="129" y="50.1" class="st9" width="7.6" height="7.6"/>
		<rect x="143.2" y="50.1" class="st9" width="7.6" height="7.6"/>
		<rect x="157.4" y="50.1" class="st9" width="7.6" height="7.6"/>
		<rect x="171.5" y="50.1" class="st9" width="7.6" height="7.6"/>
	</g>
	<path class="st24" d="M147,5.2L147,5.2c-1,0-1.8,0.8-1.8,1.8v6.7c0,1,0.8,1.8,1.8,1.8l0,0c1,0,1.8-0.8,1.8-1.8V7
		C148.8,6,148,5.2,147,5.2z"/>
	<path class="st24" d="M161.1,5.2L161.1,5.2c-1,0-1.8,0.8-1.8,1.8v6.7c0,1,0.8,1.8,1.8,1.8l0,0c1,0,1.8-0.8,1.8-1.8V7
		C163,6,162.2,5.2,161.1,5.2z"/>
	<g>
		<g class="st16">
			<path class="st0" d="M284.9,16.1h20.2c2.8,0,5,2.2,5,5v48.6c0,2.8-2.2,5-5,5h-58.2c-2.8,0-5-2.2-5-5V21.1c0-2.8,2.2-5,5-5h20.2"
				/>
		</g>
		<g>
			<path class="st7" d="M299.4,70h-58.2c-3.3,0-6-2.7-6-6V15.4c0-3.3,2.7-6,6-6h20.2c0.5,0,1,0.4,1,1s-0.4,1-1,1h-20.2
				c-2.2,0-4,1.8-4,4V64c0,2.2,1.8,4,4,4h58.2c2.2,0,4-1.8,4-4V15.4c0-2.2-1.8-4-4-4h-20.2c-0.5,0-1-0.4-1-1s0.4-1,1-1h20.2
				c3.3,0,6,2.7,6,6V64C305.4,67.3,302.7,70,299.4,70z"/>
		</g>
		<g>
			<path class="st7" d="M299.4,70h-58.2c-3.3,0-6-2.7-6-6V15.4c0-3.3,2.7-6,6-6h20.2c0.5,0,1,0.4,1,1s-0.4,1-1,1h-20.2
				c-2.2,0-4,1.8-4,4V64c0,2.2,1.8,4,4,4h58.2c2.2,0,4-1.8,4-4V15.4c0-2.2-1.8-4-4-4h-20.2c-0.5,0-1-0.4-1-1s0.4-1,1-1h20.2
				c3.3,0,6,2.7,6,6V64C305.4,67.3,302.7,70,299.4,70z"/>
		</g>
		<g>
			<path class="st7" d="M275.5,11.4H265c-0.5,0-1-0.4-1-1s0.4-1,1-1h10.5c0.5,0,1,0.4,1,1S276.1,11.4,275.5,11.4z"/>
		</g>
		<g>
			<g>
				<path class="st7" d="M252.8,29.8h-7.6c-0.3,0-0.5-0.2-0.5-0.5v-7.6c0-0.3,0.2-0.5,0.5-0.5h7.6c0.3,0,0.5,0.2,0.5,0.5v7.6
					C253.3,29.6,253.1,29.8,252.8,29.8z M245.7,28.8h6.6v-6.6h-6.6V28.8z"/>
			</g>
			<g>
				<path class="st7" d="M267,29.8h-7.6c-0.3,0-0.5-0.2-0.5-0.5v-7.6c0-0.3,0.2-0.5,0.5-0.5h7.6c0.3,0,0.5,0.2,0.5,0.5v7.6
					C267.5,29.6,267.3,29.8,267,29.8z M259.9,28.8h6.6v-6.6h-6.6V28.8z"/>
			</g>
			<g>
				<path class="st7" d="M281.2,29.8h-7.6c-0.3,0-0.5-0.2-0.5-0.5v-7.6c0-0.3,0.2-0.5,0.5-0.5h7.6c0.3,0,0.5,0.2,0.5,0.5v7.6
					C281.7,29.6,281.4,29.8,281.2,29.8z M274.1,28.8h6.6v-6.6h-6.6V28.8z"/>
			</g>
			<g>
				<path class="st7" d="M295.3,29.8h-7.6c-0.3,0-0.5-0.2-0.5-0.5v-7.6c0-0.3,0.2-0.5,0.5-0.5h7.6c0.3,0,0.5,0.2,0.5,0.5v7.6
					C295.8,29.6,295.6,29.8,295.3,29.8z M288.2,28.8h6.6v-6.6h-6.6V28.8z"/>
			</g>
		</g>
		<g>
			<g>
				<path class="st7" d="M252.8,44h-7.6c-0.3,0-0.5-0.2-0.5-0.5v-7.6c0-0.3,0.2-0.5,0.5-0.5h7.6c0.3,0,0.5,0.2,0.5,0.5v7.6
					C253.3,43.8,253.1,44,252.8,44z M245.7,43h6.6v-6.6h-6.6V43z"/>
			</g>
			<g>
				<path class="st7" d="M267,44h-7.6c-0.3,0-0.5-0.2-0.5-0.5v-7.6c0-0.3,0.2-0.5,0.5-0.5h7.6c0.3,0,0.5,0.2,0.5,0.5v7.6
					C267.5,43.8,267.3,44,267,44z M259.9,43h6.6v-6.6h-6.6V43z"/>
			</g>
			<g>
				<path class="st7" d="M281.2,44h-7.6c-0.3,0-0.5-0.2-0.5-0.5v-7.6c0-0.3,0.2-0.5,0.5-0.5h7.6c0.3,0,0.5,0.2,0.5,0.5v7.6
					C281.7,43.8,281.4,44,281.2,44z M274.1,43h6.6v-6.6h-6.6V43z"/>
			</g>
			<g>
				<path class="st7" d="M295.3,44h-7.6c-0.3,0-0.5-0.2-0.5-0.5v-7.6c0-0.3,0.2-0.5,0.5-0.5h7.6c0.3,0,0.5,0.2,0.5,0.5v7.6
					C295.8,43.8,295.6,44,295.3,44z M288.2,43h6.6v-6.6h-6.6V43z"/>
			</g>
		</g>
		<g>
			<g>
				<path class="st7" d="M252.8,58.2h-7.6c-0.3,0-0.5-0.2-0.5-0.5v-7.6c0-0.3,0.2-0.5,0.5-0.5h7.6c0.3,0,0.5,0.2,0.5,0.5v7.6
					C253.3,58,253.1,58.2,252.8,58.2z M245.7,57.2h6.6v-6.6h-6.6V57.2z"/>
			</g>
			<g>
				<path class="st7" d="M267,58.2h-7.6c-0.3,0-0.5-0.2-0.5-0.5v-7.6c0-0.3,0.2-0.5,0.5-0.5h7.6c0.3,0,0.5,0.2,0.5,0.5v7.6
					C267.5,58,267.3,58.2,267,58.2z M259.9,57.2h6.6v-6.6h-6.6V57.2z"/>
			</g>
			<g>
				<path class="st7" d="M281.2,58.2h-7.6c-0.3,0-0.5-0.2-0.5-0.5v-7.6c0-0.3,0.2-0.5,0.5-0.5h7.6c0.3,0,0.5,0.2,0.5,0.5v7.6
					C281.7,58,281.4,58.2,281.2,58.2z M274.1,57.2h6.6v-6.6h-6.6V57.2z"/>
			</g>
			<g>
				<path class="st7" d="M295.3,58.2h-7.6c-0.3,0-0.5-0.2-0.5-0.5v-7.6c0-0.3,0.2-0.5,0.5-0.5h7.6c0.3,0,0.5,0.2,0.5,0.5v7.6
					C295.8,58,295.6,58.2,295.3,58.2z M288.2,57.2h6.6v-6.6h-6.6V57.2z"/>
			</g>
		</g>
		<g>
			<path class="st7" d="M263.2,16.6c-1.5,0-2.8-1.3-2.8-2.8V7.1c0-1.5,1.3-2.8,2.8-2.8s2.8,1.3,2.8,2.8v6.7
				C266,15.3,264.7,16.6,263.2,16.6z M263.2,6.2c-0.5,0-0.9,0.4-0.9,0.9v6.7c0,0.5,0.4,0.9,0.9,0.9s0.9-0.4,0.9-0.9V7.1
				C264.1,6.6,263.7,6.2,263.2,6.2z"/>
		</g>
		<g>
			<path class="st7" d="M277.4,16.6c-1.5,0-2.8-1.3-2.8-2.8V7.1c0-1.5,1.3-2.8,2.8-2.8s2.8,1.3,2.8,2.8v6.7
				C280.2,15.3,278.9,16.6,277.4,16.6z M277.4,6.2c-0.5,0-0.9,0.4-0.9,0.9v6.7c0,0.5,0.4,0.9,0.9,0.9s0.9-0.4,0.9-0.9V7.1
				C278.2,6.6,277.8,6.2,277.4,6.2z"/>
		</g>
	</g>
	<g>
		<path class="st22" d="M181.9-81.5L181.9-81.5c0.8-2.5,1.2-5.2,1.2-8c0-14.7-11.9-26.7-26.7-26.7c-14.7,0-26.7,11.9-26.7,26.7
			c0,2.8,0.4,5.5,1.2,8l0,0l0,0c0.3,1,0.7,2,1.1,3l10.4,27.2h27.9l10.4-27.2C181.2-79.4,181.5-80.5,181.9-81.5L181.9-81.5z"/>
		<path class="st13" d="M176.2-87.2L176.2-87.2c0.8-2.5,1.2-5.2,1.2-8c0-14.7-11.9-26.7-26.7-26.7S124-110,124-95.2
			c0,2.8,0.4,5.5,1.2,8l0,0l0,0c0.3,1,0.7,2,1.1,3L136.7-57h27.8l10.4-27.2C175.5-85.1,175.9-86.1,176.2-87.2L176.2-87.2z"/>
		<line class="st13" x1="136.9" y1="-52" x2="164.7" y2="-52"/>
		<line class="st13" x1="139.3" y1="-46.8" x2="162.2" y2="-46.8"/>
		<line class="st13" x1="141.8" y1="-41.7" x2="159.7" y2="-41.7"/>
		<polyline class="st13" points="146.7,-56.9 141.8,-75.5 159.7,-75.5 154.8,-56.9 		"/>
		<line class="st13" x1="144.2" y1="-79.2" x2="157.3" y2="-79.2"/>
		<line class="st13" x1="146.7" y1="-82.9" x2="154.8" y2="-82.9"/>
	</g>
	<path class="st13" d="M130.3-94.7c0-11.3,9.2-20.4,20.4-20.4"/>
	<g>
		<g class="st16">
			<path class="st3" d="M298.1-81.5L298.1-81.5c0.8-2.5,1.2-5.2,1.2-8c0-14.7-11.9-26.7-26.7-26.7s-26.7,11.9-26.7,26.7
				c0,2.8,0.4,5.5,1.2,8l0,0l0,0c0.3,1,0.7,2,1.1,3l10.4,27.2h27.8l10.4-27.2C297.4-79.4,297.8-80.5,298.1-81.5L298.1-81.5z"/>
		</g>
		<g>
			<path class="st7" d="M280.9-55.9h-27.8c-0.4,0-0.8-0.3-0.9-0.6l-10.4-27.2c-0.4-1-0.8-2-1.2-3.1c-0.8-2.7-1.3-5.5-1.3-8.3
				c0-15.2,12.4-27.7,27.7-27.7s27.7,12.4,27.7,27.7c0,2.8-0.4,5.6-1.3,8.3l0,0c-0.3,1.1-0.7,2.1-1.2,3.1l-10.4,27.2
				C281.7-56.2,281.3-55.9,280.9-55.9z M253.8-57.9h26.4l10.1-26.6c0.4-1,0.8-2,1.1-3l0,0c0.8-2.5,1.2-5,1.2-7.7
				c0-14.1-11.5-25.7-25.7-25.7c-14.1,0-25.7,11.5-25.7,25.7c0,2.6,0.4,5.2,1.2,7.7c0.3,1,0.7,2,1.1,2.9L253.8-57.9z M292.4-87.2
				L292.4-87.2L292.4-87.2z"/>
		</g>
		<g>
			<path class="st7" d="M280.9-51h-27.8c-0.6,0-1-0.4-1-1s0.4-1,1-1h27.8c0.6,0,1,0.4,1,1S281.4-51,280.9-51z"/>
		</g>
		<g>
			<path class="st7" d="M278.4-45.8h-22.9c-0.6,0-1-0.4-1-1s0.4-1,1-1h22.9c0.6,0,1,0.4,1,1S279-45.8,278.4-45.8z"/>
		</g>
		<g>
			<path class="st7" d="M276-40.7h-18c-0.6,0-1-0.4-1-1s0.4-1,1-1h18c0.6,0,1,0.4,1,1S276.5-40.7,276-40.7z"/>
		</g>
		<g>
			<path class="st7" d="M271-55.9c-0.1,0-0.2,0-0.3,0c-0.5-0.1-0.9-0.7-0.7-1.2l4.6-17.3h-15.3l4.6,17.3c0.1,0.5-0.2,1.1-0.7,1.2
				c-0.5,0.1-1.1-0.2-1.2-0.7l-4.9-18.6c-0.1-0.3,0-0.6,0.2-0.9c0.2-0.2,0.5-0.4,0.8-0.4h18c0.3,0,0.6,0.1,0.8,0.4
				c0.2,0.2,0.3,0.6,0.2,0.9l-4.9,18.6C271.9-56.2,271.5-55.9,271-55.9z"/>
		</g>
		<g>
			<path class="st7" d="M273.5-78.2h-13c-0.6,0-1-0.4-1-1s0.4-1,1-1h13c0.6,0,1,0.4,1,1S274.1-78.2,273.5-78.2z"/>
		</g>
		<g>
			<path class="st7" d="M271-81.9h-8.1c-0.6,0-1-0.4-1-1s0.4-1,1-1h8.1c0.6,0,1,0.4,1,1S271.6-81.9,271-81.9z"/>
		</g>
	</g>
	<g>
		<path class="st7" d="M246.5-93.7c-0.6,0-1-0.4-1-1c0-11.8,9.6-21.4,21.4-21.4c0.6,0,1,0.4,1,1s-0.4,1-1,1
			c-10.7,0-19.4,8.7-19.4,19.4C247.5-94.1,247.1-93.7,246.5-93.7z"/>
	</g>
</g>
</svg>
