<?xml version="1.0" encoding="utf-8"?>
<!-- Generator: Adobe Illustrator 23.0.1, SVG Export Plug-In . SVG Version: 6.00 Build 0)  -->
<svg version="1.1" id="Capa_1" xmlns="http://www.w3.org/2000/svg" xmlns:xlink="http://www.w3.org/1999/xlink" x="0px" y="0px" viewBox="0 0 138.9 130.6" style="enable-background:new 0 0 138.9 130.6;" xml:space="preserve">
    <style type="text/css">

    .st0 {
        opacity: 0.25;
        fill: #81BCBF;
    }

    .st1 {
        fill: none;
        stroke: #292929;
        stroke-width: 1.9456;
        stroke-linecap: round;
        stroke-linejoin: round;
        stroke-miterlimit: 10;
        stroke-width: 3;
    }

    .st2 {
        fill: none;
        stroke: #292929;
        stroke-linecap: round;
        stroke-linejoin: round;
        stroke-miterlimit: 10;
        stroke-width: 2;
    }


    .st1,
    .st2 {
        stroke-dasharray: 500;
        stroke-dashoffset: 500;
        animation: dash 2s linear;
        animation-fill-mode: forwards;
    }

    @keyframes dash {
        from {
            stroke-dashoffset: 500;
        }

        to {
            stroke-dashoffset: 0;
        }
    }

    .st1 {
        
    }

    .st0 {
        opacity: 0;
        animation: opa 0.25s linear;
        animation-fill-mode: forwards;
    }

    @keyframes opa {
        from {
            opacity: 0;
        }

        to {
            opacity: 0.25;
        }
    }


    </style>
    <path style="animation-delay: 2.5s;" class="st0" d="M91.8,21.3h37.7c5.2,0,9.3,4.2,9.3,9.3v90.7c0,5.2-4.2,9.3-9.3,9.3H20.9c-5.2,0-9.3-4.2-9.3-9.3V30.6
  c0-5.2,4.2-9.3,9.3-9.3h37.7" />
    <path style="animation-delay: 0.5s;" class="st1" d="M81.3,10.7H119c5.2,0,9.3,4.2,9.3,9.3v90.7c0,5.2-4.2,9.3-9.3,9.3H10.3c-5.2,0-9.3-4.2-9.3-9.3V20
  c0-5.2,4.2-9.3,9.3-9.3H48" />
    <path style="animation-delay: 0.75s;" class="st1" d="M81.3,10.7H119c5.2,0,9.3,4.2,9.3,9.3v90.7c0,5.2-4.2,9.3-9.3,9.3H10.3c-5.2,0-9.3-4.2-9.3-9.3V20
  c0-5.2,4.2-9.3,9.3-9.3H48" />
    <line style="animation-delay: 1s;" class="st1" x1="54.8" y1="10.7" x2="74.4" y2="10.7" />
    <rect style="animation-delay: 1.1s;" x="17.9" y="31.8" class="st2" width="14.1" height="14.1" />
    <rect style="animation-delay: 1.2s;" x="44.3" y="31.8" class="st2" width="14.1" height="14.1" />
    <rect style="animation-delay: 1.3s;" x="70.8" y="31.8" class="st2" width="14.1" height="14.1" />
    <rect style="animation-delay: 1.4s;" x="97.2" y="31.8" class="st2" width="14.1" height="14.1" />
    <rect style="animation-delay: 1.5s;" x="17.9" y="58.3" class="st2" width="14.1" height="14.1" />
    <rect style="animation-delay: 1.6s;" x="44.3" y="58.3" class="st2" width="14.1" height="14.1" />
    <rect style="animation-delay: 1.7s;" x="70.8" y="58.3" class="st2" width="14.1" height="14.1" />
    <rect style="animation-delay: 1.8s;" x="97.2" y="58.3" class="st2" width="14.1" height="14.1" />
    <rect style="animation-delay: 1.9s;" x="17.9" y="84.7" class="st2" width="14.1" height="14.1" />
    <rect style="animation-delay: 2s;" x="44.3" y="84.7" class="st2" width="14.1" height="14.1" />
    <rect style="animation-delay: 2.1s;" x="70.8" y="84.7" class="st2" width="14.1" height="14.1" />
    <rect style="animation-delay: 2.2s;" x="97.2" y="84.7" class="st2" width="14.1" height="14.1" />
    <path style="animation-delay: 0.75s;" class="st1" d="M53,1h-3.2c-1,0-1.8,0.8-1.8,1.8v15.8c0,1,0.8,1.8,1.8,1.8H53c1,0,1.8-0.8,1.8-1.8V2.8C54.8,1.8,54,1,53,1z" />
    <path style="animation-delay:1.25s;" class="st1" d="M79.4,1h-3.2c-1,0-1.8,0.8-1.8,1.8v15.8c0,1,0.8,1.8,1.8,1.8h3.2c1,0,1.8-0.8,1.8-1.8V2.8
  C81.3,1.8,80.4,1,79.4,1z" />
</svg>