<?xml version="1.0" encoding="utf-8"?>
<!-- Generator: Adobe Illustrator 22.1.0, SVG Export Plug-In . SVG Version: 6.00 Build 0)  -->
<svg version="1.1" xmlns="http://www.w3.org/2000/svg" xmlns:xlink="http://www.w3.org/1999/xlink" x="0px" y="0px"
	 viewBox="0 0 32.3 39.4" style="enable-background:new 0 0 32.3 39.4;" xml:space="preserve">
<style type="text/css">
	.st0{fill:#81BCBF;}
	.st1{fill:#585799;}
	.st2{fill:url(#SVGID_1_);}
	.st3{fill:#B6CE8C;}
	.st4{fill:#508AA6;}
	.st5{fill:url(#SVGID_2_);}
	.st6{opacity:0.2;fill:#4E8AA7;}
	.st7{fill:#292929;}
	.st8{fill:none;stroke:#292929;stroke-width:2;stroke-linejoin:round;stroke-miterlimit:10;}
	.st9{fill:none;stroke:#292929;stroke-linecap:round;stroke-linejoin:round;stroke-miterlimit:10;}
	.st10{opacity:0.2;}
	.st11{fill:#4E8AA7;}
	.st12{opacity:0.5;fill:#81BCBF;}
	.st13{fill:none;stroke:#292929;stroke-width:2;stroke-linecap:round;stroke-linejoin:round;stroke-miterlimit:10;}
	.st14{fill:none;stroke:#292929;stroke-linejoin:round;stroke-miterlimit:10;}
	.st15{fill:none;stroke:#292929;stroke-width:1.5;stroke-linecap:round;stroke-linejoin:round;stroke-miterlimit:10;}
	.st16{opacity:0.25;}
	.st17{opacity:0.2;fill:#585799;}
	.st18{fill:none;stroke:#282828;stroke-linecap:round;stroke-linejoin:round;stroke-miterlimit:10;}
	.st19{fill:none;stroke:#282828;stroke-linejoin:round;stroke-miterlimit:10;}
	.st20{fill:#282828;}
	.st21{opacity:0.5;fill:#B6CE8C;}
	.st22{opacity:0.5;}
	.st23{fill:none;stroke:#292929;stroke-width:1.9456;stroke-linecap:round;stroke-linejoin:round;stroke-miterlimit:10;}
</style>
<g id="COLORES">
	<rect x="-168.1" y="-388.4" class="st0" width="36" height="36"/>
	<rect x="-168.1" y="-352.4" class="st1" width="36" height="36"/>
	<linearGradient id="SVGID_1_" gradientUnits="userSpaceOnUse" x1="-240.063" y1="-352.4175" x2="-168.063" y2="-352.4175">
		<stop  offset="0" style="stop-color:#81BCBF"/>
		<stop  offset="1" style="stop-color:#585799"/>
	</linearGradient>
	<rect x="-240.1" y="-388.4" class="st2" width="72" height="72"/>
	<rect x="-168.1" y="-310.4" class="st3" width="36" height="36"/>
	<rect x="-168.1" y="-274.4" class="st4" width="36" height="36"/>
	<linearGradient id="SVGID_2_" gradientUnits="userSpaceOnUse" x1="-240.063" y1="-274.4175" x2="-168.063" y2="-274.4175">
		<stop  offset="0" style="stop-color:#B6CE8C"/>
		<stop  offset="1" style="stop-color:#508AA6"/>
	</linearGradient>
	<rect x="-240.1" y="-310.4" class="st5" width="72" height="72"/>
	<g>
		<rect x="283.4" y="-52.1" class="st6" width="27.3" height="27.3"/>
		<g>
			<path class="st7" d="M286.9-38.7l0.7-0.8c1,0.9,2,1.4,3.4,1.4c1.3,0,2.2-0.7,2.2-1.7v0c0-0.9-0.5-1.5-2.6-1.9
				c-2.3-0.5-3.4-1.2-3.4-2.9v0c0-1.6,1.4-2.7,3.3-2.7c1.5,0,2.5,0.4,3.5,1.2l-0.7,0.9c-0.9-0.8-1.9-1.1-2.9-1.1
				c-1.3,0-2.1,0.7-2.1,1.6v0c0,0.9,0.5,1.5,2.7,1.9c2.2,0.5,3.3,1.3,3.3,2.8v0c0,1.7-1.4,2.8-3.4,2.8
				C289.4-37.1,288.1-37.6,286.9-38.7z"/>
			<path class="st7" d="M296.6-44.6h1.1v7.4h-1.1V-44.6z M298.1-47.8l1.1,0.5l-1.6,1.5h-0.9L298.1-47.8z"/>
		</g>
		<rect x="279.4" y="-56.1" class="st8" width="27.3" height="27.3"/>
	</g>
	<g>
		<rect x="362.3" y="-51.9" class="st6" width="27.3" height="27.3"/>
		<rect x="358.3" y="-55.9" class="st8" width="27.3" height="27.3"/>
		<polyline class="st9" points="362.3,-36.4 369.9,-48.1 367.5,-38.7 373.3,-42.9 371.7,-39 377.7,-42.2 376,-38.8 381.5,-41.1 		
			"/>
	</g>
	<g>
		<rect x="443.4" y="-51.9" class="st6" width="27.3" height="27.3"/>
		<rect x="439.4" y="-55.9" class="st8" width="27.3" height="27.3"/>
		<g>
			<polyline class="st9" points="449.4,-41.2 451.7,-38.2 455.9,-45.4 			"/>
			<path class="st9" d="M460.8-42.2c0,4.3-3.5,7.8-7.8,7.8c-4.3,0-7.8-3.5-7.8-7.8c0-4.3,3.5-7.8,7.8-7.8
				C457.3-50,460.8-46.5,460.8-42.2z"/>
		</g>
	</g>
	<g>
		<g class="st10">
			<rect x="283.4" y="7.4" class="st11" width="27.3" height="27.3"/>
		</g>
		<g>
			<g>
				<path class="st7" d="M286.9,20.8l0.7-0.8c1,0.9,2,1.4,3.4,1.4c1.3,0,2.2-0.7,2.2-1.7v0c0-0.9-0.5-1.5-2.6-1.9
					c-2.3-0.5-3.4-1.2-3.4-2.9v0c0-1.6,1.4-2.7,3.3-2.7c1.5,0,2.5,0.4,3.5,1.2l-0.7,0.9c-0.9-0.8-1.9-1.1-2.9-1.1
					c-1.3,0-2.1,0.7-2.1,1.6v0c0,0.9,0.5,1.5,2.7,1.9c2.2,0.5,3.3,1.3,3.3,2.8v0c0,1.7-1.4,2.8-3.4,2.8
					C289.4,22.4,288.1,21.9,286.9,20.8z"/>
			</g>
			<g>
				<path class="st7" d="M296.6,14.9h1.1v7.4h-1.1V14.9z M298.1,11.7l1.1,0.5l-1.6,1.5h-0.9L298.1,11.7z"/>
			</g>
		</g>
		<g>
			<path class="st7" d="M306.7,31.7h-27.3c-0.6,0-1-0.4-1-1V3.4c0-0.6,0.4-1,1-1h27.3c0.6,0,1,0.4,1,1v27.3
				C307.7,31.3,307.2,31.7,306.7,31.7z M280.4,29.7h25.3V4.4h-25.3V29.7z"/>
		</g>
	</g>
	<g>
		<g class="st10">
			<rect x="362.3" y="7.6" class="st11" width="27.3" height="27.3"/>
		</g>
		<g>
			<path class="st7" d="M385.6,31.9h-27.3c-0.6,0-1-0.4-1-1V3.6c0-0.6,0.4-1,1-1h27.3c0.6,0,1,0.4,1,1v27.3
				C386.6,31.5,386.1,31.9,385.6,31.9z M359.3,29.9h25.3V4.6h-25.3V29.9z"/>
		</g>
		<g>
			<path class="st7" d="M362.3,23.6c-0.1,0-0.2,0-0.3-0.1c-0.2-0.2-0.3-0.5-0.1-0.7l7.6-11.6c0.1-0.2,0.4-0.3,0.6-0.2
				c0.2,0.1,0.3,0.3,0.3,0.6l-2.1,8l4.7-3.4c0.2-0.1,0.4-0.1,0.6,0c0.2,0.1,0.2,0.4,0.2,0.6l-1.1,2.6l4.8-2.6
				c0.2-0.1,0.4-0.1,0.6,0.1c0.2,0.2,0.2,0.4,0.1,0.6l-1.1,2.2l4.3-1.7c0.3-0.1,0.5,0,0.7,0.3c0.1,0.3,0,0.5-0.3,0.7l-5.6,2.2
				c-0.2,0.1-0.4,0-0.6-0.1s-0.2-0.4-0.1-0.6l1-2l-4.7,2.5c-0.2,0.1-0.4,0.1-0.6-0.1c-0.2-0.1-0.2-0.4-0.1-0.6l0.9-2.2l-4.4,3.2
				c-0.2,0.1-0.4,0.1-0.6,0c-0.2-0.1-0.3-0.3-0.2-0.5l1.7-6.4l-6,9.1C362.6,23.5,362.5,23.6,362.3,23.6z"/>
		</g>
	</g>
	<g>
		<g class="st10">
			<rect x="443.4" y="7.6" class="st11" width="27.3" height="27.3"/>
		</g>
		<g>
			<path class="st7" d="M466.7,31.9h-27.3c-0.6,0-1-0.4-1-1V3.6c0-0.6,0.4-1,1-1h27.3c0.6,0,1,0.4,1,1v27.3
				C467.7,31.5,467.2,31.9,466.7,31.9z M440.4,29.9h25.3V4.6h-25.3V29.9z"/>
		</g>
		<g>
			<g>
				<path class="st7" d="M451.7,21.8c-0.2,0-0.3-0.1-0.4-0.2l-2.4-2.9c-0.2-0.2-0.1-0.5,0.1-0.7c0.2-0.2,0.5-0.1,0.7,0.1l1.9,2.4
					l3.8-6.5c0.1-0.2,0.4-0.3,0.7-0.2c0.2,0.1,0.3,0.4,0.2,0.7l-4.2,7.1C452.1,21.7,451.9,21.8,451.7,21.8
					C451.7,21.8,451.7,21.8,451.7,21.8z"/>
			</g>
			<g>
				<path class="st7" d="M453,25.6c-4.6,0-8.3-3.7-8.3-8.3S448.5,9,453,9c4.6,0,8.3,3.7,8.3,8.3S457.6,25.6,453,25.6z M453,10
					c-4,0-7.3,3.3-7.3,7.3s3.3,7.3,7.3,7.3c4,0,7.3-3.3,7.3-7.3S457,10,453,10z"/>
			</g>
		</g>
	</g>
</g>
<g id="Tratamiento_de_Datos">
	<path class="st12" d="M545.3-167.9h20.2c2.8,0,5,2.2,5,5v48.6c0,2.8-2.2,5-5,5h-58.2c-2.8,0-5-2.2-5-5v-48.6c0-2.8,2.2-5,5-5h20.2"
		/>
	<g>
		<rect x="-0.6" y="-292.6" class="st12" width="54.6" height="68.8"/>
		<polyline class="st13" points="48.1,-242.6 48.1,-229.7 -6.4,-229.7 -6.4,-298.4 48.1,-298.4 48.1,-275.7 		"/>
		<rect x="0.9" y="-291.1" class="st14" width="12.5" height="12.5"/>
		<line class="st9" x1="18.6" y1="-284.8" x2="36.6" y2="-284.8"/>
		<line class="st9" x1="18.6" y1="-280.4" x2="36.6" y2="-280.4"/>
		<line class="st15" x1="5.7" y1="-270" x2="36" y2="-270"/>
		<line class="st15" x1="5.7" y1="-262.6" x2="36" y2="-262.6"/>
		<line class="st15" x1="5.7" y1="-255.3" x2="30" y2="-255.3"/>
		<line class="st15" x1="5.7" y1="-247.9" x2="26" y2="-247.9"/>
		<line class="st15" x1="5.7" y1="-240.5" x2="25" y2="-240.5"/>
		<g>
			<polygon class="st8" points="49.4,-267.8 30.9,-249.3 29.4,-240.5 38.1,-242.1 56.6,-260.6 			"/>
			<line class="st8" x1="30.9" y1="-249.3" x2="38.1" y2="-242.1"/>
			<line class="st8" x1="53" y1="-264.2" x2="34.5" y2="-245.7"/>
			<polyline class="st8" points="49.4,-267.8 52.3,-270.7 59.5,-263.5 56.6,-260.6 			"/>
		</g>
	</g>
	<rect x="-0.6" y="-176.6" class="st12" width="54.6" height="68.8"/>
	<rect x="-6.4" y="-182.4" class="st13" width="54.6" height="68.8"/>
	<rect x="0.9" y="-175.1" class="st14" width="12.5" height="12.5"/>
	<line class="st9" x1="18.6" y1="-168.8" x2="36.6" y2="-168.8"/>
	<line class="st9" x1="18.6" y1="-164.4" x2="36.6" y2="-164.4"/>
	<line class="st15" x1="5.7" y1="-154" x2="36" y2="-154"/>
	<line class="st15" x1="5.7" y1="-146.6" x2="36" y2="-146.6"/>
	<line class="st15" x1="5.7" y1="-139.3" x2="36" y2="-139.3"/>
	<line class="st15" x1="5.7" y1="-131.9" x2="36" y2="-131.9"/>
	<line class="st15" x1="5.7" y1="-124.5" x2="36" y2="-124.5"/>
	<g>
		<g class="st16">
			<rect x="115.7" y="-176.6" class="st0" width="54.6" height="68.8"/>
		</g>
		<g>
			<path class="st7" d="M164.3-112.7h-54.6c-0.6,0-1-0.4-1-1v-68.8c0-0.6,0.4-1,1-1h54.6c0.6,0,1,0.4,1,1v68.8
				C165.3-113.1,164.9-112.7,164.3-112.7z M110.8-114.7h52.6v-66.8h-52.6V-114.7z"/>
		</g>
		<g>
			<path class="st7" d="M129.7-162.1h-12.5c-0.3,0-0.5-0.2-0.5-0.5v-12.5c0-0.3,0.2-0.5,0.5-0.5h12.5c0.3,0,0.5,0.2,0.5,0.5v12.5
				C130.2-162.3,129.9-162.1,129.7-162.1z M117.6-163.1h11.5v-11.5h-11.5V-163.1z"/>
		</g>
		<g>
			<path class="st7" d="M152.8-168.3h-18.1c-0.3,0-0.5-0.2-0.5-0.5s0.2-0.5,0.5-0.5h18.1c0.3,0,0.5,0.2,0.5,0.5
				S153.1-168.3,152.8-168.3z"/>
		</g>
		<g>
			<path class="st7" d="M152.8-163.9h-18.1c-0.3,0-0.5-0.2-0.5-0.5s0.2-0.5,0.5-0.5h18.1c0.3,0,0.5,0.2,0.5,0.5
				S153.1-163.9,152.8-163.9z"/>
		</g>
		<g>
			<path class="st7" d="M152.2-153.3h-30.4c-0.4,0-0.8-0.3-0.8-0.8s0.3-0.8,0.8-0.8h30.4c0.4,0,0.8,0.3,0.8,0.8
				S152.6-153.3,152.2-153.3z"/>
		</g>
		<g>
			<path class="st7" d="M152.2-145.9h-30.4c-0.4,0-0.8-0.3-0.8-0.8s0.3-0.8,0.8-0.8h30.4c0.4,0,0.8,0.3,0.8,0.8
				S152.6-145.9,152.2-145.9z"/>
		</g>
		<g>
			<path class="st7" d="M152.2-138.5h-30.4c-0.4,0-0.8-0.3-0.8-0.8s0.3-0.8,0.8-0.8h30.4c0.4,0,0.8,0.3,0.8,0.8
				S152.6-138.5,152.2-138.5z"/>
		</g>
		<g>
			<path class="st7" d="M152.2-131.2h-30.4c-0.4,0-0.8-0.3-0.8-0.8s0.3-0.8,0.8-0.8h30.4c0.4,0,0.8,0.3,0.8,0.8
				S152.6-131.2,152.2-131.2z"/>
		</g>
		<g>
			<path class="st7" d="M152.2-123.8h-30.4c-0.4,0-0.8-0.3-0.8-0.8s0.3-0.8,0.8-0.8h30.4c0.4,0,0.8,0.3,0.8,0.8
				S152.6-123.8,152.2-123.8z"/>
		</g>
	</g>
	<g>
		<g class="st16">
			<rect x="115.4" y="-292.6" class="st0" width="54.6" height="68.8"/>
		</g>
		<g>
			<path class="st7" d="M164.1-228.7h-54.6c-0.6,0-1-0.4-1-1v-68.8c0-0.6,0.4-1,1-1h54.6c0.6,0,1,0.4,1,1v22.7c0,0.6-0.4,1-1,1
				s-1-0.4-1-1v-21.7h-52.6v66.8h52.6v-11.9c0-0.6,0.4-1,1-1s1,0.4,1,1v12.9C165.1-229.1,164.7-228.7,164.1-228.7z"/>
		</g>
		<g>
			<path class="st7" d="M129.4-278.1h-12.5c-0.3,0-0.5-0.2-0.5-0.5v-12.5c0-0.3,0.2-0.5,0.5-0.5h12.5c0.3,0,0.5,0.2,0.5,0.5v12.5
				C129.9-278.3,129.7-278.1,129.4-278.1z M117.4-279.1h11.5v-11.5h-11.5V-279.1z"/>
		</g>
		<g>
			<path class="st7" d="M152.6-284.3h-18.1c-0.3,0-0.5-0.2-0.5-0.5s0.2-0.5,0.5-0.5h18.1c0.3,0,0.5,0.2,0.5,0.5
				S152.9-284.3,152.6-284.3z"/>
		</g>
		<g>
			<path class="st7" d="M152.6-279.9h-18.1c-0.3,0-0.5-0.2-0.5-0.5s0.2-0.5,0.5-0.5h18.1c0.3,0,0.5,0.2,0.5,0.5
				S152.9-279.9,152.6-279.9z"/>
		</g>
		<g>
			<path class="st7" d="M152-269.3h-30.4c-0.4,0-0.8-0.3-0.8-0.8s0.3-0.8,0.8-0.8H152c0.4,0,0.8,0.3,0.8,0.8S152.4-269.3,152-269.3z
				"/>
		</g>
		<g>
			<path class="st7" d="M152-261.9h-30.4c-0.4,0-0.8-0.3-0.8-0.8s0.3-0.8,0.8-0.8H152c0.4,0,0.8,0.3,0.8,0.8S152.4-261.9,152-261.9z
				"/>
		</g>
		<g>
			<path class="st7" d="M146-254.5h-24.4c-0.4,0-0.8-0.3-0.8-0.8s0.3-0.8,0.8-0.8H146c0.4,0,0.8,0.3,0.8,0.8S146.4-254.5,146-254.5z
				"/>
		</g>
		<g>
			<path class="st7" d="M142-247.2h-20.4c-0.4,0-0.8-0.3-0.8-0.8s0.3-0.8,0.8-0.8H142c0.4,0,0.8,0.3,0.8,0.8S142.4-247.2,142-247.2z
				"/>
		</g>
		<g>
			<path class="st7" d="M141-239.8h-19.4c-0.4,0-0.8-0.3-0.8-0.8s0.3-0.8,0.8-0.8H141c0.4,0,0.8,0.3,0.8,0.8S141.4-239.8,141-239.8z
				"/>
		</g>
		<g>
			<g>
				<path class="st7" d="M145.4-239.5c-0.3,0-0.5-0.1-0.7-0.3c-0.2-0.2-0.3-0.6-0.3-0.9l1.6-8.8c0-0.2,0.1-0.4,0.3-0.5l18.5-18.5
					c0.2-0.2,0.4-0.3,0.7-0.3l0,0c0.3,0,0.5,0.1,0.7,0.3l7.2,7.2c0.4,0.4,0.4,1,0,1.4l-18.5,18.5c-0.1,0.1-0.3,0.2-0.5,0.3l-8.8,1.6
					C145.5-239.5,145.4-239.5,145.4-239.5z M147.8-248.8l-1.3,7.1l7-1.3l17.6-17.6l-5.8-5.8L147.8-248.8z"/>
			</g>
			<g>
				
					<rect x="149.5" y="-250.8" transform="matrix(0.7072 -0.707 0.707 0.7072 217.7995 34.4696)" class="st7" width="2" height="10.2"/>
			</g>
			<g>
				
					<rect x="146.7" y="-256" transform="matrix(0.7071 -0.7071 0.7071 0.7071 227.079 38.2962)" class="st7" width="26.2" height="2"/>
			</g>
			<g>
				<path class="st7" d="M173.3-259.9l-1.4-1.4l2.1-2.1l-5.8-5.8l-2.1,2.1l-1.4-1.4l2.8-2.9c0.2-0.2,0.4-0.3,0.7-0.3l0,0
					c0.3,0,0.5,0.1,0.7,0.3l7.2,7.2c0.4,0.4,0.4,1,0,1.4L173.3-259.9z"/>
			</g>
		</g>
	</g>
	<g>
		<rect x="5" y="-54.5" class="st17" width="27.3" height="34.4"/>
		<rect x="1" y="-58.5" class="st8" width="27.3" height="34.4"/>
		<g>
			<line class="st15" x1="7.1" y1="-51.5" x2="22.2" y2="-51.5"/>
			<line class="st15" x1="7.1" y1="-47.4" x2="22.2" y2="-47.4"/>
			<line class="st15" x1="7.1" y1="-43.4" x2="22.2" y2="-43.4"/>
			<line class="st15" x1="7.1" y1="-39.3" x2="22.2" y2="-39.3"/>
			<line class="st15" x1="7.1" y1="-35.3" x2="22.2" y2="-35.3"/>
			<line class="st15" x1="7.1" y1="-31.2" x2="22.2" y2="-31.2"/>
		</g>
	</g>
	<g>
		<rect x="83.9" y="-54.5" class="st17" width="27.3" height="34.4"/>
		<polyline class="st13" points="107.2,-29.3 107.2,-24.1 79.9,-24.1 79.9,-58.5 107.2,-58.5 107.2,-47.3 		"/>
		<g>
			<line class="st15" x1="85.9" y1="-51.5" x2="101.1" y2="-51.5"/>
			<line class="st15" x1="85.9" y1="-47.4" x2="101.1" y2="-47.4"/>
			<line class="st15" x1="85.9" y1="-43.4" x2="101.1" y2="-43.4"/>
			<line class="st15" x1="85.9" y1="-39.3" x2="100.2" y2="-39.3"/>
			<line class="st15" x1="85.9" y1="-35.3" x2="96.8" y2="-35.3"/>
			<line class="st15" x1="85.9" y1="-31.2" x2="96.1" y2="-31.2"/>
		</g>
		<g>
			<polygon class="st18" points="108.6,-43.8 99.9,-35 99.2,-30.9 103.3,-31.6 112.1,-40.4 			"/>
			<line class="st18" x1="99.9" y1="-35" x2="103.3" y2="-31.6"/>
			<line class="st19" x1="110.3" y1="-42.1" x2="101.6" y2="-33.3"/>
			<polyline class="st18" points="108.6,-43.8 110,-45.1 113.4,-41.7 112.1,-40.4 			"/>
		</g>
	</g>
	<g>
		<rect x="165" y="-54.5" class="st17" width="27.3" height="34.4"/>
		<polyline class="st13" points="188.3,-29.3 188.3,-24.1 161,-24.1 161,-58.5 188.3,-58.5 188.3,-47.3 		"/>
		<g>
			<line class="st15" x1="167.1" y1="-51.5" x2="182.2" y2="-51.5"/>
			<line class="st15" x1="167.1" y1="-47.4" x2="182.2" y2="-47.4"/>
			<line class="st15" x1="167.1" y1="-43.4" x2="177.2" y2="-43.4"/>
			<line class="st15" x1="167.1" y1="-39.3" x2="176.3" y2="-39.3"/>
			<line class="st15" x1="167.1" y1="-35.3" x2="177.9" y2="-35.3"/>
			<line class="st15" x1="167.1" y1="-31.2" x2="182.2" y2="-31.2"/>
		</g>
		<path class="st9" d="M188.4-40.9c0.5,2.5-1.1,5-3.6,5.5c-2.5,0.5-5-1.1-5.5-3.6c-0.5-2.5,1.1-5,3.6-5.5
			C185.4-45,187.9-43.4,188.4-40.9z"/>
		<path class="st9" d="M188.4-40.9c0.5,2.5-1.1,5-3.6,5.5c-2.5,0.5-5-1.1-5.5-3.6c-0.5-2.5,1.1-5,3.6-5.5
			C185.4-45,187.9-43.4,188.4-40.9z"/>
		<line class="st9" x1="187" y1="-36.5" x2="191.3" y2="-31.6"/>
	</g>
	<g>
		<g class="st10">
			<rect x="5" y="5" class="st1" width="27.3" height="34.4"/>
		</g>
		<g>
			<path class="st7" d="M28.3,36.4H1c-0.6,0-1-0.4-1-1V1c0-0.6,0.4-1,1-1h27.3c0.6,0,1,0.4,1,1v34.4C29.3,35.9,28.8,36.4,28.3,36.4z
				 M2,34.4h25.3V2H2V34.4z"/>
		</g>
		<g>
			<g>
				<path class="st7" d="M22.2,8.8H7.1c-0.4,0-0.8-0.3-0.8-0.8s0.3-0.8,0.8-0.8h15.2c0.4,0,0.8,0.3,0.8,0.8S22.6,8.8,22.2,8.8z"/>
			</g>
			<g>
				<path class="st7" d="M22.2,12.9H7.1c-0.4,0-0.8-0.3-0.8-0.8s0.3-0.8,0.8-0.8h15.2c0.4,0,0.8,0.3,0.8,0.8S22.6,12.9,22.2,12.9z"
					/>
			</g>
			<g>
				<path class="st7" d="M22.2,16.9H7.1c-0.4,0-0.8-0.3-0.8-0.8s0.3-0.8,0.8-0.8h15.2c0.4,0,0.8,0.3,0.8,0.8S22.6,16.9,22.2,16.9z"
					/>
			</g>
			<g>
				<path class="st7" d="M22.2,21H7.1c-0.4,0-0.8-0.3-0.8-0.8s0.3-0.8,0.8-0.8h15.2c0.4,0,0.8,0.3,0.8,0.8S22.6,21,22.2,21z"/>
			</g>
			<g>
				<path class="st7" d="M22.2,25H7.1c-0.4,0-0.8-0.3-0.8-0.8s0.3-0.8,0.8-0.8h15.2c0.4,0,0.8,0.3,0.8,0.8S22.6,25,22.2,25z"/>
			</g>
			<g>
				<path class="st7" d="M22.2,29.1H7.1c-0.4,0-0.8-0.3-0.8-0.8s0.3-0.8,0.8-0.8h15.2c0.4,0,0.8,0.3,0.8,0.8S22.6,29.1,22.2,29.1z"
					/>
			</g>
		</g>
	</g>
	<g>
		<g class="st10">
			<rect x="83.9" y="5" class="st1" width="27.3" height="34.4"/>
		</g>
		<g>
			<path class="st7" d="M107.2,36.4H79.9c-0.6,0-1-0.4-1-1V1c0-0.6,0.4-1,1-1h27.3c0.6,0,1,0.4,1,1v11.3c0,0.6-0.4,1-1,1s-1-0.4-1-1
				V2H80.9v32.4h25.3v-4.1c0-0.6,0.4-1,1-1s1,0.4,1,1v5.1C108.2,35.9,107.7,36.4,107.2,36.4z"/>
		</g>
		<g>
			<g>
				<path class="st7" d="M101.1,8.8H85.9c-0.4,0-0.8-0.3-0.8-0.8s0.3-0.8,0.8-0.8h15.2c0.4,0,0.8,0.3,0.8,0.8S101.5,8.8,101.1,8.8z"
					/>
			</g>
			<g>
				<path class="st7" d="M101.1,12.9H85.9c-0.4,0-0.8-0.3-0.8-0.8s0.3-0.8,0.8-0.8h15.2c0.4,0,0.8,0.3,0.8,0.8
					S101.5,12.9,101.1,12.9z"/>
			</g>
			<g>
				<path class="st7" d="M101.1,16.9H85.9c-0.4,0-0.8-0.3-0.8-0.8s0.3-0.8,0.8-0.8h15.2c0.4,0,0.8,0.3,0.8,0.8
					S101.5,16.9,101.1,16.9z"/>
			</g>
			<g>
				<path class="st7" d="M100.2,21H85.9c-0.4,0-0.8-0.3-0.8-0.8s0.3-0.8,0.8-0.8h14.3c0.4,0,0.8,0.3,0.8,0.8S100.6,21,100.2,21z"/>
			</g>
			<g>
				<path class="st7" d="M96.8,25H85.9c-0.4,0-0.8-0.3-0.8-0.8s0.3-0.8,0.8-0.8h10.9c0.4,0,0.8,0.3,0.8,0.8S97.2,25,96.8,25z"/>
			</g>
			<g>
				<path class="st7" d="M96.1,29.1H85.9c-0.4,0-0.8-0.3-0.8-0.8s0.3-0.8,0.8-0.8h10.2c0.4,0,0.8,0.3,0.8,0.8S96.5,29.1,96.1,29.1z"
					/>
			</g>
		</g>
		<g>
			<g>
				<path class="st20" d="M99.2,29.2c-0.1,0-0.3-0.1-0.4-0.1c-0.1-0.1-0.2-0.3-0.1-0.4l0.7-4.1c0-0.1,0.1-0.2,0.1-0.3l8.7-8.7
					c0.1-0.1,0.2-0.1,0.4-0.1l0,0c0.1,0,0.3,0.1,0.4,0.1l3.4,3.4c0.2,0.2,0.2,0.5,0,0.7l-8.7,8.7c-0.1,0.1-0.2,0.1-0.3,0.1
					L99.2,29.2C99.2,29.2,99.2,29.2,99.2,29.2z M100.4,24.8L99.8,28l3.3-0.6l8.3-8.3l-2.7-2.7L100.4,24.8z"/>
			</g>
			<g>
				<path class="st20" d="M103.3,28.4c-0.1,0-0.3,0-0.4-0.1l-3.4-3.4c-0.2-0.2-0.2-0.5,0-0.7s0.5-0.2,0.7,0l3.4,3.4
					c0.2,0.2,0.2,0.5,0,0.7C103.6,28.4,103.4,28.4,103.3,28.4z"/>
			</g>
			<g>
				
					<rect x="99.8" y="21.3" transform="matrix(0.7071 -0.7071 0.7071 0.7071 15.594 81.3346)" class="st20" width="12.4" height="1"/>
			</g>
			<g>
				<path class="st20" d="M112.1,19.7c-0.1,0-0.3,0-0.4-0.1c-0.2-0.2-0.2-0.5,0-0.7l1-1l-2.7-2.7l-1,1c-0.2,0.2-0.5,0.2-0.7,0
					s-0.2-0.5,0-0.7l1.3-1.3c0.1-0.1,0.2-0.1,0.4-0.1l0,0c0.1,0,0.3,0.1,0.4,0.1l3.4,3.4c0.2,0.2,0.2,0.5,0,0.7l-1.3,1.3
					C112.3,19.6,112.2,19.7,112.1,19.7z"/>
			</g>
		</g>
	</g>
	<g>
		<g class="st10">
			<rect x="165" y="5" class="st1" width="27.3" height="34.4"/>
		</g>
		<g>
			<path class="st7" d="M188.3,36.4H161c-0.6,0-1-0.4-1-1V1c0-0.6,0.4-1,1-1h27.3c0.6,0,1,0.4,1,1v11.3c0,0.6-0.4,1-1,1s-1-0.4-1-1
				V2H162v32.4h25.3v-4.1c0-0.6,0.4-1,1-1s1,0.4,1,1v5.1C189.3,35.9,188.8,36.4,188.3,36.4z"/>
		</g>
		<g>
			<g>
				<path class="st7" d="M182.2,8.8h-15.2c-0.4,0-0.8-0.3-0.8-0.8s0.3-0.8,0.8-0.8h15.2c0.4,0,0.8,0.3,0.8,0.8S182.6,8.8,182.2,8.8z
					"/>
			</g>
			<g>
				<path class="st7" d="M182.2,12.9h-15.2c-0.4,0-0.8-0.3-0.8-0.8s0.3-0.8,0.8-0.8h15.2c0.4,0,0.8,0.3,0.8,0.8
					S182.6,12.9,182.2,12.9z"/>
			</g>
			<g>
				<path class="st7" d="M177.2,16.9h-10.2c-0.4,0-0.8-0.3-0.8-0.8s0.3-0.8,0.8-0.8h10.2c0.4,0,0.8,0.3,0.8,0.8
					S177.6,16.9,177.2,16.9z"/>
			</g>
			<g>
				<path class="st7" d="M176.3,21h-9.3c-0.4,0-0.8-0.3-0.8-0.8s0.3-0.8,0.8-0.8h9.3c0.4,0,0.8,0.3,0.8,0.8S176.8,21,176.3,21z"/>
			</g>
			<g>
				<path class="st7" d="M177.9,25h-10.9c-0.4,0-0.8-0.3-0.8-0.8s0.3-0.8,0.8-0.8h10.9c0.4,0,0.8,0.3,0.8,0.8S178.3,25,177.9,25z"/>
			</g>
			<g>
				<path class="st7" d="M182.2,29.1h-15.2c-0.4,0-0.8-0.3-0.8-0.8s0.3-0.8,0.8-0.8h15.2c0.4,0,0.8,0.3,0.8,0.8
					S182.6,29.1,182.2,29.1z"/>
			</g>
		</g>
		<g>
			<path class="st7" d="M183.9,24.8c-2.4,0-4.5-1.7-5.1-4.1c-0.3-1.3,0-2.7,0.7-3.9c0.8-1.2,1.9-1.9,3.3-2.2c2.8-0.6,5.5,1.2,6.1,4
				c0.3,1.3,0,2.7-0.7,3.9c-0.8,1.2-1.9,1.9-3.3,2.2C184.6,24.7,184.2,24.8,183.9,24.8z M183.9,15.4c-0.3,0-0.6,0-0.8,0.1
				c-1.1,0.2-2,0.9-2.6,1.8c-0.6,0.9-0.8,2-0.6,3.1c0.5,2.2,2.7,3.7,4.9,3.2c1.1-0.2,2-0.9,2.6-1.8c0.6-0.9,0.8-2,0.6-3.1
				C187.5,16.8,185.8,15.4,183.9,15.4z"/>
		</g>
		<g>
			<path class="st7" d="M183.9,24.8c-2.4,0-4.5-1.7-5.1-4.1c-0.3-1.3,0-2.7,0.7-3.9c0.8-1.2,1.9-1.9,3.3-2.2c2.8-0.6,5.5,1.2,6.1,4
				c0.3,1.3,0,2.7-0.7,3.9c-0.8,1.2-1.9,1.9-3.3,2.2C184.6,24.7,184.2,24.8,183.9,24.8z M183.9,15.4c-0.3,0-0.6,0-0.8,0.1
				c-1.1,0.2-2,0.9-2.6,1.8c-0.6,0.9-0.8,2-0.6,3.1c0.5,2.2,2.7,3.7,4.9,3.2c1.1-0.2,2-0.9,2.6-1.8c0.6-0.9,0.8-2,0.6-3.1
				C187.5,16.8,185.8,15.4,183.9,15.4z"/>
		</g>
		<g>
			<path class="st7" d="M191.3,28.4c-0.1,0-0.3-0.1-0.4-0.2l-4.3-4.8c-0.2-0.2-0.2-0.5,0-0.7s0.5-0.2,0.7,0l4.3,4.8
				c0.2,0.2,0.2,0.5,0,0.7C191.5,28.4,191.4,28.4,191.3,28.4z"/>
		</g>
	</g>
	<rect x="267.3" y="-293.3" class="st21" width="54.6" height="68.8"/>
	<g>
		<line class="st15" x1="273.6" y1="-285.8" x2="303.9" y2="-285.8"/>
		<line class="st15" x1="273.6" y1="-278.3" x2="303.9" y2="-278.3"/>
		<line class="st15" x1="273.6" y1="-270.8" x2="296.9" y2="-270.8"/>
		<line class="st15" x1="273.6" y1="-263.3" x2="293.9" y2="-263.3"/>
		<line class="st15" x1="273.6" y1="-255.8" x2="293.9" y2="-255.8"/>
		<line class="st15" x1="273.6" y1="-248.3" x2="296.9" y2="-248.3"/>
	</g>
	<polyline class="st13" points="316,-243.4 316,-230.5 261.4,-230.5 261.4,-299.2 316,-299.2 316,-276.5 	"/>
	<rect x="267.3" y="-177.1" class="st12" width="54.6" height="68.8"/>
	<polyline class="st13" points="316,-127.2 316,-114.2 261.4,-114.2 261.4,-183 316,-183 316,-127.2 	"/>
	<g>
		<polyline class="st13" points="304.3,-258.2 308,-253.6 314.5,-264.7 		"/>
		<path class="st13" d="M322.2-259.9c0,6.7-5.5,12.2-12.2,12.2c-6.7,0-12.2-5.5-12.2-12.2c0-6.7,5.5-12.2,12.2-12.2
			C316.8-272.1,322.2-266.6,322.2-259.9z"/>
	</g>
	<g>
		<g class="st22">
			<rect x="383.6" y="-293.3" class="st3" width="54.6" height="68.8"/>
		</g>
		<g>
			<g>
				<path class="st7" d="M420.1-285h-30.4c-0.4,0-0.8-0.3-0.8-0.8s0.3-0.8,0.8-0.8h30.4c0.4,0,0.8,0.3,0.8,0.8S420.5-285,420.1-285z
					"/>
			</g>
			<g>
				<path class="st7" d="M420.1-277.6h-30.4c-0.4,0-0.8-0.3-0.8-0.8s0.3-0.8,0.8-0.8h30.4c0.4,0,0.8,0.3,0.8,0.8
					S420.5-277.6,420.1-277.6z"/>
			</g>
			<g>
				<path class="st7" d="M413.1-270.1h-23.4c-0.4,0-0.8-0.3-0.8-0.8s0.3-0.8,0.8-0.8h23.4c0.4,0,0.8,0.3,0.8,0.8
					S413.5-270.1,413.1-270.1z"/>
			</g>
			<g>
				<path class="st7" d="M410.1-262.6h-20.4c-0.4,0-0.8-0.3-0.8-0.8s0.3-0.8,0.8-0.8h20.4c0.4,0,0.8,0.3,0.8,0.8
					S410.5-262.6,410.1-262.6z"/>
			</g>
			<g>
				<path class="st7" d="M410.1-255.1h-20.4c-0.4,0-0.8-0.3-0.8-0.8s0.3-0.8,0.8-0.8h20.4c0.4,0,0.8,0.3,0.8,0.8
					S410.5-255.1,410.1-255.1z"/>
			</g>
			<g>
				<path class="st7" d="M413.1-247.6h-23.4c-0.4,0-0.8-0.3-0.8-0.8s0.3-0.8,0.8-0.8h23.4c0.4,0,0.8,0.3,0.8,0.8
					S413.5-247.6,413.1-247.6z"/>
			</g>
		</g>
		<g>
			<path class="st7" d="M432.2-229.5h-54.6c-0.6,0-1-0.4-1-1v-68.8c0-0.6,0.4-1,1-1h54.6c0.6,0,1,0.4,1,1v22.7c0,0.6-0.4,1-1,1
				s-1-0.4-1-1v-21.7h-52.6v66.8h52.6v-11.9c0-0.6,0.4-1,1-1s1,0.4,1,1v12.9C433.2-229.9,432.8-229.5,432.2-229.5z"/>
		</g>
		<g>
			<g>
				<path class="st7" d="M424.2-252.6c-0.3,0-0.6-0.1-0.8-0.4l-3.7-4.6c-0.3-0.4-0.3-1.1,0.2-1.4c0.4-0.3,1.1-0.3,1.4,0.2l2.8,3.5
					l5.8-9.9c0.3-0.5,0.9-0.6,1.4-0.4c0.5,0.3,0.6,0.9,0.4,1.4l-6.5,11.2C424.9-252.8,424.6-252.6,424.2-252.6
					C424.2-252.6,424.2-252.6,424.2-252.6z"/>
			</g>
			<g>
				<path class="st7" d="M426.2-246.6c-7.3,0-13.2-5.9-13.2-13.2s5.9-13.2,13.2-13.2c7.3,0,13.2,5.9,13.2,13.2
					S433.5-246.6,426.2-246.6z M426.2-271.1c-6.2,0-11.2,5-11.2,11.2s5,11.2,11.2,11.2s11.2-5,11.2-11.2S432.4-271.1,426.2-271.1z"
					/>
			</g>
		</g>
	</g>
	<g>
		<line class="st9" x1="282" y1="-169.6" x2="306.5" y2="-169.6"/>
		<circle class="st9" cx="273.8" cy="-169.6" r="2.9"/>
	</g>
	<g>
		<line class="st9" x1="282" y1="-158.2" x2="306.5" y2="-158.2"/>
		<circle class="st9" cx="273.8" cy="-158.2" r="2.9"/>
	</g>
	<g>
		<line class="st9" x1="282" y1="-146.9" x2="306.5" y2="-146.9"/>
		<circle class="st9" cx="273.8" cy="-146.9" r="2.9"/>
	</g>
	<g>
		<line class="st9" x1="282" y1="-135.6" x2="306.5" y2="-135.6"/>
		<circle class="st9" cx="273.8" cy="-135.6" r="2.9"/>
	</g>
	<g>
		<g class="st16">
			<rect x="383.6" y="-177.1" class="st0" width="54.6" height="68.8"/>
		</g>
		<g>
			<path class="st7" d="M432.2-113.2h-54.6c-0.6,0-1-0.4-1-1V-183c0-0.6,0.4-1,1-1h54.6c0.6,0,1,0.4,1,1v68.8
				C433.2-113.7,432.8-113.2,432.2-113.2z M378.7-115.2h52.6V-182h-52.6V-115.2z"/>
		</g>
		<g>
			<g>
				<path class="st7" d="M422.8-168.9h-24.5c-0.4,0-0.7-0.3-0.7-0.7s0.3-0.7,0.7-0.7h24.5c0.4,0,0.7,0.3,0.7,0.7
					S423.1-168.9,422.8-168.9z"/>
			</g>
			<g>
				<path class="st7" d="M390-166c-2,0-3.6-1.6-3.6-3.6c0-2,1.6-3.6,3.6-3.6c2,0,3.6,1.6,3.6,3.6C393.6-167.6,392-166,390-166z
					 M390-171.8c-1.2,0-2.2,1-2.2,2.2s1,2.2,2.2,2.2s2.2-1,2.2-2.2S391.3-171.8,390-171.8z"/>
			</g>
		</g>
		<g>
			<g>
				<path class="st7" d="M422.8-157.6h-24.5c-0.4,0-0.7-0.3-0.7-0.7s0.3-0.7,0.7-0.7h24.5c0.4,0,0.7,0.3,0.7,0.7
					S423.1-157.6,422.8-157.6z"/>
			</g>
			<g>
				<path class="st7" d="M390-154.7c-2,0-3.6-1.6-3.6-3.6s1.6-3.6,3.6-3.6c2,0,3.6,1.6,3.6,3.6S392-154.7,390-154.7z M390-160.5
					c-1.2,0-2.2,1-2.2,2.2s1,2.2,2.2,2.2s2.2-1,2.2-2.2S391.3-160.5,390-160.5z"/>
			</g>
		</g>
		<g>
			<g>
				<path class="st7" d="M422.8-146.2h-24.5c-0.4,0-0.7-0.3-0.7-0.7s0.3-0.7,0.7-0.7h24.5c0.4,0,0.7,0.3,0.7,0.7
					S423.1-146.2,422.8-146.2z"/>
			</g>
			<g>
				<path class="st7" d="M390-143.3c-2,0-3.6-1.6-3.6-3.6c0-2,1.6-3.6,3.6-3.6c2,0,3.6,1.6,3.6,3.6C393.6-144.9,392-143.3,390-143.3
					z M390-149.1c-1.2,0-2.2,1-2.2,2.2s1,2.2,2.2,2.2s2.2-1,2.2-2.2S391.3-149.1,390-149.1z"/>
			</g>
		</g>
		<g>
			<g>
				<path class="st7" d="M422.8-134.9h-24.5c-0.4,0-0.7-0.3-0.7-0.7s0.3-0.7,0.7-0.7h24.5c0.4,0,0.7,0.3,0.7,0.7
					S423.1-134.9,422.8-134.9z"/>
			</g>
			<g>
				<path class="st7" d="M390-132c-2,0-3.6-1.6-3.6-3.6s1.6-3.6,3.6-3.6c2,0,3.6,1.6,3.6,3.6S392-132,390-132z M390-137.8
					c-1.2,0-2.2,1-2.2,2.2s1,2.2,2.2,2.2s2.2-1,2.2-2.2S391.3-137.8,390-137.8z"/>
			</g>
		</g>
	</g>
	<path class="st23" d="M539.6-173.6h20.2c2.8,0,5,2.2,5,5v48.6c0,2.8-2.2,5-5,5h-58.3c-2.8,0-5-2.2-5-5v-48.6c0-2.8,2.2-5,5-5h20.2"
		/>
	<path class="st23" d="M539.6-173.6h20.2c2.8,0,5,2.2,5,5v48.6c0,2.8-2.2,5-5,5h-58.3c-2.8,0-5-2.2-5-5v-48.6c0-2.8,2.2-5,5-5h20.2"
		/>
	<line class="st23" x1="525.4" y1="-173.6" x2="535.9" y2="-173.6"/>
	<g>
		<rect x="505.6" y="-162.3" class="st9" width="7.6" height="7.6"/>
		<rect x="519.8" y="-162.3" class="st9" width="7.6" height="7.6"/>
		<rect x="534" y="-162.3" class="st9" width="7.6" height="7.6"/>
		<rect x="548.2" y="-162.3" class="st9" width="7.6" height="7.6"/>
	</g>
	<g>
		<rect x="505.6" y="-148.1" class="st9" width="7.6" height="7.6"/>
		<rect x="519.8" y="-148.1" class="st9" width="7.6" height="7.6"/>
		<rect x="534" y="-148.1" class="st9" width="7.6" height="7.6"/>
		<rect x="548.2" y="-148.1" class="st9" width="7.6" height="7.6"/>
	</g>
	<g>
		<rect x="505.6" y="-133.9" class="st9" width="7.6" height="7.6"/>
		<rect x="519.8" y="-133.9" class="st9" width="7.6" height="7.6"/>
		<rect x="534" y="-133.9" class="st9" width="7.6" height="7.6"/>
		<rect x="548.2" y="-133.9" class="st9" width="7.6" height="7.6"/>
	</g>
	<path class="st23" d="M523.6-178.8L523.6-178.8c-1,0-1.8,0.8-1.8,1.8v6.7c0,1,0.8,1.8,1.8,1.8l0,0c1,0,1.8-0.8,1.8-1.8v-6.7
		C525.4-178,524.6-178.8,523.6-178.8z"/>
	<path class="st23" d="M537.8-178.8L537.8-178.8c-1,0-1.8,0.8-1.8,1.8v6.7c0,1,0.8,1.8,1.8,1.8l0,0c1,0,1.8-0.8,1.8-1.8v-6.7
		C539.6-178,538.8-178.8,537.8-178.8z"/>
	<g>
		<g class="st16">
			<path class="st0" d="M661.5-167.9h20.2c2.8,0,5,2.2,5,5v48.6c0,2.8-2.2,5-5,5h-58.2c-2.8,0-5-2.2-5-5v-48.6c0-2.8,2.2-5,5-5h20.2
				"/>
		</g>
		<g>
			<path class="st7" d="M676-114h-58.2c-3.3,0-6-2.7-6-6v-48.6c0-3.3,2.7-6,6-6H638c0.5,0,1,0.4,1,1s-0.4,1-1,1h-20.2
				c-2.2,0-4,1.8-4,4v48.6c0,2.2,1.8,4,4,4H676c2.2,0,4-1.8,4-4v-48.6c0-2.2-1.8-4-4-4h-20.2c-0.5,0-1-0.4-1-1s0.4-1,1-1H676
				c3.3,0,6,2.7,6,6v48.6C682-116.7,679.3-114,676-114z"/>
		</g>
		<g>
			<path class="st7" d="M676-114h-58.2c-3.3,0-6-2.7-6-6v-48.6c0-3.3,2.7-6,6-6H638c0.5,0,1,0.4,1,1s-0.4,1-1,1h-20.2
				c-2.2,0-4,1.8-4,4v48.6c0,2.2,1.8,4,4,4H676c2.2,0,4-1.8,4-4v-48.6c0-2.2-1.8-4-4-4h-20.2c-0.5,0-1-0.4-1-1s0.4-1,1-1H676
				c3.3,0,6,2.7,6,6v48.6C682-116.7,679.3-114,676-114z"/>
		</g>
		<g>
			<path class="st7" d="M652.2-172.6h-10.5c-0.5,0-1-0.4-1-1s0.4-1,1-1h10.5c0.5,0,1,0.4,1,1S652.7-172.6,652.2-172.6z"/>
		</g>
		<g>
			<g>
				<path class="st7" d="M629.4-154.2h-7.6c-0.3,0-0.5-0.2-0.5-0.5v-7.6c0-0.3,0.2-0.5,0.5-0.5h7.6c0.3,0,0.5,0.2,0.5,0.5v7.6
					C629.9-154.4,629.7-154.2,629.4-154.2z M622.4-155.2h6.6v-6.6h-6.6V-155.2z"/>
			</g>
			<g>
				<path class="st7" d="M643.6-154.2H636c-0.3,0-0.5-0.2-0.5-0.5v-7.6c0-0.3,0.2-0.5,0.5-0.5h7.6c0.3,0,0.5,0.2,0.5,0.5v7.6
					C644.1-154.4,643.9-154.2,643.6-154.2z M636.5-155.2h6.6v-6.6h-6.6V-155.2z"/>
			</g>
			<g>
				<path class="st7" d="M657.8-154.2h-7.6c-0.3,0-0.5-0.2-0.5-0.5v-7.6c0-0.3,0.2-0.5,0.5-0.5h7.6c0.3,0,0.5,0.2,0.5,0.5v7.6
					C658.3-154.4,658.1-154.2,657.8-154.2z M650.7-155.2h6.6v-6.6h-6.6V-155.2z"/>
			</g>
			<g>
				<path class="st7" d="M672-154.2h-7.6c-0.3,0-0.5-0.2-0.5-0.5v-7.6c0-0.3,0.2-0.5,0.5-0.5h7.6c0.3,0,0.5,0.2,0.5,0.5v7.6
					C672.5-154.4,672.2-154.2,672-154.2z M664.9-155.2h6.6v-6.6h-6.6V-155.2z"/>
			</g>
		</g>
		<g>
			<g>
				<path class="st7" d="M629.4-140h-7.6c-0.3,0-0.5-0.2-0.5-0.5v-7.6c0-0.3,0.2-0.5,0.5-0.5h7.6c0.3,0,0.5,0.2,0.5,0.5v7.6
					C629.9-140.2,629.7-140,629.4-140z M622.4-141h6.6v-6.6h-6.6V-141z"/>
			</g>
			<g>
				<path class="st7" d="M643.6-140H636c-0.3,0-0.5-0.2-0.5-0.5v-7.6c0-0.3,0.2-0.5,0.5-0.5h7.6c0.3,0,0.5,0.2,0.5,0.5v7.6
					C644.1-140.2,643.9-140,643.6-140z M636.5-141h6.6v-6.6h-6.6V-141z"/>
			</g>
			<g>
				<path class="st7" d="M657.8-140h-7.6c-0.3,0-0.5-0.2-0.5-0.5v-7.6c0-0.3,0.2-0.5,0.5-0.5h7.6c0.3,0,0.5,0.2,0.5,0.5v7.6
					C658.3-140.2,658.1-140,657.8-140z M650.7-141h6.6v-6.6h-6.6V-141z"/>
			</g>
			<g>
				<path class="st7" d="M672-140h-7.6c-0.3,0-0.5-0.2-0.5-0.5v-7.6c0-0.3,0.2-0.5,0.5-0.5h7.6c0.3,0,0.5,0.2,0.5,0.5v7.6
					C672.5-140.2,672.2-140,672-140z M664.9-141h6.6v-6.6h-6.6V-141z"/>
			</g>
		</g>
		<g>
			<g>
				<path class="st7" d="M629.4-125.8h-7.6c-0.3,0-0.5-0.2-0.5-0.5v-7.6c0-0.3,0.2-0.5,0.5-0.5h7.6c0.3,0,0.5,0.2,0.5,0.5v7.6
					C629.9-126.1,629.7-125.8,629.4-125.8z M622.4-126.8h6.6v-6.6h-6.6V-126.8z"/>
			</g>
			<g>
				<path class="st7" d="M643.6-125.8H636c-0.3,0-0.5-0.2-0.5-0.5v-7.6c0-0.3,0.2-0.5,0.5-0.5h7.6c0.3,0,0.5,0.2,0.5,0.5v7.6
					C644.1-126.1,643.9-125.8,643.6-125.8z M636.5-126.8h6.6v-6.6h-6.6V-126.8z"/>
			</g>
			<g>
				<path class="st7" d="M657.8-125.8h-7.6c-0.3,0-0.5-0.2-0.5-0.5v-7.6c0-0.3,0.2-0.5,0.5-0.5h7.6c0.3,0,0.5,0.2,0.5,0.5v7.6
					C658.3-126.1,658.1-125.8,657.8-125.8z M650.7-126.8h6.6v-6.6h-6.6V-126.8z"/>
			</g>
			<g>
				<path class="st7" d="M672-125.8h-7.6c-0.3,0-0.5-0.2-0.5-0.5v-7.6c0-0.3,0.2-0.5,0.5-0.5h7.6c0.3,0,0.5,0.2,0.5,0.5v7.6
					C672.5-126.1,672.2-125.8,672-125.8z M664.9-126.8h6.6v-6.6h-6.6V-126.8z"/>
			</g>
		</g>
		<g>
			<path class="st7" d="M639.8-167.4c-1.5,0-2.8-1.3-2.8-2.8v-6.7c0-1.5,1.3-2.8,2.8-2.8c1.5,0,2.8,1.3,2.8,2.8v6.7
				C642.6-168.7,641.4-167.4,639.8-167.4z M639.8-177.8c-0.5,0-0.9,0.4-0.9,0.9v6.7c0,0.5,0.4,0.9,0.9,0.9s0.9-0.4,0.9-0.9v-6.7
				C640.7-177.4,640.3-177.8,639.8-177.8z"/>
		</g>
		<g>
			<path class="st7" d="M654-167.4c-1.5,0-2.8-1.3-2.8-2.8v-6.7c0-1.5,1.3-2.8,2.8-2.8c1.5,0,2.8,1.3,2.8,2.8v6.7
				C656.8-168.7,655.5-167.4,654-167.4z M654-177.8c-0.5,0-0.9,0.4-0.9,0.9v6.7c0,0.5,0.4,0.9,0.9,0.9s0.9-0.4,0.9-0.9v-6.7
				C654.9-177.4,654.5-177.8,654-177.8z"/>
		</g>
	</g>
	<g>
		<path class="st21" d="M558.5-265.5L558.5-265.5c0.8-2.5,1.2-5.2,1.2-8c0-14.7-11.9-26.7-26.7-26.7c-14.7,0-26.7,11.9-26.7,26.7
			c0,2.8,0.4,5.5,1.2,8h0l0,0c0.3,1,0.7,2,1.1,3l10.4,27.2H547l10.4-27.2C557.8-263.5,558.2-264.5,558.5-265.5L558.5-265.5z"/>
		<path class="st13" d="M552.8-271.2L552.8-271.2c0.8-2.5,1.2-5.2,1.2-8c0-14.7-11.9-26.7-26.7-26.7s-26.7,11.9-26.7,26.7
			c0,2.8,0.4,5.5,1.2,8h0l0,0c0.3,1,0.7,2,1.1,3l10.4,27.2h27.8l10.4-27.2C552.1-269.1,552.5-270.1,552.8-271.2L552.8-271.2z"/>
		<line class="st13" x1="513.5" y1="-236" x2="541.3" y2="-236"/>
		<line class="st13" x1="516" y1="-230.8" x2="538.8" y2="-230.8"/>
		<line class="st13" x1="518.4" y1="-225.7" x2="536.4" y2="-225.7"/>
		<polyline class="st13" points="523.3,-240.9 518.4,-259.5 536.4,-259.5 531.5,-240.9 		"/>
		<line class="st13" x1="520.9" y1="-263.2" x2="533.9" y2="-263.2"/>
		<line class="st13" x1="523.3" y1="-266.9" x2="531.5" y2="-266.9"/>
	</g>
	<path class="st13" d="M507-278.7c0-11.3,9.2-20.4,20.4-20.4"/>
	<g>
		<g>
			<g class="st16">
				<path class="st3" d="M674.7-265.5L674.7-265.5c0.8-2.5,1.2-5.2,1.2-8c0-14.7-11.9-26.7-26.7-26.7s-26.7,11.9-26.7,26.7
					c0,2.8,0.4,5.5,1.2,8h0l0,0c0.3,1,0.7,2,1.1,3l10.4,27.2h27.8l10.4-27.2C674-263.5,674.4-264.5,674.7-265.5L674.7-265.5z"/>
			</g>
			<g>
				<path class="st7" d="M657.5-239.9h-27.8c-0.4,0-0.8-0.3-0.9-0.6l-10.4-27.2c-0.4-1-0.8-2-1.2-3.1c-0.8-2.7-1.3-5.5-1.3-8.3
					c0-15.2,12.4-27.7,27.7-27.7s27.7,12.4,27.7,27.7c0,2.8-0.4,5.6-1.3,8.3c0,0,0,0,0,0c-0.3,1.1-0.7,2.1-1.2,3.1l-10.4,27.2
					C658.3-240.2,657.9-239.9,657.5-239.9z M630.4-241.9h26.4l10.1-26.6c0.4-1,0.8-2,1.1-3c0,0,0,0,0,0c0.8-2.5,1.2-5,1.2-7.7
					c0-14.1-11.5-25.7-25.7-25.7c-14.1,0-25.7,11.5-25.7,25.7c0,2.6,0.4,5.2,1.2,7.7c0.3,1,0.7,2,1.1,2.9L630.4-241.9z M669.1-271.2
					L669.1-271.2L669.1-271.2z"/>
			</g>
			<g>
				<path class="st7" d="M657.5-235h-27.8c-0.6,0-1-0.4-1-1s0.4-1,1-1h27.8c0.6,0,1,0.4,1,1S658.1-235,657.5-235z"/>
			</g>
			<g>
				<path class="st7" d="M655.1-229.8h-22.9c-0.6,0-1-0.4-1-1s0.4-1,1-1h22.9c0.6,0,1,0.4,1,1S655.6-229.8,655.1-229.8z"/>
			</g>
			<g>
				<path class="st7" d="M652.6-224.7h-18c-0.6,0-1-0.4-1-1s0.4-1,1-1h18c0.6,0,1,0.4,1,1S653.1-224.7,652.6-224.7z"/>
			</g>
			<g>
				<path class="st7" d="M647.7-239.9c-0.1,0-0.2,0-0.3,0c-0.5-0.1-0.9-0.7-0.7-1.2l4.6-17.3h-15.4l4.6,17.3
					c0.1,0.5-0.2,1.1-0.7,1.2c-0.5,0.1-1.1-0.2-1.2-0.7l-4.9-18.6c-0.1-0.3,0-0.6,0.2-0.9c0.2-0.2,0.5-0.4,0.8-0.4h18
					c0.3,0,0.6,0.1,0.8,0.4c0.2,0.2,0.3,0.6,0.2,0.9l-4.9,18.6C648.5-240.2,648.1-239.9,647.7-239.9z"/>
			</g>
			<g>
				<path class="st7" d="M650.1-262.2h-13c-0.6,0-1-0.4-1-1s0.4-1,1-1h13c0.6,0,1,0.4,1,1S650.7-262.2,650.1-262.2z"/>
			</g>
			<g>
				<path class="st7" d="M647.7-265.9h-8.1c-0.6,0-1-0.4-1-1s0.4-1,1-1h8.1c0.6,0,1,0.4,1,1S648.2-265.9,647.7-265.9z"/>
			</g>
		</g>
		<g>
			<path class="st7" d="M623.2-277.7c-0.6,0-1-0.4-1-1c0-11.8,9.6-21.4,21.4-21.4c0.6,0,1,0.4,1,1s-0.4,1-1,1
				c-10.7,0-19.4,8.7-19.4,19.4C624.2-278.1,623.7-277.7,623.2-277.7z"/>
		</g>
	</g>
	<g>
	</g>
	<g>
	</g>
	<g>
	</g>
	<g>
	</g>
	<g>
	</g>
	<g>
	</g>
	<g>
	</g>
	<g>
	</g>
	<g>
	</g>
	<g>
	</g>
	<g>
	</g>
	<g>
	</g>
	<g>
	</g>
	<g>
	</g>
	<g>
	</g>
</g>
</svg>
