<?xml version="1.0" encoding="utf-8"?>
<!-- Generator: Adobe Illustrator 23.0.1, SVG Export Plug-In . SVG Version: 6.00 Build 0)  -->
<svg version="1.1" id="Capa_1" xmlns="http://www.w3.org/2000/svg" xmlns:xlink="http://www.w3.org/1999/xlink" x="0px" y="0px"
	 viewBox="0 0 62.8 75.7" style="enable-background:new 0 0 62.8 75.7;" xml:space="preserve">
<style type="text/css">
	.st0{opacity:0.25;fill:#B6CE8C;}
	.st1{fill:none;stroke:#292929;stroke-width:1.5;stroke-linecap:round;stroke-linejoin:round;stroke-miterlimit:10;
  }

	.st2{fill:none;stroke:#292929;
	stroke-width:2;
	stroke-linecap:round;stroke-linejoin:round;stroke-miterlimit:10;
  }

  .st1, .st2{
	stroke-dasharray: 500;
    stroke-dashoffset: 500;
    animation: dash 3.5s linear;
    stroke-width: 2;
    animation-fill-mode: forwards;
  }

  @keyframes dash {
    from {
      stroke-dashoffset: 500;
    }
    to {
      stroke-dashoffset: 0;
    }
  }
  .st1{
  stroke-dashoffset: 500;
  }

</style>
<g>
	<rect x="6.9" y="6.9" class="st0" width="54.6" height="68.8"/>
	<g>
		<line style="animation-delay: 0.5s;" class="st1" x1="13.1" y1="14.4" x2="43.5" y2="14.4"/>
		<line style="animation-delay: 0.75s;" class="st1" x1="13.1" y1="21.9" x2="43.5" y2="21.9"/>
		<line style="animation-delay: 1s;" class="st1" x1="13.1" y1="29.4" x2="36.5" y2="29.4"/>
		<line style="animation-delay: 1.25s;" class="st1" x1="13.1" y1="36.9" x2="33.5" y2="36.9"/>
		<line style="animation-delay: 1.5s;" class="st1" x1="13.1" y1="44.4" x2="33.5" y2="44.4"/>
		<line style="animation-delay: 1.75s;" class="st1" x1="13.1" y1="51.9" x2="36.5" y2="51.9"/>
	</g>
	<polyline class="st2" points="55.6,56.8 55.6,69.8 1,69.8 1,1 55.6,1 55.6,23.7 	"/>
	<g>
		<polyline class="st2" points="43.8,42 47.5,46.7 54.1,35.5 		"/>
		<path class="st2" d="M61.8,40.4c0,6.7-5.5,12.2-12.2,12.2c-6.7,0-12.2-5.5-12.2-12.2s5.5-12.2,12.2-12.2
			C56.3,28.2,61.8,33.6,61.8,40.4z"/>
	</g>
</g>
</svg>
