<?xml version="1.0" encoding="utf-8"?>
<!-- Generator: Adobe Illustrator 22.1.0, SVG Export Plug-In . SVG Version: 6.00 Build 0)  -->
<svg version="1.1" xmlns="http://www.w3.org/2000/svg" xmlns:xlink="http://www.w3.org/1999/xlink" x="0px" y="0px"
	 viewBox="0 0 32.3 39.4" style="enable-background:new 0 0 32.3 39.4;" xml:space="preserve">
<style type="text/css">
	.st0{fill:#81BCBF;}
	.st1{fill:#585799;}
	.st2{fill:url(#SVGID_1_);}
	.st3{fill:#B6CE8C;}
	.st4{fill:#508AA6;}
	.st5{fill:url(#SVGID_2_);}
	.st6{opacity:0.2;fill:#4E8AA7;}
	.st7{fill:#292929;}
	.st8{fill:none;stroke:#292929;stroke-width:2;stroke-linejoin:round;stroke-miterlimit:10;}
	.st9{fill:none;stroke:#292929;stroke-linecap:round;stroke-linejoin:round;stroke-miterlimit:10;}
	.st10{opacity:0.2;}
	.st11{fill:#4E8AA7;}
	.st12{opacity:0.5;fill:#81BCBF;}
	.st13{fill:none;stroke:#292929;stroke-width:2;stroke-linecap:round;stroke-linejoin:round;stroke-miterlimit:10;}
	.st14{fill:none;stroke:#292929;stroke-linejoin:round;stroke-miterlimit:10;}
	.st15{fill:none;stroke:#292929;stroke-width:1.5;stroke-linecap:round;stroke-linejoin:round;stroke-miterlimit:10;}
	.st16{opacity:0.25;}
	.st17{opacity:0.2;fill:#585799;}
	.st18{fill:none;stroke:#282828;stroke-linecap:round;stroke-linejoin:round;stroke-miterlimit:10;}
	.st19{fill:none;stroke:#282828;stroke-linejoin:round;stroke-miterlimit:10;}
	.st20{fill:#282828;}
	.st21{opacity:0.5;fill:#B6CE8C;}
	.st22{opacity:0.5;}
	.st23{fill:none;stroke:#292929;stroke-width:1.9456;stroke-linecap:round;stroke-linejoin:round;stroke-miterlimit:10;}
</style>
<g id="COLORES">
	<rect x="-328.1" y="-388.4" class="st0" width="36" height="36"/>
	<rect x="-328.1" y="-352.4" class="st1" width="36" height="36"/>
	<linearGradient id="SVGID_1_" gradientUnits="userSpaceOnUse" x1="-400.063" y1="-352.4175" x2="-328.063" y2="-352.4175">
		<stop  offset="0" style="stop-color:#81BCBF"/>
		<stop  offset="1" style="stop-color:#585799"/>
	</linearGradient>
	<rect x="-400.1" y="-388.4" class="st2" width="72" height="72"/>
	<rect x="-328.1" y="-310.4" class="st3" width="36" height="36"/>
	<rect x="-328.1" y="-274.4" class="st4" width="36" height="36"/>
	<linearGradient id="SVGID_2_" gradientUnits="userSpaceOnUse" x1="-400.063" y1="-274.4175" x2="-328.063" y2="-274.4175">
		<stop  offset="0" style="stop-color:#B6CE8C"/>
		<stop  offset="1" style="stop-color:#508AA6"/>
	</linearGradient>
	<rect x="-400.1" y="-310.4" class="st5" width="72" height="72"/>
	<g>
		<rect x="123.4" y="-52.1" class="st6" width="27.3" height="27.3"/>
		<g>
			<path class="st7" d="M126.9-38.7l0.7-0.8c1,0.9,2,1.4,3.4,1.4c1.3,0,2.2-0.7,2.2-1.7v0c0-0.9-0.5-1.5-2.6-1.9
				c-2.3-0.5-3.4-1.2-3.4-2.9v0c0-1.6,1.4-2.7,3.3-2.7c1.5,0,2.5,0.4,3.5,1.2l-0.7,0.9c-0.9-0.8-1.9-1.1-2.9-1.1
				c-1.3,0-2.1,0.7-2.1,1.6v0c0,0.9,0.5,1.5,2.7,1.9c2.2,0.5,3.3,1.3,3.3,2.8v0c0,1.7-1.4,2.8-3.4,2.8
				C129.4-37.1,128.1-37.6,126.9-38.7z"/>
			<path class="st7" d="M136.6-44.6h1.1v7.4h-1.1V-44.6z M138.1-47.8l1.1,0.5l-1.6,1.5h-0.9L138.1-47.8z"/>
		</g>
		<rect x="119.4" y="-56.1" class="st8" width="27.3" height="27.3"/>
	</g>
	<g>
		<rect x="202.3" y="-51.9" class="st6" width="27.3" height="27.3"/>
		<rect x="198.3" y="-55.9" class="st8" width="27.3" height="27.3"/>
		<polyline class="st9" points="202.3,-36.4 209.9,-48.1 207.5,-38.7 213.3,-42.9 211.7,-39 217.7,-42.2 216,-38.8 221.5,-41.1 		
			"/>
	</g>
	<g>
		<rect x="283.4" y="-51.9" class="st6" width="27.3" height="27.3"/>
		<rect x="279.4" y="-55.9" class="st8" width="27.3" height="27.3"/>
		<g>
			<polyline class="st9" points="289.4,-41.2 291.7,-38.2 295.9,-45.4 			"/>
			<path class="st9" d="M300.8-42.2c0,4.3-3.5,7.8-7.8,7.8c-4.3,0-7.8-3.5-7.8-7.8c0-4.3,3.5-7.8,7.8-7.8
				C297.3-50,300.8-46.5,300.8-42.2z"/>
		</g>
	</g>
	<g>
		<g class="st10">
			<rect x="123.4" y="7.4" class="st11" width="27.3" height="27.3"/>
		</g>
		<g>
			<g>
				<path class="st7" d="M126.9,20.8l0.7-0.8c1,0.9,2,1.4,3.4,1.4c1.3,0,2.2-0.7,2.2-1.7v0c0-0.9-0.5-1.5-2.6-1.9
					c-2.3-0.5-3.4-1.2-3.4-2.9v0c0-1.6,1.4-2.7,3.3-2.7c1.5,0,2.5,0.4,3.5,1.2l-0.7,0.9c-0.9-0.8-1.9-1.1-2.9-1.1
					c-1.3,0-2.1,0.7-2.1,1.6v0c0,0.9,0.5,1.5,2.7,1.9c2.2,0.5,3.3,1.3,3.3,2.8v0c0,1.7-1.4,2.8-3.4,2.8
					C129.4,22.4,128.1,21.9,126.9,20.8z"/>
			</g>
			<g>
				<path class="st7" d="M136.6,14.9h1.1v7.4h-1.1V14.9z M138.1,11.7l1.1,0.5l-1.6,1.5h-0.9L138.1,11.7z"/>
			</g>
		</g>
		<g>
			<path class="st7" d="M146.7,31.7h-27.3c-0.6,0-1-0.4-1-1V3.4c0-0.6,0.4-1,1-1h27.3c0.6,0,1,0.4,1,1v27.3
				C147.7,31.3,147.2,31.7,146.7,31.7z M120.4,29.7h25.3V4.4h-25.3V29.7z"/>
		</g>
	</g>
	<g>
		<g class="st10">
			<rect x="202.3" y="7.6" class="st11" width="27.3" height="27.3"/>
		</g>
		<g>
			<path class="st7" d="M225.6,31.9h-27.3c-0.6,0-1-0.4-1-1V3.6c0-0.6,0.4-1,1-1h27.3c0.6,0,1,0.4,1,1v27.3
				C226.6,31.5,226.1,31.9,225.6,31.9z M199.3,29.9h25.3V4.6h-25.3V29.9z"/>
		</g>
		<g>
			<path class="st7" d="M202.3,23.6c-0.1,0-0.2,0-0.3-0.1c-0.2-0.2-0.3-0.5-0.1-0.7l7.6-11.6c0.1-0.2,0.4-0.3,0.6-0.2
				c0.2,0.1,0.3,0.3,0.3,0.6l-2.1,8l4.7-3.4c0.2-0.1,0.4-0.1,0.6,0c0.2,0.1,0.2,0.4,0.2,0.6l-1.1,2.6l4.8-2.6
				c0.2-0.1,0.4-0.1,0.6,0.1c0.2,0.2,0.2,0.4,0.1,0.6l-1.1,2.2l4.3-1.7c0.3-0.1,0.5,0,0.7,0.3c0.1,0.3,0,0.5-0.3,0.7l-5.6,2.2
				c-0.2,0.1-0.4,0-0.6-0.1s-0.2-0.4-0.1-0.6l1-2l-4.7,2.5c-0.2,0.1-0.4,0.1-0.6-0.1c-0.2-0.1-0.2-0.4-0.1-0.6l0.9-2.2l-4.4,3.2
				c-0.2,0.1-0.4,0.1-0.6,0c-0.2-0.1-0.3-0.3-0.2-0.5l1.7-6.4l-6,9.1C202.6,23.5,202.5,23.6,202.3,23.6z"/>
		</g>
	</g>
	<g>
		<g class="st10">
			<rect x="283.4" y="7.6" class="st11" width="27.3" height="27.3"/>
		</g>
		<g>
			<path class="st7" d="M306.7,31.9h-27.3c-0.6,0-1-0.4-1-1V3.6c0-0.6,0.4-1,1-1h27.3c0.6,0,1,0.4,1,1v27.3
				C307.7,31.5,307.2,31.9,306.7,31.9z M280.4,29.9h25.3V4.6h-25.3V29.9z"/>
		</g>
		<g>
			<g>
				<path class="st7" d="M291.7,21.8c-0.2,0-0.3-0.1-0.4-0.2l-2.4-2.9c-0.2-0.2-0.1-0.5,0.1-0.7c0.2-0.2,0.5-0.1,0.7,0.1l1.9,2.4
					l3.8-6.5c0.1-0.2,0.4-0.3,0.7-0.2c0.2,0.1,0.3,0.4,0.2,0.7l-4.2,7.1C292.1,21.7,291.9,21.8,291.7,21.8
					C291.7,21.8,291.7,21.8,291.7,21.8z"/>
			</g>
			<g>
				<path class="st7" d="M293,25.6c-4.6,0-8.3-3.7-8.3-8.3S288.5,9,293,9c4.6,0,8.3,3.7,8.3,8.3S297.6,25.6,293,25.6z M293,10
					c-4,0-7.3,3.3-7.3,7.3s3.3,7.3,7.3,7.3c4,0,7.3-3.3,7.3-7.3S297,10,293,10z"/>
			</g>
		</g>
	</g>
</g>
<g id="Tratamiento_de_Datos">
	<path class="st12" d="M385.3-167.9h20.2c2.8,0,5,2.2,5,5v48.6c0,2.8-2.2,5-5,5h-58.2c-2.8,0-5-2.2-5-5v-48.6c0-2.8,2.2-5,5-5h20.2"
		/>
	<g>
		<rect x="-160.6" y="-292.6" class="st12" width="54.6" height="68.8"/>
		<polyline class="st13" points="-111.9,-242.6 -111.9,-229.7 -166.4,-229.7 -166.4,-298.4 -111.9,-298.4 -111.9,-275.7 		"/>
		<rect x="-159.1" y="-291.1" class="st14" width="12.5" height="12.5"/>
		<line class="st9" x1="-141.4" y1="-284.8" x2="-123.4" y2="-284.8"/>
		<line class="st9" x1="-141.4" y1="-280.4" x2="-123.4" y2="-280.4"/>
		<line class="st15" x1="-154.3" y1="-270" x2="-124" y2="-270"/>
		<line class="st15" x1="-154.3" y1="-262.6" x2="-124" y2="-262.6"/>
		<line class="st15" x1="-154.3" y1="-255.3" x2="-130" y2="-255.3"/>
		<line class="st15" x1="-154.3" y1="-247.9" x2="-134" y2="-247.9"/>
		<line class="st15" x1="-154.3" y1="-240.5" x2="-135" y2="-240.5"/>
		<g>
			<polygon class="st8" points="-110.6,-267.8 -129.1,-249.3 -130.6,-240.5 -121.9,-242.1 -103.4,-260.6 			"/>
			<line class="st8" x1="-129.1" y1="-249.3" x2="-121.9" y2="-242.1"/>
			<line class="st8" x1="-107" y1="-264.2" x2="-125.5" y2="-245.7"/>
			<polyline class="st8" points="-110.6,-267.8 -107.7,-270.7 -100.5,-263.5 -103.4,-260.6 			"/>
		</g>
	</g>
	<rect x="-160.6" y="-176.6" class="st12" width="54.6" height="68.8"/>
	<rect x="-166.4" y="-182.4" class="st13" width="54.6" height="68.8"/>
	<rect x="-159.1" y="-175.1" class="st14" width="12.5" height="12.5"/>
	<line class="st9" x1="-141.4" y1="-168.8" x2="-123.4" y2="-168.8"/>
	<line class="st9" x1="-141.4" y1="-164.4" x2="-123.4" y2="-164.4"/>
	<line class="st15" x1="-154.3" y1="-154" x2="-124" y2="-154"/>
	<line class="st15" x1="-154.3" y1="-146.6" x2="-124" y2="-146.6"/>
	<line class="st15" x1="-154.3" y1="-139.3" x2="-124" y2="-139.3"/>
	<line class="st15" x1="-154.3" y1="-131.9" x2="-124" y2="-131.9"/>
	<line class="st15" x1="-154.3" y1="-124.5" x2="-124" y2="-124.5"/>
	<g>
		<g class="st16">
			<rect x="-44.3" y="-176.6" class="st0" width="54.6" height="68.8"/>
		</g>
		<g>
			<path class="st7" d="M4.3-112.7h-54.6c-0.6,0-1-0.4-1-1v-68.8c0-0.6,0.4-1,1-1H4.3c0.6,0,1,0.4,1,1v68.8
				C5.3-113.1,4.9-112.7,4.3-112.7z M-49.2-114.7H3.3v-66.8h-52.6V-114.7z"/>
		</g>
		<g>
			<path class="st7" d="M-30.3-162.1h-12.5c-0.3,0-0.5-0.2-0.5-0.5v-12.5c0-0.3,0.2-0.5,0.5-0.5h12.5c0.3,0,0.5,0.2,0.5,0.5v12.5
				C-29.8-162.3-30.1-162.1-30.3-162.1z M-42.4-163.1h11.5v-11.5h-11.5V-163.1z"/>
		</g>
		<g>
			<path class="st7" d="M-7.2-168.3h-18.1c-0.3,0-0.5-0.2-0.5-0.5s0.2-0.5,0.5-0.5h18.1c0.3,0,0.5,0.2,0.5,0.5S-6.9-168.3-7.2-168.3
				z"/>
		</g>
		<g>
			<path class="st7" d="M-7.2-163.9h-18.1c-0.3,0-0.5-0.2-0.5-0.5s0.2-0.5,0.5-0.5h18.1c0.3,0,0.5,0.2,0.5,0.5S-6.9-163.9-7.2-163.9
				z"/>
		</g>
		<g>
			<path class="st7" d="M-7.8-153.3h-30.4c-0.4,0-0.8-0.3-0.8-0.8s0.3-0.8,0.8-0.8h30.4c0.4,0,0.8,0.3,0.8,0.8S-7.4-153.3-7.8-153.3
				z"/>
		</g>
		<g>
			<path class="st7" d="M-7.8-145.9h-30.4c-0.4,0-0.8-0.3-0.8-0.8s0.3-0.8,0.8-0.8h30.4c0.4,0,0.8,0.3,0.8,0.8S-7.4-145.9-7.8-145.9
				z"/>
		</g>
		<g>
			<path class="st7" d="M-7.8-138.5h-30.4c-0.4,0-0.8-0.3-0.8-0.8s0.3-0.8,0.8-0.8h30.4c0.4,0,0.8,0.3,0.8,0.8S-7.4-138.5-7.8-138.5
				z"/>
		</g>
		<g>
			<path class="st7" d="M-7.8-131.2h-30.4c-0.4,0-0.8-0.3-0.8-0.8s0.3-0.8,0.8-0.8h30.4c0.4,0,0.8,0.3,0.8,0.8S-7.4-131.2-7.8-131.2
				z"/>
		</g>
		<g>
			<path class="st7" d="M-7.8-123.8h-30.4c-0.4,0-0.8-0.3-0.8-0.8s0.3-0.8,0.8-0.8h30.4c0.4,0,0.8,0.3,0.8,0.8S-7.4-123.8-7.8-123.8
				z"/>
		</g>
	</g>
	<g>
		<g class="st16">
			<rect x="-44.6" y="-292.6" class="st0" width="54.6" height="68.8"/>
		</g>
		<g>
			<path class="st7" d="M4.1-228.7h-54.6c-0.6,0-1-0.4-1-1v-68.8c0-0.6,0.4-1,1-1H4.1c0.6,0,1,0.4,1,1v22.7c0,0.6-0.4,1-1,1
				s-1-0.4-1-1v-21.7h-52.6v66.8H3.1v-11.9c0-0.6,0.4-1,1-1s1,0.4,1,1v12.9C5.1-229.1,4.7-228.7,4.1-228.7z"/>
		</g>
		<g>
			<path class="st7" d="M-30.6-278.1h-12.5c-0.3,0-0.5-0.2-0.5-0.5v-12.5c0-0.3,0.2-0.5,0.5-0.5h12.5c0.3,0,0.5,0.2,0.5,0.5v12.5
				C-30.1-278.3-30.3-278.1-30.6-278.1z M-42.6-279.1h11.5v-11.5h-11.5V-279.1z"/>
		</g>
		<g>
			<path class="st7" d="M-7.4-284.3h-18.1c-0.3,0-0.5-0.2-0.5-0.5s0.2-0.5,0.5-0.5h18.1c0.3,0,0.5,0.2,0.5,0.5S-7.1-284.3-7.4-284.3
				z"/>
		</g>
		<g>
			<path class="st7" d="M-7.4-279.9h-18.1c-0.3,0-0.5-0.2-0.5-0.5s0.2-0.5,0.5-0.5h18.1c0.3,0,0.5,0.2,0.5,0.5S-7.1-279.9-7.4-279.9
				z"/>
		</g>
		<g>
			<path class="st7" d="M-8-269.3h-30.4c-0.4,0-0.8-0.3-0.8-0.8s0.3-0.8,0.8-0.8H-8c0.4,0,0.8,0.3,0.8,0.8S-7.6-269.3-8-269.3z"/>
		</g>
		<g>
			<path class="st7" d="M-8-261.9h-30.4c-0.4,0-0.8-0.3-0.8-0.8s0.3-0.8,0.8-0.8H-8c0.4,0,0.8,0.3,0.8,0.8S-7.6-261.9-8-261.9z"/>
		</g>
		<g>
			<path class="st7" d="M-14-254.5h-24.4c-0.4,0-0.8-0.3-0.8-0.8s0.3-0.8,0.8-0.8H-14c0.4,0,0.8,0.3,0.8,0.8S-13.6-254.5-14-254.5z"
				/>
		</g>
		<g>
			<path class="st7" d="M-18-247.2h-20.4c-0.4,0-0.8-0.3-0.8-0.8s0.3-0.8,0.8-0.8H-18c0.4,0,0.8,0.3,0.8,0.8S-17.6-247.2-18-247.2z"
				/>
		</g>
		<g>
			<path class="st7" d="M-19-239.8h-19.4c-0.4,0-0.8-0.3-0.8-0.8s0.3-0.8,0.8-0.8H-19c0.4,0,0.8,0.3,0.8,0.8S-18.6-239.8-19-239.8z"
				/>
		</g>
		<g>
			<g>
				<path class="st7" d="M-14.6-239.5c-0.3,0-0.5-0.1-0.7-0.3c-0.2-0.2-0.3-0.6-0.3-0.9l1.6-8.8c0-0.2,0.1-0.4,0.3-0.5l18.5-18.5
					c0.2-0.2,0.4-0.3,0.7-0.3l0,0c0.3,0,0.5,0.1,0.7,0.3l7.2,7.2c0.4,0.4,0.4,1,0,1.4l-18.5,18.5c-0.1,0.1-0.3,0.2-0.5,0.3l-8.8,1.6
					C-14.5-239.5-14.6-239.5-14.6-239.5z M-12.2-248.8l-1.3,7.1l7-1.3l17.6-17.6l-5.8-5.8L-12.2-248.8z"/>
			</g>
			<g>
				
					<rect x="-10.5" y="-250.8" transform="matrix(0.7072 -0.707 0.707 0.7072 170.9481 -78.656)" class="st7" width="2" height="10.2"/>
			</g>
			<g>
				
					<rect x="-13.3" y="-256" transform="matrix(0.7071 -0.7071 0.7071 0.7071 180.216 -74.8409)" class="st7" width="26.2" height="2"/>
			</g>
			<g>
				<path class="st7" d="M13.3-259.9l-1.4-1.4l2.1-2.1l-5.8-5.8l-2.1,2.1l-1.4-1.4l2.8-2.9c0.2-0.2,0.4-0.3,0.7-0.3l0,0
					c0.3,0,0.5,0.1,0.7,0.3l7.2,7.2c0.4,0.4,0.4,1,0,1.4L13.3-259.9z"/>
			</g>
		</g>
	</g>
	<g>
		<rect x="-155" y="-54.5" class="st17" width="27.3" height="34.4"/>
		<rect x="-159" y="-58.5" class="st8" width="27.3" height="34.4"/>
		<g>
			<line class="st15" x1="-152.9" y1="-51.5" x2="-137.8" y2="-51.5"/>
			<line class="st15" x1="-152.9" y1="-47.4" x2="-137.8" y2="-47.4"/>
			<line class="st15" x1="-152.9" y1="-43.4" x2="-137.8" y2="-43.4"/>
			<line class="st15" x1="-152.9" y1="-39.3" x2="-137.8" y2="-39.3"/>
			<line class="st15" x1="-152.9" y1="-35.3" x2="-137.8" y2="-35.3"/>
			<line class="st15" x1="-152.9" y1="-31.2" x2="-137.8" y2="-31.2"/>
		</g>
	</g>
	<g>
		<rect x="-76.1" y="-54.5" class="st17" width="27.3" height="34.4"/>
		<polyline class="st13" points="-52.8,-29.3 -52.8,-24.1 -80.1,-24.1 -80.1,-58.5 -52.8,-58.5 -52.8,-47.3 		"/>
		<g>
			<line class="st15" x1="-74.1" y1="-51.5" x2="-58.9" y2="-51.5"/>
			<line class="st15" x1="-74.1" y1="-47.4" x2="-58.9" y2="-47.4"/>
			<line class="st15" x1="-74.1" y1="-43.4" x2="-58.9" y2="-43.4"/>
			<line class="st15" x1="-74.1" y1="-39.3" x2="-59.8" y2="-39.3"/>
			<line class="st15" x1="-74.1" y1="-35.3" x2="-63.2" y2="-35.3"/>
			<line class="st15" x1="-74.1" y1="-31.2" x2="-63.9" y2="-31.2"/>
		</g>
		<g>
			<polygon class="st18" points="-51.4,-43.8 -60.1,-35 -60.8,-30.9 -56.7,-31.6 -47.9,-40.4 			"/>
			<line class="st18" x1="-60.1" y1="-35" x2="-56.7" y2="-31.6"/>
			<line class="st19" x1="-49.7" y1="-42.1" x2="-58.4" y2="-33.3"/>
			<polyline class="st18" points="-51.4,-43.8 -50,-45.1 -46.6,-41.7 -47.9,-40.4 			"/>
		</g>
	</g>
	<g>
		<rect x="5" y="-54.5" class="st17" width="27.3" height="34.4"/>
		<polyline class="st13" points="28.3,-29.3 28.3,-24.1 1,-24.1 1,-58.5 28.3,-58.5 28.3,-47.3 		"/>
		<g>
			<line class="st15" x1="7.1" y1="-51.5" x2="22.2" y2="-51.5"/>
			<line class="st15" x1="7.1" y1="-47.4" x2="22.2" y2="-47.4"/>
			<line class="st15" x1="7.1" y1="-43.4" x2="17.2" y2="-43.4"/>
			<line class="st15" x1="7.1" y1="-39.3" x2="16.3" y2="-39.3"/>
			<line class="st15" x1="7.1" y1="-35.3" x2="17.9" y2="-35.3"/>
			<line class="st15" x1="7.1" y1="-31.2" x2="22.2" y2="-31.2"/>
		</g>
		<path class="st9" d="M28.4-40.9c0.5,2.5-1.1,5-3.6,5.5c-2.5,0.5-5-1.1-5.5-3.6c-0.5-2.5,1.1-5,3.6-5.5
			C25.4-45,27.9-43.4,28.4-40.9z"/>
		<path class="st9" d="M28.4-40.9c0.5,2.5-1.1,5-3.6,5.5c-2.5,0.5-5-1.1-5.5-3.6c-0.5-2.5,1.1-5,3.6-5.5
			C25.4-45,27.9-43.4,28.4-40.9z"/>
		<line class="st9" x1="27" y1="-36.5" x2="31.3" y2="-31.6"/>
	</g>
	<g>
		<g class="st10">
			<rect x="-155" y="5" class="st1" width="27.3" height="34.4"/>
		</g>
		<g>
			<path class="st7" d="M-131.7,36.4H-159c-0.6,0-1-0.4-1-1V1c0-0.6,0.4-1,1-1h27.3c0.6,0,1,0.4,1,1v34.4
				C-130.7,35.9-131.2,36.4-131.7,36.4z M-158,34.4h25.3V2H-158V34.4z"/>
		</g>
		<g>
			<g>
				<path class="st7" d="M-137.8,8.8h-15.2c-0.4,0-0.8-0.3-0.8-0.8s0.3-0.8,0.8-0.8h15.2c0.4,0,0.8,0.3,0.8,0.8
					S-137.4,8.8-137.8,8.8z"/>
			</g>
			<g>
				<path class="st7" d="M-137.8,12.9h-15.2c-0.4,0-0.8-0.3-0.8-0.8s0.3-0.8,0.8-0.8h15.2c0.4,0,0.8,0.3,0.8,0.8
					S-137.4,12.9-137.8,12.9z"/>
			</g>
			<g>
				<path class="st7" d="M-137.8,16.9h-15.2c-0.4,0-0.8-0.3-0.8-0.8s0.3-0.8,0.8-0.8h15.2c0.4,0,0.8,0.3,0.8,0.8
					S-137.4,16.9-137.8,16.9z"/>
			</g>
			<g>
				<path class="st7" d="M-137.8,21h-15.2c-0.4,0-0.8-0.3-0.8-0.8s0.3-0.8,0.8-0.8h15.2c0.4,0,0.8,0.3,0.8,0.8S-137.4,21-137.8,21z"
					/>
			</g>
			<g>
				<path class="st7" d="M-137.8,25h-15.2c-0.4,0-0.8-0.3-0.8-0.8s0.3-0.8,0.8-0.8h15.2c0.4,0,0.8,0.3,0.8,0.8S-137.4,25-137.8,25z"
					/>
			</g>
			<g>
				<path class="st7" d="M-137.8,29.1h-15.2c-0.4,0-0.8-0.3-0.8-0.8s0.3-0.8,0.8-0.8h15.2c0.4,0,0.8,0.3,0.8,0.8
					S-137.4,29.1-137.8,29.1z"/>
			</g>
		</g>
	</g>
	<g>
		<g class="st10">
			<rect x="-76.1" y="5" class="st1" width="27.3" height="34.4"/>
		</g>
		<g>
			<path class="st7" d="M-52.8,36.4h-27.3c-0.6,0-1-0.4-1-1V1c0-0.6,0.4-1,1-1h27.3c0.6,0,1,0.4,1,1v11.3c0,0.6-0.4,1-1,1
				s-1-0.4-1-1V2h-25.3v32.4h25.3v-4.1c0-0.6,0.4-1,1-1s1,0.4,1,1v5.1C-51.8,35.9-52.3,36.4-52.8,36.4z"/>
		</g>
		<g>
			<g>
				<path class="st7" d="M-58.9,8.8h-15.2c-0.4,0-0.8-0.3-0.8-0.8s0.3-0.8,0.8-0.8h15.2c0.4,0,0.8,0.3,0.8,0.8S-58.5,8.8-58.9,8.8z"
					/>
			</g>
			<g>
				<path class="st7" d="M-58.9,12.9h-15.2c-0.4,0-0.8-0.3-0.8-0.8s0.3-0.8,0.8-0.8h15.2c0.4,0,0.8,0.3,0.8,0.8
					S-58.5,12.9-58.9,12.9z"/>
			</g>
			<g>
				<path class="st7" d="M-58.9,16.9h-15.2c-0.4,0-0.8-0.3-0.8-0.8s0.3-0.8,0.8-0.8h15.2c0.4,0,0.8,0.3,0.8,0.8
					S-58.5,16.9-58.9,16.9z"/>
			</g>
			<g>
				<path class="st7" d="M-59.8,21h-14.3c-0.4,0-0.8-0.3-0.8-0.8s0.3-0.8,0.8-0.8h14.3c0.4,0,0.8,0.3,0.8,0.8S-59.4,21-59.8,21z"/>
			</g>
			<g>
				<path class="st7" d="M-63.2,25h-10.9c-0.4,0-0.8-0.3-0.8-0.8s0.3-0.8,0.8-0.8h10.9c0.4,0,0.8,0.3,0.8,0.8S-62.8,25-63.2,25z"/>
			</g>
			<g>
				<path class="st7" d="M-63.9,29.1h-10.2c-0.4,0-0.8-0.3-0.8-0.8s0.3-0.8,0.8-0.8h10.2c0.4,0,0.8,0.3,0.8,0.8
					S-63.5,29.1-63.9,29.1z"/>
			</g>
		</g>
		<g>
			<g>
				<path class="st20" d="M-60.8,29.2c-0.1,0-0.3-0.1-0.4-0.1c-0.1-0.1-0.2-0.3-0.1-0.4l0.7-4.1c0-0.1,0.1-0.2,0.1-0.3l8.7-8.7
					c0.1-0.1,0.2-0.1,0.4-0.1l0,0c0.1,0,0.3,0.1,0.4,0.1l3.4,3.4c0.2,0.2,0.2,0.5,0,0.7l-8.7,8.7c-0.1,0.1-0.2,0.1-0.3,0.1
					L-60.8,29.2C-60.8,29.2-60.8,29.2-60.8,29.2z M-59.6,24.8l-0.6,3.3l3.3-0.6l8.3-8.3l-2.7-2.7L-59.6,24.8z"/>
			</g>
			<g>
				<path class="st20" d="M-56.7,28.4c-0.1,0-0.3,0-0.4-0.1l-3.4-3.4c-0.2-0.2-0.2-0.5,0-0.7s0.5-0.2,0.7,0l3.4,3.4
					c0.2,0.2,0.2,0.5,0,0.7C-56.4,28.4-56.6,28.4-56.7,28.4z"/>
			</g>
			<g>
				
					<rect x="-60.2" y="21.3" transform="matrix(0.7071 -0.7071 0.7071 0.7071 -31.269 -31.8025)" class="st20" width="12.4" height="1"/>
			</g>
			<g>
				<path class="st20" d="M-47.9,19.7c-0.1,0-0.3,0-0.4-0.1c-0.2-0.2-0.2-0.5,0-0.7l1-1l-2.7-2.7l-1,1c-0.2,0.2-0.5,0.2-0.7,0
					s-0.2-0.5,0-0.7l1.3-1.3c0.1-0.1,0.2-0.1,0.4-0.1l0,0c0.1,0,0.3,0.1,0.4,0.1l3.4,3.4c0.2,0.2,0.2,0.5,0,0.7l-1.3,1.3
					C-47.7,19.6-47.8,19.7-47.9,19.7z"/>
			</g>
		</g>
	</g>
	<g>
		<g class="st10">
			<rect x="5" y="5" class="st1" width="27.3" height="34.4"/>
		</g>
		<g>
			<path class="st7" d="M28.3,36.4H1c-0.6,0-1-0.4-1-1V1c0-0.6,0.4-1,1-1h27.3c0.6,0,1,0.4,1,1v11.3c0,0.6-0.4,1-1,1s-1-0.4-1-1V2H2
				v32.4h25.3v-4.1c0-0.6,0.4-1,1-1s1,0.4,1,1v5.1C29.3,35.9,28.8,36.4,28.3,36.4z"/>
		</g>
		<g>
			<g>
				<path class="st7" d="M22.2,8.8H7.1c-0.4,0-0.8-0.3-0.8-0.8s0.3-0.8,0.8-0.8h15.2c0.4,0,0.8,0.3,0.8,0.8S22.6,8.8,22.2,8.8z"/>
			</g>
			<g>
				<path class="st7" d="M22.2,12.9H7.1c-0.4,0-0.8-0.3-0.8-0.8s0.3-0.8,0.8-0.8h15.2c0.4,0,0.8,0.3,0.8,0.8S22.6,12.9,22.2,12.9z"
					/>
			</g>
			<g>
				<path class="st7" d="M17.2,16.9H7.1c-0.4,0-0.8-0.3-0.8-0.8s0.3-0.8,0.8-0.8h10.2c0.4,0,0.8,0.3,0.8,0.8S17.6,16.9,17.2,16.9z"
					/>
			</g>
			<g>
				<path class="st7" d="M16.3,21H7.1c-0.4,0-0.8-0.3-0.8-0.8s0.3-0.8,0.8-0.8h9.3c0.4,0,0.8,0.3,0.8,0.8S16.8,21,16.3,21z"/>
			</g>
			<g>
				<path class="st7" d="M17.9,25H7.1c-0.4,0-0.8-0.3-0.8-0.8s0.3-0.8,0.8-0.8h10.9c0.4,0,0.8,0.3,0.8,0.8S18.3,25,17.9,25z"/>
			</g>
			<g>
				<path class="st7" d="M22.2,29.1H7.1c-0.4,0-0.8-0.3-0.8-0.8s0.3-0.8,0.8-0.8h15.2c0.4,0,0.8,0.3,0.8,0.8S22.6,29.1,22.2,29.1z"
					/>
			</g>
		</g>
		<g>
			<path class="st7" d="M23.9,24.8c-2.4,0-4.5-1.7-5.1-4.1c-0.3-1.3,0-2.7,0.7-3.9c0.8-1.2,1.9-1.9,3.3-2.2c2.8-0.6,5.5,1.2,6.1,4
				c0.3,1.3,0,2.7-0.7,3.9c-0.8,1.2-1.9,1.9-3.3,2.2C24.6,24.7,24.2,24.8,23.9,24.8z M23.9,15.4c-0.3,0-0.6,0-0.8,0.1
				c-1.1,0.2-2,0.9-2.6,1.8c-0.6,0.9-0.8,2-0.6,3.1c0.5,2.2,2.7,3.7,4.9,3.2c1.1-0.2,2-0.9,2.6-1.8c0.6-0.9,0.8-2,0.6-3.1
				C27.5,16.8,25.8,15.4,23.9,15.4z"/>
		</g>
		<g>
			<path class="st7" d="M23.9,24.8c-2.4,0-4.5-1.7-5.1-4.1c-0.3-1.3,0-2.7,0.7-3.9c0.8-1.2,1.9-1.9,3.3-2.2c2.8-0.6,5.5,1.2,6.1,4
				c0.3,1.3,0,2.7-0.7,3.9c-0.8,1.2-1.9,1.9-3.3,2.2C24.6,24.7,24.2,24.8,23.9,24.8z M23.9,15.4c-0.3,0-0.6,0-0.8,0.1
				c-1.1,0.2-2,0.9-2.6,1.8c-0.6,0.9-0.8,2-0.6,3.1c0.5,2.2,2.7,3.7,4.9,3.2c1.1-0.2,2-0.9,2.6-1.8c0.6-0.9,0.8-2,0.6-3.1
				C27.5,16.8,25.8,15.4,23.9,15.4z"/>
		</g>
		<g>
			<path class="st7" d="M31.3,28.4c-0.1,0-0.3-0.1-0.4-0.2l-4.3-4.8c-0.2-0.2-0.2-0.5,0-0.7s0.5-0.2,0.7,0l4.3,4.8
				c0.2,0.2,0.2,0.5,0,0.7C31.5,28.4,31.4,28.4,31.3,28.4z"/>
		</g>
	</g>
	<rect x="107.3" y="-293.3" class="st21" width="54.6" height="68.8"/>
	<g>
		<line class="st15" x1="113.6" y1="-285.8" x2="143.9" y2="-285.8"/>
		<line class="st15" x1="113.6" y1="-278.3" x2="143.9" y2="-278.3"/>
		<line class="st15" x1="113.6" y1="-270.8" x2="136.9" y2="-270.8"/>
		<line class="st15" x1="113.6" y1="-263.3" x2="133.9" y2="-263.3"/>
		<line class="st15" x1="113.6" y1="-255.8" x2="133.9" y2="-255.8"/>
		<line class="st15" x1="113.6" y1="-248.3" x2="136.9" y2="-248.3"/>
	</g>
	<polyline class="st13" points="156,-243.4 156,-230.5 101.4,-230.5 101.4,-299.2 156,-299.2 156,-276.5 	"/>
	<rect x="107.3" y="-177.1" class="st12" width="54.6" height="68.8"/>
	<polyline class="st13" points="156,-127.2 156,-114.2 101.4,-114.2 101.4,-183 156,-183 156,-127.2 	"/>
	<g>
		<polyline class="st13" points="144.3,-258.2 148,-253.6 154.5,-264.7 		"/>
		<path class="st13" d="M162.2-259.9c0,6.7-5.5,12.2-12.2,12.2c-6.7,0-12.2-5.5-12.2-12.2c0-6.7,5.5-12.2,12.2-12.2
			C156.8-272.1,162.2-266.6,162.2-259.9z"/>
	</g>
	<g>
		<g class="st22">
			<rect x="223.6" y="-293.3" class="st3" width="54.6" height="68.8"/>
		</g>
		<g>
			<g>
				<path class="st7" d="M260.1-285h-30.4c-0.4,0-0.8-0.3-0.8-0.8s0.3-0.8,0.8-0.8h30.4c0.4,0,0.8,0.3,0.8,0.8S260.5-285,260.1-285z
					"/>
			</g>
			<g>
				<path class="st7" d="M260.1-277.6h-30.4c-0.4,0-0.8-0.3-0.8-0.8s0.3-0.8,0.8-0.8h30.4c0.4,0,0.8,0.3,0.8,0.8
					S260.5-277.6,260.1-277.6z"/>
			</g>
			<g>
				<path class="st7" d="M253.1-270.1h-23.4c-0.4,0-0.8-0.3-0.8-0.8s0.3-0.8,0.8-0.8h23.4c0.4,0,0.8,0.3,0.8,0.8
					S253.5-270.1,253.1-270.1z"/>
			</g>
			<g>
				<path class="st7" d="M250.1-262.6h-20.4c-0.4,0-0.8-0.3-0.8-0.8s0.3-0.8,0.8-0.8h20.4c0.4,0,0.8,0.3,0.8,0.8
					S250.5-262.6,250.1-262.6z"/>
			</g>
			<g>
				<path class="st7" d="M250.1-255.1h-20.4c-0.4,0-0.8-0.3-0.8-0.8s0.3-0.8,0.8-0.8h20.4c0.4,0,0.8,0.3,0.8,0.8
					S250.5-255.1,250.1-255.1z"/>
			</g>
			<g>
				<path class="st7" d="M253.1-247.6h-23.4c-0.4,0-0.8-0.3-0.8-0.8s0.3-0.8,0.8-0.8h23.4c0.4,0,0.8,0.3,0.8,0.8
					S253.5-247.6,253.1-247.6z"/>
			</g>
		</g>
		<g>
			<path class="st7" d="M272.2-229.5h-54.6c-0.6,0-1-0.4-1-1v-68.8c0-0.6,0.4-1,1-1h54.6c0.6,0,1,0.4,1,1v22.7c0,0.6-0.4,1-1,1
				s-1-0.4-1-1v-21.7h-52.6v66.8h52.6v-11.9c0-0.6,0.4-1,1-1s1,0.4,1,1v12.9C273.2-229.9,272.8-229.5,272.2-229.5z"/>
		</g>
		<g>
			<g>
				<path class="st7" d="M264.2-252.6c-0.3,0-0.6-0.1-0.8-0.4l-3.7-4.6c-0.3-0.4-0.3-1.1,0.2-1.4c0.4-0.3,1.1-0.3,1.4,0.2l2.8,3.5
					l5.8-9.9c0.3-0.5,0.9-0.6,1.4-0.4c0.5,0.3,0.6,0.9,0.4,1.4l-6.5,11.2C264.9-252.8,264.6-252.6,264.2-252.6
					C264.2-252.6,264.2-252.6,264.2-252.6z"/>
			</g>
			<g>
				<path class="st7" d="M266.2-246.6c-7.3,0-13.2-5.9-13.2-13.2s5.9-13.2,13.2-13.2c7.3,0,13.2,5.9,13.2,13.2
					S273.5-246.6,266.2-246.6z M266.2-271.1c-6.2,0-11.2,5-11.2,11.2s5,11.2,11.2,11.2s11.2-5,11.2-11.2S272.4-271.1,266.2-271.1z"
					/>
			</g>
		</g>
	</g>
	<g>
		<line class="st9" x1="122" y1="-169.6" x2="146.5" y2="-169.6"/>
		<circle class="st9" cx="113.8" cy="-169.6" r="2.9"/>
	</g>
	<g>
		<line class="st9" x1="122" y1="-158.2" x2="146.5" y2="-158.2"/>
		<circle class="st9" cx="113.8" cy="-158.2" r="2.9"/>
	</g>
	<g>
		<line class="st9" x1="122" y1="-146.9" x2="146.5" y2="-146.9"/>
		<circle class="st9" cx="113.8" cy="-146.9" r="2.9"/>
	</g>
	<g>
		<line class="st9" x1="122" y1="-135.6" x2="146.5" y2="-135.6"/>
		<circle class="st9" cx="113.8" cy="-135.6" r="2.9"/>
	</g>
	<g>
		<g class="st16">
			<rect x="223.6" y="-177.1" class="st0" width="54.6" height="68.8"/>
		</g>
		<g>
			<path class="st7" d="M272.2-113.2h-54.6c-0.6,0-1-0.4-1-1V-183c0-0.6,0.4-1,1-1h54.6c0.6,0,1,0.4,1,1v68.8
				C273.2-113.7,272.8-113.2,272.2-113.2z M218.7-115.2h52.6V-182h-52.6V-115.2z"/>
		</g>
		<g>
			<g>
				<path class="st7" d="M262.8-168.9h-24.5c-0.4,0-0.7-0.3-0.7-0.7s0.3-0.7,0.7-0.7h24.5c0.4,0,0.7,0.3,0.7,0.7
					S263.1-168.9,262.8-168.9z"/>
			</g>
			<g>
				<path class="st7" d="M230-166c-2,0-3.6-1.6-3.6-3.6c0-2,1.6-3.6,3.6-3.6c2,0,3.6,1.6,3.6,3.6C233.6-167.6,232-166,230-166z
					 M230-171.8c-1.2,0-2.2,1-2.2,2.2s1,2.2,2.2,2.2s2.2-1,2.2-2.2S231.3-171.8,230-171.8z"/>
			</g>
		</g>
		<g>
			<g>
				<path class="st7" d="M262.8-157.6h-24.5c-0.4,0-0.7-0.3-0.7-0.7s0.3-0.7,0.7-0.7h24.5c0.4,0,0.7,0.3,0.7,0.7
					S263.1-157.6,262.8-157.6z"/>
			</g>
			<g>
				<path class="st7" d="M230-154.7c-2,0-3.6-1.6-3.6-3.6s1.6-3.6,3.6-3.6c2,0,3.6,1.6,3.6,3.6S232-154.7,230-154.7z M230-160.5
					c-1.2,0-2.2,1-2.2,2.2s1,2.2,2.2,2.2s2.2-1,2.2-2.2S231.3-160.5,230-160.5z"/>
			</g>
		</g>
		<g>
			<g>
				<path class="st7" d="M262.8-146.2h-24.5c-0.4,0-0.7-0.3-0.7-0.7s0.3-0.7,0.7-0.7h24.5c0.4,0,0.7,0.3,0.7,0.7
					S263.1-146.2,262.8-146.2z"/>
			</g>
			<g>
				<path class="st7" d="M230-143.3c-2,0-3.6-1.6-3.6-3.6c0-2,1.6-3.6,3.6-3.6c2,0,3.6,1.6,3.6,3.6C233.6-144.9,232-143.3,230-143.3
					z M230-149.1c-1.2,0-2.2,1-2.2,2.2s1,2.2,2.2,2.2s2.2-1,2.2-2.2S231.3-149.1,230-149.1z"/>
			</g>
		</g>
		<g>
			<g>
				<path class="st7" d="M262.8-134.9h-24.5c-0.4,0-0.7-0.3-0.7-0.7s0.3-0.7,0.7-0.7h24.5c0.4,0,0.7,0.3,0.7,0.7
					S263.1-134.9,262.8-134.9z"/>
			</g>
			<g>
				<path class="st7" d="M230-132c-2,0-3.6-1.6-3.6-3.6s1.6-3.6,3.6-3.6c2,0,3.6,1.6,3.6,3.6S232-132,230-132z M230-137.8
					c-1.2,0-2.2,1-2.2,2.2s1,2.2,2.2,2.2s2.2-1,2.2-2.2S231.3-137.8,230-137.8z"/>
			</g>
		</g>
	</g>
	<path class="st23" d="M379.6-173.6h20.2c2.8,0,5,2.2,5,5v48.6c0,2.8-2.2,5-5,5h-58.2c-2.8,0-5-2.2-5-5v-48.6c0-2.8,2.2-5,5-5h20.2"
		/>
	<path class="st23" d="M379.6-173.6h20.2c2.8,0,5,2.2,5,5v48.6c0,2.8-2.2,5-5,5h-58.2c-2.8,0-5-2.2-5-5v-48.6c0-2.8,2.2-5,5-5h20.2"
		/>
	<line class="st23" x1="365.4" y1="-173.6" x2="375.9" y2="-173.6"/>
	<g>
		<rect x="345.6" y="-162.3" class="st9" width="7.6" height="7.6"/>
		<rect x="359.8" y="-162.3" class="st9" width="7.6" height="7.6"/>
		<rect x="374" y="-162.3" class="st9" width="7.6" height="7.6"/>
		<rect x="388.2" y="-162.3" class="st9" width="7.6" height="7.6"/>
	</g>
	<g>
		<rect x="345.6" y="-148.1" class="st9" width="7.6" height="7.6"/>
		<rect x="359.8" y="-148.1" class="st9" width="7.6" height="7.6"/>
		<rect x="374" y="-148.1" class="st9" width="7.6" height="7.6"/>
		<rect x="388.2" y="-148.1" class="st9" width="7.6" height="7.6"/>
	</g>
	<g>
		<rect x="345.6" y="-133.9" class="st9" width="7.6" height="7.6"/>
		<rect x="359.8" y="-133.9" class="st9" width="7.6" height="7.6"/>
		<rect x="374" y="-133.9" class="st9" width="7.6" height="7.6"/>
		<rect x="388.2" y="-133.9" class="st9" width="7.6" height="7.6"/>
	</g>
	<path class="st23" d="M363.6-178.8L363.6-178.8c-1,0-1.8,0.8-1.8,1.8v6.7c0,1,0.8,1.8,1.8,1.8l0,0c1,0,1.8-0.8,1.8-1.8v-6.7
		C365.4-178,364.6-178.8,363.6-178.8z"/>
	<path class="st23" d="M377.8-178.8L377.8-178.8c-1,0-1.8,0.8-1.8,1.8v6.7c0,1,0.8,1.8,1.8,1.8h0c1,0,1.8-0.8,1.8-1.8v-6.7
		C379.6-178,378.8-178.8,377.8-178.8z"/>
	<g>
		<g class="st16">
			<path class="st0" d="M501.5-167.9h20.2c2.8,0,5,2.2,5,5v48.6c0,2.8-2.2,5-5,5h-58.2c-2.8,0-5-2.2-5-5v-48.6c0-2.8,2.2-5,5-5h20.2
				"/>
		</g>
		<g>
			<path class="st7" d="M516-114h-58.2c-3.3,0-6-2.7-6-6v-48.6c0-3.3,2.7-6,6-6H478c0.5,0,1,0.4,1,1s-0.4,1-1,1h-20.2
				c-2.2,0-4,1.8-4,4v48.6c0,2.2,1.8,4,4,4H516c2.2,0,4-1.8,4-4v-48.6c0-2.2-1.8-4-4-4h-20.2c-0.5,0-1-0.4-1-1s0.4-1,1-1H516
				c3.3,0,6,2.7,6,6v48.6C522-116.7,519.3-114,516-114z"/>
		</g>
		<g>
			<path class="st7" d="M516-114h-58.2c-3.3,0-6-2.7-6-6v-48.6c0-3.3,2.7-6,6-6H478c0.5,0,1,0.4,1,1s-0.4,1-1,1h-20.2
				c-2.2,0-4,1.8-4,4v48.6c0,2.2,1.8,4,4,4H516c2.2,0,4-1.8,4-4v-48.6c0-2.2-1.8-4-4-4h-20.2c-0.5,0-1-0.4-1-1s0.4-1,1-1H516
				c3.3,0,6,2.7,6,6v48.6C522-116.7,519.3-114,516-114z"/>
		</g>
		<g>
			<path class="st7" d="M492.2-172.6h-10.5c-0.5,0-1-0.4-1-1s0.4-1,1-1h10.5c0.5,0,1,0.4,1,1S492.7-172.6,492.2-172.6z"/>
		</g>
		<g>
			<g>
				<path class="st7" d="M469.4-154.2h-7.6c-0.3,0-0.5-0.2-0.5-0.5v-7.6c0-0.3,0.2-0.5,0.5-0.5h7.6c0.3,0,0.5,0.2,0.5,0.5v7.6
					C469.9-154.4,469.7-154.2,469.4-154.2z M462.4-155.2h6.6v-6.6h-6.6V-155.2z"/>
			</g>
			<g>
				<path class="st7" d="M483.6-154.2H476c-0.3,0-0.5-0.2-0.5-0.5v-7.6c0-0.3,0.2-0.5,0.5-0.5h7.6c0.3,0,0.5,0.2,0.5,0.5v7.6
					C484.1-154.4,483.9-154.2,483.6-154.2z M476.5-155.2h6.6v-6.6h-6.6V-155.2z"/>
			</g>
			<g>
				<path class="st7" d="M497.8-154.2h-7.6c-0.3,0-0.5-0.2-0.5-0.5v-7.6c0-0.3,0.2-0.5,0.5-0.5h7.6c0.3,0,0.5,0.2,0.5,0.5v7.6
					C498.3-154.4,498.1-154.2,497.8-154.2z M490.7-155.2h6.6v-6.6h-6.6V-155.2z"/>
			</g>
			<g>
				<path class="st7" d="M512-154.2h-7.6c-0.3,0-0.5-0.2-0.5-0.5v-7.6c0-0.3,0.2-0.5,0.5-0.5h7.6c0.3,0,0.5,0.2,0.5,0.5v7.6
					C512.5-154.4,512.2-154.2,512-154.2z M504.9-155.2h6.6v-6.6h-6.6V-155.2z"/>
			</g>
		</g>
		<g>
			<g>
				<path class="st7" d="M469.4-140h-7.6c-0.3,0-0.5-0.2-0.5-0.5v-7.6c0-0.3,0.2-0.5,0.5-0.5h7.6c0.3,0,0.5,0.2,0.5,0.5v7.6
					C469.9-140.2,469.7-140,469.4-140z M462.4-141h6.6v-6.6h-6.6V-141z"/>
			</g>
			<g>
				<path class="st7" d="M483.6-140H476c-0.3,0-0.5-0.2-0.5-0.5v-7.6c0-0.3,0.2-0.5,0.5-0.5h7.6c0.3,0,0.5,0.2,0.5,0.5v7.6
					C484.1-140.2,483.9-140,483.6-140z M476.5-141h6.6v-6.6h-6.6V-141z"/>
			</g>
			<g>
				<path class="st7" d="M497.8-140h-7.6c-0.3,0-0.5-0.2-0.5-0.5v-7.6c0-0.3,0.2-0.5,0.5-0.5h7.6c0.3,0,0.5,0.2,0.5,0.5v7.6
					C498.3-140.2,498.1-140,497.8-140z M490.7-141h6.6v-6.6h-6.6V-141z"/>
			</g>
			<g>
				<path class="st7" d="M512-140h-7.6c-0.3,0-0.5-0.2-0.5-0.5v-7.6c0-0.3,0.2-0.5,0.5-0.5h7.6c0.3,0,0.5,0.2,0.5,0.5v7.6
					C512.5-140.2,512.2-140,512-140z M504.9-141h6.6v-6.6h-6.6V-141z"/>
			</g>
		</g>
		<g>
			<g>
				<path class="st7" d="M469.4-125.8h-7.6c-0.3,0-0.5-0.2-0.5-0.5v-7.6c0-0.3,0.2-0.5,0.5-0.5h7.6c0.3,0,0.5,0.2,0.5,0.5v7.6
					C469.9-126.1,469.7-125.8,469.4-125.8z M462.4-126.8h6.6v-6.6h-6.6V-126.8z"/>
			</g>
			<g>
				<path class="st7" d="M483.6-125.8H476c-0.3,0-0.5-0.2-0.5-0.5v-7.6c0-0.3,0.2-0.5,0.5-0.5h7.6c0.3,0,0.5,0.2,0.5,0.5v7.6
					C484.1-126.1,483.9-125.8,483.6-125.8z M476.5-126.8h6.6v-6.6h-6.6V-126.8z"/>
			</g>
			<g>
				<path class="st7" d="M497.8-125.8h-7.6c-0.3,0-0.5-0.2-0.5-0.5v-7.6c0-0.3,0.2-0.5,0.5-0.5h7.6c0.3,0,0.5,0.2,0.5,0.5v7.6
					C498.3-126.1,498.1-125.8,497.8-125.8z M490.7-126.8h6.6v-6.6h-6.6V-126.8z"/>
			</g>
			<g>
				<path class="st7" d="M512-125.8h-7.6c-0.3,0-0.5-0.2-0.5-0.5v-7.6c0-0.3,0.2-0.5,0.5-0.5h7.6c0.3,0,0.5,0.2,0.5,0.5v7.6
					C512.5-126.1,512.2-125.8,512-125.8z M504.9-126.8h6.6v-6.6h-6.6V-126.8z"/>
			</g>
		</g>
		<g>
			<path class="st7" d="M479.8-167.4c-1.5,0-2.8-1.3-2.8-2.8v-6.7c0-1.5,1.3-2.8,2.8-2.8c1.5,0,2.8,1.3,2.8,2.8v6.7
				C482.6-168.7,481.4-167.4,479.8-167.4z M479.8-177.8c-0.5,0-0.9,0.4-0.9,0.9v6.7c0,0.5,0.4,0.9,0.9,0.9s0.9-0.4,0.9-0.9v-6.7
				C480.7-177.4,480.3-177.8,479.8-177.8z"/>
		</g>
		<g>
			<path class="st7" d="M494-167.4c-1.5,0-2.8-1.3-2.8-2.8v-6.7c0-1.5,1.3-2.8,2.8-2.8c1.5,0,2.8,1.3,2.8,2.8v6.7
				C496.8-168.7,495.5-167.4,494-167.4z M494-177.8c-0.5,0-0.9,0.4-0.9,0.9v6.7c0,0.5,0.4,0.9,0.9,0.9s0.9-0.4,0.9-0.9v-6.7
				C494.9-177.4,494.5-177.8,494-177.8z"/>
		</g>
	</g>
	<g>
		<path class="st21" d="M398.5-265.5L398.5-265.5c0.8-2.5,1.2-5.2,1.2-8c0-14.7-11.9-26.7-26.7-26.7s-26.7,11.9-26.7,26.7
			c0,2.8,0.4,5.5,1.2,8h0l0,0c0.3,1,0.7,2,1.1,3l10.4,27.2H387l10.4-27.2C397.8-263.5,398.2-264.5,398.5-265.5L398.5-265.5z"/>
		<path class="st13" d="M392.8-271.2L392.8-271.2c0.8-2.5,1.2-5.2,1.2-8c0-14.7-11.9-26.7-26.7-26.7c-14.7,0-26.7,11.9-26.7,26.7
			c0,2.8,0.4,5.5,1.2,8h0l0,0c0.3,1,0.7,2,1.1,3l10.4,27.2h27.8l10.4-27.2C392.1-269.1,392.5-270.1,392.8-271.2L392.8-271.2z"/>
		<line class="st13" x1="353.5" y1="-236" x2="381.3" y2="-236"/>
		<line class="st13" x1="356" y1="-230.8" x2="378.8" y2="-230.8"/>
		<line class="st13" x1="358.4" y1="-225.7" x2="376.4" y2="-225.7"/>
		<polyline class="st13" points="363.3,-240.9 358.4,-259.5 376.4,-259.5 371.5,-240.9 		"/>
		<line class="st13" x1="360.9" y1="-263.2" x2="373.9" y2="-263.2"/>
		<line class="st13" x1="363.3" y1="-266.9" x2="371.5" y2="-266.9"/>
	</g>
	<path class="st13" d="M347-278.7c0-11.3,9.2-20.4,20.4-20.4"/>
	<g>
		<g>
			<g class="st16">
				<path class="st3" d="M514.7-265.5L514.7-265.5c0.8-2.5,1.2-5.2,1.2-8c0-14.7-11.9-26.7-26.7-26.7s-26.7,11.9-26.7,26.7
					c0,2.8,0.4,5.5,1.2,8h0l0,0c0.3,1,0.7,2,1.1,3l10.4,27.2h27.8l10.4-27.2C514-263.5,514.4-264.5,514.7-265.5L514.7-265.5z"/>
			</g>
			<g>
				<path class="st7" d="M497.5-239.9h-27.8c-0.4,0-0.8-0.3-0.9-0.6l-10.4-27.2c-0.4-1-0.8-2-1.2-3.1c-0.8-2.7-1.3-5.5-1.3-8.3
					c0-15.2,12.4-27.7,27.7-27.7s27.7,12.4,27.7,27.7c0,2.8-0.4,5.6-1.3,8.3c0,0,0,0,0,0c-0.3,1.1-0.7,2.1-1.2,3.1l-10.4,27.2
					C498.3-240.2,497.9-239.9,497.5-239.9z M470.4-241.9h26.4l10.1-26.6c0.4-1,0.8-2,1.1-3c0,0,0,0,0,0c0.8-2.5,1.2-5,1.2-7.7
					c0-14.1-11.5-25.7-25.7-25.7c-14.1,0-25.7,11.5-25.7,25.7c0,2.6,0.4,5.2,1.2,7.7c0.3,1,0.7,2,1.1,2.9L470.4-241.9z M509.1-271.2
					L509.1-271.2L509.1-271.2z"/>
			</g>
			<g>
				<path class="st7" d="M497.5-235h-27.8c-0.6,0-1-0.4-1-1s0.4-1,1-1h27.8c0.6,0,1,0.4,1,1S498.1-235,497.5-235z"/>
			</g>
			<g>
				<path class="st7" d="M495.1-229.8h-22.9c-0.6,0-1-0.4-1-1s0.4-1,1-1h22.9c0.6,0,1,0.4,1,1S495.6-229.8,495.1-229.8z"/>
			</g>
			<g>
				<path class="st7" d="M492.6-224.7h-18c-0.6,0-1-0.4-1-1s0.4-1,1-1h18c0.6,0,1,0.4,1,1S493.1-224.7,492.6-224.7z"/>
			</g>
			<g>
				<path class="st7" d="M487.7-239.9c-0.1,0-0.2,0-0.3,0c-0.5-0.1-0.9-0.7-0.7-1.2l4.6-17.3h-15.4l4.6,17.3
					c0.1,0.5-0.2,1.1-0.7,1.2c-0.5,0.1-1.1-0.2-1.2-0.7l-4.9-18.6c-0.1-0.3,0-0.6,0.2-0.9c0.2-0.2,0.5-0.4,0.8-0.4h18
					c0.3,0,0.6,0.1,0.8,0.4c0.2,0.2,0.3,0.6,0.2,0.9l-4.9,18.6C488.5-240.2,488.1-239.9,487.7-239.9z"/>
			</g>
			<g>
				<path class="st7" d="M490.1-262.2h-13c-0.6,0-1-0.4-1-1s0.4-1,1-1h13c0.6,0,1,0.4,1,1S490.7-262.2,490.1-262.2z"/>
			</g>
			<g>
				<path class="st7" d="M487.7-265.9h-8.1c-0.6,0-1-0.4-1-1s0.4-1,1-1h8.1c0.6,0,1,0.4,1,1S488.2-265.9,487.7-265.9z"/>
			</g>
		</g>
		<g>
			<path class="st7" d="M463.2-277.7c-0.6,0-1-0.4-1-1c0-11.8,9.6-21.4,21.4-21.4c0.6,0,1,0.4,1,1s-0.4,1-1,1
				c-10.7,0-19.4,8.7-19.4,19.4C464.2-278.1,463.7-277.7,463.2-277.7z"/>
		</g>
	</g>
	<g>
	</g>
	<g>
	</g>
	<g>
	</g>
	<g>
	</g>
	<g>
	</g>
	<g>
	</g>
	<g>
	</g>
	<g>
	</g>
	<g>
	</g>
	<g>
	</g>
	<g>
	</g>
	<g>
	</g>
	<g>
	</g>
	<g>
	</g>
	<g>
	</g>
</g>
</svg>
