<?xml version="1.0" encoding="utf-8"?>
<!-- Generator: Adobe Illustrator 22.1.0, SVG Export Plug-In . SVG Version: 6.00 Build 0)  -->
<svg version="1.1" xmlns="http://www.w3.org/2000/svg" xmlns:xlink="http://www.w3.org/1999/xlink" x="0px" y="0px"
	 viewBox="0 0 32.3 32.3" style="enable-background:new 0 0 32.3 32.3;" xml:space="preserve">
<style type="text/css">
	.st0{fill:#81BCBF;}
	.st1{fill:#585799;}
	.st2{fill:url(#SVGID_1_);}
	.st3{fill:#B6CE8C;}
	.st4{fill:#508AA6;}
	.st5{fill:url(#SVGID_2_);}
	.st6{opacity:0.2;fill:#4E8AA7;}
	.st7{fill:#292929;}
	.st8{fill:none;stroke:#292929;stroke-width:2;stroke-linejoin:round;stroke-miterlimit:10;}
	.st9{fill:none;stroke:#292929;stroke-linecap:round;stroke-linejoin:round;stroke-miterlimit:10;}
	.st10{opacity:0.2;}
	.st11{fill:#4E8AA7;}
	.st12{opacity:0.5;fill:#81BCBF;}
	.st13{fill:none;stroke:#292929;stroke-width:2;stroke-linecap:round;stroke-linejoin:round;stroke-miterlimit:10;}
	.st14{fill:none;stroke:#292929;stroke-linejoin:round;stroke-miterlimit:10;}
	.st15{fill:none;stroke:#292929;stroke-width:1.5;stroke-linecap:round;stroke-linejoin:round;stroke-miterlimit:10;}
	.st16{opacity:0.25;}
	.st17{opacity:0.2;fill:#585799;}
	.st18{fill:none;stroke:#282828;stroke-linecap:round;stroke-linejoin:round;stroke-miterlimit:10;}
	.st19{fill:none;stroke:#282828;stroke-linejoin:round;stroke-miterlimit:10;}
	.st20{fill:#282828;}
	.st21{opacity:0.5;fill:#B6CE8C;}
	.st22{fill:none;stroke:#292929;stroke-width:1.9456;stroke-linecap:round;stroke-linejoin:round;stroke-miterlimit:10;}
</style>
<g id="COLORES">
	<rect x="-525.3" y="-391.1" class="st0" width="36" height="36"/>
	<rect x="-525.3" y="-355.1" class="st1" width="36" height="36"/>
	<linearGradient id="SVGID_1_" gradientUnits="userSpaceOnUse" x1="-597.3359" y1="-355.0586" x2="-525.3359" y2="-355.0586">
		<stop  offset="0" style="stop-color:#81BCBF"/>
		<stop  offset="1" style="stop-color:#585799"/>
	</linearGradient>
	<rect x="-597.3" y="-391.1" class="st2" width="72" height="72"/>
	<rect x="-525.3" y="-313.1" class="st3" width="36" height="36"/>
	<rect x="-525.3" y="-277.1" class="st4" width="36" height="36"/>
	<linearGradient id="SVGID_2_" gradientUnits="userSpaceOnUse" x1="-597.3359" y1="-277.0586" x2="-525.3359" y2="-277.0586">
		<stop  offset="0" style="stop-color:#B6CE8C"/>
		<stop  offset="1" style="stop-color:#508AA6"/>
	</linearGradient>
	<rect x="-597.3" y="-313.1" class="st5" width="72" height="72"/>
	<g>
		<rect x="-73.9" y="-54.7" class="st6" width="27.3" height="27.3"/>
		<g>
			<path class="st7" d="M-70.4-41.3l0.7-0.8c1,0.9,2,1.4,3.4,1.4c1.3,0,2.2-0.7,2.2-1.7v0c0-0.9-0.5-1.5-2.6-1.9
				c-2.3-0.5-3.4-1.2-3.4-2.9v0c0-1.6,1.4-2.7,3.3-2.7c1.5,0,2.5,0.4,3.5,1.2l-0.7,0.9c-0.9-0.8-1.9-1.1-2.9-1.1
				c-1.3,0-2.1,0.7-2.1,1.6v0c0,0.9,0.5,1.5,2.7,1.9c2.2,0.5,3.3,1.3,3.3,2.8v0c0,1.7-1.4,2.8-3.4,2.8
				C-67.9-39.7-69.2-40.3-70.4-41.3z"/>
			<path class="st7" d="M-60.7-47.3h1.1v7.4h-1.1V-47.3z M-59.2-50.5l1.1,0.5l-1.6,1.5h-0.9L-59.2-50.5z"/>
		</g>
		<rect x="-77.9" y="-58.7" class="st8" width="27.3" height="27.3"/>
	</g>
	<g>
		<rect x="5" y="-54.5" class="st6" width="27.3" height="27.3"/>
		<rect x="1" y="-58.5" class="st8" width="27.3" height="27.3"/>
		<polyline class="st9" points="5,-39.1 12.6,-50.7 10.2,-41.3 16,-45.5 14.4,-41.6 20.5,-44.9 18.7,-41.4 24.3,-43.7 		"/>
	</g>
	<g>
		<rect x="86.1" y="-54.5" class="st6" width="27.3" height="27.3"/>
		<rect x="82.1" y="-58.5" class="st8" width="27.3" height="27.3"/>
		<g>
			<polyline class="st9" points="92.1,-43.8 94.5,-40.9 98.6,-48 			"/>
			<path class="st9" d="M103.5-44.9c0,4.3-3.5,7.8-7.8,7.8c-4.3,0-7.8-3.5-7.8-7.8c0-4.3,3.5-7.8,7.8-7.8
				C100.1-52.7,103.5-49.2,103.5-44.9z"/>
		</g>
	</g>
	<g>
		<g class="st10">
			<rect x="-73.9" y="4.8" class="st11" width="27.3" height="27.3"/>
		</g>
		<g>
			<g>
				<path class="st7" d="M-70.4,18.2l0.7-0.8c1,0.9,2,1.4,3.4,1.4c1.3,0,2.2-0.7,2.2-1.7v0c0-0.9-0.5-1.5-2.6-1.9
					c-2.3-0.5-3.4-1.2-3.4-2.9v0c0-1.6,1.4-2.7,3.3-2.7c1.5,0,2.5,0.4,3.5,1.2l-0.7,0.9c-0.9-0.8-1.9-1.1-2.9-1.1
					c-1.3,0-2.1,0.7-2.1,1.6v0c0,0.9,0.5,1.5,2.7,1.9c2.2,0.5,3.3,1.3,3.3,2.8v0c0,1.7-1.4,2.8-3.4,2.8
					C-67.9,19.8-69.2,19.3-70.4,18.2z"/>
			</g>
			<g>
				<path class="st7" d="M-60.7,12.2h1.1v7.4h-1.1V12.2z M-59.2,9.1l1.1,0.5l-1.6,1.5h-0.9L-59.2,9.1z"/>
			</g>
		</g>
		<g>
			<path class="st7" d="M-50.6,29.1h-27.3c-0.6,0-1-0.4-1-1V0.8c0-0.6,0.4-1,1-1h27.3c0.6,0,1,0.4,1,1v27.3
				C-49.6,28.6-50,29.1-50.6,29.1z M-76.9,27.1h25.3V1.8h-25.3V27.1z"/>
		</g>
	</g>
	<g>
		<g class="st10">
			<rect x="5" y="5" class="st11" width="27.3" height="27.3"/>
		</g>
		<g>
			<path class="st7" d="M28.3,29.3H1c-0.6,0-1-0.4-1-1V1c0-0.6,0.4-1,1-1h27.3c0.6,0,1,0.4,1,1v27.3C29.3,28.8,28.8,29.3,28.3,29.3z
				 M2,27.3h25.3V2H2V27.3z"/>
		</g>
		<g>
			<path class="st7" d="M5,21c-0.1,0-0.2,0-0.3-0.1c-0.2-0.2-0.3-0.5-0.1-0.7l7.6-11.6c0.1-0.2,0.4-0.3,0.6-0.2
				c0.2,0.1,0.3,0.3,0.3,0.6L11,17l4.7-3.4c0.2-0.1,0.4-0.1,0.6,0c0.2,0.1,0.2,0.4,0.2,0.6l-1.1,2.6l4.8-2.6
				c0.2-0.1,0.4-0.1,0.6,0.1c0.2,0.2,0.2,0.4,0.1,0.6l-1.1,2.2l4.3-1.7c0.3-0.1,0.5,0,0.7,0.3c0.1,0.3,0,0.5-0.3,0.7l-5.6,2.2
				c-0.2,0.1-0.4,0-0.6-0.1s-0.2-0.4-0.1-0.6l1-2l-4.7,2.5c-0.2,0.1-0.4,0.1-0.6-0.1c-0.2-0.1-0.2-0.4-0.1-0.6l0.9-2.2l-4.4,3.2
				c-0.2,0.1-0.4,0.1-0.6,0c-0.2-0.1-0.3-0.3-0.2-0.5l1.7-6.4l-6,9.1C5.3,20.9,5.2,21,5,21z"/>
		</g>
	</g>
	<g>
		<g class="st10">
			<rect x="86.1" y="5" class="st11" width="27.3" height="27.3"/>
		</g>
		<g>
			<path class="st7" d="M109.4,29.3H82.1c-0.6,0-1-0.4-1-1V1c0-0.6,0.4-1,1-1h27.3c0.6,0,1,0.4,1,1v27.3
				C110.4,28.8,110,29.3,109.4,29.3z M83.1,27.3h25.3V2H83.1V27.3z"/>
		</g>
		<g>
			<g>
				<path class="st7" d="M94.5,19.1c-0.2,0-0.3-0.1-0.4-0.2L91.7,16c-0.2-0.2-0.1-0.5,0.1-0.7c0.2-0.2,0.5-0.1,0.7,0.1l1.9,2.4
					l3.8-6.5c0.1-0.2,0.4-0.3,0.7-0.2c0.2,0.1,0.3,0.4,0.2,0.7l-4.2,7.1C94.8,19,94.7,19.1,94.5,19.1C94.5,19.1,94.5,19.1,94.5,19.1
					z"/>
			</g>
			<g>
				<path class="st7" d="M95.8,22.9c-4.6,0-8.3-3.7-8.3-8.3s3.7-8.3,8.3-8.3c4.6,0,8.3,3.7,8.3,8.3S100.3,22.9,95.8,22.9z M95.8,7.4
					c-4,0-7.3,3.3-7.3,7.3s3.3,7.3,7.3,7.3c4,0,7.3-3.3,7.3-7.3S99.8,7.4,95.8,7.4z"/>
			</g>
		</g>
	</g>
</g>
<g id="Tratamiento_de_Datos">
	<path class="st12" d="M188-170.6h20.2c2.8,0,5,2.2,5,5v48.6c0,2.8-2.2,5-5,5H150c-2.8,0-5-2.2-5-5v-48.6c0-2.8,2.2-5,5-5h20.2"/>
	<g>
		<rect x="-357.8" y="-295.2" class="st12" width="54.6" height="68.8"/>
		<polyline class="st13" points="-309.2,-245.3 -309.2,-232.3 -363.7,-232.3 -363.7,-301.1 -309.2,-301.1 -309.2,-278.4 		"/>
		<rect x="-356.4" y="-293.7" class="st14" width="12.5" height="12.5"/>
		<line class="st9" x1="-338.7" y1="-287.5" x2="-320.7" y2="-287.5"/>
		<line class="st9" x1="-338.7" y1="-283" x2="-320.7" y2="-283"/>
		<line class="st15" x1="-351.6" y1="-272.7" x2="-321.3" y2="-272.7"/>
		<line class="st15" x1="-351.6" y1="-265.3" x2="-321.3" y2="-265.3"/>
		<line class="st15" x1="-351.6" y1="-257.9" x2="-327.3" y2="-257.9"/>
		<line class="st15" x1="-351.6" y1="-250.6" x2="-331.3" y2="-250.6"/>
		<line class="st15" x1="-351.6" y1="-243.2" x2="-332.3" y2="-243.2"/>
		<g>
			<polygon class="st8" points="-307.9,-270.5 -326.4,-252 -327.9,-243.2 -319.2,-244.7 -300.7,-263.2 			"/>
			<line class="st8" x1="-326.4" y1="-252" x2="-319.2" y2="-244.7"/>
			<line class="st8" x1="-304.3" y1="-266.9" x2="-322.8" y2="-248.4"/>
			<polyline class="st8" points="-307.9,-270.5 -305,-273.3 -297.8,-266.1 -300.7,-263.2 			"/>
		</g>
	</g>
	<rect x="-357.8" y="-179.2" class="st12" width="54.6" height="68.8"/>
	<rect x="-363.7" y="-185.1" class="st13" width="54.6" height="68.8"/>
	<rect x="-356.4" y="-177.7" class="st14" width="12.5" height="12.5"/>
	<line class="st9" x1="-338.7" y1="-171.5" x2="-320.7" y2="-171.5"/>
	<line class="st9" x1="-338.7" y1="-167" x2="-320.7" y2="-167"/>
	<line class="st15" x1="-351.6" y1="-156.7" x2="-321.3" y2="-156.7"/>
	<line class="st15" x1="-351.6" y1="-149.3" x2="-321.3" y2="-149.3"/>
	<line class="st15" x1="-351.6" y1="-141.9" x2="-321.3" y2="-141.9"/>
	<line class="st15" x1="-351.6" y1="-134.6" x2="-321.3" y2="-134.6"/>
	<line class="st15" x1="-351.6" y1="-127.2" x2="-321.3" y2="-127.2"/>
	<g>
		<g class="st16">
			<rect x="-241.6" y="-179.2" class="st0" width="54.6" height="68.8"/>
		</g>
		<g>
			<path class="st7" d="M-192.9-115.3h-54.6c-0.6,0-1-0.4-1-1v-68.8c0-0.6,0.4-1,1-1h54.6c0.6,0,1,0.4,1,1v68.8
				C-191.9-115.8-192.4-115.3-192.9-115.3z M-246.5-117.3h52.6v-66.8h-52.6V-117.3z"/>
		</g>
		<g>
			<path class="st7" d="M-227.6-164.7h-12.5c-0.3,0-0.5-0.2-0.5-0.5v-12.5c0-0.3,0.2-0.5,0.5-0.5h12.5c0.3,0,0.5,0.2,0.5,0.5v12.5
				C-227.1-164.9-227.3-164.7-227.6-164.7z M-239.6-165.7h11.5v-11.5h-11.5V-165.7z"/>
		</g>
		<g>
			<path class="st7" d="M-204.4-171h-18.1c-0.3,0-0.5-0.2-0.5-0.5s0.2-0.5,0.5-0.5h18.1c0.3,0,0.5,0.2,0.5,0.5S-204.2-171-204.4-171
				z"/>
		</g>
		<g>
			<path class="st7" d="M-204.4-166.5h-18.1c-0.3,0-0.5-0.2-0.5-0.5s0.2-0.5,0.5-0.5h18.1c0.3,0,0.5,0.2,0.5,0.5
				S-204.2-166.5-204.4-166.5z"/>
		</g>
		<g>
			<path class="st7" d="M-205-155.9h-30.4c-0.4,0-0.8-0.3-0.8-0.8s0.3-0.8,0.8-0.8h30.4c0.4,0,0.8,0.3,0.8,0.8
				S-204.6-155.9-205-155.9z"/>
		</g>
		<g>
			<path class="st7" d="M-205-148.5h-30.4c-0.4,0-0.8-0.3-0.8-0.8s0.3-0.8,0.8-0.8h30.4c0.4,0,0.8,0.3,0.8,0.8
				S-204.6-148.5-205-148.5z"/>
		</g>
		<g>
			<path class="st7" d="M-205-141.2h-30.4c-0.4,0-0.8-0.3-0.8-0.8s0.3-0.8,0.8-0.8h30.4c0.4,0,0.8,0.3,0.8,0.8
				S-204.6-141.2-205-141.2z"/>
		</g>
		<g>
			<path class="st7" d="M-205-133.8h-30.4c-0.4,0-0.8-0.3-0.8-0.8s0.3-0.8,0.8-0.8h30.4c0.4,0,0.8,0.3,0.8,0.8
				S-204.6-133.8-205-133.8z"/>
		</g>
		<g>
			<path class="st7" d="M-205-126.4h-30.4c-0.4,0-0.8-0.3-0.8-0.8s0.3-0.8,0.8-0.8h30.4c0.4,0,0.8,0.3,0.8,0.8
				S-204.6-126.4-205-126.4z"/>
		</g>
	</g>
	<g>
		<g class="st16">
			<rect x="-241.8" y="-295.2" class="st0" width="54.6" height="68.8"/>
		</g>
		<g>
			<path class="st7" d="M-193.2-231.3h-54.6c-0.6,0-1-0.4-1-1v-68.8c0-0.6,0.4-1,1-1h54.6c0.6,0,1,0.4,1,1v22.7c0,0.6-0.4,1-1,1
				s-1-0.4-1-1v-21.7h-52.6v66.8h52.6v-11.9c0-0.6,0.4-1,1-1s1,0.4,1,1v12.9C-192.2-231.8-192.6-231.3-193.2-231.3z"/>
		</g>
		<g>
			<path class="st7" d="M-227.8-280.7h-12.5c-0.3,0-0.5-0.2-0.5-0.5v-12.5c0-0.3,0.2-0.5,0.5-0.5h12.5c0.3,0,0.5,0.2,0.5,0.5v12.5
				C-227.3-280.9-227.5-280.7-227.8-280.7z M-239.9-281.7h11.5v-11.5h-11.5V-281.7z"/>
		</g>
		<g>
			<path class="st7" d="M-204.7-287h-18.1c-0.3,0-0.5-0.2-0.5-0.5s0.2-0.5,0.5-0.5h18.1c0.3,0,0.5,0.2,0.5,0.5S-204.4-287-204.7-287
				z"/>
		</g>
		<g>
			<path class="st7" d="M-204.7-282.5h-18.1c-0.3,0-0.5-0.2-0.5-0.5s0.2-0.5,0.5-0.5h18.1c0.3,0,0.5,0.2,0.5,0.5
				S-204.4-282.5-204.7-282.5z"/>
		</g>
		<g>
			<path class="st7" d="M-205.3-271.9h-30.4c-0.4,0-0.8-0.3-0.8-0.8s0.3-0.8,0.8-0.8h30.4c0.4,0,0.8,0.3,0.8,0.8
				S-204.8-271.9-205.3-271.9z"/>
		</g>
		<g>
			<path class="st7" d="M-205.3-264.5h-30.4c-0.4,0-0.8-0.3-0.8-0.8s0.3-0.8,0.8-0.8h30.4c0.4,0,0.8,0.3,0.8,0.8
				S-204.8-264.5-205.3-264.5z"/>
		</g>
		<g>
			<path class="st7" d="M-211.3-257.2h-24.4c-0.4,0-0.8-0.3-0.8-0.8s0.3-0.8,0.8-0.8h24.4c0.4,0,0.8,0.3,0.8,0.8
				S-210.8-257.2-211.3-257.2z"/>
		</g>
		<g>
			<path class="st7" d="M-215.3-249.8h-20.4c-0.4,0-0.8-0.3-0.8-0.8s0.3-0.8,0.8-0.8h20.4c0.4,0,0.8,0.3,0.8,0.8
				S-214.8-249.8-215.3-249.8z"/>
		</g>
		<g>
			<path class="st7" d="M-216.3-242.4h-19.4c-0.4,0-0.8-0.3-0.8-0.8s0.3-0.8,0.8-0.8h19.4c0.4,0,0.8,0.3,0.8,0.8
				S-215.8-242.4-216.3-242.4z"/>
		</g>
		<g>
			<g>
				<path class="st7" d="M-211.9-242.2c-0.3,0-0.5-0.1-0.7-0.3c-0.2-0.2-0.3-0.6-0.3-0.9l1.6-8.8c0-0.2,0.1-0.4,0.3-0.5l18.5-18.5
					c0.2-0.2,0.4-0.3,0.7-0.3l0,0c0.3,0,0.5,0.1,0.7,0.3l7.2,7.2c0.4,0.4,0.4,1,0,1.4l-18.5,18.5c-0.1,0.1-0.3,0.2-0.5,0.3l-8.8,1.6
					C-211.8-242.2-211.9-242.2-211.9-242.2z M-209.4-251.5l-1.3,7.1l7-1.3l17.6-17.6l-5.8-5.8L-209.4-251.5z"/>
			</g>
			<g>
				
					<rect x="-207.8" y="-253.5" transform="matrix(0.7072 -0.707 0.707 0.7072 115.0497 -218.9083)" class="st7" width="2" height="10.2"/>
			</g>
			<g>
				
					<rect x="-210.6" y="-258.6" transform="matrix(0.7071 -0.7071 0.7071 0.7071 124.3037 -215.1075)" class="st7" width="26.2" height="2"/>
			</g>
			<g>
				<path class="st7" d="M-183.9-262.5l-1.4-1.4l2.1-2.1l-5.8-5.8l-2.1,2.1l-1.4-1.4l2.8-2.9c0.2-0.2,0.4-0.3,0.7-0.3l0,0
					c0.3,0,0.5,0.1,0.7,0.3l7.2,7.2c0.4,0.4,0.4,1,0,1.4L-183.9-262.5z"/>
			</g>
		</g>
	</g>
	<g>
		<rect x="-352.3" y="-57.2" class="st17" width="27.3" height="34.4"/>
		<rect x="-356.3" y="-61.2" class="st8" width="27.3" height="34.4"/>
		<g>
			<line class="st15" x1="-350.2" y1="-54.1" x2="-335" y2="-54.1"/>
			<line class="st15" x1="-350.2" y1="-50" x2="-335" y2="-50"/>
			<line class="st15" x1="-350.2" y1="-46" x2="-335" y2="-46"/>
			<line class="st15" x1="-350.2" y1="-42" x2="-335" y2="-42"/>
			<line class="st15" x1="-350.2" y1="-37.9" x2="-335" y2="-37.9"/>
			<line class="st15" x1="-350.2" y1="-33.9" x2="-335" y2="-33.9"/>
		</g>
	</g>
	<g>
		<rect x="-273.4" y="-57.2" class="st17" width="27.3" height="34.4"/>
		<polyline class="st13" points="-250.1,-31.9 -250.1,-26.8 -277.4,-26.8 -277.4,-61.2 -250.1,-61.2 -250.1,-49.9 		"/>
		<g>
			<line class="st15" x1="-271.3" y1="-54.1" x2="-256.2" y2="-54.1"/>
			<line class="st15" x1="-271.3" y1="-50" x2="-256.2" y2="-50"/>
			<line class="st15" x1="-271.3" y1="-46" x2="-256.2" y2="-46"/>
			<line class="st15" x1="-271.3" y1="-42" x2="-257" y2="-42"/>
			<line class="st15" x1="-271.3" y1="-37.9" x2="-260.5" y2="-37.9"/>
			<line class="st15" x1="-271.3" y1="-33.9" x2="-261.2" y2="-33.9"/>
		</g>
		<g>
			<polygon class="st18" points="-248.6,-46.4 -257.4,-37.7 -258.1,-33.5 -254,-34.2 -245.2,-43 			"/>
			<line class="st18" x1="-257.4" y1="-37.7" x2="-254" y2="-34.2"/>
			<line class="st19" x1="-246.9" y1="-44.7" x2="-255.7" y2="-36"/>
			<polyline class="st18" points="-248.6,-46.4 -247.3,-47.8 -243.9,-44.3 -245.2,-43 			"/>
		</g>
	</g>
	<g>
		<rect x="-192.3" y="-57.2" class="st17" width="27.3" height="34.4"/>
		<polyline class="st13" points="-169,-31.9 -169,-26.8 -196.3,-26.8 -196.3,-61.2 -169,-61.2 -169,-49.9 		"/>
		<g>
			<line class="st15" x1="-190.2" y1="-54.1" x2="-175" y2="-54.1"/>
			<line class="st15" x1="-190.2" y1="-50" x2="-175" y2="-50"/>
			<line class="st15" x1="-190.2" y1="-46" x2="-180" y2="-46"/>
			<line class="st15" x1="-190.2" y1="-42" x2="-180.9" y2="-42"/>
			<line class="st15" x1="-190.2" y1="-37.9" x2="-179.4" y2="-37.9"/>
			<line class="st15" x1="-190.2" y1="-33.9" x2="-175" y2="-33.9"/>
		</g>
		<path class="st9" d="M-168.8-43.5c0.5,2.5-1.1,5-3.6,5.5c-2.5,0.5-5-1.1-5.5-3.6c-0.5-2.5,1.1-5,3.6-5.5
			C-171.8-47.7-169.4-46-168.8-43.5z"/>
		<path class="st9" d="M-168.8-43.5c0.5,2.5-1.1,5-3.6,5.5c-2.5,0.5-5-1.1-5.5-3.6c-0.5-2.5,1.1-5,3.6-5.5
			C-171.8-47.7-169.4-46-168.8-43.5z"/>
		<line class="st9" x1="-170.3" y1="-39.1" x2="-166" y2="-34.3"/>
	</g>
	<g>
		<g class="st10">
			<rect x="-352.3" y="2.4" class="st1" width="27.3" height="34.4"/>
		</g>
		<g>
			<path class="st7" d="M-329,33.7h-27.3c-0.6,0-1-0.4-1-1V-1.6c0-0.6,0.4-1,1-1h27.3c0.6,0,1,0.4,1,1v34.4
				C-328,33.3-328.4,33.7-329,33.7z M-355.3,31.7h25.3V-0.6h-25.3V31.7z"/>
		</g>
		<g>
			<g>
				<path class="st7" d="M-335,6.2h-15.2c-0.4,0-0.8-0.3-0.8-0.8s0.3-0.8,0.8-0.8h15.2c0.4,0,0.8,0.3,0.8,0.8S-334.6,6.2-335,6.2z"
					/>
			</g>
			<g>
				<path class="st7" d="M-335,10.2h-15.2c-0.4,0-0.8-0.3-0.8-0.8s0.3-0.8,0.8-0.8h15.2c0.4,0,0.8,0.3,0.8,0.8S-334.6,10.2-335,10.2
					z"/>
			</g>
			<g>
				<path class="st7" d="M-335,14.3h-15.2c-0.4,0-0.8-0.3-0.8-0.8s0.3-0.8,0.8-0.8h15.2c0.4,0,0.8,0.3,0.8,0.8S-334.6,14.3-335,14.3
					z"/>
			</g>
			<g>
				<path class="st7" d="M-335,18.3h-15.2c-0.4,0-0.8-0.3-0.8-0.8s0.3-0.8,0.8-0.8h15.2c0.4,0,0.8,0.3,0.8,0.8S-334.6,18.3-335,18.3
					z"/>
			</g>
			<g>
				<path class="st7" d="M-335,22.4h-15.2c-0.4,0-0.8-0.3-0.8-0.8s0.3-0.8,0.8-0.8h15.2c0.4,0,0.8,0.3,0.8,0.8S-334.6,22.4-335,22.4
					z"/>
			</g>
			<g>
				<path class="st7" d="M-335,26.4h-15.2c-0.4,0-0.8-0.3-0.8-0.8s0.3-0.8,0.8-0.8h15.2c0.4,0,0.8,0.3,0.8,0.8S-334.6,26.4-335,26.4
					z"/>
			</g>
		</g>
	</g>
	<g>
		<g class="st10">
			<rect x="-273.4" y="2.4" class="st1" width="27.3" height="34.4"/>
		</g>
		<g>
			<path class="st7" d="M-250.1,33.7h-27.3c-0.6,0-1-0.4-1-1V-1.6c0-0.6,0.4-1,1-1h27.3c0.6,0,1,0.4,1,1V9.6c0,0.6-0.4,1-1,1
				s-1-0.4-1-1V-0.6h-25.3v32.4h25.3v-4.1c0-0.6,0.4-1,1-1s1,0.4,1,1v5.1C-249.1,33.3-249.6,33.7-250.1,33.7z"/>
		</g>
		<g>
			<g>
				<path class="st7" d="M-256.2,6.2h-15.2c-0.4,0-0.8-0.3-0.8-0.8s0.3-0.8,0.8-0.8h15.2c0.4,0,0.8,0.3,0.8,0.8
					S-255.7,6.2-256.2,6.2z"/>
			</g>
			<g>
				<path class="st7" d="M-256.2,10.2h-15.2c-0.4,0-0.8-0.3-0.8-0.8s0.3-0.8,0.8-0.8h15.2c0.4,0,0.8,0.3,0.8,0.8
					S-255.7,10.2-256.2,10.2z"/>
			</g>
			<g>
				<path class="st7" d="M-256.2,14.3h-15.2c-0.4,0-0.8-0.3-0.8-0.8s0.3-0.8,0.8-0.8h15.2c0.4,0,0.8,0.3,0.8,0.8
					S-255.7,14.3-256.2,14.3z"/>
			</g>
			<g>
				<path class="st7" d="M-257,18.3h-14.3c-0.4,0-0.8-0.3-0.8-0.8s0.3-0.8,0.8-0.8h14.3c0.4,0,0.8,0.3,0.8,0.8S-256.6,18.3-257,18.3
					z"/>
			</g>
			<g>
				<path class="st7" d="M-260.5,22.4h-10.9c-0.4,0-0.8-0.3-0.8-0.8s0.3-0.8,0.8-0.8h10.9c0.4,0,0.8,0.3,0.8,0.8
					S-260.1,22.4-260.5,22.4z"/>
			</g>
			<g>
				<path class="st7" d="M-261.2,26.4h-10.2c-0.4,0-0.8-0.3-0.8-0.8s0.3-0.8,0.8-0.8h10.2c0.4,0,0.8,0.3,0.8,0.8
					S-260.7,26.4-261.2,26.4z"/>
			</g>
		</g>
		<g>
			<g>
				<path class="st20" d="M-258.1,26.5c-0.1,0-0.3-0.1-0.4-0.1c-0.1-0.1-0.2-0.3-0.1-0.4l0.7-4.1c0-0.1,0.1-0.2,0.1-0.3l8.7-8.7
					c0.1-0.1,0.2-0.1,0.4-0.1l0,0c0.1,0,0.3,0.1,0.4,0.1l3.4,3.4c0.2,0.2,0.2,0.5,0,0.7l-8.7,8.7c-0.1,0.1-0.2,0.1-0.3,0.1
					L-258.1,26.5C-258.1,26.5-258.1,26.5-258.1,26.5z M-256.9,22.1l-0.6,3.3l3.3-0.6l8.3-8.3l-2.7-2.7L-256.9,22.1z"/>
			</g>
			<g>
				<path class="st20" d="M-254,25.8c-0.1,0-0.3,0-0.4-0.1l-3.4-3.4c-0.2-0.2-0.2-0.5,0-0.7s0.5-0.2,0.7,0l3.4,3.4
					c0.2,0.2,0.2,0.5,0,0.7C-253.7,25.7-253.8,25.8-254,25.8z"/>
			</g>
			<g>
				
					<rect x="-257.5" y="18.7" transform="matrix(0.7071 -0.7071 0.7071 0.7071 -87.1813 -172.0691)" class="st20" width="12.4" height="1"/>
			</g>
			<g>
				<path class="st20" d="M-245.2,17c-0.1,0-0.3,0-0.4-0.1c-0.2-0.2-0.2-0.5,0-0.7l1-1l-2.7-2.7l-1,1c-0.2,0.2-0.5,0.2-0.7,0
					s-0.2-0.5,0-0.7l1.3-1.3c0.1-0.1,0.2-0.1,0.4-0.1l0,0c0.1,0,0.3,0.1,0.4,0.1l3.4,3.4c0.2,0.2,0.2,0.5,0,0.7l-1.3,1.3
					C-245,17-245.1,17-245.2,17z"/>
			</g>
		</g>
	</g>
	<g>
		<g class="st10">
			<rect x="-192.3" y="2.4" class="st1" width="27.3" height="34.4"/>
		</g>
		<g>
			<path class="st7" d="M-169,33.7h-27.3c-0.6,0-1-0.4-1-1V-1.6c0-0.6,0.4-1,1-1h27.3c0.6,0,1,0.4,1,1V9.6c0,0.6-0.4,1-1,1
				s-1-0.4-1-1V-0.6h-25.3v32.4h25.3v-4.1c0-0.6,0.4-1,1-1s1,0.4,1,1v5.1C-168,33.3-168.4,33.7-169,33.7z"/>
		</g>
		<g>
			<g>
				<path class="st7" d="M-175,6.2h-15.2c-0.4,0-0.8-0.3-0.8-0.8s0.3-0.8,0.8-0.8h15.2c0.4,0,0.8,0.3,0.8,0.8S-174.6,6.2-175,6.2z"
					/>
			</g>
			<g>
				<path class="st7" d="M-175,10.2h-15.2c-0.4,0-0.8-0.3-0.8-0.8s0.3-0.8,0.8-0.8h15.2c0.4,0,0.8,0.3,0.8,0.8S-174.6,10.2-175,10.2
					z"/>
			</g>
			<g>
				<path class="st7" d="M-180,14.3h-10.2c-0.4,0-0.8-0.3-0.8-0.8s0.3-0.8,0.8-0.8h10.2c0.4,0,0.8,0.3,0.8,0.8S-179.6,14.3-180,14.3
					z"/>
			</g>
			<g>
				<path class="st7" d="M-180.9,18.3h-9.3c-0.4,0-0.8-0.3-0.8-0.8s0.3-0.8,0.8-0.8h9.3c0.4,0,0.8,0.3,0.8,0.8
					S-180.5,18.3-180.9,18.3z"/>
			</g>
			<g>
				<path class="st7" d="M-179.4,22.4h-10.9c-0.4,0-0.8-0.3-0.8-0.8s0.3-0.8,0.8-0.8h10.9c0.4,0,0.8,0.3,0.8,0.8
					S-178.9,22.4-179.4,22.4z"/>
			</g>
			<g>
				<path class="st7" d="M-175,26.4h-15.2c-0.4,0-0.8-0.3-0.8-0.8s0.3-0.8,0.8-0.8h15.2c0.4,0,0.8,0.3,0.8,0.8S-174.6,26.4-175,26.4
					z"/>
			</g>
		</g>
		<g>
			<path class="st7" d="M-173.4,22.1c-2.4,0-4.5-1.7-5.1-4.1c-0.3-1.3,0-2.7,0.7-3.9c0.8-1.2,1.9-1.9,3.3-2.2c2.8-0.6,5.5,1.2,6.1,4
				c0.3,1.3,0,2.7-0.7,3.9c-0.8,1.2-1.9,1.9-3.3,2.2C-172.7,22.1-173.1,22.1-173.4,22.1z M-173.4,12.8c-0.3,0-0.6,0-0.8,0.1
				c-1.1,0.2-2,0.9-2.6,1.8c-0.6,0.9-0.8,2-0.6,3.1c0.5,2.2,2.7,3.7,4.9,3.2c1.1-0.2,2-0.9,2.6-1.8c0.6-0.9,0.8-2,0.6-3.1
				C-169.7,14.1-171.5,12.8-173.4,12.8z"/>
		</g>
		<g>
			<path class="st7" d="M-173.4,22.1c-2.4,0-4.5-1.7-5.1-4.1c-0.3-1.3,0-2.7,0.7-3.9c0.8-1.2,1.9-1.9,3.3-2.2c2.8-0.6,5.5,1.2,6.1,4
				c0.3,1.3,0,2.7-0.7,3.9c-0.8,1.2-1.9,1.9-3.3,2.2C-172.7,22.1-173.1,22.1-173.4,22.1z M-173.4,12.8c-0.3,0-0.6,0-0.8,0.1
				c-1.1,0.2-2,0.9-2.6,1.8c-0.6,0.9-0.8,2-0.6,3.1c0.5,2.2,2.7,3.7,4.9,3.2c1.1-0.2,2-0.9,2.6-1.8c0.6-0.9,0.8-2,0.6-3.1
				C-169.7,14.1-171.5,12.8-173.4,12.8z"/>
		</g>
		<g>
			<path class="st7" d="M-166,25.8c-0.1,0-0.3-0.1-0.4-0.2l-4.3-4.8c-0.2-0.2-0.2-0.5,0-0.7s0.5-0.2,0.7,0l4.3,4.8
				c0.2,0.2,0.2,0.5,0,0.7C-165.8,25.7-165.9,25.8-166,25.8z"/>
		</g>
	</g>
	<rect x="-89.9" y="-296" class="st21" width="54.6" height="68.8"/>
	<g>
		<line class="st15" x1="-83.7" y1="-288.4" x2="-53.4" y2="-288.4"/>
		<line class="st15" x1="-83.7" y1="-280.9" x2="-53.4" y2="-280.9"/>
		<line class="st15" x1="-83.7" y1="-273.5" x2="-60.4" y2="-273.5"/>
		<line class="st15" x1="-83.7" y1="-266" x2="-63.4" y2="-266"/>
		<line class="st15" x1="-83.7" y1="-258.5" x2="-63.4" y2="-258.5"/>
		<line class="st15" x1="-83.7" y1="-251" x2="-60.4" y2="-251"/>
	</g>
	<polyline class="st13" points="-41.3,-246 -41.3,-233.1 -95.8,-233.1 -95.8,-301.9 -41.3,-301.9 -41.3,-279.2 	"/>
	<rect x="-89.9" y="-179.8" class="st12" width="54.6" height="68.8"/>
	<polyline class="st13" points="-41.3,-129.8 -41.3,-116.9 -95.8,-116.9 -95.8,-185.7 -41.3,-185.7 -41.3,-129.8 	"/>
	<g>
		<polyline class="st13" points="-53,-260.8 -49.3,-256.2 -42.8,-267.4 		"/>
		<path class="st13" d="M-35-262.5c0,6.7-5.5,12.2-12.2,12.2c-6.7,0-12.2-5.5-12.2-12.2c0-6.7,5.5-12.2,12.2-12.2
			C-40.5-274.7-35-269.2-35-262.5z"/>
	</g>
	<g>
		<g class="st16">
			<rect x="26.3" y="-296" class="st3" width="54.6" height="68.8"/>
		</g>
		<g>
			<g>
				<path class="st7" d="M62.9-287.7H32.5c-0.4,0-0.8-0.3-0.8-0.8s0.3-0.8,0.8-0.8h30.4c0.4,0,0.8,0.3,0.8,0.8
					S63.3-287.7,62.9-287.7z"/>
			</g>
			<g>
				<path class="st7" d="M62.9-280.2H32.5c-0.4,0-0.8-0.3-0.8-0.8s0.3-0.8,0.8-0.8h30.4c0.4,0,0.8,0.3,0.8,0.8
					S63.3-280.2,62.9-280.2z"/>
			</g>
			<g>
				<path class="st7" d="M55.9-272.7H32.5c-0.4,0-0.8-0.3-0.8-0.8s0.3-0.8,0.8-0.8h23.4c0.4,0,0.8,0.3,0.8,0.8
					S56.3-272.7,55.9-272.7z"/>
			</g>
			<g>
				<path class="st7" d="M52.9-265.2H32.5c-0.4,0-0.8-0.3-0.8-0.8s0.3-0.8,0.8-0.8h20.4c0.4,0,0.8,0.3,0.8,0.8
					S53.3-265.2,52.9-265.2z"/>
			</g>
			<g>
				<path class="st7" d="M52.9-257.7H32.5c-0.4,0-0.8-0.3-0.8-0.8s0.3-0.8,0.8-0.8h20.4c0.4,0,0.8,0.3,0.8,0.8
					S53.3-257.7,52.9-257.7z"/>
			</g>
			<g>
				<path class="st7" d="M55.9-250.2H32.5c-0.4,0-0.8-0.3-0.8-0.8s0.3-0.8,0.8-0.8h23.4c0.4,0,0.8,0.3,0.8,0.8
					S56.3-250.2,55.9-250.2z"/>
			</g>
		</g>
		<g>
			<path class="st7" d="M75-232.1H20.4c-0.6,0-1-0.4-1-1v-68.8c0-0.6,0.4-1,1-1H75c0.6,0,1,0.4,1,1v22.7c0,0.6-0.4,1-1,1s-1-0.4-1-1
				v-21.7H21.4v66.8H74V-246c0-0.6,0.4-1,1-1s1,0.4,1,1v12.9C76-232.5,75.5-232.1,75-232.1z"/>
		</g>
		<g>
			<g>
				<path class="st7" d="M66.9-255.2c-0.3,0-0.6-0.1-0.8-0.4l-3.7-4.6c-0.3-0.4-0.3-1.1,0.2-1.4c0.4-0.3,1.1-0.3,1.4,0.2l2.8,3.5
					l5.8-9.9c0.3-0.5,0.9-0.6,1.4-0.4c0.5,0.3,0.6,0.9,0.4,1.4l-6.5,11.2C67.6-255.4,67.3-255.2,66.9-255.2
					C67-255.2,66.9-255.2,66.9-255.2z"/>
			</g>
			<g>
				<path class="st7" d="M69-249.3c-7.3,0-13.2-5.9-13.2-13.2s5.9-13.2,13.2-13.2c7.3,0,13.2,5.9,13.2,13.2S76.2-249.3,69-249.3z
					 M69-273.7c-6.2,0-11.2,5-11.2,11.2s5,11.2,11.2,11.2s11.2-5,11.2-11.2S75.1-273.7,69-273.7z"/>
			</g>
		</g>
	</g>
	<g>
		<line class="st9" x1="-75.3" y1="-172.2" x2="-50.7" y2="-172.2"/>
		<circle class="st9" cx="-83.5" cy="-172.2" r="2.9"/>
	</g>
	<g>
		<line class="st9" x1="-75.3" y1="-160.9" x2="-50.7" y2="-160.9"/>
		<circle class="st9" cx="-83.5" cy="-160.9" r="2.9"/>
	</g>
	<g>
		<line class="st9" x1="-75.3" y1="-149.5" x2="-50.7" y2="-149.5"/>
		<circle class="st9" cx="-83.5" cy="-149.5" r="2.9"/>
	</g>
	<g>
		<line class="st9" x1="-75.3" y1="-138.2" x2="-50.7" y2="-138.2"/>
		<circle class="st9" cx="-83.5" cy="-138.2" r="2.9"/>
	</g>
	<g>
		<g class="st16">
			<rect x="26.3" y="-179.8" class="st0" width="54.6" height="68.8"/>
		</g>
		<g>
			<path class="st7" d="M75-115.9H20.4c-0.6,0-1-0.4-1-1v-68.8c0-0.6,0.4-1,1-1H75c0.6,0,1,0.4,1,1v68.8
				C76-116.3,75.5-115.9,75-115.9z M21.4-117.9H74v-66.8H21.4V-117.9z"/>
		</g>
		<g>
			<g>
				<path class="st7" d="M65.5-171.5H41c-0.4,0-0.7-0.3-0.7-0.7s0.3-0.7,0.7-0.7h24.5c0.4,0,0.7,0.3,0.7,0.7S65.9-171.5,65.5-171.5z
					"/>
			</g>
			<g>
				<path class="st7" d="M32.8-168.7c-2,0-3.6-1.6-3.6-3.6c0-2,1.6-3.6,3.6-3.6c2,0,3.6,1.6,3.6,3.6
					C36.3-170.3,34.7-168.7,32.8-168.7z M32.8-174.4c-1.2,0-2.2,1-2.2,2.2s1,2.2,2.2,2.2s2.2-1,2.2-2.2S34-174.4,32.8-174.4z"/>
			</g>
		</g>
		<g>
			<g>
				<path class="st7" d="M65.5-160.2H41c-0.4,0-0.7-0.3-0.7-0.7s0.3-0.7,0.7-0.7h24.5c0.4,0,0.7,0.3,0.7,0.7S65.9-160.2,65.5-160.2z
					"/>
			</g>
			<g>
				<path class="st7" d="M32.8-157.3c-2,0-3.6-1.6-3.6-3.6s1.6-3.6,3.6-3.6c2,0,3.6,1.6,3.6,3.6S34.7-157.3,32.8-157.3z M32.8-163.1
					c-1.2,0-2.2,1-2.2,2.2s1,2.2,2.2,2.2s2.2-1,2.2-2.2S34-163.1,32.8-163.1z"/>
			</g>
		</g>
		<g>
			<g>
				<path class="st7" d="M65.5-148.9H41c-0.4,0-0.7-0.3-0.7-0.7s0.3-0.7,0.7-0.7h24.5c0.4,0,0.7,0.3,0.7,0.7S65.9-148.9,65.5-148.9z
					"/>
			</g>
			<g>
				<path class="st7" d="M32.8-146c-2,0-3.6-1.6-3.6-3.6c0-2,1.6-3.6,3.6-3.6c2,0,3.6,1.6,3.6,3.6C36.3-147.6,34.7-146,32.8-146z
					 M32.8-151.8c-1.2,0-2.2,1-2.2,2.2s1,2.2,2.2,2.2s2.2-1,2.2-2.2S34-151.8,32.8-151.8z"/>
			</g>
		</g>
		<g>
			<g>
				<path class="st7" d="M65.5-137.5H41c-0.4,0-0.7-0.3-0.7-0.7s0.3-0.7,0.7-0.7h24.5c0.4,0,0.7,0.3,0.7,0.7S65.9-137.5,65.5-137.5z
					"/>
			</g>
			<g>
				<path class="st7" d="M32.8-134.6c-2,0-3.6-1.6-3.6-3.6s1.6-3.6,3.6-3.6c2,0,3.6,1.6,3.6,3.6S34.7-134.6,32.8-134.6z M32.8-140.4
					c-1.2,0-2.2,1-2.2,2.2s1,2.2,2.2,2.2s2.2-1,2.2-2.2S34-140.4,32.8-140.4z"/>
			</g>
		</g>
	</g>
	<path class="st22" d="M182.3-176.2h20.2c2.8,0,5,2.2,5,5v48.6c0,2.8-2.2,5-5,5h-58.2c-2.8,0-5-2.2-5-5v-48.6c0-2.8,2.2-5,5-5h20.2"
		/>
	<path class="st22" d="M182.3-176.2h20.2c2.8,0,5,2.2,5,5v48.6c0,2.8-2.2,5-5,5h-58.2c-2.8,0-5-2.2-5-5v-48.6c0-2.8,2.2-5,5-5h20.2"
		/>
	<line class="st22" x1="168.2" y1="-176.2" x2="178.7" y2="-176.2"/>
	<g>
		<rect x="148.4" y="-164.9" class="st9" width="7.6" height="7.6"/>
		<rect x="162.5" y="-164.9" class="st9" width="7.6" height="7.6"/>
		<rect x="176.7" y="-164.9" class="st9" width="7.6" height="7.6"/>
		<rect x="190.9" y="-164.9" class="st9" width="7.6" height="7.6"/>
	</g>
	<g>
		<rect x="148.4" y="-150.7" class="st9" width="7.6" height="7.6"/>
		<rect x="162.5" y="-150.7" class="st9" width="7.6" height="7.6"/>
		<rect x="176.7" y="-150.7" class="st9" width="7.6" height="7.6"/>
		<rect x="190.9" y="-150.7" class="st9" width="7.6" height="7.6"/>
	</g>
	<g>
		<rect x="148.4" y="-136.6" class="st9" width="7.6" height="7.6"/>
		<rect x="162.5" y="-136.6" class="st9" width="7.6" height="7.6"/>
		<rect x="176.7" y="-136.6" class="st9" width="7.6" height="7.6"/>
		<rect x="190.9" y="-136.6" class="st9" width="7.6" height="7.6"/>
	</g>
	<path class="st22" d="M166.3-181.4L166.3-181.4c-1,0-1.8,0.8-1.8,1.8v6.7c0,1,0.8,1.8,1.8,1.8l0,0c1,0,1.8-0.8,1.8-1.8v-6.7
		C168.2-180.6,167.3-181.4,166.3-181.4z"/>
	<path class="st22" d="M180.5-181.4L180.5-181.4c-1,0-1.8,0.8-1.8,1.8v6.7c0,1,0.8,1.8,1.8,1.8l0,0c1,0,1.8-0.8,1.8-1.8v-6.7
		C182.3-180.6,181.5-181.4,180.5-181.4z"/>
	<g>
		<g class="st16">
			<path class="st0" d="M304.2-170.6h20.2c2.8,0,5,2.2,5,5v48.6c0,2.8-2.2,5-5,5h-58.2c-2.8,0-5-2.2-5-5v-48.6c0-2.8,2.2-5,5-5h20.2
				"/>
		</g>
		<g>
			<path class="st7" d="M318.8-116.7h-58.2c-3.3,0-6-2.7-6-6v-48.6c0-3.3,2.7-6,6-6h20.2c0.5,0,1,0.4,1,1s-0.4,1-1,1h-20.2
				c-2.2,0-4,1.8-4,4v48.6c0,2.2,1.8,4,4,4h58.2c2.2,0,4-1.8,4-4v-48.6c0-2.2-1.8-4-4-4h-20.2c-0.5,0-1-0.4-1-1s0.4-1,1-1h20.2
				c3.3,0,6,2.7,6,6v48.6C324.7-119.3,322.1-116.7,318.8-116.7z"/>
		</g>
		<g>
			<path class="st7" d="M318.8-116.7h-58.2c-3.3,0-6-2.7-6-6v-48.6c0-3.3,2.7-6,6-6h20.2c0.5,0,1,0.4,1,1s-0.4,1-1,1h-20.2
				c-2.2,0-4,1.8-4,4v48.6c0,2.2,1.8,4,4,4h58.2c2.2,0,4-1.8,4-4v-48.6c0-2.2-1.8-4-4-4h-20.2c-0.5,0-1-0.4-1-1s0.4-1,1-1h20.2
				c3.3,0,6,2.7,6,6v48.6C324.7-119.3,322.1-116.7,318.8-116.7z"/>
		</g>
		<g>
			<path class="st7" d="M294.9-175.3h-10.5c-0.5,0-1-0.4-1-1s0.4-1,1-1h10.5c0.5,0,1,0.4,1,1S295.4-175.3,294.9-175.3z"/>
		</g>
		<g>
			<g>
				<path class="st7" d="M272.2-156.8h-7.6c-0.3,0-0.5-0.2-0.5-0.5v-7.6c0-0.3,0.2-0.5,0.5-0.5h7.6c0.3,0,0.5,0.2,0.5,0.5v7.6
					C272.7-157,272.5-156.8,272.2-156.8z M265.1-157.8h6.6v-6.6h-6.6V-157.8z"/>
			</g>
			<g>
				<path class="st7" d="M286.3-156.8h-7.6c-0.3,0-0.5-0.2-0.5-0.5v-7.6c0-0.3,0.2-0.5,0.5-0.5h7.6c0.3,0,0.5,0.2,0.5,0.5v7.6
					C286.8-157,286.6-156.8,286.3-156.8z M279.3-157.8h6.6v-6.6h-6.6V-157.8z"/>
			</g>
			<g>
				<path class="st7" d="M300.5-156.8h-7.6c-0.3,0-0.5-0.2-0.5-0.5v-7.6c0-0.3,0.2-0.5,0.5-0.5h7.6c0.3,0,0.5,0.2,0.5,0.5v7.6
					C301-157,300.8-156.8,300.5-156.8z M293.4-157.8h6.6v-6.6h-6.6V-157.8z"/>
			</g>
			<g>
				<path class="st7" d="M314.7-156.8h-7.6c-0.3,0-0.5-0.2-0.5-0.5v-7.6c0-0.3,0.2-0.5,0.5-0.5h7.6c0.3,0,0.5,0.2,0.5,0.5v7.6
					C315.2-157,315-156.8,314.7-156.8z M307.6-157.8h6.6v-6.6h-6.6V-157.8z"/>
			</g>
		</g>
		<g>
			<g>
				<path class="st7" d="M272.2-142.6h-7.6c-0.3,0-0.5-0.2-0.5-0.5v-7.6c0-0.3,0.2-0.5,0.5-0.5h7.6c0.3,0,0.5,0.2,0.5,0.5v7.6
					C272.7-142.9,272.5-142.6,272.2-142.6z M265.1-143.6h6.6v-6.6h-6.6V-143.6z"/>
			</g>
			<g>
				<path class="st7" d="M286.3-142.6h-7.6c-0.3,0-0.5-0.2-0.5-0.5v-7.6c0-0.3,0.2-0.5,0.5-0.5h7.6c0.3,0,0.5,0.2,0.5,0.5v7.6
					C286.8-142.9,286.6-142.6,286.3-142.6z M279.3-143.6h6.6v-6.6h-6.6V-143.6z"/>
			</g>
			<g>
				<path class="st7" d="M300.5-142.6h-7.6c-0.3,0-0.5-0.2-0.5-0.5v-7.6c0-0.3,0.2-0.5,0.5-0.5h7.6c0.3,0,0.5,0.2,0.5,0.5v7.6
					C301-142.9,300.8-142.6,300.5-142.6z M293.4-143.6h6.6v-6.6h-6.6V-143.6z"/>
			</g>
			<g>
				<path class="st7" d="M314.7-142.6h-7.6c-0.3,0-0.5-0.2-0.5-0.5v-7.6c0-0.3,0.2-0.5,0.5-0.5h7.6c0.3,0,0.5,0.2,0.5,0.5v7.6
					C315.2-142.9,315-142.6,314.7-142.6z M307.6-143.6h6.6v-6.6h-6.6V-143.6z"/>
			</g>
		</g>
		<g>
			<g>
				<path class="st7" d="M272.2-128.5h-7.6c-0.3,0-0.5-0.2-0.5-0.5v-7.6c0-0.3,0.2-0.5,0.5-0.5h7.6c0.3,0,0.5,0.2,0.5,0.5v7.6
					C272.7-128.7,272.5-128.5,272.2-128.5z M265.1-129.5h6.6v-6.6h-6.6V-129.5z"/>
			</g>
			<g>
				<path class="st7" d="M286.3-128.5h-7.6c-0.3,0-0.5-0.2-0.5-0.5v-7.6c0-0.3,0.2-0.5,0.5-0.5h7.6c0.3,0,0.5,0.2,0.5,0.5v7.6
					C286.8-128.7,286.6-128.5,286.3-128.5z M279.3-129.5h6.6v-6.6h-6.6V-129.5z"/>
			</g>
			<g>
				<path class="st7" d="M300.5-128.5h-7.6c-0.3,0-0.5-0.2-0.5-0.5v-7.6c0-0.3,0.2-0.5,0.5-0.5h7.6c0.3,0,0.5,0.2,0.5,0.5v7.6
					C301-128.7,300.8-128.5,300.5-128.5z M293.4-129.5h6.6v-6.6h-6.6V-129.5z"/>
			</g>
			<g>
				<path class="st7" d="M314.7-128.5h-7.6c-0.3,0-0.5-0.2-0.5-0.5v-7.6c0-0.3,0.2-0.5,0.5-0.5h7.6c0.3,0,0.5,0.2,0.5,0.5v7.6
					C315.2-128.7,315-128.5,314.7-128.5z M307.6-129.5h6.6v-6.6h-6.6V-129.5z"/>
			</g>
		</g>
		<g>
			<path class="st7" d="M282.6-170.1c-1.5,0-2.8-1.3-2.8-2.8v-6.7c0-1.5,1.3-2.8,2.8-2.8c1.5,0,2.8,1.3,2.8,2.8v6.7
				C285.4-171.3,284.1-170.1,282.6-170.1z M282.6-180.5c-0.5,0-0.9,0.4-0.9,0.9v6.7c0,0.5,0.4,0.9,0.9,0.9s0.9-0.4,0.9-0.9v-6.7
				C283.4-180.1,283-180.5,282.6-180.5z"/>
		</g>
		<g>
			<path class="st7" d="M296.7-170.1c-1.5,0-2.8-1.3-2.8-2.8v-6.7c0-1.5,1.3-2.8,2.8-2.8c1.5,0,2.8,1.3,2.8,2.8v6.7
				C299.5-171.3,298.3-170.1,296.7-170.1z M296.7-180.5c-0.5,0-0.9,0.4-0.9,0.9v6.7c0,0.5,0.4,0.9,0.9,0.9s0.9-0.4,0.9-0.9v-6.7
				C297.6-180.1,297.2-180.5,296.7-180.5z"/>
		</g>
	</g>
	<g>
		<path class="st21" d="M201.2-268.2L201.2-268.2c0.8-2.5,1.2-5.2,1.2-8c0-14.7-11.9-26.7-26.7-26.7c-14.7,0-26.7,11.9-26.7,26.7
			c0,2.8,0.4,5.5,1.2,8h0l0,0c0.3,1,0.7,2,1.1,3l10.4,27.2h27.8l10.4-27.2C200.5-266.1,200.9-267.1,201.2-268.2L201.2-268.2z"/>
		<path class="st13" d="M195.6-273.8L195.6-273.8c0.8-2.5,1.2-5.2,1.2-8c0-14.7-11.9-26.7-26.7-26.7c-14.7,0-26.7,11.9-26.7,26.7
			c0,2.8,0.4,5.5,1.2,8h0l0,0c0.3,1,0.7,2,1.1,3l10.4,27.2H184l10.4-27.2C194.9-271.8,195.2-272.8,195.6-273.8L195.6-273.8z"/>
		<line class="st13" x1="156.2" y1="-238.7" x2="184" y2="-238.7"/>
		<line class="st13" x1="158.7" y1="-233.5" x2="181.6" y2="-233.5"/>
		<line class="st13" x1="161.2" y1="-228.3" x2="179.1" y2="-228.3"/>
		<polyline class="st13" points="166.1,-243.6 161.2,-262.1 179.1,-262.1 174.2,-243.6 		"/>
		<line class="st13" x1="163.6" y1="-265.8" x2="176.6" y2="-265.8"/>
		<line class="st13" x1="166.1" y1="-269.5" x2="174.2" y2="-269.5"/>
	</g>
	<path class="st13" d="M149.7-281.3c0-11.3,9.2-20.4,20.4-20.4"/>
	<g>
		<g>
			<g class="st16">
				<path class="st3" d="M317.5-268.2L317.5-268.2c0.8-2.5,1.2-5.2,1.2-8c0-14.7-11.9-26.7-26.7-26.7s-26.7,11.9-26.7,26.7
					c0,2.8,0.4,5.5,1.2,8h0l0,0c0.3,1,0.7,2,1.1,3l10.4,27.2h27.8l10.4-27.2C316.7-266.1,317.1-267.1,317.5-268.2L317.5-268.2z"/>
			</g>
			<g>
				<path class="st7" d="M300.2-242.6h-27.8c-0.4,0-0.8-0.3-0.9-0.6l-10.4-27.2c-0.4-1-0.8-2-1.2-3.1c-0.8-2.7-1.3-5.5-1.3-8.3
					c0-15.2,12.4-27.7,27.7-27.7S314-297,314-281.8c0,2.8-0.4,5.6-1.3,8.3c0,0,0,0,0,0c-0.3,1.1-0.7,2.1-1.2,3.1l-10.4,27.2
					C301-242.8,300.7-242.6,300.2-242.6z M273.1-244.6h26.4l10.1-26.6c0.4-1,0.8-2,1.1-3c0,0,0,0,0,0c0.8-2.5,1.2-5,1.2-7.7
					c0-14.1-11.5-25.7-25.7-25.7c-14.1,0-25.7,11.5-25.7,25.7c0,2.6,0.4,5.2,1.2,7.7c0.3,1,0.7,2,1.1,2.9L273.1-244.6z M311.8-273.8
					L311.8-273.8L311.8-273.8z"/>
			</g>
			<g>
				<path class="st7" d="M300.2-237.7h-27.8c-0.6,0-1-0.4-1-1s0.4-1,1-1h27.8c0.6,0,1,0.4,1,1S300.8-237.7,300.2-237.7z"/>
			</g>
			<g>
				<path class="st7" d="M297.8-232.5h-22.9c-0.6,0-1-0.4-1-1s0.4-1,1-1h22.9c0.6,0,1,0.4,1,1S298.3-232.5,297.8-232.5z"/>
			</g>
			<g>
				<path class="st7" d="M295.3-227.3h-18c-0.6,0-1-0.4-1-1s0.4-1,1-1h18c0.6,0,1,0.4,1,1S295.9-227.3,295.3-227.3z"/>
			</g>
			<g>
				<path class="st7" d="M290.4-242.6c-0.1,0-0.2,0-0.3,0c-0.5-0.1-0.9-0.7-0.7-1.2l4.6-17.3h-15.4l4.6,17.3
					c0.1,0.5-0.2,1.1-0.7,1.2c-0.5,0.1-1.1-0.2-1.2-0.7l-4.9-18.6c-0.1-0.3,0-0.6,0.2-0.9c0.2-0.2,0.5-0.4,0.8-0.4h18
					c0.3,0,0.6,0.1,0.8,0.4c0.2,0.2,0.3,0.6,0.2,0.9l-4.9,18.6C291.3-242.9,290.8-242.6,290.4-242.6z"/>
			</g>
			<g>
				<path class="st7" d="M292.9-264.8h-13c-0.6,0-1-0.4-1-1s0.4-1,1-1h13c0.6,0,1,0.4,1,1S293.4-264.8,292.9-264.8z"/>
			</g>
			<g>
				<path class="st7" d="M290.4-268.5h-8.1c-0.6,0-1-0.4-1-1s0.4-1,1-1h8.1c0.6,0,1,0.4,1,1S291-268.5,290.4-268.5z"/>
			</g>
		</g>
		<g>
			<path class="st7" d="M265.9-280.3c-0.6,0-1-0.4-1-1c0-11.8,9.6-21.4,21.4-21.4c0.6,0,1,0.4,1,1s-0.4,1-1,1
				c-10.7,0-19.4,8.7-19.4,19.4C266.9-280.8,266.5-280.3,265.9-280.3z"/>
		</g>
	</g>
	<g>
	</g>
	<g>
	</g>
	<g>
	</g>
	<g>
	</g>
	<g>
	</g>
	<g>
	</g>
	<g>
	</g>
	<g>
	</g>
	<g>
	</g>
	<g>
	</g>
	<g>
	</g>
	<g>
	</g>
	<g>
	</g>
	<g>
	</g>
	<g>
	</g>
</g>
</svg>
