<?xml version="1.0" encoding="utf-8"?>
<!-- Generator: Adobe Illustrator 22.1.0, SVG Export Plug-In . SVG Version: 6.00 Build 0)  -->
<svg version="1.1" xmlns="http://www.w3.org/2000/svg" xmlns:xlink="http://www.w3.org/1999/xlink" x="0px" y="0px"
	 viewBox="0 0 32.3 32.3" style="enable-background:new 0 0 32.3 32.3;" xml:space="preserve">
<style type="text/css">
	.st0{fill:#81BCBF;}
	.st1{fill:#585799;}
	.st2{fill:url(#SVGID_1_);}
	.st3{fill:#B6CE8C;}
	.st4{fill:#508AA6;}
	.st5{fill:url(#SVGID_2_);}
	.st6{opacity:0.2;fill:#4E8AA7;}
	.st7{fill:#292929;}
	.st8{fill:none;stroke:#292929;stroke-width:2;stroke-linejoin:round;stroke-miterlimit:10;}
	.st9{fill:none;stroke:#292929;stroke-linecap:round;stroke-linejoin:round;stroke-miterlimit:10;}
	.st10{opacity:0.2;}
	.st11{fill:#4E8AA7;}
	.st12{opacity:0.5;fill:#81BCBF;}
	.st13{fill:none;stroke:#292929;stroke-width:2;stroke-linecap:round;stroke-linejoin:round;stroke-miterlimit:10;}
	.st14{fill:none;stroke:#292929;stroke-linejoin:round;stroke-miterlimit:10;}
	.st15{fill:none;stroke:#292929;stroke-width:1.5;stroke-linecap:round;stroke-linejoin:round;stroke-miterlimit:10;}
	.st16{opacity:0.25;}
	.st17{opacity:0.2;fill:#585799;}
	.st18{fill:none;stroke:#282828;stroke-linecap:round;stroke-linejoin:round;stroke-miterlimit:10;}
	.st19{fill:none;stroke:#282828;stroke-linejoin:round;stroke-miterlimit:10;}
	.st20{fill:#282828;}
	.st21{opacity:0.5;fill:#B6CE8C;}
	.st22{fill:none;stroke:#292929;stroke-width:1.9456;stroke-linecap:round;stroke-linejoin:round;stroke-miterlimit:10;}
</style>
<g id="COLORES">
	<rect x="-446.5" y="-390.8" class="st0" width="36" height="36"/>
	<rect x="-446.5" y="-354.8" class="st1" width="36" height="36"/>
	<linearGradient id="SVGID_1_" gradientUnits="userSpaceOnUse" x1="-518.4521" y1="-354.8428" x2="-446.4521" y2="-354.8428">
		<stop  offset="0" style="stop-color:#81BCBF"/>
		<stop  offset="1" style="stop-color:#585799"/>
	</linearGradient>
	<rect x="-518.5" y="-390.8" class="st2" width="72" height="72"/>
	<rect x="-446.5" y="-312.8" class="st3" width="36" height="36"/>
	<rect x="-446.5" y="-276.8" class="st4" width="36" height="36"/>
	<linearGradient id="SVGID_2_" gradientUnits="userSpaceOnUse" x1="-518.4521" y1="-276.8428" x2="-446.4521" y2="-276.8428">
		<stop  offset="0" style="stop-color:#B6CE8C"/>
		<stop  offset="1" style="stop-color:#508AA6"/>
	</linearGradient>
	<rect x="-518.5" y="-312.8" class="st5" width="72" height="72"/>
	<g>
		<rect x="5" y="-54.5" class="st6" width="27.3" height="27.3"/>
		<g>
			<path class="st7" d="M8.5-41.1l0.7-0.8c1,0.9,2,1.4,3.4,1.4c1.3,0,2.2-0.7,2.2-1.7v0c0-0.9-0.5-1.5-2.6-1.9
				c-2.3-0.5-3.4-1.2-3.4-2.9v0c0-1.6,1.4-2.7,3.3-2.7c1.5,0,2.5,0.4,3.5,1.2L15-47.7c-0.9-0.8-1.9-1.1-2.9-1.1
				c-1.3,0-2.1,0.7-2.1,1.6v0c0,0.9,0.5,1.5,2.7,1.9c2.2,0.5,3.3,1.3,3.3,2.8v0c0,1.7-1.4,2.8-3.4,2.8C11-39.5,9.7-40,8.5-41.1z"/>
			<path class="st7" d="M18.2-47.1h1.1v7.4h-1.1V-47.1z M19.7-50.3l1.1,0.5l-1.6,1.5h-0.9L19.7-50.3z"/>
		</g>
		<rect x="1" y="-58.5" class="st8" width="27.3" height="27.3"/>
	</g>
	<g>
		<rect x="83.9" y="-54.3" class="st6" width="27.3" height="27.3"/>
		<rect x="79.9" y="-58.3" class="st8" width="27.3" height="27.3"/>
		<polyline class="st9" points="83.9,-38.9 91.5,-50.5 89.1,-41.1 94.9,-45.3 93.3,-41.4 99.3,-44.7 97.6,-41.2 103.2,-43.5 		"/>
	</g>
	<g>
		<rect x="165" y="-54.3" class="st6" width="27.3" height="27.3"/>
		<rect x="161" y="-58.3" class="st8" width="27.3" height="27.3"/>
		<g>
			<polyline class="st9" points="171,-43.6 173.3,-40.7 177.5,-47.8 			"/>
			<path class="st9" d="M182.4-44.7c0,4.3-3.5,7.8-7.8,7.8c-4.3,0-7.8-3.5-7.8-7.8c0-4.3,3.5-7.8,7.8-7.8
				C178.9-52.4,182.4-49,182.4-44.7z"/>
		</g>
	</g>
	<g>
		<g class="st10">
			<rect x="5" y="5" class="st11" width="27.3" height="27.3"/>
		</g>
		<g>
			<g>
				<path class="st7" d="M8.5,18.4l0.7-0.8c1,0.9,2,1.4,3.4,1.4c1.3,0,2.2-0.7,2.2-1.7v0c0-0.9-0.5-1.5-2.6-1.9
					c-2.3-0.5-3.4-1.2-3.4-2.9v0c0-1.6,1.4-2.7,3.3-2.7c1.5,0,2.5,0.4,3.5,1.2L15,11.8c-0.9-0.8-1.9-1.1-2.9-1.1
					c-1.3,0-2.1,0.7-2.1,1.6v0c0,0.9,0.5,1.5,2.7,1.9c2.2,0.5,3.3,1.3,3.3,2.8v0c0,1.7-1.4,2.8-3.4,2.8C11,20,9.7,19.5,8.5,18.4z"/>
			</g>
			<g>
				<path class="st7" d="M18.2,12.5h1.1v7.4h-1.1V12.5z M19.7,9.3l1.1,0.5l-1.6,1.5h-0.9L19.7,9.3z"/>
			</g>
		</g>
		<g>
			<path class="st7" d="M28.3,29.3H1c-0.6,0-1-0.4-1-1V1c0-0.6,0.4-1,1-1h27.3c0.6,0,1,0.4,1,1v27.3C29.3,28.8,28.8,29.3,28.3,29.3z
				 M2,27.3h25.3V2H2V27.3z"/>
		</g>
	</g>
	<g>
		<g class="st10">
			<rect x="83.9" y="5.2" class="st11" width="27.3" height="27.3"/>
		</g>
		<g>
			<path class="st7" d="M107.2,29.5H79.9c-0.6,0-1-0.4-1-1V1.2c0-0.6,0.4-1,1-1h27.3c0.6,0,1,0.4,1,1v27.3
				C108.2,29.1,107.7,29.5,107.2,29.5z M80.9,27.5h25.3V2.2H80.9V27.5z"/>
		</g>
		<g>
			<path class="st7" d="M83.9,21.2c-0.1,0-0.2,0-0.3-0.1c-0.2-0.2-0.3-0.5-0.1-0.7l7.6-11.6c0.1-0.2,0.4-0.3,0.6-0.2
				C92,8.7,92.1,8.9,92,9.2l-2.1,8l4.7-3.4c0.2-0.1,0.4-0.1,0.6,0c0.2,0.1,0.2,0.4,0.2,0.6L94.3,17l4.8-2.6c0.2-0.1,0.4-0.1,0.6,0.1
				c0.2,0.2,0.2,0.4,0.1,0.6l-1.1,2.2l4.3-1.7c0.3-0.1,0.5,0,0.7,0.3c0.1,0.3,0,0.5-0.3,0.7l-5.6,2.2c-0.2,0.1-0.4,0-0.6-0.1
				s-0.2-0.4-0.1-0.6l1-2l-4.7,2.5c-0.2,0.1-0.4,0.1-0.6-0.1c-0.2-0.1-0.2-0.4-0.1-0.6l0.9-2.2l-4.4,3.2c-0.2,0.1-0.4,0.1-0.6,0
				c-0.2-0.1-0.3-0.3-0.2-0.5l1.7-6.4l-6,9.1C84.2,21.1,84.1,21.2,83.9,21.2z"/>
		</g>
	</g>
	<g>
		<g class="st10">
			<rect x="165" y="5.2" class="st11" width="27.3" height="27.3"/>
		</g>
		<g>
			<path class="st7" d="M188.3,29.5H161c-0.6,0-1-0.4-1-1V1.2c0-0.6,0.4-1,1-1h27.3c0.6,0,1,0.4,1,1v27.3
				C189.3,29.1,188.8,29.5,188.3,29.5z M162,27.5h25.3V2.2H162V27.5z"/>
		</g>
		<g>
			<g>
				<path class="st7" d="M173.3,19.4c-0.2,0-0.3-0.1-0.4-0.2l-2.4-2.9c-0.2-0.2-0.1-0.5,0.1-0.7c0.2-0.2,0.5-0.1,0.7,0.1l1.9,2.4
					l3.8-6.5c0.1-0.2,0.4-0.3,0.7-0.2c0.2,0.1,0.3,0.4,0.2,0.7l-4.2,7.1C173.7,19.2,173.5,19.3,173.3,19.4
					C173.4,19.4,173.3,19.4,173.3,19.4z"/>
			</g>
			<g>
				<path class="st7" d="M174.6,23.1c-4.6,0-8.3-3.7-8.3-8.3s3.7-8.3,8.3-8.3c4.6,0,8.3,3.7,8.3,8.3S179.2,23.1,174.6,23.1z
					 M174.6,7.6c-4,0-7.3,3.3-7.3,7.3s3.3,7.3,7.3,7.3c4,0,7.3-3.3,7.3-7.3S178.7,7.6,174.6,7.6z"/>
			</g>
		</g>
	</g>
</g>
<g id="Tratamiento_de_Datos">
	<path class="st12" d="M266.9-170.4h20.2c2.8,0,5,2.2,5,5v48.6c0,2.8-2.2,5-5,5h-58.3c-2.8,0-5-2.2-5-5v-48.6c0-2.8,2.2-5,5-5h20.2"
		/>
	<g>
		<rect x="-278.9" y="-295" class="st12" width="54.6" height="68.8"/>
		<polyline class="st13" points="-230.3,-245 -230.3,-232.1 -284.8,-232.1 -284.8,-300.9 -230.3,-300.9 -230.3,-278.2 		"/>
		<rect x="-277.5" y="-293.5" class="st14" width="12.5" height="12.5"/>
		<line class="st9" x1="-259.8" y1="-287.2" x2="-241.8" y2="-287.2"/>
		<line class="st9" x1="-259.8" y1="-282.8" x2="-241.8" y2="-282.8"/>
		<line class="st15" x1="-272.7" y1="-272.4" x2="-242.4" y2="-272.4"/>
		<line class="st15" x1="-272.7" y1="-265.1" x2="-242.4" y2="-265.1"/>
		<line class="st15" x1="-272.7" y1="-257.7" x2="-248.4" y2="-257.7"/>
		<line class="st15" x1="-272.7" y1="-250.3" x2="-252.4" y2="-250.3"/>
		<line class="st15" x1="-272.7" y1="-243" x2="-253.4" y2="-243"/>
		<g>
			<polygon class="st8" points="-229,-270.2 -247.5,-251.7 -249,-243 -240.3,-244.5 -221.8,-263 			"/>
			<line class="st8" x1="-247.5" y1="-251.7" x2="-240.3" y2="-244.5"/>
			<line class="st8" x1="-225.4" y1="-266.6" x2="-243.9" y2="-248.1"/>
			<polyline class="st8" points="-229,-270.2 -226.1,-273.1 -218.9,-265.9 -221.8,-263 			"/>
		</g>
	</g>
	<rect x="-278.9" y="-179" class="st12" width="54.6" height="68.8"/>
	<rect x="-284.8" y="-184.9" class="st13" width="54.6" height="68.8"/>
	<rect x="-277.5" y="-177.5" class="st14" width="12.5" height="12.5"/>
	<line class="st9" x1="-259.8" y1="-171.2" x2="-241.8" y2="-171.2"/>
	<line class="st9" x1="-259.8" y1="-166.8" x2="-241.8" y2="-166.8"/>
	<line class="st15" x1="-272.7" y1="-156.4" x2="-242.4" y2="-156.4"/>
	<line class="st15" x1="-272.7" y1="-149.1" x2="-242.4" y2="-149.1"/>
	<line class="st15" x1="-272.7" y1="-141.7" x2="-242.4" y2="-141.7"/>
	<line class="st15" x1="-272.7" y1="-134.3" x2="-242.4" y2="-134.3"/>
	<line class="st15" x1="-272.7" y1="-127" x2="-242.4" y2="-127"/>
	<g>
		<g class="st16">
			<rect x="-162.7" y="-179" class="st0" width="54.6" height="68.8"/>
		</g>
		<g>
			<path class="st7" d="M-114-115.1h-54.6c-0.6,0-1-0.4-1-1v-68.8c0-0.6,0.4-1,1-1h54.6c0.6,0,1,0.4,1,1v68.8
				C-113-115.5-113.5-115.1-114-115.1z M-167.6-117.1h52.6v-66.8h-52.6V-117.1z"/>
		</g>
		<g>
			<path class="st7" d="M-148.7-164.5h-12.5c-0.3,0-0.5-0.2-0.5-0.5v-12.5c0-0.3,0.2-0.5,0.5-0.5h12.5c0.3,0,0.5,0.2,0.5,0.5v12.5
				C-148.2-164.7-148.4-164.5-148.7-164.5z M-160.7-165.5h11.5V-177h-11.5V-165.5z"/>
		</g>
		<g>
			<path class="st7" d="M-125.6-170.7h-18.1c-0.3,0-0.5-0.2-0.5-0.5s0.2-0.5,0.5-0.5h18.1c0.3,0,0.5,0.2,0.5,0.5
				S-125.3-170.7-125.6-170.7z"/>
		</g>
		<g>
			<path class="st7" d="M-125.6-166.3h-18.1c-0.3,0-0.5-0.2-0.5-0.5s0.2-0.5,0.5-0.5h18.1c0.3,0,0.5,0.2,0.5,0.5
				S-125.3-166.3-125.6-166.3z"/>
		</g>
		<g>
			<path class="st7" d="M-126.2-155.7h-30.4c-0.4,0-0.8-0.3-0.8-0.8s0.3-0.8,0.8-0.8h30.4c0.4,0,0.8,0.3,0.8,0.8
				S-125.7-155.7-126.2-155.7z"/>
		</g>
		<g>
			<path class="st7" d="M-126.2-148.3h-30.4c-0.4,0-0.8-0.3-0.8-0.8s0.3-0.8,0.8-0.8h30.4c0.4,0,0.8,0.3,0.8,0.8
				S-125.7-148.3-126.2-148.3z"/>
		</g>
		<g>
			<path class="st7" d="M-126.2-141h-30.4c-0.4,0-0.8-0.3-0.8-0.8s0.3-0.8,0.8-0.8h30.4c0.4,0,0.8,0.3,0.8,0.8S-125.7-141-126.2-141
				z"/>
		</g>
		<g>
			<path class="st7" d="M-126.2-133.6h-30.4c-0.4,0-0.8-0.3-0.8-0.8s0.3-0.8,0.8-0.8h30.4c0.4,0,0.8,0.3,0.8,0.8
				S-125.7-133.6-126.2-133.6z"/>
		</g>
		<g>
			<path class="st7" d="M-126.2-126.2h-30.4c-0.4,0-0.8-0.3-0.8-0.8s0.3-0.8,0.8-0.8h30.4c0.4,0,0.8,0.3,0.8,0.8
				S-125.7-126.2-126.2-126.2z"/>
		</g>
	</g>
	<g>
		<g class="st16">
			<rect x="-162.9" y="-295" class="st0" width="54.6" height="68.8"/>
		</g>
		<g>
			<path class="st7" d="M-114.3-231.1h-54.6c-0.6,0-1-0.4-1-1v-68.8c0-0.6,0.4-1,1-1h54.6c0.6,0,1,0.4,1,1v22.7c0,0.6-0.4,1-1,1
				s-1-0.4-1-1v-21.7h-52.6v66.8h52.6V-245c0-0.6,0.4-1,1-1s1,0.4,1,1v12.9C-113.3-231.5-113.7-231.1-114.3-231.1z"/>
		</g>
		<g>
			<path class="st7" d="M-148.9-280.5h-12.5c-0.3,0-0.5-0.2-0.5-0.5v-12.5c0-0.3,0.2-0.5,0.5-0.5h12.5c0.3,0,0.5,0.2,0.5,0.5v12.5
				C-148.4-280.7-148.7-280.5-148.9-280.5z M-161-281.5h11.5V-293H-161V-281.5z"/>
		</g>
		<g>
			<path class="st7" d="M-125.8-286.7h-18.1c-0.3,0-0.5-0.2-0.5-0.5s0.2-0.5,0.5-0.5h18.1c0.3,0,0.5,0.2,0.5,0.5
				S-125.5-286.7-125.8-286.7z"/>
		</g>
		<g>
			<path class="st7" d="M-125.8-282.3h-18.1c-0.3,0-0.5-0.2-0.5-0.5s0.2-0.5,0.5-0.5h18.1c0.3,0,0.5,0.2,0.5,0.5
				S-125.5-282.3-125.8-282.3z"/>
		</g>
		<g>
			<path class="st7" d="M-126.4-271.7h-30.4c-0.4,0-0.8-0.3-0.8-0.8s0.3-0.8,0.8-0.8h30.4c0.4,0,0.8,0.3,0.8,0.8
				S-126-271.7-126.4-271.7z"/>
		</g>
		<g>
			<path class="st7" d="M-126.4-264.3h-30.4c-0.4,0-0.8-0.3-0.8-0.8s0.3-0.8,0.8-0.8h30.4c0.4,0,0.8,0.3,0.8,0.8
				S-126-264.3-126.4-264.3z"/>
		</g>
		<g>
			<path class="st7" d="M-132.4-257h-24.4c-0.4,0-0.8-0.3-0.8-0.8s0.3-0.8,0.8-0.8h24.4c0.4,0,0.8,0.3,0.8,0.8S-132-257-132.4-257z"
				/>
		</g>
		<g>
			<path class="st7" d="M-136.4-249.6h-20.4c-0.4,0-0.8-0.3-0.8-0.8s0.3-0.8,0.8-0.8h20.4c0.4,0,0.8,0.3,0.8,0.8
				S-136-249.6-136.4-249.6z"/>
		</g>
		<g>
			<path class="st7" d="M-137.4-242.2h-19.4c-0.4,0-0.8-0.3-0.8-0.8s0.3-0.8,0.8-0.8h19.4c0.4,0,0.8,0.3,0.8,0.8
				S-137-242.2-137.4-242.2z"/>
		</g>
		<g>
			<g>
				<path class="st7" d="M-133-242c-0.3,0-0.5-0.1-0.7-0.3c-0.2-0.2-0.3-0.6-0.3-0.9l1.6-8.8c0-0.2,0.1-0.4,0.3-0.5l18.5-18.5
					c0.2-0.2,0.4-0.3,0.7-0.3l0,0c0.3,0,0.5,0.1,0.7,0.3l7.2,7.2c0.4,0.4,0.4,1,0,1.4l-18.5,18.5c-0.1,0.1-0.3,0.2-0.5,0.3l-8.8,1.6
					C-132.9-242-133-242-133-242z M-130.6-251.3l-1.3,7.1l7-1.3l17.6-17.6l-5.8-5.8L-130.6-251.3z"/>
			</g>
			<g>
				
					<rect x="-128.9" y="-253.2" transform="matrix(0.7072 -0.707 0.707 0.7072 137.9959 -163.0715)" class="st7" width="2" height="10.2"/>
			</g>
			<g>
				
					<rect x="-131.7" y="-258.4" transform="matrix(0.7071 -0.7071 0.7071 0.7071 147.2556 -159.265)" class="st7" width="26.2" height="2"/>
			</g>
			<g>
				<path class="st7" d="M-105.1-262.3l-1.4-1.4l2.1-2.1l-5.8-5.8l-2.1,2.1l-1.4-1.4l2.8-2.9c0.2-0.2,0.4-0.3,0.7-0.3l0,0
					c0.3,0,0.5,0.1,0.7,0.3l7.2,7.2c0.4,0.4,0.4,1,0,1.4L-105.1-262.3z"/>
			</g>
		</g>
	</g>
	<g>
		<rect x="-273.4" y="-57" class="st17" width="27.3" height="34.4"/>
		<rect x="-277.4" y="-61" class="st8" width="27.3" height="34.4"/>
		<g>
			<line class="st15" x1="-271.3" y1="-53.9" x2="-256.2" y2="-53.9"/>
			<line class="st15" x1="-271.3" y1="-49.8" x2="-256.2" y2="-49.8"/>
			<line class="st15" x1="-271.3" y1="-45.8" x2="-256.2" y2="-45.8"/>
			<line class="st15" x1="-271.3" y1="-41.7" x2="-256.2" y2="-41.7"/>
			<line class="st15" x1="-271.3" y1="-37.7" x2="-256.2" y2="-37.7"/>
			<line class="st15" x1="-271.3" y1="-33.6" x2="-256.2" y2="-33.6"/>
		</g>
	</g>
	<g>
		<rect x="-194.5" y="-57" class="st17" width="27.3" height="34.4"/>
		<polyline class="st13" points="-171.2,-31.7 -171.2,-26.6 -198.5,-26.6 -198.5,-61 -171.2,-61 -171.2,-49.7 		"/>
		<g>
			<line class="st15" x1="-192.5" y1="-53.9" x2="-177.3" y2="-53.9"/>
			<line class="st15" x1="-192.5" y1="-49.8" x2="-177.3" y2="-49.8"/>
			<line class="st15" x1="-192.5" y1="-45.8" x2="-177.3" y2="-45.8"/>
			<line class="st15" x1="-192.5" y1="-41.7" x2="-178.2" y2="-41.7"/>
			<line class="st15" x1="-192.5" y1="-37.7" x2="-181.6" y2="-37.7"/>
			<line class="st15" x1="-192.5" y1="-33.6" x2="-182.3" y2="-33.6"/>
		</g>
		<g>
			<polygon class="st18" points="-169.7,-46.2 -178.5,-37.4 -179.2,-33.3 -175.1,-34 -166.3,-42.8 			"/>
			<line class="st18" x1="-178.5" y1="-37.4" x2="-175.1" y2="-34"/>
			<line class="st19" x1="-168" y1="-44.5" x2="-176.8" y2="-35.7"/>
			<polyline class="st18" points="-169.7,-46.2 -168.4,-47.5 -165,-44.1 -166.3,-42.8 			"/>
		</g>
	</g>
	<g>
		<rect x="-113.4" y="-57" class="st17" width="27.3" height="34.4"/>
		<polyline class="st13" points="-90.1,-31.7 -90.1,-26.6 -117.4,-26.6 -117.4,-61 -90.1,-61 -90.1,-49.7 		"/>
		<g>
			<line class="st15" x1="-111.3" y1="-53.9" x2="-96.2" y2="-53.9"/>
			<line class="st15" x1="-111.3" y1="-49.8" x2="-96.2" y2="-49.8"/>
			<line class="st15" x1="-111.3" y1="-45.8" x2="-101.2" y2="-45.8"/>
			<line class="st15" x1="-111.3" y1="-41.7" x2="-102" y2="-41.7"/>
			<line class="st15" x1="-111.3" y1="-37.7" x2="-100.5" y2="-37.7"/>
			<line class="st15" x1="-111.3" y1="-33.6" x2="-96.2" y2="-33.6"/>
		</g>
		<path class="st9" d="M-90-43.3c0.5,2.5-1.1,5-3.6,5.5c-2.5,0.5-5-1.1-5.5-3.6c-0.5-2.5,1.1-5,3.6-5.5
			C-92.9-47.4-90.5-45.8-90-43.3z"/>
		<path class="st9" d="M-90-43.3c0.5,2.5-1.1,5-3.6,5.5c-2.5,0.5-5-1.1-5.5-3.6c-0.5-2.5,1.1-5,3.6-5.5
			C-92.9-47.4-90.5-45.8-90-43.3z"/>
		<line class="st9" x1="-91.4" y1="-38.9" x2="-87.1" y2="-34"/>
	</g>
	<g>
		<g class="st10">
			<rect x="-273.4" y="2.6" class="st1" width="27.3" height="34.4"/>
		</g>
		<g>
			<path class="st7" d="M-250.1,34h-27.3c-0.6,0-1-0.4-1-1V-1.4c0-0.6,0.4-1,1-1h27.3c0.6,0,1,0.4,1,1V33
				C-249.1,33.5-249.6,34-250.1,34z M-276.4,32h25.3V-0.4h-25.3V32z"/>
		</g>
		<g>
			<g>
				<path class="st7" d="M-256.2,6.4h-15.2c-0.4,0-0.8-0.3-0.8-0.8s0.3-0.8,0.8-0.8h15.2c0.4,0,0.8,0.3,0.8,0.8
					S-255.7,6.4-256.2,6.4z"/>
			</g>
			<g>
				<path class="st7" d="M-256.2,10.4h-15.2c-0.4,0-0.8-0.3-0.8-0.8s0.3-0.8,0.8-0.8h15.2c0.4,0,0.8,0.3,0.8,0.8
					S-255.7,10.4-256.2,10.4z"/>
			</g>
			<g>
				<path class="st7" d="M-256.2,14.5h-15.2c-0.4,0-0.8-0.3-0.8-0.8s0.3-0.8,0.8-0.8h15.2c0.4,0,0.8,0.3,0.8,0.8
					S-255.7,14.5-256.2,14.5z"/>
			</g>
			<g>
				<path class="st7" d="M-256.2,18.5h-15.2c-0.4,0-0.8-0.3-0.8-0.8s0.3-0.8,0.8-0.8h15.2c0.4,0,0.8,0.3,0.8,0.8
					S-255.7,18.5-256.2,18.5z"/>
			</g>
			<g>
				<path class="st7" d="M-256.2,22.6h-15.2c-0.4,0-0.8-0.3-0.8-0.8s0.3-0.8,0.8-0.8h15.2c0.4,0,0.8,0.3,0.8,0.8
					S-255.7,22.6-256.2,22.6z"/>
			</g>
			<g>
				<path class="st7" d="M-256.2,26.6h-15.2c-0.4,0-0.8-0.3-0.8-0.8s0.3-0.8,0.8-0.8h15.2c0.4,0,0.8,0.3,0.8,0.8
					S-255.7,26.6-256.2,26.6z"/>
			</g>
		</g>
	</g>
	<g>
		<g class="st10">
			<rect x="-194.5" y="2.6" class="st1" width="27.3" height="34.4"/>
		</g>
		<g>
			<path class="st7" d="M-171.2,34h-27.3c-0.6,0-1-0.4-1-1V-1.4c0-0.6,0.4-1,1-1h27.3c0.6,0,1,0.4,1,1V9.8c0,0.6-0.4,1-1,1
				s-1-0.4-1-1V-0.4h-25.3V32h25.3v-4.1c0-0.6,0.4-1,1-1s1,0.4,1,1V33C-170.2,33.5-170.7,34-171.2,34z"/>
		</g>
		<g>
			<g>
				<path class="st7" d="M-177.3,6.4h-15.2c-0.4,0-0.8-0.3-0.8-0.8s0.3-0.8,0.8-0.8h15.2c0.4,0,0.8,0.3,0.8,0.8
					S-176.9,6.4-177.3,6.4z"/>
			</g>
			<g>
				<path class="st7" d="M-177.3,10.4h-15.2c-0.4,0-0.8-0.3-0.8-0.8s0.3-0.8,0.8-0.8h15.2c0.4,0,0.8,0.3,0.8,0.8
					S-176.9,10.4-177.3,10.4z"/>
			</g>
			<g>
				<path class="st7" d="M-177.3,14.5h-15.2c-0.4,0-0.8-0.3-0.8-0.8s0.3-0.8,0.8-0.8h15.2c0.4,0,0.8,0.3,0.8,0.8
					S-176.9,14.5-177.3,14.5z"/>
			</g>
			<g>
				<path class="st7" d="M-178.2,18.5h-14.3c-0.4,0-0.8-0.3-0.8-0.8s0.3-0.8,0.8-0.8h14.3c0.4,0,0.8,0.3,0.8,0.8
					S-177.7,18.5-178.2,18.5z"/>
			</g>
			<g>
				<path class="st7" d="M-181.6,22.6h-10.9c-0.4,0-0.8-0.3-0.8-0.8s0.3-0.8,0.8-0.8h10.9c0.4,0,0.8,0.3,0.8,0.8
					S-181.2,22.6-181.6,22.6z"/>
			</g>
			<g>
				<path class="st7" d="M-182.3,26.6h-10.2c-0.4,0-0.8-0.3-0.8-0.8s0.3-0.8,0.8-0.8h10.2c0.4,0,0.8,0.3,0.8,0.8
					S-181.9,26.6-182.3,26.6z"/>
			</g>
		</g>
		<g>
			<g>
				<path class="st20" d="M-179.2,26.7c-0.1,0-0.3-0.1-0.4-0.1c-0.1-0.1-0.2-0.3-0.1-0.4l0.7-4.1c0-0.1,0.1-0.2,0.1-0.3l8.7-8.7
					c0.1-0.1,0.2-0.1,0.4-0.1l0,0c0.1,0,0.3,0.1,0.4,0.1l3.4,3.4c0.2,0.2,0.2,0.5,0,0.7l-8.7,8.7c-0.1,0.1-0.2,0.1-0.3,0.1
					L-179.2,26.7C-179.2,26.7-179.2,26.7-179.2,26.7z M-178,22.3l-0.6,3.3l3.3-0.6l8.3-8.3l-2.7-2.7L-178,22.3z"/>
			</g>
			<g>
				<path class="st20" d="M-175.1,26c-0.1,0-0.3,0-0.4-0.1l-3.4-3.4c-0.2-0.2-0.2-0.5,0-0.7s0.5-0.2,0.7,0l3.4,3.4
					c0.2,0.2,0.2,0.5,0,0.7C-174.8,25.9-175,26-175.1,26z"/>
			</g>
			<g>
				
					<rect x="-178.6" y="18.9" transform="matrix(0.7071 -0.7071 0.7071 0.7071 -64.2294 -116.2266)" class="st20" width="12.4" height="1"/>
			</g>
			<g>
				<path class="st20" d="M-166.3,17.3c-0.1,0-0.3,0-0.4-0.1c-0.2-0.2-0.2-0.5,0-0.7l1-1l-2.7-2.7l-1,1c-0.2,0.2-0.5,0.2-0.7,0
					s-0.2-0.5,0-0.7l1.3-1.3c0.1-0.1,0.2-0.1,0.4-0.1l0,0c0.1,0,0.3,0.1,0.4,0.1l3.4,3.4c0.2,0.2,0.2,0.5,0,0.7l-1.3,1.3
					C-166.1,17.2-166.2,17.3-166.3,17.3z"/>
			</g>
		</g>
	</g>
	<g>
		<g class="st10">
			<rect x="-113.4" y="2.6" class="st1" width="27.3" height="34.4"/>
		</g>
		<g>
			<path class="st7" d="M-90.1,34h-27.3c-0.6,0-1-0.4-1-1V-1.4c0-0.6,0.4-1,1-1h27.3c0.6,0,1,0.4,1,1V9.8c0,0.6-0.4,1-1,1
				s-1-0.4-1-1V-0.4h-25.3V32h25.3v-4.1c0-0.6,0.4-1,1-1s1,0.4,1,1V33C-89.1,33.5-89.6,34-90.1,34z"/>
		</g>
		<g>
			<g>
				<path class="st7" d="M-96.2,6.4h-15.2c-0.4,0-0.8-0.3-0.8-0.8s0.3-0.8,0.8-0.8h15.2c0.4,0,0.8,0.3,0.8,0.8S-95.7,6.4-96.2,6.4z"
					/>
			</g>
			<g>
				<path class="st7" d="M-96.2,10.4h-15.2c-0.4,0-0.8-0.3-0.8-0.8s0.3-0.8,0.8-0.8h15.2c0.4,0,0.8,0.3,0.8,0.8
					S-95.7,10.4-96.2,10.4z"/>
			</g>
			<g>
				<path class="st7" d="M-101.2,14.5h-10.2c-0.4,0-0.8-0.3-0.8-0.8s0.3-0.8,0.8-0.8h10.2c0.4,0,0.8,0.3,0.8,0.8
					S-100.7,14.5-101.2,14.5z"/>
			</g>
			<g>
				<path class="st7" d="M-102,18.5h-9.3c-0.4,0-0.8-0.3-0.8-0.8s0.3-0.8,0.8-0.8h9.3c0.4,0,0.8,0.3,0.8,0.8S-101.6,18.5-102,18.5z"
					/>
			</g>
			<g>
				<path class="st7" d="M-100.5,22.6h-10.9c-0.4,0-0.8-0.3-0.8-0.8s0.3-0.8,0.8-0.8h10.9c0.4,0,0.8,0.3,0.8,0.8
					S-100.1,22.6-100.5,22.6z"/>
			</g>
			<g>
				<path class="st7" d="M-96.2,26.6h-15.2c-0.4,0-0.8-0.3-0.8-0.8s0.3-0.8,0.8-0.8h15.2c0.4,0,0.8,0.3,0.8,0.8
					S-95.7,26.6-96.2,26.6z"/>
			</g>
		</g>
		<g>
			<path class="st7" d="M-94.5,22.3c-2.4,0-4.5-1.7-5.1-4.1c-0.3-1.3,0-2.7,0.7-3.9c0.8-1.2,1.9-1.9,3.3-2.2c2.8-0.6,5.5,1.2,6.1,4
				c0.3,1.3,0,2.7-0.7,3.9c-0.8,1.2-1.9,1.9-3.3,2.2C-93.8,22.3-94.2,22.3-94.5,22.3z M-94.5,13c-0.3,0-0.6,0-0.8,0.1
				c-1.1,0.2-2,0.9-2.6,1.8c-0.6,0.9-0.8,2-0.6,3.1c0.5,2.2,2.7,3.7,4.9,3.2c1.1-0.2,2-0.9,2.6-1.8c0.6-0.9,0.8-2,0.6-3.1
				C-90.9,14.4-92.6,13-94.5,13z"/>
		</g>
		<g>
			<path class="st7" d="M-94.5,22.3c-2.4,0-4.5-1.7-5.1-4.1c-0.3-1.3,0-2.7,0.7-3.9c0.8-1.2,1.9-1.9,3.3-2.2c2.8-0.6,5.5,1.2,6.1,4
				c0.3,1.3,0,2.7-0.7,3.9c-0.8,1.2-1.9,1.9-3.3,2.2C-93.8,22.3-94.2,22.3-94.5,22.3z M-94.5,13c-0.3,0-0.6,0-0.8,0.1
				c-1.1,0.2-2,0.9-2.6,1.8c-0.6,0.9-0.8,2-0.6,3.1c0.5,2.2,2.7,3.7,4.9,3.2c1.1-0.2,2-0.9,2.6-1.8c0.6-0.9,0.8-2,0.6-3.1
				C-90.9,14.4-92.6,13-94.5,13z"/>
		</g>
		<g>
			<path class="st7" d="M-87.1,26c-0.1,0-0.3-0.1-0.4-0.2l-4.3-4.8c-0.2-0.2-0.2-0.5,0-0.7s0.5-0.2,0.7,0l4.3,4.8
				c0.2,0.2,0.2,0.5,0,0.7C-86.9,25.9-87,26-87.1,26z"/>
		</g>
	</g>
	<rect x="-11" y="-295.8" class="st21" width="54.6" height="68.8"/>
	<g>
		<line class="st15" x1="-4.8" y1="-288.2" x2="25.5" y2="-288.2"/>
		<line class="st15" x1="-4.8" y1="-280.7" x2="25.5" y2="-280.7"/>
		<line class="st15" x1="-4.8" y1="-273.2" x2="18.5" y2="-273.2"/>
		<line class="st15" x1="-4.8" y1="-265.7" x2="15.5" y2="-265.7"/>
		<line class="st15" x1="-4.8" y1="-258.2" x2="15.5" y2="-258.2"/>
		<line class="st15" x1="-4.8" y1="-250.8" x2="18.5" y2="-250.8"/>
	</g>
	<polyline class="st13" points="37.6,-245.8 37.6,-232.9 -16.9,-232.9 -16.9,-301.7 37.6,-301.7 37.6,-278.9 	"/>
	<rect x="-11" y="-179.5" class="st12" width="54.6" height="68.8"/>
	<polyline class="st13" points="37.6,-129.6 37.6,-116.7 -16.9,-116.7 -16.9,-185.4 37.6,-185.4 37.6,-129.6 	"/>
	<g>
		<polyline class="st13" points="25.9,-260.6 29.6,-256 36.1,-267.2 		"/>
		<path class="st13" d="M43.8-262.3c0,6.7-5.5,12.2-12.2,12.2c-6.7,0-12.2-5.5-12.2-12.2c0-6.7,5.5-12.2,12.2-12.2
			C38.4-274.5,43.8-269,43.8-262.3z"/>
	</g>
	<g>
		<g class="st16">
			<rect x="105.2" y="-295.8" class="st3" width="54.6" height="68.8"/>
		</g>
		<g>
			<g>
				<path class="st7" d="M141.7-287.5h-30.4c-0.4,0-0.8-0.3-0.8-0.8s0.3-0.8,0.8-0.8h30.4c0.4,0,0.8,0.3,0.8,0.8
					S142.2-287.5,141.7-287.5z"/>
			</g>
			<g>
				<path class="st7" d="M141.7-280h-30.4c-0.4,0-0.8-0.3-0.8-0.8s0.3-0.8,0.8-0.8h30.4c0.4,0,0.8,0.3,0.8,0.8S142.2-280,141.7-280z
					"/>
			</g>
			<g>
				<path class="st7" d="M134.7-272.5h-23.4c-0.4,0-0.8-0.3-0.8-0.8s0.3-0.8,0.8-0.8h23.4c0.4,0,0.8,0.3,0.8,0.8
					S135.2-272.5,134.7-272.5z"/>
			</g>
			<g>
				<path class="st7" d="M131.7-265h-20.4c-0.4,0-0.8-0.3-0.8-0.8s0.3-0.8,0.8-0.8h20.4c0.4,0,0.8,0.3,0.8,0.8S132.2-265,131.7-265z
					"/>
			</g>
			<g>
				<path class="st7" d="M131.7-257.5h-20.4c-0.4,0-0.8-0.3-0.8-0.8s0.3-0.8,0.8-0.8h20.4c0.4,0,0.8,0.3,0.8,0.8
					S132.2-257.5,131.7-257.5z"/>
			</g>
			<g>
				<path class="st7" d="M134.7-250h-23.4c-0.4,0-0.8-0.3-0.8-0.8s0.3-0.8,0.8-0.8h23.4c0.4,0,0.8,0.3,0.8,0.8S135.2-250,134.7-250z
					"/>
			</g>
		</g>
		<g>
			<path class="st7" d="M153.9-231.9H99.3c-0.6,0-1-0.4-1-1v-68.8c0-0.6,0.4-1,1-1h54.6c0.6,0,1,0.4,1,1v22.7c0,0.6-0.4,1-1,1
				s-1-0.4-1-1v-21.7h-52.6v66.8h52.6v-11.9c0-0.6,0.4-1,1-1s1,0.4,1,1v12.9C154.9-232.3,154.4-231.9,153.9-231.9z"/>
		</g>
		<g>
			<g>
				<path class="st7" d="M145.8-255c-0.3,0-0.6-0.1-0.8-0.4l-3.7-4.6c-0.3-0.4-0.3-1.1,0.2-1.4c0.4-0.3,1.1-0.3,1.4,0.2l2.8,3.5
					l5.8-9.9c0.3-0.5,0.9-0.6,1.4-0.4c0.5,0.3,0.6,0.9,0.4,1.4l-6.5,11.2C146.5-255.2,146.2-255,145.8-255
					C145.8-255,145.8-255,145.8-255z"/>
			</g>
			<g>
				<path class="st7" d="M147.8-249.1c-7.3,0-13.2-5.9-13.2-13.2s5.9-13.2,13.2-13.2c7.3,0,13.2,5.9,13.2,13.2
					S155.1-249.1,147.8-249.1z M147.8-273.5c-6.2,0-11.2,5-11.2,11.2s5,11.2,11.2,11.2s11.2-5,11.2-11.2S154-273.5,147.8-273.5z"/>
			</g>
		</g>
	</g>
	<g>
		<line class="st9" x1="3.6" y1="-172" x2="28.2" y2="-172"/>
		<circle class="st9" cx="-4.6" cy="-172" r="2.9"/>
	</g>
	<g>
		<line class="st9" x1="3.6" y1="-160.7" x2="28.2" y2="-160.7"/>
		<circle class="st9" cx="-4.6" cy="-160.7" r="2.9"/>
	</g>
	<g>
		<line class="st9" x1="3.6" y1="-149.3" x2="28.2" y2="-149.3"/>
		<circle class="st9" cx="-4.6" cy="-149.3" r="2.9"/>
	</g>
	<g>
		<line class="st9" x1="3.6" y1="-138" x2="28.2" y2="-138"/>
		<circle class="st9" cx="-4.6" cy="-138" r="2.9"/>
	</g>
	<g>
		<g class="st16">
			<rect x="105.2" y="-179.5" class="st0" width="54.6" height="68.8"/>
		</g>
		<g>
			<path class="st7" d="M153.9-115.7H99.3c-0.6,0-1-0.4-1-1v-68.8c0-0.6,0.4-1,1-1h54.6c0.6,0,1,0.4,1,1v68.8
				C154.9-116.1,154.4-115.7,153.9-115.7z M100.3-117.7h52.6v-66.8h-52.6V-117.7z"/>
		</g>
		<g>
			<g>
				<path class="st7" d="M144.4-171.3h-24.5c-0.4,0-0.7-0.3-0.7-0.7s0.3-0.7,0.7-0.7h24.5c0.4,0,0.7,0.3,0.7,0.7
					S144.7-171.3,144.4-171.3z"/>
			</g>
			<g>
				<path class="st7" d="M111.7-168.4c-2,0-3.6-1.6-3.6-3.6c0-2,1.6-3.6,3.6-3.6c2,0,3.6,1.6,3.6,3.6
					C115.2-170,113.6-168.4,111.7-168.4z M111.7-174.2c-1.2,0-2.2,1-2.2,2.2s1,2.2,2.2,2.2s2.2-1,2.2-2.2S112.9-174.2,111.7-174.2z"
					/>
			</g>
		</g>
		<g>
			<g>
				<path class="st7" d="M144.4-160h-24.5c-0.4,0-0.7-0.3-0.7-0.7s0.3-0.7,0.7-0.7h24.5c0.4,0,0.7,0.3,0.7,0.7S144.7-160,144.4-160z
					"/>
			</g>
			<g>
				<path class="st7" d="M111.7-157.1c-2,0-3.6-1.6-3.6-3.6s1.6-3.6,3.6-3.6c2,0,3.6,1.6,3.6,3.6S113.6-157.1,111.7-157.1z
					 M111.7-162.9c-1.2,0-2.2,1-2.2,2.2s1,2.2,2.2,2.2s2.2-1,2.2-2.2S112.9-162.9,111.7-162.9z"/>
			</g>
		</g>
		<g>
			<g>
				<path class="st7" d="M144.4-148.7h-24.5c-0.4,0-0.7-0.3-0.7-0.7s0.3-0.7,0.7-0.7h24.5c0.4,0,0.7,0.3,0.7,0.7
					S144.7-148.7,144.4-148.7z"/>
			</g>
			<g>
				<path class="st7" d="M111.7-145.8c-2,0-3.6-1.6-3.6-3.6c0-2,1.6-3.6,3.6-3.6c2,0,3.6,1.6,3.6,3.6
					C115.2-147.4,113.6-145.8,111.7-145.8z M111.7-151.5c-1.2,0-2.2,1-2.2,2.2s1,2.2,2.2,2.2s2.2-1,2.2-2.2S112.9-151.5,111.7-151.5
					z"/>
			</g>
		</g>
		<g>
			<g>
				<path class="st7" d="M144.4-137.3h-24.5c-0.4,0-0.7-0.3-0.7-0.7s0.3-0.7,0.7-0.7h24.5c0.4,0,0.7,0.3,0.7,0.7
					S144.7-137.3,144.4-137.3z"/>
			</g>
			<g>
				<path class="st7" d="M111.7-134.4c-2,0-3.6-1.6-3.6-3.6s1.6-3.6,3.6-3.6c2,0,3.6,1.6,3.6,3.6S113.6-134.4,111.7-134.4z
					 M111.7-140.2c-1.2,0-2.2,1-2.2,2.2s1,2.2,2.2,2.2s2.2-1,2.2-2.2S112.9-140.2,111.7-140.2z"/>
			</g>
		</g>
	</g>
	<path class="st22" d="M261.2-176h20.2c2.8,0,5,2.2,5,5v48.6c0,2.8-2.2,5-5,5h-58.2c-2.8,0-5-2.2-5-5V-171c0-2.8,2.2-5,5-5h20.2"/>
	<path class="st22" d="M261.2-176h20.2c2.8,0,5,2.2,5,5v48.6c0,2.8-2.2,5-5,5h-58.2c-2.8,0-5-2.2-5-5V-171c0-2.8,2.2-5,5-5h20.2"/>
	<line class="st22" x1="247.1" y1="-176" x2="257.6" y2="-176"/>
	<g>
		<rect x="227.3" y="-164.7" class="st9" width="7.6" height="7.6"/>
		<rect x="241.4" y="-164.7" class="st9" width="7.6" height="7.6"/>
		<rect x="255.6" y="-164.7" class="st9" width="7.6" height="7.6"/>
		<rect x="269.8" y="-164.7" class="st9" width="7.6" height="7.6"/>
	</g>
	<g>
		<rect x="227.3" y="-150.5" class="st9" width="7.6" height="7.6"/>
		<rect x="241.4" y="-150.5" class="st9" width="7.6" height="7.6"/>
		<rect x="255.6" y="-150.5" class="st9" width="7.6" height="7.6"/>
		<rect x="269.8" y="-150.5" class="st9" width="7.6" height="7.6"/>
	</g>
	<g>
		<rect x="227.3" y="-136.3" class="st9" width="7.6" height="7.6"/>
		<rect x="241.4" y="-136.3" class="st9" width="7.6" height="7.6"/>
		<rect x="255.6" y="-136.3" class="st9" width="7.6" height="7.6"/>
		<rect x="269.8" y="-136.3" class="st9" width="7.6" height="7.6"/>
	</g>
	<path class="st22" d="M245.2-181.2L245.2-181.2c-1,0-1.8,0.8-1.8,1.8v6.7c0,1,0.8,1.8,1.8,1.8l0,0c1,0,1.8-0.8,1.8-1.8v-6.7
		C247.1-180.4,246.2-181.2,245.2-181.2z"/>
	<path class="st22" d="M259.4-181.2L259.4-181.2c-1,0-1.8,0.8-1.8,1.8v6.7c0,1,0.8,1.8,1.8,1.8h0c1,0,1.8-0.8,1.8-1.8v-6.7
		C261.2-180.4,260.4-181.2,259.4-181.2z"/>
	<g>
		<g class="st16">
			<path class="st0" d="M383.1-170.4h20.2c2.8,0,5,2.2,5,5v48.6c0,2.8-2.2,5-5,5h-58.2c-2.8,0-5-2.2-5-5v-48.6c0-2.8,2.2-5,5-5h20.2
				"/>
		</g>
		<g>
			<path class="st7" d="M397.7-116.4h-58.2c-3.3,0-6-2.7-6-6V-171c0-3.3,2.7-6,6-6h20.2c0.5,0,1,0.4,1,1s-0.4,1-1,1h-20.2
				c-2.2,0-4,1.8-4,4v48.6c0,2.2,1.8,4,4,4h58.2c2.2,0,4-1.8,4-4V-171c0-2.2-1.8-4-4-4h-20.2c-0.5,0-1-0.4-1-1s0.4-1,1-1h20.2
				c3.3,0,6,2.7,6,6v48.6C403.6-119.1,400.9-116.4,397.7-116.4z"/>
		</g>
		<g>
			<path class="st7" d="M397.7-116.4h-58.2c-3.3,0-6-2.7-6-6V-171c0-3.3,2.7-6,6-6h20.2c0.5,0,1,0.4,1,1s-0.4,1-1,1h-20.2
				c-2.2,0-4,1.8-4,4v48.6c0,2.2,1.8,4,4,4h58.2c2.2,0,4-1.8,4-4V-171c0-2.2-1.8-4-4-4h-20.2c-0.5,0-1-0.4-1-1s0.4-1,1-1h20.2
				c3.3,0,6,2.7,6,6v48.6C403.6-119.1,400.9-116.4,397.7-116.4z"/>
		</g>
		<g>
			<path class="st7" d="M373.8-175h-10.5c-0.5,0-1-0.4-1-1s0.4-1,1-1h10.5c0.5,0,1,0.4,1,1S374.3-175,373.8-175z"/>
		</g>
		<g>
			<g>
				<path class="st7" d="M351.1-156.6h-7.6c-0.3,0-0.5-0.2-0.5-0.5v-7.6c0-0.3,0.2-0.5,0.5-0.5h7.6c0.3,0,0.5,0.2,0.5,0.5v7.6
					C351.6-156.8,351.3-156.6,351.1-156.6z M344-157.6h6.6v-6.6H344V-157.6z"/>
			</g>
			<g>
				<path class="st7" d="M365.2-156.6h-7.6c-0.3,0-0.5-0.2-0.5-0.5v-7.6c0-0.3,0.2-0.5,0.5-0.5h7.6c0.3,0,0.5,0.2,0.5,0.5v7.6
					C365.7-156.8,365.5-156.6,365.2-156.6z M358.1-157.6h6.6v-6.6h-6.6V-157.6z"/>
			</g>
			<g>
				<path class="st7" d="M379.4-156.6h-7.6c-0.3,0-0.5-0.2-0.5-0.5v-7.6c0-0.3,0.2-0.5,0.5-0.5h7.6c0.3,0,0.5,0.2,0.5,0.5v7.6
					C379.9-156.8,379.7-156.6,379.4-156.6z M372.3-157.6h6.6v-6.6h-6.6V-157.6z"/>
			</g>
			<g>
				<path class="st7" d="M393.6-156.6H386c-0.3,0-0.5-0.2-0.5-0.5v-7.6c0-0.3,0.2-0.5,0.5-0.5h7.6c0.3,0,0.5,0.2,0.5,0.5v7.6
					C394.1-156.8,393.9-156.6,393.6-156.6z M386.5-157.6h6.6v-6.6h-6.6V-157.6z"/>
			</g>
		</g>
		<g>
			<g>
				<path class="st7" d="M351.1-142.4h-7.6c-0.3,0-0.5-0.2-0.5-0.5v-7.6c0-0.3,0.2-0.5,0.5-0.5h7.6c0.3,0,0.5,0.2,0.5,0.5v7.6
					C351.6-142.7,351.3-142.4,351.1-142.4z M344-143.4h6.6v-6.6H344V-143.4z"/>
			</g>
			<g>
				<path class="st7" d="M365.2-142.4h-7.6c-0.3,0-0.5-0.2-0.5-0.5v-7.6c0-0.3,0.2-0.5,0.5-0.5h7.6c0.3,0,0.5,0.2,0.5,0.5v7.6
					C365.7-142.7,365.5-142.4,365.2-142.4z M358.1-143.4h6.6v-6.6h-6.6V-143.4z"/>
			</g>
			<g>
				<path class="st7" d="M379.4-142.4h-7.6c-0.3,0-0.5-0.2-0.5-0.5v-7.6c0-0.3,0.2-0.5,0.5-0.5h7.6c0.3,0,0.5,0.2,0.5,0.5v7.6
					C379.9-142.7,379.7-142.4,379.4-142.4z M372.3-143.4h6.6v-6.6h-6.6V-143.4z"/>
			</g>
			<g>
				<path class="st7" d="M393.6-142.4H386c-0.3,0-0.5-0.2-0.5-0.5v-7.6c0-0.3,0.2-0.5,0.5-0.5h7.6c0.3,0,0.5,0.2,0.5,0.5v7.6
					C394.1-142.7,393.9-142.4,393.6-142.4z M386.5-143.4h6.6v-6.6h-6.6V-143.4z"/>
			</g>
		</g>
		<g>
			<g>
				<path class="st7" d="M351.1-128.3h-7.6c-0.3,0-0.5-0.2-0.5-0.5v-7.6c0-0.3,0.2-0.5,0.5-0.5h7.6c0.3,0,0.5,0.2,0.5,0.5v7.6
					C351.6-128.5,351.3-128.3,351.1-128.3z M344-129.3h6.6v-6.6H344V-129.3z"/>
			</g>
			<g>
				<path class="st7" d="M365.2-128.3h-7.6c-0.3,0-0.5-0.2-0.5-0.5v-7.6c0-0.3,0.2-0.5,0.5-0.5h7.6c0.3,0,0.5,0.2,0.5,0.5v7.6
					C365.7-128.5,365.5-128.3,365.2-128.3z M358.1-129.3h6.6v-6.6h-6.6V-129.3z"/>
			</g>
			<g>
				<path class="st7" d="M379.4-128.3h-7.6c-0.3,0-0.5-0.2-0.5-0.5v-7.6c0-0.3,0.2-0.5,0.5-0.5h7.6c0.3,0,0.5,0.2,0.5,0.5v7.6
					C379.9-128.5,379.7-128.3,379.4-128.3z M372.3-129.3h6.6v-6.6h-6.6V-129.3z"/>
			</g>
			<g>
				<path class="st7" d="M393.6-128.3H386c-0.3,0-0.5-0.2-0.5-0.5v-7.6c0-0.3,0.2-0.5,0.5-0.5h7.6c0.3,0,0.5,0.2,0.5,0.5v7.6
					C394.1-128.5,393.9-128.3,393.6-128.3z M386.5-129.3h6.6v-6.6h-6.6V-129.3z"/>
			</g>
		</g>
		<g>
			<path class="st7" d="M361.4-169.8c-1.5,0-2.8-1.3-2.8-2.8v-6.7c0-1.5,1.3-2.8,2.8-2.8c1.5,0,2.8,1.3,2.8,2.8v6.7
				C364.2-171.1,363-169.8,361.4-169.8z M361.4-180.3c-0.5,0-0.9,0.4-0.9,0.9v6.7c0,0.5,0.4,0.9,0.9,0.9s0.9-0.4,0.9-0.9v-6.7
				C362.3-179.9,361.9-180.3,361.4-180.3z"/>
		</g>
		<g>
			<path class="st7" d="M375.6-169.8c-1.5,0-2.8-1.3-2.8-2.8v-6.7c0-1.5,1.3-2.8,2.8-2.8c1.5,0,2.8,1.3,2.8,2.8v6.7
				C378.4-171.1,377.2-169.8,375.6-169.8z M375.6-180.3c-0.5,0-0.9,0.4-0.9,0.9v6.7c0,0.5,0.4,0.9,0.9,0.9s0.9-0.4,0.9-0.9v-6.7
				C376.5-179.9,376.1-180.3,375.6-180.3z"/>
		</g>
	</g>
	<g>
		<path class="st21" d="M280.1-267.9L280.1-267.9c0.8-2.5,1.2-5.2,1.2-8c0-14.7-11.9-26.7-26.7-26.7c-14.7,0-26.7,11.9-26.7,26.7
			c0,2.8,0.4,5.5,1.2,8h0l0,0c0.3,1,0.7,2,1.1,3l10.4,27.2h27.8l10.4-27.2C279.4-265.9,279.8-266.9,280.1-267.9L280.1-267.9z"/>
		<path class="st13" d="M274.5-273.6L274.5-273.6c0.8-2.5,1.2-5.2,1.2-8c0-14.7-11.9-26.7-26.7-26.7c-14.7,0-26.7,11.9-26.7,26.7
			c0,2.8,0.4,5.5,1.2,8h0l0,0c0.3,1,0.7,2,1.1,3l10.4,27.2h27.8l10.4-27.2C273.7-271.6,274.1-272.6,274.5-273.6L274.5-273.6z"/>
		<line class="st13" x1="235.1" y1="-238.4" x2="262.9" y2="-238.4"/>
		<line class="st13" x1="237.6" y1="-233.3" x2="260.4" y2="-233.3"/>
		<line class="st13" x1="240" y1="-228.1" x2="258" y2="-228.1"/>
		<polyline class="st13" points="245,-243.4 240,-261.9 258,-261.9 253.1,-243.4 		"/>
		<line class="st13" x1="242.5" y1="-265.6" x2="255.5" y2="-265.6"/>
		<line class="st13" x1="245" y1="-269.3" x2="253.1" y2="-269.3"/>
	</g>
	<path class="st13" d="M228.6-281.1c0-11.3,9.2-20.4,20.4-20.4"/>
	<g>
		<g>
			<g class="st16">
				<path class="st3" d="M396.3-267.9L396.3-267.9c0.8-2.5,1.2-5.2,1.2-8c0-14.7-11.9-26.7-26.7-26.7s-26.7,11.9-26.7,26.7
					c0,2.8,0.4,5.5,1.2,8h0l0,0c0.3,1,0.7,2,1.1,3l10.4,27.2h27.8l10.4-27.2C395.6-265.9,396-266.9,396.3-267.9L396.3-267.9z"/>
			</g>
			<g>
				<path class="st7" d="M379.1-242.4h-27.8c-0.4,0-0.8-0.3-0.9-0.6L340-270.2c-0.4-1-0.8-2-1.2-3.1c-0.8-2.7-1.3-5.5-1.3-8.3
					c0-15.2,12.4-27.7,27.7-27.7s27.7,12.4,27.7,27.7c0,2.8-0.4,5.6-1.3,8.3c0,0,0,0,0,0c-0.3,1.1-0.7,2.1-1.2,3.1L380.1-243
					C379.9-242.6,379.5-242.4,379.1-242.4z M352-244.4h26.4l10.1-26.6c0.4-1,0.8-2,1.1-3c0,0,0,0,0,0c0.8-2.5,1.2-5,1.2-7.7
					c0-14.1-11.5-25.7-25.7-25.7c-14.1,0-25.7,11.5-25.7,25.7c0,2.6,0.4,5.2,1.2,7.7c0.3,1,0.7,2,1.1,2.9L352-244.4z M390.7-273.6
					L390.7-273.6L390.7-273.6z"/>
			</g>
			<g>
				<path class="st7" d="M379.1-237.4h-27.8c-0.6,0-1-0.4-1-1s0.4-1,1-1h27.8c0.6,0,1,0.4,1,1S379.7-237.4,379.1-237.4z"/>
			</g>
			<g>
				<path class="st7" d="M376.7-232.3h-22.9c-0.6,0-1-0.4-1-1s0.4-1,1-1h22.9c0.6,0,1,0.4,1,1S377.2-232.3,376.7-232.3z"/>
			</g>
			<g>
				<path class="st7" d="M374.2-227.1h-18c-0.6,0-1-0.4-1-1s0.4-1,1-1h18c0.6,0,1,0.4,1,1S374.8-227.1,374.2-227.1z"/>
			</g>
			<g>
				<path class="st7" d="M369.3-242.4c-0.1,0-0.2,0-0.3,0c-0.5-0.1-0.9-0.7-0.7-1.2l4.6-17.3h-15.4l4.6,17.3
					c0.1,0.5-0.2,1.1-0.7,1.2c-0.5,0.1-1.1-0.2-1.2-0.7l-4.9-18.6c-0.1-0.3,0-0.6,0.2-0.9c0.2-0.2,0.5-0.4,0.8-0.4h18
					c0.3,0,0.6,0.1,0.8,0.4c0.2,0.2,0.3,0.6,0.2,0.9l-4.9,18.6C370.1-242.7,369.7-242.4,369.3-242.4z"/>
			</g>
			<g>
				<path class="st7" d="M371.7-264.6h-13c-0.6,0-1-0.4-1-1s0.4-1,1-1h13c0.6,0,1,0.4,1,1S372.3-264.6,371.7-264.6z"/>
			</g>
			<g>
				<path class="st7" d="M369.3-268.3h-8.1c-0.6,0-1-0.4-1-1s0.4-1,1-1h8.1c0.6,0,1,0.4,1,1S369.8-268.3,369.3-268.3z"/>
			</g>
		</g>
		<g>
			<path class="st7" d="M344.8-280.1c-0.6,0-1-0.4-1-1c0-11.8,9.6-21.4,21.4-21.4c0.6,0,1,0.4,1,1s-0.4,1-1,1
				c-10.7,0-19.4,8.7-19.4,19.4C345.8-280.6,345.3-280.1,344.8-280.1z"/>
		</g>
	</g>
	<g>
	</g>
	<g>
	</g>
	<g>
	</g>
	<g>
	</g>
	<g>
	</g>
	<g>
	</g>
	<g>
	</g>
	<g>
	</g>
	<g>
	</g>
	<g>
	</g>
	<g>
	</g>
	<g>
	</g>
	<g>
	</g>
	<g>
	</g>
	<g>
	</g>
</g>
</svg>
