<?xml version="1.0" encoding="utf-8"?>
<!-- Generator: Adobe Illustrator 22.1.0, SVG Export Plug-In . SVG Version: 6.00 Build 0)  -->
<svg version="1.1" xmlns="http://www.w3.org/2000/svg" xmlns:xlink="http://www.w3.org/1999/xlink" x="0px" y="0px"
	 viewBox="0 0 32.3 32.3" style="enable-background:new 0 0 32.3 32.3;" xml:space="preserve">
<style type="text/css">
	.st0{fill:#81BCBF;}
	.st1{fill:#585799;}
	.st2{fill:url(#SVGID_1_);}
	.st3{fill:#B6CE8C;}
	.st4{fill:#508AA6;}
	.st5{fill:url(#SVGID_2_);}
	.st6{opacity:0.2;fill:#4E8AA7;}
	.st7{fill:#292929;}
	.st8{fill:none;stroke:#292929;stroke-width:2;stroke-linejoin:round;stroke-miterlimit:10;}
	.st9{fill:none;stroke:#292929;stroke-linecap:round;stroke-linejoin:round;stroke-miterlimit:10;}
	.st10{opacity:0.2;}
	.st11{fill:#4E8AA7;}
	.st12{opacity:0.5;fill:#81BCBF;}
	.st13{fill:none;stroke:#292929;stroke-width:2;stroke-linecap:round;stroke-linejoin:round;stroke-miterlimit:10;}
	.st14{fill:none;stroke:#292929;stroke-linejoin:round;stroke-miterlimit:10;}
	.st15{fill:none;stroke:#292929;stroke-width:1.5;stroke-linecap:round;stroke-linejoin:round;stroke-miterlimit:10;}
	.st16{opacity:0.25;}
	.st17{opacity:0.2;fill:#585799;}
	.st18{fill:none;stroke:#282828;stroke-linecap:round;stroke-linejoin:round;stroke-miterlimit:10;}
	.st19{fill:none;stroke:#282828;stroke-linejoin:round;stroke-miterlimit:10;}
	.st20{fill:#282828;}
	.st21{opacity:0.5;fill:#B6CE8C;}
	.st22{fill:none;stroke:#292929;stroke-width:1.9456;stroke-linecap:round;stroke-linejoin:round;stroke-miterlimit:10;}
</style>
<g id="COLORES">
	<rect x="-606.5" y="-391.1" class="st0" width="36" height="36"/>
	<rect x="-606.5" y="-355.1" class="st1" width="36" height="36"/>
	<linearGradient id="SVGID_1_" gradientUnits="userSpaceOnUse" x1="-678.4531" y1="-355.0586" x2="-606.4531" y2="-355.0586">
		<stop  offset="0" style="stop-color:#81BCBF"/>
		<stop  offset="1" style="stop-color:#585799"/>
	</linearGradient>
	<rect x="-678.5" y="-391.1" class="st2" width="72" height="72"/>
	<rect x="-606.5" y="-313.1" class="st3" width="36" height="36"/>
	<rect x="-606.5" y="-277.1" class="st4" width="36" height="36"/>
	<linearGradient id="SVGID_2_" gradientUnits="userSpaceOnUse" x1="-678.4531" y1="-277.0586" x2="-606.4531" y2="-277.0586">
		<stop  offset="0" style="stop-color:#B6CE8C"/>
		<stop  offset="1" style="stop-color:#508AA6"/>
	</linearGradient>
	<rect x="-678.5" y="-313.1" class="st5" width="72" height="72"/>
	<g>
		<rect x="-155" y="-54.7" class="st6" width="27.3" height="27.3"/>
		<g>
			<path class="st7" d="M-151.5-41.3l0.7-0.8c1,0.9,2,1.4,3.4,1.4c1.3,0,2.2-0.7,2.2-1.7v0c0-0.9-0.5-1.5-2.6-1.9
				c-2.3-0.5-3.4-1.2-3.4-2.9v0c0-1.6,1.4-2.7,3.3-2.7c1.5,0,2.5,0.4,3.5,1.2l-0.7,0.9c-0.9-0.8-1.9-1.1-2.9-1.1
				c-1.3,0-2.1,0.7-2.1,1.6v0c0,0.9,0.5,1.5,2.7,1.9c2.2,0.5,3.3,1.3,3.3,2.8v0c0,1.7-1.4,2.8-3.4,2.8
				C-149-39.7-150.3-40.3-151.5-41.3z"/>
			<path class="st7" d="M-141.8-47.3h1.1v7.4h-1.1V-47.3z M-140.3-50.5l1.1,0.5l-1.6,1.5h-0.9L-140.3-50.5z"/>
		</g>
		<rect x="-159" y="-58.7" class="st8" width="27.3" height="27.3"/>
	</g>
	<g>
		<rect x="-76.1" y="-54.5" class="st6" width="27.3" height="27.3"/>
		<rect x="-80.1" y="-58.5" class="st8" width="27.3" height="27.3"/>
		<polyline class="st9" points="-76.1,-39.1 -68.5,-50.7 -70.9,-41.3 -65.1,-45.5 -66.7,-41.6 -60.7,-44.9 -62.4,-41.4 -56.8,-43.7 
					"/>
	</g>
	<g>
		<rect x="5" y="-54.5" class="st6" width="27.3" height="27.3"/>
		<rect x="1" y="-58.5" class="st8" width="27.3" height="27.3"/>
		<g>
			<polyline class="st9" points="11,-43.8 13.3,-40.9 17.5,-48 			"/>
			<path class="st9" d="M22.4-44.9c0,4.3-3.5,7.8-7.8,7.8c-4.3,0-7.8-3.5-7.8-7.8c0-4.3,3.5-7.8,7.8-7.8
				C18.9-52.7,22.4-49.2,22.4-44.9z"/>
		</g>
	</g>
	<g>
		<g class="st10">
			<rect x="-155" y="4.8" class="st11" width="27.3" height="27.3"/>
		</g>
		<g>
			<g>
				<path class="st7" d="M-151.5,18.2l0.7-0.8c1,0.9,2,1.4,3.4,1.4c1.3,0,2.2-0.7,2.2-1.7v0c0-0.9-0.5-1.5-2.6-1.9
					c-2.3-0.5-3.4-1.2-3.4-2.9v0c0-1.6,1.4-2.7,3.3-2.7c1.5,0,2.5,0.4,3.5,1.2l-0.7,0.9c-0.9-0.8-1.9-1.1-2.9-1.1
					c-1.3,0-2.1,0.7-2.1,1.6v0c0,0.9,0.5,1.5,2.7,1.9c2.2,0.5,3.3,1.3,3.3,2.8v0c0,1.7-1.4,2.8-3.4,2.8
					C-149,19.8-150.3,19.3-151.5,18.2z"/>
			</g>
			<g>
				<path class="st7" d="M-141.8,12.2h1.1v7.4h-1.1V12.2z M-140.3,9.1l1.1,0.5l-1.6,1.5h-0.9L-140.3,9.1z"/>
			</g>
		</g>
		<g>
			<path class="st7" d="M-131.7,29.1H-159c-0.6,0-1-0.4-1-1V0.8c0-0.6,0.4-1,1-1h27.3c0.6,0,1,0.4,1,1v27.3
				C-130.7,28.6-131.2,29.1-131.7,29.1z M-158,27.1h25.3V1.8H-158V27.1z"/>
		</g>
	</g>
	<g>
		<g class="st10">
			<rect x="-76.1" y="5" class="st11" width="27.3" height="27.3"/>
		</g>
		<g>
			<path class="st7" d="M-52.8,29.3h-27.3c-0.6,0-1-0.4-1-1V1c0-0.6,0.4-1,1-1h27.3c0.6,0,1,0.4,1,1v27.3
				C-51.8,28.8-52.3,29.3-52.8,29.3z M-79.1,27.3h25.3V2h-25.3V27.3z"/>
		</g>
		<g>
			<path class="st7" d="M-76.1,21c-0.1,0-0.2,0-0.3-0.1c-0.2-0.2-0.3-0.5-0.1-0.7l7.6-11.6c0.1-0.2,0.4-0.3,0.6-0.2
				C-68,8.5-67.9,8.7-68,9l-2.1,8l4.7-3.4c0.2-0.1,0.4-0.1,0.6,0c0.2,0.1,0.2,0.4,0.2,0.6l-1.1,2.6l4.8-2.6c0.2-0.1,0.4-0.1,0.6,0.1
				c0.2,0.2,0.2,0.4,0.1,0.6l-1.1,2.2l4.3-1.7c0.3-0.1,0.5,0,0.7,0.3c0.1,0.3,0,0.5-0.3,0.7l-5.6,2.2c-0.2,0.1-0.4,0-0.6-0.1
				s-0.2-0.4-0.1-0.6l1-2l-4.7,2.5c-0.2,0.1-0.4,0.1-0.6-0.1c-0.2-0.1-0.2-0.4-0.1-0.6l0.9-2.2l-4.4,3.2c-0.2,0.1-0.4,0.1-0.6,0
				c-0.2-0.1-0.3-0.3-0.2-0.5l1.7-6.4l-6,9.1C-75.8,20.9-75.9,21-76.1,21z"/>
		</g>
	</g>
	<g>
		<g class="st10">
			<rect x="5" y="5" class="st11" width="27.3" height="27.3"/>
		</g>
		<g>
			<path class="st7" d="M28.3,29.3H1c-0.6,0-1-0.4-1-1V1c0-0.6,0.4-1,1-1h27.3c0.6,0,1,0.4,1,1v27.3C29.3,28.8,28.8,29.3,28.3,29.3z
				 M2,27.3h25.3V2H2V27.3z"/>
		</g>
		<g>
			<g>
				<path class="st7" d="M13.3,19.1c-0.2,0-0.3-0.1-0.4-0.2L10.6,16c-0.2-0.2-0.1-0.5,0.1-0.7c0.2-0.2,0.5-0.1,0.7,0.1l1.9,2.4
					l3.8-6.5c0.1-0.2,0.4-0.3,0.7-0.2c0.2,0.1,0.3,0.4,0.2,0.7l-4.2,7.1C13.7,19,13.5,19.1,13.3,19.1C13.4,19.1,13.3,19.1,13.3,19.1
					z"/>
			</g>
			<g>
				<path class="st7" d="M14.6,22.9c-4.6,0-8.3-3.7-8.3-8.3s3.7-8.3,8.3-8.3c4.6,0,8.3,3.7,8.3,8.3S19.2,22.9,14.6,22.9z M14.6,7.4
					c-4,0-7.3,3.3-7.3,7.3s3.3,7.3,7.3,7.3c4,0,7.3-3.3,7.3-7.3S18.7,7.4,14.6,7.4z"/>
			</g>
		</g>
	</g>
</g>
<g id="Tratamiento_de_Datos">
	<path class="st12" d="M106.9-170.6h20.2c2.8,0,5,2.2,5,5v48.6c0,2.8-2.2,5-5,5H68.8c-2.8,0-5-2.2-5-5v-48.6c0-2.8,2.2-5,5-5h20.2"
		/>
	<g>
		<rect x="-438.9" y="-295.2" class="st12" width="54.6" height="68.8"/>
		<polyline class="st13" points="-390.3,-245.3 -390.3,-232.3 -444.8,-232.3 -444.8,-301.1 -390.3,-301.1 -390.3,-278.4 		"/>
		<rect x="-437.5" y="-293.7" class="st14" width="12.5" height="12.5"/>
		<line class="st9" x1="-419.8" y1="-287.5" x2="-401.8" y2="-287.5"/>
		<line class="st9" x1="-419.8" y1="-283" x2="-401.8" y2="-283"/>
		<line class="st15" x1="-432.7" y1="-272.7" x2="-402.4" y2="-272.7"/>
		<line class="st15" x1="-432.7" y1="-265.3" x2="-402.4" y2="-265.3"/>
		<line class="st15" x1="-432.7" y1="-257.9" x2="-408.4" y2="-257.9"/>
		<line class="st15" x1="-432.7" y1="-250.6" x2="-412.4" y2="-250.6"/>
		<line class="st15" x1="-432.7" y1="-243.2" x2="-413.4" y2="-243.2"/>
		<g>
			<polygon class="st8" points="-389,-270.5 -407.5,-252 -409,-243.2 -400.3,-244.7 -381.8,-263.2 			"/>
			<line class="st8" x1="-407.5" y1="-252" x2="-400.3" y2="-244.7"/>
			<line class="st8" x1="-385.4" y1="-266.9" x2="-403.9" y2="-248.4"/>
			<polyline class="st8" points="-389,-270.5 -386.1,-273.3 -378.9,-266.1 -381.8,-263.2 			"/>
		</g>
	</g>
	<rect x="-438.9" y="-179.2" class="st12" width="54.6" height="68.8"/>
	<rect x="-444.8" y="-185.1" class="st13" width="54.6" height="68.8"/>
	<rect x="-437.5" y="-177.7" class="st14" width="12.5" height="12.5"/>
	<line class="st9" x1="-419.8" y1="-171.5" x2="-401.8" y2="-171.5"/>
	<line class="st9" x1="-419.8" y1="-167" x2="-401.8" y2="-167"/>
	<line class="st15" x1="-432.7" y1="-156.7" x2="-402.4" y2="-156.7"/>
	<line class="st15" x1="-432.7" y1="-149.3" x2="-402.4" y2="-149.3"/>
	<line class="st15" x1="-432.7" y1="-141.9" x2="-402.4" y2="-141.9"/>
	<line class="st15" x1="-432.7" y1="-134.6" x2="-402.4" y2="-134.6"/>
	<line class="st15" x1="-432.7" y1="-127.2" x2="-402.4" y2="-127.2"/>
	<g>
		<g class="st16">
			<rect x="-322.7" y="-179.2" class="st0" width="54.6" height="68.8"/>
		</g>
		<g>
			<path class="st7" d="M-274-115.3h-54.6c-0.6,0-1-0.4-1-1v-68.8c0-0.6,0.4-1,1-1h54.6c0.6,0,1,0.4,1,1v68.8
				C-273-115.8-273.5-115.3-274-115.3z M-327.6-117.3h52.6v-66.8h-52.6V-117.3z"/>
		</g>
		<g>
			<path class="st7" d="M-308.7-164.7h-12.5c-0.3,0-0.5-0.2-0.5-0.5v-12.5c0-0.3,0.2-0.5,0.5-0.5h12.5c0.3,0,0.5,0.2,0.5,0.5v12.5
				C-308.2-164.9-308.4-164.7-308.7-164.7z M-320.7-165.7h11.5v-11.5h-11.5V-165.7z"/>
		</g>
		<g>
			<path class="st7" d="M-285.6-171h-18.1c-0.3,0-0.5-0.2-0.5-0.5s0.2-0.5,0.5-0.5h18.1c0.3,0,0.5,0.2,0.5,0.5S-285.3-171-285.6-171
				z"/>
		</g>
		<g>
			<path class="st7" d="M-285.6-166.5h-18.1c-0.3,0-0.5-0.2-0.5-0.5s0.2-0.5,0.5-0.5h18.1c0.3,0,0.5,0.2,0.5,0.5
				S-285.3-166.5-285.6-166.5z"/>
		</g>
		<g>
			<path class="st7" d="M-286.2-155.9h-30.4c-0.4,0-0.8-0.3-0.8-0.8s0.3-0.8,0.8-0.8h30.4c0.4,0,0.8,0.3,0.8,0.8
				S-285.7-155.9-286.2-155.9z"/>
		</g>
		<g>
			<path class="st7" d="M-286.2-148.5h-30.4c-0.4,0-0.8-0.3-0.8-0.8s0.3-0.8,0.8-0.8h30.4c0.4,0,0.8,0.3,0.8,0.8
				S-285.7-148.5-286.2-148.5z"/>
		</g>
		<g>
			<path class="st7" d="M-286.2-141.2h-30.4c-0.4,0-0.8-0.3-0.8-0.8s0.3-0.8,0.8-0.8h30.4c0.4,0,0.8,0.3,0.8,0.8
				S-285.7-141.2-286.2-141.2z"/>
		</g>
		<g>
			<path class="st7" d="M-286.2-133.8h-30.4c-0.4,0-0.8-0.3-0.8-0.8s0.3-0.8,0.8-0.8h30.4c0.4,0,0.8,0.3,0.8,0.8
				S-285.7-133.8-286.2-133.8z"/>
		</g>
		<g>
			<path class="st7" d="M-286.2-126.4h-30.4c-0.4,0-0.8-0.3-0.8-0.8s0.3-0.8,0.8-0.8h30.4c0.4,0,0.8,0.3,0.8,0.8
				S-285.7-126.4-286.2-126.4z"/>
		</g>
	</g>
	<g>
		<g class="st16">
			<rect x="-322.9" y="-295.2" class="st0" width="54.6" height="68.8"/>
		</g>
		<g>
			<path class="st7" d="M-274.3-231.3h-54.6c-0.6,0-1-0.4-1-1v-68.8c0-0.6,0.4-1,1-1h54.6c0.6,0,1,0.4,1,1v22.7c0,0.6-0.4,1-1,1
				s-1-0.4-1-1v-21.7h-52.6v66.8h52.6v-11.9c0-0.6,0.4-1,1-1s1,0.4,1,1v12.9C-273.3-231.8-273.7-231.3-274.3-231.3z"/>
		</g>
		<g>
			<path class="st7" d="M-308.9-280.7h-12.5c-0.3,0-0.5-0.2-0.5-0.5v-12.5c0-0.3,0.2-0.5,0.5-0.5h12.5c0.3,0,0.5,0.2,0.5,0.5v12.5
				C-308.4-280.9-308.7-280.7-308.9-280.7z M-321-281.7h11.5v-11.5H-321V-281.7z"/>
		</g>
		<g>
			<path class="st7" d="M-285.8-287h-18.1c-0.3,0-0.5-0.2-0.5-0.5s0.2-0.5,0.5-0.5h18.1c0.3,0,0.5,0.2,0.5,0.5S-285.5-287-285.8-287
				z"/>
		</g>
		<g>
			<path class="st7" d="M-285.8-282.5h-18.1c-0.3,0-0.5-0.2-0.5-0.5s0.2-0.5,0.5-0.5h18.1c0.3,0,0.5,0.2,0.5,0.5
				S-285.5-282.5-285.8-282.5z"/>
		</g>
		<g>
			<path class="st7" d="M-286.4-271.9h-30.4c-0.4,0-0.8-0.3-0.8-0.8s0.3-0.8,0.8-0.8h30.4c0.4,0,0.8,0.3,0.8,0.8
				S-286-271.9-286.4-271.9z"/>
		</g>
		<g>
			<path class="st7" d="M-286.4-264.5h-30.4c-0.4,0-0.8-0.3-0.8-0.8s0.3-0.8,0.8-0.8h30.4c0.4,0,0.8,0.3,0.8,0.8
				S-286-264.5-286.4-264.5z"/>
		</g>
		<g>
			<path class="st7" d="M-292.4-257.2h-24.4c-0.4,0-0.8-0.3-0.8-0.8s0.3-0.8,0.8-0.8h24.4c0.4,0,0.8,0.3,0.8,0.8
				S-292-257.2-292.4-257.2z"/>
		</g>
		<g>
			<path class="st7" d="M-296.4-249.8h-20.4c-0.4,0-0.8-0.3-0.8-0.8s0.3-0.8,0.8-0.8h20.4c0.4,0,0.8,0.3,0.8,0.8
				S-296-249.8-296.4-249.8z"/>
		</g>
		<g>
			<path class="st7" d="M-297.4-242.4h-19.4c-0.4,0-0.8-0.3-0.8-0.8s0.3-0.8,0.8-0.8h19.4c0.4,0,0.8,0.3,0.8,0.8
				S-297-242.4-297.4-242.4z"/>
		</g>
		<g>
			<g>
				<path class="st7" d="M-293-242.2c-0.3,0-0.5-0.1-0.7-0.3c-0.2-0.2-0.3-0.6-0.3-0.9l1.6-8.8c0-0.2,0.1-0.4,0.3-0.5l18.5-18.5
					c0.2-0.2,0.4-0.3,0.7-0.3l0,0c0.3,0,0.5,0.1,0.7,0.3l7.2,7.2c0.4,0.4,0.4,1,0,1.4l-18.5,18.5c-0.1,0.1-0.3,0.2-0.5,0.3l-8.8,1.6
					C-292.9-242.2-293-242.2-293-242.2z M-290.6-251.5l-1.3,7.1l7-1.3l17.6-17.6l-5.8-5.8L-290.6-251.5z"/>
			</g>
			<g>
				
					<rect x="-288.9" y="-253.5" transform="matrix(0.7072 -0.707 0.707 0.7072 91.2968 -276.261)" class="st7" width="2" height="10.2"/>
			</g>
			<g>
				
					<rect x="-291.7" y="-258.6" transform="matrix(0.7071 -0.7071 0.7071 0.7071 100.545 -272.466)" class="st7" width="26.2" height="2"/>
			</g>
			<g>
				<path class="st7" d="M-265.1-262.5l-1.4-1.4l2.1-2.1l-5.8-5.8l-2.1,2.1l-1.4-1.4l2.8-2.9c0.2-0.2,0.4-0.3,0.7-0.3l0,0
					c0.3,0,0.5,0.1,0.7,0.3l7.2,7.2c0.4,0.4,0.4,1,0,1.4L-265.1-262.5z"/>
			</g>
		</g>
	</g>
	<g>
		<rect x="-433.4" y="-57.2" class="st17" width="27.3" height="34.4"/>
		<rect x="-437.4" y="-61.2" class="st8" width="27.3" height="34.4"/>
		<g>
			<line class="st15" x1="-431.3" y1="-54.1" x2="-416.2" y2="-54.1"/>
			<line class="st15" x1="-431.3" y1="-50" x2="-416.2" y2="-50"/>
			<line class="st15" x1="-431.3" y1="-46" x2="-416.2" y2="-46"/>
			<line class="st15" x1="-431.3" y1="-42" x2="-416.2" y2="-42"/>
			<line class="st15" x1="-431.3" y1="-37.9" x2="-416.2" y2="-37.9"/>
			<line class="st15" x1="-431.3" y1="-33.9" x2="-416.2" y2="-33.9"/>
		</g>
	</g>
	<g>
		<rect x="-354.5" y="-57.2" class="st17" width="27.3" height="34.4"/>
		<polyline class="st13" points="-331.2,-31.9 -331.2,-26.8 -358.5,-26.8 -358.5,-61.2 -331.2,-61.2 -331.2,-49.9 		"/>
		<g>
			<line class="st15" x1="-352.5" y1="-54.1" x2="-337.3" y2="-54.1"/>
			<line class="st15" x1="-352.5" y1="-50" x2="-337.3" y2="-50"/>
			<line class="st15" x1="-352.5" y1="-46" x2="-337.3" y2="-46"/>
			<line class="st15" x1="-352.5" y1="-42" x2="-338.2" y2="-42"/>
			<line class="st15" x1="-352.5" y1="-37.9" x2="-341.6" y2="-37.9"/>
			<line class="st15" x1="-352.5" y1="-33.9" x2="-342.3" y2="-33.9"/>
		</g>
		<g>
			<polygon class="st18" points="-329.7,-46.4 -338.5,-37.7 -339.2,-33.5 -335.1,-34.2 -326.3,-43 			"/>
			<line class="st18" x1="-338.5" y1="-37.7" x2="-335.1" y2="-34.2"/>
			<line class="st19" x1="-328" y1="-44.7" x2="-336.8" y2="-36"/>
			<polyline class="st18" points="-329.7,-46.4 -328.4,-47.8 -325,-44.3 -326.3,-43 			"/>
		</g>
	</g>
	<g>
		<rect x="-273.4" y="-57.2" class="st17" width="27.3" height="34.4"/>
		<polyline class="st13" points="-250.1,-31.9 -250.1,-26.8 -277.4,-26.8 -277.4,-61.2 -250.1,-61.2 -250.1,-49.9 		"/>
		<g>
			<line class="st15" x1="-271.3" y1="-54.1" x2="-256.2" y2="-54.1"/>
			<line class="st15" x1="-271.3" y1="-50" x2="-256.2" y2="-50"/>
			<line class="st15" x1="-271.3" y1="-46" x2="-261.2" y2="-46"/>
			<line class="st15" x1="-271.3" y1="-42" x2="-262" y2="-42"/>
			<line class="st15" x1="-271.3" y1="-37.9" x2="-260.5" y2="-37.9"/>
			<line class="st15" x1="-271.3" y1="-33.9" x2="-256.2" y2="-33.9"/>
		</g>
		<path class="st9" d="M-250-43.5c0.5,2.5-1.1,5-3.6,5.5c-2.5,0.5-5-1.1-5.5-3.6c-0.5-2.5,1.1-5,3.6-5.5
			C-252.9-47.7-250.5-46-250-43.5z"/>
		<path class="st9" d="M-250-43.5c0.5,2.5-1.1,5-3.6,5.5c-2.5,0.5-5-1.1-5.5-3.6c-0.5-2.5,1.1-5,3.6-5.5
			C-252.9-47.7-250.5-46-250-43.5z"/>
		<line class="st9" x1="-251.4" y1="-39.1" x2="-247.1" y2="-34.3"/>
	</g>
	<g>
		<g class="st10">
			<rect x="-433.4" y="2.4" class="st1" width="27.3" height="34.4"/>
		</g>
		<g>
			<path class="st7" d="M-410.1,33.7h-27.3c-0.6,0-1-0.4-1-1V-1.6c0-0.6,0.4-1,1-1h27.3c0.6,0,1,0.4,1,1v34.4
				C-409.1,33.3-409.6,33.7-410.1,33.7z M-436.4,31.7h25.3V-0.6h-25.3V31.7z"/>
		</g>
		<g>
			<g>
				<path class="st7" d="M-416.2,6.2h-15.2c-0.4,0-0.8-0.3-0.8-0.8s0.3-0.8,0.8-0.8h15.2c0.4,0,0.8,0.3,0.8,0.8
					S-415.7,6.2-416.2,6.2z"/>
			</g>
			<g>
				<path class="st7" d="M-416.2,10.2h-15.2c-0.4,0-0.8-0.3-0.8-0.8s0.3-0.8,0.8-0.8h15.2c0.4,0,0.8,0.3,0.8,0.8
					S-415.7,10.2-416.2,10.2z"/>
			</g>
			<g>
				<path class="st7" d="M-416.2,14.3h-15.2c-0.4,0-0.8-0.3-0.8-0.8s0.3-0.8,0.8-0.8h15.2c0.4,0,0.8,0.3,0.8,0.8
					S-415.7,14.3-416.2,14.3z"/>
			</g>
			<g>
				<path class="st7" d="M-416.2,18.3h-15.2c-0.4,0-0.8-0.3-0.8-0.8s0.3-0.8,0.8-0.8h15.2c0.4,0,0.8,0.3,0.8,0.8
					S-415.7,18.3-416.2,18.3z"/>
			</g>
			<g>
				<path class="st7" d="M-416.2,22.4h-15.2c-0.4,0-0.8-0.3-0.8-0.8s0.3-0.8,0.8-0.8h15.2c0.4,0,0.8,0.3,0.8,0.8
					S-415.7,22.4-416.2,22.4z"/>
			</g>
			<g>
				<path class="st7" d="M-416.2,26.4h-15.2c-0.4,0-0.8-0.3-0.8-0.8s0.3-0.8,0.8-0.8h15.2c0.4,0,0.8,0.3,0.8,0.8
					S-415.7,26.4-416.2,26.4z"/>
			</g>
		</g>
	</g>
	<g>
		<g class="st10">
			<rect x="-354.5" y="2.4" class="st1" width="27.3" height="34.4"/>
		</g>
		<g>
			<path class="st7" d="M-331.2,33.7h-27.3c-0.6,0-1-0.4-1-1V-1.6c0-0.6,0.4-1,1-1h27.3c0.6,0,1,0.4,1,1V9.6c0,0.6-0.4,1-1,1
				s-1-0.4-1-1V-0.6h-25.3v32.4h25.3v-4.1c0-0.6,0.4-1,1-1s1,0.4,1,1v5.1C-330.2,33.3-330.7,33.7-331.2,33.7z"/>
		</g>
		<g>
			<g>
				<path class="st7" d="M-337.3,6.2h-15.2c-0.4,0-0.8-0.3-0.8-0.8s0.3-0.8,0.8-0.8h15.2c0.4,0,0.8,0.3,0.8,0.8
					S-336.9,6.2-337.3,6.2z"/>
			</g>
			<g>
				<path class="st7" d="M-337.3,10.2h-15.2c-0.4,0-0.8-0.3-0.8-0.8s0.3-0.8,0.8-0.8h15.2c0.4,0,0.8,0.3,0.8,0.8
					S-336.9,10.2-337.3,10.2z"/>
			</g>
			<g>
				<path class="st7" d="M-337.3,14.3h-15.2c-0.4,0-0.8-0.3-0.8-0.8s0.3-0.8,0.8-0.8h15.2c0.4,0,0.8,0.3,0.8,0.8
					S-336.9,14.3-337.3,14.3z"/>
			</g>
			<g>
				<path class="st7" d="M-338.2,18.3h-14.3c-0.4,0-0.8-0.3-0.8-0.8s0.3-0.8,0.8-0.8h14.3c0.4,0,0.8,0.3,0.8,0.8
					S-337.7,18.3-338.2,18.3z"/>
			</g>
			<g>
				<path class="st7" d="M-341.6,22.4h-10.9c-0.4,0-0.8-0.3-0.8-0.8s0.3-0.8,0.8-0.8h10.9c0.4,0,0.8,0.3,0.8,0.8
					S-341.2,22.4-341.6,22.4z"/>
			</g>
			<g>
				<path class="st7" d="M-342.3,26.4h-10.2c-0.4,0-0.8-0.3-0.8-0.8s0.3-0.8,0.8-0.8h10.2c0.4,0,0.8,0.3,0.8,0.8
					S-341.9,26.4-342.3,26.4z"/>
			</g>
		</g>
		<g>
			<g>
				<path class="st20" d="M-339.2,26.5c-0.1,0-0.3-0.1-0.4-0.1c-0.1-0.1-0.2-0.3-0.1-0.4l0.7-4.1c0-0.1,0.1-0.2,0.1-0.3l8.7-8.7
					c0.1-0.1,0.2-0.1,0.4-0.1l0,0c0.1,0,0.3,0.1,0.4,0.1l3.4,3.4c0.2,0.2,0.2,0.5,0,0.7l-8.7,8.7c-0.1,0.1-0.2,0.1-0.3,0.1
					L-339.2,26.5C-339.2,26.5-339.2,26.5-339.2,26.5z M-338,22.1l-0.6,3.3l3.3-0.6l8.3-8.3l-2.7-2.7L-338,22.1z"/>
			</g>
			<g>
				<path class="st20" d="M-335.1,25.8c-0.1,0-0.3,0-0.4-0.1l-3.4-3.4c-0.2-0.2-0.2-0.5,0-0.7s0.5-0.2,0.7,0l3.4,3.4
					c0.2,0.2,0.2,0.5,0,0.7C-334.8,25.7-335,25.8-335.1,25.8z"/>
			</g>
			<g>
				
					<rect x="-338.6" y="18.7" transform="matrix(0.7071 -0.7071 0.7071 0.7071 -110.94 -229.4276)" class="st20" width="12.4" height="1"/>
			</g>
			<g>
				<path class="st20" d="M-326.3,17c-0.1,0-0.3,0-0.4-0.1c-0.2-0.2-0.2-0.5,0-0.7l1-1l-2.7-2.7l-1,1c-0.2,0.2-0.5,0.2-0.7,0
					s-0.2-0.5,0-0.7l1.3-1.3c0.1-0.1,0.2-0.1,0.4-0.1l0,0c0.1,0,0.3,0.1,0.4,0.1l3.4,3.4c0.2,0.2,0.2,0.5,0,0.7l-1.3,1.3
					C-326.1,17-326.2,17-326.3,17z"/>
			</g>
		</g>
	</g>
	<g>
		<g class="st10">
			<rect x="-273.4" y="2.4" class="st1" width="27.3" height="34.4"/>
		</g>
		<g>
			<path class="st7" d="M-250.1,33.7h-27.3c-0.6,0-1-0.4-1-1V-1.6c0-0.6,0.4-1,1-1h27.3c0.6,0,1,0.4,1,1V9.6c0,0.6-0.4,1-1,1
				s-1-0.4-1-1V-0.6h-25.3v32.4h25.3v-4.1c0-0.6,0.4-1,1-1s1,0.4,1,1v5.1C-249.1,33.3-249.6,33.7-250.1,33.7z"/>
		</g>
		<g>
			<g>
				<path class="st7" d="M-256.2,6.2h-15.2c-0.4,0-0.8-0.3-0.8-0.8s0.3-0.8,0.8-0.8h15.2c0.4,0,0.8,0.3,0.8,0.8
					S-255.7,6.2-256.2,6.2z"/>
			</g>
			<g>
				<path class="st7" d="M-256.2,10.2h-15.2c-0.4,0-0.8-0.3-0.8-0.8s0.3-0.8,0.8-0.8h15.2c0.4,0,0.8,0.3,0.8,0.8
					S-255.7,10.2-256.2,10.2z"/>
			</g>
			<g>
				<path class="st7" d="M-261.2,14.3h-10.2c-0.4,0-0.8-0.3-0.8-0.8s0.3-0.8,0.8-0.8h10.2c0.4,0,0.8,0.3,0.8,0.8
					S-260.7,14.3-261.2,14.3z"/>
			</g>
			<g>
				<path class="st7" d="M-262,18.3h-9.3c-0.4,0-0.8-0.3-0.8-0.8s0.3-0.8,0.8-0.8h9.3c0.4,0,0.8,0.3,0.8,0.8S-261.6,18.3-262,18.3z"
					/>
			</g>
			<g>
				<path class="st7" d="M-260.5,22.4h-10.9c-0.4,0-0.8-0.3-0.8-0.8s0.3-0.8,0.8-0.8h10.9c0.4,0,0.8,0.3,0.8,0.8
					S-260.1,22.4-260.5,22.4z"/>
			</g>
			<g>
				<path class="st7" d="M-256.2,26.4h-15.2c-0.4,0-0.8-0.3-0.8-0.8s0.3-0.8,0.8-0.8h15.2c0.4,0,0.8,0.3,0.8,0.8
					S-255.7,26.4-256.2,26.4z"/>
			</g>
		</g>
		<g>
			<path class="st7" d="M-254.5,22.1c-2.4,0-4.5-1.7-5.1-4.1c-0.3-1.3,0-2.7,0.7-3.9c0.8-1.2,1.9-1.9,3.3-2.2c2.8-0.6,5.5,1.2,6.1,4
				c0.3,1.3,0,2.7-0.7,3.9c-0.8,1.2-1.9,1.9-3.3,2.2C-253.8,22.1-254.2,22.1-254.5,22.1z M-254.5,12.8c-0.3,0-0.6,0-0.8,0.1
				c-1.1,0.2-2,0.9-2.6,1.8c-0.6,0.9-0.8,2-0.6,3.1c0.5,2.2,2.7,3.7,4.9,3.2c1.1-0.2,2-0.9,2.6-1.8c0.6-0.9,0.8-2,0.6-3.1
				C-250.9,14.1-252.6,12.8-254.5,12.8z"/>
		</g>
		<g>
			<path class="st7" d="M-254.5,22.1c-2.4,0-4.5-1.7-5.1-4.1c-0.3-1.3,0-2.7,0.7-3.9c0.8-1.2,1.9-1.9,3.3-2.2c2.8-0.6,5.5,1.2,6.1,4
				c0.3,1.3,0,2.7-0.7,3.9c-0.8,1.2-1.9,1.9-3.3,2.2C-253.8,22.1-254.2,22.1-254.5,22.1z M-254.5,12.8c-0.3,0-0.6,0-0.8,0.1
				c-1.1,0.2-2,0.9-2.6,1.8c-0.6,0.9-0.8,2-0.6,3.1c0.5,2.2,2.7,3.7,4.9,3.2c1.1-0.2,2-0.9,2.6-1.8c0.6-0.9,0.8-2,0.6-3.1
				C-250.9,14.1-252.6,12.8-254.5,12.8z"/>
		</g>
		<g>
			<path class="st7" d="M-247.1,25.8c-0.1,0-0.3-0.1-0.4-0.2l-4.3-4.8c-0.2-0.2-0.2-0.5,0-0.7s0.5-0.2,0.7,0l4.3,4.8
				c0.2,0.2,0.2,0.5,0,0.7C-246.9,25.7-247,25.8-247.1,25.8z"/>
		</g>
	</g>
	<rect x="-171" y="-296" class="st21" width="54.6" height="68.8"/>
	<g>
		<line class="st15" x1="-164.8" y1="-288.4" x2="-134.5" y2="-288.4"/>
		<line class="st15" x1="-164.8" y1="-280.9" x2="-134.5" y2="-280.9"/>
		<line class="st15" x1="-164.8" y1="-273.5" x2="-141.5" y2="-273.5"/>
		<line class="st15" x1="-164.8" y1="-266" x2="-144.5" y2="-266"/>
		<line class="st15" x1="-164.8" y1="-258.5" x2="-144.5" y2="-258.5"/>
		<line class="st15" x1="-164.8" y1="-251" x2="-141.5" y2="-251"/>
	</g>
	<polyline class="st13" points="-122.4,-246 -122.4,-233.1 -176.9,-233.1 -176.9,-301.9 -122.4,-301.9 -122.4,-279.2 	"/>
	<rect x="-171" y="-179.8" class="st12" width="54.6" height="68.8"/>
	<polyline class="st13" points="-122.4,-129.8 -122.4,-116.9 -176.9,-116.9 -176.9,-185.7 -122.4,-185.7 -122.4,-129.8 	"/>
	<g>
		<polyline class="st13" points="-134.1,-260.8 -130.4,-256.2 -123.9,-267.4 		"/>
		<path class="st13" d="M-116.2-262.5c0,6.7-5.5,12.2-12.2,12.2c-6.7,0-12.2-5.5-12.2-12.2c0-6.7,5.5-12.2,12.2-12.2
			C-121.6-274.7-116.2-269.2-116.2-262.5z"/>
	</g>
	<g>
		<g class="st16">
			<rect x="-54.8" y="-296" class="st3" width="54.6" height="68.8"/>
		</g>
		<g>
			<g>
				<path class="st7" d="M-18.3-287.7h-30.4c-0.4,0-0.8-0.3-0.8-0.8s0.3-0.8,0.8-0.8h30.4c0.4,0,0.8,0.3,0.8,0.8
					S-17.8-287.7-18.3-287.7z"/>
			</g>
			<g>
				<path class="st7" d="M-18.3-280.2h-30.4c-0.4,0-0.8-0.3-0.8-0.8s0.3-0.8,0.8-0.8h30.4c0.4,0,0.8,0.3,0.8,0.8
					S-17.8-280.2-18.3-280.2z"/>
			</g>
			<g>
				<path class="st7" d="M-25.3-272.7h-23.4c-0.4,0-0.8-0.3-0.8-0.8s0.3-0.8,0.8-0.8h23.4c0.4,0,0.8,0.3,0.8,0.8
					S-24.8-272.7-25.3-272.7z"/>
			</g>
			<g>
				<path class="st7" d="M-28.3-265.2h-20.4c-0.4,0-0.8-0.3-0.8-0.8s0.3-0.8,0.8-0.8h20.4c0.4,0,0.8,0.3,0.8,0.8
					S-27.8-265.2-28.3-265.2z"/>
			</g>
			<g>
				<path class="st7" d="M-28.3-257.7h-20.4c-0.4,0-0.8-0.3-0.8-0.8s0.3-0.8,0.8-0.8h20.4c0.4,0,0.8,0.3,0.8,0.8
					S-27.8-257.7-28.3-257.7z"/>
			</g>
			<g>
				<path class="st7" d="M-25.3-250.2h-23.4c-0.4,0-0.8-0.3-0.8-0.8s0.3-0.8,0.8-0.8h23.4c0.4,0,0.8,0.3,0.8,0.8
					S-24.8-250.2-25.3-250.2z"/>
			</g>
		</g>
		<g>
			<path class="st7" d="M-6.2-232.1h-54.6c-0.6,0-1-0.4-1-1v-68.8c0-0.6,0.4-1,1-1h54.6c0.6,0,1,0.4,1,1v22.7c0,0.6-0.4,1-1,1
				s-1-0.4-1-1v-21.7h-52.6v66.8h52.6V-246c0-0.6,0.4-1,1-1s1,0.4,1,1v12.9C-5.2-232.5-5.6-232.1-6.2-232.1z"/>
		</g>
		<g>
			<g>
				<path class="st7" d="M-14.2-255.2c-0.3,0-0.6-0.1-0.8-0.4l-3.7-4.6c-0.3-0.4-0.3-1.1,0.2-1.4c0.4-0.3,1.1-0.3,1.4,0.2l2.8,3.5
					l5.8-9.9c0.3-0.5,0.9-0.6,1.4-0.4c0.5,0.3,0.6,0.9,0.4,1.4l-6.5,11.2C-13.5-255.4-13.8-255.2-14.2-255.2
					C-14.2-255.2-14.2-255.2-14.2-255.2z"/>
			</g>
			<g>
				<path class="st7" d="M-12.2-249.3c-7.3,0-13.2-5.9-13.2-13.2s5.9-13.2,13.2-13.2c7.3,0,13.2,5.9,13.2,13.2
					S-4.9-249.3-12.2-249.3z M-12.2-273.7c-6.2,0-11.2,5-11.2,11.2s5,11.2,11.2,11.2s11.2-5,11.2-11.2S-6-273.7-12.2-273.7z"/>
			</g>
		</g>
	</g>
	<g>
		<line class="st9" x1="-156.4" y1="-172.2" x2="-131.8" y2="-172.2"/>
		<circle class="st9" cx="-164.6" cy="-172.2" r="2.9"/>
	</g>
	<g>
		<line class="st9" x1="-156.4" y1="-160.9" x2="-131.8" y2="-160.9"/>
		<circle class="st9" cx="-164.6" cy="-160.9" r="2.9"/>
	</g>
	<g>
		<line class="st9" x1="-156.4" y1="-149.5" x2="-131.8" y2="-149.5"/>
		<circle class="st9" cx="-164.6" cy="-149.5" r="2.9"/>
	</g>
	<g>
		<line class="st9" x1="-156.4" y1="-138.2" x2="-131.8" y2="-138.2"/>
		<circle class="st9" cx="-164.6" cy="-138.2" r="2.9"/>
	</g>
	<g>
		<g class="st16">
			<rect x="-54.8" y="-179.8" class="st0" width="54.6" height="68.8"/>
		</g>
		<g>
			<path class="st7" d="M-6.2-115.9h-54.6c-0.6,0-1-0.4-1-1v-68.8c0-0.6,0.4-1,1-1h54.6c0.6,0,1,0.4,1,1v68.8
				C-5.2-116.3-5.6-115.9-6.2-115.9z M-59.7-117.9h52.6v-66.8h-52.6V-117.9z"/>
		</g>
		<g>
			<g>
				<path class="st7" d="M-15.6-171.5h-24.5c-0.4,0-0.7-0.3-0.7-0.7s0.3-0.7,0.7-0.7h24.5c0.4,0,0.7,0.3,0.7,0.7
					S-15.3-171.5-15.6-171.5z"/>
			</g>
			<g>
				<path class="st7" d="M-48.4-168.7c-2,0-3.6-1.6-3.6-3.6c0-2,1.6-3.6,3.6-3.6c2,0,3.6,1.6,3.6,3.6
					C-44.8-170.3-46.4-168.7-48.4-168.7z M-48.4-174.4c-1.2,0-2.2,1-2.2,2.2s1,2.2,2.2,2.2s2.2-1,2.2-2.2S-47.1-174.4-48.4-174.4z"
					/>
			</g>
		</g>
		<g>
			<g>
				<path class="st7" d="M-15.6-160.2h-24.5c-0.4,0-0.7-0.3-0.7-0.7s0.3-0.7,0.7-0.7h24.5c0.4,0,0.7,0.3,0.7,0.7
					S-15.3-160.2-15.6-160.2z"/>
			</g>
			<g>
				<path class="st7" d="M-48.4-157.3c-2,0-3.6-1.6-3.6-3.6s1.6-3.6,3.6-3.6c2,0,3.6,1.6,3.6,3.6S-46.4-157.3-48.4-157.3z
					 M-48.4-163.1c-1.2,0-2.2,1-2.2,2.2s1,2.2,2.2,2.2s2.2-1,2.2-2.2S-47.1-163.1-48.4-163.1z"/>
			</g>
		</g>
		<g>
			<g>
				<path class="st7" d="M-15.6-148.9h-24.5c-0.4,0-0.7-0.3-0.7-0.7s0.3-0.7,0.7-0.7h24.5c0.4,0,0.7,0.3,0.7,0.7
					S-15.3-148.9-15.6-148.9z"/>
			</g>
			<g>
				<path class="st7" d="M-48.4-146c-2,0-3.6-1.6-3.6-3.6c0-2,1.6-3.6,3.6-3.6c2,0,3.6,1.6,3.6,3.6C-44.8-147.6-46.4-146-48.4-146z
					 M-48.4-151.8c-1.2,0-2.2,1-2.2,2.2s1,2.2,2.2,2.2s2.2-1,2.2-2.2S-47.1-151.8-48.4-151.8z"/>
			</g>
		</g>
		<g>
			<g>
				<path class="st7" d="M-15.6-137.5h-24.5c-0.4,0-0.7-0.3-0.7-0.7s0.3-0.7,0.7-0.7h24.5c0.4,0,0.7,0.3,0.7,0.7
					S-15.3-137.5-15.6-137.5z"/>
			</g>
			<g>
				<path class="st7" d="M-48.4-134.6c-2,0-3.6-1.6-3.6-3.6s1.6-3.6,3.6-3.6c2,0,3.6,1.6,3.6,3.6S-46.4-134.6-48.4-134.6z
					 M-48.4-140.4c-1.2,0-2.2,1-2.2,2.2s1,2.2,2.2,2.2s2.2-1,2.2-2.2S-47.1-140.4-48.4-140.4z"/>
			</g>
		</g>
	</g>
	<path class="st22" d="M101.2-176.2h20.2c2.8,0,5,2.2,5,5v48.6c0,2.8-2.2,5-5,5H63.2c-2.8,0-5-2.2-5-5v-48.6c0-2.8,2.2-5,5-5h20.2"
		/>
	<path class="st22" d="M101.2-176.2h20.2c2.8,0,5,2.2,5,5v48.6c0,2.8-2.2,5-5,5H63.2c-2.8,0-5-2.2-5-5v-48.6c0-2.8,2.2-5,5-5h20.2"
		/>
	<line class="st22" x1="87.1" y1="-176.2" x2="97.6" y2="-176.2"/>
	<g>
		<rect x="67.3" y="-164.9" class="st9" width="7.6" height="7.6"/>
		<rect x="81.4" y="-164.9" class="st9" width="7.6" height="7.6"/>
		<rect x="95.6" y="-164.9" class="st9" width="7.6" height="7.6"/>
		<rect x="109.8" y="-164.9" class="st9" width="7.6" height="7.6"/>
	</g>
	<g>
		<rect x="67.3" y="-150.7" class="st9" width="7.6" height="7.6"/>
		<rect x="81.4" y="-150.7" class="st9" width="7.6" height="7.6"/>
		<rect x="95.6" y="-150.7" class="st9" width="7.6" height="7.6"/>
		<rect x="109.8" y="-150.7" class="st9" width="7.6" height="7.6"/>
	</g>
	<g>
		<rect x="67.3" y="-136.6" class="st9" width="7.6" height="7.6"/>
		<rect x="81.4" y="-136.6" class="st9" width="7.6" height="7.6"/>
		<rect x="95.6" y="-136.6" class="st9" width="7.6" height="7.6"/>
		<rect x="109.8" y="-136.6" class="st9" width="7.6" height="7.6"/>
	</g>
	<path class="st22" d="M85.2-181.4L85.2-181.4c-1,0-1.8,0.8-1.8,1.8v6.7c0,1,0.8,1.8,1.8,1.8h0c1,0,1.8-0.8,1.8-1.8v-6.7
		C87.1-180.6,86.2-181.4,85.2-181.4z"/>
	<path class="st22" d="M99.4-181.4L99.4-181.4c-1,0-1.8,0.8-1.8,1.8v6.7c0,1,0.8,1.8,1.8,1.8l0,0c1,0,1.8-0.8,1.8-1.8v-6.7
		C101.2-180.6,100.4-181.4,99.4-181.4z"/>
	<g>
		<g class="st16">
			<path class="st0" d="M223.1-170.6h20.2c2.8,0,5,2.2,5,5v48.6c0,2.8-2.2,5-5,5h-58.2c-2.8,0-5-2.2-5-5v-48.6c0-2.8,2.2-5,5-5h20.2
				"/>
		</g>
		<g>
			<path class="st7" d="M237.7-116.7h-58.2c-3.3,0-6-2.7-6-6v-48.6c0-3.3,2.7-6,6-6h20.2c0.5,0,1,0.4,1,1s-0.4,1-1,1h-20.2
				c-2.2,0-4,1.8-4,4v48.6c0,2.2,1.8,4,4,4h58.2c2.2,0,4-1.8,4-4v-48.6c0-2.2-1.8-4-4-4h-20.2c-0.5,0-1-0.4-1-1s0.4-1,1-1h20.2
				c3.3,0,6,2.7,6,6v48.6C243.6-119.3,240.9-116.7,237.7-116.7z"/>
		</g>
		<g>
			<path class="st7" d="M237.7-116.7h-58.2c-3.3,0-6-2.7-6-6v-48.6c0-3.3,2.7-6,6-6h20.2c0.5,0,1,0.4,1,1s-0.4,1-1,1h-20.2
				c-2.2,0-4,1.8-4,4v48.6c0,2.2,1.8,4,4,4h58.2c2.2,0,4-1.8,4-4v-48.6c0-2.2-1.8-4-4-4h-20.2c-0.5,0-1-0.4-1-1s0.4-1,1-1h20.2
				c3.3,0,6,2.7,6,6v48.6C243.6-119.3,240.9-116.7,237.7-116.7z"/>
		</g>
		<g>
			<path class="st7" d="M213.8-175.3h-10.5c-0.5,0-1-0.4-1-1s0.4-1,1-1h10.5c0.5,0,1,0.4,1,1S214.3-175.3,213.8-175.3z"/>
		</g>
		<g>
			<g>
				<path class="st7" d="M191.1-156.8h-7.6c-0.3,0-0.5-0.2-0.5-0.5v-7.6c0-0.3,0.2-0.5,0.5-0.5h7.6c0.3,0,0.5,0.2,0.5,0.5v7.6
					C191.6-157,191.3-156.8,191.1-156.8z M184-157.8h6.6v-6.6H184V-157.8z"/>
			</g>
			<g>
				<path class="st7" d="M205.2-156.8h-7.6c-0.3,0-0.5-0.2-0.5-0.5v-7.6c0-0.3,0.2-0.5,0.5-0.5h7.6c0.3,0,0.5,0.2,0.5,0.5v7.6
					C205.7-157,205.5-156.8,205.2-156.8z M198.1-157.8h6.6v-6.6h-6.6V-157.8z"/>
			</g>
			<g>
				<path class="st7" d="M219.4-156.8h-7.6c-0.3,0-0.5-0.2-0.5-0.5v-7.6c0-0.3,0.2-0.5,0.5-0.5h7.6c0.3,0,0.5,0.2,0.5,0.5v7.6
					C219.9-157,219.7-156.8,219.4-156.8z M212.3-157.8h6.6v-6.6h-6.6V-157.8z"/>
			</g>
			<g>
				<path class="st7" d="M233.6-156.8H226c-0.3,0-0.5-0.2-0.5-0.5v-7.6c0-0.3,0.2-0.5,0.5-0.5h7.6c0.3,0,0.5,0.2,0.5,0.5v7.6
					C234.1-157,233.9-156.8,233.6-156.8z M226.5-157.8h6.6v-6.6h-6.6V-157.8z"/>
			</g>
		</g>
		<g>
			<g>
				<path class="st7" d="M191.1-142.6h-7.6c-0.3,0-0.5-0.2-0.5-0.5v-7.6c0-0.3,0.2-0.5,0.5-0.5h7.6c0.3,0,0.5,0.2,0.5,0.5v7.6
					C191.6-142.9,191.3-142.6,191.1-142.6z M184-143.6h6.6v-6.6H184V-143.6z"/>
			</g>
			<g>
				<path class="st7" d="M205.2-142.6h-7.6c-0.3,0-0.5-0.2-0.5-0.5v-7.6c0-0.3,0.2-0.5,0.5-0.5h7.6c0.3,0,0.5,0.2,0.5,0.5v7.6
					C205.7-142.9,205.5-142.6,205.2-142.6z M198.1-143.6h6.6v-6.6h-6.6V-143.6z"/>
			</g>
			<g>
				<path class="st7" d="M219.4-142.6h-7.6c-0.3,0-0.5-0.2-0.5-0.5v-7.6c0-0.3,0.2-0.5,0.5-0.5h7.6c0.3,0,0.5,0.2,0.5,0.5v7.6
					C219.9-142.9,219.7-142.6,219.4-142.6z M212.3-143.6h6.6v-6.6h-6.6V-143.6z"/>
			</g>
			<g>
				<path class="st7" d="M233.6-142.6H226c-0.3,0-0.5-0.2-0.5-0.5v-7.6c0-0.3,0.2-0.5,0.5-0.5h7.6c0.3,0,0.5,0.2,0.5,0.5v7.6
					C234.1-142.9,233.9-142.6,233.6-142.6z M226.5-143.6h6.6v-6.6h-6.6V-143.6z"/>
			</g>
		</g>
		<g>
			<g>
				<path class="st7" d="M191.1-128.5h-7.6c-0.3,0-0.5-0.2-0.5-0.5v-7.6c0-0.3,0.2-0.5,0.5-0.5h7.6c0.3,0,0.5,0.2,0.5,0.5v7.6
					C191.6-128.7,191.3-128.5,191.1-128.5z M184-129.5h6.6v-6.6H184V-129.5z"/>
			</g>
			<g>
				<path class="st7" d="M205.2-128.5h-7.6c-0.3,0-0.5-0.2-0.5-0.5v-7.6c0-0.3,0.2-0.5,0.5-0.5h7.6c0.3,0,0.5,0.2,0.5,0.5v7.6
					C205.7-128.7,205.5-128.5,205.2-128.5z M198.1-129.5h6.6v-6.6h-6.6V-129.5z"/>
			</g>
			<g>
				<path class="st7" d="M219.4-128.5h-7.6c-0.3,0-0.5-0.2-0.5-0.5v-7.6c0-0.3,0.2-0.5,0.5-0.5h7.6c0.3,0,0.5,0.2,0.5,0.5v7.6
					C219.9-128.7,219.7-128.5,219.4-128.5z M212.3-129.5h6.6v-6.6h-6.6V-129.5z"/>
			</g>
			<g>
				<path class="st7" d="M233.6-128.5H226c-0.3,0-0.5-0.2-0.5-0.5v-7.6c0-0.3,0.2-0.5,0.5-0.5h7.6c0.3,0,0.5,0.2,0.5,0.5v7.6
					C234.1-128.7,233.9-128.5,233.6-128.5z M226.5-129.5h6.6v-6.6h-6.6V-129.5z"/>
			</g>
		</g>
		<g>
			<path class="st7" d="M201.4-170.1c-1.5,0-2.8-1.3-2.8-2.8v-6.7c0-1.5,1.3-2.8,2.8-2.8c1.5,0,2.8,1.3,2.8,2.8v6.7
				C204.2-171.3,203-170.1,201.4-170.1z M201.4-180.5c-0.5,0-0.9,0.4-0.9,0.9v6.7c0,0.5,0.4,0.9,0.9,0.9s0.9-0.4,0.9-0.9v-6.7
				C202.3-180.1,201.9-180.5,201.4-180.5z"/>
		</g>
		<g>
			<path class="st7" d="M215.6-170.1c-1.5,0-2.8-1.3-2.8-2.8v-6.7c0-1.5,1.3-2.8,2.8-2.8c1.5,0,2.8,1.3,2.8,2.8v6.7
				C218.4-171.3,217.2-170.1,215.6-170.1z M215.6-180.5c-0.5,0-0.9,0.4-0.9,0.9v6.7c0,0.5,0.4,0.9,0.9,0.9s0.9-0.4,0.9-0.9v-6.7
				C216.5-180.1,216.1-180.5,215.6-180.5z"/>
		</g>
	</g>
	<g>
		<path class="st21" d="M120.1-268.2L120.1-268.2c0.8-2.5,1.2-5.2,1.2-8c0-14.7-11.9-26.7-26.7-26.7S68-290.8,68-276.1
			c0,2.8,0.4,5.5,1.2,8h0l0,0c0.3,1,0.7,2,1.1,3l10.4,27.2h27.8l10.4-27.2C119.4-266.1,119.8-267.1,120.1-268.2L120.1-268.2z"/>
		<path class="st13" d="M114.4-273.8L114.4-273.8c0.8-2.5,1.2-5.2,1.2-8c0-14.7-11.9-26.7-26.7-26.7s-26.7,11.9-26.7,26.7
			c0,2.8,0.4,5.5,1.2,8h0l0,0c0.3,1,0.7,2,1.1,3l10.4,27.2h27.8l10.4-27.2C113.7-271.8,114.1-272.8,114.4-273.8L114.4-273.8z"/>
		<line class="st13" x1="75.1" y1="-238.7" x2="102.9" y2="-238.7"/>
		<line class="st13" x1="77.6" y1="-233.5" x2="100.4" y2="-233.5"/>
		<line class="st13" x1="80" y1="-228.3" x2="98" y2="-228.3"/>
		<polyline class="st13" points="85,-243.6 80,-262.1 98,-262.1 93.1,-243.6 		"/>
		<line class="st13" x1="82.5" y1="-265.8" x2="95.5" y2="-265.8"/>
		<line class="st13" x1="85" y1="-269.5" x2="93.1" y2="-269.5"/>
	</g>
	<path class="st13" d="M68.6-281.3c0-11.3,9.2-20.4,20.4-20.4"/>
	<g>
		<g>
			<g class="st16">
				<path class="st3" d="M236.3-268.2L236.3-268.2c0.8-2.5,1.2-5.2,1.2-8c0-14.7-11.9-26.7-26.7-26.7s-26.7,11.9-26.7,26.7
					c0,2.8,0.4,5.5,1.2,8h0l0,0c0.3,1,0.7,2,1.1,3l10.4,27.2h27.8l10.4-27.2C235.6-266.1,236-267.1,236.3-268.2L236.3-268.2z"/>
			</g>
			<g>
				<path class="st7" d="M219.1-242.6h-27.8c-0.4,0-0.8-0.3-0.9-0.6L180-270.4c-0.4-1-0.8-2-1.2-3.1c-0.8-2.7-1.3-5.5-1.3-8.3
					c0-15.2,12.4-27.7,27.7-27.7s27.7,12.4,27.7,27.7c0,2.8-0.4,5.6-1.3,8.3c0,0,0,0,0,0c-0.3,1.1-0.7,2.1-1.2,3.1l-10.4,27.2
					C219.9-242.8,219.5-242.6,219.1-242.6z M192-244.6h26.4l10.1-26.6c0.4-1,0.8-2,1.1-3c0,0,0,0,0,0c0.8-2.5,1.2-5,1.2-7.7
					c0-14.1-11.5-25.7-25.7-25.7c-14.1,0-25.7,11.5-25.7,25.7c0,2.6,0.4,5.2,1.2,7.7c0.3,1,0.7,2,1.1,2.9L192-244.6z M230.7-273.8
					L230.7-273.8L230.7-273.8z"/>
			</g>
			<g>
				<path class="st7" d="M219.1-237.7h-27.8c-0.6,0-1-0.4-1-1s0.4-1,1-1h27.8c0.6,0,1,0.4,1,1S219.7-237.7,219.1-237.7z"/>
			</g>
			<g>
				<path class="st7" d="M216.7-232.5h-22.9c-0.6,0-1-0.4-1-1s0.4-1,1-1h22.9c0.6,0,1,0.4,1,1S217.2-232.5,216.7-232.5z"/>
			</g>
			<g>
				<path class="st7" d="M214.2-227.3h-18c-0.6,0-1-0.4-1-1s0.4-1,1-1h18c0.6,0,1,0.4,1,1S214.8-227.3,214.2-227.3z"/>
			</g>
			<g>
				<path class="st7" d="M209.3-242.6c-0.1,0-0.2,0-0.3,0c-0.5-0.1-0.9-0.7-0.7-1.2l4.6-17.3h-15.4l4.6,17.3
					c0.1,0.5-0.2,1.1-0.7,1.2c-0.5,0.1-1.1-0.2-1.2-0.7l-4.9-18.6c-0.1-0.3,0-0.6,0.2-0.9c0.2-0.2,0.5-0.4,0.8-0.4h18
					c0.3,0,0.6,0.1,0.8,0.4c0.2,0.2,0.3,0.6,0.2,0.9l-4.9,18.6C210.1-242.9,209.7-242.6,209.3-242.6z"/>
			</g>
			<g>
				<path class="st7" d="M211.7-264.8h-13c-0.6,0-1-0.4-1-1s0.4-1,1-1h13c0.6,0,1,0.4,1,1S212.3-264.8,211.7-264.8z"/>
			</g>
			<g>
				<path class="st7" d="M209.3-268.5h-8.1c-0.6,0-1-0.4-1-1s0.4-1,1-1h8.1c0.6,0,1,0.4,1,1S209.8-268.5,209.3-268.5z"/>
			</g>
		</g>
		<g>
			<path class="st7" d="M184.8-280.3c-0.6,0-1-0.4-1-1c0-11.8,9.6-21.4,21.4-21.4c0.6,0,1,0.4,1,1s-0.4,1-1,1
				c-10.7,0-19.4,8.7-19.4,19.4C185.8-280.8,185.3-280.3,184.8-280.3z"/>
		</g>
	</g>
	<g>
	</g>
	<g>
	</g>
	<g>
	</g>
	<g>
	</g>
	<g>
	</g>
	<g>
	</g>
	<g>
	</g>
	<g>
	</g>
	<g>
	</g>
	<g>
	</g>
	<g>
	</g>
	<g>
	</g>
	<g>
	</g>
	<g>
	</g>
	<g>
	</g>
</g>
</svg>
