<?xml version="1.0" encoding="utf-8"?>
<!-- Generator: Adobe Illustrator 23.0.1, SVG Export Plug-In . SVG Version: 6.00 Build 0)  -->
<svg version="1.1" xmlns="http://www.w3.org/2000/svg" xmlns:xlink="http://www.w3.org/1999/xlink" x="0px" y="0px"
	 viewBox="0 0 798.5 585.2" style="enable-background:new 0 0 798.5 585.2;" xml:space="preserve">
<style type="text/css">
	.st0{display:none;}
	.st1{display:inline;opacity:0.5;}
	.st2{fill:#81BCBF;}
	.st3{opacity:0.33;fill:#B6CE99;}
	.st4{opacity:0.66;fill:#B6CE99;}
	.st5{fill:#B6CE99;}
	.st6{opacity:0.33;fill:#FFFFFF;}
	.st7{opacity:0.66;fill:#FFFFFF;}
	.st8{fill:#585799;}
	.st9{opacity:0.5;fill:#B6CE99;}
	.st10{opacity:0.33;fill:#81BCBF;}
	.st11{opacity:0.66;fill:#81BCBF;}
	.st12{opacity:0.5;fill:#585799;}
	.st13{fill:#508A99;}
	.st14{opacity:0.33;fill:#508A99;}
	.st15{opacity:0.66;fill:#508A99;}
	.st16{fill:none;}
	.st17{opacity:0.66;fill:#585799;}
	.st18{opacity:0.66;}
	.st19{fill:#FFFFFF;}
	.st20{opacity:0.33;}
	.st21{opacity:0.33;fill:#585799;}
	.st22{fill:none;stroke:#FFFFFF;stroke-width:0.25;stroke-miterlimit:10;}
	.st23{opacity:0.5;fill:#81BCBF;}
	.st24{opacity:0.5;fill:#FFFFFF;}
	.st25{opacity:0.2;}
	.st26{fill-rule:evenodd;clip-rule:evenodd;fill:#FFFFFF;}
</style>
<g id="Ejemplo" class="st0">
</g>
<g id="Retícula" class="st0">
</g>
<g id="Números">
	<polyline class="st13" points="227.1,286.9 358.8,210.3 358.8,222.1 227.1,298.9 	"/>
	<polyline class="st13" points="227.1,298.9 64.6,204.7 64.6,192.9 227.1,286.9 	"/>
	<polyline class="st13" points="227.1,286.9 358.8,210.3 196,116.2 64.6,192.9 227.1,286.9 227.1,298.9 	"/>
	<polyline class="st4" points="227.1,286.9 358.8,210.3 196,116.2 64.6,192.9 227.1,286.9 	"/>
	<polyline class="st3" points="227.1,298.9 64.6,204.7 64.6,192.9 227.1,286.9 	"/>
	<g>
		<polyline class="st13" points="328.9,160.8 295.7,141.2 295.7,147.8 328.9,167.1 328.9,160.8 		"/>
		<polygon class="st13" points="334.5,151.1 301.3,131.7 306.9,128.3 340.3,147.8 		"/>
		<polyline class="st13" points="334.5,157.6 301.3,137.8 301.3,131.7 334.5,151.1 		"/>
		<polyline class="st13" points="334.5,151.1 334.5,157.6 301.3,137.8 295.7,141.2 328.9,160.8 334.5,157.6 		"/>
		<polyline class="st13" points="317.5,180.2 284.3,160.6 284.3,167.3 317.5,186.4 317.5,180.2 		"/>
		<polygon class="st13" points="323.1,170.2 289.9,150.6 295.7,147.8 328.9,167.1 		"/>
		<polyline class="st13" points="323.1,176.9 289.9,157.2 289.9,150.6 323.1,170.2 		"/>
		<polyline class="st13" points="323.1,170.2 323.1,176.9 289.9,157.2 284.3,160.5 317.5,180.2 323.1,176.9 		"/>
		<polygon class="st13" points="323.1,176.9 323.1,170.2 328.9,167.1 328.9,160.8 334.5,157.6 334.5,151.1 340.3,147.8 340.3,149.8 
			335.9,152.3 335.9,159 330.5,162.2 330.5,168.3 330.5,168.3 324.5,171.4 324.5,178.3 319.1,181.5 319.1,187.3 317.5,186.4 
			317.5,180.2 317.5,180.2 		"/>
		<polygon class="st4" points="334.5,151.1 301.3,131.7 306.9,128.3 340.3,147.8 		"/>
		<polyline class="st4" points="334.5,157.6 301.3,137.8 295.7,141.2 328.9,160.8 334.5,157.6 		"/>
		<polygon class="st4" points="323.1,170.2 289.9,150.6 295.7,147.8 328.9,167.1 		"/>
		<polyline class="st4" points="323.1,176.9 289.9,157.2 284.3,160.5 317.5,180.2 323.1,176.9 		"/>
		<polygon class="st17" points="323.1,176.9 323.1,170.2 328.9,167.1 328.9,160.8 334.5,157.6 334.5,151.1 340.3,147.8 340.3,149.8 
			335.9,152.3 335.9,159 330.5,162.2 330.5,168.3 330.5,168.3 324.5,171.4 324.5,178.3 319.1,181.5 319.1,187.3 317.5,186.4 
			317.5,180.2 317.5,180.2 		"/>
	</g>
	<polygon class="st2" points="189.8,82.6 249,116.9 249,163.4 189.8,129.1 	"/>
	<polygon class="st2" points="255.4,113.2 249,116.9 189.8,82.6 196.2,78.8 	"/>
	<polygon class="st7" points="255.4,113.2 249,116.9 189.8,82.6 196.2,78.8 	"/>
	<g>
		<polygon class="st13" points="235.5,111.7 229.3,108.1 229.3,126.5 235.7,122.7 		"/>
		<polygon class="st2" points="247.2,129.1 247.2,136.6 229.3,126.5 235.7,122.7 		"/>
		<polygon class="st8" points="247.2,129.1 247,118.3 235.5,111.7 235.7,122.7 		"/>
		<polygon class="st14" points="247.2,129.1 247.2,136.6 229.3,126.5 235.7,122.7 		"/>
		<polygon class="st15" points="247.2,129.1 247,118.3 235.5,111.7 235.7,122.7 		"/>
	</g>
	<g>
		<polygon class="st13" points="216.5,100.9 210.4,97.3 210.4,115.6 216.7,111.9 		"/>
		<polygon class="st2" points="228.2,118.2 228.2,125.8 210.4,115.6 216.7,111.9 		"/>
		<polygon class="st8" points="228.2,118.2 228.1,107.5 216.5,100.9 216.7,111.9 		"/>
		<polygon class="st14" points="228.2,118.2 228.2,125.8 210.4,115.6 216.7,111.9 		"/>
		<polygon class="st15" points="228.2,118.2 228.1,107.5 216.5,100.9 216.7,111.9 		"/>
	</g>
	<g>
		<polygon class="st13" points="197.6,89.8 191.5,86.2 191.5,104.5 197.8,100.7 		"/>
		<polygon class="st2" points="209.3,107.2 209.3,114.7 191.5,104.5 197.8,100.7 		"/>
		<polygon class="st8" points="209.3,107.2 209.2,96.4 197.6,89.8 197.8,100.7 		"/>
		<polygon class="st14" points="209.3,107.2 209.3,114.7 191.5,104.5 197.8,100.7 		"/>
		<polygon class="st15" points="209.3,107.2 209.2,96.4 197.6,89.8 197.8,100.7 		"/>
	</g>
	<g>
		<polygon class="st13" points="235.5,131.7 229.3,128.1 229.3,146.5 235.7,142.7 		"/>
		<polygon class="st2" points="247.2,149.1 247.2,156.6 229.3,146.5 235.7,142.7 		"/>
		<polygon class="st8" points="247.2,149.1 247,138.3 235.5,131.7 235.7,142.7 		"/>
		<polygon class="st14" points="247.2,149.1 247.2,156.6 229.3,146.5 235.7,142.7 		"/>
		<polygon class="st15" points="247.2,149.1 247,138.3 235.5,131.7 235.7,142.7 		"/>
	</g>
	<g>
		<polygon class="st13" points="216.5,120.9 210.4,117.3 210.4,135.6 216.7,131.9 		"/>
		<polygon class="st2" points="228.2,138.2 228.2,145.8 210.4,135.6 216.7,131.9 		"/>
		<polygon class="st8" points="228.2,138.2 228.1,127.5 216.5,120.9 216.7,131.9 		"/>
		<polygon class="st14" points="228.2,138.2 228.2,145.8 210.4,135.6 216.7,131.9 		"/>
		<polygon class="st15" points="228.2,138.2 228.1,127.5 216.5,120.9 216.7,131.9 		"/>
	</g>
	<g>
		<polygon class="st13" points="197.6,109.8 191.5,106.2 191.5,124.5 197.8,120.8 		"/>
		<polygon class="st2" points="209.3,127.2 209.3,134.7 191.5,124.5 197.8,120.8 		"/>
		<polygon class="st8" points="209.3,127.2 209.2,116.4 197.6,109.8 197.8,120.8 		"/>
		<polygon class="st14" points="209.3,127.2 209.3,134.7 191.5,124.5 197.8,120.8 		"/>
		<polygon class="st15" points="209.3,127.2 209.2,116.4 197.6,109.8 197.8,120.8 		"/>
	</g>
	<line class="st16" x1="197.8" y1="100.7" x2="191.5" y2="104.5"/>
	<g>
		<polygon class="st13" points="193.7,98.4 200.8,102.6 200.8,109 193.9,104.8 193.8,100.4 193.7,100.3 		"/>
		<g>
			<polygon class="st10" points="193.7,98.4 200.8,102.6 200.8,109 193.9,104.8 193.8,100.4 193.7,100.3 			"/>
			<polygon class="st2" points="207,99.6 200.8,102.6 200.8,109 206.9,106 206.9,101.4 207,101.4 207,100.9 			"/>
			<polygon class="st6" points="194.5,101.7 200.1,104.9 200.1,107.7 194.5,104.4 			"/>
			<polygon class="st2" points="193.7,98.4 200.8,102.6 207,99.6 199.9,95.4 			"/>
			<polygon class="st7" points="193.7,98.4 200.8,102.6 207,99.6 199.9,95.4 			"/>
			<polygon class="st15" points="200.8,104.7 200.8,104.4 206.9,101.4 206.9,101.7 			"/>
			<polygon class="st17" points="200.8,104.7 200.8,104.4 193.8,100.4 193.8,100.7 			"/>
		</g>
	</g>
	<g>
		<polygon class="st5" points="231.6,139.6 238.7,143.9 238.7,150.2 231.8,146 231.7,141.7 231.6,141.6 		"/>
		<g>
			<polygon class="st10" points="231.6,139.6 238.7,143.9 238.7,150.2 231.8,146 231.7,141.7 231.6,141.6 			"/>
			<polygon class="st5" points="244.9,140.9 238.7,143.9 238.7,150.2 244.8,147.3 244.8,142.7 244.9,142.7 244.9,142.2 			"/>
			<polygon class="st6" points="232.4,143 238,146.2 238,149 232.4,145.7 			"/>
			<polygon class="st5" points="231.6,139.6 238.7,143.9 244.9,140.9 237.8,136.6 			"/>
			<polygon class="st6" points="231.6,139.6 238.7,143.9 244.9,140.9 237.8,136.6 			"/>
			<polygon class="st11" points="238.7,145.9 238.7,145.6 244.8,142.7 244.8,143 			"/>
			<polygon class="st15" points="238.7,145.9 238.7,145.6 231.7,141.7 231.7,141.9 			"/>
		</g>
	</g>
	<g>
		<g>
			<g>
				<polygon class="st2" points="231.3,117.4 233.1,118.4 233.1,127.7 231.3,126.7 				"/>
				<polygon class="st2" points="239.3,115.4 233.1,118.4 233.1,127.7 239.3,124.7 				"/>
				<polygon class="st7" points="237.4,118 234.9,119.3 234.9,121.1 237.4,119.9 				"/>
				<polygon class="st7" points="231.6,119.5 232.7,120.1 232.7,125.7 231.6,125.1 				"/>
				<polygon class="st2" points="231.3,117.4 233.1,118.4 239.3,115.4 237.5,114.4 				"/>
				<polygon class="st7" points="231.3,117.4 233.1,118.4 239.3,115.4 237.5,114.4 				"/>
				<polygon class="st7" points="232.1,117.3 233.4,118 239,115.3 237.7,114.6 				"/>
				<polygon class="st7" points="233.1,117.9 233.4,118 239,115.3 238.7,115.1 				"/>
				<polygon class="st7" points="232.8,117.7 233,117.8 238.6,115.1 238.4,114.9 				"/>
				<polygon class="st7" points="232.4,117.5 232.6,117.6 238.3,114.9 238,114.7 				"/>
				<polygon class="st7" points="232.1,117.3 232.3,117.4 237.9,114.7 237.7,114.6 				"/>
			</g>
			<polygon class="st6" points="239.3,115.4 233.1,118.4 233.1,127.7 239.3,124.7 			"/>
		</g>
		<g>
			<g>
				<polygon class="st8" points="233.3,118.5 235.1,119.5 235.1,128.8 233.3,127.8 				"/>
				<polygon class="st8" points="241.3,116.5 235.1,119.5 235.1,128.8 241.3,125.8 				"/>
				<polygon class="st7" points="239.4,119.1 236.9,120.4 236.9,122.2 239.4,121 				"/>
				<polygon class="st7" points="233.6,120.6 234.7,121.2 234.7,126.8 233.6,126.2 				"/>
				<polygon class="st8" points="233.3,118.5 235.1,119.5 241.3,116.5 239.5,115.5 				"/>
				<polygon class="st7" points="233.3,118.5 235.1,119.5 241.3,116.5 239.5,115.5 				"/>
				<polygon class="st7" points="234.1,118.4 235.4,119.1 241,116.3 239.7,115.6 				"/>
				<polygon class="st7" points="235.1,118.9 235.4,119.1 241,116.3 240.7,116.2 				"/>
				<polygon class="st7" points="234.8,118.8 235,118.9 240.6,116.2 240.4,116 				"/>
				<polygon class="st7" points="234.4,118.6 234.6,118.7 240.3,115.9 240,115.8 				"/>
				<polygon class="st7" points="234.1,118.4 234.3,118.5 239.9,115.8 239.7,115.6 				"/>
			</g>
			<polygon class="st10" points="241.3,116.5 235.1,119.5 235.1,128.8 241.3,125.8 			"/>
		</g>
		<g>
			<polygon class="st5" points="235.3,119.6 237.1,120.6 237.1,129.9 235.3,128.9 			"/>
			<polygon class="st5" points="243.3,117.6 237.1,120.6 237.1,129.9 243.3,126.9 			"/>
			<polygon class="st7" points="241.4,120.2 238.9,121.5 238.9,123.3 241.4,122.1 			"/>
			<polygon class="st5" points="235.3,119.6 237.1,120.6 243.3,117.6 241.5,116.6 			"/>
			<polygon class="st6" points="235.3,119.6 237.1,120.6 243.3,117.6 241.5,116.6 			"/>
			<polygon class="st7" points="236.1,119.5 237.4,120.2 243,117.5 241.7,116.7 			"/>
			<polygon class="st7" points="237.1,120 237.4,120.2 243,117.5 242.7,117.3 			"/>
			<polygon class="st7" points="236.8,119.9 237,120 242.6,117.3 242.4,117.1 			"/>
			<polygon class="st7" points="236.4,119.7 236.6,119.8 242.3,117.1 242,116.9 			"/>
			<polygon class="st7" points="236.1,119.5 236.3,119.6 241.9,116.9 241.7,116.7 			"/>
			<polygon class="st7" points="235.6,121.7 236.7,122.3 236.7,127.9 235.6,127.3 			"/>
		</g>
		<g>
			<polygon class="st13" points="237.3,120.7 239.1,121.7 239.1,131 237.3,130 			"/>
			<polygon class="st2" points="245.3,118.7 239.1,121.7 239.1,131 245.3,128 			"/>
			<polygon class="st7" points="243.4,121.3 240.9,122.6 240.9,124.4 243.4,123.2 			"/>
			<polygon class="st7" points="237.6,122.8 238.7,123.4 238.7,129 237.6,128.4 			"/>
			<polygon class="st13" points="237.3,120.7 239.1,121.7 245.3,118.7 243.5,117.7 			"/>
			<polygon class="st11" points="237.3,120.7 239.1,121.7 245.3,118.7 243.5,117.7 			"/>
			<polygon class="st7" points="238.1,120.6 239.4,121.3 245,118.6 243.7,117.8 			"/>
			<polygon class="st7" points="239.1,121.2 239.4,121.3 245,118.6 244.7,118.4 			"/>
			<polygon class="st7" points="238.8,121 239,121.1 244.6,118.4 244.4,118.2 			"/>
			<polygon class="st7" points="238.4,120.8 238.6,120.9 244.3,118.2 244,118 			"/>
			<polygon class="st7" points="238.1,120.6 238.3,120.7 243.9,118 243.7,117.8 			"/>
		</g>
		<polygon class="st14" points="235.3,119.6 237.1,120.6 237.1,129.9 235.3,128.9 		"/>
	</g>
	<g>
		<g>
			<polygon class="st2" points="212.4,106 214.1,107 214.1,116.4 212.4,115.4 			"/>
			<polygon class="st2" points="220.4,104 214.1,107 214.1,116.4 220.4,113.4 			"/>
			<polygon class="st7" points="218.5,106.7 216,107.9 216,109.7 218.5,108.5 			"/>
			<polygon class="st7" points="212.7,108.1 213.8,108.7 213.8,114.3 212.7,113.7 			"/>
			<polygon class="st2" points="212.4,106 214.1,107 220.4,104 218.6,103 			"/>
			<polygon class="st7" points="212.4,106 214.1,107 220.4,104 218.6,103 			"/>
			<polygon class="st7" points="213.2,105.9 214.4,106.6 220.1,103.9 218.8,103.2 			"/>
			<polygon class="st7" points="214.2,106.5 214.4,106.6 220.1,103.9 219.8,103.8 			"/>
			<polygon class="st7" points="213.9,106.3 214.1,106.4 219.7,103.7 219.5,103.6 			"/>
			<polygon class="st7" points="213.5,106.1 213.7,106.2 219.3,103.5 219.1,103.4 			"/>
			<polygon class="st7" points="213.2,105.9 213.4,106 219,103.3 218.8,103.2 			"/>
		</g>
		<polygon class="st6" points="220.4,104 214.1,107 214.1,116.4 220.4,113.4 		"/>
	</g>
	<g>
		<g>
			<polygon class="st8" points="214.4,107.1 216.1,108.1 216.1,117.4 214.4,116.4 			"/>
			<polygon class="st8" points="222.4,105.1 216.1,108.1 216.1,117.4 222.4,114.4 			"/>
			<polygon class="st7" points="220.5,107.8 218,109 218,110.8 220.5,109.6 			"/>
			<polygon class="st7" points="214.7,109.2 215.8,109.8 215.8,115.4 214.7,114.8 			"/>
			<polygon class="st8" points="214.4,107.1 216.1,108.1 222.4,105.1 220.6,104.1 			"/>
			<polygon class="st7" points="214.4,107.1 216.1,108.1 222.4,105.1 220.6,104.1 			"/>
			<polygon class="st7" points="215.2,107 216.4,107.7 222.1,105 220.8,104.3 			"/>
			<polygon class="st7" points="216.2,107.6 216.4,107.7 222.1,105 221.8,104.8 			"/>
			<polygon class="st7" points="215.9,107.4 216.1,107.5 221.7,104.8 221.5,104.6 			"/>
			<polygon class="st7" points="215.5,107.2 215.7,107.3 221.3,104.6 221.1,104.4 			"/>
			<polygon class="st7" points="215.2,107 215.4,107.1 221,104.4 220.8,104.3 			"/>
		</g>
		<polygon class="st10" points="222.4,105.1 216.1,108.1 216.1,117.4 222.4,114.4 		"/>
	</g>
	<g>
		<g>
			<polygon class="st8" points="240,142.2 241.8,143.2 241.8,152.5 240,151.5 			"/>
			<polygon class="st8" points="248,140.2 241.8,143.2 241.8,152.5 248,149.5 			"/>
			<polygon class="st7" points="246.1,142.8 243.6,144 243.6,145.9 246.1,144.6 			"/>
			<polygon class="st7" points="240.3,144.2 241.4,144.8 241.4,150.4 240.3,149.8 			"/>
			<polygon class="st8" points="240,142.2 241.8,143.2 248,140.2 246.2,139.2 			"/>
			<polygon class="st7" points="240,142.2 241.8,143.2 248,140.2 246.2,139.2 			"/>
			<polygon class="st7" points="240.8,142 242.1,142.7 247.7,140 246.4,139.3 			"/>
			<polygon class="st7" points="241.8,142.6 242.1,142.7 247.7,140 247.5,139.9 			"/>
			<polygon class="st7" points="241.5,142.4 241.7,142.5 247.3,139.8 247.1,139.7 			"/>
			<polygon class="st7" points="241.1,142.2 241.3,142.3 247,139.6 246.7,139.5 			"/>
			<polygon class="st7" points="240.8,142 241,142.1 246.6,139.4 246.4,139.3 			"/>
		</g>
		<polygon class="st10" points="248,140.2 241.8,143.2 241.8,152.5 248,149.5 		"/>
	</g>
	<g>
		<polygon class="st5" points="242,143.3 243.8,144.3 243.8,153.6 242,152.6 		"/>
		<polygon class="st5" points="250,141.3 243.8,144.3 243.8,153.6 250,150.6 		"/>
		<polygon class="st7" points="248.1,143.9 245.6,145.1 245.6,147 248.1,145.7 		"/>
		<polygon class="st5" points="242,143.3 243.8,144.3 250,141.3 248.2,140.3 		"/>
		<polygon class="st6" points="242,143.3 243.8,144.3 250,141.3 248.2,140.3 		"/>
		<polygon class="st7" points="242.8,143.1 244.1,143.8 249.7,141.1 248.4,140.4 		"/>
		<polygon class="st7" points="243.8,143.7 244.1,143.8 249.7,141.1 249.5,141 		"/>
		<polygon class="st7" points="243.5,143.5 243.7,143.6 249.3,140.9 249.1,140.8 		"/>
		<polygon class="st7" points="243.1,143.3 243.3,143.4 249,140.7 248.7,140.6 		"/>
		<polygon class="st7" points="242.8,143.1 243,143.2 248.6,140.5 248.4,140.4 		"/>
		<polygon class="st7" points="242.3,145.3 243.4,145.9 243.4,151.5 242.3,150.9 		"/>
	</g>
	<polygon class="st14" points="242,143.3 243.8,144.3 243.8,153.6 242,152.6 	"/>
	<g>
		<polygon class="st8" points="214.4,130.9 221.5,135.2 221.5,141.5 214.5,137.3 214.5,132.9 214.4,132.8 		"/>
		<polygon class="st10" points="214.4,130.9 221.5,135.2 221.5,141.5 214.5,137.3 214.5,132.9 214.4,132.8 		"/>
		<polygon class="st8" points="227.7,132.2 221.5,135.2 221.5,141.5 227.5,138.6 227.5,134 227.7,133.9 227.7,133.4 		"/>
		<polygon class="st6" points="215.1,134.2 220.7,137.5 220.7,140.3 215.1,136.9 		"/>
		<polygon class="st8" points="214.4,130.9 221.5,135.2 227.7,132.2 220.6,127.9 		"/>
		<polygon class="st11" points="214.4,130.9 221.5,135.2 227.7,132.2 220.6,127.9 		"/>
		<polygon class="st17" points="221.5,137.2 221.5,136.9 214.5,132.9 214.5,133.2 		"/>
		<polygon class="st11" points="227.7,132.2 221.5,135.2 221.5,141.5 227.5,138.6 227.5,134 227.7,133.9 227.7,133.4 		"/>
		<polygon class="st6" points="214.4,130.9 221.5,135.2 227.7,132.2 220.6,127.9 		"/>
		<polygon class="st17" points="221.5,137.2 221.5,136.9 227.5,134 227.5,134.2 		"/>
	</g>
	<g>
		<polygon class="st2" points="255.4,113.2 249,116.9 249,163.4 255.4,159.6 		"/>
		<polygon class="st6" points="255.4,113.2 249,116.9 249,163.4 255.4,159.6 		"/>
	</g>
	<g>
		<polygon class="st13" points="216.8,110.5 218.4,110.3 220.4,119 218.6,119 		"/>
		<polygon class="st2" points="224.6,107.3 218.4,110.3 220.4,119 226.6,116 		"/>
		<polygon class="st7" points="223.2,110 220.7,111.3 221.1,113.2 223.7,112 		"/>
		<polygon class="st7" points="217.4,111.6 218.3,111.5 219.7,117.5 218.7,117.5 		"/>
		<polygon class="st11" points="216.8,110.5 218.4,110.3 224.6,107.3 223,107.5 		"/>
		<polygon class="st6" points="217.4,110.3 218.3,110.2 224.1,107.3 223.2,107.5 		"/>
	</g>
	<g>
		<polygon class="st5" points="192.9,116.8 194.5,116.6 196.5,125.3 194.8,125.3 		"/>
		<polygon class="st5" points="200.7,113.6 194.5,116.6 196.5,125.3 202.8,122.3 		"/>
		<polygon class="st7" points="199.3,116.3 196.8,117.6 197.2,119.5 199.8,118.3 		"/>
		<polygon class="st5" points="192.9,116.8 194.5,116.6 200.7,113.6 199.1,113.8 		"/>
		<polygon class="st6" points="193.5,116.6 194.4,116.5 200.3,113.6 199.3,113.8 		"/>
		<polygon class="st14" points="192.9,116.8 194.5,116.6 196.5,125.3 194.8,125.3 		"/>
		<polygon class="st7" points="193.5,118 194.4,117.9 195.8,123.9 194.8,123.9 		"/>
		<polygon class="st6" points="192.9,116.8 194.5,116.6 200.7,113.6 199.1,113.8 		"/>
	</g>
	<g>
		<g>
			<polygon class="st2" points="197.9,117.4 199.7,118.4 199.7,127.7 197.9,126.7 			"/>
			<polygon class="st2" points="205.9,115.4 199.7,118.4 199.7,127.7 205.9,124.7 			"/>
			<polygon class="st7" points="204,118 201.5,119.2 201.5,121.1 204,119.8 			"/>
			<polygon class="st7" points="198.2,119.4 199.3,120 199.3,125.7 198.2,125.1 			"/>
			<polygon class="st2" points="197.9,117.4 199.7,118.4 205.9,115.4 204.1,114.4 			"/>
			<polygon class="st7" points="197.9,117.4 199.7,118.4 205.9,115.4 204.1,114.4 			"/>
			<polygon class="st7" points="198.7,117.2 200,117.9 205.6,115.2 204.3,114.5 			"/>
			<polygon class="st7" points="199.7,117.8 200,117.9 205.6,115.2 205.3,115.1 			"/>
			<polygon class="st7" points="199.4,117.6 199.6,117.7 205.2,115 205,114.9 			"/>
			<polygon class="st7" points="199,117.4 199.2,117.5 204.9,114.8 204.6,114.7 			"/>
			<polygon class="st7" points="198.7,117.2 198.9,117.4 204.5,114.6 204.3,114.5 			"/>
		</g>
		<polygon class="st6" points="205.9,115.4 199.7,118.4 199.7,127.7 205.9,124.7 		"/>
	</g>
	<g>
		<g>
			<polygon class="st8" points="199.9,118.5 201.7,119.5 201.7,128.8 199.9,127.8 			"/>
			<polygon class="st8" points="207.9,116.5 201.7,119.5 201.7,128.8 207.9,125.8 			"/>
			<polygon class="st7" points="206,119.1 203.5,120.3 203.5,122.2 206,120.9 			"/>
			<polygon class="st7" points="200.2,120.5 201.3,121.1 201.3,126.7 200.2,126.1 			"/>
			<polygon class="st8" points="199.9,118.5 201.7,119.5 207.9,116.5 206.1,115.5 			"/>
			<polygon class="st7" points="199.9,118.5 201.7,119.5 207.9,116.5 206.1,115.5 			"/>
			<polygon class="st7" points="200.7,118.3 202,119 207.6,116.3 206.3,115.6 			"/>
			<polygon class="st7" points="201.7,118.9 202,119 207.6,116.3 207.3,116.2 			"/>
			<polygon class="st7" points="201.4,118.7 201.6,118.8 207.2,116.1 207,116 			"/>
			<polygon class="st7" points="201,118.5 201.2,118.6 206.9,115.9 206.6,115.8 			"/>
			<polygon class="st7" points="200.7,118.3 200.9,118.5 206.5,115.7 206.3,115.6 			"/>
		</g>
		<polygon class="st10" points="207.9,116.5 201.7,119.5 201.7,128.8 207.9,125.8 		"/>
	</g>
	<g>
		<polygon class="st5" points="201.9,119.6 203.7,120.6 203.7,129.9 201.9,128.9 		"/>
		<polygon class="st5" points="209.9,117.6 203.7,120.6 203.7,129.9 209.9,126.9 		"/>
		<polygon class="st7" points="208,120.2 205.5,121.4 205.5,123.3 208,122 		"/>
		<polygon class="st5" points="201.9,119.6 203.7,120.6 209.9,117.6 208.1,116.6 		"/>
		<polygon class="st6" points="201.9,119.6 203.7,120.6 209.9,117.6 208.1,116.6 		"/>
		<polygon class="st7" points="202.7,119.4 204,120.1 209.6,117.4 208.3,116.7 		"/>
		<polygon class="st7" points="203.7,120 204,120.1 209.6,117.4 209.3,117.3 		"/>
		<polygon class="st7" points="203.4,119.8 203.6,119.9 209.2,117.2 209,117.1 		"/>
		<polygon class="st7" points="203,119.6 203.2,119.7 208.9,117 208.6,116.9 		"/>
		<polygon class="st7" points="202.7,119.4 202.9,119.6 208.5,116.8 208.3,116.7 		"/>
		<polygon class="st7" points="202.2,121.6 203.3,122.2 203.3,127.9 202.2,127.2 		"/>
	</g>
	<polygon class="st14" points="201.9,119.6 203.7,120.6 203.7,129.9 201.9,128.9 	"/>
	<polygon class="st7" points="203.7,120 204,120.1 209.6,117.4 209.3,117.3 	"/>
	<path class="st2" d="M189.8,82.6v46.5l59.2,34.3l0-46.5L189.8,82.6z M229.3,128.1l6.1,3.6l11.6,6.6l0.1,10.8l0,7.5l-17.8-10.2
		L229.3,128.1z M229.3,108.1l6.1,3.6l11.6,6.6l0.1,10.8l0,7.5l-17.8-10.2L229.3,108.1z M210.4,117.3l6.1,3.6l11.6,6.6l0.1,10.8
		l0,7.5l-17.8-10.2L210.4,117.3z M210.4,97.3l6.1,3.6l11.6,6.6l0.1,10.8l0,7.5l-17.8-10.2L210.4,97.3z M191.5,106.2l6.1,3.6
		l11.6,6.6l0.1,10.8l0,7.5l-17.8-10.2L191.5,106.2z M191.5,86.2l6.1,3.6l11.6,6.6l0.1,10.8l0,7.5l-17.8-10.2L191.5,86.2z"/>
	<g>
		<g>
			<g>
				<polygon class="st13" points="273.8,196.4 274.7,196.8 274.7,203 273.8,202.5 				"/>
			</g>
			<g>
				<line class="st13" x1="274.7" y1="196.8" x2="273.8" y2="196.4"/>
			</g>
			<polygon class="st8" points="275.8,201.9 275.7,196.4 274.7,196.8 274.7,203 			"/>
		</g>
		<g>
			<g>
				<g>
					<polygon class="st2" points="266.9,215.6 271.7,218.3 271.7,219.4 266.9,216.7 					"/>
				</g>
				<g>
					<polygon class="st2" points="266.9,215.6 271.7,218.3 276.4,215.5 271.5,212.8 					"/>
				</g>
				<polygon class="st13" points="276.4,215.5 271.7,218.3 271.7,219.4 276.4,216.6 				"/>
			</g>
			<g>
				<polygon class="st2" points="266.9,215.6 271.7,218.3 271.7,219.4 266.9,216.7 				"/>
			</g>
			<g class="st18">
				<polygon class="st19" points="266.9,215.6 271.7,218.3 276.4,215.5 271.5,212.8 				"/>
			</g>
			<polygon class="st2" points="276.4,215.5 271.7,218.3 271.7,219.4 276.4,216.6 			"/>
			<g class="st20">
				<polygon class="st19" points="266.9,215.6 271.7,218.3 271.7,219.4 266.9,216.7 				"/>
			</g>
		</g>
		<g>
			<polygon class="st13" points="270.8,208.6 271.7,209.2 271.7,216.1 270.8,215.5 			"/>
		</g>
		<polygon class="st8" points="272.8,208.5 271.7,209.2 271.7,216.1 272.8,215.4 		"/>
		<g>
			<g>
				<g>
					<polygon class="st2" points="263.8,203.6 271.6,208 271.6,209.7 263.8,205.3 					"/>
				</g>
				<g>
					<polygon class="st2" points="263.8,203.6 271.6,208 279.1,203.5 271.3,199.1 					"/>
				</g>
				<polygon class="st13" points="279.1,203.5 271.6,208 271.6,209.7 279.1,205.2 				"/>
			</g>
			<g>
				<polygon class="st2" points="263.8,203.6 271.6,208 271.6,209.7 263.8,205.3 				"/>
			</g>
			<g class="st18">
				<polygon class="st19" points="263.8,203.6 271.6,208 279.1,203.5 271.3,199.1 				"/>
			</g>
			<polygon class="st2" points="279.1,203.5 271.6,208 271.6,209.7 279.1,205.2 			"/>
			<g class="st20">
				<polygon class="st19" points="263.8,203.6 271.6,208 271.6,209.7 263.8,205.3 				"/>
			</g>
		</g>
		<g>
			<g>
				<polygon class="st2" points="279.5,192.6 278.4,193.3 278.4,201.1 279.5,200.4 				"/>
				<polygon class="st2" points="270.6,188.9 278.4,193.3 278.4,201.1 270.6,196.7 				"/>
			</g>
			<g>
				<polygon class="st2" points="279.5,192.6 278.4,193.3 278.4,201.1 279.5,200.4 				"/>
				<polygon class="st2" points="270.6,188.9 278.4,193.3 279.5,192.6 271.7,188.2 				"/>
			</g>
			<polygon class="st13" points="279.5,192.6 278.4,193.3 278.4,201.1 279.5,200.4 			"/>
			<polygon class="st7" points="270.6,188.9 278.4,193.3 279.5,192.6 271.7,188.2 			"/>
			<polygon class="st2" points="279.5,192.6 278.4,193.3 278.4,201.1 279.5,200.4 			"/>
			<polygon class="st6" points="270.6,188.9 278.4,193.3 278.4,201.1 270.6,196.7 			"/>
		</g>
	</g>
	<polygon class="st13" points="267.8,209.8 265.2,207.2 271.4,200.5 275.3,203.9 	"/>
	<polygon class="st13" points="265.1,206.4 263.3,204.5 269.1,198 272,200.5 	"/>
	<path class="st13" d="M271.3,183.6c-0.3,0-1.1,4.1-1.6,5.2c-0.6,1.5-0.7,0.3-1.2,1.7c-0.2,0.9-1,0.9-1.3,0.1
		c-0.3-0.9-0.5-2-0.5-2.3c0,0,1.4-1,1.4-2.9C268.3,181.8,271.3,183.6,271.3,183.6z"/>
	<polygon class="st13" points="246.8,192.1 243.1,192.1 243.1,182.5 247.2,185.6 	"/>
	<polygon class="st13" points="242.4,191.6 239.9,191.6 239.3,182.9 243.1,182.6 	"/>
	<path class="st13" d="M207.4,162.5L207.4,162.5c-1,0-1.8-0.8-1.8-1.8v-5.9c0-1,0.8-1.8,1.8-1.8l0,0c1,0,1.8,0.8,1.8,1.8l0,5.9
		C209.2,161.6,208.4,162.5,207.4,162.5z"/>
	<path class="st13" d="M211,164.2L211,164.2c-1,0-1.8-0.8-1.8-1.8v-5.9c0-1,0.8-1.8,1.8-1.8l0,0c1,0,1.8,0.8,1.8,1.8v5.9
		C212.9,163.4,212,164.2,211,164.2z"/>
	<g>
		<g>
			<g>
				<polygon class="st13" points="158.4,165.8 157.5,166.3 157.5,172.4 158.5,172 				"/>
			</g>
			<g>
				<line class="st13" x1="157.5" y1="166.3" x2="158.4" y2="165.8"/>
			</g>
			<polygon class="st8" points="156.5,171.4 156.5,165.8 157.5,166.3 157.5,172.4 			"/>
		</g>
		<g>
			<g>
				<g>
					<polygon class="st2" points="165.4,185.1 160.5,187.8 160.5,188.9 165.4,186.1 					"/>
				</g>
				<g>
					<polygon class="st2" points="165.4,185.1 160.5,187.8 155.8,185 160.7,182.2 					"/>
				</g>
				<polygon class="st13" points="155.8,185 160.5,187.8 160.5,188.9 155.8,186.1 				"/>
			</g>
			<g>
				<polygon class="st2" points="165.4,185.1 160.5,187.8 160.5,188.9 165.4,186.1 				"/>
			</g>
			<g class="st18">
				<polygon class="st19" points="165.4,185.1 160.5,187.8 155.8,185 160.7,182.2 				"/>
			</g>
			<polygon class="st2" points="155.8,185 160.5,187.8 160.5,188.9 155.8,186.1 			"/>
			<g class="st20">
				<polygon class="st19" points="165.4,185.1 160.5,187.8 160.5,188.9 165.4,186.1 				"/>
			</g>
		</g>
		<g>
			<polygon class="st13" points="161.4,178.1 160.5,178.7 160.5,185.5 161.4,184.9 			"/>
		</g>
		<polygon class="st8" points="159.5,178 160.5,178.7 160.5,185.5 159.5,184.8 		"/>
		<g>
			<g>
				<g>
					<polygon class="st2" points="168.4,173.1 160.6,177.5 160.6,179.2 168.4,174.8 					"/>
				</g>
				<g>
					<polygon class="st2" points="168.4,173.1 160.6,177.5 153.1,173 160.9,168.6 					"/>
				</g>
				<polygon class="st13" points="153.1,173 160.6,177.5 160.6,179.2 153.1,174.7 				"/>
			</g>
			<g>
				<polygon class="st2" points="168.4,173.1 160.6,177.5 160.6,179.2 168.4,174.8 				"/>
			</g>
			<g class="st18">
				<polygon class="st19" points="168.4,173.1 160.6,177.5 153.1,173 160.9,168.6 				"/>
			</g>
			<polygon class="st2" points="153.1,173 160.6,177.5 160.6,179.2 153.1,174.7 			"/>
			<g class="st20">
				<polygon class="st19" points="168.4,173.1 160.6,177.5 160.6,179.2 168.4,174.8 				"/>
			</g>
		</g>
		<g>
			<g>
				<polygon class="st2" points="152.8,162.1 153.9,162.8 153.9,170.5 152.8,169.8 				"/>
				<polygon class="st2" points="161.7,158.4 153.9,162.8 153.9,170.5 161.7,166.1 				"/>
			</g>
			<g>
				<polygon class="st2" points="152.8,162.1 153.9,162.8 153.9,170.5 152.8,169.8 				"/>
				<polygon class="st2" points="161.7,158.4 153.9,162.8 152.8,162.1 160.6,157.7 				"/>
			</g>
			<polygon class="st13" points="152.8,162.1 153.9,162.8 153.9,170.5 152.8,169.8 			"/>
			<polygon class="st7" points="161.7,158.4 153.9,162.8 152.8,162.1 160.6,157.7 			"/>
			<polygon class="st2" points="152.8,162.1 153.9,162.8 153.9,170.5 152.8,169.8 			"/>
			<polygon class="st6" points="161.7,158.4 153.9,162.8 153.9,170.5 161.7,166.1 			"/>
		</g>
	</g>
	<g>
		<polygon class="st2" points="177.5,94.8 116.3,128 116.3,180.7 177.5,147.5 		"/>
		<polyline class="st7" points="116.3,128 116.3,180.7 177.5,147.5 177.5,94.8 		"/>
	</g>
	<path class="st7" d="M177.5,94.3l-0.6,0.4l-60.6,33.7v0.3v0.6v16.4v0.8v7.8v0.8v7.9v0.8V180l0.7-0.4v-7.6l6.8-3.8v7.8l-7.5,4.2v0.8
		l45.3-25.3v0l0.5-0.3l15-8.4l0,0l0.5-0.3L177.5,94.3z M169.8,99.5l7.1-3.9l0,7.8l-7.1,3.9V99.5z M169.8,108.1l7.1-3.9l0,7.7
		l-7.1,3.9V108.1z M169.8,116.7l7.1-3.9l0,7.8l-7.1,4V116.7z M169.8,125.3l7.1-4l0,7.8l-7.1,4V125.3z M169.8,133.9l7.1-4l0,7.7
		l-7.2,4V133.9z M123.8,167.3l-6.8,3.8v-7.7l6.8-3.8V167.3z M123.8,158.7l-6.8,3.8v-7.9l6.8-3.8V158.7z M123.8,150l-6.8,3.8v-7.8
		l6.8-3.8V150z M123.8,141.4l-6.8,3.8v-7.7l6.8-3.8V141.4z M123.8,132.9l-6.8,3.8v-7.9l6.8-3.8V132.9z M131.3,171.7l-6.9,3.8l0.1,0
		v-7.8l6.8-3.8V171.7z M131.3,163.1l-6.8,3.8v-7.7l6.8-3.8V163.1z M131.3,154.5l-6.8,3.8v-7.8l6.8-3.8V154.5z M131.3,145.8l-6.8,3.8
		v-7.8l6.8-3.8V145.8z M131.3,137.2l-6.8,3.8v-7.7l6.8-3.8V137.2z M138.9,167.5l-6.8,3.8v-7.8l6.8-3.8V167.5z M138.9,158.9l-6.8,3.8
		v-7.7l6.8-3.8V158.9z M138.9,150.3l-6.8,3.8v-7.8l6.8-3.8V150.3z M138.9,141.6l-6.8,3.8v-7.8l6.8-3.8V141.6z M138.9,133l-6.8,3.8
		v-7.7l6.8-3.8V133z M138.9,124.5l-6.8,3.8v-7.8l-0.7,0.4v7.8l-6.8,3.8v-7.9l14.4-8V124.5z M146.4,163.2l-6.8,3.8v-7.8l6.8-3.8
		V163.2z M146.4,154.7l-6.8,3.8v-7.7l6.8-3.8V154.7z M146.4,146.1l-6.8,3.8v-7.8l6.8-3.8V146.1z M146.4,137.4l-6.8,3.8v-7.8l6.8-3.8
		V137.4z M146.4,128.8l-6.8,3.8v-7.7l6.8-3.8V128.8z M154,159l-6.8,3.8v-7.8l6.8-3.8V159z M154,150.4l-6.8,3.8v-7.7l6.8-3.8V150.4z
		 M154,141.9l-6.8,3.8v-7.8l6.8-3.8V141.9z M154,133.2l-6.8,3.8v-7.8l6.8-3.8V133.2z M154,124.6l-6.8,3.8v-7.7l6.8-3.8V124.6z
		 M154,116.1l-6.8,3.8v-7.7l-0.7,0.4v7.7l-6.8,3.8v-7.9l14.4-8V116.1z M161.5,154.8l-6.8,3.8v-7.7l6.8-3.8V154.8z M161.5,146.2
		l-6.8,3.8v-7.7l6.8-3.8V146.2z M161.5,137.7l-6.8,3.8v-7.8l6.8-3.8V137.7z M161.5,129l-6.8,3.8v-7.8l6.8-3.8V129z M161.5,120.4
		l-6.8,3.8v-7.7l6.8-3.8V120.4z M169.1,150.6l-6.8,3.8v-7.7l6.8-3.8V150.6z M169.1,142l-6.8,3.8v-7.7l6.8-3.8V142z M169.1,133.5
		l-6.8,3.8v-7.8l6.8-3.8V133.5z M169.1,124.8l-6.8,3.8v-7.8l6.8-3.8V124.8z M169.1,116.2l-6.8,3.8v-7.7l6.8-3.8V116.2z M169.1,107.6
		l-6.8,3.8v-7.6l-0.7,0.4v7.5l-6.8,3.8v-7.8l14.4-8V107.6z M169.8,150.2v-7.7l7.2-4l0,7.7L169.8,150.2z"/>
	<g>
		<g>
			<path class="st2" d="M170.9,154.9l-0.2,0.2c-0.6,0.8-0.4,2,0.4,2.6l6.3,4.5c0.8,0.6,2,0.4,2.6-0.4l0.2-0.2c0.6-0.8,0.4-2-0.4-2.6
				l-6.3-4.5C172.7,153.9,171.5,154.1,170.9,154.9z"/>
			<path class="st21" d="M170.9,154.9l-0.2,0.2c-0.6,0.8-0.4,2,0.4,2.6l6.3,4.5c0.8,0.6,2,0.4,2.6-0.4l0.2-0.2
				c0.6-0.8,0.4-2-0.4-2.6l-6.3-4.5C172.7,153.9,171.5,154.1,170.9,154.9z"/>
		</g>
		<g>
			<path class="st2" d="M177.2,161.8l0.2,0.2c0.7,0.7,1.9,0.7,2.6-0.1l5.3-5.6c0.7-0.7,0.7-1.9-0.1-2.6l-0.2-0.2
				c-0.7-0.7-1.9-0.7-2.6,0.1l-5.3,5.6C176.4,159.9,176.4,161.1,177.2,161.8z"/>
			<path class="st21" d="M177.2,161.8l0.2,0.2c0.7,0.7,1.9,0.7,2.6-0.1l5.3-5.6c0.7-0.7,0.7-1.9-0.1-2.6l-0.2-0.2
				c-0.7-0.7-1.9-0.7-2.6,0.1l-5.3,5.6C176.4,159.9,176.4,161.1,177.2,161.8z"/>
		</g>
		<path class="st13" d="M163.9,175.6l8.9-4.3c0.3-0.1,0.4-0.4,0.4-0.7v-17.3l-2.5-0.9c-2-0.7-4.2-0.2-5.6,1.3l-0.9,0.9
			c-1.2,1.3-1.9,3-1.9,4.8l0.5,15.4C162.8,175.5,163.4,175.8,163.9,175.6z"/>
		<path class="st5" d="M170.9,155l0.3,0.2c1.1,0.6,2.4,0.3,3.1-0.8l1.2-2.1c0.6-1.1,0.3-2.4-0.8-3.1l-0.3-0.2
			c-1.1-0.6-2.4-0.3-3.1,0.8l-1.2,2.1C169.5,153,169.9,154.4,170.9,155z"/>
		<path class="st5" d="M185.8,151.4c-0.8-0.5-1.9-0.2-2.4,0.7l-0.6,1.1c-0.2-0.1-0.3-0.1-0.5,0c-0.4,0.1-0.7,0.6-0.6,1
			c0.1,0.4,0.4,1.6,1.4,2c1,0.5,1.9,0.2,2.4-0.7l0.9-1.6C186.9,152.9,186.6,151.8,185.8,151.4z"/>
		<path class="st5" d="M174.2,162.7c-0.2-1-1.2-1.5-2.1-1.3l-1.2,0.3c-0.1-0.2-0.2-0.3-0.3-0.4c-0.4-0.2-0.9-0.1-1.1,0.3
			c-0.2,0.4-0.8,1.4-0.5,2.4c0.3,1,1.2,1.5,2.1,1.3l1.8-0.4C173.9,164.7,174.5,163.7,174.2,162.7z"/>
		<g>
			<path class="st2" d="M166.5,157.4l-1.6,5.3c0,0.2,0.1,0.3,0.2,0.3l3.8-0.7c1-0.2,2,0.5,2.2,1.5l0,0c0.2,1-0.5,2-1.5,2.2l-6.7,1.3
				c-1,0.2-1.9-0.4-2.2-1.3l0,0c-0.3-0.9-0.3-2,0-2.9l2.1-6.7c0.3-1,1.4-1.6,2.4-1.3h0C166.3,155.3,166.8,156.3,166.5,157.4z"/>
			<path class="st21" d="M166.5,157.4l-1.6,5.3c0,0.2,0.1,0.3,0.2,0.3l3.8-0.7c1-0.2,2,0.5,2.2,1.5l0,0c0.2,1-0.5,2-1.5,2.2
				l-6.7,1.3c-1,0.2-1.9-0.4-2.2-1.3l0,0c-0.3-0.9-0.3-2,0-2.9l2.1-6.7c0.3-1,1.4-1.6,2.4-1.3h0
				C166.3,155.3,166.8,156.3,166.5,157.4z"/>
		</g>
		<path class="st13" d="M176.5,149.7c0.3,0.9-0.2,1.1-0.8,1.1l-2.2-0.2c-1.4,0.2-2.5,2.5-2.5,2.5c-0.6,0-1.1-0.5-1.1-1.1
			c0,0,1.4-4.4,2-4.4C171.8,147.5,175.5,146.4,176.5,149.7z"/>
	</g>
	<path class="st2" d="M201.5,148.2L201.5,148.2c-0.7-0.7-0.7-1.9,0-2.6l1.9-1.9c0.7-0.7,1.9-0.7,2.6,0l0,0c0.7,0.7,0.7,1.9,0,2.6
		l-1.9,1.9C203.4,149,202.2,149,201.5,148.2z"/>
	<path class="st2" d="M212,157.2l-6.3-3c-0.2-0.1-0.3-0.3-0.3-0.5v-12.1l1.8-0.7c1.4-0.5,2.9-0.2,4,0.9l0.6,0.7
		c0.9,0.9,1.3,2.1,1.3,3.4l-0.3,10.8C212.8,157.1,212.4,157.4,212,157.2z"/>
	<path class="st5" d="M208.5,141.5l-0.4,0c-1.2,0.1-2.3-0.9-2.4-2.1l-0.2-2.5c-0.1-1.2,0.9-2.3,2.1-2.4l0.4,0
		c1.2-0.1,2.3,0.9,2.4,2.1l0.2,2.5C210.6,140.3,209.7,141.4,208.5,141.5z"/>
	<path class="st13" d="M205.8,133.4c-0.6-0.8-0.3,1.1,0.3,1.4l2.1,0.7c1.2,0.8,1.3,3.3,1.3,3.3c0.6,0.3,1.2,0,1.5-0.6
		c0,0,0.5-4.6,0-4.8C211,133.3,206.3,134,205.8,133.4z"/>
	<path class="st13" d="M205.1,139.1c0,1.6-0.4,3,1.4,3.3c3.4,0.4,2.5-3.4,2-3.7c0,0-1.4-0.5-2.4-0.4
		C205.5,138.3,205.1,138.8,205.1,139.1z"/>
	<polygon class="st5" points="170.5,210.8 171.8,211 173.1,200.6 171,200.1 	"/>
	<path class="st5" d="M169.5,204.6L169.5,204.6c0.3,0.6,0.9,0.8,1.5,0.5l4.3-2c0.6-0.3,0.8-0.9,0.5-1.5v0c-0.3-0.6-0.9-0.8-1.5-0.5
		l-4.3,2C169.5,203.4,169.2,204.1,169.5,204.6z"/>
	<path class="st5" d="M173.9,210.7c0,0.6,1.1,0.6,1.1,0.6l1-10c0-0.6-1.1-1.1-1.1-1.1c-0.7-0.1-1.5,1.3-1.5,2L173.9,210.7z"/>
	<g>
		<g>
			<g>
				<g>
					<polygon class="st2" points="161,217.6 165.9,220.4 165.9,221.4 161,218.7 					"/>
				</g>
				<g>
					<polygon class="st2" points="161,217.6 165.9,220.4 170.6,217.5 165.7,214.8 					"/>
				</g>
				<polygon class="st13" points="170.6,217.5 165.9,220.4 165.9,221.4 170.6,218.6 				"/>
			</g>
			<g>
				<polygon class="st2" points="161,217.6 165.9,220.4 165.9,221.4 161,218.7 				"/>
			</g>
			<g class="st18">
				<polygon class="st19" points="161,217.6 165.9,220.4 170.6,217.5 165.7,214.8 				"/>
			</g>
			<polygon class="st2" points="170.6,217.5 165.9,220.4 165.9,221.4 170.6,218.6 			"/>
			<g class="st20">
				<polygon class="st19" points="161,217.6 165.9,220.4 165.9,221.4 161,218.7 				"/>
			</g>
		</g>
		<g>
			<polygon class="st13" points="165,210.7 165.9,211.2 165.9,218.1 165,217.5 			"/>
		</g>
		<polygon class="st8" points="166.9,210.5 165.9,211.2 165.9,218.1 166.9,217.4 		"/>
		<g>
			<g>
				<g>
					<polygon class="st2" points="158,205.7 165.8,210 165.8,211.8 158,207.4 					"/>
				</g>
				<g>
					<polygon class="st2" points="158,205.7 165.8,210 173.3,205.5 165.5,201.1 					"/>
				</g>
				<polygon class="st13" points="173.3,205.5 165.8,210 165.8,211.8 173.3,207.3 				"/>
			</g>
			<g>
				<polygon class="st2" points="158,205.7 165.8,210 165.8,211.8 158,207.4 				"/>
			</g>
			<g class="st18">
				<polygon class="st19" points="158,205.7 165.8,210 173.3,205.5 165.5,201.1 				"/>
			</g>
			<polygon class="st2" points="173.3,205.5 165.8,210 165.8,211.8 173.3,207.3 			"/>
			<g class="st20">
				<polygon class="st19" points="158,205.7 165.8,210 165.8,211.8 158,207.4 				"/>
			</g>
		</g>
	</g>
	<path class="st2" d="M173.3,204.2l-4.1,2.5c-2.6,1.6-6,1.3-8-0.9c-1.1-1.2-1.7-2.7-1.7-4.2l0,0l9.1-3.3l4.8,3.5L173.3,204.2z"/>
	<g>
		<g>
			<polygon class="st13" points="157.7,190.2 156.6,190.9 156.6,205.7 157.7,205 			"/>
			<polygon class="st17" points="157.7,190.2 156.6,190.9 156.6,192.7 157.7,192 			"/>
			<polygon class="st13" points="155.5,190.2 156.6,190.9 156.6,205.7 155.5,205 			"/>
			<polygon class="st21" points="155.5,190.2 156.6,190.9 156.6,192.7 155.5,192.1 			"/>
			<polygon class="st6" points="155.5,190.2 156.6,190.9 156.6,205.7 155.5,205 			"/>
		</g>
		<g>
			<polygon class="st13" points="272,216.9 270.8,217.5 270.8,232.3 272,231.6 			"/>
			<polygon class="st17" points="272,216.9 270.8,217.5 270.8,219.3 272,218.6 			"/>
			<polygon class="st13" points="269.7,216.9 270.8,217.5 270.8,232.3 269.7,231.6 			"/>
			<polygon class="st21" points="269.7,216.9 270.8,217.5 270.8,219.3 269.7,218.7 			"/>
			<polygon class="st6" points="269.7,216.9 270.8,217.5 270.8,232.3 269.7,231.6 			"/>
		</g>
		<g>
			<polygon class="st13" points="236.8,234.1 235.7,234.8 235.7,249.5 236.8,248.8 			"/>
			<polygon class="st17" points="236.8,234.1 235.7,234.8 235.7,236.5 236.8,235.8 			"/>
			<polygon class="st13" points="234.6,234.1 235.7,234.8 235.7,249.5 234.6,248.8 			"/>
			<polygon class="st21" points="234.6,234.1 235.7,234.8 235.7,236.5 234.6,235.9 			"/>
			<polygon class="st6" points="234.6,234.1 235.7,234.8 235.7,249.5 234.6,248.8 			"/>
		</g>
		<path class="st13" d="M274.8,208.9l-3.5,5.9l-24.2,13.8l-12.9,3.5l0,2.8c6.8,0,13.1-3.6,13.1-3.6l24-13.7c2.8-1.6,3.5-5.1,3.5-5.1
			L274.8,208.9z"/>
		<path class="st13" d="M152.6,182.9l3.6,5.5l65,39.6l13,4.1l0,2.8c-7.3,0-13.1-4.1-13.1-4.1L155.9,191c0,0-3.5-2-3.3-5.3V182.9z"/>
		<path class="st13" d="M155.5,188l66.8,40.7c7.4,4.5,16.6,4.6,24.1,0.3l25-14.3c4.6-2.6,4.7-9.1,0.2-11.9l-70.1-42.8
			c-4.5-2.7-10.2-2.8-14.7-0.2l-31,17.7C151.7,179.9,151.6,185.6,155.5,188z"/>
		<path class="st7" d="M155.5,188l66.7,40.7c7.4,4.5,16.7,4.6,24.2,0.3l25-14.3c4.5-2.6,4.6-9.1,0.2-11.8l-70.1-42.8
			c-4.5-2.8-10.2-2.8-14.8-0.2l-30.9,17.7C151.7,179.9,151.6,185.6,155.5,188z"/>
	</g>
	<polygon class="st8" points="178.5,91.4 117.4,126.2 117.4,128.9 178.5,94.1 	"/>
	<polygon class="st8" points="176.3,90.6 115.2,125.3 117.4,126.2 178.5,91.4 	"/>
	<polygon class="st8" points="117.4,126.2 115.2,125.3 115.2,128 117.4,128.9 	"/>
	<polygon class="st7" points="176.3,90.6 115.2,125.3 117.4,126.2 178.5,91.4 	"/>
	<polygon class="st6" points="117.4,126.2 115.2,125.3 115.2,128 117.4,128.9 	"/>
	<polygon class="st5" points="146.4,133.8 139.1,137.9 139.1,129.5 146.4,125.3 	"/>
	<path class="st8" d="M169.2,212c0,0.1,0,0.1,0,0.2l0.7,0.5l0.6-0.6l0.4,1.5l2.4,2c0.2,0.1,0.4,0,0.4-0.2l-0.2-1
		c-0.4-1.7-1.3-3.2-2.6-4.3l0,0L169.2,212z"/>
	<path class="st5" d="M164.8,189.4l0.4,0.1c1.2,0.3,2.4-0.5,2.7-1.7l0.5-2.4c0.3-1.2-0.5-2.4-1.7-2.7l-0.4-0.1
		c-1.2-0.3-2.4,0.5-2.7,1.7l-0.5,2.4C162.8,187.9,163.5,189.1,164.8,189.4z"/>
	<g>
		<path class="st8" d="M172.7,212.7c0,0.1,0,0.1,0,0.2l0.7,0.5l0.6-0.6l0.4,1.5l2.4,2c0.2,0.1,0.4,0,0.4-0.2l-0.2-1
			c-0.4-1.7-1.3-3.2-2.6-4.3l0,0L172.7,212.7z"/>
		<path class="st10" d="M172.7,212.7c0,0.1,0,0.1,0,0.2l0.7,0.5l0.6-0.6l0.4,1.5l2.4,2c0.2,0.1,0.4,0,0.4-0.2l-0.2-1
			c-0.4-1.7-1.3-3.2-2.6-4.3l0,0L172.7,212.7z"/>
	</g>
	<path class="st8" d="M168.3,183.3c0.3,0.9-0.4,2-1,2l-0.6,3.7c-1.4,0.2-5-0.9-5-0.9c-0.3,0-0.5-0.6-0.5-1.3
		c-0.1-0.8,0.1-1.7,0.4-2.5c0.1-0.3,0.2-0.5,0.3-0.8c0.7-2.1,3.1-3.2,5-2.2C167.4,181.8,168,182.4,168.3,183.3z"/>
	<g>
		<polygon class="st8" points="131.6,145.7 124.2,149.8 124.2,141.3 131.6,137.2 		"/>
		<path class="st19" d="M129.2,140.2c-0.1,0-0.1,0.1-0.1,0.2v4.8l-0.3,0.2v-3.5c0-0.1-0.1-0.1-0.1-0.1l-1.5,0.8c0,0,0,0,0,0
			c-0.1,0-0.1,0.1-0.1,0.2v3.5l-0.3,0.2v-2.1c0-0.1-0.1-0.1-0.1-0.1l-1.5,0.8c0,0,0,0,0,0c-0.1,0-0.1,0.1-0.1,0.2v2.3
			c0,0.1,0.1,0.1,0.1,0.1l5.6-3.2c0.1,0,0.1-0.1,0.1-0.2v-4.9c0-0.1-0.1-0.1-0.1-0.1L129.2,140.2
			C129.2,140.1,129.2,140.1,129.2,140.2z M129.4,140.3l1.2-0.7v4.7l-1.2,0.7V140.3z M127.3,142.9l1.2-0.7v3.3l-1.2,0.7V142.9z
			 M125.2,145.4l1.2-0.7v2l-1.2,0.7V145.4z"/>
	</g>
	<g>
		<path class="st19" d="M144.7,128.6c-1.1-0.5-2.8,0.6-3.9,2.2s-1.1,3.4,0,3.9s2.8-0.6,3.9-2.2C145.8,130.8,145.8,129,144.7,128.6z
			 M144.4,128.9l-0.8,1.2c-0.2-0.1-0.6,0-0.9,0.2v-1.1l0,0C143.4,128.8,144,128.7,144.4,128.9z M143.6,130.4c0.4,0.2,0.4,0.9,0,1.6
			s-1.1,1.1-1.6,0.9c-0.4-0.2-0.4-0.9,0-1.6C142.4,130.6,143.1,130.2,143.6,130.4C143.6,130.4,143.6,130.4,143.6,130.4z M141,130.9
			c0.4-0.6,0.9-1.2,1.5-1.5v1.1c-0.3,0.2-0.5,0.5-0.7,0.8c-0.2,0.4-0.4,0.8-0.4,1.1l-1.1,0.5C140.4,132.2,140.6,131.6,141,130.9z
			 M144.5,132.4c-1,1.5-2.5,2.4-3.5,2c-0.4-0.2-0.7-0.6-0.7-1.3l1.1-0.5c0,0.3,0.2,0.5,0.4,0.6c0.5,0.2,1.4-0.3,2-1.1
			c0.5-0.8,0.5-1.6,0.1-1.9l0.8-1.2c0.4,0.2,0.6,0.7,0.6,1.3C145.3,130.9,145,131.6,144.5,132.4z"/>
	</g>
	<g>
		<polygon class="st2" points="140.2,155.5 130.9,160.8 130.9,150.5 140.2,145.2 		"/>
		<g>
			<path class="st19" d="M135.6,154.3c0.6-0.3,1.1-1.1,1.1-1.7c0-0.6-0.5-0.8-1.1-0.5c-0.6,0.3-1.1,1.1-1.1,1.7
				C134.5,154.5,135,154.6,135.6,154.3z M135.6,152.5c0.4-0.2,0.7-0.1,0.7,0.3s-0.3,0.9-0.7,1.2c-0.4,0.2-0.7,0.1-0.7-0.3
				C134.8,153.3,135.2,152.7,135.6,152.5z"/>
			<path class="st19" d="M136.9,153.8c0,0,0.1-0.1,0.1-0.1c0.1-0.1,0.1-0.2,0.1-0.3c0.1-0.1,0-0.2,0-0.2c-0.1,0-0.2,0.1-0.2,0.2
				c0,0.1-0.1,0.1-0.1,0.2c-0.1,0.1-0.1,0.2,0,0.2C136.8,153.8,136.9,153.8,136.9,153.8z"/>
			<path class="st19" d="M135.5,154.9c-0.1,0.1-0.3,0.1-0.4,0.2c-0.1,0-0.2,0.1-0.2,0.2c0,0.1,0,0.2,0.1,0.1c0.2,0,0.3-0.1,0.5-0.2
				c0,0,0,0,0,0c0.1,0,0.2-0.2,0.2-0.2C135.7,154.9,135.6,154.9,135.5,154.9z"/>
			<path class="st19" d="M136.4,154.2c-0.1,0.1-0.2,0.3-0.4,0.4c-0.1,0.1-0.1,0.2-0.1,0.3c0,0.1,0.1,0.1,0.2,0c0,0,0,0,0,0
				c0.2-0.1,0.3-0.3,0.4-0.4c0.1-0.1,0.1-0.2,0.1-0.2C136.6,154.1,136.5,154.1,136.4,154.2z"/>
			<path class="st19" d="M134.1,154.7c-0.1-0.1-0.1-0.2-0.1-0.3c0-0.1-0.1-0.1-0.2,0c-0.1,0.1-0.1,0.2-0.1,0.3
				c0,0.1,0.1,0.3,0.1,0.4c0,0,0.1,0,0.1,0c0,0,0,0,0.1,0C134.1,154.9,134.1,154.8,134.1,154.7z"/>
			<path class="st19" d="M133.8,154.1C133.8,154.1,133.8,154.1,133.8,154.1c0.1-0.1,0.2-0.1,0.2-0.2c0-0.1,0.1-0.3,0.1-0.4
				c0-0.1,0-0.2-0.1-0.2s-0.2,0.1-0.2,0.2c-0.1,0.2-0.1,0.4-0.1,0.5C133.7,154.1,133.7,154.1,133.8,154.1z"/>
			<path class="st19" d="M134.1,155.4c0.1,0.1,0.2,0.1,0.4,0.1c0,0,0.1,0,0.1,0c0.1,0,0.1-0.1,0.1-0.1c0.1-0.1,0-0.2,0-0.2
				c-0.1,0-0.2,0-0.3-0.1c-0.1,0-0.2,0-0.2,0.1C134.1,155.2,134.1,155.3,134.1,155.4z"/>
			<path class="st19" d="M135.6,149.4c-0.1,0-0.2,0.2-0.2,0.2v0.3c-0.7,0.4-1.3,1-1.8,1.6l-0.1-0.1c0,0,0,0,0,0v-0.6
				c0-0.1-0.1-0.1-0.2-0.1l-1.5,0.9c-0.1,0-0.2,0.2-0.2,0.2v0.6c0,0.1,0.1,0.1,0.2,0.1l1.3-0.8l0.2,0.2c-0.8,1.1-1.3,2.3-1.3,3.4
				l0,0l0,0c0,0,0,0,0,0c0,1.9,1.6,2.6,3.5,1.5c1.9-1.1,3.4-3.4,3.5-5.3l0.2-0.1c0.1,0,0.2-0.2,0.2-0.2
				C139.4,148.9,137.7,148.1,135.6,149.4z M132,151.7l1.2-0.7v0.3L132,152V151.7z M134,152.4l0.2,0.2c0,0,0,0.1-0.1,0.1
				c-0.1,0.1-0.1,0.2,0,0.2c0,0,0.1,0,0.1,0c0,0,0.1-0.1,0.1-0.1c0-0.1,0.1-0.1,0.1-0.2s0.1-0.2,0-0.2c0,0,0,0,0,0l-0.3-0.3
				c0.3-0.4,0.7-0.8,1.2-1.1v0.2c0,0.1,0.1,0.1,0.2,0.1c1.1-0.6,2-0.2,2,0.8c0,0.1,0.1,0.1,0.2,0.1l0.3-0.1
				c-0.1,1.3-1.1,2.9-2.4,3.6c-1.3,0.8-2.4,0.3-2.4-1C133.2,153.9,133.5,153.1,134,152.4z M135.4,150.2v0.5c-0.5,0.3-1,0.7-1.3,1.2
				l-0.2-0.2C134.3,151.1,134.8,150.6,135.4,150.2z M133.6,152l0.2,0.2c-0.5,0.8-0.9,1.6-0.9,2.4l-0.5,0.2
				C132.5,154,132.9,152.9,133.6,152z M135.6,156.4c-1.7,1-3.1,0.4-3.2-1.2l0.5-0.3c0.1,1.4,1.3,1.8,2.7,1c1.4-0.8,2.6-2.6,2.7-4.1
				l0.5-0.3C138.7,153.3,137.3,155.4,135.6,156.4z M137.8,151.8c-0.1-1.1-1-1.5-2.1-0.9v-1.3c1.8-1,3.3-0.4,3.4,1.4L137.8,151.8z"/>
		</g>
	</g>
	<g>
		<polygon class="st2" points="156.1,121.4 147.1,126.5 147.1,117.7 156.1,112.7 		"/>
		<g>
			<polygon class="st19" points="147.9,118.5 149,117.8 149,118.1 147.9,118.7 			"/>
			<polygon class="st19" points="147.9,119 149,118.3 149,118.6 147.9,119.2 			"/>
			<polygon class="st19" points="154.3,114.3 155.4,113.7 155.4,113.9 154.3,114.6 			"/>
			<polygon class="st19" points="154.3,114.8 155.4,114.2 155.4,114.4 154.3,115.1 			"/>
			<path class="st19" d="M154.7,115l-0.4,0.5c-0.6-0.3-1.3-0.2-2.2,0.3c-0.1,0-0.1,0.1-0.1,0.2v2.9c0,0.1,0.1,0.1,0.1,0.1l2.9-1.7
				c0.1,0,0.1-0.1,0.1-0.2c0-0.7-0.2-1.2-0.7-1.5l0.4-0.5L154.7,115z M154.9,117.1l-2.6,1.5V116c0.7-0.4,1.4-0.5,1.8-0.2l-0.4,0.6
				l0.1,0.1l0.4-0.6C154.6,116.1,154.9,116.5,154.9,117.1z"/>
			<polygon class="st19" points="154.3,120.1 155.4,119.4 155.4,119.7 154.3,120.3 			"/>
			<polygon class="st19" points="154.3,120.6 155.4,119.9 155.4,120.2 154.3,120.8 			"/>
			<path class="st19" d="M154.7,119.5l0.1-0.3l-0.4-0.1c0.2-0.5,0.2-0.9,0.2-1.3c0-0.1-0.1-0.1-0.1-0.1l-2.7,1.6v-2.7
				c0-0.1-0.1-0.1-0.1-0.1c-1,0.6-1.9,1.6-2.5,2.8l-0.7-0.2l-0.2,0.3l0.7,0.2c-0.8,1.9-0.3,3.4,1.1,3.4c1.4,0,3.3-1.6,4.1-3.5
				c0,0,0-0.1,0-0.1L154.7,119.5z M151.6,122.3c-1.5,0.9-2.7,0.4-2.7-1.2c0-0.5,0.1-1,0.3-1.5l0.3,0.1l0.2-0.3l-0.4-0.1
				c0.5-1,1.3-1.9,2.2-2.5v2.7c0,0,0,0.1,0,0.1l1.9,0.8C153,121.3,152.3,121.9,151.6,122.3z M154.1,119.4c-0.1,0.3-0.2,0.6-0.4,0.8
				l-1.7-0.7l2.4-1.4c0,0.3-0.1,0.7-0.2,1l-0.3-0.1l-0.1,0.3L154.1,119.4z"/>
			<polygon class="st19" points="150.3,123.9 150.5,123.7 150.5,124 150.3,124.1 			"/>
			<polygon class="st19" points="150.8,123.6 151,123.4 151,123.7 150.8,123.8 			"/>
			<polygon class="st19" points="151.3,123.3 151.5,123.1 151.5,123.4 151.3,123.5 			"/>
			<polygon class="st19" points="151.8,123 152,122.8 152,123.1 151.8,123.2 			"/>
			<polygon class="st19" points="152.3,122.7 152.5,122.6 152.5,122.8 152.3,123 			"/>
			<polygon class="st19" points="152.8,122.4 153,122.3 153,122.5 152.8,122.7 			"/>
			<polygon class="st19" points="147.9,124 149,123.3 149,123.6 147.9,124.2 			"/>
			<polygon class="st19" points="147.9,124.5 148.8,124 148.8,124.2 147.9,124.7 			"/>
			<polygon class="st19" points="147.9,123.5 149,122.8 149,123.1 147.9,123.7 			"/>
		</g>
	</g>
	<g>
		<polygon class="st5" points="154.4,139.2 147.1,143.2 147.1,134.1 154.4,130 		"/>
		<g>
			<polygon class="st19" points="150.2,135.7 148.8,136.5 148.8,136.2 149.9,135.6 149.9,134.6 150.2,134.4 			"/>
			<path class="st19" d="M151.9,139.4l-3.2,1.8v-4.9l0.6-1l0.5-0.9l3.5-2v5.1l-0.4-0.6L151.9,139.4z M149,140.8l2.7-1.6l1-2.3
				c0.1-0.1,0.2-0.3,0.3-0.2V133l-3.1,1.8l-0.4,0.7l-0.5,0.8V140.8z"/>
			<polygon class="st19" points="148.8,140.4 147.9,140.9 147.9,134.9 152.5,132.2 152.5,133.1 152.2,133.2 152.2,132.7 148.2,135 
				148.2,140.5 148.8,140.2 			"/>
			<polygon class="st19" points="150.6,135 152.5,133.9 152.5,134.2 150.6,135.3 			"/>
			<polygon class="st19" points="149.4,136.4 152.5,134.6 152.5,134.9 149.4,136.7 			"/>
			<polygon class="st19" points="149.4,137 152.5,135.2 152.5,135.5 149.4,137.3 			"/>
			<polygon class="st19" points="149.4,137.6 152.5,135.8 152.5,136.1 149.4,137.9 			"/>
			<polygon class="st19" points="149.4,138.2 152.5,136.4 152.5,136.7 149.4,138.5 			"/>
			<path class="st19" d="M154,138.5l-2.3,1.3c-0.1,0-0.1,0-0.2,0c0,0,0-0.1,0-0.2l1.1-2.7c0-0.1,0.1-0.2,0.2-0.2s0.1,0,0.2,0
				l1.1,1.4c0,0,0,0.1,0,0.2C154.1,138.4,154,138.5,154,138.5z M153.9,138.4L153.9,138.4L153.9,138.4z M151.9,139.4l1.9-1.1l-1-1.2
				L151.9,139.4z M151.7,139.5L151.7,139.5L151.7,139.5z"/>
			<polygon class="st19" points="152.7,137.7 153,137.6 153,138.3 152.7,138.5 			"/>
			<polygon class="st19" points="152.7,138.6 153,138.5 153,138.7 152.7,138.9 			"/>
		</g>
	</g>
	<g>
		<polygon class="st13" points="169.3,142.1 162,146.2 162,138 169.3,134 		"/>
		<g>
			<g>
				<g>
					<path class="st19" d="M168.3,136.8l-1-0.4c0,0-0.1,0-0.1,0l-3.4,2c-0.2,0.1-0.3,0.4-0.3,0.5v0.2c-0.6,0.5-1,1.3-1,2
						c0,0.1,0.1,0.1,0.1,0l1.4-0.8c0.1,0,0.1-0.1,0.1-0.2v-1.4c0-0.1-0.1-0.1-0.1,0c-0.1,0.1-0.2,0.1-0.3,0.2v-0.2
						c0-0.1,0.1-0.1,0.1-0.2l3.3-1.9v0.7c0,0.2,0.2,0.3,0.3,0.1l0.7-0.4v4.3c0,0.1-0.1,0.1-0.1,0.2l-4.2,2.4c-0.1,0-0.1,0-0.1,0v-1
						c0-0.1-0.1-0.1-0.1,0c-0.1,0-0.1,0.1-0.1,0.2v1c0,0.2,0.2,0.3,0.3,0.1l4.2-2.4c0.2-0.1,0.3-0.4,0.3-0.5L168.3,136.8
						C168.4,136.8,168.4,136.8,168.3,136.8z M163.9,138.9v1.2l-1.2,0.7C162.8,140.1,163.3,139.4,163.9,138.9z M167.4,137.2
						c-0.1,0-0.1,0-0.1,0v-0.5l0.7,0.3L167.4,137.2z"/>
				</g>
			</g>
			<g>
				<g>
					<path class="st19" d="M163.6,142.5C163.6,142.4,163.6,142.5,163.6,142.5c-0.1,0-0.1,0.1-0.2,0.1c0,0,0,0.1,0,0.1
						c0,0,0,0.1,0,0.1c0,0,0.1,0,0.1,0c0,0,0.1,0,0.1-0.1C163.7,142.6,163.7,142.5,163.6,142.5C163.7,142.5,163.7,142.5,163.6,142.5
						z"/>
				</g>
			</g>
			<g>
				<g>
					<path class="st19" d="M164.4,138.8c-0.1,0-0.1,0.1-0.1,0.2v1.3L163,141c-0.1,0-0.1,0.1-0.1,0.2c0,0.8,0.7,1.1,1.5,0.6
						c0.8-0.5,1.5-1.6,1.5-2.4S165.2,138.3,164.4,138.8z M164.5,139c0.3-0.1,0.5-0.2,0.7-0.1l-0.7,1.1V139z M164.4,141.6
						c-0.7,0.4-1.2,0.2-1.3-0.4l1.3-0.7c0,0,0.1,0,0.1-0.1c0,0,0,0,0,0l0.9-1.4c0.2,0.1,0.3,0.3,0.3,0.7
						C165.7,140.3,165.1,141.2,164.4,141.6z"/>
				</g>
			</g>
			<g>
				<g>
					<path class="st19" d="M167.5,139.8c-0.2,0.1-0.3,0.4-0.3,0.5c0,0,0,0.1,0,0.1l-0.7,1c0,0-0.1,0-0.2,0.1c-0.1,0-0.1,0.1-0.1,0.1
						l-0.4-0.2c0,0,0-0.1,0-0.1c0-0.2-0.2-0.3-0.3-0.1s-0.3,0.4-0.3,0.5c0,0.1,0,0.1,0,0.1l-0.4,0.7c0,0-0.1,0-0.1,0.1
						c-0.2,0.1-0.3,0.4-0.3,0.5s0.2,0.3,0.3,0.1c0.2-0.1,0.3-0.4,0.3-0.5c0-0.1,0-0.1,0-0.1l0.4-0.7c0,0,0.1,0,0.2-0.1
						c0.1,0,0.1-0.1,0.2-0.1l0.4,0.2c0,0.1,0,0.1,0,0.2c0,0.2,0.2,0.3,0.3,0.1s0.3-0.4,0.3-0.5c0-0.1,0-0.1,0-0.1l0.7-1
						c0,0,0.1,0,0.2-0.1c0.2-0.1,0.3-0.4,0.3-0.5S167.7,139.7,167.5,139.8z M164.6,143c-0.1,0-0.1,0-0.1,0c0-0.1,0.1-0.1,0.1-0.2
						c0,0,0.1,0,0.1,0c0,0,0,0,0,0c0,0,0,0,0,0c0,0,0,0,0,0.1C164.7,142.9,164.7,143,164.6,143z M165.5,141.7c-0.1,0-0.1,0-0.1,0
						c0-0.1,0.1-0.1,0.1-0.2c0.1,0,0.1,0,0.1,0S165.5,141.6,165.5,141.7z M166.4,142c-0.1,0-0.1,0-0.1,0c0-0.1,0.1-0.1,0.1-0.2
						c0.1,0,0.1,0,0.1,0C166.5,141.9,166.4,142,166.4,142z M167.5,140.2c-0.1,0-0.1,0-0.1,0s0.1-0.1,0.1-0.2c0.1,0,0.1,0,0.1,0
						C167.6,140.1,167.6,140.2,167.5,140.2z"/>
				</g>
			</g>
			<g>
				<g>
					<path class="st19" d="M166.9,139.2l-0.6,0.4c-0.1,0-0.1,0.1-0.1,0.2s0.1,0.1,0.1,0l0.6-0.4c0.1,0,0.1-0.1,0.1-0.2
						C167.1,139.2,167,139.1,166.9,139.2z"/>
				</g>
			</g>
			<g>
				<g>
					<path class="st19" d="M167.5,138.9C167.5,138.9,167.5,138.9,167.5,138.9c-0.1,0-0.1,0.1-0.2,0.1c0,0,0,0.1,0,0.1
						c0,0,0,0.1,0,0.1c0,0,0.1,0,0.1,0c0,0,0.1,0,0.1-0.1C167.6,139,167.6,139,167.5,138.9C167.6,138.9,167.6,138.9,167.5,138.9z"/>
				</g>
			</g>
			<g>
				<g>
					<path class="st19" d="M167.7,137.6l-1.4,0.8c-0.1,0-0.1,0.1-0.1,0.2c0,0.1,0.1,0.1,0.1,0l1.4-0.8c0.1,0,0.1-0.1,0.1-0.2
						S167.8,137.6,167.7,137.6z"/>
				</g>
			</g>
			<g>
				<g>
					<path class="st19" d="M167.7,138.2l-1.4,0.8c-0.1,0-0.1,0.1-0.1,0.2c0,0.1,0.1,0.1,0.1,0l1.4-0.8c0.1,0,0.1-0.1,0.1-0.2
						C167.9,138.2,167.8,138.1,167.7,138.2z"/>
				</g>
			</g>
		</g>
	</g>
	<g>
		<polygon class="st2" points="177,127.4 169.8,131.4 169.8,123 177,119.1 		"/>
		<g>
			<g>
				<g>
					<path class="st19" d="M175.9,126.4l-5.1,2.9c-0.1,0-0.1,0.1-0.1,0.2c0,0.1,0,0.1,0.1,0l5.1-2.9c0.1,0,0.1-0.1,0.1-0.2
						C176,126.4,176,126.4,175.9,126.4z"/>
				</g>
			</g>
			<g>
				<g>
					<path class="st19" d="M171.7,127.5l-0.7,0.4c-0.1,0-0.1,0.1-0.1,0.2v1.3c0,0.1,0,0.1,0.1,0l0.7-0.4c0.1,0,0.1-0.1,0.1-0.2v-1.3
						C171.8,127.5,171.8,127.5,171.7,127.5z M171.6,128.9l-0.4,0.3v-1.1l0.4-0.3L171.6,128.9L171.6,128.9z"/>
				</g>
			</g>
			<g>
				<g>
					<path class="st19" d="M173,125.7l-0.7,0.4c-0.1,0-0.1,0.1-0.1,0.2v2.4c0,0.1,0,0.1,0.1,0l0.7-0.4c0.1,0,0.1-0.1,0.1-0.2v-2.4
						C173.1,125.7,173.1,125.6,173,125.7z M172.9,128.2l-0.4,0.3v-2.2l0.4-0.3V128.2L172.9,128.2z"/>
				</g>
			</g>
			<g>
				<g>
					<path class="st19" d="M174.4,125.3l-0.7,0.4c-0.1,0-0.1,0.1-0.1,0.2v2c0,0.1,0,0.1,0.1,0l0.7-0.4c0.1,0,0.1-0.1,0.1-0.2v-2
						C174.5,125.3,174.4,125.3,174.4,125.3z M174.2,127.4l-0.4,0.3v-1.8l0.4-0.3V127.4z"/>
				</g>
			</g>
			<g>
				<g>
					<path class="st19" d="M175.7,123.2l-0.7,0.4c-0.1,0-0.1,0.1-0.1,0.2v3.3c0,0.1,0,0.1,0.1,0l0.7-0.4c0.1,0,0.1-0.1,0.1-0.2v-3.3
						C175.8,123.2,175.7,123.2,175.7,123.2z M175.6,126.6l-0.4,0.3v-3.1l0.4-0.3V126.6z"/>
				</g>
			</g>
			<g>
				<g>
					<path class="st19" d="M171.4,126c-0.2,0.1-0.4,0.5-0.4,0.7s0.2,0.3,0.4,0.2s0.4-0.5,0.4-0.7S171.6,125.8,171.4,126z
						 M171.4,126.6c-0.1,0.1-0.2,0-0.2-0.1c0-0.1,0.1-0.3,0.2-0.3c0.1-0.1,0.2,0,0.2,0.1S171.5,126.6,171.4,126.6z"/>
				</g>
			</g>
			<g>
				<g>
					<path class="st19" d="M172.7,124.1c-0.2,0.1-0.4,0.5-0.4,0.7c0,0.2,0.2,0.3,0.4,0.2s0.4-0.5,0.4-0.7
						C173.1,124,172.9,123.9,172.7,124.1z M172.7,124.8c-0.1,0.1-0.2,0-0.2-0.1c0-0.1,0.1-0.3,0.2-0.3s0.2,0,0.2,0.1
						C172.9,124.5,172.8,124.7,172.7,124.8z"/>
				</g>
			</g>
			<g>
				<g>
					<path class="st19" d="M174,123.8c-0.2,0.1-0.4,0.5-0.4,0.7s0.2,0.3,0.4,0.2s0.4-0.5,0.4-0.7S174.3,123.6,174,123.8z M174,124.4
						c-0.1,0.1-0.2,0-0.2-0.1c0-0.1,0.1-0.3,0.2-0.3c0.1-0.1,0.2,0,0.2,0.1C174.2,124.2,174.1,124.4,174,124.4z"/>
				</g>
			</g>
			<g>
				<g>
					<path class="st19" d="M175.3,121.7c-0.2,0.1-0.4,0.5-0.4,0.7s0.2,0.3,0.4,0.2c0.2-0.1,0.4-0.5,0.4-0.7S175.6,121.5,175.3,121.7
						z M175.3,122.3c-0.1,0.1-0.2,0-0.2-0.1c0-0.1,0.1-0.3,0.2-0.3c0.1-0.1,0.2,0,0.2,0.1S175.5,122.3,175.3,122.3z"/>
				</g>
			</g>
			<g>
				<g>
					<path class="st19" d="M175.2,122.4c0,0-0.1,0-0.2,0.1l-0.9,1.4c0,0.1,0,0.1,0,0.2c0,0,0,0,0.1,0c0,0,0.1,0,0.1-0.1l0.9-1.4
						C175.2,122.4,175.2,122.4,175.2,122.4z"/>
				</g>
			</g>
			<g>
				<g>
					<path class="st19" d="M173.8,124.1l-0.7,0.2c-0.1,0-0.1,0.1-0.1,0.2c0,0.1,0,0.1,0.1,0.1l0.7-0.2c0,0,0,0,0,0
						C173.8,124.3,173.8,124.3,173.8,124.1C173.8,124.1,173.8,124.1,173.8,124.1z"/>
				</g>
			</g>
			<g>
				<g>
					<path class="st19" d="M172.5,124.8c0,0-0.1,0-0.2,0.1l-0.8,1.1c0,0.1-0.1,0.1,0,0.2c0,0,0.1,0,0.1,0c0,0,0,0,0.1-0.1l0.8-1.1
						C172.6,124.9,172.6,124.8,172.5,124.8z"/>
				</g>
			</g>
		</g>
	</g>
	<g>
		<g>
			<polygon class="st8" points="176.4,190.9 176.4,182.4 187.2,188.7 187.2,197.2 			"/>
			<polygon class="st8" points="187.2,188.7 187.7,188.4 187.7,196.9 187.2,197.2 			"/>
			<polygon class="st8" points="187.2,188.7 176.4,182.4 176.9,182.1 187.7,188.4 			"/>
			<polygon class="st11" points="187.2,188.7 176.4,182.4 176.9,182.1 187.7,188.4 			"/>
			<polygon class="st10" points="187.2,188.7 187.7,188.4 187.7,196.9 187.2,197.2 			"/>
		</g>
		<g>
			<polygon class="st13" points="177,190.4 177,183.6 186.5,189.2 186.5,196 			"/>
		</g>
	</g>
	<g>
		<polygon class="st8" points="182.3,199.3 182.3,200.1 187,197.7 187,196.8 		"/>
		<polygon class="st8" points="182.3,199.3 171.6,192.7 171.3,193.3 182.3,200.1 		"/>
		<g>
			<g>
				<polygon class="st8" points="176.1,190.2 171.6,192.7 182.3,199.3 187,196.8 				"/>
				<g>
					<polygon class="st2" points="182.1,196.5 182.8,197 182.1,197.3 181.5,196.9 					"/>
					<polygon class="st2" points="181.1,195.9 181.8,196.4 181.2,196.7 180.5,196.3 					"/>
					<polygon class="st2" points="181.2,197.1 181.8,197.5 181.2,197.8 180.5,197.4 					"/>
					<polygon class="st2" points="180.2,196.5 180.9,196.9 180.3,197.2 179.6,196.8 					"/>
					<polygon class="st2" points="180.2,195.3 181.1,195.9 180.5,196.3 179.5,195.7 					"/>
					<polygon class="st2" points="178.2,194.1 178.9,194.6 178.3,194.9 177.6,194.5 					"/>
					<polygon class="st2" points="177.3,193.5 178,194 177.3,194.3 176.7,193.9 					"/>
					<polygon class="st2" points="175.5,193.5 178.5,195.4 177.9,195.7 174.9,193.8 					"/>
					<polygon class="st2" points="176.3,192.9 177,193.4 176.4,193.7 175.7,193.3 					"/>
					<polygon class="st2" points="175.4,192.3 176,192.8 175.4,193.1 174.7,192.7 					"/>
					<polygon class="st2" points="174.4,192.9 175.1,193.3 174.5,193.7 173.8,193.2 					"/>
					<polygon class="st2" points="173.4,192.3 174.1,192.7 173.5,193.1 172.8,192.7 					"/>
					<polygon class="st2" points="174.4,191.7 175.1,192.2 174.5,192.5 173.8,192.1 					"/>
					<polygon class="st2" points="183,196.1 183.7,196.5 183.1,196.8 182.4,196.4 					"/>
					<polygon class="st2" points="182.1,195.5 182.7,195.9 181.8,196.4 181.1,195.9 					"/>
					<polygon class="st2" points="181.1,194.9 181.8,195.3 181.2,195.6 180.5,195.2 					"/>
					<polygon class="st2" points="180.2,194.3 180.8,194.7 180.2,195 179.5,194.6 					"/>
					<polygon class="st2" points="179.2,193.7 179.9,194.1 179.2,194.4 178.6,194 					"/>
					<polygon class="st2" points="178.2,193.1 178.9,193.5 178.3,193.8 177.6,193.4 					"/>
					<polygon class="st2" points="177.3,192.5 177.9,192.9 177.3,193.2 176.7,192.8 					"/>
					<polygon class="st2" points="176.3,191.9 177,192.3 176.4,192.6 175.7,192.2 					"/>
					<polygon class="st2" points="175.4,191.3 176,191.7 175.4,192 174.7,191.6 					"/>
					<polygon class="st2" points="184,195.6 184.7,196 184,196.3 183.4,195.9 					"/>
					<polygon class="st2" points="183.1,197.2 183.8,197.6 183.2,197.9 182.5,197.5 					"/>
					<polygon class="st2" points="182.2,197.7 182.9,198.1 182.2,198.5 181.6,198 					"/>
					<polygon class="st2" points="184.1,196.7 184.7,197.1 184.1,197.4 183.4,197 					"/>
					<polygon class="st2" points="185,196.2 185.7,196.6 185.1,197 184.4,196.6 					"/>
					<polygon class="st2" points="183,195 183.7,195.4 183.1,195.7 182.4,195.3 					"/>
					<polygon class="st2" points="182.1,194.4 182.7,194.8 182.1,195.1 181.4,194.7 					"/>
					<polygon class="st2" points="181.1,193.8 181.8,194.2 181.2,194.5 180.5,194.1 					"/>
					<polygon class="st2" points="180.1,193.2 180.8,193.6 180.2,193.9 179.5,193.5 					"/>
					<polygon class="st2" points="179.2,192.6 179.9,193 179.2,193.3 178.6,192.9 					"/>
					<polygon class="st2" points="178.2,192 178.9,192.4 178.3,192.7 177.6,192.3 					"/>
					<polygon class="st2" points="177.3,191.4 177.9,191.8 177.3,192.1 176.6,191.7 					"/>
					<polygon class="st2" points="176.3,190.8 177,191.2 176.4,191.5 175.7,191.1 					"/>
				</g>
			</g>
			<polygon class="st14" points="182.3,199.3 182.3,200.1 187,197.7 187,196.8 			"/>
			<polygon class="st11" points="182.3,199.3 171.6,192.7 171.3,193.3 182.3,200.1 			"/>
		</g>
	</g>
	<g>
		<rect x="164.5" y="193" transform="matrix(0.5 0.866 -0.866 0.5 252.053 -48.8297)" class="st13" width="7.6" height="1.7"/>
		<path class="st13" d="M165.7,197.8l1.5-7.7l-4.4-2.1c-1.1-0.5-2.4,0.3-2.3,1.6l0.7,6.7l-2.3,5.7l8,3.8L165.7,197.8z"/>
		<rect x="169.5" y="195.8" class="st13" width="7.6" height="1.7"/>
		<path class="st10" d="M170.5,195.8l-3.3-5.7l-4.4-2.1c-1.1-0.5-2.4,0.3-2.3,1.6l0.7,6.7l-2.3,5.7l8,3.8l-1.1-8.1l1-5.1l2.8,4.8
			l0,0v0h7.6v-1.7H170.5z"/>
	</g>
	<path class="st5" d="M180.3,195.5c-0.3-0.6-1-0.9-1.6-0.5l-0.8,0.5c-0.1-0.1-0.1-0.2-0.3-0.2c-0.3-0.1-0.6,0.1-0.8,0.4c0,0,0,0,0,0
		c-0.5,1.4,1,2.6,2.3,1.9l0.5-0.3C180.3,197,180.6,196.2,180.3,195.5z"/>
	<g>
		<g>
			<g>
				<polygon class="st2" points="165.3,197.8 164.2,198.4 164.2,206.2 165.3,205.5 				"/>
				<polygon class="st2" points="156.4,194.1 164.2,198.4 164.2,206.2 156.4,201.8 				"/>
			</g>
			<g>
				<polygon class="st2" points="165.3,197.8 164.2,198.4 164.2,206.2 165.3,205.5 				"/>
				<polygon class="st2" points="156.4,194.1 164.2,198.4 165.3,197.8 157.5,193.4 				"/>
			</g>
			<polygon class="st13" points="165.3,197.8 164.2,198.4 164.2,206.2 165.3,205.5 			"/>
			<polygon class="st7" points="156.4,194.1 164.2,198.4 165.3,197.8 157.5,193.4 			"/>
			<polygon class="st2" points="165.3,197.8 164.2,198.4 164.2,206.2 165.3,205.5 			"/>
			<polygon class="st6" points="156.4,194.1 164.2,198.4 164.2,206.2 156.4,201.8 			"/>
		</g>
		<g>
			<polygon class="st13" points="160.8,209 161.8,209.5 160.8,210.1 			"/>
			<g>
				<polygon class="st13" points="159.8,198.6 160.8,199.1 159.8,201.5 158.9,201.1 				"/>
			</g>
			<g>
				<polygon class="st13" points="158.9,201.1 159.8,201.5 159.8,211.9 158.8,211.4 				"/>
			</g>
			<polygon class="st8" points="161.8,209.5 160.8,210.1 160.8,199.1 159.8,201.5 159.8,211.9 162.8,210.1 			"/>
			<g class="st20">
				<polygon class="st2" points="159.8,198.6 160.8,199.1 159.8,201.5 158.9,201.1 				"/>
			</g>
		</g>
	</g>
	<g>
		<g>
			<g>
				<g>
					<polygon class="st2" points="180.6,237.9 185.4,240.7 185.4,241.8 180.6,239 					"/>
				</g>
				<g>
					<polygon class="st2" points="180.6,237.9 185.4,240.7 190.1,237.9 185.3,235.1 					"/>
				</g>
				<polygon class="st13" points="190.1,237.9 185.4,240.7 185.4,241.8 190.1,239 				"/>
			</g>
			<g>
				<polygon class="st2" points="180.6,237.9 185.4,240.7 185.4,241.8 180.6,239 				"/>
			</g>
			<g class="st18">
				<polygon class="st19" points="180.6,237.9 185.4,240.7 190.1,237.9 185.3,235.1 				"/>
			</g>
			<polygon class="st2" points="190.1,237.9 185.4,240.7 185.4,241.8 190.1,239 			"/>
			<g class="st20">
				<polygon class="st19" points="180.6,237.9 185.4,240.7 185.4,241.8 180.6,239 				"/>
			</g>
		</g>
		<g>
			<polygon class="st13" points="184.5,231 185.4,231.6 185.4,238.4 184.5,237.8 			"/>
		</g>
		<polygon class="st8" points="186.5,230.9 185.4,231.6 185.4,238.4 186.5,237.7 		"/>
		<g>
			<g>
				<g>
					<polygon class="st2" points="177.6,226 185.4,230.4 185.3,232.1 177.6,227.7 					"/>
				</g>
				<g>
					<polygon class="st2" points="177.6,226 185.4,230.4 192.8,225.8 185.1,221.4 					"/>
				</g>
				<polygon class="st13" points="192.8,225.8 185.4,230.4 185.3,232.1 192.8,227.6 				"/>
			</g>
			<g>
				<polygon class="st2" points="177.6,226 185.4,230.4 185.3,232.1 177.6,227.7 				"/>
			</g>
			<g class="st18">
				<polygon class="st19" points="177.6,226 185.4,230.4 192.8,225.8 185.1,221.4 				"/>
			</g>
			<polygon class="st2" points="192.8,225.8 185.4,230.4 185.3,232.1 192.8,227.6 			"/>
			<g class="st20">
				<polygon class="st19" points="177.6,226 185.4,230.4 185.3,232.1 177.6,227.7 				"/>
			</g>
		</g>
	</g>
	<g>
		<g>
			<g>
				<polygon class="st2" points="184.8,218.1 183.7,218.8 183.7,226.5 184.8,225.8 				"/>
				<polygon class="st2" points="175.9,214.4 183.7,218.8 183.7,226.5 175.9,222.1 				"/>
			</g>
			<g>
				<polygon class="st2" points="184.8,218.1 183.7,218.8 183.7,226.5 184.8,225.8 				"/>
				<polygon class="st2" points="175.9,214.4 183.7,218.8 184.8,218.1 177,213.7 				"/>
			</g>
			<polygon class="st13" points="184.8,218.1 183.7,218.8 183.7,226.5 184.8,225.8 			"/>
			<polygon class="st7" points="175.9,214.4 183.7,218.8 184.8,218.1 177,213.7 			"/>
			<polygon class="st2" points="184.8,218.1 183.7,218.8 183.7,226.5 184.8,225.8 			"/>
			<polygon class="st6" points="175.9,214.4 183.7,218.8 183.7,226.5 175.9,222.1 			"/>
		</g>
		<g>
			<polygon class="st13" points="180.4,229.3 181.4,229.8 180.4,230.4 			"/>
			<g>
				<polygon class="st13" points="179.4,218.9 180.3,219.4 179.4,221.8 178.4,221.4 				"/>
			</g>
			<g>
				<polygon class="st13" points="178.4,221.4 179.4,221.8 179.3,232.2 178.4,231.7 				"/>
			</g>
			<polygon class="st8" points="181.4,229.8 180.4,230.4 180.3,219.4 179.4,221.8 179.3,232.2 182.4,230.4 			"/>
			<g class="st20">
				<polygon class="st2" points="179.4,218.9 180.3,219.4 179.4,221.8 178.4,221.4 				"/>
			</g>
		</g>
	</g>
	<g>
		<g>
			<polygon class="st8" points="171,177.4 171,178.2 166.3,175.8 166.3,175 			"/>
			<polygon class="st8" points="171,177.4 181.7,170.8 181.9,171.4 171,178.2 			"/>
			<g>
				<g>
					<polygon class="st8" points="177.1,168.4 181.7,170.8 171,177.4 166.3,175 					"/>
					<g>
						<polygon class="st2" points="171.2,174.7 170.5,175.1 171.1,175.4 171.8,175 						"/>
						<polygon class="st2" points="172.1,174.1 171.4,174.5 172.1,174.8 172.7,174.4 						"/>
						<polygon class="st2" points="172.1,175.2 171.4,175.6 172,176 172.7,175.6 						"/>
						<polygon class="st2" points="173,174.6 172.4,175 173,175.4 173.7,175 						"/>
						<polygon class="st2" points="173.1,173.5 172.1,174.1 172.7,174.4 173.7,173.8 						"/>
						<polygon class="st2" points="175,172.3 174.3,172.7 174.9,173 175.6,172.6 						"/>
						<polygon class="st2" points="176,171.7 175.3,172.1 175.9,172.4 176.6,172 						"/>
						<polygon class="st2" points="177.8,171.7 174.7,173.6 175.3,173.9 178.4,172 						"/>
						<polygon class="st2" points="176.9,171.1 176.3,171.5 176.9,171.8 177.5,171.4 						"/>
						<polygon class="st2" points="177.9,170.5 177.2,170.9 177.8,171.2 178.5,170.8 						"/>
						<polygon class="st2" points="178.8,171.1 178.1,171.5 178.7,171.8 179.4,171.4 						"/>
						<polygon class="st2" points="179.8,170.5 179.1,170.9 179.8,171.2 180.4,170.8 						"/>
						<polygon class="st2" points="178.8,169.9 178.2,170.3 178.8,170.6 179.5,170.2 						"/>
						<polygon class="st2" points="170.2,174.2 169.5,174.6 170.2,175 170.8,174.5 						"/>
						<polygon class="st2" points="171.2,173.6 170.5,174 171.4,174.5 172.1,174.1 						"/>
						<polygon class="st2" points="172.1,173 171.5,173.4 172.1,173.8 172.7,173.3 						"/>
						<polygon class="st2" points="173.1,172.4 172.4,172.8 173,173.2 173.7,172.7 						"/>
						<polygon class="st2" points="174,171.8 173.4,172.2 174,172.6 174.7,172.1 						"/>
						<polygon class="st2" points="175,171.2 174.3,171.6 175,172 175.6,171.5 						"/>
						<polygon class="st2" points="176,170.6 175.3,171 175.9,171.4 176.6,170.9 						"/>
						<polygon class="st2" points="176.9,170 176.3,170.4 176.9,170.8 177.6,170.3 						"/>
						<polygon class="st2" points="177.9,169.4 177.2,169.8 177.8,170.2 178.5,169.7 						"/>
						<polygon class="st2" points="169.3,173.7 168.6,174.2 169.2,174.5 169.9,174.1 						"/>
						<polygon class="st2" points="170.1,175.3 169.5,175.7 170.1,176.1 170.8,175.7 						"/>
						<polygon class="st2" points="171.1,175.9 170.4,176.3 171,176.6 171.7,176.2 						"/>
						<polygon class="st2" points="169.2,174.9 168.5,175.3 169.1,175.6 169.8,175.2 						"/>
						<polygon class="st2" points="168.2,174.4 167.6,174.8 168.2,175.1 168.9,174.7 						"/>
						<polygon class="st2" points="170.2,173.1 169.5,173.6 170.2,173.9 170.8,173.5 						"/>
						<polygon class="st2" points="171.2,172.5 170.5,173 171.1,173.3 171.8,172.9 						"/>
						<polygon class="st2" points="172.1,171.9 171.5,172.4 172.1,172.7 172.8,172.3 						"/>
						<polygon class="st2" points="173.1,171.3 172.4,171.8 173,172.1 173.7,171.7 						"/>
						<polygon class="st2" points="174.1,170.7 173.4,171.2 174,171.5 174.7,171.1 						"/>
						<polygon class="st2" points="175,170.1 174.4,170.6 175,170.9 175.6,170.5 						"/>
						<polygon class="st2" points="176,169.5 175.3,170 175.9,170.3 176.6,169.9 						"/>
						<polygon class="st2" points="176.9,168.9 176.3,169.4 176.9,169.7 177.6,169.3 						"/>
					</g>
				</g>
				<polygon class="st14" points="171,177.4 171,178.2 166.3,175.8 166.3,175 				"/>
				<polygon class="st11" points="171,177.4 181.7,170.8 181.9,171.4 171,178.2 				"/>
			</g>
		</g>
		<g>
			<g>
				<polygon class="st8" points="182.3,172.1 182.3,163.6 171.4,169.9 171.4,178.5 				"/>
				<polygon class="st8" points="171.4,169.9 170.9,169.6 170.9,178.2 171.4,178.5 				"/>
				<polygon class="st8" points="171.4,169.9 182.3,163.6 181.8,163.3 170.9,169.6 				"/>
				<polygon class="st11" points="171.4,169.9 182.3,163.6 181.8,163.3 170.9,169.6 				"/>
				<polygon class="st10" points="171.4,169.9 170.9,169.6 170.9,178.2 171.4,178.5 				"/>
			</g>
		</g>
	</g>
	<g>
		<g>
			<polygon class="st8" points="265.1,208.5 265.1,209.4 269.9,206.9 269.9,206 			"/>
			<polygon class="st8" points="265.1,208.5 254,201.7 253.7,202.3 265.1,209.4 			"/>
			<g>
				<g>
					<polygon class="st8" points="258.7,199.2 254,201.7 265.1,208.5 269.9,206 					"/>
					<g>
						<polygon class="st2" points="264.9,205.7 265.6,206.1 264.9,206.5 264.2,206.1 						"/>
						<polygon class="st2" points="263.9,205.1 264.6,205.5 263.9,205.9 263.3,205.4 						"/>
						<polygon class="st2" points="263.9,206.3 264.6,206.7 264,207 263.3,206.6 						"/>
						<polygon class="st2" points="262.9,205.7 263.6,206.1 263,206.4 262.3,206 						"/>
						<polygon class="st2" points="262.9,204.5 263.9,205.1 263.3,205.4 262.3,204.8 						"/>
						<polygon class="st2" points="260.9,203.2 261.6,203.7 261,204 260.3,203.6 						"/>
						<polygon class="st2" points="259.9,202.6 260.6,203 260,203.4 259.3,202.9 						"/>
						<polygon class="st2" points="258,202.6 261.2,204.5 260.6,204.9 257.4,202.9 						"/>
						<polygon class="st2" points="258.9,202 259.6,202.4 259,202.8 258.3,202.3 						"/>
						<polygon class="st2" points="257.9,201.4 258.6,201.8 258,202.1 257.3,201.7 						"/>
						<polygon class="st2" points="257,202 257.7,202.4 257,202.7 256.3,202.3 						"/>
						<polygon class="st2" points="255.9,201.4 256.6,201.8 256,202.1 255.3,201.7 						"/>
						<polygon class="st2" points="256.9,200.7 257.6,201.2 257,201.5 256.3,201.1 						"/>
						<polygon class="st2" points="265.9,205.2 266.6,205.6 265.9,206 265.2,205.6 						"/>
						<polygon class="st2" points="264.9,204.6 265.6,205 264.6,205.5 263.9,205.1 						"/>
						<polygon class="st2" points="263.9,204 264.6,204.4 263.9,204.7 263.2,204.3 						"/>
						<polygon class="st2" points="262.9,203.4 263.6,203.8 262.9,204.1 262.2,203.7 						"/>
						<polygon class="st2" points="261.9,202.7 262.6,203.2 261.9,203.5 261.2,203.1 						"/>
						<polygon class="st2" points="260.9,202.1 261.6,202.5 260.9,202.9 260.3,202.5 						"/>
						<polygon class="st2" points="259.9,201.5 260.6,201.9 260,202.3 259.3,201.8 						"/>
						<polygon class="st2" points="258.9,200.9 259.6,201.3 259,201.6 258.3,201.2 						"/>
						<polygon class="st2" points="257.9,200.3 258.6,200.7 258,201 257.3,200.6 						"/>
						<polygon class="st2" points="266.9,204.7 267.5,205.2 266.9,205.5 266.2,205.1 						"/>
						<polygon class="st2" points="265.9,206.4 266.6,206.8 266,207.1 265.3,206.7 						"/>
						<polygon class="st2" points="265,206.9 265.7,207.4 265,207.7 264.3,207.3 						"/>
						<polygon class="st2" points="266.9,205.9 267.6,206.3 267,206.7 266.3,206.2 						"/>
						<polygon class="st2" points="267.9,205.4 268.6,205.8 268,206.2 267.3,205.7 						"/>
						<polygon class="st2" points="265.9,204.1 266.6,204.5 265.9,204.9 265.2,204.4 						"/>
						<polygon class="st2" points="264.9,203.5 265.6,203.9 264.9,204.3 264.2,203.8 						"/>
						<polygon class="st2" points="263.9,202.9 264.6,203.3 263.9,203.6 263.2,203.2 						"/>
						<polygon class="st2" points="262.9,202.2 263.6,202.7 262.9,203 262.2,202.6 						"/>
						<polygon class="st2" points="261.9,201.6 262.6,202.1 261.9,202.4 261.2,202 						"/>
						<polygon class="st2" points="260.9,201 261.6,201.4 260.9,201.8 260.2,201.3 						"/>
						<polygon class="st2" points="259.9,200.4 260.6,200.8 259.9,201.1 259.2,200.7 						"/>
						<polygon class="st2" points="258.9,199.8 259.6,200.2 258.9,200.5 258.2,200.1 						"/>
					</g>
				</g>
				<polygon class="st14" points="265.1,208.5 265.1,209.4 269.9,206.9 269.9,206 				"/>
				<polygon class="st11" points="265.1,208.5 254,201.7 253.7,202.3 265.1,209.4 				"/>
			</g>
		</g>
		<g>
			<g>
				<polygon class="st8" points="253.4,203 253.4,194.2 264.6,200.8 264.6,209.6 				"/>
				<polygon class="st8" points="264.6,200.8 265.1,200.5 265.1,209.3 264.6,209.6 				"/>
				<polygon class="st8" points="264.6,200.8 253.4,194.2 253.9,193.9 265.1,200.5 				"/>
				<polygon class="st11" points="264.6,200.8 253.4,194.2 253.9,193.9 265.1,200.5 				"/>
				<polygon class="st10" points="264.6,200.8 265.1,200.5 265.1,209.3 264.6,209.6 				"/>
			</g>
		</g>
	</g>
	<polygon class="st19" points="219.7,221.4 228.5,216.5 234.4,219.9 225.6,224.9 	"/>
	<g>
		
			<rect x="230.7" y="221.2" transform="matrix(0.54 0.8417 -0.8417 0.54 293.8697 -92.028)" class="st13" width="0.8" height="3.3"/>
		
			<rect x="232.2" y="221.7" transform="matrix(0.54 0.8417 -0.8417 0.54 293.7502 -93.7271)" class="st5" width="0.8" height="0.2"/>
		<rect x="232.7" y="222" transform="matrix(0.54 0.8417 -0.8417 0.54 294.0347 -93.7471)" class="st21" width="0.2" height="0.2"/>
		<path class="st13" d="M234.1,221.5C234.1,221.5,234.1,221.5,234.1,221.5l0.1-0.2c0.2-0.1,0.9-0.7,0.8-1c-0.2-0.3-1,0.1-1.2,0.3
			l-1.2,0.8l0.5,0.7l0.9-0.6l0,0.1l-1.8,1.1c0.1,0.1,0.2,0.1,0.3,0.1l1.6-1C234.1,221.7,234.1,221.6,234.1,221.5z"/>
		<polygon class="st8" points="229,224.2 229.2,223.9 229.4,224.1 		"/>
		<polygon class="st19" points="229.4,224.1 230,224.1 229.5,223.3 229.2,223.9 		"/>
		
			<rect x="229.6" y="222.9" transform="matrix(0.8417 -0.54 0.54 0.8417 -83.8328 160.1951)" class="st17" width="3.3" height="0.2"/>
		<path class="st17" d="M234.9,220.4c0,0-0.1-0.1-0.1-0.1c0,0.3-0.6,0.7-0.8,0.8l-1.2,0.8l0.1,0.2l1.2-0.8
			C234.4,221.2,235.1,220.6,234.9,220.4z"/>
		<path class="st17" d="M234.1,221.5C234.1,221.5,234.1,221.5,234.1,221.5l-0.2,0l0,0.1l-1.8,1.1c0.1,0.1,0.2,0.1,0.3,0.1l1.6-1
			C234.1,221.7,234.1,221.6,234.1,221.5z"/>
	</g>
	<g>
		<polygon class="st2" points="217.2,217.9 225.6,213.2 226.7,212.6 227.9,213.4 227.8,214.1 231.9,216.4 223.1,221.4 		"/>
		<polygon class="st5" points="216.8,217.6 225.2,212.9 226.3,212.3 227.5,213.1 227.5,213.8 231.5,216.1 222.7,221.1 		"/>
	</g>
	<g>
		<g>
			<polygon class="st19" points="230,192.2 238.8,187.3 244.7,190.7 235.9,195.7 			"/>
			<polygon class="st10" points="230,192.2 238.8,187.3 244.7,190.7 235.9,195.7 			"/>
		</g>
		<g>
			<g>
				<polygon class="st19" points="230,191.7 238.8,186.8 244.7,190.2 235.9,195.2 				"/>
				<polygon class="st10" points="230,191.7 238.8,186.8 244.7,190.2 235.9,195.2 				"/>
			</g>
			<polygon class="st10" points="230,191.7 238.8,186.8 244.7,190.2 235.9,195.2 			"/>
		</g>
		<g>
			<polygon class="st19" points="230,191.2 238.8,186.3 244.7,189.8 235.9,194.7 			"/>
			<polygon class="st10" points="230,191.2 238.8,186.3 244.7,189.8 235.9,194.7 			"/>
		</g>
		<g>
			<g>
				<polygon class="st19" points="230,190.7 238.8,185.8 244.7,189.3 235.9,194.2 				"/>
				<polygon class="st10" points="230,190.7 238.8,185.8 244.7,189.3 235.9,194.2 				"/>
			</g>
			<polygon class="st10" points="230,190.7 238.8,185.8 244.7,189.3 235.9,194.2 			"/>
		</g>
		<g>
			<polygon class="st19" points="230,190.3 238.8,185.4 244.7,188.8 235.9,193.7 			"/>
			<polygon class="st10" points="230,190.3 238.8,185.4 244.7,188.8 235.9,193.7 			"/>
		</g>
		<g>
			<g>
				<polygon class="st19" points="230,189.8 238.8,184.9 244.7,188.3 235.9,193.2 				"/>
				<polygon class="st10" points="230,189.8 238.8,184.9 244.7,188.3 235.9,193.2 				"/>
			</g>
			<polygon class="st10" points="230,189.8 238.8,184.9 244.7,188.3 235.9,193.2 			"/>
		</g>
		<g>
			<polygon class="st19" points="230,189.3 238.8,184.4 244.7,187.8 235.9,192.7 			"/>
			<polygon class="st10" points="230,189.3 238.8,184.4 244.7,187.8 235.9,192.7 			"/>
		</g>
		<polygon class="st19" points="230,188.8 238.8,183.9 244.7,187.3 235.9,192.2 		"/>
	</g>
	<path class="st14" d="M202.2,148.7L202.2,148.7c-1-0.3-1.5-1.3-1.3-2.3l1.6-5.7c0.3-1,1.3-1.5,2.3-1.3l0,0c1,0.3,1.5,1.3,1.3,2.3
		l-1.6,5.7C204.2,148.5,203.2,149,202.2,148.7z"/>
	<path class="st2" d="M202.2,148.7L202.2,148.7c-1-0.3-1.5-1.3-1.3-2.3l1.6-5.7c0.3-1,1.3-1.5,2.3-1.3l0,0c1,0.3,1.5,1.3,1.3,2.3
		l-1.6,5.7C204.2,148.5,203.2,149,202.2,148.7z"/>
	<path class="st5" d="M201.2,148.6c0.2-1,1.2-1.5,2.1-1.3l1.2,0.3c0.1-0.2,0.2-0.3,0.3-0.4c0.4-0.2,0.9-0.1,1.1,0.3s0.8,1.4,0.5,2.4
		c-0.3,1-1.2,1.5-2.1,1.3l-1.8-0.4C201.6,150.5,201,149.6,201.2,148.6z"/>
	<g>
		<path class="st2" d="M210,145.5l0.2,5.1c0,0.2-0.2,0.3-0.3,0.2l-3.2-1.6c-0.9-0.4-1.9-0.1-2.4,0.8l0,0c-0.4,0.9-0.1,1.9,0.8,2.4
			l5.7,2.8c0.8,0.4,1.8,0.1,2.3-0.7l0,0c0.5-0.8,0.7-1.7,0.7-2.6l-0.2-6.5c0-1-0.9-1.7-1.8-1.7h0C210.7,143.7,210,144.5,210,145.5z"
			/>
		<path class="st14" d="M210,145.5l0.2,5.1c0,0.2-0.2,0.3-0.3,0.2l-3.2-1.6c-0.9-0.4-1.9-0.1-2.4,0.8l0,0c-0.4,0.9-0.1,1.9,0.8,2.4
			l5.7,2.8c0.8,0.4,1.8,0.1,2.3-0.7l0,0c0.5-0.8,0.7-1.7,0.7-2.6l-0.2-6.5c0-1-0.9-1.7-1.8-1.7h0C210.7,143.7,210,144.5,210,145.5z"
			/>
	</g>
	<path class="st5" d="M206.3,139.2c0.7,0.7,0.7,1.8,0,2.5l-0.9,0.9c0.1,0.1,0.2,0.3,0.2,0.5c0,0.4-0.4,0.8-0.8,0.8
		c-0.5,0-1.6,0-2.3-0.9c-0.7-0.8-0.7-1.8,0-2.5l1.3-1.3C204.5,138.5,205.6,138.5,206.3,139.2z"/>
	<path class="st2" d="M246.4,186.1l-6.9-3c-0.2-0.1-0.3-0.3-0.3-0.5l1.1-5.2l-0.7-1.3c-0.6-1.2-0.5-2.6,0.2-3.7l0,0v-2l1.8-0.7
		c1.4-0.5,2.9-0.2,4,0.9l0.6,0.7c0.9,0.9-0.8,5.8-0.9,7.1l1.8,7.1C247.2,186,246.8,186.3,246.4,186.1z"/>
	<path class="st2" d="M241.6,171.2l-1.7-0.6l-2.3,6.3c-0.2,0.5-0.6,1-1.2,1.1l-6.7,2.2l0.6,1.8l6-2c1.3-0.4,2.3-1.4,2.8-2.6
		L241.6,171.2z"/>
	<path class="st2" d="M248.7,178.9l-2.4-7.2l-1.8,0.6l2.3,6.9c0.2,0.7,0.3,1.4,0.3,2.1v7.2h1.8v-7.5
		C249.1,180.3,249,179.6,248.7,178.9z"/>
	<path class="st5" d="M226.9,179.6c0-0.7,0.6-1.3,1.4-1l1,0.5c0-0.1,0.1-0.2,0.2-0.3c0.3-0.1,0.7,0.1,1,0.4s1,1.3,0.9,2
		c-0.1,0.7-1.4,0.6-2.3,0.3l-0.8-0.4C227.5,180.8,226.9,180.3,226.9,179.6z"/>
	<path class="st5" d="M245.1,191.5c-0.7-0.3-0.6-1.1,0-1.7l0.9-0.8c-0.1-0.1-0.2-0.2-0.2-0.3c0-0.3,0.3-0.6,0.8-0.7
		c0.4-0.1,1.6-0.3,2.2,0.1c0.7,0.4,0.1,1.6-0.6,2.2l-0.7,0.7C246.8,191.6,245.7,191.8,245.1,191.5z"/>
	<g>
		<path class="st5" d="M243.7,170.1l-0.4,0c-1.2,0.1-2.3-0.9-2.4-2.1l-0.2-2.5c-0.1-1.2,0.9-2.3,2.1-2.4l0.4,0
			c1.2-0.1,2.3,0.9,2.4,2.1l0.2,2.5C245.9,169,245,170,243.7,170.1z"/>
		<polygon class="st5" points="241.3,174.7 242.1,169.4 242.8,170 244.5,169.7 		"/>
	</g>
	<path class="st13" d="M241,164.4l3,0c1.2,0.8,0.8,10.6,0.8,10.6c0.6,0.3,3.4-2.1,3.6-2.7c0,0-0.3-1.7-0.6-3.6
		c-0.5-2.8-0.6-6.2-3.4-6.7C243.3,161.8,239.9,162,241,164.4z"/>
	<path class="st5" d="M256.3,201.8c0.4,0.6,1.4,0.8,1.9,0l0.6-1c0.1,0.1,0.2,0.1,0.3,0.1c0.3-0.1,0.6-0.4,0.6-0.9s0-1.6-0.5-2.2
		c-0.5-0.6-1.7,0.3-2.2,1.1l-0.5,0.7C256,200.4,255.8,201.2,256.3,201.8z"/>
	<path class="st5" d="M266.9,207.5c-0.5-0.5-0.3-1.2,0.5-1.6l1-0.5c-0.1-0.1-0.1-0.2-0.1-0.3c0.1-0.3,0.5-0.5,1-0.4
		c0.4,0,1.6,0.2,2.1,0.7s-0.4,1.6-1.2,2l-0.9,0.4C268.5,208.1,267.4,208,266.9,207.5z"/>
	<path class="st5" d="M269.7,188.9l-1.7-0.6l-2.3,6.3c-0.2,0.5-0.6,1-1.2,1.1l-6.7,2.2l0.6,1.8l6-2c1.3-0.4,2.3-1.4,2.8-2.6
		L269.7,188.9z"/>
	<path class="st8" d="M274.5,203.9l-6.9-3c-0.2-0.1-0.3-0.3-0.3-0.5l1.1-5.2l-1.5-2.8c-0.1-0.3-0.1-0.6,0-0.8l0.9-1.4v-2l1.8-0.7
		c1.4-0.5,2.9-0.2,4,0.9l0.6,0.7c0.9,0.9-0.8,5.8-0.9,7.1l1.8,7.1C275.3,203.8,274.9,204,274.5,203.9z"/>
	<g>
		<path class="st5" d="M271.8,187.9l-0.4,0c-1.2,0.1-2.3-0.9-2.4-2.1l-0.2-2.5c-0.1-1.2,0.9-2.3,2.1-2.4l0.4,0
			c1.2-0.1,2.3,0.9,2.4,2.1l0.2,2.5C274,186.7,273,187.8,271.8,187.9z"/>
		<polygon class="st5" points="267.9,192.2 270.1,187.2 270.8,187.7 272.6,187.5 272,193 		"/>
	</g>
	<path class="st5" d="M276.8,196.7l-2.4-7.2l-1.8,0.6l2.3,6.9c0.2,0.7,0.3,1.4,0.3,2.1l-5.1,6l1.3,1l5.7-7.3
		C277.2,198.1,277,197.4,276.8,196.7z"/>
	<path class="st13" d="M267.9,182.7l4.6,0.2c0.4,0.2-0.3,4.4-0.3,5.7c0.1,1.7,0.9,0.7,0.8,2.3c-0.1,0.9,1,1.5,1.7,0.9
		c0.8-0.6,1.6-1.4,1.7-1.7c0,0-1.5-1.8-0.6-3.6c1.6-3.2-0.6-6.2-3.4-6.7C271.4,179.5,268.8,179.1,267.9,182.7z"/>
	<g>
		<ellipse class="st8" cx="237.2" cy="197.9" rx="2.1" ry="1.3"/>
		<path class="st2" d="M237.3,196.6c0.3,0,0.6,0,0.8,0.1c0,0,0,0,0.1,0l0.1-0.3c0,0,0,0-0.1,0c-0.3-0.1-0.6-0.1-0.9-0.1
			c-0.4,0-0.7,0.1-1.1,0.2l0.1,0.3C236.5,196.7,236.9,196.6,237.3,196.6z"/>
		<g>
			
				<rect x="235.8" y="196.3" transform="matrix(0.8417 -0.54 0.54 0.8417 -69.4823 158.9053)" class="st13" width="0.8" height="3.3"/>
			
				<rect x="234.9" y="196.3" transform="matrix(0.8417 -0.54 0.54 0.8417 -68.8271 158.151)" class="st5" width="0.8" height="0.2"/>
			
				<rect x="235.4" y="196.2" transform="matrix(0.8417 -0.54 0.54 0.8417 -68.7008 158.2608)" class="st21" width="0.2" height="0.2"/>
			<path class="st13" d="M235,195C235,195,234.9,195,235,195l-0.2-0.1c-0.1-0.2-0.7-0.9-1-0.8s0.1,1,0.3,1.2l0.8,1.2l0.7-0.5
				l-0.6-0.9l0.1,0l1.1,1.8c0.1-0.1,0.1-0.2,0.1-0.3l-1-1.6C235.2,195,235.1,194.9,235,195z"/>
			<polygon class="st8" points="237.6,200.1 237.3,199.9 237.6,199.7 			"/>
			<polygon class="st19" points="237.5,199.7 237.5,199.1 236.8,199.6 237.3,199.9 			"/>
			
				<rect x="236.4" y="196.1" transform="matrix(0.8417 -0.54 0.54 0.8417 -69.356 159.015)" class="st17" width="0.2" height="3.3"/>
			<path class="st17" d="M233.8,194.1c0,0-0.1,0.1-0.1,0.1c0.3,0,0.7,0.6,0.8,0.8l0.8,1.2l0.2-0.1l-0.8-1.2
				C234.7,194.7,234.1,194,233.8,194.1z"/>
			<path class="st17" d="M235,195C235,195,234.9,195,235,195l0,0.2l0.1,0l1.1,1.8c0.1-0.1,0.1-0.2,0.1-0.3l-1-1.6
				C235.2,195,235.1,194.9,235,195z"/>
		</g>
		<g>
			
				<rect x="237.9" y="196.1" transform="matrix(0.9734 0.229 -0.229 0.9734 51.6101 -49.3124)" class="st13" width="0.8" height="3.3"/>
			
				<rect x="238.3" y="195.9" transform="matrix(0.9734 0.229 -0.229 0.9734 51.2251 -49.4514)" class="st5" width="0.8" height="0.2"/>
			
				<rect x="238.9" y="196" transform="matrix(0.9734 0.229 -0.229 0.9734 51.2484 -49.5159)" class="st21" width="0.2" height="0.2"/>
			<path class="st13" d="M239.5,194.7C239.5,194.7,239.5,194.7,239.5,194.7l-0.1-0.2c0.1-0.2,0.2-1.2-0.1-1.2
				c-0.3-0.1-0.6,0.8-0.7,1l-0.3,1.4l0.8,0.2l0.3-1.1l0.1,0l-0.5,2c0.1,0,0.2,0,0.3-0.2l0.4-1.8
				C239.7,194.9,239.6,194.8,239.5,194.7z"/>
			<polygon class="st8" points="237.7,200.2 237.6,199.8 237.9,199.9 			"/>
			<polygon class="st19" points="237.9,199.9 238.3,199.4 237.5,199.2 237.7,199.8 			"/>
			
				<rect x="236.9" y="197.7" transform="matrix(0.229 -0.9734 0.9734 0.229 -8.5951 384.7444)" class="st17" width="3.3" height="0.2"/>
			<path class="st17" d="M239.3,193.3c0,0-0.1,0-0.1,0c0.2,0.2,0.1,1,0,1.1l-0.3,1.4l0.2,0.1l0.3-1.4
				C239.5,194.3,239.6,193.4,239.3,193.3z"/>
			<path class="st17" d="M239.5,194.7C239.5,194.7,239.5,194.7,239.5,194.7l-0.1,0.2l0.1,0l-0.5,2c0.1,0,0.2,0,0.3-0.2l0.4-1.8
				C239.7,194.9,239.6,194.8,239.5,194.7z"/>
		</g>
		<path class="st13" d="M237.2,199.4c-1.3,0-2.3-0.6-2.5-1.3c0.1,0.5,0.2,1.7,0.3,2.8c0.2,1.5,4,1.5,4.2,0.1
			c0.1-0.8,0.3-2.3,0.4-2.8C239.5,198.8,238.5,199.4,237.2,199.4z"/>
		<path class="st2" d="M238.9,196.8l-0.1,0.3c0.3,0.2,0.5,0.5,0.5,0.8c0,0.7-0.9,1.3-2.1,1.3c-1.1,0-2.1-0.6-2.1-1.3
			c0-0.2,0.1-0.4,0.2-0.5c0,0-0.2-0.3-0.2-0.3c-0.3,0.2-0.4,0.5-0.4,0.9c0,0.8,1.1,1.5,2.5,1.5s2.5-0.7,2.5-1.5c0-0.4-0.2-0.7-0.6-1
			c-0.1,0.1-0.2,0.1-0.2,0L238.9,196.8C239,196.8,239,196.8,238.9,196.8z"/>
	</g>
	<g>
		<g>
			<ellipse class="st2" cx="239.7" cy="205.7" rx="3" ry="1.8"/>
			<ellipse class="st14" cx="239.7" cy="205.7" rx="3" ry="1.8"/>
			<path class="st13" d="M239.7,207.6c-1.5,0-2.8-0.7-3-1.6c0.1,0.6,0.2,2.1,0.4,3.4c0.2,1.8,4.8,1.8,5.1,0.1
				c0.1-0.9,0.4-2.7,0.5-3.4C242.4,206.9,241.2,207.6,239.7,207.6z"/>
			<ellipse class="st8" cx="239.7" cy="205.7" rx="2.5" ry="1.5"/>
		</g>
		<g>
			<path class="st5" d="M239,204.2c0.7,0.1,1.2,0.7,1.1,1.4c-0.1,0.7-0.7,1.2-1.4,1.1c-0.7-0.1-2.1-2.3-3.5-1.8
				C234.4,205.2,236.1,203.8,239,204.2z"/>
			<path class="st5" d="M240.2,204.3c-0.7,0.1-1.2,0.7-1.1,1.4s0.7,1.2,1.4,1.1c0.7-0.1,2.1-2.3,3.5-1.8
				C244.8,205.2,243.1,203.8,240.2,204.3z"/>
			<path class="st5" d="M240.9,205.7c-0.3-0.3-0.8-0.3-1.1,0.1s-0.3,0.8,0.1,1.1c0.3,0.3,1.9,0.1,2.2,0.9
				C242.3,208.2,242.3,206.8,240.9,205.7z"/>
			<path class="st5" d="M237.9,205.2c0.4-0.1,0.8,0.1,1,0.4c0.1,0.4-0.1,0.8-0.4,1c-0.4,0.1-1.7-0.6-2.3,0
				C235.9,206.9,236.3,205.7,237.9,205.2z"/>
			<g>
				<path class="st5" d="M240.4,203.9c-0.1,0.4-0.4,0.7-0.8,0.6c-0.4-0.1-0.7-0.4-0.6-0.8c0.1-0.4,1.3-1.2,1-2
					C239.9,201.2,240.7,202.2,240.4,203.9z"/>
				<path class="st10" d="M240.4,203.9c-0.1,0.4-0.4,0.7-0.8,0.6c-0.4-0.1-0.7-0.4-0.6-0.8c0.1-0.4,1.3-1.2,1-2
					C239.9,201.2,240.7,202.2,240.4,203.9z"/>
			</g>
			<path class="st10" d="M239.6,205.8c-0.3,0.3-0.9,0.4-1.3,0.5c-0.3,0-1.1-0.3-1.7-0.2c-0.4,0.4-0.5,0.7-0.3,0.5
				c0.6-0.6,1.8,0.1,2.2,0C239,206.5,239.5,206.1,239.6,205.8z"/>
			<path class="st10" d="M240,206.6c-0.2-0.2-0.5-0.5-0.4-0.8c-0.2,0.3,0,0.7,0.3,1c0.3,0.3,1.9,0.1,2.2,0.9c0.1,0.2,0.1,0,0-0.4
				C241.5,206.7,240.3,206.8,240,206.6z"/>
			<path class="st5" d="M238.5,206c0.2-0.4,0.6-0.5,1-0.4c0.4,0.2,0.5,0.6,0.4,1c-0.2,0.4-1.6,0.8-1.6,1.6
				C238.3,208.7,237.8,207.5,238.5,206z"/>
			<path class="st10" d="M243.6,204.6c-1.7,0.1-2,0.9-2.5,1.3l0.4,0.2c0.7-0.6,1.6-1.5,2.6-1.2C244.4,205.1,244,204.8,243.6,204.6z"
				/>
			<path class="st10" d="M237.6,205.3c-0.7-0.5-1.5-1-2.3-0.7c0,0,0,0,0,0c-0.4,0.2-0.5,0.4-0.2,0.3c0.7-0.2,1.4,0.2,2,0.7
				L237.6,205.3z"/>
			<g>
				<path class="st5" d="M239,203.4c0.3,0.2,0.4,0.7,0.2,1c-0.2,0.3-0.7,0.4-1,0.2c-0.3-0.2-0.5-1.7-1.3-1.8
					C236.4,202.7,237.6,202.4,239,203.4z"/>
				<path class="st10" d="M238.4,204.4c-0.2-0.4-0.7-1.7-1.5-1.7c-0.1,0-0.2,0.1,0,0.1c0.9,0.1,1,1.5,1.2,1.8
					c0.2,0.3,0.5,0.4,0.9,0.2C238.6,204.8,238.5,204.6,238.4,204.4z"/>
			</g>
			<g>
				<path class="st5" d="M239.6,203.8c-0.5,0.4-0.6,1.1-0.3,1.6c0.4,0.5,1.1,0.6,1.6,0.3c0.5-0.4,0.7-2.6,2-2.8
					C243.6,202.7,241.7,202.3,239.6,203.8z"/>
				<path class="st10" d="M242.9,202.7c-1.3,0-1.9,1.9-2.2,2.4c-0.4,0.5-1,0.6-1,0.6c-0.6-0.1,0.8,0.3,1.3,0s0.7-2.6,2-2.8
					C243.1,202.8,243.1,202.7,242.9,202.7z"/>
			</g>
			<path class="st10" d="M239.8,205.9c0,0.1,0,0.3,0,0.5c-0.2,0.4-1.6,0.8-1.6,1.6c0,0,0,0,0,0c0,0.3,0.1,0.4,0.1,0.2
				c0-0.9,1.4-1.3,1.6-1.6C240,206.4,240,206.1,239.8,205.9z"/>
		</g>
	</g>
	<g>
		<ellipse class="st14" cx="190.3" cy="167.8" rx="2" ry="1.4"/>
		<path class="st13" d="M187.4,169.6c0.2,0.7,0.6,1.1,1,1c0.1,0,0.2-0.2,0.3-0.3c0,0.1,0,0.1,0,0.2c0.2,1.3,3.2,1.3,3.3,0
			c0.1-0.9,0.2-2.1,0.2-2.5c-0.1,0.7-0.9,1.2-1.9,1.2c-1,0-1.8-0.5-1.9-1.2c0,0.1,0,0.4,0.1,0.6c-0.2-0.3-0.5-0.5-0.7-0.4
			C187.4,168.3,187.2,169,187.4,169.6z M187.9,168.7c0.2-0.1,0.5,0.1,0.6,0.5c0.1,0.5,0,0.9-0.2,1c-0.2,0.1-0.6-0.3-0.6-0.8
			C187.6,169.1,187.6,168.8,187.9,168.7z"/>
		<ellipse class="st8" cx="190.3" cy="167.8" rx="1.6" ry="1.1"/>
		<path class="st11" d="M190.3,167.7c0.6,0,1.2,0.3,1.4,0.6c-0.3,0.4-0.8,0.6-1.4,0.6s-1.2-0.3-1.4-0.6
			C189.1,167.9,189.7,167.7,190.3,167.7z"/>
	</g>
	<g>
		<ellipse class="st14" cx="241.3" cy="220.3" rx="2" ry="1.4"/>
		<path class="st13" d="M243.9,220.7c-0.2-0.1-0.5,0.1-0.7,0.4c0-0.2,0.1-0.5,0.1-0.6c-0.1,0.7-1,1.2-1.9,1.2c-1,0-1.8-0.5-1.9-1.2
			c0,0.4,0.2,1.6,0.2,2.5c0.1,1.3,3.1,1.3,3.3,0c0-0.1,0-0.1,0-0.2c0.1,0.2,0.2,0.3,0.3,0.3c0.4,0.1,0.8-0.3,1-1
			C244.4,221.5,244.2,220.8,243.9,220.7z M244,221.9c-0.1,0.5-0.4,0.9-0.6,0.8c-0.2-0.1-0.4-0.5-0.2-1c0.1-0.5,0.4-0.6,0.6-0.5
			C244,221.3,244,221.6,244,221.9z"/>
		<ellipse class="st8" cx="241.3" cy="220.3" rx="1.6" ry="1.1"/>
		<path class="st11" d="M241.3,220.2c-0.6,0-1.2,0.3-1.4,0.6c0.3,0.4,0.8,0.6,1.4,0.6c0.6,0,1.2-0.3,1.4-0.6
			C242.5,220.4,242,220.2,241.3,220.2z"/>
	</g>
	<g transform="translate(0,-952.36218)">
		<g id="XMLID_18_">
			<g>
				<path class="st13" d="M226,1130.7v20.1c0,0.5-0.4,0.6-0.9,0.4l-2.6-1.5l0,3c0,0.4-0.4,0.6-0.9,0.4l-2.6-1.5v3.4
					c0,0.4-0.4,0.6-0.9,0.4l-22.3-12.9c-0.4-0.3-0.9-0.9-0.9-1.3v-27.9c0-0.4,0.4-0.6,0.9-0.4l3,1.7v-3.4c0-0.5,0.4-0.6,0.9-0.4
					l2.1,1.2v-3c0-0.4,0.4-0.6,0.9-0.4l15.9,9.2c0.6,0.3,1.1,0.9,1.2,1.2l5.8,10.6C225.9,1130,226,1130.3,226,1130.7z M224.3,1149
					v-18.4l-3.4-2l1.3,2.5c0.4,0.7,0.4,1.1,0.4,1.5v15.4L224.3,1149z M223.5,1128.4l-3.4-6.3v4.3L223.5,1128.4z M220.9,1150.9v-18.4
					l-3.9-2.2l1.7,3.1c0.1,0.3,0.4,0.8,0.4,1.1v15.4L220.9,1150.9z M220,1130.2l-3-6v4.3L220,1130.2z M218.3,1123.7v-4.3l-14.6-8.4
					v2.1l12.4,7.2c0.2,0.1,0.4,0.4,0.6,0.8L218.3,1123.7z M217.5,1153.2v-18.4l-5.2-3c-0.5-0.3-0.8-0.8-0.8-1.3v-6.9l-14.6-8.4v26.1
					L217.5,1153.2z M216.6,1132.6l-3.4-6.7v4.7L216.6,1132.6z M215.3,1127.1v-5.6l-14.6-8.4v2.6l11.6,6.7c0.3,0.2,0.6,0.5,0.9,0.9
					L215.3,1127.1z"/>
				<path class="st19" d="M224.3,1130.6v18.4l-1.7-1v-15.4c0-0.4-0.1-0.9-0.4-1.5l-1.3-2.5L224.3,1130.6z"/>
				<polygon class="st19" points="220,1122.1 223.5,1128.4 220,1126.4 				"/>
				<path class="st19" d="M220.9,1132.5v18.4l-1.7-1v-15.4c0-0.3-0.3-0.8-0.4-1.1l-1.7-3.1L220.9,1132.5z"/>
				<polygon class="st19" points="217,1124.2 220,1130.2 217,1128.5 				"/>
				<path class="st19" d="M218.3,1119.4v4.3l-1.5-2.6c-0.2-0.3-0.4-0.7-0.6-0.8l-12.4-7.2v-2.1L218.3,1119.4z"/>
				<path class="st19" d="M217.5,1134.8v18.4l-20.6-11.9v-26.1l14.6,8.4v6.9c0,0.5,0.3,1,0.8,1.3L217.5,1134.8z M215.3,1148.6
					c0-0.5-0.4-1.1-0.8-1.4c0,0,0,0,0,0l-14.2-8.2c-0.5-0.3-0.9-0.1-0.9,0.3c0,0.5,0.4,1.1,0.8,1.3c0,0,0,0,0,0l14.2,8.2
					C214.9,1149.2,215.3,1149,215.3,1148.6z M215.3,1145.1c0-0.5-0.4-1.1-0.8-1.3c0,0,0,0,0,0l-14.2-8.2c-0.5-0.3-0.9-0.1-0.9,0.3
					c0,0.5,0.4,1.1,0.9,1.4c0,0,0,0,0,0l14.2,8.2C214.9,1145.7,215.3,1145.6,215.3,1145.1z M215.3,1141.7c0-0.5-0.4-1.1-0.8-1.4
					c0,0,0,0,0,0l-14.2-8.2c-0.5-0.3-0.9-0.1-0.9,0.3c0,0.5,0.4,1.1,0.9,1.4c0,0,0,0,0,0l14.2,8.2
					C214.9,1142.3,215.3,1142.2,215.3,1141.7z M215.3,1138.3c0-0.5-0.4-1.1-0.8-1.4c0,0,0,0,0,0l-14.2-8.2c-0.5-0.3-0.9-0.1-0.9,0.3
					c0,0.5,0.4,1.1,0.8,1.4c0,0,0,0,0,0l14.2,8.2C214.9,1138.9,215.3,1138.7,215.3,1138.3z M206.3,1129.2v-5.1
					c0-0.5-0.4-1.1-0.9-1.4l-5.1-3c-0.5-0.3-0.9-0.1-0.9,0.4v5.1c0,0.5,0.4,1.1,0.9,1.3l5.1,3
					C205.9,1129.8,206.3,1129.7,206.3,1129.2z"/>
				<polygon class="st19" points="213.2,1125.9 216.6,1132.6 213.2,1130.6 				"/>
				<path class="st13" d="M214.5,1147.2c0.5,0.3,0.9,0.9,0.8,1.4c0,0.5-0.4,0.6-0.9,0.3l-14.2-8.2c0,0,0,0,0,0
					c-0.5-0.3-0.8-0.9-0.8-1.3c0-0.5,0.4-0.6,0.9-0.3L214.5,1147.2C214.5,1147.2,214.5,1147.2,214.5,1147.2z"/>
				<path class="st13" d="M214.5,1143.8c0.5,0.3,0.9,0.9,0.8,1.3c0,0.5-0.4,0.6-0.9,0.3l-14.2-8.2c0,0,0,0,0,0
					c-0.5-0.3-0.9-0.9-0.9-1.4c0-0.5,0.4-0.6,0.9-0.3L214.5,1143.8C214.5,1143.8,214.5,1143.8,214.5,1143.8z"/>
				<path class="st13" d="M214.5,1140.3c0.5,0.3,0.9,0.9,0.8,1.4c0,0.5-0.4,0.6-0.9,0.3l-14.2-8.2c0,0,0,0,0,0
					c-0.5-0.3-0.9-0.9-0.9-1.4c0-0.5,0.4-0.6,0.9-0.3L214.5,1140.3C214.5,1140.3,214.5,1140.3,214.5,1140.3z"/>
				<path class="st13" d="M214.5,1136.9c0.5,0.3,0.9,0.9,0.8,1.4c0,0.5-0.4,0.6-0.9,0.3l-14.2-8.2c0,0,0,0,0,0
					c-0.5-0.3-0.8-0.9-0.8-1.4c0-0.5,0.4-0.6,0.9-0.3L214.5,1136.9C214.5,1136.9,214.5,1136.9,214.5,1136.9z"/>
				<path class="st19" d="M215.3,1121.5v5.6l-2.1-3.8c-0.2-0.4-0.6-0.7-0.9-0.9l-11.6-6.7v-2.6L215.3,1121.5z"/>
				<path class="st13" d="M206.3,1124v5.1c0,0.5-0.4,0.6-0.9,0.4l-5.1-3c-0.5-0.3-0.9-0.9-0.9-1.3v-5.1c0-0.5,0.4-0.6,0.9-0.4l5.1,3
					C205.9,1123,206.3,1123.6,206.3,1124z M204.6,1127.3v-3.4l-3.4-2v3.4L204.6,1127.3z"/>
				<polygon class="st19" points="204.6,1123.9 204.6,1127.3 201.2,1125.4 201.2,1121.9 				"/>
			</g>
		</g>
	</g>
</g>
</svg>
