<?xml version="1.0" encoding="utf-8"?>
<!-- Generator: Adobe Illustrator 23.0.1, SVG Export Plug-In . SVG Version: 6.00 Build 0)  -->
<svg version="1.1" xmlns="http://www.w3.org/2000/svg" xmlns:xlink="http://www.w3.org/1999/xlink" x="0px" y="0px"
	 viewBox="0 0 798.5 585.2" style="enable-background:new 0 0 798.5 585.2;" xml:space="preserve">
<style type="text/css">
	.st0{display:none;}
	.st1{display:inline;opacity:0.5;}
	.st2{fill:#81BCBF;}
	.st3{opacity:0.33;fill:#B6CE99;}
	.st4{opacity:0.66;fill:#B6CE99;}
	.st5{fill:#B6CE99;}
	.st6{opacity:0.33;fill:#FFFFFF;}
	.st7{opacity:0.66;fill:#FFFFFF;}
	.st8{fill:#585799;}
	.st9{opacity:0.5;fill:#B6CE99;}
	.st10{opacity:0.33;fill:#81BCBF;}
	.st11{opacity:0.66;fill:#81BCBF;}
	.st12{opacity:0.5;fill:#585799;}
	.st13{fill:#508A99;}
	.st14{opacity:0.33;fill:#508A99;}
	.st15{opacity:0.66;fill:#508A99;}
	.st16{fill:none;}
	.st17{opacity:0.66;fill:#585799;}
	.st18{opacity:0.66;}
	.st19{fill:#FFFFFF;}
	.st20{opacity:0.33;}
	.st21{opacity:0.33;fill:#585799;}
	.st22{fill:none;stroke:#FFFFFF;stroke-width:0.25;stroke-miterlimit:10;}
	.st23{opacity:0.5;fill:#81BCBF;}
	.st24{opacity:0.5;fill:#FFFFFF;}
	.st25{opacity:0.2;}
	.st26{fill-rule:evenodd;clip-rule:evenodd;fill:#FFFFFF;}
</style>
<g id="Ejemplo" class="st0">
</g>
<g id="Retícula" class="st0">
</g>
<g id="Números">
	<polyline class="st2" points="653.2,391.5 792.7,312.3 792.7,324.2 653.2,403.5 	"/>
	<polyline class="st2" points="521,316.1 653.2,391.5 792.7,312.3 658.5,236.5 	"/>
	<polyline class="st2" points="658.5,236.5 521,316.1 653.2,391.5 653.2,403.5 521,327.9 521,316.1 	"/>
	<polyline class="st3" points="658.5,236.5 521,316.1 653.2,391.5 653.2,403.5 521,327.9 521,316.1 	"/>
	<polyline class="st4" points="521,316.1 653.2,391.5 792.7,312.3 658.5,236.5 	"/>
	<g>
		<g>
			<path class="st5" d="M584.1,344.1l-34.3,59.3l-8,6.5c-1.8,1.4-4.5,4.1-4.3,8.2l0,7l0.1,0l15-9.2l36-61.8l15.8-9.1v-6.1
				c0-3.3-2.6-4.3-5.7-2.8L584.1,344.1z"/>
			<g>
				<path class="st5" d="M599.5,334.4c0,0-1.1-0.5-3.6,0.8l-13.7,7.6l-34.4,59.6l-7.5,6.2c-1.8,1.4-4.8,4.6-4.9,8.8v6.7l1.3,0.7
					c0.3,0.1,0.6,0.2,0.8,0.3c0,0,0-5.5,0-6.9c0-4.7,2.8-7,4.3-8.3l8-6.5l34.3-59.3c0,0,12.5-7,14.5-8c2-1.1,3.1-0.7,3.6-0.5
					L599.5,334.4z"/>
				<path class="st2" d="M607.5,325.9l0.1,0.1C607.6,326,607.6,325.9,607.5,325.9z"/>
			</g>
		</g>
		<g>
			<path class="st6" d="M584.1,344.1l-34.3,59.3l-8,6.5c-1.8,1.4-4.5,4.1-4.3,8.2l0,7l0.1,0l15-9.2l36-61.8l15.8-9.1v-6.1
				c0-3.3-2.6-4.3-5.7-2.8L584.1,344.1z"/>
			<g>
				<path class="st7" d="M599.5,334.4c0,0-1.1-0.5-3.6,0.8l-13.7,7.6l-34.4,59.6l-7.5,6.2c-1.8,1.4-4.8,4.6-4.9,8.8v6.7l1.2,0.7
					c0,0,0.4,0.1,0.8,0.3c0,0,0-5.5,0-6.9c0-4.7,2.8-7,4.3-8.3l8-6.5l34.3-59.3c0,0,12.5-7,14.5-8c2-1.1,3.1-0.7,3.6-0.5
					L599.5,334.4z"/>
				<path class="st2" d="M607.5,325.9l0.1,0.1C607.6,326,607.6,325.9,607.5,325.9z"/>
			</g>
		</g>
	</g>
	<g>
		<polyline class="st2" points="617.5,353.5 602.9,344.2 586.1,352.8 602.6,362.4 605.3,360.8 		"/>
		<polygon class="st2" points="599.7,367.3 583.2,357.7 586,356 602.6,365.6 		"/>
		<polyline class="st2" points="599.7,367.3 599.7,370.5 583.2,360.7 580.4,362.4 596.9,372.1 599.7,370.5 		"/>
		<polygon class="st2" points="594.1,376.8 577.6,367.1 580.4,365.7 596.9,375.3 		"/>
		<polyline class="st2" points="594.1,376.8 594.1,380.1 577.6,370.3 574.8,372 591.3,381.7 594.1,380.1 		"/>
		<polygon class="st2" points="588.4,386.6 571.9,377 574.8,375.3 591.3,384.9 		"/>
		<polyline class="st2" points="588.4,386.6 588.4,389.8 571.9,380 569.1,381.7 585.6,391.4 588.4,389.8 		"/>
		<polygon class="st2" points="582.8,396.1 566.2,386.4 569.1,385 585.6,394.6 		"/>
		<polyline class="st2" points="582.8,396.1 582.8,399.4 566.2,389.7 563.5,391.3 580,401 582.8,399.4 		"/>
		<polygon class="st2" points="577.1,405.8 560.6,396.1 563.5,394.5 580,404.1 		"/>
		<polygon class="st2" points="571.7,415.3 555.2,405.7 558.1,404 574.5,413.6 		"/>
		<polyline class="st2" points="571.7,415.3 571.7,418.5 555.2,408.7 552.4,410.4 568.9,420.1 571.7,418.5 		"/>
		<polyline class="st2" points="571.7,418.5 555.2,408.7 555.2,405.7 571.7,415.3 		"/>
		<polyline class="st4" points="577.1,405.8 577.1,409 560.6,399.2 557.9,400.8 574.4,410.5 577.1,409 		"/>
	</g>
	<polygon class="st2" points="550.7,432 561.6,425.6 565.4,427.8 569,425.6 552.5,416 537.5,425.2 537.7,425.4 550.6,433 	"/>
	<g>
		<polyline class="st4" points="568.6,425.8 552.1,416.2 549.5,417.9 566,427.4 		"/>
		<polygon class="st4" points="550.7,432 552.8,430.8 540.2,423.4 537.5,425.2 537.7,425.4 550.6,433 		"/>
		<polygon class="st4" points="555.9,429 543.2,421.6 540.5,423.3 553,430.6 		"/>
		<polygon class="st4" points="558.9,427.2 546.2,419.8 543.5,421.4 556.1,428.8 		"/>
		<polygon class="st4" points="561.6,425.6 565.4,427.8 565.7,427.6 549.2,417.9 546.5,419.7 559.1,427.1 		"/>
	</g>
	<g>
		<g>
			<polyline class="st2" points="574.5,413.6 558.1,404 557.9,400.8 574.4,410.5 			"/>
			<polyline class="st2" points="568.9,420.1 552.4,410.4 552.5,416 569,425.6 568.9,420.1 			"/>
			<polygon class="st4" points="599.7,367.3 583.2,357.7 586,356 602.6,365.6 			"/>
			<polyline class="st4" points="599.7,367.3 599.7,370.5 583.2,360.7 580.4,362.4 596.9,372.1 599.7,370.5 			"/>
			<polygon class="st4" points="594.1,376.8 577.6,367.1 580.4,365.7 596.9,375.3 			"/>
			<polyline class="st4" points="594.1,376.8 594.1,380.1 577.6,370.3 574.8,372 591.3,381.7 594.1,380.1 			"/>
			<polygon class="st4" points="588.4,386.6 571.9,377 574.8,375.3 591.3,384.9 			"/>
			<polyline class="st4" points="588.4,386.6 588.4,389.8 571.9,380 569.1,381.7 585.6,391.4 588.4,389.8 			"/>
			<polygon class="st4" points="582.8,396.1 566.2,386.4 569.1,385 585.6,394.6 			"/>
			<polyline class="st4" points="582.8,396.1 582.8,399.4 566.2,389.7 563.5,391.3 580,401 582.8,399.4 			"/>
			<polygon class="st4" points="577.1,405.8 560.6,396.1 563.5,394.5 580,404.1 			"/>
			<polygon class="st4" points="571.7,415.3 555.2,405.7 558.1,404 574.5,413.6 			"/>
			<polyline class="st4" points="571.7,418.5 555.2,408.7 552.4,410.4 568.9,420.1 571.7,418.5 			"/>
			<polyline class="st4" points="605.3,360.8 589.3,351.1 586.1,352.8 602.6,362.4 605.3,360.8 			"/>
			<polyline class="st4" points="592.6,349.4 589.5,351 605.5,360.7 608.3,359 			"/>
			<polyline class="st4" points="595.8,347.8 592.8,349.3 608.6,358.8 611.4,357.2 			"/>
			<polyline class="st4" points="614.2,355.5 599.2,346.1 595.9,347.7 611.6,357 			"/>
			<polyline class="st4" points="617.2,353.6 602.7,344.3 599.4,346 614.4,355.3 			"/>
			<polyline class="st2" points="596.9,372.1 580.4,362.4 580.4,365.7 596.9,375.3 596.9,372.1 			"/>
			<polyline class="st2" points="599.7,370.5 583.2,360.7 583.2,357.7 599.7,367.3 			"/>
			<polyline class="st2" points="591.3,381.7 574.8,372 574.8,375.3 591.3,384.9 591.3,381.7 			"/>
			<polyline class="st2" points="594.1,380.1 577.6,370.3 577.6,367.1 594.1,376.8 			"/>
			<polyline class="st2" points="585.6,391.4 569.1,381.7 569.1,385 585.6,394.6 585.6,391.4 			"/>
			<polyline class="st2" points="588.4,389.8 571.9,380 571.9,377 588.4,386.6 			"/>
			<polyline class="st2" points="580,401 563.5,391.3 563.5,394.5 580,404.1 580,401 			"/>
			<polyline class="st2" points="582.8,399.4 566.2,389.7 566.2,386.4 582.8,396.1 			"/>
			<polyline class="st2" points="577.1,409 560.6,399.2 560.6,396.1 577.1,405.8 			"/>
			<polyline class="st2" points="602.6,362.4 586.1,352.8 586,356 602.6,365.6 602.6,362.4 			"/>
		</g>
		<polyline class="st4" points="577.1,405.8 577.1,409 560.6,399.2 557.9,400.8 574.4,410.5 577.1,409 		"/>
	</g>
	<g>
		<polyline class="st5" points="555.1,264.4 588.3,244.9 588.3,251.4 555.1,270.8 555.1,264.4 		"/>
		<polyline class="st5" points="549.5,261.2 582.7,241.5 582.7,235.4 549.5,254.8 		"/>
		<polyline class="st5" points="566.5,283.8 599.7,264.2 599.7,270.9 566.5,290 566.5,283.8 		"/>
		<polyline class="st5" points="560.9,280.6 594.1,260.9 594.1,254.3 560.9,273.9 		"/>
		<polygon class="st5" points="560.9,280.6 560.9,273.9 555.1,270.8 555.1,266.8 555.1,264.4 553.5,263.5 553.5,263.5 549.5,261.2 
			549.5,254.8 543.7,251.5 543.7,253.5 548,256 548,262.6 553.5,265.8 553.5,271.9 553.5,271.9 559.4,275 559.4,282 564.9,285.2 
			564.9,290.9 566.5,290 566.5,286.1 566.5,283.8 566.5,283.8 		"/>
		<polygon class="st8" points="560.9,280.6 560.9,273.9 555.1,270.8 555.1,266.8 555.1,264.4 553.5,263.5 553.5,263.5 549.5,261.2 
			549.5,254.8 543.7,251.5 543.7,253.5 548,256 548,262.6 553.5,265.8 553.5,271.9 553.5,271.9 559.4,275 559.4,282 564.9,285.2 
			564.9,290.9 566.5,290 566.5,286.1 566.5,283.8 566.5,283.8 		"/>
		<g>
			<g>
				<g>
					<polyline class="st2" points="555.1,264.4 588.3,244.9 588.3,251.4 555.1,270.8 555.1,264.4 					"/>
					<polyline class="st2" points="549.5,261.2 582.7,241.5 582.7,235.4 549.5,254.8 					"/>
					<polyline class="st2" points="566.5,283.8 599.7,264.2 599.7,270.9 566.5,290 566.5,283.8 					"/>
					<polyline class="st2" points="560.9,280.6 594.1,260.9 594.1,254.3 560.9,273.9 					"/>
				</g>
				<polyline class="st2" points="560.9,280.6 594.1,260.9 599.7,264.2 566.5,283.8 560.9,280.6 				"/>
			</g>
			<polygon class="st2" points="549.5,254.8 582.7,235.4 577.1,232 543.7,251.5 			"/>
		</g>
		<polyline class="st2" points="549.5,261.2 582.7,241.5 588.3,244.9 555.1,264.4 549.5,261.2 		"/>
		<polygon class="st2" points="560.9,273.9 594.1,254.3 588.3,251.4 555.1,270.8 		"/>
		<g class="st18">
			<polyline class="st5" points="560.9,280.6 594.1,260.9 599.7,264.2 566.5,283.8 560.9,280.6 			"/>
			<polygon class="st5" points="549.5,254.8 582.7,235.4 577.1,232 543.7,251.5 			"/>
			<polyline class="st5" points="549.5,261.2 582.7,241.5 588.3,244.9 555.1,264.4 549.5,261.2 			"/>
			<polygon class="st5" points="560.9,273.9 594.1,254.3 588.3,251.4 555.1,270.8 			"/>
		</g>
		<polygon class="st11" points="560.9,280.6 560.9,273.9 555.1,270.8 555.1,266.8 555.1,264.4 553.5,263.5 553.5,263.5 549.5,261.2 
			549.5,254.8 543.7,251.5 543.7,253.5 548,256 548,262.6 553.5,265.8 553.5,271.9 553.5,271.9 559.4,275 559.4,282 564.9,285.2 
			564.9,290.9 566.5,290 566.5,286.1 566.5,283.8 566.5,283.8 		"/>
	</g>
	<g transform="translate(0,-952.36218)">
		<g id="XMLID_20_">
			<g>
				<path class="st13" d="M739.5,1235c0,0.6-0.6,0.9-1.2,0.5l-31.5-18.2c-0.6-0.4-1.2-1.3-1.2-1.9v-39.3c0-0.6,0.6-0.9,1.2-0.5
					l4.2,2.4l18.7,10.8c0.8,0.5,1.6,1.3,2,2.2l7.1,14.2c0.4,0.8,0.6,1.6,0.6,2.3v22.6V1235z M737.1,1232.4v-26l-7.4-4.3
					c-0.6-0.4-1.1-1.2-1.1-1.8v-9.7l-20.6-11.9v36.9L737.1,1232.4z M735.9,1203.2l-4.8-9.5v6.7L735.9,1203.2z"/>
				<path class="st19" d="M737.1,1206.4v26l-29.1-16.8v-36.9l20.6,11.9v9.7c0,0.6,0.4,1.5,1.1,1.8L737.1,1206.4z M734.1,1225.8
					c0-0.7-0.5-1.5-1.2-1.9c0,0,0,0,0,0l-20-11.5c-0.7-0.4-1.2-0.2-1.2,0.5c0,0.7,0.5,1.5,1.2,1.9c0,0,0,0,0,0l20,11.5
					C733.6,1226.7,734.1,1226.5,734.1,1225.8z M734.1,1211.3c0-0.7-0.5-1.5-1.2-1.9c0,0,0,0,0,0l-14-8.1l1.3-2.3
					c0.7,0.4,1.2,0.2,1.2-0.5v-7.3c0-0.7-0.5-1.5-1.2-1.9l-7.3-4.2c-0.7-0.4-1.2-0.2-1.2,0.5v7.3c0,0.7,0.5,1.5,1.2,1.9l1.3,0.8
					l-1.3,2.3c-0.7-0.4-1.2-0.2-1.2,0.5c0,0.7,0.5,1.5,1.2,1.9c0,0,0,0,0,0l20,11.5C733.6,1212.2,734.1,1212,734.1,1211.3z
					 M734.1,1221c0-0.7-0.5-1.5-1.2-1.9c0,0,0,0,0,0l-20-11.5c-0.7-0.4-1.2-0.2-1.2,0.5c0,0.7,0.5,1.5,1.2,1.9c0,0,0,0,0,0l20,11.5
					C733.6,1221.9,734.1,1221.6,734.1,1221z M734.1,1216.1c0-0.7-0.5-1.5-1.2-1.9c0,0,0,0,0,0l-20-11.5c-0.7-0.4-1.2-0.2-1.2,0.5
					c0,0.7,0.5,1.5,1.2,1.9c0,0,0,0,0,0l20,11.5C733.6,1217,734.1,1216.8,734.1,1216.1z"/>
				<polygon class="st19" points="731.1,1193.8 735.9,1203.2 731.1,1200.4 				"/>
				<path class="st13" d="M732.9,1223.9c0.7,0.4,1.2,1.2,1.2,1.9c0,0.7-0.6,0.9-1.2,0.5l-20-11.5c0,0,0,0,0,0
					c-0.7-0.4-1.2-1.2-1.2-1.9c0-0.7,0.6-0.9,1.2-0.5L732.9,1223.9C732.9,1223.9,732.9,1223.9,732.9,1223.9z"/>
				<path class="st13" d="M732.9,1209.4c0.7,0.4,1.2,1.3,1.2,1.9c0,0.7-0.6,0.9-1.2,0.5l-20-11.5c0,0,0,0,0,0
					c-0.7-0.4-1.2-1.3-1.2-1.9c0-0.7,0.6-0.9,1.2-0.5l6,3.4L732.9,1209.4C732.9,1209.4,732.9,1209.4,732.9,1209.4z"/>
				<path class="st13" d="M732.9,1219.1c0.7,0.4,1.2,1.2,1.2,1.9c0,0.7-0.6,0.9-1.2,0.5l-20-11.5c0,0,0,0,0,0
					c-0.7-0.4-1.2-1.2-1.2-1.9c0-0.7,0.6-0.9,1.2-0.5L732.9,1219.1C732.9,1219.1,732.9,1219.1,732.9,1219.1z"/>
				<path class="st13" d="M732.9,1214.2c0.7,0.4,1.2,1.2,1.2,1.9c0,0.7-0.6,0.9-1.2,0.5l-20-11.5c0,0,0,0,0,0
					c-0.7-0.4-1.2-1.2-1.2-1.9c0-0.7,0.6-0.9,1.2-0.5L732.9,1214.2C732.9,1214.2,732.9,1214.2,732.9,1214.2z"/>
				<path class="st13" d="M721.4,1191.2v7.3c0,0.7-0.5,0.9-1.2,0.5l-6-3.4l-1.3-0.8c-0.7-0.4-1.2-1.2-1.2-1.9v-7.3
					c0-0.7,0.5-0.9,1.2-0.5l7.3,4.2C720.8,1189.7,721.4,1190.5,721.4,1191.2z M719,1195.9v-4.8l-4.8-2.8v4.8L719,1195.9z"/>
				<polygon class="st19" points="720.2,1199 718.9,1201.3 712.9,1197.8 714.2,1195.6 				"/>
				<polygon class="st19" points="719,1191 719,1195.9 714.1,1193.1 714.1,1188.2 				"/>
			</g>
		</g>
	</g>
	<g>
		<polygon class="st13" points="747.8,294.8 697.9,323.8 697.9,330.5 747.8,301.5 		"/>
		<polygon class="st13" points="633.9,285.3 697.9,323.8 747.8,294.8 683.9,256.3 		"/>
		<polygon class="st7" points="633.9,285.3 697.9,323.8 747.8,294.8 683.9,256.3 		"/>
		<polygon class="st6" points="633.9,285.3 697.9,323.8 697.9,330.5 633.9,291.9 		"/>
	</g>
	<g>
		<polygon class="st13" points="739.9,289.2 698.5,313.2 698.5,318.8 739.9,294.7 		"/>
		<polygon class="st13" points="645.5,281.3 698.5,313.2 698.5,318.8 645.5,286.8 		"/>
		<polygon class="st13" points="645.5,281.3 698.5,313.2 739.9,289.2 686.9,257.3 		"/>
		<polygon class="st7" points="645.5,281.3 698.5,313.2 739.9,289.2 686.9,257.3 		"/>
		<polygon class="st6" points="645.5,281.3 698.5,313.2 698.5,318.8 645.5,286.8 		"/>
	</g>
	<g transform="translate(0,-952.36218)">
		<g id="XMLID_19_">
			<g>
				<path class="st13" d="M734.1,1236.3c0,0.6-0.6,0.9-1.2,0.5l-31.5-18.2c-0.6-0.4-1.2-1.3-1.2-1.9v-39.3c0-0.6,0.6-0.9,1.2-0.5
					l4.2,2.4l18.7,10.8c0.8,0.5,1.6,1.3,2,2.2l7.1,14.2c0.4,0.8,0.6,1.6,0.6,2.3v22.6V1236.3z M731.6,1233.7v-26l-7.4-4.3
					c-0.6-0.4-1.1-1.2-1.1-1.8v-9.7l-20.6-11.9v36.9L731.6,1233.7z M730.4,1204.5l-4.8-9.5v6.7L730.4,1204.5z"/>
				<path class="st19" d="M731.6,1207.7v26l-29.1-16.8V1180l20.6,11.9v9.7c0,0.6,0.4,1.5,1.1,1.8L731.6,1207.7z M728.6,1227.1
					c0-0.7-0.5-1.5-1.2-1.9c0,0,0,0,0,0l-20-11.5c-0.7-0.4-1.2-0.2-1.2,0.5c0,0.7,0.5,1.5,1.2,1.9c0,0,0,0,0,0l20,11.5
					C728.1,1228,728.6,1227.8,728.6,1227.1z M728.6,1212.6c0-0.7-0.5-1.5-1.2-1.9c0,0,0,0,0,0l-14-8.1l1.3-2.3
					c0.7,0.4,1.2,0.2,1.2-0.5v-7.3c0-0.7-0.5-1.5-1.2-1.9l-7.3-4.2c-0.7-0.4-1.2-0.2-1.2,0.5v7.3c0,0.7,0.5,1.5,1.2,1.9l1.3,0.8
					l-1.3,2.3c-0.7-0.4-1.2-0.2-1.2,0.5c0,0.7,0.5,1.5,1.2,1.9c0,0,0,0,0,0l20,11.5C728.1,1213.5,728.6,1213.3,728.6,1212.6z
					 M728.6,1222.3c0-0.7-0.5-1.5-1.2-1.9c0,0,0,0,0,0l-20-11.5c-0.7-0.4-1.2-0.2-1.2,0.5c0,0.7,0.5,1.5,1.2,1.9c0,0,0,0,0,0
					l20,11.5C728.1,1223.2,728.6,1222.9,728.6,1222.3z M728.6,1217.4c0-0.7-0.5-1.5-1.2-1.9c0,0,0,0,0,0l-20-11.5
					c-0.7-0.4-1.2-0.2-1.2,0.5c0,0.7,0.5,1.5,1.2,1.9c0,0,0,0,0,0l20,11.5C728.1,1218.3,728.6,1218.1,728.6,1217.4z"/>
				<polygon class="st19" points="725.6,1195.1 730.4,1204.5 725.6,1201.7 				"/>
				<path class="st13" d="M727.4,1225.2c0.7,0.4,1.2,1.2,1.2,1.9c0,0.7-0.6,0.9-1.2,0.5l-20-11.5c0,0,0,0,0,0
					c-0.7-0.4-1.2-1.2-1.2-1.9c0-0.7,0.6-0.9,1.2-0.5L727.4,1225.2C727.4,1225.2,727.4,1225.2,727.4,1225.2z"/>
				<path class="st13" d="M727.4,1210.7c0.7,0.4,1.2,1.3,1.2,1.9c0,0.7-0.6,0.9-1.2,0.5l-20-11.5c0,0,0,0,0,0
					c-0.7-0.4-1.2-1.3-1.2-1.9c0-0.7,0.6-0.9,1.2-0.5l6,3.4L727.4,1210.7C727.4,1210.7,727.4,1210.7,727.4,1210.7z"/>
				<path class="st13" d="M727.4,1220.4c0.7,0.4,1.2,1.2,1.2,1.9c0,0.7-0.6,0.9-1.2,0.5l-20-11.5c0,0,0,0,0,0
					c-0.7-0.4-1.2-1.2-1.2-1.9c0-0.7,0.6-0.9,1.2-0.5L727.4,1220.4C727.4,1220.3,727.4,1220.3,727.4,1220.4z"/>
				<path class="st13" d="M727.4,1215.5c0.7,0.4,1.2,1.2,1.2,1.9c0,0.7-0.6,0.9-1.2,0.5l-20-11.5c0,0,0,0,0,0
					c-0.7-0.4-1.2-1.2-1.2-1.9c0-0.7,0.6-0.9,1.2-0.5L727.4,1215.5C727.4,1215.5,727.4,1215.5,727.4,1215.5z"/>
				<path class="st13" d="M715.9,1192.5v7.3c0,0.7-0.5,0.9-1.2,0.5l-6-3.4l-1.3-0.8c-0.7-0.4-1.2-1.2-1.2-1.9v-7.3
					c0-0.7,0.5-0.9,1.2-0.5l7.3,4.2C715.4,1191,715.9,1191.8,715.9,1192.5z M713.5,1197.2v-4.8l-4.8-2.8v4.8L713.5,1197.2z"/>
				<polygon class="st19" points="714.7,1200.3 713.4,1202.6 707.4,1199.1 708.7,1196.8 				"/>
				<polygon class="st19" points="713.5,1192.3 713.5,1197.2 708.6,1194.4 708.6,1189.5 				"/>
			</g>
		</g>
	</g>
	<g transform="translate(0,-952.36218)">
		<g id="XMLID_17_">
			<g>
				<path class="st13" d="M728,1238.1c0,0.6-0.6,0.9-1.2,0.5l-31.5-18.2c-0.6-0.4-1.2-1.3-1.2-1.9v-39.3c0-0.6,0.6-0.9,1.2-0.5
					l4.2,2.4l18.7,10.8c0.8,0.5,1.6,1.3,2,2.2l7.1,14.2c0.4,0.8,0.6,1.6,0.6,2.3v22.6V1238.1z M725.6,1235.5v-26l-7.4-4.3
					c-0.6-0.4-1.1-1.2-1.1-1.8v-9.7l-20.6-11.9v36.9L725.6,1235.5z M724.4,1206.3l-4.8-9.5v6.7L724.4,1206.3z"/>
				<path class="st19" d="M725.6,1209.5v26l-29.1-16.8v-36.9l20.6,11.9v9.7c0,0.6,0.4,1.5,1.1,1.8L725.6,1209.5z M722.6,1228.9
					c0-0.7-0.5-1.5-1.2-1.9c0,0,0,0,0,0l-20-11.5c-0.7-0.4-1.2-0.2-1.2,0.5c0,0.7,0.5,1.5,1.2,1.9c0,0,0,0,0,0l20,11.5
					C722,1229.8,722.6,1229.6,722.6,1228.9z M722.6,1214.4c0-0.7-0.5-1.5-1.2-1.9c0,0,0,0,0,0l-14-8.1l1.3-2.3
					c0.7,0.4,1.2,0.2,1.2-0.5v-7.3c0-0.7-0.5-1.5-1.2-1.9l-7.3-4.2c-0.7-0.4-1.2-0.2-1.2,0.5v7.3c0,0.7,0.5,1.5,1.2,1.9l1.3,0.8
					l-1.3,2.3c-0.7-0.4-1.2-0.2-1.2,0.5c0,0.7,0.5,1.5,1.2,1.9c0,0,0,0,0,0l20,11.5C722,1215.3,722.6,1215.1,722.6,1214.4z
					 M722.6,1224.1c0-0.7-0.5-1.5-1.2-1.9c0,0,0,0,0,0l-20-11.5c-0.7-0.4-1.2-0.2-1.2,0.5c0,0.7,0.5,1.5,1.2,1.9c0,0,0,0,0,0
					l20,11.5C722,1225,722.6,1224.8,722.6,1224.1z M722.6,1219.2c0-0.7-0.5-1.5-1.2-1.9c0,0,0,0,0,0l-20-11.5
					c-0.7-0.4-1.2-0.2-1.2,0.5c0,0.7,0.5,1.5,1.2,1.9c0,0,0,0,0,0l20,11.5C722,1220.1,722.6,1219.9,722.6,1219.2z"/>
				<polygon class="st19" points="719.5,1196.9 724.4,1206.3 719.5,1203.5 				"/>
				<path class="st13" d="M721.4,1227c0.7,0.4,1.2,1.2,1.2,1.9c0,0.7-0.6,0.9-1.2,0.5l-20-11.5c0,0,0,0,0,0
					c-0.7-0.4-1.2-1.2-1.2-1.9c0-0.7,0.6-0.9,1.2-0.5L721.4,1227C721.4,1227,721.4,1227,721.4,1227z"/>
				<path class="st13" d="M721.4,1212.5c0.7,0.4,1.2,1.3,1.2,1.9c0,0.7-0.6,0.9-1.2,0.5l-20-11.5c0,0,0,0,0,0
					c-0.7-0.4-1.2-1.3-1.2-1.9c0-0.7,0.6-0.9,1.2-0.5l6,3.4L721.4,1212.5C721.4,1212.5,721.4,1212.5,721.4,1212.5z"/>
				<path class="st13" d="M721.4,1222.2c0.7,0.4,1.2,1.2,1.2,1.9c0,0.7-0.6,0.9-1.2,0.5l-20-11.5c0,0,0,0,0,0
					c-0.7-0.4-1.2-1.2-1.2-1.9c0-0.7,0.6-0.9,1.2-0.5L721.4,1222.2C721.4,1222.2,721.4,1222.2,721.4,1222.2z"/>
				<path class="st13" d="M721.4,1217.3c0.7,0.4,1.2,1.2,1.2,1.9c0,0.7-0.6,0.9-1.2,0.5l-20-11.5c0,0,0,0,0,0
					c-0.7-0.4-1.2-1.2-1.2-1.9c0-0.7,0.6-0.9,1.2-0.5L721.4,1217.3C721.4,1217.3,721.4,1217.3,721.4,1217.3z"/>
				<path class="st13" d="M709.8,1194.3v7.3c0,0.7-0.5,0.9-1.2,0.5l-6-3.4l-1.3-0.8c-0.7-0.4-1.2-1.2-1.2-1.9v-7.3
					c0-0.7,0.5-0.9,1.2-0.5l7.3,4.2C709.3,1192.8,709.8,1193.7,709.8,1194.3z M707.4,1199v-4.8l-4.8-2.8v4.8L707.4,1199z"/>
				<polygon class="st19" points="708.6,1202.1 707.3,1204.4 701.4,1200.9 702.7,1198.7 				"/>
				<polygon class="st19" points="707.4,1194.1 707.4,1199 702.6,1196.2 702.6,1191.3 				"/>
			</g>
		</g>
	</g>
	<polygon class="st13" points="633.9,285.3 697.9,323.8 697.9,330.5 633.9,291.9 	"/>
	<polygon class="st13" points="706,266.2 698.2,270.6 698.2,310.4 706,306 	"/>
	<polygon class="st13" points="691,266.2 698.2,270.6 698.2,310.4 691,306 	"/>
	<polygon class="st13" points="691,266.2 698.2,270.6 706,266.2 699.1,261.8 	"/>
	<polygon class="st7" points="691,266.2 698.2,270.6 706,266.2 699.1,261.8 	"/>
	<polygon class="st6" points="691,266.2 698.2,270.6 698.2,310.4 691,306 	"/>
	<polygon class="st13" points="685.9,254.5 678.1,258.8 678.1,298.7 685.9,294.3 	"/>
	<polygon class="st13" points="670.8,254.5 678.1,258.8 678.1,298.7 670.8,294.3 	"/>
	<polygon class="st13" points="670.8,254.5 678.1,258.8 685.9,254.5 678.9,250.1 	"/>
	<polygon class="st7" points="670.8,254.5 678.1,258.8 685.9,254.5 678.9,250.1 	"/>
	<polygon class="st6" points="670.8,254.5 678.1,258.8 678.1,298.7 670.8,294.3 	"/>
	<polygon class="st13" points="665.7,242.8 657.9,247.1 657.9,286.9 665.7,282.5 	"/>
	<polygon class="st13" points="650.7,242.8 657.9,247.1 657.9,286.9 650.7,282.5 	"/>
	<polygon class="st13" points="650.7,242.8 657.9,247.1 665.7,242.8 658.7,238.4 	"/>
	<polygon class="st7" points="650.7,242.8 657.9,247.1 665.7,242.8 658.7,238.4 	"/>
	<polygon class="st6" points="650.7,242.8 657.9,247.1 657.9,286.9 650.7,282.5 	"/>
	<polygon class="st14" points="691,269.2 698.2,273.6 698.2,278.4 691,274 	"/>
	<polygon class="st14" points="670.8,257.5 678.1,261.8 678.1,266.7 670.8,262.3 	"/>
	<polygon class="st14" points="650.7,245.8 657.9,250.1 657.9,254.9 650.7,250.5 	"/>
	<polygon class="st21" points="706,269.2 698.2,273.6 698.2,278.4 706,274 	"/>
	<polygon class="st21" points="685.9,257.5 678.1,261.8 678.1,266.7 685.9,262.3 	"/>
	<polygon class="st21" points="665.7,245.8 657.9,250.1 657.9,254.9 665.7,250.5 	"/>
	<g>
		<polygon class="st13" points="712.1,263.5 698.5,271.5 698.5,276.9 712.1,269 		"/>
		<polygon class="st13" points="645.5,239.6 698.5,271.5 698.5,276.9 645.5,245 		"/>
		<polygon class="st13" points="645.5,239.6 698.5,271.5 712.1,263.5 659.1,231.6 		"/>
		<polygon class="st7" points="645.5,239.6 698.5,271.5 712.1,263.5 659.1,231.6 		"/>
		<polygon class="st6" points="645.5,239.6 698.5,271.5 698.5,276.9 645.5,245 		"/>
	</g>
	<g>
		<polygon class="st13" points="712.1,260.7 698.5,268.7 698.5,270.2 712.1,262.3 		"/>
		<polygon class="st13" points="645.5,236.8 698.5,268.7 698.5,270.2 645.5,238.2 		"/>
		<polygon class="st13" points="645.5,236.8 698.5,268.7 712.1,260.7 684.7,224.2 659.1,228.8 		"/>
		<polygon class="st7" points="645.5,236.8 672,232.8 698.5,268.7 712.1,260.7 684.7,224.2 659.1,228.8 		"/>
		<polygon class="st6" points="645.5,236.8 672,232.8 698.5,268.7 698.5,270.2 645.5,238.2 		"/>
		<polygon class="st7" points="645.5,236.8 672,232.8 684.7,224.2 659.1,228.8 		"/>
	</g>
	<g>
		<g>
			<path class="st2" d="M621.2,284.7l-0.3,0.1c-1,0.3-1.5,1.3-1.3,2.3l2.2,7.4c0.3,1,1.3,1.5,2.3,1.3l0.3-0.1c1-0.3,1.5-1.3,1.3-2.3
				l-2.2-7.4C623.2,284.9,622.2,284.4,621.2,284.7z"/>
			<path class="st2" d="M622,293.2l-0.1,0.3c-0.3,1,0.3,2,1.3,2.3l7.4,2.2c1,0.3,2-0.3,2.3-1.3l0.1-0.3c0.3-1-0.3-2-1.3-2.3
				l-7.4-2.2C623.3,291.6,622.3,292.2,622,293.2z"/>
		</g>
		<path class="st17" d="M631.7,294.1l-6.4-1.9l-1.9-6.3c-0.3-1-1.3-1.5-2.3-1.3l-0.3,0.1c-1,0.3-1.5,1.3-1.3,2.3l2.2,7.4
			c0.2,0.5,0.5,0.9,1,1.1c0.1,0.1,0.2,0.1,0.4,0.2l7.4,2.2c1,0.3,2-0.3,2.3-1.3l0.1-0.3C633.2,295.4,632.7,294.4,631.7,294.1z"/>
	</g>
	<path class="st5" d="M637,297.3c0.1-0.9-0.6-1.7-1.6-1.7l-1.3,0c0-0.2,0-0.3-0.2-0.5c-0.3-0.3-0.8-0.3-1.2,0c0,0,0,0,0,0
		c-1.6,1.3-0.7,3.8,1.3,3.9l0.8,0C635.9,299,636.9,298.3,637,297.3z"/>
	<path class="st8" d="M592,266.7l0.3-0.1c0.2-0.1,0.3-0.2,0.3-0.4l0.3-0.1c0.2-0.1,0.3-0.3,0.3-0.6l0.1,0c0.2-0.1,0.4-0.4,0.3-0.6
		l-0.1-0.2l0.3-0.1c0.2-0.1,0.4-0.4,0.3-0.6l-0.1-0.3c-0.1-0.2-0.3-0.3-0.5-0.3c0-0.1,0-0.2,0-0.3l-0.1-0.3
		c-0.1-0.2-0.4-0.4-0.6-0.3l-0.3,0.1c-0.2,0.1-0.4,0.4-0.3,0.6l0.1,0.3c0.1,0.2,0.3,0.3,0.5,0.3c0,0.1,0,0.2,0,0.3l0.1,0.2l-0.3,0.1
		c-0.2,0.1-0.3,0.3-0.3,0.6l-0.1,0c-0.2,0.1-0.3,0.2-0.3,0.4l-0.3,0.1c-0.2,0.1-0.4,0.4-0.3,0.6l0.1,0.3
		C591.5,266.7,591.8,266.8,592,266.7z"/>
	<path class="st8" d="M594.4,264.7l-0.1-0.3c-0.1-0.2-0.3-0.3-0.5-0.3c0-0.1,0-0.2,0-0.3l-0.1-0.1l0.2-0.1c0.2-0.1,0.4-0.4,0.3-0.6
		l-0.1-0.3c-0.1-0.2-0.3-0.3-0.5-0.3c0-0.1,0-0.2,0-0.3l-0.1-0.3c-0.1-0.2-0.4-0.4-0.6-0.3l-0.3,0.1c-0.2,0.1-0.4,0.4-0.3,0.6
		l0.1,0.3c0.1,0.2,0.3,0.3,0.5,0.3c0,0.1,0,0.2,0,0.3l0.1,0.1l-0.2,0.1c-0.1,0.1-0.2,0.1-0.3,0.3c-0.1,0.1-0.1,0.3-0.1,0.4l-0.1,0
		c-0.2,0.1-0.3,0.2-0.3,0.4l-0.3,0.1c-0.2,0.1-0.4,0.4-0.3,0.6l0.1,0.3c0.1,0.2,0.4,0.4,0.6,0.3l0.3-0.1c0,0,0.1-0.1,0.1-0.1
		c0,0.1,0,0.1,0,0.2l-0.1,0c-0.2,0.1-0.3,0.2-0.3,0.4l-0.3,0.1c-0.2,0.1-0.4,0.4-0.3,0.6l0.1,0.3c0.1,0.2,0.4,0.4,0.6,0.3l0.3-0.1
		c0.2-0.1,0.3-0.2,0.3-0.4l0.3-0.1c0.2-0.1,0.3-0.3,0.3-0.6l0.1,0c0.2-0.1,0.4-0.4,0.3-0.6l-0.1-0.2l0.3-0.1
		C594.4,265.2,594.5,264.9,594.4,264.7z"/>
	<g>
		<path class="st2" d="M600.8,320.1L600.8,320.1c-1.2-0.8-2.9-0.4-3.4,0.8l-3.3,7.7l-2.9,7.9l1.5,0.1l4.1-7.3l4.3-8.7
			C601.2,320.4,601.1,320.2,600.8,320.1z"/>
		<path class="st14" d="M600.8,320.1L600.8,320.1c-1.2-0.8-2.9-0.4-3.4,0.8l-3.3,7.7l-2.9,7.9l1.5,0.1l4.1-7.3l4.3-8.7
			C601.2,320.4,601.1,320.2,600.8,320.1z"/>
	</g>
	<path class="st13" d="M597.4,316.3c-0.2,0.4-0.2,0.9,0,1.2l1.1,0.3c0.6,0,0.6,0,1-1c1.9-4.2-0.1-5.6-0.7-5.6
		C598.9,311.2,598,315.2,597.4,316.3z"/>
	<g>
		<g>
			<path class="st2" d="M664.5,281.3l0.3,0.1c1,0.2,1.7,1.1,1.5,2.1l-1.3,7.6c-0.2,1-1.1,1.7-2.1,1.5l-0.3-0.1
				c-1-0.2-1.7-1.1-1.5-2.1l1.3-7.6C662.5,281.8,663.5,281.1,664.5,281.3z"/>
			<path class="st2" d="M664.6,289.9l0.1,0.3c0.4,0.9,0,2-1,2.4l-7.1,3c-0.9,0.4-2,0-2.4-1l-0.1-0.3c-0.4-0.9,0-2,1-2.4l7.1-3
				C663.2,288.5,664.2,288.9,664.6,289.9z"/>
		</g>
		<path class="st17" d="M655.1,291.9l6.1-2.6l1.1-6.5c0.2-1,1.1-1.7,2.1-1.5l0.3,0.1c1,0.2,1.7,1.1,1.5,2.1l-1.3,7.6
			c-0.1,0.5-0.4,1-0.8,1.2c-0.1,0.1-0.2,0.2-0.4,0.2l-7.1,3c-0.9,0.4-2,0-2.4-1l-0.1-0.3C653.8,293.4,654.2,292.3,655.1,291.9z"/>
	</g>
	<path class="st8" d="M668.7,295.5h-4.8l-1.8,2.9l0.4,23.2l3.7-0.1l1.3-19.7c0.8-1.1,1.3-2.4,1.3-3.7L668.7,295.5z"/>
	<path class="st15" d="M668.7,295.5h-4.8l-1.8,2.9l0.4,23.2l3.7-0.1l1.3-19.7c0.8-1.1,1.3-2.4,1.3-3.7L668.7,295.5z"/>
	<polygon class="st8" points="673.1,299.1 666.3,297.9 666.5,322.5 669.5,322.5 	"/>
	<path class="st8" d="M669.5,271.8c0,0,0.2-1.3-1.1-1.3s-1.7,0-1.7,0c-0.6,0-2.7,2.6-1.8,2.7c3.6,0.4,2.3,1,2.3,1.5l0,0
		c0,0.6,0.5,1,1,1h1.8c0.6,0,1-0.5,1-1l0-1.9c0-0.6-0.5-1-1-1H669.5z"/>
	<path class="st8" d="M658.8,325c-0.3,0-0.6-0.3-0.6-0.6v-0.5c0-1.3,1.1-2.4,2.4-2.4h5.6v3.5H658.8z"/>
	<path class="st8" d="M672,299.8l-0.9,0c-2.8,0-5.6-0.6-8-2h0c-0.3-0.1-0.4-2.7-0.4-3l-0.6-8.7c-0.1-2.2,0.9-5.5,3.7-6.4l0.7-2.5
		c2.5-0.5,1.5,0.7,3.2,2.3c1.3,1.1,5.5,0.3,5.5,4.2l-3,9.7l1,5.6C673.1,299.7,672.5,300.1,672,299.8z"/>
	<path class="st5" d="M668.3,279.5h-0.9c-1.1,0-2-0.9-2-2v-3c0-1.1,0.9-2,2-2h0.9c1.1,0,2,0.9,2,2v3
		C670.3,278.6,669.4,279.5,668.3,279.5z"/>
	<path class="st8" d="M668.2,274c-0.6,0-1,0.4-1.1,0.9h-0.3c-0.1-0.5-0.6-0.9-1.1-0.9c-0.6,0-1.2,0.5-1.2,1.2s0.5,1.2,1.2,1.2
		c0.6,0,1-0.4,1.1-0.9h0.3c0.1,0.5,0.6,0.9,1.1,0.9c0.6,0,1.2-0.5,1.2-1.2S668.8,274,668.2,274z M665.6,275.8
		c-0.4,0-0.7-0.3-0.7-0.7s0.3-0.7,0.7-0.7s0.7,0.3,0.7,0.7S666,275.8,665.6,275.8z M668.2,275.8c-0.4,0-0.7-0.3-0.7-0.7
		s0.3-0.7,0.7-0.7s0.7,0.3,0.7,0.7S668.5,275.8,668.2,275.8z"/>
	<path class="st15" d="M658.8,325c-0.3,0-0.6-0.3-0.6-0.6v-0.5c0-1.3,1.1-2.4,2.4-2.4h5.6v3.5H658.8z"/>
	<path class="st8" d="M662.2,326.1c-0.3,0-0.6-0.3-0.6-0.6v-0.5c0-1.3,1.1-2.4,2.4-2.4h5.6v3.5H662.2z"/>
	<path class="st5" d="M650.4,294.9c-0.3-1,0.4-2,1.5-2.2l1.5-0.2c0-0.2,0-0.4,0.1-0.5c0.3-0.4,0.9-0.5,1.3-0.2c0,0,0,0,0,0
		c1.9,1.2,1.3,4.2-1,4.5l-0.9,0.1C651.8,296.6,650.7,295.9,650.4,294.9z"/>
	<path class="st13" d="M588.5,288.7l0.5-7.3h3.4l-0.6,9c0,0.3-0.2,0.7-0.4,0.9l-5.7,7.3l-3.3-1l5.7-8
		C588.4,289.4,588.5,289,588.5,288.7z"/>
	<g>
		<path class="st2" d="M590.8,268.5l-0.2,0.1c-0.6,0.3-0.8,1.1-0.4,1.6l3.7,6.2c0.3,0.6,1.1,0.8,1.6,0.4l0.2-0.1
			c0.6-0.3,0.8-1.1,0.4-1.6l-3.7-6.2C592.1,268.3,591.3,268.1,590.8,268.5z"/>
		<path class="st21" d="M590.8,268.5l-0.2,0.1c-0.6,0.3-0.8,1.1-0.4,1.6l3.7,6.2c0.3,0.6,1.1,0.8,1.6,0.4l0.2-0.1
			c0.6-0.3,0.8-1.1,0.4-1.6l-3.7-6.2C592.1,268.3,591.3,268.1,590.8,268.5z"/>
	</g>
	<g>
		<path class="st2" d="M593.9,274.7l-0.2,0.2c-0.4,0.5-0.3,1.3,0.2,1.7l5.7,4.4c0.5,0.4,1.3,0.3,1.7-0.2l0.2-0.2
			c0.4-0.5,0.3-1.3-0.2-1.7l-5.7-4.4C595.1,274.1,594.3,274.2,593.9,274.7z"/>
		<path class="st21" d="M593.9,274.7l-0.2,0.2c-0.4,0.5-0.3,1.3,0.2,1.7l5.7,4.4c0.5,0.4,1.3,0.3,1.7-0.2l0.2-0.2
			c0.4-0.5,0.3-1.3-0.2-1.7l-5.7-4.4C595.1,274.1,594.3,274.2,593.9,274.7z"/>
	</g>
	<path class="st17" d="M588.5,288.7l0.5-7.3h3.4l-0.6,9c0,0.3-0.2,0.7-0.4,0.9l-5.7,7.3l-3.3-1l5.7-8
		C588.4,289.4,588.5,289,588.5,288.7z"/>
	<path class="st8" d="M585,281.4h4.1v3l4.1,5.7l3.3,8.3l-2.5,2.2l-4.5-9.3l-3.4-4.6c-0.7-0.9-1.1-2-1.1-3.1L585,281.4z"/>
	<path class="st13" d="M585.5,285.2l6.8-0.6l0.7-0.7c0.2-0.1,0.4-2.6,0.4-2.8l-0.3-6.1l0.9-1.7c0.7-1.3,0.1-3.5-0.6-4.7l-1.5-1.3
		l-0.6-1.4c-1.7-0.6-1.7-0.6-2.7,1.2l-3.1,1.8c-1,1.1,0.7,6.8,0.8,8.3l-0.5,0.9c-0.9,1.7-1.4,3.6-1.2,5.5l0.1,1.2
		C584.5,285.1,585,285.4,585.5,285.2z"/>
	<path class="st8" d="M593.1,260.6c0-0.2-0.1-0.4-0.3-0.6c0-0.4-0.4-0.8-0.9-0.8c0,0,0,0-0.1,0c-0.1-0.3-0.3-0.5-0.9-0.5
		c-1.1,0-1.4,0-1.4,0c-0.4,0-0.7,0.3-0.8,0.6c0,0,0,0,0,0c-0.1,0-0.1,0-0.1,0c-0.5,0-0.9,0.4-0.9,0.8c-0.2,0.1-0.3,0.3-0.3,0.6
		c-0.3,0.1-0.7,0.2-0.7,0.7c0,0.8,0,0.8,0,0.8c0,0.4,0.3,0.7,0.7,0.8v0.4c0,0.5,0.4,0.9,0.9,0.9h0.9c0.1,0.3,0.5,0.5,0.8,0.5
		l0.4-0.6c0,0.1,0.1,0.1,0.2,0.1l0.2,0.4c0.4,0,0.7-0.2,0.8-0.5h0.9c0.5,0,0.9-0.4,0.9-0.9v-0.4c0.4-0.1,0.7-0.4,0.7-0.8
		c0,0,0,0,0-0.8C593.8,260.9,593.4,260.7,593.1,260.6z"/>
	<path class="st13" d="M595,302.3l5.4-2.1c0.3-0.1,0.4-0.4,0.3-0.7l0,0c-0.5-1.3-1.9-1.9-3.2-1.4l-4,1.5l0.9,2.4
		C594.5,302.3,594.8,302.4,595,302.3z"/>
	<path class="st13" d="M582.4,300.7l5.5,1.7c0.3,0.1,0.6-0.1,0.7-0.4l0,0c0.4-1.3-0.3-2.7-1.6-3l-4.1-1.2l-0.7,2.4
		C582.1,300.4,582.2,300.7,582.4,300.7z"/>
	<path class="st5" d="M590.2,267.4h0.3c1,0,1.9-0.8,1.9-1.9v-2.1c0-1-0.8-1.9-1.9-1.9h-0.3c-1,0-1.9,0.8-1.9,1.9v2.1
		C588.3,266.6,589.1,267.4,590.2,267.4z"/>
	<polygon class="st5" points="588.2,268.3 588.8,271.2 591.7,271.6 592.9,270.4 592.1,268.4 591.5,266.4 588.7,266.4 	"/>
	<g>
		<path class="st5" d="M604.8,280.2c0.1-0.7-0.4-1.4-1.2-1.4l-1-0.1c0-0.1,0-0.3-0.1-0.4c-0.2-0.3-0.6-0.3-0.9-0.1
			c-0.3,0.2-1.1,0.8-1.2,1.6s0.4,1.4,1.2,1.4l1.5,0.1C603.9,281.5,604.7,281,604.8,280.2z"/>
		<path class="st3" d="M604.8,280.2c0.1-0.7-0.4-1.4-1.2-1.4l-1-0.1c0-0.1,0-0.3-0.1-0.4c-0.2-0.3-0.6-0.3-0.9-0.1
			c-0.3,0.2-1.1,0.8-1.2,1.6s0.4,1.4,1.2,1.4l1.5,0.1C603.9,281.5,604.7,281,604.8,280.2z"/>
	</g>
	<path class="st8" d="M590.5,260.5h-0.4c-0.2,0-0.3,0.1-0.4,0.2h-0.3c-0.3,0-0.5,0.2-0.5,0.5h-0.1c-0.3,0-0.5,0.2-0.5,0.5v0.2h-0.3
		c0-0.1-0.1-0.3-0.2-0.3l-0.3-0.2c-0.2-0.2-0.5-0.2-0.7,0.1l-0.2,0.3c-0.1,0.1-0.1,0.2-0.1,0.3c-0.2-0.1-0.4-0.1-0.6,0.1l-0.2,0.3
		c-0.1,0.1-0.1,0.3-0.1,0.5l-0.2,0.3c-0.2,0.2-0.2,0.5,0,0.7l-0.1,0.1c-0.2,0.2-0.2,0.5,0.1,0.7l0,0c-0.1,0.1-0.1,0.3-0.1,0.4
		c-0.1,0.2-0.1,0.4,0,0.5c0,0.2,0,0.4,0.2,0.5l0.2,0.1l-0.2,0.2c-0.2,0.2-0.2,0.5,0.1,0.7l0.3,0.2c0.2,0.2,0.4,0.1,0.6,0
		c0,0.1,0.1,0.2,0.2,0.3l0.3,0.2c0.2,0.2,0.5,0.2,0.7-0.1l0.2-0.2c0.2,0.1,0.4,0.1,0.6-0.1l0.2-0.3c0.1-0.1,0.1-0.3,0.1-0.5
		c0.1,0,0.1-0.1,0.1-0.1l0.2-0.3c0.2-0.2,0.2-0.5-0.1-0.7l-0.3-0.2c0,0,0,0-0.1,0l0,0c0.2-0.2,0.2-0.5-0.1-0.7l-0.3-0.2
		c0,0-0.1,0-0.1-0.1c0,0,0,0,0.1,0h0.4c0.3,0,0.5-0.2,0.5-0.5v-0.4c0-0.2-0.2-0.4-0.4-0.5c0.1-0.1,0.1-0.2,0.1-0.3v-0.2h0.3
		c0.3,0,0.5-0.2,0.5-0.5h0.1c0.2,0,0.3-0.1,0.4-0.2h0.3c0.3,0,0.5-0.2,0.5-0.5V261C591,260.7,590.8,260.5,590.5,260.5z M587.6,266.2
		C587.6,266.2,587.6,266.2,587.6,266.2L587.6,266.2C587.7,266.2,587.7,266.2,587.6,266.2C587.7,266.2,587.7,266.2,587.6,266.2
		C587.7,266.2,587.6,266.2,587.6,266.2z"/>
	<path class="st13" d="M617.6,308.1l0.6-8.7h4l-0.7,10.7c0,0.4-0.2,0.8-0.5,1.1l-6.8,8.7l-4-1.2l6.8-9.6
		C617.4,308.9,617.6,308.5,617.6,308.1z"/>
	<path class="st5" d="M613.3,299.6h4.8v3.6l11.2,15.6l-3,2.6l-7.7-10l-4.1-5.5c-0.8-1.1-1.3-2.4-1.3-3.7L613.3,299.6z"/>
	<path class="st14" d="M613.3,299.6h4.8v3.6l11.2,15.6l-3,2.6l-7.7-10l-4.1-5.5c-0.8-1.1-1.3-2.4-1.3-3.7L613.3,299.6z"/>
	<path class="st2" d="M614,304.1l8.9-4.3c0.3-0.1,0.4-0.4,0.4-0.7l0.6-8.7c0.1-2.2-0.9-5.5-3.7-6.4l-0.4-2.4
		c-2.5-0.5-1.7,0.7-3.4,2.3c-1.3,1.1-3.9,0.2-3.9,4.1l0.5,15.4C612.9,303.9,613.5,304.3,614,304.1z"/>
	<path class="st13" d="M616.4,276c0,0-0.2-1.3,1.1-1.3s1.7,0,1.7,0c0.6,0,2.7,2.6,1.8,2.7c-3.6,0.4-2.3,1-2.3,1.5l0,0
		c0,0.6-0.5,1-1,1H616c-0.6,0-1-0.5-1-1l0-1.9c0-0.6,0.5-1,1-1H616.4z"/>
	<path class="st8" d="M627.6,323.2l6.4-2.5c0.3-0.1,0.5-0.5,0.4-0.8l0,0c-0.6-1.5-2.3-2.2-3.8-1.7l-4.7,1.8l1.1,2.8
		C627.1,323.2,627.4,323.3,627.6,323.2z"/>
	<path class="st8" d="M610.4,322.4l6.5,2c0.3,0.1,0.7-0.1,0.8-0.4l0,0c0.5-1.5-0.4-3.2-1.9-3.6l-4.9-1.5l-0.9,2.9
		C609.9,322.1,610.1,322.4,610.4,322.4z"/>
	<path class="st21" d="M614,304.1l8.9-4.3c0.3-0.1,0.4-0.4,0.4-0.7l0.6-8.7c0.1-2.2-0.9-5.5-3.7-6.4l-0.7-2.5
		c-2.5-0.5-1.5,0.7-3.2,2.3c-1.3,1.1-3.9,0.2-3.9,4.1l0.5,15.4C612.9,304,613.5,304.3,614,304.1z"/>
	<path class="st5" d="M617.7,283.6h0.9c1.1,0,2-0.9,2-2v-3c0-1.1-0.9-2-2-2h-0.9c-1.1,0-2,0.9-2,2v3
		C615.7,282.7,616.6,283.6,617.7,283.6z"/>
	<path class="st2" d="M602.2,334.5h-4.8l-1.8,2.9l-2.7,6.9l-2.2,10.6l3,2.6l3.2-11.3l4.1-5.5c0.8-1.1,1.3-2.4,1.3-3.7L602.2,334.5z"
		/>
	<path class="st14" d="M602.2,334.5h-4.8l-1.8,2.9l-2.7,6.9l-2.2,10.6l3,2.6l3.2-11.3l4.1-5.5c0.8-1.1,1.3-2.4,1.3-3.7L602.2,334.5z
		"/>
	<path class="st13" d="M606,344.1l0.7-5.9l-6.8-1.3l2.2,9.2c0,0.4,0.2,0.8,0.5,1.1l2,2.6l3.8-2l-1.9-2.6
		C606.2,344.9,606,344.5,606,344.1z"/>
	<path class="st8" d="M592.7,358.6l-6.4-2.5c-0.3-0.1-0.5-0.5-0.4-0.8l0,0c0.6-1.5,2.3-2.2,3.8-1.7l4.7,1.8l-1.1,2.8
		C593.3,358.5,593,358.7,592.7,358.6z"/>
	<path class="st2" d="M605.5,338.9l-0.9,0c-2.8,0-5.6-0.6-8-2l0,0c-0.3-0.1-0.4-2.7-0.4-3l1.6-4c-0.1-1.2-1.9-3.7-1.9-6.2
		c0-0.7,1.2-1.3,1.8-2.2c0.7-1.1,0.9-2.5,1.6-2.7l0.7-2.5c2.5-0.5,1.5,0.7,3.2,2.3c1.3,1.1,3.3,1.2,3.3,5.1l-0.8,8.8l1,5.6
		C606.6,338.8,606.1,339.1,605.5,338.9z"/>
	<path class="st5" d="M601.8,318.5h-0.9c-1.1,0-2-0.9-2-2v-3c0-1.1,0.9-2,2-2h0.9c1.1,0,2,0.9,2,2v3
		C603.8,317.6,602.9,318.5,601.8,318.5z"/>
	<polygon class="st5" points="603.1,322.4 600,323.1 598.5,321.9 600,318 602.3,318 	"/>
	<path class="st5" d="M610.4,342.6c-1.1,0.2-2-0.6-2-1.7l-0.1-1.5c-0.2,0-0.4,0-0.5-0.2c-0.4-0.3-0.4-0.9-0.1-1.3c0,0,0,0,0,0
		c1.4-1.8,4.3-0.9,4.4,1.4l0,0.9C612.2,341.3,611.4,342.4,610.4,342.6z"/>
	<path class="st5" d="M588.6,339.1c0.5,0.8,1.5,0.9,2.3,0.1l1-1c0.1,0.1,0.2,0.2,0.4,0.2c0.4,0,0.8-0.4,0.9-0.9c0,0,0,0,0,0
		c0.4-2.2-1.8-3.5-3.4-2l-0.6,0.6C588.5,336.9,588.2,338.3,588.6,339.1z"/>
	<path class="st13" d="M603.1,310.9c0,0,0.2-1.3-1.1-1.3s-1.7,0-1.7,0c-0.6,0-2.7,2.6-1.8,2.7c1.4,0.1,3-0.2,3.4,0.6
		c0.6,1.2,0.6,4.5,0,4.4c0,0-0.2,0.8,0.4,0.8h1.8c0.6,0,0.6,0,1-1c1.9-4.2-1-6.1-1.6-6.1H603.1z"/>
	<g>
		<path class="st2" d="M604.7,321.3L604.7,321.3c0.9-0.7,2.2-0.1,2.5,1l1.9,7.6l1.6,7.8l-2,0l-2-7l-2.1-8.8
			C604.5,321.6,604.6,321.4,604.7,321.3z"/>
		<path class="st14" d="M604.7,321.3L604.7,321.3c0.9-0.7,2.2-0.1,2.5,1l1.9,7.6l1.6,7.8l-2,0l-2-7l-2.1-8.8
			C604.5,321.6,604.6,321.4,604.7,321.3z"/>
	</g>
	<g>
		<g>
			<polygon class="st19" points="618.9,299.6 627.7,294.7 633.6,298.1 624.8,303.1 			"/>
			<polygon class="st10" points="618.9,299.6 627.7,294.7 633.6,298.1 624.8,303.1 			"/>
		</g>
		<g>
			<g>
				<polygon class="st19" points="618.9,299.1 627.7,294.2 633.6,297.7 624.8,302.6 				"/>
				<polygon class="st10" points="618.9,299.1 627.7,294.2 633.6,297.7 624.8,302.6 				"/>
			</g>
			<polygon class="st10" points="618.9,299.1 627.7,294.2 633.6,297.7 624.8,302.6 			"/>
		</g>
		<g>
			<polygon class="st19" points="618.9,298.6 627.7,293.8 633.6,297.2 624.8,302.1 			"/>
			<polygon class="st10" points="618.9,298.6 627.7,293.8 633.6,297.2 624.8,302.1 			"/>
		</g>
		<g>
			<g>
				<polygon class="st19" points="618.9,298.2 627.7,293.3 633.6,296.7 624.8,301.6 				"/>
				<polygon class="st10" points="618.9,298.2 627.7,293.3 633.6,296.7 624.8,301.6 				"/>
			</g>
			<polygon class="st10" points="618.9,298.2 627.7,293.3 633.6,296.7 624.8,301.6 			"/>
		</g>
		<g>
			<polygon class="st19" points="618.9,297.7 627.7,292.8 633.6,296.2 624.8,301.1 			"/>
			<polygon class="st10" points="618.9,297.7 627.7,292.8 633.6,296.2 624.8,301.1 			"/>
		</g>
		<g>
			<g>
				<polygon class="st19" points="618.9,297.2 627.7,292.3 633.6,295.7 624.8,300.6 				"/>
				<polygon class="st10" points="618.9,297.2 627.7,292.3 633.6,295.7 624.8,300.6 				"/>
			</g>
			<polygon class="st10" points="618.9,297.2 627.7,292.3 633.6,295.7 624.8,300.6 			"/>
		</g>
		<g>
			<polygon class="st19" points="618.9,296.7 627.7,291.8 633.6,295.2 624.8,300.1 			"/>
			<polygon class="st10" points="618.9,296.7 627.7,291.8 633.6,295.2 624.8,300.1 			"/>
		</g>
		<polygon class="st19" points="618.9,296.2 627.7,291.3 633.6,294.7 624.8,299.7 		"/>
	</g>
	<g>
		<g>
			<path class="st2" d="M613.9,286.7l-0.3,0c-1,0-1.8,0.9-1.8,1.9l0.3,7.7c0,1,0.9,1.8,1.9,1.8l0.3,0c1,0,1.8-0.9,1.8-1.9l-0.3-7.7
				C615.7,287.4,614.9,286.6,613.9,286.7z"/>
			<path class="st2" d="M612.6,295.1l-0.2,0.3c-0.5,0.9-0.2,2,0.7,2.5l6.6,3.9c0.9,0.5,2,0.2,2.5-0.7l0.2-0.3c0.5-0.9,0.2-2-0.7-2.5
				l-6.6-3.9C614.3,293.9,613.1,294.2,612.6,295.1z"/>
		</g>
		<path class="st17" d="M621.8,298.3l-5.7-3.4l-0.3-6.6c0-1-0.9-1.8-1.9-1.8l-0.3,0c-1,0-1.8,0.9-1.8,1.9l0.3,7.7
			c0,0.5,0.3,1,0.7,1.3c0.1,0.1,0.2,0.2,0.3,0.3l6.6,3.9c0.9,0.5,2,0.2,2.5-0.7l0.2-0.3C623,300,622.7,298.8,621.8,298.3z"/>
	</g>
	<path class="st5" d="M626.2,302.8c0.4-0.9-0.1-1.8-1.1-2.1l-1.2-0.3c0-0.2,0-0.3,0-0.5c-0.2-0.4-0.7-0.5-1.1-0.3c0,0,0,0,0,0
		c-1.8,0.9-1.6,3.5,0.3,4.1l0.7,0.2C624.7,304.1,625.8,303.6,626.2,302.8z"/>
	<g>
		<polygon class="st13" points="666.2,299.8 666.8,290.1 666.9,288.9 668.2,288.3 668.8,288.7 672.9,286.6 672.3,296.7 		"/>
		<polygon class="st2" points="665.8,299.9 666.4,290.3 666.4,289.1 667.7,288.4 668.3,288.9 672.4,286.7 671.9,296.8 		"/>
	</g>
	<g>
		<g>
			<path class="st2" d="M672.4,281.6l0.3-0.1c1-0.3,2,0.3,2.3,1.2l2.2,7.4c0.3,1-0.3,2-1.2,2.3l-0.3,0.1c-1,0.3-2-0.3-2.3-1.2
				l-2.2-7.4C670.9,282.9,671.4,281.9,672.4,281.6z"/>
			<path class="st2" d="M676.3,289.2l0.2,0.2c0.8,0.7,0.9,1.8,0.2,2.6l-5,5.9c-0.7,0.8-1.8,0.9-2.6,0.2l-0.2-0.2
				c-0.8-0.7-0.9-1.8-0.2-2.6l5-5.9C674.4,288.6,675.6,288.5,676.3,289.2z"/>
		</g>
		<path class="st17" d="M668.7,295.2l4.3-5l-1.9-6.3c-0.3-1,0.3-2,1.2-2.3l0.3-0.1c1-0.3,2,0.3,2.3,1.2l2.2,7.4
			c0.2,0.5,0.1,1-0.2,1.5c-0.1,0.1-0.1,0.2-0.2,0.3l-5,5.9c-0.7,0.8-1.8,0.9-2.6,0.2l-0.2-0.2C668.1,297.2,668,296,668.7,295.2z"/>
	</g>
	<path class="st5" d="M665.8,300c-0.7-0.8-0.5-2,0.4-2.6l1.2-0.8c-0.1-0.2-0.2-0.3-0.1-0.5c0.1-0.5,0.6-0.8,1.1-0.8c0,0,0,0,0,0
		c2.3,0.3,3,3.2,1.1,4.5l-0.7,0.5C667.9,300.9,666.5,300.8,665.8,300z"/>
	<g>
		<g>
			<g>
				<polygon class="st19" points="574.6,278.9 584.7,278.8 588.3,284.5 578.2,284.8 				"/>
				<polygon class="st10" points="574.6,278.9 584.7,278.8 588.3,284.5 578.2,284.8 				"/>
			</g>
			<polygon class="st10" points="574.6,278.9 584.7,278.8 588.3,284.5 578.2,284.8 			"/>
		</g>
		<g>
			<polygon class="st19" points="574.9,278.5 584.9,278.3 588.5,284.1 578.4,284.3 			"/>
			<polygon class="st10" points="574.9,278.5 584.9,278.3 588.5,284.1 578.4,284.3 			"/>
		</g>
		<g>
			<g>
				<polygon class="st19" points="575.1,278.1 585.2,277.9 588.8,283.7 578.7,283.9 				"/>
				<polygon class="st10" points="575.1,278.1 585.2,277.9 588.8,283.7 578.7,283.9 				"/>
			</g>
			<polygon class="st10" points="575.1,278.1 585.2,277.9 588.8,283.7 578.7,283.9 			"/>
		</g>
		<g>
			<polygon class="st19" points="575.3,277.6 585.4,277.4 589,283.2 578.9,283.5 			"/>
			<polygon class="st10" points="575.3,277.6 585.4,277.4 589,283.2 578.9,283.5 			"/>
		</g>
		<polygon class="st19" points="575.5,277.2 585.6,277 589.2,282.8 579.1,283 		"/>
	</g>
	<g>
		<path class="st5" d="M582.6,285.6c0.7,0.3,1.4,0,1.7-0.7l0.4-0.9c0.1,0,0.3,0.1,0.4,0c0.3-0.1,0.5-0.5,0.3-0.8s-0.5-1.3-1.2-1.6
			s-1.4,0-1.7,0.7l-0.5,1.4C581.6,284.4,581.9,285.2,582.6,285.6z"/>
		<path class="st3" d="M582.6,285.6c0.7,0.3,1.4,0,1.7-0.7l0.4-0.9c0.1,0,0.3,0.1,0.4,0c0.3-0.1,0.5-0.5,0.3-0.8s-0.5-1.3-1.2-1.6
			s-1.4,0-1.7,0.7l-0.5,1.4C581.6,284.4,581.9,285.2,582.6,285.6z"/>
	</g>
	<g>
		<path class="st2" d="M586.7,269.1l-0.3-0.3c-0.5-0.4-1.2-0.4-1.6,0.1l-4.5,5c-0.4,0.5-0.4,1.2,0.1,1.6l0.3,0.3
			c0.5,0.4,1.2,0.4,1.6-0.1l4.5-5C587.2,270.2,587.2,269.5,586.7,269.1z"/>
		<path class="st21" d="M586.7,269.1l-0.3-0.3c-0.5-0.4-1.2-0.4-1.6,0.1l-4.5,5c-0.4,0.5-0.4,1.2,0.1,1.6l0.3,0.3
			c0.5,0.4,1.2,0.4,1.6-0.1l4.5-5C587.2,270.2,587.2,269.5,586.7,269.1z"/>
	</g>
	<g>
		<path class="st2" d="M580.9,273.6l-0.4,0.1c-0.6,0.2-1,0.8-0.8,1.4l1.9,7.1c0.2,0.6,0.8,1,1.4,0.8l0.4-0.1c0.6-0.2,1-0.8,0.8-1.4
			l-1.9-7.1C582.1,273.8,581.5,273.5,580.9,273.6z"/>
		<path class="st21" d="M580.9,273.6l-0.4,0.1c-0.6,0.2-1,0.8-0.8,1.4l1.9,7.1c0.2,0.6,0.8,1,1.4,0.8l0.4-0.1c0.6-0.2,1-0.8,0.8-1.4
			l-1.9-7.1C582.1,273.8,581.5,273.5,580.9,273.6z"/>
	</g>
	<g>
		<g>
			<path class="st5" d="M612.9,345.3l-13.7,7.6l-34.4,59.6l-7.5,6.2c-1.8,1.4-4.8,4.6-4.9,8.8v3.6l2.1-1.2c0-0.7,0-1.2,0-1.6
				c0-4.7,2.8-7,4.3-8.3l8-6.5l34.3-59.3c0,0,12.5-7,14.5-8c2-1.1,3.1-0.7,3.6-0.5l-2.7-1.2C616.5,344.4,615.4,343.9,612.9,345.3z"
				/>
		</g>
		<g>
			<path class="st5" d="M615.6,346.1l-14.5,8l-34.3,59.3l-8,6.5c-1.8,1.4-4.5,4.1-4.3,8.2l0,1.7l7.2-4.2l4.1,2.4l3.4-2.2l36.3-61.6
				l15.8-9.1v-6.1C621.2,345.6,618.6,344.6,615.6,346.1z"/>
		</g>
	</g>
	<g>
		<path class="st6" d="M619.1,345.5l0.1,0C619.1,345.6,619.1,345.5,619.1,345.5c-1-0.3-2.2-0.1-3.5,0.5l-14.5,8l-34.3,59.3l-8,6.5
			c-0.4,0.4-1,0.8-1.6,1.4c-0.7,0.7-1.4,1.6-1.9,2.7c0,0,0,0.1-0.1,0.1c0,0.1-0.1,0.2-0.1,0.3c-0.4,1-0.7,2.2-0.7,3.7
			c0,0.4,0,0.9,0,1.6l7.2-4.2l4.1,2.4l3.4-2.2l36.3-61.6l15.8-9.1v-6.1C621.2,347,620.4,345.9,619.1,345.5z"/>
	</g>
	<g class="st18">
		<path class="st19" d="M612.9,345.3l-13.7,7.6l-34.4,59.6l-7.5,6.2c-1.8,1.4-4.8,4.6-4.9,8.8v3.6l2.1-1.2c0-0.7,0-1.2,0-1.6
			c0-4.7,2.8-7,4.3-8.3l8-6.5l34.3-59.3c0,0,12.5-7,14.5-8c2-1.1,3.1-0.7,3.6-0.5l-2.7-1.2C616.5,344.4,615.4,343.9,612.9,345.3z"/>
	</g>
</g>
</svg>
