<?xml version="1.0" encoding="utf-8"?>
<!-- Generator: Adobe Illustrator 23.0.1, SVG Export Plug-In . SVG Version: 6.00 Build 0)  -->
<svg version="1.1" id="Capa_1" xmlns="http://www.w3.org/2000/svg" xmlns:xlink="http://www.w3.org/1999/xlink" x="0px" y="0px"
	 viewBox="0 0 798.5 585.2" style="enable-background:new 0 0 798.5 585.2;" xml:space="preserve">
<style type="text/css">
	.st0{display:none;}
	.st1{fill:#585799;}
	.st2{opacity:0.33;fill:#81BCBF;enable-background:new    ;}
	.st3{opacity:0.66;fill:#81BCBF;enable-background:new    ;}
	.st4{fill:#81BCBF;}
	.st5{opacity:0.66;fill:#FFFFFF;enable-background:new    ;}
	.st6{fill:#508A99;}
	.st7{opacity:0.33;fill:#508A99;enable-background:new    ;}
	.st8{opacity:0.66;fill:#508A99;enable-background:new    ;}
	.st9{fill:none;}
	.st10{opacity:0.33;fill:#FFFFFF;enable-background:new    ;}
	.st11{opacity:0.66;fill:#585799;enable-background:new    ;}
	.st12{fill:#B6CE99;}
	.st13{opacity:0.66;}
	.st14{fill:#FFFFFF;}
	.st15{opacity:0.33;}
	.st16{opacity:0.33;fill:#585799;enable-background:new    ;}
	.st17{opacity:0.33;fill:#B6CE99;enable-background:new    ;}
</style>
<g id="Ejemplo" class="st0">
</g>
<g id="Retícula" class="st0">
</g>
<g id="Números">
	<polyline class="st1" points="490.9,274.6 642.7,186.5 642.7,198.4 490.9,286.6 	"/>
	<polyline class="st1" points="490.9,286.6 378.7,222.1 378.7,210.3 490.9,274.6 	"/>
	<polyline class="st1" points="490.9,274.6 642.7,186.5 531.1,122.5 378.7,210.3 490.9,274.6 490.9,286.6 	"/>
	<polyline class="st2" points="490.9,286.6 378.7,222.1 378.7,210.3 490.9,274.6 	"/>
	<polyline class="st3" points="490.9,274.6 642.7,186.5 531.1,122.5 378.7,210.3 490.9,274.6 490.9,286.6 	"/>
	<g>
		<polygon class="st4" points="533.1,91.4 473.9,125.7 473.9,172.2 533.1,137.9 		"/>
		<polygon class="st4" points="467.6,122 473.9,125.7 533.1,91.4 526.7,87.6 		"/>
		<polygon class="st5" points="467.6,122 473.9,125.7 533.1,91.4 526.7,87.6 		"/>
		<g>
			<polygon class="st6" points="487.4,120.5 493.6,116.9 493.6,135.3 487.2,131.5 			"/>
			<polygon class="st4" points="475.7,137.9 475.7,145.4 493.6,135.3 487.2,131.5 			"/>
			<polygon class="st1" points="475.7,137.9 475.9,127.1 487.4,120.5 487.2,131.5 			"/>
			<polygon class="st7" points="475.7,137.9 475.7,145.4 493.6,135.3 487.2,131.5 			"/>
			<polygon class="st8" points="475.7,137.9 475.9,127.1 487.4,120.5 487.2,131.5 			"/>
		</g>
		<g>
			<polygon class="st6" points="506.4,109.7 512.5,106.1 512.5,124.4 506.2,120.7 			"/>
			<polygon class="st4" points="494.7,127 494.7,134.6 512.5,124.4 506.2,120.7 			"/>
			<polygon class="st1" points="494.7,127 494.8,116.3 506.4,109.7 506.2,120.7 			"/>
			<polygon class="st7" points="494.7,127 494.7,134.6 512.5,124.4 506.2,120.7 			"/>
			<polygon class="st8" points="494.7,127 494.8,116.3 506.4,109.7 506.2,120.7 			"/>
		</g>
		<g>
			<polygon class="st6" points="525.3,98.6 531.4,95 531.4,113.3 525.1,109.6 			"/>
			<polygon class="st4" points="513.6,116 513.6,123.5 531.4,113.3 525.1,109.6 			"/>
			<polygon class="st1" points="513.6,116 513.7,105.2 525.3,98.6 525.1,109.6 			"/>
			<polygon class="st7" points="513.6,116 513.6,123.5 531.4,113.3 525.1,109.6 			"/>
			<polygon class="st8" points="513.6,116 513.7,105.2 525.3,98.6 525.1,109.6 			"/>
		</g>
		<g>
			<polygon class="st6" points="487.4,140.5 493.6,136.9 493.6,155.3 487.2,151.5 			"/>
			<polygon class="st4" points="475.7,157.9 475.7,165.4 493.6,155.3 487.2,151.5 			"/>
			<polygon class="st1" points="475.7,157.9 475.9,147.1 487.4,140.5 487.2,151.5 			"/>
			<polygon class="st7" points="475.7,157.9 475.7,165.4 493.6,155.3 487.2,151.5 			"/>
			<polygon class="st8" points="475.7,157.9 475.9,147.1 487.4,140.5 487.2,151.5 			"/>
		</g>
		<g>
			<polygon class="st6" points="506.4,129.7 512.5,126.1 512.5,144.4 506.2,140.7 			"/>
			<polygon class="st4" points="494.7,147 494.7,154.6 512.5,144.4 506.2,140.7 			"/>
			<polygon class="st1" points="494.7,147 494.8,136.3 506.4,129.7 506.2,140.7 			"/>
			<polygon class="st7" points="494.7,147 494.7,154.6 512.5,144.4 506.2,140.7 			"/>
			<polygon class="st8" points="494.7,147 494.8,136.3 506.4,129.7 506.2,140.7 			"/>
		</g>
		<g>
			<polygon class="st6" points="525.3,118.6 531.4,115 531.4,133.3 525.1,129.6 			"/>
			<polygon class="st4" points="513.6,136 513.6,143.5 531.4,133.3 525.1,129.6 			"/>
			<polygon class="st1" points="513.6,136 513.7,125.2 525.3,118.6 525.1,129.6 			"/>
			<polygon class="st7" points="513.6,136 513.6,143.5 531.4,133.3 525.1,129.6 			"/>
			<polygon class="st8" points="513.6,136 513.7,125.2 525.3,118.6 525.1,129.6 			"/>
		</g>
		<line class="st9" x1="525.1" y1="109.6" x2="531.4" y2="113.3"/>
		<g>
			<polygon class="st6" points="529.2,107.2 522.1,111.4 522.1,117.8 529,113.6 529.1,109.2 529.2,109.1 			"/>
			<g>
				<polygon class="st2" points="529.2,107.2 522.1,111.4 522.1,117.8 529,113.6 529.1,109.2 529.2,109.1 				"/>
				<polygon class="st4" points="515.9,108.4 522.1,111.4 522.1,117.8 516,114.8 516,110.2 515.9,110.2 515.9,109.7 				"/>
				<polygon class="st10" points="528.4,110.5 522.8,113.7 522.8,116.6 528.4,113.2 				"/>
				<polygon class="st4" points="529.2,107.2 522.1,111.4 515.9,108.4 523,104.2 				"/>
				<polygon class="st5" points="529.2,107.2 522.1,111.4 515.9,108.4 523,104.2 				"/>
				<polygon class="st8" points="522.1,113.5 522.1,113.2 516,110.2 516,110.5 				"/>
				<polygon class="st11" points="522.1,113.5 522.1,113.2 529.1,109.2 529.1,109.5 				"/>
			</g>
		</g>
		<g>
			<polygon class="st12" points="491.3,148.4 484.2,152.7 484.2,159 491.1,154.8 491.2,150.5 491.3,150.4 			"/>
			<g>
				<polygon class="st2" points="491.3,148.4 484.2,152.7 484.2,159 491.1,154.8 491.2,150.5 491.3,150.4 				"/>
				<polygon class="st12" points="478,149.7 484.2,152.7 484.2,159 478.1,156.1 478.1,151.5 478,151.5 478,151 				"/>
				<polygon class="st10" points="490.5,151.8 484.9,155 484.9,157.8 490.5,154.5 				"/>
				<polygon class="st12" points="491.3,148.4 484.2,152.7 478,149.7 485.1,145.4 				"/>
				<polygon class="st10" points="491.3,148.4 484.2,152.7 478,149.7 485.1,145.4 				"/>
				<polygon class="st3" points="484.2,154.7 484.2,154.4 478.1,151.5 478.1,151.8 				"/>
				<polygon class="st8" points="484.2,154.7 484.2,154.4 491.2,150.5 491.2,150.7 				"/>
			</g>
		</g>
		<g>
			<g>
				<g>
					<polygon class="st4" points="491.6,126.2 489.9,127.2 489.9,136.5 491.6,135.5 					"/>
					<polygon class="st4" points="483.6,124.2 489.9,127.2 489.9,136.5 483.6,133.5 					"/>
					<polygon class="st5" points="485.5,126.8 488,128.1 488,129.9 485.5,128.7 					"/>
					<polygon class="st5" points="491.3,128.3 490.2,128.9 490.2,134.5 491.3,133.9 					"/>
					<polygon class="st4" points="491.6,126.2 489.9,127.2 483.6,124.2 485.4,123.2 					"/>
					<polygon class="st5" points="491.6,126.2 489.9,127.2 483.6,124.2 485.4,123.2 					"/>
					<polygon class="st5" points="490.8,126.1 489.5,126.8 483.9,124.1 485.2,123.4 					"/>
					<polygon class="st5" points="489.8,126.7 489.5,126.8 483.9,124.1 484.2,123.9 					"/>
					<polygon class="st5" points="490.1,126.5 489.9,126.6 484.3,123.9 484.5,123.7 					"/>
					<polygon class="st5" points="490.5,126.3 490.3,126.4 484.6,123.7 484.9,123.5 					"/>
					<polygon class="st5" points="490.8,126.1 490.6,126.2 485,123.5 485.2,123.4 					"/>
				</g>
				<polygon class="st10" points="483.6,124.2 489.9,127.2 489.9,136.5 483.6,133.5 				"/>
			</g>
			<g>
				<g>
					<polygon class="st1" points="489.6,127.3 487.9,128.3 487.9,137.6 489.6,136.6 					"/>
					<polygon class="st1" points="481.6,125.3 487.9,128.3 487.9,137.6 481.6,134.6 					"/>
					<polygon class="st5" points="483.5,127.9 486,129.2 486,131 483.5,129.8 					"/>
					<polygon class="st5" points="489.3,129.4 488.2,130 488.2,135.6 489.3,135 					"/>
					<polygon class="st1" points="489.6,127.3 487.9,128.3 481.6,125.3 483.4,124.3 					"/>
					<polygon class="st5" points="489.6,127.3 487.9,128.3 481.6,125.3 483.4,124.3 					"/>
					<polygon class="st5" points="488.8,127.2 487.5,127.9 481.9,125.2 483.2,124.4 					"/>
					<polygon class="st5" points="487.8,127.7 487.5,127.9 481.9,125.2 482.2,125 					"/>
					<polygon class="st5" points="488.1,127.6 487.9,127.7 482.3,125 482.5,124.8 					"/>
					<polygon class="st5" points="488.5,127.4 488.3,127.5 482.6,124.8 482.9,124.6 					"/>
					<polygon class="st5" points="488.8,127.2 488.6,127.3 483,124.6 483.2,124.4 					"/>
				</g>
				<polygon class="st2" points="481.6,125.3 487.9,128.3 487.9,137.6 481.6,134.6 				"/>
			</g>
			<g>
				<polygon class="st12" points="487.6,128.4 485.9,129.4 485.9,138.7 487.6,137.7 				"/>
				<polygon class="st12" points="479.6,126.4 485.9,129.4 485.9,138.7 479.6,135.7 				"/>
				<polygon class="st5" points="481.5,129 484,130.3 484,132.1 481.5,130.9 				"/>
				<polygon class="st12" points="487.6,128.4 485.9,129.4 479.6,126.4 481.4,125.4 				"/>
				<polygon class="st10" points="487.6,128.4 485.9,129.4 479.6,126.4 481.4,125.4 				"/>
				<polygon class="st5" points="486.8,128.3 485.5,129 479.9,126.3 481.2,125.5 				"/>
				<polygon class="st5" points="485.8,128.8 485.5,129 479.9,126.3 480.2,126.1 				"/>
				<polygon class="st5" points="486.1,128.7 485.9,128.8 480.3,126.1 480.5,125.9 				"/>
				<polygon class="st5" points="486.5,128.5 486.3,128.6 480.6,125.9 480.9,125.7 				"/>
				<polygon class="st5" points="486.8,128.3 486.6,128.4 481,125.7 481.2,125.5 				"/>
				<polygon class="st5" points="487.3,130.5 486.2,131.1 486.2,136.7 487.3,136.1 				"/>
			</g>
			<g>
				<polygon class="st6" points="485.6,129.5 483.9,130.5 483.9,139.8 485.6,138.8 				"/>
				<polygon class="st4" points="477.6,127.5 483.9,130.5 483.9,139.8 477.6,136.8 				"/>
				<polygon class="st5" points="479.5,130.1 482,131.4 482,133.2 479.5,132 				"/>
				<polygon class="st5" points="485.3,131.6 484.2,132.2 484.2,137.8 485.3,137.2 				"/>
				<polygon class="st6" points="485.6,129.5 483.9,130.5 477.6,127.5 479.4,126.5 				"/>
				<polygon class="st3" points="485.6,129.5 483.9,130.5 477.6,127.5 479.4,126.5 				"/>
				<polygon class="st5" points="484.8,129.4 483.5,130.1 477.9,127.4 479.2,126.6 				"/>
				<polygon class="st5" points="483.8,130 483.5,130.1 477.9,127.4 478.2,127.2 				"/>
				<polygon class="st5" points="484.1,129.8 483.9,129.9 478.3,127.2 478.5,127 				"/>
				<polygon class="st5" points="484.5,129.6 484.3,129.7 478.6,127 478.9,126.8 				"/>
				<polygon class="st5" points="484.8,129.4 484.6,129.5 479,126.8 479.2,126.6 				"/>
			</g>
			<polygon class="st7" points="487.6,128.4 485.9,129.4 485.9,138.7 487.6,137.7 			"/>
		</g>
		<g>
			<g>
				<polygon class="st4" points="510.6,114.8 508.8,115.8 508.8,125.2 510.6,124.2 				"/>
				<polygon class="st4" points="502.6,112.8 508.8,115.8 508.8,125.2 502.6,122.2 				"/>
				<polygon class="st5" points="504.4,115.5 506.9,116.7 506.9,118.5 504.4,117.3 				"/>
				<polygon class="st5" points="510.2,116.9 509.1,117.5 509.1,123.1 510.2,122.5 				"/>
				<polygon class="st4" points="510.6,114.8 508.8,115.8 502.6,112.8 504.3,111.8 				"/>
				<polygon class="st5" points="510.6,114.8 508.8,115.8 502.6,112.8 504.3,111.8 				"/>
				<polygon class="st5" points="509.7,114.7 508.5,115.4 502.8,112.7 504.1,112 				"/>
				<polygon class="st5" points="508.7,115.3 508.5,115.4 502.8,112.7 503.1,112.6 				"/>
				<polygon class="st5" points="509,115.1 508.8,115.2 503.2,112.5 503.4,112.4 				"/>
				<polygon class="st5" points="509.4,114.9 509.2,115 503.6,112.3 503.8,112.2 				"/>
				<polygon class="st5" points="509.7,114.7 509.5,114.8 503.9,112.1 504.1,112 				"/>
			</g>
			<polygon class="st10" points="502.6,112.8 508.8,115.8 508.8,125.2 502.6,122.2 			"/>
		</g>
		<g>
			<g>
				<polygon class="st1" points="508.6,115.9 506.8,116.9 506.8,126.2 508.6,125.2 				"/>
				<polygon class="st1" points="500.6,113.9 506.8,116.9 506.8,126.2 500.6,123.2 				"/>
				<polygon class="st5" points="502.4,116.6 504.9,117.8 504.9,119.6 502.4,118.4 				"/>
				<polygon class="st5" points="508.2,118 507.1,118.6 507.1,124.2 508.2,123.6 				"/>
				<polygon class="st1" points="508.6,115.9 506.8,116.9 500.6,113.9 502.3,112.9 				"/>
				<polygon class="st5" points="508.6,115.9 506.8,116.9 500.6,113.9 502.3,112.9 				"/>
				<polygon class="st5" points="507.7,115.8 506.5,116.5 500.8,113.8 502.1,113.1 				"/>
				<polygon class="st5" points="506.7,116.4 506.5,116.5 500.8,113.8 501.1,113.6 				"/>
				<polygon class="st5" points="507,116.2 506.8,116.3 501.2,113.6 501.4,113.5 				"/>
				<polygon class="st5" points="507.4,116 507.2,116.1 501.6,113.4 501.8,113.2 				"/>
				<polygon class="st5" points="507.7,115.8 507.5,115.9 501.9,113.2 502.1,113.1 				"/>
			</g>
			<polygon class="st2" points="500.6,113.9 506.8,116.9 506.8,126.2 500.6,123.2 			"/>
		</g>
		<g>
			<g>
				<polygon class="st1" points="482.9,151 481.1,152 481.1,161.3 482.9,160.3 				"/>
				<polygon class="st1" points="474.9,149 481.1,152 481.1,161.3 474.9,158.3 				"/>
				<polygon class="st5" points="476.8,151.6 479.3,152.8 479.3,154.7 476.8,153.4 				"/>
				<polygon class="st5" points="482.6,153 481.5,153.6 481.5,159.2 482.6,158.6 				"/>
				<polygon class="st1" points="482.9,151 481.1,152 474.9,149 476.7,148 				"/>
				<polygon class="st5" points="482.9,151 481.1,152 474.9,149 476.7,148 				"/>
				<polygon class="st5" points="482.1,150.8 480.8,151.5 475.2,148.8 476.5,148.1 				"/>
				<polygon class="st5" points="481.1,151.4 480.8,151.5 475.2,148.8 475.5,148.7 				"/>
				<polygon class="st5" points="481.4,151.2 481.2,151.3 475.6,148.6 475.8,148.5 				"/>
				<polygon class="st5" points="481.8,151 481.6,151.1 475.9,148.4 476.2,148.3 				"/>
				<polygon class="st5" points="482.1,150.8 481.9,150.9 476.3,148.2 476.5,148.1 				"/>
			</g>
			<polygon class="st2" points="474.9,149 481.1,152 481.1,161.3 474.9,158.3 			"/>
		</g>
		<g>
			<polygon class="st12" points="480.9,152.1 479.1,153.1 479.1,162.4 480.9,161.4 			"/>
			<polygon class="st12" points="472.9,150.1 479.1,153.1 479.1,162.4 472.9,159.4 			"/>
			<polygon class="st5" points="474.8,152.7 477.3,153.9 477.3,155.8 474.8,154.5 			"/>
			<polygon class="st12" points="480.9,152.1 479.1,153.1 472.9,150.1 474.7,149.1 			"/>
			<polygon class="st10" points="480.9,152.1 479.1,153.1 472.9,150.1 474.7,149.1 			"/>
			<polygon class="st5" points="480.1,151.9 478.8,152.6 473.2,149.9 474.5,149.2 			"/>
			<polygon class="st5" points="479.1,152.5 478.8,152.6 473.2,149.9 473.5,149.8 			"/>
			<polygon class="st5" points="479.4,152.3 479.2,152.4 473.6,149.7 473.8,149.6 			"/>
			<polygon class="st5" points="479.8,152.1 479.6,152.2 473.9,149.5 474.2,149.4 			"/>
			<polygon class="st5" points="480.1,151.9 479.9,152 474.3,149.3 474.5,149.2 			"/>
			<polygon class="st5" points="480.6,154.1 479.5,154.7 479.5,160.3 480.6,159.7 			"/>
		</g>
		<polygon class="st7" points="480.9,152.1 479.1,153.1 479.1,162.4 480.9,161.4 		"/>
		<g>
			<polygon class="st1" points="508.6,139.7 501.4,144 501.4,150.3 508.4,146.1 508.4,141.7 508.6,141.6 			"/>
			<polygon class="st2" points="508.6,139.7 501.4,144 501.4,150.3 508.4,146.1 508.4,141.7 508.6,141.6 			"/>
			<polygon class="st1" points="495.2,141 501.4,144 501.4,150.3 495.4,147.4 495.4,142.8 495.2,142.7 495.2,142.2 			"/>
			<polygon class="st10" points="507.8,143.1 502.2,146.3 502.2,149.1 507.8,145.7 			"/>
			<polygon class="st1" points="508.6,139.7 501.4,144 495.2,141 502.3,136.7 			"/>
			<polygon class="st3" points="508.6,139.7 501.4,144 495.2,141 502.3,136.7 			"/>
			<polygon class="st11" points="501.4,146 501.4,145.7 508.4,141.7 508.4,142 			"/>
			<polygon class="st3" points="495.2,141 501.4,144 501.4,150.3 495.4,147.4 495.4,142.8 495.2,142.7 495.2,142.2 			"/>
			<polygon class="st10" points="508.6,139.7 501.4,144 495.2,141 502.3,136.7 			"/>
			<polygon class="st11" points="501.4,146 501.4,145.7 495.4,142.8 495.4,143 			"/>
		</g>
		<g>
			<polygon class="st4" points="467.6,122 473.9,125.7 473.9,172.2 467.6,168.4 			"/>
			<polygon class="st10" points="467.6,122 473.9,125.7 473.9,172.2 467.6,168.4 			"/>
		</g>
		<g>
			<polygon class="st6" points="506.1,119.3 504.5,119.1 502.5,127.8 504.3,127.8 			"/>
			<polygon class="st4" points="498.3,116.1 504.5,119.1 502.5,127.8 496.3,124.8 			"/>
			<polygon class="st5" points="499.7,118.8 502.2,120.1 501.8,122 499.2,120.8 			"/>
			<polygon class="st5" points="505.5,120.4 504.6,120.3 503.2,126.3 504.2,126.3 			"/>
			<polygon class="st3" points="506.1,119.3 504.5,119.1 498.3,116.1 499.9,116.3 			"/>
			<polygon class="st10" points="505.5,119.1 504.6,119 498.8,116.1 499.7,116.3 			"/>
		</g>
		<g>
			<polygon class="st12" points="530,125.6 528.4,125.4 526.4,134.1 528.1,134.1 			"/>
			<polygon class="st12" points="522.2,122.4 528.4,125.4 526.4,134.1 520.1,131.1 			"/>
			<polygon class="st5" points="523.6,125.1 526.1,126.4 525.7,128.3 523.1,127.1 			"/>
			<polygon class="st12" points="530,125.6 528.4,125.4 522.2,122.4 523.8,122.6 			"/>
			<polygon class="st10" points="529.4,125.4 528.5,125.3 522.7,122.4 523.6,122.6 			"/>
			<polygon class="st7" points="530,125.6 528.4,125.4 526.4,134.1 528.1,134.1 			"/>
			<polygon class="st5" points="529.4,126.8 528.5,126.7 527.1,132.7 528.1,132.7 			"/>
			<polygon class="st10" points="530,125.6 528.4,125.4 522.2,122.4 523.8,122.6 			"/>
		</g>
		<g>
			<g>
				<polygon class="st4" points="525,126.2 523.2,127.2 523.2,136.5 525,135.5 				"/>
				<polygon class="st4" points="517,124.2 523.2,127.2 523.2,136.5 517,133.5 				"/>
				<polygon class="st5" points="518.9,126.8 521.4,128 521.4,129.9 518.9,128.6 				"/>
				<polygon class="st5" points="524.7,128.2 523.6,128.8 523.6,134.5 524.7,133.9 				"/>
				<polygon class="st4" points="525,126.2 523.2,127.2 517,124.2 518.8,123.2 				"/>
				<polygon class="st5" points="525,126.2 523.2,127.2 517,124.2 518.8,123.2 				"/>
				<polygon class="st5" points="524.2,126 522.9,126.7 517.3,124 518.6,123.3 				"/>
				<polygon class="st5" points="523.2,126.6 522.9,126.7 517.3,124 517.6,123.9 				"/>
				<polygon class="st5" points="523.5,126.4 523.3,126.5 517.7,123.8 517.9,123.7 				"/>
				<polygon class="st5" points="523.9,126.2 523.7,126.4 518,123.6 518.3,123.5 				"/>
				<polygon class="st5" points="524.2,126 524,126.2 518.4,123.4 518.6,123.3 				"/>
			</g>
			<polygon class="st10" points="517,124.2 523.2,127.2 523.2,136.5 517,133.5 			"/>
		</g>
		<g>
			<g>
				<polygon class="st1" points="523,127.3 521.2,128.3 521.2,137.6 523,136.6 				"/>
				<polygon class="st1" points="515,125.3 521.2,128.3 521.2,137.6 515,134.6 				"/>
				<polygon class="st5" points="516.9,127.9 519.4,129.1 519.4,131 516.9,129.7 				"/>
				<polygon class="st5" points="522.7,129.3 521.6,129.9 521.6,135.6 522.7,134.9 				"/>
				<polygon class="st1" points="523,127.3 521.2,128.3 515,125.3 516.8,124.3 				"/>
				<polygon class="st5" points="523,127.3 521.2,128.3 515,125.3 516.8,124.3 				"/>
				<polygon class="st5" points="522.2,127.1 520.9,127.8 515.3,125.1 516.6,124.4 				"/>
				<polygon class="st5" points="521.2,127.7 520.9,127.8 515.3,125.1 515.6,125 				"/>
				<polygon class="st5" points="521.5,127.5 521.3,127.6 515.7,124.9 515.9,124.8 				"/>
				<polygon class="st5" points="521.9,127.3 521.7,127.4 516,124.7 516.3,124.6 				"/>
				<polygon class="st5" points="522.2,127.1 522,127.3 516.4,124.5 516.6,124.4 				"/>
			</g>
			<polygon class="st2" points="515,125.3 521.2,128.3 521.2,137.6 515,134.6 			"/>
		</g>
		<g>
			<polygon class="st12" points="521,128.4 519.2,129.4 519.2,138.7 521,137.7 			"/>
			<polygon class="st12" points="513,126.4 519.2,129.4 519.2,138.7 513,135.7 			"/>
			<polygon class="st5" points="514.9,129 517.4,130.2 517.4,132.1 514.9,130.8 			"/>
			<polygon class="st12" points="521,128.4 519.2,129.4 513,126.4 514.8,125.4 			"/>
			<polygon class="st10" points="521,128.4 519.2,129.4 513,126.4 514.8,125.4 			"/>
			<polygon class="st5" points="520.2,128.2 518.9,128.9 513.3,126.2 514.6,125.5 			"/>
			<polygon class="st5" points="519.2,128.8 518.9,128.9 513.3,126.2 513.6,126.1 			"/>
			<polygon class="st5" points="519.5,128.6 519.3,128.7 513.7,126 513.9,125.9 			"/>
			<polygon class="st5" points="519.9,128.4 519.7,128.5 514,125.8 514.3,125.7 			"/>
			<polygon class="st5" points="520.2,128.2 520,128.4 514.4,125.6 514.6,125.5 			"/>
			<polygon class="st5" points="520.7,130.4 519.6,131 519.6,136.7 520.7,136.1 			"/>
		</g>
		<polygon class="st7" points="521,128.4 519.2,129.4 519.2,138.7 521,137.7 		"/>
		<polygon class="st5" points="519.2,128.8 518.9,128.9 513.3,126.2 513.6,126.1 		"/>
		<path class="st4" d="M473.9,125.7v46.5l59.2-34.3V91.4L473.9,125.7z M493.6,155.3l-17.8,10.2V158l0.1-10.8l11.6-6.6l6.1-3.6
			L493.6,155.3z M493.6,135.3l-17.8,10.2V138l0.1-10.8l11.6-6.6l6.1-3.6L493.6,135.3z M512.5,144.4l-17.8,10.2v-7.5l0.1-10.8
			l11.6-6.6l6.1-3.6V144.4z M512.5,124.4l-17.8,10.2v-7.5l0.1-10.8l11.6-6.6l6.1-3.6V124.4z M531.4,133.3l-17.8,10.2V136l0.1-10.8
			l11.6-6.6l6.1-3.6L531.4,133.3z M531.4,113.3l-17.8,10.2V116l0.1-10.8l11.6-6.6l6.1-3.6L531.4,113.3z"/>
	</g>
	<g>
		<g>
			<g>
				<polygon class="st4" points="462,166.3 463.1,167 463.1,179.8 462,179.1 				"/>
				<polygon class="st4" points="470.9,162.6 463.1,167 463.1,179.8 470.9,175.4 				"/>
			</g>
			<g>
				<polygon class="st4" points="462,166.3 463.1,167 463.1,179.8 462,179.1 				"/>
				<polygon class="st4" points="470.9,162.6 463.1,167 462,166.3 469.8,161.9 				"/>
			</g>
			<polygon class="st6" points="462,166.3 463.1,167 463.1,179.8 462,179.1 			"/>
			<polygon class="st5" points="470.9,162.6 463.1,167 462,166.3 469.8,161.9 			"/>
			<polygon class="st4" points="462,166.3 463.1,167 463.1,179.8 462,179.1 			"/>
			<polygon class="st10" points="470.9,162.6 463.1,167 463.1,179.8 470.9,175.4 			"/>
		</g>
		<g>
			<g>
				<polygon class="st6" points="471.4,183.9 470.4,184.5 470.4,193.3 471.4,192.7 				"/>
			</g>
			<polygon class="st1" points="469.4,183.8 470.4,184.5 470.4,193.3 469.4,192.6 			"/>
		</g>
		<g>
			<g>
				<polygon class="st6" points="464.8,180.6 463.9,181.2 463.9,190 464.8,189.5 				"/>
			</g>
			<polygon class="st1" points="462.9,180.5 463.9,181.2 463.9,190 462.9,189.4 			"/>
		</g>
		<g>
			<g>
				<polygon class="st6" points="478.4,180.1 477.4,180.6 477.4,189.5 478.4,188.9 				"/>
			</g>
			<polygon class="st1" points="476.4,180 477.4,180.6 477.4,189.5 476.4,188.8 			"/>
		</g>
		<g>
			<g>
				<g>
					<polygon class="st4" points="478.3,178.3 470.5,182.7 470.5,184.4 478.3,180 					"/>
				</g>
				<g>
					<polygon class="st4" points="478.3,178.3 470.5,182.7 463,178.2 470.8,173.8 					"/>
				</g>
				<polygon class="st6" points="463,178.2 470.5,182.7 470.5,184.4 463,179.9 				"/>
			</g>
			<g>
				<polygon class="st4" points="478.3,178.3 470.5,182.7 470.5,184.4 478.3,180 				"/>
			</g>
			<g class="st13">
				<polygon class="st14" points="478.3,178.3 470.5,182.7 463,178.2 470.8,173.8 				"/>
			</g>
			<polygon class="st4" points="463,178.2 470.5,182.7 470.5,184.4 463,179.9 			"/>
			<g class="st15">
				<polygon class="st14" points="478.3,178.3 470.5,182.7 470.5,184.4 478.3,180 				"/>
			</g>
		</g>
	</g>
	<g>
		<path class="st4" d="M473.9,161.7L473.9,161.7c-0.6,0.8-0.4,1.9,0.4,2.4l5.2,3.7c0.8,0.6,1.9,0.4,2.4-0.4l0,0
			c0.6-0.8,0.4-1.9-0.4-2.4l-5.2-3.7C475.6,160.7,474.5,160.9,473.9,161.7z"/>
		<path class="st16" d="M473.9,161.7L473.9,161.7c-0.6,0.8-0.4,1.9,0.4,2.4l5.2,3.7c0.8,0.6,1.9,0.4,2.4-0.4l0,0
			c0.6-0.8,0.4-1.9-0.4-2.4l-5.2-3.7C475.6,160.7,474.5,160.9,473.9,161.7z"/>
	</g>
	<g>
		<path class="st4" d="M473.3,175.3l-0.2,0.2c-0.6,0.8-0.4,1.9,0.4,2.4l5.8,4.2c0.8,0.6,1.9,0.4,2.4-0.4l0.2-0.2
			c0.6-0.8,0.4-1.9-0.4-2.4l-5.8-4.2C474.9,174.3,473.8,174.5,473.3,175.3z"/>
		<path class="st16" d="M473.3,175.3l-0.2,0.2c-0.6,0.8-0.4,1.9,0.4,2.4l5.8,4.2c0.8,0.6,1.9,0.4,2.4-0.4l0.2-0.2
			c0.6-0.8,0.4-1.9-0.4-2.4l-5.8-4.2C474.9,174.3,473.8,174.5,473.3,175.3z"/>
	</g>
	<g>
		<path class="st4" d="M469.2,176.2l-0.4,0.5c-0.6,0.7-0.6,1.8,0.1,2.5l5.6,5.1c0.7,0.6,1.8,0.6,2.5-0.1l0.4-0.5
			c0.6-0.7,0.6-1.8-0.1-2.5l-5.6-5.1C470.9,175.5,469.8,175.5,469.2,176.2z"/>
		<path class="st16" d="M469.2,176.2l-0.4,0.5c-0.6,0.7-0.6,1.8,0.1,2.5l5.6,5.1c0.7,0.6,1.8,0.6,2.5-0.1l0.4-0.5
			c0.6-0.7,0.6-1.8-0.1-2.5l-5.6-5.1C470.9,175.5,469.8,175.5,469.2,176.2z"/>
	</g>
	<g>
		<path class="st4" d="M480,164.5L480,164.5c-0.9,0.3-1.3,1.4-1,2.2l2.3,6c0.3,0.9,1.4,1.3,2.2,1l0,0c0.9-0.3,1.3-1.4,1-2.2l-2.3-6
			C481.9,164.6,480.9,164.2,480,164.5z"/>
		<path class="st16" d="M480,164.5L480,164.5c-0.9,0.3-1.3,1.4-1,2.2l2.3,6c0.3,0.9,1.4,1.3,2.2,1l0,0c0.9-0.3,1.3-1.4,1-2.2l-2.3-6
			C481.9,164.6,480.9,164.2,480,164.5z"/>
	</g>
	<path class="st6" d="M468.1,179.4l7.7-3.7c0.2-0.1,0.4-0.3,0.4-0.6v-15l-2.2-0.8c-1.7-0.6-3.6-0.2-4.9,1.1l-0.8,0.8
		c-1.1,1.1-1.7,2.6-1.6,4.2l0.4,13.4C467.2,179.3,467.7,179.6,468.1,179.4z"/>
	<g>
		<path class="st12" d="M483.2,177.1c-0.9-0.3-1.4-1.2-1.2-2l0.2-1.1c-0.1-0.1-0.3-0.2-0.4-0.3c-0.2-0.4-0.1-0.8,0.2-1
			s1.3-0.7,2.2-0.3c0.9,0.4,1.4,1.2,1.2,2L485,176C484.9,176.8,484.1,177.3,483.2,177.1z"/>
		<path class="st2" d="M483.2,177.1c-0.9-0.3-1.4-1.2-1.2-2l0.2-1.1c-0.1-0.1-0.3-0.2-0.4-0.3c-0.2-0.4-0.1-0.8,0.2-1
			s1.3-0.7,2.2-0.3c0.9,0.4,1.4,1.2,1.2,2L485,176C484.9,176.8,484.1,177.3,483.2,177.1z"/>
	</g>
	<g>
		<path class="st4" d="M473.9,161.1h0.3c1.2,0.2,2.2-0.6,2.4-1.8l0.3-2.3c0.2-1.2-0.6-2.2-1.8-2.4h-0.3c-1.2-0.2-2.2,0.6-2.4,1.8
			l-0.3,2.3C471.9,159.8,472.7,160.9,473.9,161.1z"/>
		<path class="st17" d="M473.9,161.1h0.3c1.2,0.2,2.2-0.6,2.4-1.8l0.3-2.3c0.2-1.2-0.6-2.2-1.8-2.4h-0.3c-1.2-0.2-2.2,0.6-2.4,1.8
			l-0.3,2.3C471.9,159.8,472.7,160.9,473.9,161.1z"/>
	</g>
	<g>
		<path class="st1" d="M477.2,154.6c0.6,0.7-0.1,0.9-0.7,1.1l-2,0.6c-1.2,0.7-1.3,3-1.3,3c-0.5,0.2-1.2,0-1.4-0.6
			c0,0-0.4-4.3,0.2-4.6c0,0,0.8-0.3,1.8-0.5c0.3-0.1,0.7-0.4,1.1-0.4c0.3,0,0.6,0.5,0.9,0.6C476.1,154.1,476.9,154.2,477.2,154.6z"
			/>
	</g>
	<g>
		<path class="st4" d="M469.1,172.1L469.1,172.1c-0.9,0.3-1.3,1.4-1,2.2l2.3,6c0.3,0.9,1.4,1.3,2.2,1l0,0c0.9-0.3,1.3-1.4,1-2.2
			l-2.3-6C471,172.2,470,171.7,469.1,172.1z"/>
		<path class="st16" d="M469.1,172.1L469.1,172.1c-0.9,0.3-1.3,1.4-1,2.2l2.3,6c0.3,0.9,1.4,1.3,2.2,1l0,0c0.9-0.3,1.3-1.4,1-2.2
			l-2.3-6C471,172.2,470,171.7,469.1,172.1z"/>
	</g>
	<g>
		<path class="st4" d="M468.3,163.1L468.3,163.1c-1,0.1-1.7,0.9-1.6,1.9l0.8,8.2c0.1,1,0.9,1.7,1.9,1.6l0,0c1-0.1,1.7-0.9,1.6-1.9
			l-0.8-8.2C470.1,163.7,469.3,163,468.3,163.1z"/>
		<path class="st16" d="M468.3,163.1L468.3,163.1c-1,0.1-1.7,0.9-1.6,1.9l0.8,8.2c0.1,1,0.9,1.7,1.9,1.6l0,0c1-0.1,1.7-0.9,1.6-1.9
			l-0.8-8.2C470.1,163.7,469.3,163,468.3,163.1z"/>
	</g>
	<polygon class="st1" points="469.3,222.3 468.3,223 468.4,232.5 469.4,231.8 	"/>
	<g>
		<polygon class="st4" points="454.5,220.5 462.3,224.8 469.8,220.3 462,215.9 		"/>
		<polygon class="st5" points="454.5,220.5 462.3,224.8 469.8,220.3 462,215.9 		"/>
		<polygon class="st4" points="469.8,220.3 462.3,224.8 462.3,226.6 469.8,222.1 		"/>
	</g>
	<path class="st6" d="M470.3,225.8c0,0.6,1.7,1.5,2.1,0.2c0.4-1.2,0-9.6,0-9.6c0-0.6-1.1-1.1-1.1-1.1c-0.7-0.1-1.5,1.3-1.5,2
		L470.3,225.8z"/>
	<path class="st6" d="M470.6,218.4l-5.4,3.4c-2.6,1.6-6,1.3-8-0.9c-1.1-1.2-1.7-2.7-1.7-4.2l0,0l9.6-3.2h0.6c0.8,0,1.6,0.6,1.7,1.4
		l0,0l-3.1,2l3.3-1.3c0.8-0.3,1.7-0.4,2.6-0.3l0.6,0.1L470.6,218.4z"/>
	<path class="st1" d="M465.2,227.1c0,0.1,0,0.1,0,0.2l0.7,0.5l2.9,2.6l0,0c0.4-0.6,0.6-1.4,0.3-2.1c-0.5-1.2-1.2-2.3-2.2-3.1l0,0
		L465.2,227.1z"/>
	<path class="st1" d="M468.7,227.1c0,0.1,0,0.1,0,0.2l0.7,0.5l3.2,2.8l0,0c0.7-1.1,0.7-2.5-0.1-3.4c-0.6-0.7-1.4-1.4-2.1-2l0,0
		L468.7,227.1z"/>
	<g>
		<g>
			<g>
				<g>
					<polygon class="st4" points="438.8,182 439.9,182.7 439.9,195.4 438.8,194.7 					"/>
					<polygon class="st4" points="447.7,178.3 439.9,182.7 439.9,195.4 447.7,191 					"/>
				</g>
				<g>
					<polygon class="st4" points="438.8,182 439.9,182.7 439.9,195.4 438.8,194.7 					"/>
					<polygon class="st4" points="447.7,178.3 439.9,182.7 438.8,182 446.6,177.6 					"/>
				</g>
				<polygon class="st6" points="438.8,182 439.9,182.7 439.9,195.4 438.8,194.7 				"/>
				<polygon class="st5" points="447.7,178.3 439.9,182.7 438.8,182 446.6,177.6 				"/>
				<polygon class="st4" points="438.8,182 439.9,182.7 439.9,195.4 438.8,194.7 				"/>
				<polygon class="st10" points="447.7,178.3 439.9,182.7 439.9,195.4 447.7,191 				"/>
			</g>
			<g>
				<g>
					<polygon class="st6" points="448.2,199.6 447.2,200.1 447.2,209 448.2,208.4 					"/>
				</g>
				<polygon class="st1" points="446.2,199.4 447.2,200.1 447.2,209 446.2,208.3 				"/>
			</g>
			<g>
				<g>
					<polygon class="st6" points="441.7,196.3 440.7,196.9 440.7,205.7 441.7,205.1 					"/>
				</g>
				<polygon class="st1" points="439.7,196.2 440.7,196.9 440.7,205.7 439.7,205 				"/>
			</g>
			<g>
				<g>
					<polygon class="st6" points="455.2,195.7 454.3,196.3 454.3,205.2 455.2,204.6 					"/>
				</g>
				<polygon class="st1" points="453.2,195.6 454.3,196.3 454.3,205.2 453.2,204.5 				"/>
			</g>
			<g>
				<g>
					<g>
						<polygon class="st4" points="455.1,194 447.3,198.3 447.3,200.1 455.1,195.7 						"/>
					</g>
					<g>
						<polygon class="st4" points="455.1,194 447.3,198.3 439.8,193.8 447.6,189.4 						"/>
					</g>
					<polygon class="st6" points="439.8,193.8 447.3,198.3 447.3,200.1 439.8,195.6 					"/>
				</g>
				<g>
					<polygon class="st4" points="455.1,194 447.3,198.3 447.3,200.1 455.1,195.7 					"/>
				</g>
				<g class="st13">
					<polygon class="st14" points="455.1,194 447.3,198.3 439.8,193.8 447.6,189.4 					"/>
				</g>
				<polygon class="st4" points="439.8,193.8 447.3,198.3 447.3,200.1 439.8,195.6 				"/>
				<g class="st15">
					<polygon class="st14" points="455.1,194 447.3,198.3 447.3,200.1 455.1,195.7 					"/>
				</g>
			</g>
		</g>
		<g>
			<path class="st4" d="M448.7,191.6l-0.2,0.2c-0.6,0.8-0.4,1.9,0.4,2.4l5.8,4.2c0.8,0.6,1.9,0.4,2.4-0.4l0.2-0.2
				c0.6-0.8,0.4-1.9-0.4-2.4l-5.8-4.2C450.3,190.6,449.3,190.8,448.7,191.6z"/>
			<path class="st16" d="M448.7,191.6l-0.2,0.2c-0.6,0.8-0.4,1.9,0.4,2.4l5.8,4.2c0.8,0.6,1.9,0.4,2.4-0.4l0.2-0.2
				c0.6-0.8,0.4-1.9-0.4-2.4l-5.8-4.2C450.3,190.6,449.3,190.8,448.7,191.6z"/>
		</g>
		<g>
			<path class="st4" d="M444.6,192.5l-0.4,0.5c-0.6,0.7-0.6,1.8,0.1,2.5l5.6,5.1c0.7,0.6,1.8,0.6,2.5-0.1l0.4-0.5
				c0.6-0.7,0.6-1.8-0.1-2.5l-5.6-5.1C446.4,191.7,445.3,191.8,444.6,192.5z"/>
			<path class="st16" d="M444.6,192.5l-0.4,0.5c-0.6,0.7-0.6,1.8,0.1,2.5l5.6,5.1c0.7,0.6,1.8,0.6,2.5-0.1l0.4-0.5
				c0.6-0.7,0.6-1.8-0.1-2.5l-5.6-5.1C446.4,191.7,445.3,191.8,444.6,192.5z"/>
		</g>
		<g>
			<path class="st4" d="M449.6,177.9L449.6,177.9c-0.6,0.8-0.4,1.9,0.4,2.4l5.2,3.7c0.8,0.6,1.9,0.4,2.4-0.4l0,0
				c0.6-0.8,0.4-1.9-0.4-2.4l-5.2-3.7C451.2,176.9,450.1,177.1,449.6,177.9z"/>
			<path class="st17" d="M449.6,177.9L449.6,177.9c-0.6,0.8-0.4,1.9,0.4,2.4l5.2,3.7c0.8,0.6,1.9,0.4,2.4-0.4l0,0
				c0.6-0.8,0.4-1.9-0.4-2.4l-5.2-3.7C451.2,176.9,450.1,177.1,449.6,177.9z"/>
		</g>
		<g>
			<path class="st4" d="M455.2,183.8L455.2,183.8c0.7,0.7,1.8,0.6,2.5-0.1l4.4-4.6c0.7-0.7,0.6-1.8-0.1-2.5l0,0
				c-0.7-0.7-1.8-0.6-2.5,0.1l-4.4,4.6C454.4,182.1,454.5,183.2,455.2,183.8z"/>
			<path class="st17" d="M455.2,183.8L455.2,183.8c0.7,0.7,1.8,0.6,2.5-0.1l4.4-4.6c0.7-0.7,0.6-1.8-0.1-2.5l0,0
				c-0.7-0.7-1.8-0.6-2.5,0.1l-4.4,4.6C454.4,182.1,454.5,183.2,455.2,183.8z"/>
		</g>
		<path class="st1" d="M443.6,195.7l7.7-3.7c0.2-0.1,0.4-0.3,0.4-0.6v-15l-2.2-0.8c-1.7-0.6-3.6-0.2-4.9,1.1l-0.8,0.8
			c-1.1,1.1-1.7,2.6-1.6,4.2l0.4,13.4C442.6,195.6,443.1,195.9,443.6,195.7z"/>
		<path class="st12" d="M449.3,177.3h0.3c1.2,0.2,2.2-0.6,2.4-1.8l0.3-2.3c0.2-1.2-0.6-2.2-1.8-2.4h-0.3c-1.2-0.2-2.2,0.6-2.4,1.8
			l-0.3,2.3C447.3,176.1,448.1,177.1,449.3,177.3z"/>
		<path class="st12" d="M462.6,174.7c-0.7-0.4-1.7-0.2-2.1,0.6l-0.5,0.9c-0.1-0.1-0.3-0.1-0.4,0c-0.4,0.1-0.6,0.5-0.5,0.9
			s0.4,1.4,1.2,1.8c0.8,0.4,1.7,0.2,2.1-0.6l0.8-1.4C463.5,176,463.3,175.1,462.6,174.7z"/>
		<path class="st12" d="M452.6,184.8c-0.2-0.8-1-1.3-1.9-1.1l-1,0.3c-0.1-0.1-0.1-0.3-0.3-0.4c-0.3-0.2-0.8-0.1-1,0.2
			s-0.7,1.2-0.4,2.1c0.3,0.9,1,1.3,1.9,1.1l1.6-0.4C452.3,186.5,452.8,185.7,452.6,184.8z"/>
		<g>
			<path class="st4" d="M445.9,180.2l-1.4,4.6c0,0.1,0.1,0.3,0.2,0.2l3.3-0.6c0.9-0.2,1.8,0.4,1.9,1.3l0,0c0.2,0.9-0.4,1.8-1.3,1.9
				l-5.8,1.1c-0.8,0.2-1.7-0.3-1.9-1.2l0,0c-0.2-0.8-0.2-1.7,0-2.5l1.8-5.9c0.3-0.9,1.2-1.4,2.1-1.1l0,0
				C445.7,178.4,446.2,179.3,445.9,180.2z"/>
			<path class="st17" d="M445.9,180.2l-1.4,4.6c0,0.1,0.1,0.3,0.2,0.2l3.3-0.6c0.9-0.2,1.8,0.4,1.9,1.3l0,0c0.2,0.9-0.4,1.8-1.3,1.9
				l-5.8,1.1c-0.8,0.2-1.7-0.3-1.9-1.2l0,0c-0.2-0.8-0.2-1.7,0-2.5l1.8-5.9c0.3-0.9,1.2-1.4,2.1-1.1l0,0
				C445.7,178.4,446.2,179.3,445.9,180.2z"/>
		</g>
		<path class="st4" d="M452.3,171c0.6,0.2,0.5,0.9-0.1,1.1l-2.3,0.5c-0.7,0.4-1.3,0.9-0.8,2.9c0.1,0.5-0.5,0.2-0.5,0.2
			c-0.2,0.1-0.6-1.2-0.8-1.3c-0.3-0.1-0.2,1.2-0.3,0.9c0,0-0.6-0.4-0.6-0.7c0-0.2,0.3-0.5,0.3-0.8c0-0.2-0.3-0.6-0.3-0.8
			s0.3-0.4,0.3-0.6c0-0.2-0.2-0.3-0.2-0.5c0-0.3,0.5-0.6,0.5-0.8c0-0.3,0.2-0.7,0.3-0.7c0,0,0.4,0,0.7-0.2c0.2-0.1,0.2-0.3,0.5-0.4
			c0.2-0.1,0.8,0.2,1,0.1c0.3-0.1,0.4-0.3,0.7-0.2c0.3,0,0.4,0.3,0.7,0.5c0.2,0.1,0.6,0,0.8,0.1C452.3,170.3,452.3,171,452.3,171z"
			/>
		<path class="st6" d="M450.1,208.5l3.9,2.6c0.3,0.2,0.7,0,0.7-0.4v-0.4c0-1.9-1-3.6-2.6-4.6l-1.1-0.6c-0.6-0.4-1.4,0.1-1.4,0.8v1.9
			C449.7,208,449.9,208.3,450.1,208.5z"/>
		<path class="st6" d="M454.7,207.1l3.9,2.6c0.3,0.2,0.7,0,0.7-0.4v-0.4c0-1.9-1-3.6-2.6-4.6l-1.1-0.6c-0.6-0.4-1.4,0.1-1.4,0.8v1.9
			C454.3,206.6,454.4,206.9,454.7,207.1z"/>
		<g>
			<path class="st4" d="M451.2,208h0.3c1,0,1.8-0.7,1.8-1.7l0.2-7.2c0-1-0.7-1.8-1.7-1.8h-0.3c-1,0-1.8,0.7-1.8,1.7l-0.2,7.2
				C449.4,207.1,450.2,207.9,451.2,208z"/>
			<path class="st16" d="M451.2,208h0.3c1,0,1.8-0.7,1.8-1.7l0.2-7.2c0-1-0.7-1.8-1.7-1.8h-0.3c-1,0-1.8,0.7-1.8,1.7l-0.2,7.2
				C449.4,207.1,450.2,207.9,451.2,208z"/>
		</g>
		<g>
			<path class="st4" d="M455.5,205.9h0.3c1,0,1.8-0.7,1.8-1.7l0.2-7.2c0-1-0.7-1.8-1.7-1.8h-0.3c-1,0-1.8,0.7-1.8,1.7l-0.2,7.2
				C453.7,205.1,454.5,205.9,455.5,205.9z"/>
			<path class="st16" d="M455.5,205.9h0.3c1,0,1.8-0.7,1.8-1.7l0.2-7.2c0-1-0.7-1.8-1.7-1.8h-0.3c-1,0-1.8,0.7-1.8,1.7l-0.2,7.2
				C453.7,205.1,454.5,205.9,455.5,205.9z"/>
		</g>
	</g>
	<g>
		<polygon class="st6" points="464.6,197.2 463.5,197.9 463.5,212.6 464.6,211.9 		"/>
		<polygon class="st11" points="464.6,197.2 463.5,197.9 463.5,199.6 464.6,198.9 		"/>
		<polygon class="st6" points="462.4,197.2 463.5,197.9 463.5,212.6 462.4,211.9 		"/>
		<polygon class="st16" points="462.4,197.2 463.5,197.9 463.5,199.6 462.4,199 		"/>
		<polygon class="st10" points="462.4,197.2 463.5,197.9 463.5,212.6 462.4,211.9 		"/>
	</g>
	<g>
		<polygon class="st6" points="489.3,226.4 488.2,227.1 488.2,241.8 489.3,241.1 		"/>
		<polygon class="st11" points="489.3,226.4 488.2,227.1 488.2,228.8 489.3,228.1 		"/>
		<polygon class="st6" points="487.1,226.4 488.2,227.1 488.2,241.8 487.1,241.1 		"/>
		<polygon class="st16" points="487.1,226.4 488.2,227.1 488.2,228.8 487.1,228.2 		"/>
		<polygon class="st10" points="487.1,226.4 488.2,227.1 488.2,241.8 487.1,241.1 		"/>
	</g>
	<g>
		<polygon class="st6" points="444.7,200.8 443.6,201.5 443.6,216.3 444.7,215.6 		"/>
		<polygon class="st11" points="444.7,200.8 443.6,201.5 443.6,203.3 444.7,202.6 		"/>
		<polygon class="st6" points="442.5,200.8 443.6,201.5 443.6,216.3 442.5,215.6 		"/>
		<polygon class="st16" points="442.5,200.8 443.6,201.5 443.6,203.3 442.5,202.7 		"/>
		<polygon class="st10" points="442.5,200.8 443.6,201.5 443.6,216.3 442.5,215.6 		"/>
	</g>
	<polygon class="st6" points="538.3,195.6 487.5,225.2 487.5,228 538.3,198.3 	"/>
	<polygon class="st6" points="441.6,197.5 487.5,225.2 487.5,228 441.6,200.2 	"/>
	<polygon class="st6" points="441.6,197.5 487.5,225.2 538.3,195.6 492.4,167.9 	"/>
	<polygon class="st5" points="441.6,197.5 487.5,225.2 538.3,195.6 492.4,167.9 	"/>
	<polygon class="st10" points="441.6,197.5 487.5,225.2 487.5,228 441.6,200.3 	"/>
	<g>
		<g>
			<polygon class="st6" points="571.2,172.7 547.3,186.4 518,169.4 541.2,155.7 			"/>
			<polygon class="st5" points="571.2,172.7 547.3,186.4 518,169.4 541.2,155.7 			"/>
			<polygon class="st6" points="518,169.4 547.3,186.4 547.3,190.1 516.3,172.3 			"/>
			<polygon class="st6" points="571.2,172.7 547.3,186.4 547.3,190.1 572.6,175.2 			"/>
			<polygon class="st10" points="571.2,172.7 547.3,186.4 547.3,190.1 572.6,175.2 			"/>
		</g>
		<g>
			<g id="XMLID_6_">
				<g>
					<path class="st6" d="M524.6,129.3c-0.3,0-2.3,0.8-2.3,1.1c0,4.2,1.8,7.7,1.8,11.9c0,1.4,0.1,2.8,0.3,4.2
						c0.7,4.5,2.4,9.2,5,13.6c3.3,5.7,7.5,10.4,12.9,14c0.6,0.4,1.6,1.8,2.2,1.9c4.2,0,8.9-2.3,12-5.3c3.8-3.4,5.9-8.6,5.8-14.7
						c0-1.8,0-3.6,0-5.4c0-2.2,0-4.5,0-6.7c0.1-0.3-0.1-0.7-0.5-0.9c-6.1-4.9-12.1-9.8-18.2-14.7c-0.3-0.2-0.6-0.4-0.9-0.3
						C536.8,128.4,530.7,128.9,524.6,129.3z M526.5,132.5c0-0.3,0.1-0.5,0.4-0.5c5.3-0.4,10.7-0.9,16-1.3c0.1,0,0.2,0,0.4,0v40.9
						c-0.3-0.1-0.5-0.2-0.8-0.4c-4.6-3-8.6-7.4-11.3-12.2c-2.3-3.9-3.8-8-4.4-11.9c-0.2-1.3-0.3-2.5-0.3-3.7
						C526.5,139.8,526.5,136.1,526.5,132.5z"/>
					<path class="st4" d="M526.9,132c-0.3,0-0.4,0.2-0.4,0.5c0,3.6,0,7.3,0,10.9c0,1.2,0.1,2.4,0.3,3.7c0.6,4,2.1,8,4.4,11.9
						c2.8,4.9,6.8,9.2,11.3,12.2c0.2,0.2,0.5,0.3,0.8,0.4v-40.9c-0.1,0-0.2-0.1-0.4,0C537.6,131.2,532.2,131.6,526.9,132z"/>
				</g>
			</g>
			<g id="XMLID_8_" class="st13">
				<g>
					<path class="st1" d="M524.6,129.3c-0.3,0-2.3,0.8-2.3,1.1c0,4.2,1.8,7.7,1.8,11.9c0,1.4,0.1,2.8,0.3,4.2
						c0.7,4.5,2.4,9.2,5,13.6c3.3,5.7,7.5,10.4,12.9,14c0.6,0.4,1.6,1.8,2.2,1.9c4.2,0,8.9-2.3,12-5.3c3.8-3.4,5.9-8.6,5.8-14.7
						c0-1.8,0-3.6,0-5.4c0-2.2,0-4.5,0-6.7c0.1-0.3-0.1-0.7-0.5-0.9c-6.1-4.9-12.1-9.8-18.2-14.7c-0.3-0.2-0.6-0.4-0.9-0.3
						C536.8,128.4,530.7,128.9,524.6,129.3z M526.5,132.5c0-0.3,0.1-0.5,0.4-0.5c5.3-0.4,10.7-0.9,16-1.3c0.1,0,0.2,0,0.4,0v40.9
						c-0.3-0.1-0.5-0.2-0.8-0.4c-4.6-3-8.6-7.4-11.3-12.2c-2.3-3.9-3.8-8-4.4-11.9c-0.2-1.3-0.3-2.5-0.3-3.7
						C526.5,139.8,526.5,136.1,526.5,132.5z"/>
					<path class="st1" d="M526.9,132c-0.3,0-0.4,0.2-0.4,0.5c0,3.6,0,7.3,0,10.9c0,1.2,0.1,2.4,0.3,3.7c0.6,4,2.1,8,4.4,11.9
						c2.8,4.9,6.8,9.2,11.3,12.2c0.2,0.2,0.5,0.3,0.8,0.4v-40.9c-0.1,0-0.2-0.1-0.4,0C537.6,131.2,532.2,131.6,526.9,132z"/>
				</g>
			</g>
			<g id="XMLID_5_">
				<g>
					<path class="st6" d="M522.8,130.5c-0.3,0-0.5,0.2-0.5,0.5c0,4.2,0,8.3,0,12.5c0,1.4,0.1,2.8,0.3,4.2c0.7,4.5,2.4,9.2,5,13.6
						c3.3,5.7,7.5,10.4,12.9,14c0.6,0.4,1.2,0.6,1.8,0.6c4.9,0.3,9.3-1.1,12.4-4.1c3.8-3.4,5.9-8.6,5.8-14.7c0-1.8,0-3.6,0-5.4
						c0-2.2,0-4.5,0-6.7c0.1-0.3-0.1-0.7-0.5-0.9c-6.1-4.9-12.1-9.8-18.2-14.7c-0.3-0.2-0.6-0.4-0.9-0.3
						C535,129.5,528.9,130,522.8,130.5z M524.7,133.6c0-0.3,0.1-0.5,0.4-0.5c5.3-0.4,10.7-0.9,16-1.3c0.1,0,0.2,0,0.4,0v40.9
						c-0.3-0.1-0.5-0.2-0.8-0.4c-4.6-3-8.6-7.4-11.3-12.2c-2.3-3.9-3.8-8-4.4-11.9c-0.2-1.3-0.3-2.5-0.3-3.7
						C524.7,140.9,524.7,137.3,524.7,133.6z"/>
					<path class="st4" d="M525.1,133.2c-0.3,0-0.4,0.2-0.4,0.5c0,3.6,0,7.3,0,10.9c0,1.2,0.1,2.4,0.3,3.7c0.6,4,2.1,8,4.4,11.9
						c2.8,4.9,6.8,9.2,11.3,12.2c0.2,0.2,0.5,0.3,0.8,0.4v-40.9c-0.1,0-0.2-0.1-0.4,0C535.7,132.3,530.4,132.8,525.1,133.2z"/>
				</g>
			</g>
		</g>
	</g>
	<g>
		<g>
			<polygon class="st1" points="457.5,196.8 457.5,197.6 452.7,195.2 452.7,194.3 			"/>
			<polygon class="st1" points="457.5,196.8 468.6,190 468.9,190.6 457.5,197.6 			"/>
			<g>
				<g>
					<polygon class="st1" points="463.9,187.4 468.6,190 457.5,196.8 452.7,194.3 					"/>
					<g>
						<polygon class="st4" points="457.7,194 457,194.4 457.6,194.7 458.3,194.3 						"/>
						<polygon class="st4" points="458.7,193.4 458,193.8 458.6,194.1 459.3,193.7 						"/>
						<polygon class="st4" points="458.7,194.5 458,195 458.6,195.3 459.3,194.9 						"/>
						<polygon class="st4" points="459.6,193.9 459,194.3 459.6,194.7 460.3,194.3 						"/>
						<polygon class="st4" points="459.7,192.7 458.7,193.4 459.3,193.7 460.3,193.1 						"/>
						<polygon class="st4" points="461.7,191.5 461,191.9 461.6,192.3 462.3,191.8 						"/>
						<polygon class="st4" points="462.7,190.9 462,191.3 462.6,191.6 463.3,191.2 						"/>
						<polygon class="st4" points="464.6,190.8 461.4,192.8 462,193.1 465.2,191.2 						"/>
						<polygon class="st4" points="463.7,190.3 463,190.7 463.6,191 464.3,190.6 						"/>
						<polygon class="st4" points="464.7,189.6 464,190.1 464.6,190.4 465.3,190 						"/>
						<polygon class="st4" points="465.6,190.2 464.9,190.6 465.6,191 466.3,190.6 						"/>
						<polygon class="st4" points="466.7,189.6 466,190 466.6,190.4 467.3,190 						"/>
						<polygon class="st4" points="465.7,189 465,189.4 465.6,189.8 466.3,189.3 						"/>
						<polygon class="st4" points="456.7,193.5 456,193.9 456.7,194.3 457.4,193.8 						"/>
						<polygon class="st4" points="457.7,192.9 457,193.3 458,193.8 458.7,193.4 						"/>
						<polygon class="st4" points="458.7,192.2 458,192.7 458.6,193 459.3,192.6 						"/>
						<polygon class="st4" points="459.7,191.6 459,192 459.6,192.4 460.3,192 						"/>
						<polygon class="st4" points="460.7,191 460,191.4 460.6,191.8 461.3,191.3 						"/>
						<polygon class="st4" points="461.7,190.4 461,190.8 461.6,191.1 462.3,190.7 						"/>
						<polygon class="st4" points="462.7,189.8 462,190.2 462.6,190.5 463.3,190.1 						"/>
						<polygon class="st4" points="463.7,189.1 463,189.6 463.6,189.9 464.3,189.5 						"/>
						<polygon class="st4" points="464.7,188.5 464,188.9 464.6,189.3 465.3,188.9 						"/>
						<polygon class="st4" points="455.7,193 455,193.4 455.7,193.8 456.4,193.3 						"/>
						<polygon class="st4" points="456.6,194.6 455.9,195.1 456.6,195.4 457.3,195 						"/>
						<polygon class="st4" points="457.6,195.2 456.9,195.6 457.5,196 458.2,195.5 						"/>
						<polygon class="st4" points="455.7,194.2 455,194.6 455.6,194.9 456.3,194.5 						"/>
						<polygon class="st4" points="454.7,193.7 454,194.1 454.6,194.4 455.3,194 						"/>
						<polygon class="st4" points="456.7,192.4 456,192.8 456.7,193.1 457.4,192.7 						"/>
						<polygon class="st4" points="457.7,191.8 457,192.2 457.7,192.5 458.4,192.1 						"/>
						<polygon class="st4" points="458.7,191.1 458,191.6 458.7,191.9 459.4,191.5 						"/>
						<polygon class="st4" points="459.7,190.5 459,190.9 459.7,191.3 460.4,190.8 						"/>
						<polygon class="st4" points="460.7,189.9 460,190.3 460.7,190.7 461.3,190.2 						"/>
						<polygon class="st4" points="461.7,189.3 461,189.7 461.6,190 462.3,189.6 						"/>
						<polygon class="st4" points="462.7,188.6 462,189.1 462.6,189.4 463.3,189 						"/>
						<polygon class="st4" points="463.7,188 463,188.4 463.6,188.8 464.3,188.4 						"/>
					</g>
				</g>
				<polygon class="st7" points="457.5,196.8 457.5,197.6 452.7,195.2 452.7,194.3 				"/>
				<polygon class="st3" points="457.5,196.8 468.6,190 468.9,190.6 457.5,197.6 				"/>
			</g>
		</g>
		<g>
			<g>
				<polygon class="st1" points="469.2,191.3 469.2,182.5 458,189.1 458,197.9 				"/>
				<polygon class="st1" points="458,189.1 457.5,188.8 457.5,197.6 458,197.9 				"/>
				<polygon class="st1" points="458,189.1 469.2,182.5 468.7,182.2 457.5,188.8 				"/>
				<polygon class="st3" points="458,189.1 469.2,182.5 468.7,182.2 457.5,188.8 				"/>
				<polygon class="st2" points="458,189.1 457.5,188.8 457.5,197.6 458,197.9 				"/>
			</g>
		</g>
	</g>
	<g>
		<g>
			<polygon class="st1" points="477.1,186.1 477.1,187 472.2,184.5 472.2,183.6 			"/>
			<polygon class="st1" points="477.1,186.1 488.2,179.3 488.4,179.9 477.1,187 			"/>
			<g>
				<g>
					<polygon class="st1" points="483.4,176.7 488.2,179.3 477.1,186.1 472.2,183.6 					"/>
					<g>
						<polygon class="st4" points="477.3,183.3 476.6,183.7 477.2,184.1 477.9,183.6 						"/>
						<polygon class="st4" points="478.3,182.7 477.6,183.1 478.2,183.4 478.9,183 						"/>
						<polygon class="st4" points="478.2,183.9 477.5,184.3 478.2,184.6 478.9,184.2 						"/>
						<polygon class="st4" points="479.2,183.2 478.5,183.7 479.2,184 479.9,183.6 						"/>
						<polygon class="st4" points="479.3,182.1 478.3,182.7 478.9,183 479.9,182.4 						"/>
						<polygon class="st4" points="481.2,180.8 480.6,181.2 481.2,181.6 481.9,181.2 						"/>
						<polygon class="st4" points="482.2,180.2 481.5,180.6 482.2,181 482.9,180.5 						"/>
						<polygon class="st4" points="484.1,180.2 480.9,182.1 481.6,182.5 484.8,180.5 						"/>
						<polygon class="st4" points="483.2,179.6 482.5,180 483.2,180.3 483.9,179.9 						"/>
						<polygon class="st4" points="484.2,179 483.5,179.4 484.2,179.7 484.9,179.3 						"/>
						<polygon class="st4" points="485.2,179.5 484.5,180 485.1,180.3 485.8,179.9 						"/>
						<polygon class="st4" points="486.2,178.9 485.5,179.4 486.2,179.7 486.9,179.3 						"/>
						<polygon class="st4" points="485.2,178.3 484.5,178.8 485.2,179.1 485.9,178.7 						"/>
						<polygon class="st4" points="476.3,182.8 475.6,183.2 476.2,183.6 476.9,183.1 						"/>
						<polygon class="st4" points="477.3,182.2 476.6,182.6 477.6,183.1 478.3,182.7 						"/>
						<polygon class="st4" points="478.3,181.6 477.6,182 478.2,182.3 478.9,181.9 						"/>
						<polygon class="st4" points="479.3,180.9 478.6,181.4 479.2,181.7 479.9,181.3 						"/>
						<polygon class="st4" points="480.3,180.3 479.6,180.7 480.2,181.1 480.9,180.7 						"/>
						<polygon class="st4" points="481.3,179.7 480.6,180.1 481.2,180.5 481.9,180 						"/>
						<polygon class="st4" points="482.3,179.1 481.6,179.5 482.2,179.8 482.9,179.4 						"/>
						<polygon class="st4" points="483.2,178.5 482.6,178.9 483.2,179.2 483.9,178.8 						"/>
						<polygon class="st4" points="484.2,177.8 483.6,178.3 484.2,178.6 484.9,178.2 						"/>
						<polygon class="st4" points="475.3,182.3 474.6,182.7 475.2,183.1 475.9,182.7 						"/>
						<polygon class="st4" points="476.2,184 475.5,184.4 476.1,184.7 476.8,184.3 						"/>
						<polygon class="st4" points="477.2,184.5 476.5,184.9 477.1,185.3 477.8,184.9 						"/>
						<polygon class="st4" points="475.2,183.5 474.5,183.9 475.2,184.2 475.9,183.8 						"/>
						<polygon class="st4" points="474.2,183 473.5,183.4 474.2,183.7 474.9,183.3 						"/>
						<polygon class="st4" points="476.3,181.7 475.6,182.1 476.2,182.5 476.9,182 						"/>
						<polygon class="st4" points="477.3,181.1 476.6,181.5 477.2,181.8 477.9,181.4 						"/>
						<polygon class="st4" points="478.3,180.5 477.6,180.9 478.2,181.2 478.9,180.8 						"/>
						<polygon class="st4" points="479.3,179.8 478.6,180.3 479.2,180.6 479.9,180.2 						"/>
						<polygon class="st4" points="480.3,179.2 479.6,179.6 480.2,180 480.9,179.5 						"/>
						<polygon class="st4" points="481.3,178.6 480.6,179 481.2,179.4 481.9,178.9 						"/>
						<polygon class="st4" points="482.3,178 481.6,178.4 482.2,178.7 482.9,178.3 						"/>
						<polygon class="st4" points="483.3,177.3 482.6,177.8 483.2,178.1 483.9,177.7 						"/>
					</g>
				</g>
				<polygon class="st7" points="477.1,186.1 477.1,187 472.2,184.5 472.2,183.6 				"/>
				<polygon class="st3" points="477.1,186.1 488.2,179.3 488.4,179.9 477.1,187 				"/>
			</g>
		</g>
		<g>
			<g>
				<polygon class="st1" points="488.8,180.6 488.8,171.8 477.6,178.4 477.6,187.2 				"/>
				<polygon class="st1" points="477.6,178.4 477,178.1 477,186.9 477.6,187.2 				"/>
				<polygon class="st1" points="477.6,178.4 488.8,171.8 488.3,171.5 477,178.1 				"/>
				<polygon class="st3" points="477.6,178.4 488.8,171.8 488.3,171.5 477,178.1 				"/>
				<polygon class="st2" points="477.6,178.4 477,178.1 477,186.9 477.6,187.2 				"/>
			</g>
		</g>
	</g>
	<g>
		<polygon class="st4" points="480.1,189.9 488.6,185.2 489.6,184.6 490.9,185.3 490.8,186 494.8,188.4 486,193.3 		"/>
		<polygon class="st12" points="479.7,189.5 488.2,184.8 489.3,184.3 490.5,185 490.4,185.7 494.4,188.1 485.6,193 		"/>
	</g>
	<g>
		<g>
			<polygon class="st14" points="482.7,201.4 491.5,196.5 497.4,199.9 488.6,204.9 			"/>
			<polygon class="st2" points="482.7,201.4 491.5,196.5 497.4,199.9 488.6,204.9 			"/>
		</g>
		<g>
			<g>
				<polygon class="st14" points="482.7,200.9 491.5,196 497.4,199.4 488.6,204.4 				"/>
				<polygon class="st2" points="482.7,200.9 491.5,196 497.4,199.4 488.6,204.4 				"/>
			</g>
			<polygon class="st2" points="482.7,200.9 491.5,196 497.4,199.4 488.6,204.4 			"/>
		</g>
		<g>
			<polygon class="st14" points="482.7,200.4 491.5,195.5 497.4,199 488.6,203.9 			"/>
			<polygon class="st2" points="482.7,200.4 491.5,195.5 497.4,199 488.6,203.9 			"/>
		</g>
		<g>
			<g>
				<polygon class="st14" points="482.7,199.9 491.5,195 497.4,198.5 488.6,203.4 				"/>
				<polygon class="st2" points="482.7,199.9 491.5,195 497.4,198.5 488.6,203.4 				"/>
			</g>
			<polygon class="st2" points="482.7,199.9 491.5,195 497.4,198.5 488.6,203.4 			"/>
		</g>
		<g>
			<polygon class="st14" points="482.7,199.5 491.5,194.6 497.4,198 488.6,202.9 			"/>
			<polygon class="st2" points="482.7,199.5 491.5,194.6 497.4,198 488.6,202.9 			"/>
		</g>
		<g>
			<g>
				<polygon class="st14" points="482.7,199 491.5,194.1 497.4,197.5 488.6,202.4 				"/>
				<polygon class="st2" points="482.7,199 491.5,194.1 497.4,197.5 488.6,202.4 				"/>
			</g>
			<polygon class="st2" points="482.7,199 491.5,194.1 497.4,197.5 488.6,202.4 			"/>
		</g>
		<g>
			<polygon class="st14" points="482.7,198.5 491.5,193.6 497.4,197 488.6,201.9 			"/>
			<polygon class="st2" points="482.7,198.5 491.5,193.6 497.4,197 488.6,201.9 			"/>
		</g>
		<polygon class="st14" points="482.7,198 491.5,193.1 497.4,196.5 488.6,201.4 		"/>
	</g>
	<g>
		<ellipse class="st1" cx="499.3" cy="175.2" rx="2.1" ry="1.3"/>
		<path class="st4" d="M499.3,173.9c0.3,0,0.6,0,0.8,0.1c0,0,0,0,0.1,0l0.1-0.3c0,0,0,0-0.1,0c-0.3-0.1-0.6-0.1-0.9-0.1
			c-0.4,0-0.7,0.1-1.1,0.2l0.1,0.3C498.6,174,498.9,173.9,499.3,173.9z"/>
		<g>
			
				<rect x="497.9" y="173.6" transform="matrix(0.8417 -0.54 0.54 0.8417 -15.7192 296.8214)" class="st6" width="0.8" height="3.3"/>
			
				<rect x="496.9" y="173.6" transform="matrix(0.8417 -0.54 0.54 0.8417 -15.061 296.0282)" class="st12" width="0.8" height="0.2"/>
			
				<rect x="497.4" y="173.5" transform="matrix(0.8417 -0.54 0.54 0.8417 -14.9783 296.1451)" class="st16" width="0.2" height="0.2"/>
			<path class="st6" d="M497,172.3C497,172.3,496.9,172.3,497,172.3l-0.2-0.1c-0.1-0.2-0.7-0.9-1-0.8c-0.3,0.2,0.1,1,0.3,1.2
				l0.8,1.2l0.7-0.5L497,172.3L497,172.3l1.2,1.9c0.1-0.1,0.1-0.2,0.1-0.3l-1-1.6C497.2,172.3,497.1,172.2,497,172.3z"/>
			<polygon class="st1" points="499.6,177.4 499.3,177.2 499.6,177 			"/>
			<polygon class="st14" points="499.6,177 499.5,176.4 498.8,176.9 499.3,177.1 			"/>
			
				<rect x="498.4" y="173.4" transform="matrix(0.8417 -0.54 0.54 0.8417 -15.5997 296.8958)" class="st11" width="0.2" height="3.3"/>
			<path class="st11" d="M495.8,171.4l-0.1,0.1c0.3,0,0.7,0.6,0.8,0.8l0.8,1.2l0.2-0.1l-0.8-1.2C496.7,172,496.1,171.3,495.8,171.4z
				"/>
			<path class="st11" d="M497,172.3C497,172.3,496.9,172.3,497,172.3v0.2h0.1l1.1,1.8c0.1-0.1,0.1-0.2,0.1-0.3l-1-1.6
				C497.2,172.3,497.1,172.2,497,172.3z"/>
		</g>
		<g>
			
				<rect x="498.6" y="174.6" transform="matrix(0.229 -0.9734 0.9734 0.229 215.3176 621.9434)" class="st6" width="3.3" height="0.8"/>
			
				<rect x="500.6" y="172.9" transform="matrix(0.229 -0.9734 0.9734 0.229 217.3343 620.9877)" class="st12" width="0.2" height="0.8"/>
			
				<rect x="500.9" y="173.3" transform="matrix(0.229 -0.9734 0.9734 0.229 217.4608 621.3506)" class="st16" width="0.2" height="0.2"/>
			<path class="st6" d="M501.6,172C501.5,172,501.5,172,501.6,172l-0.1-0.2c0.1-0.2,0.2-1.2-0.1-1.2c-0.3-0.1-0.6,0.8-0.7,1
				l-0.3,1.4l0.8,0.2l0.3-1.1L501.6,172l-0.5,2.1c0.1,0,0.2,0,0.3-0.2l0.4-1.8C501.7,172.2,501.7,172.1,501.6,172z"/>
			<polygon class="st1" points="499.7,177.5 499.6,177.1 500,177.2 			"/>
			<polygon class="st14" points="500,177.2 500.3,176.7 499.5,176.5 499.7,177.1 			"/>
			
				<rect x="499" y="175" transform="matrix(0.229 -0.9734 0.9734 0.229 215.5642 622.2871)" class="st11" width="3.3" height="0.2"/>
			<path class="st11" d="M501.3,170.6h-0.1c0.2,0.2,0.1,1,0,1.1l-0.3,1.4l0.2,0.1l0.3-1.4C501.5,171.6,501.7,170.7,501.3,170.6z"/>
			<path class="st11" d="M501.6,172C501.5,172,501.5,172,501.6,172l-0.1,0.2h0.1l-0.5,2c0.1,0,0.2,0,0.3-0.2l0.4-1.8
				C501.7,172.2,501.7,172.1,501.6,172z"/>
		</g>
		<path class="st6" d="M499.3,176.7c-1.3,0-2.3-0.6-2.5-1.3c0.1,0.5,0.2,1.7,0.3,2.8c0.2,1.5,4,1.5,4.2,0.1c0.1-0.8,0.3-2.3,0.4-2.8
			C501.6,176.1,500.5,176.7,499.3,176.7z"/>
		<path class="st4" d="M501,174.1l-0.1,0.3c0.3,0.2,0.5,0.5,0.5,0.8c0,0.7-0.9,1.3-2.1,1.3c-1.1,0-2.1-0.6-2.1-1.3
			c0-0.2,0.1-0.4,0.2-0.5l-0.2-0.3c-0.3,0.2-0.4,0.5-0.4,0.9c0,0.8,1.1,1.5,2.5,1.5s2.5-0.7,2.5-1.5c0-0.4-0.2-0.7-0.6-1
			c-0.1,0.1-0.2,0.1-0.2,0L501,174.1L501,174.1z"/>
	</g>
	<g>
		<g>
			<ellipse class="st4" cx="514.4" cy="184.7" rx="3" ry="1.8"/>
			<ellipse class="st7" cx="514.4" cy="184.7" rx="3" ry="1.8"/>
			<path class="st6" d="M514.4,186.5c-1.5,0-2.8-0.7-3-1.6c0.1,0.6,0.2,2.1,0.4,3.4c0.2,1.8,4.8,1.8,5.1,0.1
				c0.1-0.9,0.4-2.7,0.5-3.4C517.1,185.8,515.9,186.5,514.4,186.5z"/>
			<ellipse class="st1" cx="514.4" cy="184.7" rx="2.5" ry="1.5"/>
		</g>
		<g>
			<path class="st12" d="M513.6,183.1c0.7,0.1,1.2,0.7,1.1,1.4c-0.1,0.7-0.7,1.2-1.4,1.1c-0.7-0.1-2.1-2.3-3.5-1.8
				C509.1,184.1,510.7,182.7,513.6,183.1z"/>
			<path class="st12" d="M514.9,183.2c-0.7,0.1-1.2,0.7-1.1,1.4c0.1,0.7,0.7,1.2,1.4,1.1c0.7-0.1,2.1-2.3,3.5-1.8
				C519.5,184.2,517.8,182.8,514.9,183.2z"/>
			<path class="st12" d="M515.6,184.6c-0.3-0.3-0.8-0.3-1.1,0.1c-0.3,0.3-0.3,0.8,0.1,1.1c0.3,0.3,1.9,0.1,2.2,0.9
				C517,187.1,516.9,185.8,515.6,184.6z"/>
			<path class="st12" d="M512.6,184.1c0.4-0.1,0.8,0.1,1,0.4s-0.1,0.8-0.4,1c-0.4,0.1-1.7-0.6-2.3,0
				C510.5,185.8,511,184.7,512.6,184.1z"/>
			<g>
				<path class="st12" d="M515.1,182.8c-0.1,0.4-0.4,0.7-0.8,0.6c-0.4-0.1-0.7-0.4-0.6-0.8c0.1-0.4,1.3-1.2,1-2
					C514.5,180.2,515.3,181.1,515.1,182.8z"/>
				<path class="st2" d="M515.1,182.8c-0.1,0.4-0.4,0.7-0.8,0.6c-0.4-0.1-0.7-0.4-0.6-0.8c0.1-0.4,1.3-1.2,1-2
					C514.5,180.2,515.3,181.1,515.1,182.8z"/>
			</g>
			<path class="st2" d="M514.3,184.7c-0.3,0.3-0.9,0.4-1.3,0.5c-0.3,0-1.1-0.3-1.7-0.2c-0.4,0.4-0.5,0.7-0.3,0.5
				c0.6-0.6,1.8,0.1,2.2,0C513.7,185.5,514.1,185,514.3,184.7z"/>
			<path class="st2" d="M514.6,185.5c-0.2-0.2-0.5-0.5-0.4-0.8c-0.2,0.3,0,0.7,0.3,1s1.9,0.1,2.2,0.9c0.1,0.2,0.1,0,0-0.4
				C516.2,185.6,514.9,185.8,514.6,185.5z"/>
			<path class="st12" d="M513.2,185c0.2-0.4,0.6-0.5,1-0.4s0.5,0.6,0.4,1s-1.6,0.8-1.6,1.6C513,187.7,512.5,186.5,513.2,185z"/>
			<path class="st2" d="M518.3,183.5c-1.7,0.1-2,0.9-2.5,1.3l0.4,0.2c0.7-0.6,1.6-1.5,2.6-1.2C519.1,184,518.7,183.7,518.3,183.5z"
				/>
			<path class="st2" d="M512.3,184.2c-0.7-0.5-1.5-1-2.3-0.7l0,0c-0.4,0.2-0.5,0.4-0.2,0.3c0.7-0.2,1.4,0.2,2,0.7L512.3,184.2z"/>
			<g>
				<path class="st12" d="M513.7,182.4c0.3,0.2,0.4,0.7,0.2,1s-0.7,0.4-1,0.2s-0.5-1.7-1.3-1.8C511.1,181.7,512.3,181.4,513.7,182.4
					z"/>
				<path class="st2" d="M513,183.3c-0.2-0.4-0.7-1.7-1.5-1.7c-0.1,0-0.2,0.1,0,0.1c0.9,0.1,1,1.5,1.2,1.8s0.5,0.4,0.9,0.2
					C513.3,183.7,513.2,183.5,513,183.3z"/>
			</g>
			<g>
				<path class="st12" d="M514.3,182.7c-0.5,0.4-0.6,1.1-0.3,1.6s1.1,0.6,1.6,0.3s0.7-2.6,2-2.8
					C518.3,181.7,516.4,181.2,514.3,182.7z"/>
				<path class="st2" d="M517.6,181.6c-1.3,0-1.9,1.9-2.2,2.4c-0.4,0.5-1,0.6-1,0.6c-0.6-0.1,0.8,0.3,1.3,0s0.7-2.6,2-2.8
					C517.8,181.7,517.8,181.7,517.6,181.6z"/>
			</g>
			<path class="st2" d="M514.5,184.9c0,0.1,0,0.3,0,0.5c-0.2,0.4-1.6,0.8-1.6,1.6l0,0c0,0.3,0.1,0.4,0.1,0.2c0-0.9,1.4-1.3,1.6-1.6
				C514.7,185.4,514.7,185.1,514.5,184.9z"/>
		</g>
	</g>
	<path class="st12" d="M477.9,210c-0.3-0.6-1-0.9-1.6-0.5l-0.8,0.5c-0.1-0.1-0.1-0.2-0.3-0.2c-0.3-0.1-0.6,0.1-0.8,0.4l0,0
		c-0.5,1.4,1,2.6,2.3,1.9l0.5-0.3C477.8,211.4,478.1,210.6,477.9,210z"/>
	<path class="st12" d="M461.5,204.7l0.4,0.1c1.2,0.3,2.4-0.5,2.7-1.7l0.5-2.4c0.3-1.2-0.5-2.4-1.7-2.7l-0.4-0.1
		c-1.2-0.3-2.4,0.5-2.7,1.7l-0.5,2.4C459.5,203.3,460.3,204.5,461.5,204.7z"/>
	<polygon class="st1" points="475.8,209.8 475.8,210.6 480.5,208.3 480.5,207.4 	"/>
	<polygon class="st1" points="475.8,209.8 465.1,203.2 464.9,203.9 475.8,210.6 	"/>
	<polygon class="st1" points="469.7,200.8 465.1,203.2 475.8,209.8 480.5,207.4 	"/>
	<polygon class="st4" points="475.6,207.1 476.3,207.5 475.7,207.8 475,207.4 	"/>
	<polygon class="st4" points="474.7,206.5 475.4,206.9 474.7,207.2 474.1,206.8 	"/>
	<polygon class="st4" points="474.7,207.6 475.4,208.1 474.8,208.4 474.1,208 	"/>
	<polygon class="st4" points="473.8,207 474.4,207.5 473.8,207.8 473.1,207.4 	"/>
	<polygon class="st4" points="472.8,206.5 473.5,206.9 472.8,207.2 472.2,206.8 	"/>
	<polygon class="st4" points="473.7,205.9 474.7,206.5 474.1,206.8 473.1,206.2 	"/>
	<polygon class="st4" points="471.8,204.7 472.5,205.1 471.9,205.4 471.2,205 	"/>
	<polygon class="st4" points="472.8,205.3 473.4,205.7 472.8,206.1 472.1,205.6 	"/>
	<polygon class="st4" points="470.8,204.1 471.5,204.5 470.9,204.8 470.2,204.4 	"/>
	<polygon class="st4" points="469,204.1 472.5,206.2 471.9,206.5 468.4,204.4 	"/>
	<polygon class="st4" points="469.9,203.5 470.5,203.9 469.9,204.2 469.3,203.8 	"/>
	<polygon class="st4" points="468.9,202.9 469.6,203.3 469,203.6 468.3,203.2 	"/>
	<polygon class="st4" points="468,203.5 468.7,203.9 468.1,204.2 467.4,203.8 	"/>
	<polygon class="st4" points="467,202.9 467.7,203.3 467,203.6 466.4,203.2 	"/>
	<polygon class="st4" points="468,202.3 468.6,202.7 468,203 467.3,202.6 	"/>
	<polygon class="st4" points="476.6,206.6 477.3,207 476.6,207.4 476,207 	"/>
	<polygon class="st4" points="475.6,206 476.3,206.4 475.4,206.9 474.7,206.5 	"/>
	<polygon class="st4" points="474.7,205.4 475.3,205.8 474.7,206.2 474.1,205.8 	"/>
	<polygon class="st4" points="473.7,204.8 474.4,205.2 473.8,205.6 473.1,205.2 	"/>
	<polygon class="st4" points="472.8,204.2 473.4,204.6 472.8,205 472.1,204.6 	"/>
	<polygon class="st4" points="471.8,203.6 472.5,204 471.8,204.4 471.2,204 	"/>
	<polygon class="st4" points="470.8,203 471.5,203.4 470.9,203.8 470.2,203.4 	"/>
	<polygon class="st4" points="469.9,202.4 470.5,202.8 469.9,203.2 469.2,202.8 	"/>
	<polygon class="st4" points="468.9,201.8 469.6,202.2 469,202.6 468.3,202.2 	"/>
	<polygon class="st4" points="477.5,206.2 478.2,206.6 477.6,206.9 476.9,206.5 	"/>
	<polygon class="st4" points="476.7,207.7 477.3,208.2 476.7,208.5 476,208.1 	"/>
	<polygon class="st4" points="475.7,208.3 476.4,208.7 475.8,209 475.1,208.6 	"/>
	<polygon class="st4" points="477.6,207.3 478.3,207.7 477.7,208 477,207.6 	"/>
	<polygon class="st4" points="478.6,206.8 479.2,207.2 478.6,207.5 477.9,207.1 	"/>
	<polygon class="st4" points="476.6,205.6 477.3,206 476.6,206.3 476,205.9 	"/>
	<polygon class="st4" points="475.6,205 476.3,205.4 475.7,205.7 475,205.3 	"/>
	<polygon class="st4" points="474.7,204.4 475.3,204.8 474.7,205.1 474,204.7 	"/>
	<polygon class="st4" points="473.7,203.8 474.4,204.2 473.8,204.5 473.1,204.1 	"/>
	<polygon class="st4" points="472.7,203.2 473.4,203.6 472.8,203.9 472.1,203.5 	"/>
	<polygon class="st4" points="471.8,202.6 472.4,203 471.8,203.3 471.2,202.9 	"/>
	<polygon class="st4" points="470.8,202 471.5,202.4 470.9,202.7 470.2,202.3 	"/>
	<polygon class="st4" points="469.9,201.4 470.5,201.8 469.9,202.1 469.2,201.7 	"/>
	<polygon class="st7" points="475.8,209.8 475.8,210.6 480.5,208.3 480.5,207.4 	"/>
	<polygon class="st3" points="475.8,209.8 465.1,203.2 464.9,203.9 475.8,210.6 	"/>
	<polygon class="st6" points="465.1,213.2 461.2,207.6 463.2,205.2 467.2,211.3 	"/>
	<path class="st6" d="M462.9,212.9l0.2-7.7l-4.4-2.1c-1.1-0.5-2.4,0.3-2.3,1.6l-0.6,6.4l-0.3,6.4l7.3,3.5L462.9,212.9z"/>
	<polygon class="st6" points="473,213.4 465.1,213.2 465.5,210.9 473,210.9 	"/>
	<polygon class="st6" points="460.9,226.3 461.8,226.9 461.8,235.8 460.9,235.2 	"/>
	<polygon class="st1" points="462.9,226.2 461.8,226.9 461.8,235.8 462.9,235.1 	"/>
	<polygon class="st6" points="468.3,223 468.4,232.5 467.4,231.9 467.4,223.5 	"/>
	<polygon class="st6" points="453.9,222.5 454.8,223.1 454.8,231.9 453.9,231.4 	"/>
	<polygon class="st1" points="455.8,222.4 454.8,223.1 454.8,231.9 455.8,231.3 	"/>
	<polygon class="st4" points="454,220.7 461.8,225.1 461.8,226.9 454,222.5 	"/>
	<polygon class="st4" points="454,220.7 461.8,225.1 461.8,226.9 454,222.5 	"/>
	<polygon class="st14" points="454,220.7 461.8,225.1 461.8,226.9 454,222.5 	"/>
	<polygon class="st4" points="462.3,213.8 461.2,214.5 461.2,227.3 462.3,226.6 	"/>
	<polygon class="st4" points="453.4,210.1 461.2,214.5 461.2,227.3 453.4,222.9 	"/>
	<polygon class="st4" points="462.3,213.8 461.2,214.5 461.2,227.3 462.3,226.6 	"/>
	<polygon class="st4" points="453.4,210.1 461.2,214.5 462.3,213.8 454.5,209.4 	"/>
	<polygon class="st6" points="462.3,213.8 461.2,214.5 461.2,227.3 462.3,226.6 	"/>
	<polygon class="st5" points="453.4,210.1 461.2,214.5 462.3,213.8 454.5,209.4 	"/>
	<polygon class="st4" points="462.3,213.8 461.2,214.5 461.2,227.3 462.3,226.6 	"/>
	<polygon class="st10" points="453.4,210.1 461.2,214.5 461.2,227.3 453.4,222.9 	"/>
	<polygon class="st1" points="469.9,201.4 469.9,192.9 480.8,199.3 480.8,207.8 	"/>
	<polygon class="st1" points="480.8,199.3 481.3,199 481.3,207.5 480.8,207.8 	"/>
	<polygon class="st1" points="480.8,199.3 469.9,192.9 470.5,192.6 481.3,199 	"/>
	<g>
		<polygon class="st3" points="480.8,199.3 469.9,192.9 470.5,192.6 481.3,199 		"/>
		<polygon class="st2" points="480.8,199.3 481.3,199 481.3,207.5 480.8,207.8 		"/>
	</g>
	<polygon class="st6" points="470.5,200.9 470.5,194.2 480.1,199.8 480.1,206.6 	"/>
	<g>
		<ellipse class="st7" cx="484.4" cy="207.1" rx="2" ry="1.4"/>
		<path class="st6" d="M487,207.6c-0.2-0.1-0.5,0.1-0.7,0.4c0-0.2,0.1-0.5,0.1-0.6c-0.1,0.7-1,1.2-1.9,1.2c-1,0-1.8-0.5-1.9-1.2
			c0,0.4,0.2,1.6,0.2,2.5c0.1,1.3,3.1,1.3,3.3,0c0-0.1,0-0.1,0-0.2c0.1,0.2,0.2,0.3,0.3,0.3c0.4,0.1,0.8-0.3,1-1
			C487.5,208.3,487.4,207.7,487,207.6z M487.1,208.8c-0.1,0.5-0.4,0.9-0.6,0.8c-0.2-0.1-0.4-0.5-0.2-1c0.1-0.5,0.4-0.6,0.6-0.5
			C487.1,208.1,487.1,208.4,487.1,208.8z"/>
		<ellipse class="st1" cx="484.4" cy="207.1" rx="1.6" ry="1.1"/>
		<path class="st3" d="M484.4,207c-0.6,0-1.2,0.3-1.4,0.6c0.3,0.4,0.8,0.6,1.4,0.6s1.2-0.3,1.4-0.6C485.6,207.3,485.1,207,484.4,207
			z"/>
	</g>
	<g>
		<ellipse class="st7" cx="493.1" cy="177.5" rx="2" ry="1.4"/>
		<path class="st6" d="M490.2,179.3c0.2,0.7,0.6,1.1,1,1c0.1,0,0.2-0.2,0.3-0.3c0,0.1,0,0.1,0,0.2c0.2,1.3,3.2,1.3,3.3,0
			c0.1-0.9,0.2-2.1,0.2-2.5c-0.1,0.7-0.9,1.2-1.9,1.2s-1.8-0.5-1.9-1.2c0,0.1,0,0.4,0.1,0.6c-0.2-0.3-0.5-0.5-0.7-0.4
			C490.2,178,490,178.6,490.2,179.3z M490.7,178.4c0.2-0.1,0.5,0.1,0.6,0.5c0.1,0.5,0,0.9-0.2,1s-0.6-0.3-0.6-0.8
			C490.4,178.7,490.4,178.5,490.7,178.4z"/>
		<ellipse class="st1" cx="493.1" cy="177.5" rx="1.6" ry="1.1"/>
		<path class="st3" d="M493.1,177.3c0.6,0,1.2,0.3,1.4,0.6c-0.3,0.4-0.8,0.6-1.4,0.6s-1.2-0.3-1.4-0.6
			C491.9,177.6,492.4,177.3,493.1,177.3z"/>
	</g>
	<path class="st1" d="M462.5,201.1l-2.5,2.6c-0.3,0-1.5-1.4-1.5-2.1c0.1-3.9,1.7-2.6,3.3-1.8C462.5,200.2,463.1,200.6,462.5,201.1z"
		/>
	<g>
		<g>
			<g>
				<polygon class="st1" points="503.1,207.8 503.1,199.3 492.3,205.7 492.3,214.2 				"/>
				<polygon class="st1" points="492.3,205.7 491.8,205.4 491.8,213.9 492.3,214.2 				"/>
				<polygon class="st1" points="492.3,205.7 503.1,199.3 502.6,199 491.8,205.4 				"/>
				<polygon class="st3" points="492.3,205.7 503.1,199.3 502.6,199 491.8,205.4 				"/>
				<polygon class="st2" points="492.3,205.7 491.8,205.4 491.8,213.9 492.3,214.2 				"/>
			</g>
			<g>
				<polygon class="st6" points="502.5,207.3 502.5,200.5 493,206.1 493,212.9 				"/>
			</g>
		</g>
		<g>
			<polygon class="st1" points="497.2,216.2 497.2,217 492.6,214.6 492.6,213.8 			"/>
			<polygon class="st1" points="497.2,216.2 508,209.6 508.2,210.2 497.2,217 			"/>
			<g>
				<g>
					<polygon class="st1" points="503.4,207.1 508,209.6 497.2,216.2 492.6,213.8 					"/>
					<g>
						<polygon class="st4" points="497.4,213.5 496.8,213.9 497.4,214.2 498,213.8 						"/>
						<polygon class="st4" points="498.4,212.9 497.7,213.3 498.3,213.6 499,213.2 						"/>
						<polygon class="st4" points="498.4,214 497.7,214.4 498.3,214.8 499,214.3 						"/>
						<polygon class="st4" points="499.3,213.4 498.6,213.8 499.3,214.2 499.9,213.7 						"/>
						<polygon class="st4" points="500.3,212.9 499.6,213.3 500.2,213.6 500.9,213.2 						"/>
						<polygon class="st4" points="499.3,212.3 498.4,212.9 499,213.2 500,212.6 						"/>
						<polygon class="st4" points="501.3,211.1 500.6,211.5 501.2,211.8 501.9,211.4 						"/>
						<polygon class="st4" points="500.3,211.7 499.6,212.1 500.2,212.4 500.9,212 						"/>
						<polygon class="st4" points="502.2,210.5 501.6,210.9 502.2,211.2 502.8,210.8 						"/>
						<polygon class="st4" points="504,210.4 500.5,212.6 501.2,213 504.7,210.8 						"/>
						<polygon class="st4" points="503.2,209.9 502.5,210.3 503.1,210.6 503.8,210.2 						"/>
						<polygon class="st4" points="504.1,209.3 503.5,209.7 504.1,210 504.8,209.6 						"/>
						<polygon class="st4" points="505.1,209.9 504.4,210.3 505,210.6 505.7,210.2 						"/>
						<polygon class="st4" points="506.1,209.3 505.4,209.7 506,210 506.7,209.6 						"/>
						<polygon class="st4" points="505.1,208.7 504.4,209.1 505.1,209.4 505.7,209 						"/>
						<polygon class="st4" points="496.5,213 495.8,213.4 496.4,213.7 497.1,213.3 						"/>
						<polygon class="st4" points="497.4,212.4 496.8,212.8 497.7,213.3 498.4,212.9 						"/>
						<polygon class="st4" points="498.4,211.8 497.7,212.2 498.3,212.5 499,212.1 						"/>
						<polygon class="st4" points="499.4,211.2 498.7,211.6 499.3,211.9 500,211.5 						"/>
						<polygon class="st4" points="500.3,210.6 499.7,211 500.3,211.3 500.9,210.9 						"/>
						<polygon class="st4" points="501.3,210 500.6,210.4 501.2,210.7 501.9,210.3 						"/>
						<polygon class="st4" points="502.2,209.4 501.6,209.8 502.2,210.1 502.9,209.7 						"/>
						<polygon class="st4" points="503.2,208.8 502.5,209.2 503.2,209.5 503.8,209.1 						"/>
						<polygon class="st4" points="504.2,208.2 503.5,208.6 504.1,208.9 504.8,208.5 						"/>
						<polygon class="st4" points="495.5,212.5 494.9,212.9 495.5,213.3 496.1,212.9 						"/>
						<polygon class="st4" points="496.4,214.1 495.7,214.5 496.4,214.9 497,214.4 						"/>
						<polygon class="st4" points="497.3,214.7 496.7,215.1 497.3,215.4 498,215 						"/>
						<polygon class="st4" points="495.5,213.6 494.8,214.1 495.4,214.4 496.1,214 						"/>
						<polygon class="st4" points="494.5,213.2 493.8,213.6 494.5,213.9 495.1,213.5 						"/>
						<polygon class="st4" points="496.5,211.9 495.8,212.3 496.4,212.7 497.1,212.3 						"/>
						<polygon class="st4" points="497.4,211.3 496.8,211.7 497.4,212.1 498.1,211.7 						"/>
						<polygon class="st4" points="498.4,210.7 497.7,211.1 498.4,211.5 499,211.1 						"/>
						<polygon class="st4" points="499.4,210.1 498.7,210.5 499.3,210.9 500,210.5 						"/>
						<polygon class="st4" points="500.3,209.5 499.7,209.9 500.3,210.3 501,209.9 						"/>
						<polygon class="st4" points="501.3,208.9 500.6,209.3 501.2,209.7 501.9,209.3 						"/>
						<polygon class="st4" points="502.3,208.3 501.6,208.7 502.2,209.1 502.9,208.7 						"/>
						<polygon class="st4" points="503.2,207.7 502.5,208.1 503.2,208.5 503.8,208.1 						"/>
					</g>
				</g>
				<polygon class="st7" points="497.2,216.2 497.2,217 492.6,214.6 492.6,213.8 				"/>
				<polygon class="st3" points="497.2,216.2 508,209.6 508.2,210.2 497.2,217 				"/>
			</g>
		</g>
	</g>
	<g>
		<g>
			<g>
				<polygon class="st1" points="520.7,197.7 520.7,189.2 509.9,195.5 509.9,204.1 				"/>
				<polygon class="st1" points="509.9,195.5 509.4,195.2 509.4,203.8 509.9,204.1 				"/>
				<polygon class="st1" points="509.9,195.5 520.7,189.2 520.2,188.9 509.4,195.2 				"/>
				<polygon class="st3" points="509.9,195.5 520.7,189.2 520.2,188.9 509.4,195.2 				"/>
				<polygon class="st2" points="509.9,195.5 509.4,195.2 509.4,203.8 509.9,204.1 				"/>
			</g>
			<g>
				<polygon class="st6" points="520.1,197.2 520.1,190.4 510.6,196 510.6,202.8 				"/>
			</g>
		</g>
		<g>
			<polygon class="st1" points="514.8,206.1 514.8,206.9 510.2,204.5 510.2,203.7 			"/>
			<polygon class="st1" points="514.8,206.1 525.5,199.5 525.8,200.1 514.8,206.9 			"/>
			<g>
				<g>
					<polygon class="st1" points="521,197 525.5,199.5 514.8,206.1 510.2,203.7 					"/>
					<g>
						<polygon class="st4" points="515,203.4 514.3,203.8 515,204.1 515.6,203.7 						"/>
						<polygon class="st4" points="516,202.8 515.3,203.2 515.9,203.5 516.6,203.1 						"/>
						<polygon class="st4" points="515.9,203.9 515.3,204.3 515.9,204.6 516.6,204.2 						"/>
						<polygon class="st4" points="516.9,203.3 516.2,203.7 516.8,204 517.5,203.6 						"/>
						<polygon class="st4" points="517.9,202.8 517.2,203.2 517.8,203.5 518.5,203.1 						"/>
						<polygon class="st4" points="516.9,202.2 516,202.8 516.6,203.1 517.6,202.5 						"/>
						<polygon class="st4" points="518.9,201 518.2,201.4 518.8,201.7 519.5,201.3 						"/>
						<polygon class="st4" points="517.9,201.6 517.2,202 517.8,202.3 518.5,201.9 						"/>
						<polygon class="st4" points="519.8,200.4 519.1,200.8 519.8,201.1 520.4,200.7 						"/>
						<polygon class="st4" points="521.6,200.3 518.1,202.5 518.7,202.9 522.2,200.7 						"/>
						<polygon class="st4" points="520.8,199.8 520.1,200.2 520.7,200.5 521.4,200.1 						"/>
						<polygon class="st4" points="521.7,199.2 521.1,199.6 521.7,199.9 522.4,199.5 						"/>
						<polygon class="st4" points="522.7,199.7 522,200.1 522.6,200.5 523.3,200.1 						"/>
						<polygon class="st4" points="523.7,199.2 523,199.6 523.6,199.9 524.3,199.5 						"/>
						<polygon class="st4" points="522.7,198.6 522,199 522.6,199.3 523.3,198.9 						"/>
						<polygon class="st4" points="514.1,202.9 513.4,203.3 514,203.6 514.7,203.2 						"/>
						<polygon class="st4" points="515,202.3 514.4,202.7 515.3,203.2 516,202.8 						"/>
						<polygon class="st4" points="516,201.7 515.3,202.1 515.9,202.4 516.6,202 						"/>
						<polygon class="st4" points="516.9,201.1 516.3,201.5 516.9,201.8 517.6,201.4 						"/>
						<polygon class="st4" points="517.9,200.5 517.2,200.9 517.9,201.2 518.5,200.8 						"/>
						<polygon class="st4" points="518.9,199.9 518.2,200.3 518.8,200.6 519.5,200.2 						"/>
						<polygon class="st4" points="519.8,199.3 519.2,199.7 519.8,200 520.4,199.6 						"/>
						<polygon class="st4" points="520.8,198.7 520.1,199.1 520.7,199.4 521.4,199 						"/>
						<polygon class="st4" points="521.7,198.1 521.1,198.5 521.7,198.8 522.4,198.4 						"/>
						<polygon class="st4" points="513.1,202.4 512.4,202.8 513.1,203.2 513.7,202.7 						"/>
						<polygon class="st4" points="514,204 513.3,204.4 513.9,204.7 514.6,204.3 						"/>
						<polygon class="st4" points="514.9,204.5 514.2,205 514.9,205.3 515.5,204.9 						"/>
						<polygon class="st4" points="513,203.5 512.4,203.9 513,204.3 513.7,203.9 						"/>
						<polygon class="st4" points="512.1,203.1 511.4,203.5 512,203.8 512.7,203.4 						"/>
						<polygon class="st4" points="514.1,201.8 513.4,202.2 514,202.6 514.7,202.1 						"/>
						<polygon class="st4" points="515,201.2 514.4,201.6 515,202 515.7,201.5 						"/>
						<polygon class="st4" points="516,200.6 515.3,201 515.9,201.4 516.6,200.9 						"/>
						<polygon class="st4" points="517,200 516.3,200.4 516.9,200.8 517.6,200.3 						"/>
						<polygon class="st4" points="517.9,199.4 517.3,199.8 517.9,200.2 518.5,199.7 						"/>
						<polygon class="st4" points="518.9,198.8 518.2,199.2 518.8,199.6 519.5,199.1 						"/>
						<polygon class="st4" points="519.8,198.2 519.2,198.6 519.8,199 520.5,198.5 						"/>
						<polygon class="st4" points="520.8,197.6 520.1,198 520.7,198.4 521.4,197.9 						"/>
					</g>
				</g>
				<polygon class="st7" points="514.8,206.1 514.8,206.9 510.2,204.5 510.2,203.7 				"/>
				<polygon class="st3" points="514.8,206.1 525.5,199.5 525.8,200.1 514.8,206.9 				"/>
			</g>
		</g>
	</g>
	<g>
		<path class="st12" d="M493.2,216.1c0.2-0.7,1-0.9,1.7-0.4l0.9,0.6c0.1-0.1,0.1-0.2,0.3-0.2c0.3-0.1,0.7,0.2,0.9,0.6l0,0
			c0.7,1.7-0.8,3-2.3,2l-0.6-0.4C493.4,217.8,493,216.8,493.2,216.1z"/>
		<g>
			<g>
				<polygon class="st6" points="508.6,231.7 507.7,232.3 507.7,241.3 508.6,240.7 				"/>
			</g>
			<polygon class="st1" points="506.7,231.6 507.7,232.3 507.7,241.3 506.7,240.6 			"/>
		</g>
		<g>
			<polygon class="st16" points="502.6,231.1 501.3,231.3 501,221.5 501.6,220.1 503.9,221.2 			"/>
			<path class="st1" d="M503.9,232.3c0,0.1,0,0.1,0,0.2l-0.7,0.5l-2.9,2.6l0,0c-0.4-0.6-0.6-1.4-0.3-2.1c0.5-1.2,1.2-2.3,2.2-3.1
				l0,0L503.9,232.3z"/>
		</g>
		<polygon class="st6" points="502.6,231.1 501.3,231.3 501.2,228.5 502.8,229.4 		"/>
		<g>
			<polygon class="st1" points="499.8,227.3 500.8,227.9 500.8,237.8 499.8,237.1 			"/>
			<g>
				<polygon class="st6" points="501.8,227.4 500.8,227.9 500.8,237.8 501.8,237.2 				"/>
			</g>
		</g>
		<g>
			<g>
				<g>
					<polygon class="st4" points="515.1,226 507.3,230.4 507.3,232.1 515.1,227.7 					"/>
				</g>
				<g>
					<polygon class="st4" points="515.1,226 507.3,230.4 499.8,225.9 507.6,221.5 					"/>
				</g>
				<polygon class="st4" points="499.8,225.9 507.3,230.4 507.3,232.1 499.8,227.6 				"/>
			</g>
			<g class="st13">
				<polygon class="st14" points="515.1,226 507.3,230.4 499.8,225.9 507.6,221.5 				"/>
			</g>
			<polygon class="st7" points="499.8,225.9 507.3,230.4 507.3,232.1 499.8,227.6 			"/>
		</g>
		<path class="st6" d="M499.2,231.1c0,0.6-1.7,1.5-2.1,0.2s0-9.6,0-9.6c0-0.6,1.1-1.1,1.1-1.1c0.7-0.1,1.5,1.3,1.5,2L499.2,231.1z"
			/>
		<path class="st6" d="M498.5,223.7l5.4,3.4c2.6,1.6,6,1.3,8-0.9c1.1-1.2,1.7-2.7,1.7-4.2l0,0l-9.6-3.2h-0.6c-0.8,0-1.6,0.6-1.7,1.4
			l0,0l3.1,2l-3.3-1.3c-0.8-0.3-1.7-0.4-2.6-0.3l-0.6,0.1L498.5,223.7z"/>
		<path class="st1" d="M500.4,233c0,0.1,0,0.1,0,0.2l-0.7,0.5l-3.2,2.8l0,0c-0.7-1.1-0.7-2.5,0.1-3.4c0.6-0.7,1.4-1.4,2.1-2l0,0
			L500.4,233z"/>
		<polygon class="st6" points="501,221.5 501.6,220.1 503.9,221.2 503.8,221.8 		"/>
		<g>
			<polygon class="st4" points="515.5,226.3 507.8,230.7 507.8,232.4 515.5,228 			"/>
		</g>
		<g class="st15">
			<polygon class="st14" points="515.5,226.3 507.8,230.7 507.8,232.4 515.5,228 			"/>
		</g>
		<path class="st12" d="M508.8,210l-0.4,0.1c-1.2,0.3-2.4-0.5-2.7-1.7l-0.5-2.4c-0.3-1.2,0.5-2.4,1.7-2.7l0.4-0.1
			c1.2-0.3,2.4,0.5,2.7,1.7l0.5,2.4C510.8,208.5,510,209.7,508.8,210z"/>
		<g>
			<polygon class="st6" points="504.4,218.8 508.4,213.2 506.4,210.8 502.4,216.8 			"/>
			<path class="st6" d="M506.6,218.4l-0.2-7.7l4.4-2.1c1.1-0.5,2.4,0.3,2.3,1.6l0.6,6.4l0.3,6.4l-7.3,3.5L506.6,218.4z"/>
			<polygon class="st6" points="496.5,218.9 504.4,218.8 504.1,216.5 496.5,216.5 			"/>
		</g>
		<g>
			<g>
				<polygon class="st6" points="515.7,228.1 514.7,228.6 514.7,237.5 515.7,236.9 				"/>
			</g>
			<polygon class="st1" points="513.7,227.9 514.7,228.6 514.7,237.5 513.7,236.8 			"/>
		</g>
		<g>
			<polygon class="st4" points="507.3,219.4 508.4,220.1 508.4,232.8 507.3,232.1 			"/>
			<polygon class="st4" points="516.2,215.7 508.4,220.1 507.3,219.4 515.1,215 			"/>
		</g>
		<polygon class="st4" points="507.3,219.4 508.4,220.1 508.4,232.8 507.3,232.1 		"/>
		<polygon class="st5" points="516.2,215.7 508.4,220.1 507.3,219.4 515.1,215 		"/>
		<polygon class="st7" points="507.3,219.4 508.4,220.1 508.4,232.8 507.3,232.1 		"/>
		<g>
			<g>
				<polygon class="st4" points="507.3,219.4 508.4,220.1 508.4,232.8 507.3,232.1 				"/>
				<polygon class="st4" points="516.2,215.7 508.4,220.1 508.4,232.8 516.2,228.4 				"/>
			</g>
			<polygon class="st10" points="516.2,215.7 508.4,220.1 508.4,232.8 516.2,228.4 			"/>
		</g>
		<path class="st1" d="M504.7,204.1c-0.1,1,1,1.8,1.6,1.8l0.8,3.3c2.7,0,5.3-1,5.2-1.6c-0.6-3.5-1.7-6.9-3.7-5.9
			C507.9,202,505,201.4,504.7,204.1z"/>
	</g>
	<polygon class="st1" points="523.8,200.7 531.2,205.3 532.3,202.9 525.5,199.4 	"/>
	<path class="st12" d="M524.1,196.8c0.7,0,1.2,0.5,1.2,1.3l-0.1,0.9c0.1,0,0.2,0,0.3,0.1c0.2,0.2,0.2,0.6-0.1,0.9l0,0
		c-1,1-2.8,0.2-2.7-1.2v-0.6C522.8,197.4,523.4,196.8,524.1,196.8z"/>
	<polygon class="st6" points="523.2,222.2 521.8,222.4 521.8,219.6 523.4,220.5 	"/>
	<g>
		<g>
			<polygon class="st4" points="535.7,217.1 527.9,221.5 527.9,223.2 535.7,218.8 			"/>
		</g>
		<g>
			<polygon class="st4" points="535.7,217.1 527.9,221.5 520.4,217 528.2,212.6 			"/>
		</g>
		<polygon class="st4" points="520.4,217 527.9,221.5 527.9,223.2 520.4,218.7 		"/>
	</g>
	<g>
		<path class="st1" d="M524.5,223.4c0,0.1,0,0.1,0,0.2l-0.7,0.5l-2.9,2.6l0,0c-0.4-0.6-0.6-1.4-0.3-2.1c0.5-1.2,1.2-2.3,2.2-3.1l0,0
			L524.5,223.4z"/>
	</g>
	<g>
		<polygon class="st1" points="520.9,219 521.9,219.7 521.9,229.5 520.9,228.8 		"/>
		<g>
			<polygon class="st6" points="521.9,219.7 521.9,229.5 522.9,228.9 522.9,220.2 			"/>
		</g>
	</g>
	<g class="st13">
		<polygon class="st14" points="536.2,217.4 528.4,221.8 520.9,217.3 528.7,212.9 		"/>
	</g>
	<polygon class="st7" points="520.9,217.3 528.4,221.8 528.4,223.5 520.9,219 	"/>
	<path class="st6" d="M519.8,222.2c0,0.6-1.7,1.5-2.1,0.2c-0.4-1.2,0-9.6,0-9.6c0-0.6,1.1-1.1,1.1-1.1c0.7-0.1,1.5,1.3,1.5,2
		L519.8,222.2z"/>
	<path class="st6" d="M519,214.8l5.4,3.4c2.6,1.6,6,1.3,8-0.9c1.1-1.2,1.7-2.7,1.7-4.2l0,0l-9.6-3.2h-0.6c-0.8,0-1.6,0.6-1.7,1.4
		l0,0l3.1,2L522,212c-0.8-0.3-1.7-0.4-2.6-0.3l-0.6,0.1L519,214.8z"/>
	<polygon class="st1" points="525.6,210.3 529.5,204.6 527.5,202.2 523.5,208.3 	"/>
	<path class="st1" d="M527.8,209.9l-1.1-2l0.8-5.7l4.4-2.1c1.1-0.5,2.4,0.3,2.3,1.6l0.6,6.4l0.3,6.4l-7.3,3.5V209.9z"/>
	<polygon class="st1" points="518.1,205.7 525.5,210.3 526.7,207.9 519.8,204.4 	"/>
	<g>
		<g>
			<polygon class="st6" points="529.8,223.3 528.8,223.9 528.8,232.8 529.8,232.2 			"/>
		</g>
		<polygon class="st1" points="527.8,223.2 528.8,223.9 528.8,232.8 527.8,232.1 		"/>
	</g>
	<g>
		<g>
			<polygon class="st6" points="536.8,219.5 535.9,220.1 535.9,229 536.8,228.4 			"/>
		</g>
		<polygon class="st1" points="534.8,219.4 535.9,220.1 535.9,229 534.8,228.3 		"/>
	</g>
	<g>
		<g>
			<polygon class="st4" points="528.4,210.8 529.5,211.5 529.5,224.3 528.4,223.6 			"/>
			<polygon class="st4" points="537.3,207.1 529.5,211.5 529.5,224.3 537.3,219.9 			"/>
		</g>
		<g>
			<polygon class="st4" points="528.4,210.8 529.5,211.5 529.5,224.3 528.4,223.6 			"/>
			<polygon class="st4" points="537.3,207.1 529.5,211.5 528.4,210.8 536.2,206.4 			"/>
		</g>
		<polygon class="st6" points="528.4,210.8 529.5,211.5 529.5,224.3 528.4,223.6 		"/>
		<polygon class="st5" points="537.3,207.1 529.5,211.5 528.4,210.8 536.2,206.4 		"/>
		<polygon class="st4" points="528.4,210.8 529.5,211.5 529.5,224.3 528.4,223.6 		"/>
		<polygon class="st10" points="537.3,207.1 529.5,211.5 529.5,224.3 537.3,219.9 		"/>
	</g>
	<path class="st12" d="M529.9,201.4l-0.4,0.1c-1.2,0.3-2.4-0.5-2.7-1.7l-0.5-2.4c-0.3-1.2,0.5-2.4,1.7-2.7l0.4-0.1
		c1.2-0.3,2.4,0.5,2.7,1.7l0.5,2.4C531.9,200,531.1,201.2,529.9,201.4z"/>
	<path class="st6" d="M526.4,195.4c0.5,0.8,0.4,2,1,2l3.3,3.3c0.3,0,1.4-1.4,1.5-2.1c1-4.5-2.2-6.1-4.2-5.1
		C527.3,193.9,525.3,193.7,526.4,195.4z"/>
	<path class="st6" d="M533.2,208.5c0.3,0,1.4-1.4,1.5-2.1c1-4.5-2.2-6.1-4.2-5.1C529.8,201.6,533.2,208.5,533.2,208.5z"/>
	<path class="st1" d="M521,224.1c0,0.1,0,0.1,0,0.2l-0.7,0.5l-3.2,2.8l0,0c-0.7-1.1-0.7-2.5,0.1-3.4c0.6-0.7,1.4-1.4,2.1-2l0,0
		L521,224.1z"/>
	<polygon class="st6" points="521.6,212.6 522.2,211.2 524.5,212.3 524.4,212.9 	"/>
	
		<rect x="530.4" y="200.1" transform="matrix(0.9639 -0.2663 0.2663 0.9639 -34.2516 148.694)" class="st4" width="1.6" height="1"/>
	<path class="st12" d="M518.4,201.8c0.7,0,1.2,0.5,1.2,1.3l-0.1,0.9c0.1,0,0.2,0,0.3,0.1c0.2,0.2,0.2,0.6-0.1,0.9l0,0
		c-1,1-2.8,0.2-2.7-1.2v-0.6C517.1,202.4,517.7,201.8,518.4,201.8z"/>
</g>
</svg>
