<?xml version="1.0" encoding="utf-8"?>
<!-- Generator: Adobe Illustrator 23.0.1, SVG Export Plug-In . SVG Version: 6.00 Build 0)  -->
<svg version="1.1" xmlns="http://www.w3.org/2000/svg" xmlns:xlink="http://www.w3.org/1999/xlink" x="0px" y="0px"
	 viewBox="0 0 798.5 585.2" style="enable-background:new 0 0 798.5 585.2;" xml:space="preserve">
<style type="text/css">
	.st0{display:none;}
	.st1{display:inline;opacity:0.5;}
	.st2{fill:#81BCBF;}
	.st3{opacity:0.33;fill:#B6CE99;}
	.st4{opacity:0.66;fill:#B6CE99;}
	.st5{fill:#B6CE99;}
	.st6{opacity:0.33;fill:#FFFFFF;}
	.st7{opacity:0.66;fill:#FFFFFF;}
	.st8{fill:#585799;}
	.st9{opacity:0.5;fill:#B6CE99;}
	.st10{opacity:0.33;fill:#81BCBF;}
	.st11{opacity:0.66;fill:#81BCBF;}
	.st12{opacity:0.5;fill:#585799;}
	.st13{fill:#508A99;}
	.st14{opacity:0.33;fill:#508A99;}
	.st15{opacity:0.66;fill:#508A99;}
	.st16{fill:none;}
	.st17{opacity:0.66;fill:#585799;}
	.st18{opacity:0.66;}
	.st19{fill:#FFFFFF;}
	.st20{opacity:0.33;}
	.st21{opacity:0.33;fill:#585799;}
	.st22{fill:none;stroke:#FFFFFF;stroke-width:0.25;stroke-miterlimit:10;}
	.st23{opacity:0.5;fill:#81BCBF;}
	.st24{opacity:0.5;fill:#FFFFFF;}
	.st25{opacity:0.2;}
	.st26{fill-rule:evenodd;clip-rule:evenodd;fill:#FFFFFF;}
</style>
<g id="Ejemplo" class="st0">
</g>
<g id="Retícula" class="st0">
</g>
<g id="Números">
	<polyline class="st5" points="500.2,549.5 643.4,467.2 643.4,479 500.2,561.5 	"/>
	<polyline class="st5" points="500.2,561.5 389,496.8 389,485 500.2,549.5 	"/>
	<polyline class="st5" points="500.2,549.5 643.4,467.2 532.2,403 389,485 500.2,549.5 500.2,561.5 	"/>
	<polyline class="st24" points="500.2,561.5 389,496.8 389,485 500.2,549.5 	"/>
	<polyline class="st7" points="500.2,549.5 643.4,467.2 532.2,403 389,485 500.2,549.5 500.2,561.5 	"/>
	<polyline class="st5" points="427.2,419.2 460.4,399.6 460.4,406.2 427.2,425.5 427.2,419.2 	"/>
	<polygon class="st5" points="421.5,409.6 454.8,390.1 449.1,386.8 415.8,406.2 	"/>
	<polyline class="st5" points="421.5,416 454.8,396.3 454.8,390.1 421.5,409.6 	"/>
	<polyline class="st5" points="421.5,409.6 421.5,416 454.8,396.3 460.4,399.6 427.2,419.2 421.5,416 	"/>
	<polyline class="st5" points="438.6,438.6 471.7,419 471.7,425.6 438.6,444.7 438.6,438.6 	"/>
	<polygon class="st5" points="432.9,428.6 466.2,409.1 460.4,406.2 427.2,425.5 	"/>
	<polyline class="st5" points="432.9,435.3 466.2,415.6 466.2,409.1 432.9,428.6 	"/>
	<polyline class="st5" points="432.9,428.6 432.9,435.3 466.2,415.6 471.7,419 438.6,438.6 432.9,435.3 	"/>
	<polygon class="st5" points="432.9,435.3 432.9,428.6 427.2,425.5 427.2,421.5 427.2,419.2 425.5,418.2 425.5,418.3 421.5,416 
		421.5,409.6 415.8,406.2 415.8,408.2 420.1,410.8 420.1,417.4 425.5,420.6 425.5,426.7 425.5,426.7 431.5,429.8 431.5,436.7 
		436.9,439.9 436.9,445.7 442.7,449.3 442.7,454.2 444.2,453.3 444.2,448 438.6,444.7 438.6,440.9 438.6,438.6 438.6,438.5 	"/>
	<polyline class="st5" points="438.6,444.7 471.8,425.5 478.1,428.4 444.2,448 438.6,444.7 	"/>
	<polyline class="st5" points="444.2,447.9 478.1,428.4 478.1,433.9 444.2,453.3 444.2,447.9 	"/>
	<polygon class="st7" points="421.5,409.6 454.8,390.1 449.1,386.8 415.8,406.2 	"/>
	<polyline class="st7" points="421.5,416 454.8,396.3 460.4,399.6 427.2,419.2 421.5,416 	"/>
	<polygon class="st7" points="432.9,428.6 466.2,409.1 460.4,406.2 427.2,425.5 	"/>
	<polyline class="st7" points="432.9,428.6 432.9,435.3 466.2,415.6 471.7,419 438.6,438.6 432.9,435.3 	"/>
	<polyline class="st7" points="438.6,444.7 471.8,425.5 478.1,428.4 444.2,448 438.6,444.7 	"/>
	<polygon class="st10" points="432.9,435.3 432.9,428.6 427.2,425.5 427.2,421.5 427.2,419.2 425.5,418.2 425.5,418.3 421.5,416 
		421.5,409.6 415.8,406.2 415.8,408.2 420.1,410.8 420.1,417.4 425.5,420.6 425.5,426.7 425.5,426.7 431.5,429.8 431.5,436.7 
		436.9,439.9 436.9,445.7 442.7,449.3 442.7,454.2 444.2,453.3 444.2,448 438.6,444.7 438.6,440.9 438.6,438.6 438.6,438.5 	"/>
	<g>
		<polygon class="st2" points="572.8,431.6 561.7,437.9 550.7,431.6 561.6,425.1 		"/>
		<polygon class="st2" points="550.7,431.6 561.7,437.9 561.7,454.5 550.7,448.1 		"/>
		<polygon class="st11" points="572.8,431.6 561.7,438 561.7,454.4 572.8,447.9 		"/>
		<polygon class="st13" points="572.8,431.6 561.7,438 561.7,454.4 572.8,447.9 		"/>
		<g>
			<g transform="translate(0,-952.36218)">
				<path class="st26" d="M565,1399.9c-0.2,0.1-0.3,0.3-0.3,0.4c0,0.2,0.1,0.2,0.3,0.1c0,0,0,0,0,0l4.6-2.7c0.2-0.1,0.3-0.3,0.3-0.4
					c0-0.2-0.1-0.2-0.3-0.1c0,0,0,0,0,0L565,1399.9z"/>
				<path class="st26" d="M565,1398.8c-0.2,0.1-0.3,0.3-0.3,0.4c0,0.2,0.1,0.2,0.3,0.1c0,0,0,0,0,0l4.6-2.7c0.2-0.1,0.3-0.3,0.3-0.4
					c0-0.2-0.1-0.2-0.3-0.1c0,0,0,0,0,0L565,1398.8z"/>
				<path class="st26" d="M565,1397.6c-0.2,0.1-0.3,0.3-0.3,0.4c0,0.2,0.1,0.2,0.3,0.1c0,0,0,0,0,0l4.6-2.7c0.2-0.1,0.3-0.3,0.3-0.4
					c0-0.2-0.1-0.2-0.3-0.1c0,0,0,0,0,0L565,1397.6z"/>
				<path class="st26" d="M565,1396.5c-0.2,0.1-0.3,0.3-0.3,0.4c0,0.2,0.1,0.2,0.3,0.1c0,0,0,0,0,0l4.6-2.7c0.2-0.1,0.3-0.3,0.3-0.4
					c0-0.2-0.1-0.2-0.3-0.1c0,0,0,0,0,0L565,1396.5z"/>
				<path class="st26" d="M565,1393.6c-0.2,0.1-0.3,0.3-0.3,0.4v1.7c0,0.2,0.1,0.2,0.3,0.1l1.7-1c0.2-0.1,0.3-0.3,0.3-0.4v-1.7
					c0-0.2-0.1-0.2-0.3-0.1L565,1393.6z M565.3,1394l1.1-0.6v1.1l-1.1,0.6V1394z"/>
				<path class="st26" d="M564.6,1392.4l-1,0.6c-0.1,0.1-0.3,0.3-0.3,0.4v9.1c0,0.1,0.1,0.2,0.3,0.1l7.3-4.2
					c0.1-0.1,0.3-0.3,0.3-0.4v-1.1v-5.2c0-0.2-0.1-0.3-0.1-0.4l-1.6-1.4c-0.1-0.1-0.3-0.1-0.5,0L564.6,1392.4z M563.9,1393.4
					l4.8-2.7v2.2c0,0.1,0.1,0.2,0.2,0.1l1.7-1v6l-6.7,3.9V1393.4z M569.2,1390.7l1.1,0.9l-1.1,0.6V1390.7z"/>
			</g>
		</g>
		<polygon class="st14" points="550.7,431.6 561.7,437.9 561.7,454.5 550.7,448.1 		"/>
		<polygon class="st6" points="572.8,431.6 561.7,437.9 550.7,431.6 561.6,425.1 		"/>
		<g>
			<g transform="translate(0,-952.36218)">
				<path class="st26" d="M553.7,1397.8c-0.1-0.1-0.2,0-0.2,0.1c0,0.1,0.1,0.3,0.2,0.4c0,0,0,0,0,0l3.9,2.2c0.1,0.1,0.2,0,0.2-0.1
					c0-0.1-0.1-0.3-0.2-0.4c0,0,0,0,0,0L553.7,1397.8z"/>
				<path class="st26" d="M553.7,1396.9c-0.1-0.1-0.2,0-0.2,0.1c0,0.1,0.1,0.3,0.2,0.4c0,0,0,0,0,0l3.9,2.2c0.1,0.1,0.2,0,0.2-0.1
					c0-0.1-0.1-0.3-0.2-0.4c0,0,0,0,0,0L553.7,1396.9z"/>
				<path class="st26" d="M553.7,1396c-0.1-0.1-0.2,0-0.2,0.1c0,0.1,0.1,0.3,0.2,0.4c0,0,0,0,0,0l3.9,2.2c0.1,0.1,0.2,0,0.2-0.1
					c0-0.1-0.1-0.3-0.2-0.4c0,0,0,0,0,0L553.7,1396z"/>
				<path class="st26" d="M553.7,1395c-0.1-0.1-0.2,0-0.2,0.1c0,0.1,0.1,0.3,0.2,0.4c0,0,0,0,0,0l3.9,2.2c0.1,0.1,0.2,0,0.2-0.1
					c0-0.1-0.1-0.3-0.2-0.4c0,0,0,0,0,0L553.7,1395z"/>
				<path class="st26" d="M553.7,1392.6c-0.1-0.1-0.2,0-0.2,0.1v1.4c0,0.1,0.1,0.3,0.2,0.4l1.4,0.8c0.1,0.1,0.2,0,0.2-0.1v-1.4
					c0-0.1-0.1-0.3-0.2-0.4L553.7,1392.6z M553.9,1393.2l0.9,0.5v0.9l-0.9-0.5V1393.2z"/>
				<path class="st26" d="M558.7,1392.1l-4.3-2.5c-0.1-0.1-0.2,0-0.2,0.1v0.8l-0.6-0.3c-0.1-0.1-0.2,0-0.2,0.1v0.9l-0.8-0.5
					c-0.1-0.1-0.2,0-0.2,0.1v7.6c0,0.1,0.1,0.3,0.2,0.4l6.1,3.5c0.1,0.1,0.2,0,0.2-0.1v-0.9l0.7,0.4c0.1,0.1,0.2,0,0.2-0.1l0-0.8
					l0.8,0.6c0.1,0,0-0.1,0-0.2v-5.9l-1.6-2.8C559,1392.3,558.9,1392.2,558.7,1392.1L558.7,1392.1z M554.6,1390.2l4,2.3v1.2
					l-0.4-0.7c-0.1-0.1-0.1-0.2-0.2-0.2l-3.4-2V1390.2z M559.1,1393.2l0.9,1.7l-0.9-0.5V1393.2z M553.8,1390.8l4,2.3v1.5l-0.6-1
					c-0.1-0.1-0.2-0.2-0.2-0.3l-3.2-1.8V1390.8z M558.3,1393.8l0.8,1.6l-0.8-0.5V1393.8z M559.3,1395l0.9,0.5v5l-0.5-0.3v-4.2
					c0-0.1,0-0.2-0.1-0.4L559.3,1395z M552.8,1391.3l4,2.3v1.9c0,0.1,0.1,0.3,0.2,0.4l1.4,0.8v5l-5.6-3.2V1391.3z M557.2,1394.2
					l0.9,1.8l-0.9-0.5V1394.2z M559.3,1396v5l-0.5-0.3v-4.2c0-0.1-0.1-0.2-0.1-0.3l-0.5-0.9L559.3,1396z"/>
			</g>
		</g>
		<polygon class="st15" points="572.8,431.6 561.7,438 561.7,454.4 572.8,447.9 		"/>
	</g>
	<g>
		<g>
			<g>
				<polygon class="st13" points="603,429.5 584.3,440.2 584.3,466.3 602.9,455.5 				"/>
				<polygon class="st2" points="603,429.5 584.3,440.2 566.7,430 585.3,419.3 				"/>
				<polygon class="st2" points="566.7,430 584.3,440.2 584.3,466.4 566.7,456.2 				"/>
				<polygon class="st11" points="603,429.5 584.3,440.2 584.3,466.3 603,455.5 				"/>
				<polygon class="st6" points="603,429.5 603,429.5 584.3,440.2 566.7,430 585.3,419.3 585.3,419.3 				"/>
			</g>
			<g>
				<g transform="translate(0,-952.36218)">
					<path class="st26" d="M572,1403.7c-0.2-0.1-0.4-0.1-0.4,0.2c0,0.2,0.2,0.6,0.4,0.7c0,0,0,0,0,0l7.3,4.2
						c0.2,0.1,0.4,0.1,0.4-0.2c0-0.2-0.2-0.6-0.4-0.7c0,0,0,0,0,0L572,1403.7z"/>
					<path class="st26" d="M572,1402c-0.2-0.1-0.4-0.1-0.4,0.2s0.2,0.6,0.4,0.7c0,0,0,0,0,0l7.3,4.2c0.2,0.1,0.4,0.1,0.4-0.2
						c0-0.2-0.2-0.6-0.4-0.7c0,0,0,0,0,0L572,1402z"/>
					<path class="st26" d="M572,1400.2c-0.2-0.1-0.4-0.1-0.4,0.2c0,0.2,0.2,0.6,0.4,0.7c0,0,0,0,0,0l7.3,4.2
						c0.2,0.1,0.4,0.1,0.4-0.2c0-0.2-0.2-0.6-0.4-0.7c0,0,0,0,0,0L572,1400.2z"/>
					<path class="st26" d="M572,1398.4c-0.2-0.1-0.4-0.1-0.4,0.2c0,0.2,0.2,0.6,0.4,0.7c0,0,0,0,0,0l7.3,4.2
						c0.2,0.1,0.4,0.1,0.4-0.2s-0.2-0.6-0.4-0.7c0,0,0,0,0,0L572,1398.4z"/>
					<path class="st26" d="M572,1393.7c-0.2-0.1-0.4-0.1-0.4,0.2v2.7c0,0.2,0.2,0.6,0.4,0.7l2.7,1.5c0.2,0.1,0.4,0.1,0.4-0.2v-2.7
						c0-0.2-0.2-0.6-0.4-0.7L572,1393.7z M572.5,1394.9l1.8,1v1.8l-1.8-1V1394.9z"/>
					<path class="st26" d="M571.3,1391.1l-1.6-0.9c-0.2-0.1-0.4,0-0.4,0.2v14.4c0,0.2,0.2,0.6,0.4,0.7l11.6,6.7
						c0.2,0.1,0.4,0,0.4-0.2v-1.8v-8.3c0-0.3-0.1-0.6-0.2-0.8l-2.6-5.2c-0.2-0.3-0.5-0.6-0.7-0.8L571.3,1391.1z M570.2,1391.4
						l7.6,4.4v3.6c0,0.2,0.2,0.5,0.4,0.7l2.7,1.6v9.6l-10.7-6.2V1391.4z M578.7,1396.9l1.8,3.5l-1.8-1V1396.9z"/>
				</g>
			</g>
		</g>
		<g>
			<g transform="translate(0,-952.36218)">
				<path class="st26" d="M589.1,1408.6c-0.2,0.1-0.4,0.4-0.4,0.6c0,0.2,0.2,0.3,0.4,0.2c0,0,0,0,0,0l6.1-3.5
					c0.2-0.1,0.4-0.4,0.4-0.6c0-0.2-0.2-0.3-0.4-0.2c0,0,0,0,0,0L589.1,1408.6z"/>
				<path class="st26" d="M589.1,1407.1c-0.2,0.1-0.4,0.4-0.4,0.6c0,0.2,0.2,0.3,0.4,0.2c0,0,0,0,0,0l6.1-3.5
					c0.2-0.1,0.4-0.4,0.4-0.6c0-0.2-0.2-0.3-0.4-0.2c0,0,0,0,0,0L589.1,1407.1z"/>
				<path class="st26" d="M589.1,1405.6c-0.2,0.1-0.4,0.4-0.4,0.6c0,0.2,0.2,0.3,0.4,0.2c0,0,0,0,0,0l6.1-3.5
					c0.2-0.1,0.4-0.4,0.4-0.6c0-0.2-0.2-0.3-0.4-0.2c0,0,0,0,0,0L589.1,1405.6z"/>
				<path class="st26" d="M589.1,1404.1c-0.2,0.1-0.4,0.4-0.4,0.6c0,0.2,0.2,0.3,0.4,0.2c0,0,0,0,0,0l6.1-3.5
					c0.2-0.1,0.4-0.4,0.4-0.6c0-0.2-0.2-0.3-0.4-0.2c0,0,0,0,0,0L589.1,1404.1z"/>
				<path class="st26" d="M589.1,1400.2c-0.2,0.1-0.4,0.4-0.4,0.6v2.2c0,0.2,0.2,0.3,0.4,0.2l2.2-1.3c0.2-0.1,0.4-0.4,0.4-0.6v-2.2
					c0-0.2-0.2-0.3-0.4-0.2L589.1,1400.2z M589.5,1400.7l1.5-0.9v1.5l-1.5,0.9V1400.7z"/>
				<path class="st26" d="M597.1,1390.2l-6.9,4c-0.2,0.1-0.4,0.4-0.4,0.6v1.3l-0.9,0.5c-0.2,0.1-0.4,0.4-0.4,0.6v1.5l-1.3,0.8
					c-0.2,0.1-0.4,0.4-0.4,0.6v12.1c0,0.2,0.2,0.3,0.4,0.2l9.7-5.6c0.2-0.1,0.4-0.4,0.4-0.6v-1.5l1.1-0.6c0.2-0.1,0.4-0.4,0.4-0.6
					l0-1.3l1.3-0.6c0.1-0.1-0.1-0.1,0-0.3v-9.4l-2.5-1.7C597.6,1390,597.4,1390,597.1,1390.2L597.1,1390.2z M590.6,1394.7l6.3-3.7
					v1.9l-0.7-0.4c-0.1-0.1-0.2-0.1-0.3,0l-5.4,3.1V1394.7z M597.7,1391.3l1.5,1l-1.5,0.9V1391.3z M589.3,1397.1l6.3-3.7v2.4
					l-0.9-0.6c-0.1-0.1-0.2,0-0.4,0l-5,2.9V1397.1z M596.4,1393.8l1.3,1.1l-1.3,0.8V1393.8z M598,1393.7l1.5-0.9v8l-0.7,0.4v-6.7
					c0-0.2,0-0.3-0.2-0.5L598,1393.7z M587.6,1399.9l6.3-3.7v3c0,0.2,0.1,0.3,0.3,0.2l2.3-1.3v8l-8.9,5.2V1399.9z M594.7,1396.4
					l1.5,1.2l-1.5,0.9V1396.4z M598,1395.4v8l-0.7,0.4v-6.7c0-0.1-0.1-0.2-0.2-0.3l-0.7-0.5L598,1395.4z"/>
			</g>
		</g>
	</g>
	<g>
		<polygon class="st2" points="480.6,475.9 471.2,481.3 461.8,475.9 471.1,470.4 		"/>
		<polygon class="st2" points="461.8,475.9 471.2,481.3 471.2,495.3 461.8,489.8 		"/>
		<polygon class="st11" points="480.5,475.9 471.2,481.3 471.2,495.2 480.5,489.8 		"/>
		<polygon class="st13" points="480.5,475.9 471.2,481.3 471.2,495.2 480.5,489.8 		"/>
		<g>
			<g transform="translate(0,-952.36218)">
				<path class="st26" d="M473.9,1441.8c-0.1,0.1-0.2,0.2-0.2,0.4s0.1,0.2,0.2,0.1c0,0,0,0,0,0l3.9-2.3c0.1-0.1,0.2-0.2,0.2-0.4
					c0-0.1-0.1-0.2-0.2-0.1c0,0,0,0,0,0L473.9,1441.8z"/>
				<path class="st26" d="M473.9,1440.8c-0.1,0.1-0.2,0.2-0.2,0.4c0,0.1,0.1,0.2,0.2,0.1c0,0,0,0,0,0l3.9-2.3
					c0.1-0.1,0.2-0.2,0.2-0.4s-0.1-0.2-0.2-0.1c0,0,0,0,0,0L473.9,1440.8z"/>
				<path class="st26" d="M473.9,1439.9c-0.1,0.1-0.2,0.2-0.2,0.4c0,0.1,0.1,0.2,0.2,0.1c0,0,0,0,0,0l3.9-2.3
					c0.1-0.1,0.2-0.2,0.2-0.4c0-0.1-0.1-0.2-0.2-0.1c0,0,0,0,0,0L473.9,1439.9z"/>
				<path class="st26" d="M473.9,1438.9c-0.1,0.1-0.2,0.2-0.2,0.4s0.1,0.2,0.2,0.1c0,0,0,0,0,0l3.9-2.3c0.1-0.1,0.2-0.2,0.2-0.4
					c0-0.1-0.1-0.2-0.2-0.1c0,0,0,0,0,0L473.9,1438.9z"/>
				<path class="st26" d="M473.9,1436.4c-0.1,0.1-0.2,0.2-0.2,0.4v1.4c0,0.1,0.1,0.2,0.2,0.1l1.4-0.8c0.1-0.1,0.2-0.2,0.2-0.4v-1.4
					c0-0.1-0.1-0.2-0.2-0.1L473.9,1436.4z M474.2,1436.8l0.9-0.5v0.9l-0.9,0.5V1436.8z"/>
				<path class="st26" d="M473.6,1435.4l-0.8,0.5c-0.1,0.1-0.2,0.3-0.2,0.4v7.7c0,0.1,0.1,0.2,0.2,0.1l6.2-3.6
					c0.1-0.1,0.2-0.3,0.2-0.4v-0.9l0-4.4c0-0.1,0-0.2-0.1-0.3l-1.4-1.2c-0.1-0.1-0.2-0.1-0.4,0L473.6,1435.4z M473,1436.2l4-2.3v1.9
					c0,0.1,0.1,0.2,0.2,0.1l1.5-0.8v5.1l-5.7,3.3V1436.2z M477.5,1434l0.9,0.8l-0.9,0.5V1434z"/>
			</g>
		</g>
		<polygon class="st14" points="461.8,475.9 471.2,481.3 471.2,495.3 461.8,489.8 		"/>
		<polygon class="st6" points="480.6,475.9 471.2,481.3 461.8,475.9 471.1,470.4 		"/>
		<g>
			<g transform="translate(0,-952.36218)">
				<path class="st26" d="M464.4,1440c-0.1-0.1-0.2,0-0.2,0.1s0.1,0.2,0.2,0.3c0,0,0,0,0,0l3.3,1.9c0.1,0.1,0.2,0,0.2-0.1
					c0-0.1-0.1-0.2-0.2-0.3c0,0,0,0,0,0L464.4,1440z"/>
				<path class="st26" d="M464.4,1439.2c-0.1-0.1-0.2,0-0.2,0.1c0,0.1,0.1,0.2,0.2,0.3c0,0,0,0,0,0l3.3,1.9c0.1,0.1,0.2,0,0.2-0.1
					c0-0.1-0.1-0.2-0.2-0.3c0,0,0,0,0,0L464.4,1439.2z"/>
				<path class="st26" d="M464.4,1438.4c-0.1-0.1-0.2,0-0.2,0.1c0,0.1,0.1,0.2,0.2,0.3c0,0,0,0,0,0l3.3,1.9c0.1,0.1,0.2,0,0.2-0.1
					c0-0.1-0.1-0.2-0.2-0.3c0,0,0,0,0,0L464.4,1438.4z"/>
				<path class="st26" d="M464.4,1437.6c-0.1-0.1-0.2,0-0.2,0.1s0.1,0.2,0.2,0.3c0,0,0,0,0,0l3.3,1.9c0.1,0.1,0.2,0,0.2-0.1
					c0-0.1-0.1-0.2-0.2-0.3c0,0,0,0,0,0L464.4,1437.6z"/>
				<path class="st26" d="M464.4,1435.6c-0.1-0.1-0.2,0-0.2,0.1v1.2c0,0.1,0.1,0.2,0.2,0.3l1.2,0.7c0.1,0.1,0.2,0,0.2-0.1v-1.2
					c0-0.1-0.1-0.2-0.2-0.3L464.4,1435.6z M464.6,1436.1l0.8,0.5v0.8l-0.8-0.5C464.6,1436.9,464.6,1436.1,464.6,1436.1z"/>
				<path class="st26" d="M468.6,1435.1l-3.7-2.1c-0.1-0.1-0.2,0-0.2,0.1v0.7l-0.5-0.3c-0.1-0.1-0.2,0-0.2,0.1v0.8l-0.7-0.4
					c-0.1-0.1-0.2,0-0.2,0.1v6.4c0,0.1,0.1,0.3,0.2,0.3l5.2,3c0.1,0.1,0.2,0,0.2-0.1v-0.8l0.6,0.3c0.1,0.1,0.2,0,0.2-0.1l0-0.7
					l0.7,0.5c0.1,0,0-0.1,0-0.1v-5l-1.3-2.4C468.9,1435.4,468.8,1435.2,468.6,1435.1L468.6,1435.1z M465.2,1433.5l3.4,1.9v1
					l-0.4-0.6c0-0.1-0.1-0.2-0.1-0.2l-2.9-1.7V1433.5z M468.9,1436.1l0.8,1.4l-0.8-0.5V1436.1z M464.5,1434l3.4,1.9v1.3l-0.5-0.9
					c-0.1-0.1-0.1-0.2-0.2-0.2l-2.7-1.5V1434z M468.3,1436.6l0.7,1.4l-0.7-0.4V1436.6z M469.1,1437.6l0.8,0.5v4.3l-0.4-0.2v-3.6
					c0-0.1,0-0.2-0.1-0.4L469.1,1437.6z M463.6,1434.5l3.4,1.9v1.6c0,0.1,0.1,0.2,0.2,0.3l1.2,0.7v4.3l-4.8-2.7V1434.5z M467.4,1437
					l0.8,1.5l-0.8-0.5V1437z M469.1,1438.5v4.3l-0.4-0.2v-3.6c0-0.1-0.1-0.2-0.1-0.3l-0.4-0.7L469.1,1438.5z"/>
			</g>
		</g>
		<polygon class="st15" points="480.5,475.9 471.2,481.3 471.2,495.2 480.5,489.8 		"/>
	</g>
	<path class="st2" d="M547.5,481.4l0.3,53.1l44.7,26v-53.3L547.5,481.4z"/>
	<g class="st18">
		<polygon class="st13" points="549.7,532.8 549.4,485.2 590.7,509 590.7,556.7 		"/>
	</g>
	<g class="st18">
		<polygon class="st13" points="549.7,532.8 588.3,507.6 590.7,509 590.7,556.7 		"/>
	</g>
	<g>
		<polygon class="st8" points="614.9,493.8 613.6,442.8 657.4,468.3 657.4,521.3 		"/>
	</g>
	<g class="st18">
		<polygon class="st13" points="614.9,493.8 613.6,442.8 657.4,468.3 657.4,521.3 		"/>
	</g>
	<path class="st2" d="M700.5,464.1l-19,11.6l-48.9-31.5l24.2-4c3-0.5,6.2,0.1,8.8,1.8L700.5,464.1z"/>
	<path class="st2" d="M694.5,463.4L680,454l-22.6,14.3v42.2v0v0l44.9-21.7l0.3-20.8c0-2.8-2.3-5-5.1-4.8L694.5,463.4z"/>
	<path class="st14" d="M694.5,463.4L680,454l-22.6,14.3v50.1v-8v0l44.9-21.7l0.3-21.1c0-2.6-2.2-4.7-4.8-4.5L694.5,463.4z"/>
	<g>
		<polygon class="st2" points="654.7,469.5 592.5,507.2 547.6,481.4 610.5,444.4 		"/>
		<polygon class="st7" points="654.7,469.5 592.5,507.2 547.6,481.4 610.5,444.4 		"/>
	</g>
	<polygon class="st2" points="680,454 680,454 657.4,468.3 613.6,442.8 635.4,429.9 	"/>
	<g>
		<polygon class="st13" points="425.7,478.6 424.6,479.3 424.6,494 425.7,493.3 		"/>
		<polygon class="st17" points="425.7,478.6 424.6,479.3 424.6,481 425.7,480.3 		"/>
		<polygon class="st13" points="423.5,478.6 424.6,479.3 424.6,494 423.5,493.3 		"/>
		<polygon class="st21" points="423.5,478.6 424.6,479.3 424.6,481 423.5,480.4 		"/>
		<polygon class="st6" points="423.5,478.6 424.6,479.3 424.6,494 423.5,493.3 		"/>
	</g>
	<g>
		<polygon class="st13" points="469.1,483.1 468,483.8 468,498.6 469.1,497.9 		"/>
		<polygon class="st17" points="469.1,483.1 468,483.8 468,485.6 469.1,484.9 		"/>
		<polygon class="st13" points="466.9,483.1 468,483.8 468,498.6 466.9,497.9 		"/>
		<polygon class="st21" points="466.9,483.1 468,483.8 468,485.6 466.9,485 		"/>
		<polygon class="st6" points="466.9,483.1 468,483.8 468,498.6 466.9,497.9 		"/>
	</g>
	<g>
		<polygon class="st13" points="451.1,493.4 450,494.1 450,508.9 451.1,508.2 		"/>
		<polygon class="st17" points="451.1,493.4 450,494.1 450,495.9 451.1,495.2 		"/>
		<polygon class="st13" points="448.9,493.4 450,494.1 450,508.9 448.9,508.2 		"/>
		<polygon class="st21" points="448.9,493.4 450,494.1 450,495.9 448.9,495.3 		"/>
		<polygon class="st6" points="448.9,493.4 450,494.1 450,508.9 448.9,508.2 		"/>
	</g>
	<polygon class="st13" points="469.9,480.3 449.3,492.2 449.3,495 469.9,483 	"/>
	<polygon class="st13" points="422.9,476.4 449.3,492.2 449.3,495 422.9,479.1 	"/>
	<polygon class="st13" points="422.9,476.4 449.3,492.2 469.9,480.3 443.5,464.4 	"/>
	<polygon class="st7" points="422.9,476.4 449.3,492.2 469.9,480.3 443.5,464.4 	"/>
	<polygon class="st6" points="422.9,476.4 449.3,492.2 449.3,495 422.9,479.1 	"/>
	<g>
		<g>
			<path class="st13" d="M622.7,535.6c-2-1.2-4.9-0.9-8.2,0.9c-5.9,3.4-10.7,11-10.7,16.9c0,2.3,0.8,4.1,2,5.1
				c0.8,0.7,5.7,4.9,6.9,5.5c2,1,4.7,0.7,7.8-1.1c5.9-3.4,10.7-11,10.7-16.9c0-2.3-0.7-4-2-5C628.5,540.3,623.7,536.2,622.7,535.6z"
				/>
			<path class="st17" d="M622.7,535.6c-2-1.2-4.9-0.9-8.2,0.9c-5.9,3.4-10.7,11-10.7,16.9c0,2.3,0.8,4.1,2,5.1
				c0.8,0.7,5.7,4.9,6.9,5.5c2,1,4.7,0.7,7.8-1.1c5.9-3.4,10.7-11,10.7-16.9c0-2.3-0.7-4-2-5C628.5,540.3,623.7,536.2,622.7,535.6z"
				/>
		</g>
		
			<ellipse transform="matrix(0.6011 -0.7992 0.7992 0.6011 -193.7598 716.2172)" class="st14" cx="620.6" cy="552.2" rx="14.3" ry="8.1"/>
		
			<ellipse transform="matrix(0.6011 -0.7992 0.7992 0.6011 -193.7598 716.2172)" class="st13" cx="620.6" cy="552.2" rx="7.4" ry="4.2"/>
		<path class="st8" d="M624.9,546.2c0.1,0.4,0.2,0.8,0.2,1.3c0,3.1-2.5,7-5.5,8.7c-1.7,1-3.3,1.1-4.3,0.4c0.6,2,2.8,2.6,5.4,1.1
			c3.1-1.8,5.5-5.7,5.5-8.7C626.1,547.7,625.6,546.7,624.9,546.2z"/>
	</g>
	<g>
		<g>
			<path class="st13" d="M683.4,498.9c-2-1.2-4.9-0.9-8.2,0.9c-5.9,3.4-10.7,11-10.7,16.9c0,2.3,0.8,4.1,2,5.1
				c0.8,0.7,5.7,4.9,6.9,5.5c2,1,4.7,0.7,7.8-1.1c5.9-3.4,10.7-11,10.7-16.9c0-2.3-0.7-4-2-5C689.2,503.6,684.5,499.5,683.4,498.9z"
				/>
			<path class="st17" d="M683.4,498.9c-2-1.2-4.9-0.9-8.2,0.9c-5.9,3.4-10.7,11-10.7,16.9c0,2.3,0.8,4.1,2,5.1
				c0.8,0.7,5.7,4.9,6.9,5.5c2,1,4.7,0.7,7.8-1.1c5.9-3.4,10.7-11,10.7-16.9c0-2.3-0.7-4-2-5C689.2,503.6,684.5,499.5,683.4,498.9z"
				/>
		</g>
		
			<ellipse transform="matrix(0.6011 -0.7992 0.7992 0.6011 -140.2441 750.1365)" class="st14" cx="681.3" cy="515.6" rx="14.3" ry="8.1"/>
		
			<ellipse transform="matrix(0.6011 -0.7992 0.7992 0.6011 -140.2441 750.1365)" class="st13" cx="681.3" cy="515.6" rx="7.4" ry="4.2"/>
		<path class="st8" d="M685.6,509.6c0.1,0.4,0.2,0.8,0.2,1.3c0,3.1-2.5,7-5.5,8.7c-1.7,1-3.3,1.1-4.3,0.4c0.6,2,2.8,2.6,5.4,1.1
			c3.1-1.8,5.5-5.7,5.5-8.7C686.8,511,686.4,510.1,685.6,509.6z"/>
	</g>
	<path class="st13" d="M677.8,502c3.3-1.9,6.2-1.9,8-0.5c0.9,0.7,2.2,0.8,3.1,0.2l13.3-8.2l-0.2-9l-14.9,9.2c-1,0.6-2.2,0.5-3.1-0.1
		c-1.8-1.2-4.5-1.1-7.6,0.7c-4.1,2.4-19.1,12.7-19.1,12.7v14.1l11.2-7.1C669.8,509.5,673.5,504.5,677.8,502z"/>
	<g>
		<polygon class="st2" points="586.8,503.9 576,510.2 563.9,503.2 574.7,496.9 		"/>
		<polygon class="st2" points="563.9,503.2 576,510.2 576,528.1 563.9,521.2 		"/>
		<polygon class="st11" points="586.8,504 576,510.2 576,528.1 586.8,521.8 		"/>
		<polygon class="st13" points="586.8,504 576,510.2 576,528.1 586.8,521.8 		"/>
		<g>
			<g transform="translate(0,-952.36218)">
				<path class="st26" d="M579.5,1473c-0.2,0.1-0.3,0.3-0.3,0.5c0,0.2,0.1,0.2,0.3,0.1c0,0,0,0,0,0l5-2.9c0.2-0.1,0.3-0.3,0.3-0.5
					c0-0.2-0.1-0.2-0.3-0.1c0,0,0,0,0,0L579.5,1473z"/>
				<path class="st26" d="M579.5,1471.7c-0.2,0.1-0.3,0.3-0.3,0.5c0,0.2,0.1,0.2,0.3,0.1c0,0,0,0,0,0l5-2.9c0.2-0.1,0.3-0.3,0.3-0.5
					s-0.1-0.2-0.3-0.1c0,0,0,0,0,0L579.5,1471.7z"/>
				<path class="st26" d="M579.5,1470.5c-0.2,0.1-0.3,0.3-0.3,0.5c0,0.2,0.1,0.2,0.3,0.1c0,0,0,0,0,0l5-2.9c0.2-0.1,0.3-0.3,0.3-0.5
					s-0.1-0.2-0.3-0.1c0,0,0,0,0,0L579.5,1470.5z"/>
				<path class="st26" d="M579.5,1469.3c-0.2,0.1-0.3,0.3-0.3,0.5c0,0.2,0.1,0.2,0.3,0.1c0,0,0,0,0,0l5-2.9c0.2-0.1,0.3-0.3,0.3-0.5
					c0-0.2-0.1-0.2-0.3-0.1c0,0,0,0,0,0L579.5,1469.3z"/>
				<path class="st26" d="M579.5,1466.1c-0.2,0.1-0.3,0.3-0.3,0.5v1.8c0,0.2,0.1,0.2,0.3,0.1l1.8-1.1c0.2-0.1,0.3-0.3,0.3-0.5v-1.8
					c0-0.2-0.1-0.2-0.3-0.1L579.5,1466.1z M579.8,1466.5l1.2-0.7v1.2l-1.2,0.7V1466.5z"/>
				<path class="st26" d="M579.1,1464.8l-1.1,0.6c-0.2,0.1-0.3,0.3-0.3,0.5v9.9c0,0.2,0.1,0.2,0.3,0.1l7.9-4.6
					c0.2-0.1,0.3-0.3,0.3-0.5v-1.2v-5.7c0-0.2-0.1-0.3-0.2-0.4l-1.8-1.5c-0.1-0.1-0.3-0.1-0.5,0L579.1,1464.8z M578.3,1465.9l5.2-3
					v2.4c0,0.2,0.1,0.2,0.3,0.1l1.9-1.1v6.6l-7.3,4.2V1465.9z M584.1,1463l1.2,1l-1.2,0.7V1463z"/>
			</g>
		</g>
		<polygon class="st15" points="563.9,503.2 576,510.2 576,528.1 563.9,521.2 		"/>
		<polygon class="st21" points="586.8,503.9 576,510.2 563.9,503.2 574.7,496.9 		"/>
		<g>
			<g transform="translate(0,-952.36218)">
				<path class="st26" d="M567.2,1470.7c-0.1-0.1-0.3,0-0.3,0.1s0.1,0.3,0.2,0.4c0,0,0,0,0,0l4.2,2.4c0.1,0.1,0.3,0,0.3-0.1
					c0-0.1-0.1-0.3-0.2-0.4c0,0,0,0,0,0L567.2,1470.7z"/>
				<path class="st26" d="M567.2,1469.7c-0.1-0.1-0.3,0-0.3,0.1c0,0.1,0.1,0.3,0.2,0.4c0,0,0,0,0,0l4.2,2.4c0.1,0.1,0.3,0,0.3-0.1
					c0-0.1-0.1-0.3-0.2-0.4c0,0,0,0,0,0L567.2,1469.7z"/>
				<path class="st26" d="M567.2,1468.7c-0.1-0.1-0.3,0-0.3,0.1c0,0.1,0.1,0.3,0.2,0.4c0,0,0,0,0,0l4.2,2.4c0.1,0.1,0.3,0,0.3-0.1
					c0-0.1-0.1-0.3-0.2-0.4c0,0,0,0,0,0L567.2,1468.7z"/>
				<path class="st26" d="M567.2,1467.7c-0.1-0.1-0.3,0-0.3,0.1s0.1,0.3,0.2,0.4c0,0,0,0,0,0l4.2,2.4c0.1,0.1,0.3,0,0.3-0.1
					c0-0.1-0.1-0.3-0.2-0.4c0,0,0,0,0,0L567.2,1467.7z"/>
				<path class="st26" d="M567.2,1465c-0.1-0.1-0.3,0-0.3,0.1v1.5c0,0.1,0.1,0.3,0.3,0.4l1.5,0.9c0.1,0.1,0.3,0,0.3-0.1v-1.5
					c0-0.1-0.1-0.3-0.3-0.4L567.2,1465z M567.5,1465.6l1,0.6v1l-1-0.6V1465.6z"/>
				<path class="st26" d="M572.7,1464.5l-4.7-2.7c-0.1-0.1-0.3,0-0.3,0.1v0.9l-0.6-0.4c-0.1-0.1-0.3,0-0.3,0.1v1l-0.9-0.5
					c-0.1-0.1-0.3,0-0.3,0.1v8.3c0,0.1,0.1,0.3,0.3,0.4l6.6,3.8c0.1,0.1,0.3,0,0.3-0.1v-1l0.8,0.4c0.1,0.1,0.3,0,0.3-0.1l0-0.9
					l0.9,0.6c0.1,0,0-0.2,0-0.2v-6.4l-1.7-3.1C573,1464.7,572.9,1464.6,572.7,1464.5L572.7,1464.5z M568.2,1462.4l4.3,2.5v1.3
					l-0.5-0.8c-0.1-0.1-0.1-0.2-0.2-0.2l-3.7-2.1V1462.4z M573.1,1465.7l1,1.9l-1-0.6V1465.7z M567.4,1463l4.3,2.5v1.7l-0.6-1.1
					c-0.1-0.1-0.2-0.2-0.3-0.3l-3.4-2V1463z M572.2,1466.3l0.9,1.8l-0.9-0.5V1466.3z M573.3,1467.6l1,0.6v5.5l-0.5-0.3v-4.6
					c0-0.1,0-0.3-0.1-0.5L573.3,1467.6z M566.2,1463.6l4.3,2.5v2c0,0.1,0.1,0.3,0.2,0.4l1.6,0.9v5.5l-6.1-3.5V1463.6z M571,1466.8
					l1,2l-1-0.6V1466.8z M573.3,1468.8v5.5l-0.5-0.3v-4.6c0-0.1-0.1-0.2-0.1-0.3l-0.5-0.9L573.3,1468.8z"/>
			</g>
		</g>
		<polygon class="st15" points="586.8,504 576,510.2 576,528.1 586.8,521.8 		"/>
	</g>
	<polygon class="st21" points="563.9,503.2 576,510.2 576,528.1 563.9,521.2 	"/>
	<g>
		<polygon class="st2" points="571.5,517.3 563.1,522.1 553.7,516.7 562.1,511.8 		"/>
		<polygon class="st2" points="553.7,516.7 563.1,522.1 563.1,536.1 553.7,530.7 		"/>
		<polygon class="st11" points="571.5,517.3 563.1,522.1 563.1,536.1 571.5,531.2 		"/>
		<polygon class="st13" points="571.5,517.3 563.1,522.1 563.1,536.1 571.5,531.2 		"/>
		<g>
			<g transform="translate(0,-952.36218)">
				<path class="st26" d="M565.8,1482.6c-0.1,0.1-0.2,0.2-0.2,0.4c0,0.1,0.1,0.2,0.2,0.1c0,0,0,0,0,0l3.9-2.3
					c0.1-0.1,0.2-0.2,0.2-0.4c0-0.1-0.1-0.2-0.2-0.1c0,0,0,0,0,0L565.8,1482.6z"/>
				<path class="st26" d="M565.8,1481.7c-0.1,0.1-0.2,0.2-0.2,0.4s0.1,0.2,0.2,0.1c0,0,0,0,0,0l3.9-2.3c0.1-0.1,0.2-0.2,0.2-0.4
					c0-0.1-0.1-0.2-0.2-0.1c0,0,0,0,0,0L565.8,1481.7z"/>
				<path class="st26" d="M565.8,1480.7c-0.1,0.1-0.2,0.2-0.2,0.4c0,0.1,0.1,0.2,0.2,0.1c0,0,0,0,0,0l3.9-2.3
					c0.1-0.1,0.2-0.2,0.2-0.4c0-0.1-0.1-0.2-0.2-0.1c0,0,0,0,0,0L565.8,1480.7z"/>
				<path class="st26" d="M565.8,1479.8c-0.1,0.1-0.2,0.2-0.2,0.4c0,0.1,0.1,0.2,0.2,0.1c0,0,0,0,0,0l3.9-2.3
					c0.1-0.1,0.2-0.2,0.2-0.4s-0.1-0.2-0.2-0.1c0,0,0,0,0,0L565.8,1479.8z"/>
				<path class="st26" d="M565.8,1477.3c-0.1,0.1-0.2,0.2-0.2,0.4v1.4c0,0.1,0.1,0.2,0.2,0.1l1.4-0.8c0.1-0.1,0.2-0.2,0.2-0.4v-1.4
					c0-0.1-0.1-0.2-0.2-0.1L565.8,1477.3z M566.1,1477.6l0.9-0.5v0.9l-0.9,0.5V1477.6z"/>
				<path class="st26" d="M565.5,1476.3l-0.8,0.5c-0.1,0.1-0.2,0.3-0.2,0.4v7.7c0,0.1,0.1,0.2,0.2,0.1l6.2-3.6
					c0.1-0.1,0.2-0.2,0.2-0.4v-0.9v-4.4c0-0.1,0-0.2-0.1-0.3l-1.4-1.2c-0.1-0.1-0.2-0.1-0.4,0L565.5,1476.3z M564.9,1477.1l4-2.3
					v1.9c0,0.1,0.1,0.2,0.2,0.1l1.5-0.8v5.1l-5.7,3.3V1477.1z M569.4,1474.9l0.9,0.8l-0.9,0.5V1474.9z"/>
			</g>
		</g>
		<polygon class="st14" points="553.7,516.7 563.1,522.1 563.1,536.1 553.7,530.7 		"/>
		<polygon class="st6" points="571.5,517.3 563.1,522.1 553.7,516.7 562.1,511.8 		"/>
		<g>
			<g transform="translate(0,-952.36218)">
				<path class="st26" d="M556.3,1480.9c-0.1-0.1-0.2,0-0.2,0.1c0,0.1,0.1,0.2,0.2,0.3c0,0,0,0,0,0l3.3,1.9c0.1,0.1,0.2,0,0.2-0.1
					s-0.1-0.2-0.2-0.3c0,0,0,0,0,0L556.3,1480.9z"/>
				<path class="st26" d="M556.3,1480.1c-0.1-0.1-0.2,0-0.2,0.1c0,0.1,0.1,0.2,0.2,0.3c0,0,0,0,0,0l3.3,1.9c0.1,0.1,0.2,0,0.2-0.1
					c0-0.1-0.1-0.2-0.2-0.3c0,0,0,0,0,0L556.3,1480.1z"/>
				<path class="st26" d="M556.3,1479.3c-0.1-0.1-0.2,0-0.2,0.1c0,0.1,0.1,0.2,0.2,0.3c0,0,0,0,0,0l3.3,1.9c0.1,0.1,0.2,0,0.2-0.1
					c0-0.1-0.1-0.2-0.2-0.3c0,0,0,0,0,0L556.3,1479.3z"/>
				<path class="st26" d="M556.3,1478.5c-0.1-0.1-0.2,0-0.2,0.1c0,0.1,0.1,0.2,0.2,0.3c0,0,0,0,0,0l3.3,1.9c0.1,0.1,0.2,0,0.2-0.1
					s-0.1-0.2-0.2-0.3c0,0,0,0,0,0L556.3,1478.5z"/>
				<path class="st26" d="M556.3,1476.4c-0.1-0.1-0.2,0-0.2,0.1v1.2c0,0.1,0.1,0.2,0.2,0.3l1.2,0.7c0.1,0.1,0.2,0,0.2-0.1v-1.2
					c0-0.1-0.1-0.2-0.2-0.3L556.3,1476.4z M556.5,1476.9l0.8,0.5v0.8l-0.8-0.5V1476.9z"/>
				<path class="st26" d="M560.5,1476l-3.7-2.1c-0.1-0.1-0.2,0-0.2,0.1v0.7l-0.5-0.3c-0.1-0.1-0.2,0-0.2,0.1v0.8l-0.7-0.4
					c-0.1-0.1-0.2,0-0.2,0.1v6.4c0,0.1,0.1,0.3,0.2,0.3l5.2,3c0.1,0.1,0.2,0,0.2-0.1v-0.8l0.6,0.3c0.1,0.1,0.2,0,0.2-0.1l0-0.7
					l0.7,0.5c0.1,0,0-0.1,0-0.1v-5l-1.3-2.4C560.8,1476.2,560.7,1476.1,560.5,1476L560.5,1476z M557.1,1474.4l3.4,1.9v1l-0.4-0.6
					c0-0.1-0.1-0.2-0.1-0.2l-2.9-1.7V1474.4z M560.8,1477l0.8,1.4l-0.8-0.5V1477z M556.4,1474.9l3.4,1.9v1.3l-0.5-0.9
					c-0.1-0.1-0.1-0.2-0.2-0.2l-2.7-1.5V1474.9z M560.1,1477.4l0.7,1.4l-0.7-0.4V1477.4z M561,1478.5l0.8,0.5v4.3l-0.4-0.2v-3.6
					c0-0.1,0-0.2-0.1-0.4L561,1478.5z M555.5,1475.4l3.4,1.9v1.6c0,0.1,0.1,0.2,0.2,0.3l1.2,0.7v4.3l-4.8-2.7V1475.4z M559.3,1477.8
					l0.8,1.5l-0.8-0.5V1477.8z M561,1479.4v4.3l-0.4-0.2v-3.6c0-0.1-0.1-0.2-0.1-0.3l-0.4-0.7L561,1479.4z"/>
			</g>
		</g>
		<polygon class="st15" points="571.5,517.3 563.1,522.1 563.1,536.1 571.5,531.2 		"/>
	</g>
	<polygon class="st7" points="680,454 680,454 657.4,468.3 613.6,442.8 635.4,429.9 	"/>
	<g>
		<g>
			<g>
				<polygon class="st13" points="598.4,513.7 582.6,522.7 582.6,548.9 598.4,539.7 				"/>
				<polygon class="st2" points="598.4,513.7 582.6,522.7 565,512.6 580.7,503.4 				"/>
				<polygon class="st2" points="565,512.6 582.6,522.7 582.6,548.9 565,538.8 				"/>
				<polygon class="st11" points="598.4,513.7 582.6,522.7 582.6,548.9 598.4,539.7 				"/>
				<polygon class="st6" points="598.4,513.7 598.4,513.7 582.6,522.7 565,512.6 580.7,503.4 580.7,503.4 				"/>
			</g>
			<g>
				<g transform="translate(0,-952.36218)">
					<path class="st26" d="M570.3,1486.3c-0.2-0.1-0.4-0.1-0.4,0.2s0.2,0.6,0.4,0.7c0,0,0,0,0,0l7.3,4.2c0.2,0.1,0.4,0.1,0.4-0.2
						c0-0.2-0.2-0.6-0.4-0.7c0,0,0,0,0,0L570.3,1486.3z"/>
					<path class="st26" d="M570.3,1484.5c-0.2-0.1-0.4-0.1-0.4,0.2c0,0.2,0.2,0.6,0.4,0.7c0,0,0,0,0,0l7.3,4.2
						c0.2,0.1,0.4,0.1,0.4-0.2c0-0.2-0.2-0.6-0.4-0.7c0,0,0,0,0,0L570.3,1484.5z"/>
					<path class="st26" d="M570.3,1482.8c-0.2-0.1-0.4-0.1-0.4,0.2c0,0.2,0.2,0.6,0.4,0.7c0,0,0,0,0,0l7.3,4.2
						c0.2,0.1,0.4,0.1,0.4-0.2s-0.2-0.6-0.4-0.7c0,0,0,0,0,0L570.3,1482.8z"/>
					<path class="st26" d="M570.3,1481c-0.2-0.1-0.4-0.1-0.4,0.2c0,0.2,0.2,0.6,0.4,0.7c0,0,0,0,0,0l7.3,4.2
						c0.2,0.1,0.4,0.1,0.4-0.2c0-0.2-0.2-0.6-0.4-0.7c0,0,0,0,0,0L570.3,1481z"/>
					<path class="st26" d="M570.3,1476.3c-0.2-0.1-0.4-0.1-0.4,0.2v2.7c0,0.2,0.2,0.6,0.4,0.7l2.7,1.5c0.2,0.1,0.4,0.1,0.4-0.2v-2.7
						c0-0.2-0.2-0.6-0.4-0.7L570.3,1476.3z M570.8,1477.5l1.8,1v1.8l-1.8-1V1477.5z"/>
					<path class="st26" d="M569.7,1473.7l-1.6-0.9c-0.2-0.1-0.4,0-0.4,0.2v14.4c0,0.2,0.2,0.6,0.4,0.7l11.6,6.7
						c0.2,0.1,0.4,0,0.4-0.2v-1.8v-8.3c0-0.3-0.1-0.6-0.2-0.8l-2.6-5.2c-0.2-0.3-0.5-0.6-0.7-0.8L569.7,1473.7z M568.6,1473.9
						l7.6,4.4v3.6c0,0.2,0.2,0.5,0.4,0.7l2.7,1.6v9.6l-10.7-6.2V1473.9z M577,1479.5l1.8,3.5l-1.8-1V1479.5z"/>
				</g>
			</g>
		</g>
		<g>
			<g transform="translate(0,-952.36218)">
				<path class="st26" d="M587.4,1491.1c-0.2,0.1-0.4,0.4-0.4,0.6c0,0.2,0.2,0.3,0.4,0.2c0,0,0,0,0,0l6.1-3.5
					c0.2-0.1,0.4-0.4,0.4-0.6c0-0.2-0.2-0.3-0.4-0.2c0,0,0,0,0,0L587.4,1491.1z"/>
				<path class="st26" d="M587.4,1489.6c-0.2,0.1-0.4,0.4-0.4,0.6c0,0.2,0.2,0.3,0.4,0.2c0,0,0,0,0,0l6.1-3.5
					c0.2-0.1,0.4-0.4,0.4-0.6c0-0.2-0.2-0.3-0.4-0.2c0,0,0,0,0,0L587.4,1489.6z"/>
				<path class="st26" d="M587.4,1488.2c-0.2,0.1-0.4,0.4-0.4,0.6c0,0.2,0.2,0.3,0.4,0.2c0,0,0,0,0,0l6.1-3.5
					c0.2-0.1,0.4-0.4,0.4-0.6c0-0.2-0.2-0.3-0.4-0.2c0,0,0,0,0,0L587.4,1488.2z"/>
				<path class="st26" d="M587.4,1486.7c-0.2,0.1-0.4,0.4-0.4,0.6c0,0.2,0.2,0.3,0.4,0.2c0,0,0,0,0,0l6.1-3.5
					c0.2-0.1,0.4-0.4,0.4-0.6c0-0.2-0.2-0.3-0.4-0.2c0,0,0,0,0,0L587.4,1486.7z"/>
				<path class="st26" d="M587.4,1482.8c-0.2,0.1-0.4,0.4-0.4,0.6v2.2c0,0.2,0.2,0.3,0.4,0.2l2.2-1.3c0.2-0.1,0.4-0.4,0.4-0.6v-2.2
					c0-0.2-0.2-0.3-0.4-0.2L587.4,1482.8z M587.8,1483.3l1.5-0.9v1.5l-1.5,0.9V1483.3z"/>
				<path class="st26" d="M595.4,1472.7l-6.9,4c-0.2,0.1-0.4,0.4-0.4,0.6v1.3l-0.9,0.5c-0.2,0.1-0.4,0.4-0.4,0.6v1.5l-1.3,0.8
					c-0.2,0.1-0.4,0.4-0.4,0.6v12.1c0,0.2,0.2,0.3,0.4,0.2l9.7-5.6c0.2-0.1,0.4-0.4,0.4-0.6v-1.5l1.1-0.6c0.2-0.1,0.4-0.4,0.4-0.6
					l0-1.3l1.3-0.6c0.1-0.1-0.1-0.1,0-0.3v-9.4l-2.5-1.7C595.9,1472.6,595.7,1472.6,595.4,1472.7L595.4,1472.7z M588.9,1477.2
					l6.3-3.7v1.9l-0.7-0.4c-0.1-0.1-0.2-0.1-0.3,0l-5.4,3.1V1477.2z M596,1473.9l1.5,1l-1.5,0.9V1473.9z M587.6,1479.7l6.3-3.7v2.4
					l-0.9-0.6c-0.1-0.1-0.2,0-0.4,0l-5,2.9V1479.7z M594.7,1476.3l1.3,1.1l-1.3,0.8V1476.3z M596.4,1476.3l1.5-0.9v8l-0.7,0.4v-6.7
					c0-0.2,0-0.3-0.2-0.5L596.4,1476.3z M585.9,1482.5l6.3-3.7v3c0,0.2,0.1,0.3,0.3,0.2l2.3-1.3v8l-8.9,5.2V1482.5z M593,1479
					l1.5,1.2l-1.5,0.9V1479z M596.4,1478v8l-0.7,0.4v-6.7c0-0.1-0.1-0.2-0.2-0.3l-0.7-0.5L596.4,1478z"/>
			</g>
		</g>
	</g>
	<g>
		<g>
			<polygon class="st2" points="692.1,466.6 692.3,464.4 680.6,457.6 680.4,473.3 			"/>
			<polygon class="st2" points="679.2,458.4 662.1,468.8 662,483.7 679.1,474 			"/>
		</g>
		<polygon class="st6" points="683.9,459.5 680.6,457.6 680.6,467.1 		"/>
		<polygon class="st6" points="670.5,463.7 662.1,468.8 662.1,476.3 		"/>
		<polygon class="st6" points="675.6,460.6 672,462.8 662.1,477.7 662.1,481.2 		"/>
	</g>
	<polygon class="st13" points="679.5,476.3 675.6,478.7 675.6,480.2 679.5,477.9 	"/>
	<g>
		<path class="st13" d="M694.6,479.1l-3-2.3c-0.3-0.2-0.4-0.5-0.4-0.8v-6.8c0-0.9,1-1.3,1.7-0.8l3,2.3c0.3,0.2,0.4,0.5,0.4,0.8v6.8
			C696.2,479.1,695.2,479.6,694.6,479.1z"/>
		<path class="st2" d="M694.1,478l-2.2-1.8c-0.2-0.2-0.3-0.4-0.3-0.7v-5.4c0-0.7,0.7-1.1,1.2-0.7l2.2,1.8c0.2,0.2,0.3,0.4,0.3,0.7
			v5.4C695.2,478,694.5,478.4,694.1,478z"/>
	</g>
	<path class="st14" d="M702.5,467.7c0-1-0.3-1.9-0.8-2.6l-2.3,1.7c-0.3,0.2-0.5,0.5-0.5,0.9l0,4.3c0,0.8,0.9,1.3,1.6,0.9l2-1.4
		L702.5,467.7z"/>
	<path class="st2" d="M547.5,481.4l0.3,53.1l44.7,26v-53.3L547.5,481.4z M590.7,556.7l-41-23.9l-0.3-47.6l41.3,23.8V556.7z"/>
	<polygon class="st2" points="654.7,469.5 592.5,507.2 592.5,553.4 654.8,515.7 	"/>
	<polygon class="st14" points="654.7,469.5 592.5,507.2 592.5,553.4 654.8,515.7 	"/>
	<path class="st13" d="M627.4,528.5c-1.3-1.8-4.3-2.6-11.3,1.3c-3.9,2.1-10.8,9.1-12.7,13.2l-10.9,6.5v10.9l14.5-8.7
		c1.5-4.9,5.4-10,10-12.7c3.6-2.1,6.8-2.1,8.7-0.5c0.7,0.6,1.6,0.7,2.4,0.3l26.7-16.2v-10.7L627.4,528.5z"/>
	<path class="st13" d="M532.7,424c0.2,0,0.9-0.9,0.9-1.3c0.6-2.8-1.4-3.9-2.7-3.3C530.6,419.6,532.7,424,532.7,424z"/>
	
		<rect x="530.8" y="418.3" transform="matrix(-0.9639 0.2663 -0.2663 -0.9639 1155.6208 680.9871)" class="st2" width="1.6" height="1"/>
	<path class="st5" d="M529.8,438.4h-4.8l-1.8,2.9l-2.7,6.9l-2.2,10.6l3,2.6l3.2-11.3l4.1-5.5c0.8-1.1,1.3-2.4,1.3-3.7L529.8,438.4z"
		/>
	<path class="st14" d="M529.8,438.4h-4.8l-1.8,2.9l-2.7,6.9l-2.2,10.6l3,2.6l3.2-11.3l4.1-5.5c0.8-1.1,1.3-2.4,1.3-3.7L529.8,438.4z
		"/>
	<path class="st8" d="M540.8,462.3l-6.5,2c-0.3,0.1-0.7-0.1-0.8-0.4l0,0c-0.5-1.5,0.4-3.2,1.9-3.6l4.9-1.5l0.9,2.9
		C541.2,461.9,541.1,462.2,540.8,462.3z"/>
	<path class="st13" d="M533.6,448l0.7-5.9l-6.8-1.3l2.2,9.2c0,0.4,0.2,0.8,0.5,1.1l6.8,8.7l4-1.2l-6.8-9.6
		C533.7,448.8,533.6,448.4,533.6,448z"/>
	<path class="st13" d="M508.4,519.2l0.6-8.7h4l-0.7,10.7c0,0.4-0.2,0.8-0.5,1.1L505,531l-4-1.2l6.8-9.6
		C508.2,520,508.4,519.6,508.4,519.2z"/>
	<path class="st5" d="M504.1,510.5h4.8v3.6l11.2,15.6l-3,2.6l-7.7-10l-4.1-5.5c-0.8-1.1-1.3-2.4-1.3-3.7L504.1,510.5z"/>
	<path class="st14" d="M504.1,510.5h4.8v3.6l11.2,15.6l-3,2.6l-7.7-10l-4.1-5.5c-0.8-1.1-1.3-2.4-1.3-3.7L504.1,510.5z"/>
	<g>
		<g>
			<path class="st2" d="M511.7,496.1l-0.3,0.1c-0.9,0.5-1.2,1.6-0.7,2.5l3.7,6.8c0.5,0.9,1.6,1.2,2.5,0.7l0.3-0.1
				c0.9-0.5,1.2-1.6,0.7-2.5l-3.7-6.8C513.7,495.9,512.6,495.6,511.7,496.1z"/>
			<path class="st21" d="M511.7,496.1l-0.3,0.1c-0.9,0.5-1.2,1.6-0.7,2.5l3.7,6.8c0.5,0.9,1.6,1.2,2.5,0.7l0.3-0.1
				c0.9-0.5,1.2-1.6,0.7-2.5l-3.7-6.8C513.7,495.9,512.6,495.6,511.7,496.1z"/>
		</g>
		<g>
			<path class="st2" d="M514.3,504.2l0,0.3c-0.1,1,0.7,1.9,1.7,2l7.7,0.5c1,0.1,1.9-0.7,2-1.7l0-0.3c0.1-1-0.7-1.9-1.7-2l-7.7-0.5
				C515.3,502.4,514.4,503.2,514.3,504.2z"/>
			<path class="st21" d="M514.3,504.2l0,0.3c-0.1,1,0.7,1.9,1.7,2l7.7,0.5c1,0.1,1.9-0.7,2-1.7l0-0.3c0.1-1-0.7-1.9-1.7-2l-7.7-0.5
				C515.3,502.4,514.4,503.2,514.3,504.2z"/>
		</g>
	</g>
	<path class="st2" d="M504.7,515l8.9-4.3c0.3-0.1,0.4-0.4,0.4-0.7l0.6-8.7c0.1-2.2-0.9-5.5-3.7-6.4l-0.4-2.4
		c-2.5-0.5-1.7,0.7-3.4,2.3c-1.3,1.1-3.9,0.2-3.9,4.1l0.5,15.4C503.6,514.9,504.2,515.2,504.7,515z"/>
	<path class="st13" d="M507.2,487c0,0-0.2-1.3,1.1-1.3s1.7,0,1.7,0c0.6,0,2.7,2.6,1.8,2.7c-3.6,0.4-2.3,1-2.3,1.5l0,0
		c0,0.6-0.5,1-1,1h-1.8c-0.6,0-1-0.5-1-1l0-1.9c0-0.6,0.5-1,1-1H507.2z"/>
	<path class="st8" d="M518.4,534.3l6.4-2.5c0.3-0.1,0.5-0.5,0.4-0.8l0,0c-0.6-1.5-2.3-2.2-3.8-1.7l-4.7,1.8l1.1,2.8
		C517.8,534.2,518.1,534.4,518.4,534.3z"/>
	<path class="st8" d="M501.1,533.5l6.5,2c0.3,0.1,0.7-0.1,0.8-0.4l0,0c0.5-1.5-0.4-3.2-1.9-3.6l-4.9-1.5l-0.9,2.9
		C500.7,533.1,500.8,533.4,501.1,533.5z"/>
	<path class="st21" d="M504.7,515l8.9-4.3c0.3-0.1,0.4-0.4,0.4-0.7l0.6-8.7c0.1-2.2-0.9-5.5-3.7-6.4l-0.7-2.5
		c-2.5-0.5-1.5,0.7-3.2,2.3c-1.3,1.1-3.9,0.2-3.9,4.1l0.5,15.4C503.6,514.9,504.2,515.2,504.7,515z"/>
	<g>
		<g>
			<polygon class="st13" points="533.8,495.6 523.4,501.6 523.4,517 533.8,511 			"/>
			<polygon class="st2" points="533.8,495.6 523.4,501.6 513,495.6 523.4,489.5 			"/>
			<polygon class="st2" points="513,495.6 523.4,501.6 523.4,517.1 513,511.1 			"/>
			<polygon class="st11" points="533.8,495.6 523.4,501.6 523.4,517 533.8,511 			"/>
			<polygon class="st6" points="533.8,495.6 523.4,501.6 513,495.6 523.4,489.5 			"/>
		</g>
		<g>
			<g transform="translate(0,-952.36218)">
				<path class="st26" d="M516.1,1460.6c-0.1-0.1-0.3,0-0.3,0.1c0,0.1,0.1,0.3,0.3,0.4c0,0,0,0,0,0l4.3,2.5c0.1,0.1,0.3,0,0.3-0.1
					c0-0.1-0.1-0.3-0.3-0.4c0,0,0,0,0,0L516.1,1460.6z"/>
				<path class="st26" d="M516.1,1459.5c-0.1-0.1-0.3,0-0.3,0.1c0,0.1,0.1,0.3,0.3,0.4c0,0,0,0,0,0l4.3,2.5c0.1,0.1,0.3,0,0.3-0.1
					c0-0.1-0.1-0.3-0.3-0.4c0,0,0,0,0,0L516.1,1459.5z"/>
				<path class="st26" d="M516.1,1458.5c-0.1-0.1-0.3,0-0.3,0.1c0,0.1,0.1,0.3,0.3,0.4c0,0,0,0,0,0l4.3,2.5c0.1,0.1,0.3,0,0.3-0.1
					c0-0.1-0.1-0.3-0.3-0.4c0,0,0,0,0,0L516.1,1458.5z"/>
				<path class="st26" d="M516.1,1457.4c-0.1-0.1-0.3,0-0.3,0.1c0,0.1,0.1,0.3,0.3,0.4c0,0,0,0,0,0l4.3,2.5c0.1,0.1,0.3,0,0.3-0.1
					c0-0.1-0.1-0.3-0.3-0.4c0,0,0,0,0,0L516.1,1457.4z"/>
				<path class="st26" d="M516.1,1454.7c-0.1-0.1-0.3,0-0.3,0.1v1.6c0,0.1,0.1,0.3,0.3,0.4l1.6,0.9c0.1,0.1,0.3,0,0.3-0.1v-1.6
					c0-0.1-0.1-0.3-0.3-0.4L516.1,1454.7z M516.4,1455.3l1.1,0.6v1.1l-1.1-0.6V1455.3z"/>
				<path class="st26" d="M515.7,1453.1l-0.9-0.5c-0.1-0.1-0.3,0-0.3,0.1v8.5c0,0.1,0.1,0.3,0.3,0.4l6.8,3.9c0.1,0.1,0.3,0,0.3-0.1
					v-1.1v-4.9c0-0.2,0-0.3-0.1-0.5l-1.5-3.1c-0.1-0.2-0.3-0.4-0.4-0.5L515.7,1453.1z M515.1,1453.3l4.5,2.6v2.1
					c0,0.1,0.1,0.3,0.2,0.4l1.6,0.9v5.6l-6.3-3.6V1453.3z M520.1,1456.5l1.1,2.1l-1.1-0.6V1456.5z"/>
			</g>
		</g>
	</g>
	<g>
		<g>
			<polygon class="st13" points="459.9,467 449.5,473 449.5,488.4 459.9,482.4 			"/>
			<polygon class="st2" points="459.9,467 449.5,473 439.1,467 449.5,460.9 			"/>
			<polygon class="st2" points="439.1,467 449.5,473 449.5,488.5 439.1,482.5 			"/>
			<polygon class="st11" points="459.9,467 449.5,473 449.5,488.4 459.9,482.4 			"/>
			<polygon class="st6" points="459.9,467 449.5,473 439.1,467 449.5,460.9 			"/>
		</g>
		<g>
			<g transform="translate(0,-952.36218)">
				<path class="st26" d="M442.3,1432c-0.1-0.1-0.3,0-0.3,0.1c0,0.1,0.1,0.3,0.3,0.4c0,0,0,0,0,0l4.3,2.5c0.1,0.1,0.3,0,0.3-0.1
					c0-0.1-0.1-0.3-0.3-0.4c0,0,0,0,0,0L442.3,1432z"/>
				<path class="st26" d="M442.3,1430.9c-0.1-0.1-0.3,0-0.3,0.1s0.1,0.3,0.3,0.4c0,0,0,0,0,0l4.3,2.5c0.1,0.1,0.3,0,0.3-0.1
					s-0.1-0.3-0.3-0.4c0,0,0,0,0,0L442.3,1430.9z"/>
				<path class="st26" d="M442.3,1429.9c-0.1-0.1-0.3,0-0.3,0.1c0,0.1,0.1,0.3,0.3,0.4c0,0,0,0,0,0l4.3,2.5c0.1,0.1,0.3,0,0.3-0.1
					s-0.1-0.3-0.3-0.4c0,0,0,0,0,0L442.3,1429.9z"/>
				<path class="st26" d="M442.3,1428.8c-0.1-0.1-0.3,0-0.3,0.1c0,0.1,0.1,0.3,0.3,0.4c0,0,0,0,0,0l4.3,2.5c0.1,0.1,0.3,0,0.3-0.1
					c0-0.1-0.1-0.3-0.3-0.4c0,0,0,0,0,0L442.3,1428.8z"/>
				<path class="st26" d="M442.3,1426.1c-0.1-0.1-0.3,0-0.3,0.1v1.6c0,0.1,0.1,0.3,0.3,0.4l1.6,0.9c0.1,0.1,0.3,0,0.3-0.1v-1.6
					c0-0.1-0.1-0.3-0.3-0.4L442.3,1426.1z M442.5,1426.7l1.1,0.6v1.1l-1.1-0.6V1426.7z"/>
				<path class="st26" d="M441.9,1424.5l-0.9-0.5c-0.1-0.1-0.3,0-0.3,0.1v8.5c0,0.1,0.1,0.3,0.3,0.4l6.8,3.9c0.1,0.1,0.3,0,0.3-0.1
					v-1.1v-4.9c0-0.2,0-0.3-0.1-0.5l-1.5-3.1c-0.1-0.2-0.3-0.4-0.4-0.5L441.9,1424.5z M441.2,1424.7l4.5,2.6v2.1
					c0,0.1,0.1,0.3,0.2,0.4l1.6,0.9v5.6l-6.3-3.6V1424.7z M446.2,1427.9l1.1,2.1l-1.1-0.6V1427.9z"/>
			</g>
		</g>
	</g>
	<g>
		<g>
			<path class="st2" d="M504.6,497.7l-0.3,0c-1,0-1.8,0.9-1.8,1.9l0.3,7.7c0,1,0.9,1.8,1.9,1.8l0.3,0c1,0,1.8-0.9,1.8-1.9l-0.3-7.7
				C506.5,498.4,505.6,497.6,504.6,497.7z"/>
			<path class="st2" d="M503.4,506.1l-0.2,0.3c-0.5,0.9-0.2,2,0.7,2.5l6.6,3.9c0.9,0.5,2,0.2,2.5-0.7l0.2-0.3c0.5-0.9,0.2-2-0.7-2.5
				l-6.6-3.9C505,504.9,503.9,505.2,503.4,506.1z"/>
		</g>
		<path class="st17" d="M512.5,509.4l-5.7-3.4l-0.3-6.6c0-1-0.9-1.8-1.9-1.8l-0.3,0c-1,0-1.8,0.9-1.8,1.9l0.3,7.7
			c0,0.5,0.3,1,0.7,1.3c0.1,0.1,0.2,0.2,0.3,0.3l6.6,3.9c0.9,0.5,2,0.2,2.5-0.7l0.2-0.3C513.7,511,513.4,509.9,512.5,509.4z"/>
	</g>
	<path class="st5" d="M508.5,494.6h0.9c1.1,0,2-0.9,2-2v-3c0-1.1-0.9-2-2-2h-0.9c-1.1,0-2,0.9-2,2v3
		C506.5,493.7,507.4,494.6,508.5,494.6z"/>
	<path class="st13" d="M530.6,414.8c0,0,0.2-1.3-1.1-1.3s-1.7,0-1.7,0c-0.6,0-2.7,2.6-1.8,2.7c3.6,0.4,2.3,1,2.3,1.5l0,0
		c0,0.6,0.5,1,1,1h1.8c0.6,0,1-0.5,1-1l0-1.9c0-0.6-0.5-1-1-1H530.6z"/>
	<path class="st8" d="M520.3,462.5l-6.4-2.5c-0.3-0.1-0.5-0.5-0.4-0.8l0,0c0.6-1.5,2.3-2.2,3.8-1.7l4.7,1.8l-1.1,2.8
		C520.8,462.5,520.5,462.6,520.3,462.5z"/>
	<path class="st8" d="M533.1,442.8l-0.9,0c-2.8,0-5.6-0.6-8-2l0,0c-0.3-0.1-0.4-2.7-0.4-3l-0.6-8.7c-0.1-2.2,0.9-5.5,3.7-6.4
		l0.7-2.5c2.5-0.5,1.5,0.7,3.2,2.3c1.3,1.1,5.5,0.3,5.5,4.2l-3,9.7l1,5.6C534.2,442.7,533.6,443,533.1,442.8z"/>
	<g>
		<g>
			<polygon class="st13" points="504.1,423.4 514.5,429.4 514.5,444.8 504.1,438.8 			"/>
			<polygon class="st2" points="504.1,423.4 514.5,429.4 524.8,423.4 514.5,417.3 			"/>
			<polygon class="st2" points="524.8,423.4 514.5,429.4 514.5,444.9 524.8,438.9 			"/>
			<polygon class="st11" points="504.1,423.4 514.5,429.4 514.5,444.8 504.1,438.8 			"/>
			<polygon class="st6" points="504.1,423.4 514.5,429.4 524.8,423.4 514.5,417.3 			"/>
		</g>
		<g>
			<g transform="translate(0,-952.36218)">
				<path class="st26" d="M517.4,1390.9C517.4,1390.9,517.4,1390.9,517.4,1390.9c-0.2,0.1-0.3,0.3-0.3,0.4c0,0.1,0.1,0.2,0.3,0.1
					l4.3-2.5c0,0,0,0,0,0c0.1-0.1,0.3-0.3,0.3-0.4c0-0.1-0.1-0.2-0.3-0.1L517.4,1390.9z"/>
				<path class="st26" d="M517.4,1389.8C517.4,1389.8,517.4,1389.8,517.4,1389.8c-0.2,0.1-0.3,0.3-0.3,0.4c0,0.1,0.1,0.2,0.3,0.1
					l4.3-2.5c0,0,0,0,0,0c0.1-0.1,0.3-0.3,0.3-0.4c0-0.1-0.1-0.2-0.3-0.1L517.4,1389.8z"/>
				<path class="st26" d="M517.4,1388.8C517.4,1388.8,517.4,1388.8,517.4,1388.8c-0.2,0.1-0.3,0.3-0.3,0.4c0,0.1,0.1,0.2,0.3,0.1
					l4.3-2.5c0,0,0,0,0,0c0.1-0.1,0.3-0.3,0.3-0.4c0-0.1-0.1-0.2-0.3-0.1L517.4,1388.8z"/>
				<path class="st26" d="M517.4,1387.7C517.4,1387.7,517.4,1387.7,517.4,1387.7c-0.2,0.1-0.3,0.3-0.3,0.4c0,0.1,0.1,0.2,0.3,0.1
					l4.3-2.5c0,0,0,0,0,0c0.1-0.1,0.3-0.3,0.3-0.4c0-0.1-0.1-0.2-0.3-0.1L517.4,1387.7z"/>
				<path class="st26" d="M520.1,1383.4c-0.1,0.1-0.3,0.3-0.3,0.4v1.6c0,0.1,0.1,0.2,0.3,0.1l1.6-0.9c0.1-0.1,0.3-0.3,0.3-0.4v-1.6
					c0-0.1-0.1-0.2-0.3-0.1L520.1,1383.4z M521.5,1384.2l-1.1,0.6v-1.1l1.1-0.6V1384.2z"/>
				<path class="st26" d="M518.1,1383.3c-0.2,0.1-0.3,0.3-0.4,0.5l-1.5,3.1c-0.1,0.2-0.1,0.4-0.1,0.5v4.9v1.1c0,0.1,0.1,0.2,0.3,0.1
					l6.8-3.9c0.1-0.1,0.3-0.3,0.3-0.4v-8.5c0-0.1-0.1-0.2-0.3-0.1l-0.9,0.5L518.1,1383.3z M522.8,1389.1l-6.3,3.6v-5.6l1.6-0.9
					c0.1-0.1,0.2-0.3,0.2-0.4v-2.1l4.5-2.6V1389.1z M517.8,1385.8l-1.1,0.6l1.1-2.1V1385.8z"/>
			</g>
		</g>
	</g>
	<g>
		<path class="st5" d="M536.2,424.3c1.8,0,2.5,2,2.3,3l0,0.2c0,1.3-0.3,2.7-0.9,3.9l0,0l-0.7,3.5c-0.2,1-1.2,1.6-2.2,1.4l-0.3-0.1
			c-1-0.2-1.6-1.2-1.4-2.2l0-0.7c-0.7-1.1-0.4-3.4,1.2-4.5l0,0l-0.1-2.2C534.1,425.6,534.3,424.3,536.2,424.3z"/>
		<path class="st5" d="M536.6,433.6l0.1,0.3c0.4,1-0.1,2-1.1,2.4l-8.5,2.5c-1,0.4-0.7,0.2-1.1-0.8c0,0-0.5-0.7,0.4-1l4.2-3.5
			C532.7,431.5,536.2,432.6,536.6,433.6z"/>
	</g>
	<path class="st5" d="M529.4,422.4h-0.9c-1.1,0-2-0.9-2-2v-3c0-1.1,0.9-2,2-2h0.9c1.1,0,2,0.9,2,2v3
		C531.4,421.5,530.5,422.4,529.4,422.4z"/>
	<path class="st5" d="M516.9,513.8c0.4-0.9-0.1-1.8-1.1-2.1l-1.2-0.3c0-0.2,0-0.3,0-0.5c-0.2-0.4-0.7-0.5-1.1-0.3c0,0,0,0,0,0
		c-1.8,0.9-1.6,3.5,0.3,4.1l0.7,0.2C515.4,515.2,516.5,514.7,516.9,513.8z"/>
	<path class="st5" d="M522,439.8c-0.4-1,0.1-2,1.3-2.4l1.4-0.4c0-0.2,0-0.4,0-0.5c0.2-0.4,0.8-0.6,1.3-0.4c0,0,0,0,0,0
		c2.1,1,1.8,4-0.4,4.6l-0.9,0.2C523.6,441.3,522.4,440.8,522,439.8z"/>
	<path class="st13" d="M530.9,420.6c0,0-0.2-2.5-2.6-2.5c-1.3,0-1.7,0-1.7,0c-0.6,0-2.6,3.2-1.8,2.7c0.9-0.6-0.1,1.5,0.9,2.5
		l1.9,1.3c0.6,0,2.4-1.3,2.4-1.9c0,0,0.9-2.2,0.3-2.2L530.9,420.6z"/>
	<g>
		<path class="st2" d="M440.1,377.1L440.1,377.1c1.1-0.7,2.6-0.3,3.1,0.7l3,7l2.6,7.1l-1.4,0.1l-3.7-6.6l-3.9-7.8
			C439.8,377.4,439.9,377.2,440.1,377.1z"/>
		<path class="st4" d="M440.1,377.1L440.1,377.1c1.1-0.7,2.6-0.3,3.1,0.7l3,7l2.6,7.1l-1.4,0.1l-3.7-6.6l-3.9-7.8
			C439.8,377.4,439.9,377.2,440.1,377.1z"/>
	</g>
	<path class="st8" d="M442.9,375.6c0.2,0.3-0.2,0.3-0.2,0.3c-0.5,0-1.7-4.1-2.1-5c-1.7-3.7,0.8-1.8,1.3-1.8
		C441.9,369.1,442.3,374.7,442.9,375.6z"/>
	<path class="st13" d="M450,394.2c-0.2,0.6-0.9,0.6-1.5-0.1l-0.8-0.9c-0.1,0.1-0.1,0.2-0.2,0.2c-0.3,0-0.6-0.4-0.7-0.8c0,0,0,0,0,0
		c-0.4-1.8,1-2.7,2.1-1.3l0.5,0.5C450,392.5,450.3,393.6,450,394.2z"/>
	<path class="st13" d="M432,397c0.7,0.2,1.2-0.3,1.2-1.2l-0.1-1.1c0.1,0,0.2,0,0.3-0.1c0.2-0.2,0.2-0.7-0.1-1.1c0,0,0,0,0,0
		c-1-1.5-2.8-1-2.7,0.8l0,0.7C430.7,395.9,431.3,396.8,432,397z"/>
	<path class="st21" d="M432,397c0.7,0.2,1.2-0.3,1.2-1.2l-0.1-1.1c0.1,0,0.2,0,0.3-0.1c0.2-0.2,0.2-0.7-0.1-1.1c0,0,0,0,0,0
		c-1-1.5-2.8-1-2.7,0.8l0,0.7C430.7,395.9,431.3,396.8,432,397z"/>
	<path class="st5" d="M442.8,386c0.1-1.1,1.7-3.3,1.7-5.6c0-0.6-1.1-1.2-1.6-2c-0.7-1-1-1.6-1.4-2.4l-0.6-2.2
		c-2.2-0.4-1.4,0.9-2.8,2.6c-1.5,1.9-3.7,0.8-3.7,4.3l2.7,5.9L442.8,386z"/>
	<path class="st13" d="M440.9,375.4c0.6-0.4,1-1,1-1.7v-2.3c0-1.1-0.9-2-2-2h-0.4c-1.1,0-2,0.9-2,2v2.3c0,0.9,0.5,1.6,1.3,1.9
		l-1,4.1c0,0,2.2,0.4,3.5,2.3c0.1-1.7,1.5-2.7,1.5-2.7L440.9,375.4z"/>
	<path class="st8" d="M439.6,367.7c1.2,0,1.1,0.9,1.1,0.9c0.5,0,2.3,1.4,1.4,1.5c-1.2,0.1-2.7-0.2-3.1,0.5c-0.6,1.1-1.4,5.6-1.4,5.6
		c-0.5,0-0.5,0-0.9-0.9C435.1,371.5,436.8,367.7,439.6,367.7z"/>
	<g>
		<path class="st2" d="M436.6,378.2L436.6,378.2c-0.8-0.6-2-0.1-2.2,0.9l-1.7,6.9l-1.4,7l1.8,0l1.8-6.3l1.9-7.9
			C436.8,378.5,436.7,378.3,436.6,378.2z"/>
		<path class="st4" d="M436.6,378.2L436.6,378.2c-0.8-0.6-2-0.1-2.2,0.9l-1.7,6.9l-1.4,7l1.8,0l1.8-6.3l1.9-7.9
			C436.8,378.5,436.7,378.3,436.6,378.2z"/>
	</g>
	<polygon class="st13" points="443.5,390.5 434.9,390.7 437,386.6 442.8,386 	"/>
	<polygon class="st21" points="443.5,390.5 434.9,390.7 437,386.6 442.8,386 	"/>
	<path class="st14" d="M438.9,390.1l4.1,1.1l1.9,1.5l2.4,6.3l0.3,9.2l-1,2.6l-2.1-10.9l-4.4-5c-0.7-1-1.2-1.3-1.2-2.5L438.9,390.1z"
		/>
	<path class="st2" d="M435.5,401.6l-0.7-5.8c-0.1-0.8,0-3.7,0-5.1l0.8-1.6h7.5l0,1l-3.1,4.8l-1.1,5.6c0,0.4-0.2,1.6-0.4,1.9
		l-4.2,7.6l-2.1-0.5C432.3,409.6,435.5,402,435.5,401.6z"/>
	<path class="st8" d="M432.5,411.6l4.5,0.5c0.3,0,0.6-0.2,0.6-0.5l0-0.3c0.1-0.9-0.5-1.7-1.4-1.8l-3.9-0.5l-0.2,2
		C432.1,411.3,432.3,411.5,432.5,411.6z"/>
	<path class="st2" d="M438.9,390.1l4.4-1l1.6,3.7l2.4,6.3l0.3,9.2l-1,2.6l-2.1-10.9l-4.4-5c-0.7-1-1.2-1.3-1.2-2.5L438.9,390.1z"/>
	<path class="st8" d="M446.7,411.2l4-1.6c0.6-0.2,0.8-0.5,0.7-1.2s-1.7-1-2.4-0.8l-2.9,1.1L446.7,411.2z"/>
</g>
</svg>
