<?xml version="1.0" encoding="utf-8"?>
<!-- Generator: Adobe Illustrator 23.0.1, SVG Export Plug-In . SVG Version: 6.00 Build 0)  -->
<svg version="1.1" xmlns="http://www.w3.org/2000/svg" xmlns:xlink="http://www.w3.org/1999/xlink" x="0px" y="0px"
	 viewBox="0 0 798.5 585.2" style="enable-background:new 0 0 798.5 585.2;" xml:space="preserve">
<style type="text/css">
	.st0{display:none;}
	.st1{display:inline;opacity:0.5;}
	.st2{fill:#81BCBF;}
	.st3{opacity:0.33;fill:#B6CE99;}
	.st4{opacity:0.66;fill:#B6CE99;}
	.st5{fill:#B6CE99;}
	.st6{opacity:0.33;fill:#FFFFFF;}
	.st7{opacity:0.66;fill:#FFFFFF;}
	.st8{fill:#585799;}
	.st9{opacity:0.5;fill:#B6CE99;}
	.st10{opacity:0.33;fill:#81BCBF;}
	.st11{opacity:0.66;fill:#81BCBF;}
	.st12{opacity:0.5;fill:#585799;}
	.st13{fill:#508A99;}
	.st14{opacity:0.33;fill:#508A99;}
	.st15{opacity:0.66;fill:#508A99;}
	.st16{fill:none;}
	.st17{opacity:0.66;fill:#585799;}
	.st18{opacity:0.66;}
	.st19{fill:#FFFFFF;}
	.st20{opacity:0.33;}
	.st21{opacity:0.33;fill:#585799;}
	.st22{fill:none;stroke:#FFFFFF;stroke-width:0.25;stroke-miterlimit:10;}
	.st23{opacity:0.5;fill:#81BCBF;}
	.st24{opacity:0.5;fill:#FFFFFF;}
	.st25{opacity:0.2;}
	.st26{fill-rule:evenodd;clip-rule:evenodd;fill:#FFFFFF;}
</style>
<g id="Ejemplo" class="st0">
</g>
<g id="Retícula" class="st0">
</g>
<g id="Números">
	<polyline class="st5" points="145.3,439.2 257.3,374.4 257.3,386.2 145.3,451.1 	"/>
	<polyline class="st5" points="145.3,451.1 22.7,380.3 22.7,368.5 145.3,439.2 	"/>
	<polyline class="st5" points="145.3,439.2 257.3,374.4 134.9,304.1 22.7,368.5 145.3,439.2 145.3,451.1 	"/>
	<polyline class="st15" points="145.3,439.2 257.3,374.4 257.3,386.2 145.3,451.1 	"/>
	<polyline class="st14" points="145.3,451.1 22.7,380.3 22.7,368.5 145.3,439.2 	"/>
	<g>
		<polygon class="st5" points="170.6,470.7 170.6,464 164.9,460.9 164.9,456.9 164.9,454.6 163.3,453.6 163.3,453.7 159.2,451.4 
			159.2,444.9 153.5,441.6 153.5,443.6 157.8,446.1 157.8,452.8 163.3,456 163.3,462.1 163.3,462.1 169.2,465.2 169.2,472.1 
			174.7,475.3 174.7,481.1 176.3,480.1 176.3,476.2 176.3,474 176.3,473.9 		"/>
		<g>
			<polygon class="st13" points="159.2,444.9 192.5,425.5 186.8,422.2 153.5,441.6 			"/>
			<polyline class="st13" points="159.2,444.9 159.2,451.4 192.5,431.7 198.1,435 164.9,454.6 159.2,451.4 			"/>
			<polygon class="st13" points="170.6,464 203.9,444.5 198.1,441.6 164.9,460.9 			"/>
			<polyline class="st13" points="170.6,464 170.6,470.7 203.9,451 209.4,454.4 176.3,473.9 170.6,470.7 			"/>
			<polyline class="st13" points="164.9,454.6 198.1,435 198.1,441.6 164.9,460.9 164.9,454.6 			"/>
			<polyline class="st13" points="159.2,451.4 192.5,431.7 192.5,425.5 159.2,444.9 			"/>
			<polyline class="st13" points="176.3,473.9 209.4,454.4 209.4,461 176.3,480.1 176.3,473.9 			"/>
			<polyline class="st13" points="170.6,470.7 203.9,451 203.9,444.5 170.6,464 			"/>
		</g>
		<g class="st18">
			<polygon class="st5" points="159.2,444.9 192.5,425.5 186.8,422.2 153.5,441.6 			"/>
			<polyline class="st5" points="159.2,451.4 192.5,431.7 198.1,435 164.9,454.6 159.2,451.4 			"/>
			<polygon class="st5" points="170.6,464 203.9,444.5 198.1,441.6 164.9,460.9 			"/>
			<polyline class="st5" points="170.6,470.7 203.9,451 209.4,454.4 176.3,473.9 170.6,470.7 			"/>
		</g>
		<polygon class="st13" points="170.6,470.7 170.6,464 164.9,460.9 164.9,456.9 164.9,454.6 163.3,453.6 163.3,453.7 159.2,451.4 
			159.2,444.9 153.5,441.6 153.5,443.6 157.8,446.1 157.8,452.8 163.3,456 163.3,462.1 163.3,462.1 169.2,465.2 169.2,472.1 
			174.7,475.3 174.7,481.1 176.3,480.1 176.3,476.2 176.3,474 176.3,473.9 		"/>
	</g>
	<polygon class="st2" points="158.8,305 146.9,312.4 146.9,331.8 158.8,324.5 	"/>
	<g>
		<polygon class="st2" points="158.8,305 146.9,312.4 123.1,298.8 135,291.5 		"/>
		<polygon class="st7" points="158.8,305 146.9,312.4 123.1,298.8 135,291.5 		"/>
	</g>
	<g>
		<polygon class="st2" points="123.1,318.1 123.1,298.8 146.9,312.4 146.9,331.8 		"/>
		<polygon class="st6" points="123.1,318.1 123.1,298.8 146.9,312.4 146.9,331.8 		"/>
	</g>
	<polygon class="st8" points="124.3,317.2 124.3,300.9 145.6,313.1 145.6,329.4 	"/>
	<polygon class="st15" points="133.4,322.4 133.4,306.2 134,306.5 134,322.8 	"/>
	<polygon class="st15" points="133.9,322.7 133.9,306.5 134.6,306.8 134.6,323.1 	"/>
	<polygon class="st15" points="125.7,308.4 125.7,307.2 132,310.7 132,312 	"/>
	<polygon class="st15" points="136.2,314 136.2,312.7 143.1,316.5 143.1,317.9 	"/>
	<polygon class="st11" points="125.7,307.4 125.7,306.2 132,309.7 132,311 	"/>
	<polygon class="st11" points="136.2,313 136.2,311.7 143.1,315.5 143.1,316.9 	"/>
	<g>
		<polygon class="st2" points="183.1,318.9 171.2,326.3 171.2,345.8 183.1,338.4 		"/>
		<g>
			<polygon class="st2" points="183.1,318.9 171.2,326.3 147.4,312.7 159.3,305.4 			"/>
			<polygon class="st7" points="183.1,318.9 171.2,326.3 147.4,312.7 159.3,305.4 			"/>
		</g>
		<g>
			<polygon class="st2" points="147.4,332 147.4,312.7 171.2,326.3 171.2,345.8 			"/>
			<polygon class="st6" points="147.4,332 147.4,312.7 171.2,326.3 171.2,345.8 			"/>
		</g>
		<polygon class="st8" points="148.6,331.1 148.6,314.9 169.9,327 169.9,343.4 		"/>
		<polygon class="st15" points="157.6,336.4 157.6,320.1 158.3,320.4 158.3,336.7 		"/>
		<polygon class="st15" points="158.2,336.7 158.2,320.4 158.8,320.7 158.8,337 		"/>
		<polygon class="st15" points="150,322.4 150,321.1 156.2,324.6 156.2,326 		"/>
		<polygon class="st15" points="160.5,327.9 160.5,326.7 167.3,330.5 167.3,331.8 		"/>
		<polygon class="st11" points="150,321.4 150,320.1 156.2,323.6 156.2,325 		"/>
		<polygon class="st11" points="160.5,326.9 160.5,325.7 167.3,329.5 167.3,330.8 		"/>
	</g>
	<g>
		<polygon class="st2" points="166.2,310.2 168,311.2 168,320.5 166.2,319.5 		"/>
		<polygon class="st2" points="174.2,307.6 168,311.2 168,320.5 174.2,316.9 		"/>
		<polygon class="st2" points="166.2,310.2 168,311.2 174.2,307.6 172.4,306.6 		"/>
		<polygon class="st7" points="166.2,310.2 168,311.2 174.2,307.6 172.4,306.6 		"/>
		<polygon class="st7" points="166.6,312.2 167.7,312.8 167.7,318.4 166.6,317.8 		"/>
		<g>
			<polygon class="st7" points="166.8,310.1 168,310.8 173.9,307.4 172.7,306.7 			"/>
			<polygon class="st7" points="167.8,310.7 168,310.8 173.9,307.4 173.7,307.3 			"/>
			<polygon class="st7" points="167.6,310.5 167.8,310.6 173.6,307.2 173.4,307.1 			"/>
			<polygon class="st7" points="167.3,310.4 167.4,310.5 173.3,307 173.1,306.9 			"/>
			<polygon class="st7" points="167,310.2 167.2,310.3 173,306.9 172.8,306.8 			"/>
		</g>
		<polygon class="st6" points="174.2,307.6 168,311.2 168,320.5 174.2,316.9 		"/>
	</g>
	<g>
		<polygon class="st8" points="168.5,311.5 170.3,312.5 170.3,321.8 168.5,320.8 		"/>
		<polygon class="st8" points="176.5,308.9 170.3,312.5 170.3,321.8 176.5,318.2 		"/>
		<polygon class="st8" points="168.5,311.5 170.3,312.5 176.5,308.9 174.7,307.9 		"/>
		<polygon class="st7" points="168.5,311.5 170.3,312.5 176.5,308.9 174.7,307.9 		"/>
		<polygon class="st7" points="168.9,313.6 170,314.2 170,319.8 168.9,319.2 		"/>
		<g>
			<polygon class="st7" points="169.2,311.5 170.3,312.1 176.2,308.7 175,308.1 			"/>
			<polygon class="st7" points="170.2,312 170.3,312.1 176.2,308.7 176,308.6 			"/>
			<polygon class="st7" points="169.9,311.9 170.1,312 175.9,308.5 175.7,308.4 			"/>
			<polygon class="st7" points="169.6,311.7 169.8,311.8 175.6,308.4 175.4,308.3 			"/>
			<polygon class="st7" points="169.3,311.5 169.5,311.7 175.3,308.2 175.1,308.1 			"/>
		</g>
		<polygon class="st10" points="176.5,308.9 170.3,312.5 170.3,321.8 176.5,318.2 		"/>
	</g>
	<g>
		<polygon class="st5" points="170.8,312.8 172.6,313.8 172.6,323.1 170.8,322.1 		"/>
		<polygon class="st6" points="170.8,312.8 172.6,313.8 172.6,323.1 170.8,322.1 		"/>
		<polygon class="st5" points="178.8,310.2 172.6,313.8 172.6,323.1 178.8,319.5 		"/>
		<polygon class="st7" points="177,313.1 174.4,314.7 174.4,316.5 177,314.9 		"/>
		<polygon class="st5" points="170.8,312.8 172.6,313.8 178.8,310.2 177,309.2 		"/>
		<polygon class="st7" points="170.8,312.8 172.6,313.8 178.8,310.2 177,309.2 		"/>
		<polygon class="st7" points="171.1,314.8 172.2,315.5 172.2,321.1 171.1,320.5 		"/>
		<polygon class="st7" points="171.4,312.8 172.6,313.4 178.4,310 177.2,309.4 		"/>
		<polygon class="st7" points="172.4,313.3 172.6,313.4 178.4,310 178.3,309.9 		"/>
		<polygon class="st7" points="172.1,313.2 172.3,313.3 178.2,309.8 178,309.7 		"/>
		<polygon class="st7" points="171.8,313 172,313.1 177.9,309.7 177.7,309.6 		"/>
		<polygon class="st7" points="171.5,312.8 171.7,313 177.6,309.5 177.4,309.4 		"/>
	</g>
	<g>
		<g>
			<polygon class="st2" points="210.6,348.2 195.6,356.9 232.1,377.3 247.1,368.6 			"/>
			<polygon class="st7" points="210.6,348.2 195.6,356.9 232.1,377.3 247.1,368.6 			"/>
		</g>
		<polygon class="st8" points="237.7,382.8 234.9,384.6 234.9,382.2 237.7,380.6 		"/>
		<polygon class="st8" points="232.1,383 234.9,384.6 234.9,382.2 232.1,380.6 		"/>
		<polygon class="st2" points="232.1,371.9 232.1,377.3 195.7,356.8 195.7,351.5 192.9,349.9 192.9,358.6 234.9,382.2 234.9,373.5 
					"/>
		<polygon class="st8" points="192.9,361 195.6,362.6 195.6,360.2 192.9,358.6 		"/>
		<polygon class="st2" points="210.6,342.8 195.6,351.5 195.6,356.9 210.6,348.2 		"/>
		<polygon class="st2" points="247.1,356.7 244.5,358.2 244.5,364.7 247.1,363.2 		"/>
		<polygon class="st23" points="210.6,336.4 208,337.9 208,349.9 210.6,348.3 		"/>
		<polygon class="st8" points="197.6,361.3 195.6,362.6 195.6,360.2 		"/>
		<g>
			<polygon class="st2" points="247.1,356.7 244.5,358.2 208,337.9 210.6,336.4 			"/>
			<polygon class="st7" points="247.1,356.7 244.5,358.2 208,337.9 210.6,336.4 			"/>
		</g>
		<g>
			<polyline class="st2" points="195.6,351.5 192.9,349.9 207.8,341.2 210.6,342.8 			"/>
			<polyline class="st7" points="195.6,351.5 192.9,349.9 207.8,341.2 210.6,342.8 			"/>
		</g>
		<polygon class="st6" points="232.1,371.9 232.1,377.3 195.7,356.8 195.7,351.5 192.9,349.9 192.9,358.6 234.9,382.2 234.9,373.5 
					"/>
		<g>
			<polygon class="st2" points="208,349.7 208,337.9 244.5,358.2 244.5,370.1 			"/>
			<polygon class="st6" points="208,349.7 208,337.9 244.5,358.2 244.5,370.1 			"/>
		</g>
		<polygon class="st2" points="249.9,364.8 234.9,373.5 234.9,382.2 249.9,373.5 		"/>
		<g>
			<polygon class="st2" points="249.9,364.8 234.9,373.5 232.1,371.9 247.1,363.2 			"/>
			<polygon class="st7" points="249.9,364.8 234.9,373.5 232.1,371.9 247.1,363.2 			"/>
		</g>
		<polygon class="st8" points="249.9,375.7 247.1,377.5 247.1,375.2 249.9,373.5 		"/>
		<polygon class="st8" points="245.1,376.3 247.1,377.5 247.1,375.1 		"/>
		<polygon class="st14" points="232.1,383 234.9,384.6 234.9,382.2 232.1,380.6 		"/>
		<polygon class="st14" points="192.9,361 195.6,362.6 195.6,360.2 192.9,358.6 		"/>
		<polygon class="st14" points="245.1,376.3 247.1,377.5 247.1,375.1 		"/>
	</g>
	<polygon class="st2" points="138.5,351.5 124.4,360.1 124.4,295.5 138.7,286.9 	"/>
	<polygon class="st14" points="138.6,351.5 124.4,360.1 124.4,295.5 138.7,286.9 	"/>
	<g>
		<polygon class="st2" points="124.4,295.5 138.7,286.9 108.2,270 94.1,278.2 		"/>
		<polygon class="st7" points="124.4,295.5 138.7,286.9 108.2,270 94.1,278.2 		"/>
	</g>
	<polygon class="st2" points="91.7,298.7 91.8,382.2 58.9,364.2 58.9,280 	"/>
	<polygon class="st6" points="91.7,298.7 91.8,382.2 58.9,364.2 58.9,280 	"/>
	<polygon class="st2" points="91.7,298.7 124.4,279.5 91.8,260.8 58.9,280 	"/>
	<polygon class="st7" points="91.7,298.7 124.4,279.5 91.8,260.8 58.9,280 	"/>
	<polygon class="st2" points="124.3,362.8 91.8,382.2 91.7,298.7 124.4,279.5 	"/>
	<g>
		<polygon class="st13" points="115.9,367.8 101.5,376.4 101.5,361.4 116,352.6 		"/>
		<polygon class="st21" points="114.5,353.5 114.4,367 115.9,367.8 116,352.6 		"/>
	</g>
	<g>
		<g>
			<path class="st13" d="M93.7,319.6L93.7,319.6c0-0.7,0.6-1.6,1.3-2.1c0.5-0.3,0.8-0.3,1.1-0.1l-0.5,0.7c-0.1-0.1-0.3-0.1-0.5,0
				c-0.3,0.2-0.6,0.6-0.6,1v0c0,0.4,0.2,0.5,0.6,0.3c0.3-0.1,0.4-0.4,0.6-0.6L96,319c-0.2,0.5-0.6,0.9-1.1,1.2
				C94.2,320.6,93.7,320.4,93.7,319.6z"/>
		</g>
		<g>
			<path class="st13" d="M96.2,318.1L96.2,318.1c0-0.7,0.6-1.6,1.3-2.1c0.8-0.4,1.3-0.2,1.3,0.5v0c0,0.7-0.6,1.6-1.3,2.1
				C96.8,319.1,96.2,318.9,96.2,318.1z M98.2,317L98.2,317c0-0.4-0.3-0.5-0.6-0.3c-0.4,0.2-0.6,0.7-0.6,1v0c0,0.4,0.3,0.5,0.6,0.3
				C97.9,317.8,98.2,317.4,98.2,317z"/>
		</g>
		<g>
			<path class="st13" d="M99.2,315.1l1.2-0.7c0.4-0.2,0.6-0.3,0.8-0.2c0.1,0.1,0.2,0.2,0.2,0.5v0c0,0.4-0.2,0.8-0.5,1.1l0.6,0.5
				l-0.8,0.5l-0.5-0.5l-0.3,0.2v0.8l-0.7,0.4V315.1z M100.4,315.7c0.2-0.1,0.4-0.3,0.4-0.5v0c0-0.2-0.1-0.2-0.4-0.1l-0.5,0.3v0.6
				L100.4,315.7z"/>
		</g>
		<g>
			<path class="st13" d="M101.8,313.7l1.1-0.6c0.6-0.4,1-0.3,1,0.3v0c0,0.6-0.5,1.2-1.1,1.5l-0.3,0.2v0.7l-0.7,0.4V313.7z
				 M102.8,314.3c0.2-0.1,0.4-0.4,0.4-0.6v0c0-0.2-0.2-0.2-0.4-0.1l-0.3,0.2v0.7L102.8,314.3z"/>
		</g>
		<g>
			<path class="st13" d="M104.1,313.6L104.1,313.6c0-0.7,0.6-1.6,1.3-2.1c0.8-0.4,1.3-0.2,1.3,0.5v0c0,0.7-0.6,1.6-1.3,2.1
				C104.7,314.5,104.1,314.3,104.1,313.6z M106.1,312.5L106.1,312.5c0-0.4-0.3-0.5-0.6-0.3c-0.4,0.2-0.6,0.7-0.6,1v0
				c0,0.4,0.3,0.5,0.6,0.3C105.8,313.3,106.1,312.8,106.1,312.5z"/>
		</g>
		<g>
			<path class="st13" d="M107.1,310.6l1.2-0.7c0.4-0.2,0.6-0.3,0.8-0.2c0.1,0.1,0.2,0.2,0.2,0.5v0c0,0.4-0.2,0.8-0.5,1.1l0.6,0.5
				l-0.8,0.5l-0.5-0.5l-0.3,0.2v0.8l-0.7,0.4V310.6z M108.3,311.1c0.2-0.1,0.4-0.3,0.4-0.5v0c0-0.2-0.1-0.2-0.4-0.1l-0.5,0.3v0.6
				L108.3,311.1z"/>
		</g>
		<g>
			<path class="st13" d="M110.5,308.6l0.7-0.4l1.1,1.9l-0.7,0.4l-0.2-0.3l-1,0.6l-0.2,0.5l-0.7,0.4L110.5,308.6z M111.1,309.8
				l-0.3-0.5l-0.3,0.9L111.1,309.8z"/>
		</g>
		<g>
			<path class="st13" d="M112.7,307.9l-0.7,0.4v-0.6l2.2-1.3v0.6l-0.7,0.4v1.9l-0.7,0.4V307.9z"/>
		</g>
		<g>
			<path class="st13" d="M114.5,306.3l2-1.2v0.6l-1.3,0.8v0.4l1.2-0.7v0.5l-1.2,0.7v0.4l1.3-0.8v0.6l-2,1.2V306.3z"/>
		</g>
		<g>
			<path class="st13" d="M117.7,306.6l0.4-0.7c0.2,0.1,0.5,0,0.8-0.2c0.2-0.1,0.3-0.2,0.3-0.3v0c0-0.1-0.1-0.1-0.4,0
				c-0.5,0.2-0.9,0.3-0.9-0.2v0c0-0.5,0.4-1,1-1.4c0.4-0.2,0.8-0.3,1-0.3l-0.3,0.7c-0.2,0-0.5,0-0.7,0.2c-0.2,0.1-0.2,0.2-0.2,0.3v0
				c0,0.1,0.1,0.1,0.4,0c0.6-0.2,0.9-0.2,0.9,0.2v0c0,0.5-0.4,1-1,1.4C118.4,306.6,118,306.7,117.7,306.6z"/>
		</g>
		<g>
			<path class="st13" d="M120.1,304.9l0.7-0.4v0.7l-0.7,0.4V304.9z"/>
		</g>
		<g>
			<path class="st13" d="M121.2,302.5l0.7-0.4v1.9l1.2-0.7v0.6l-1.9,1.1V302.5z"/>
		</g>
	</g>
	<g>
		<g>
			<path class="st2" d="M116.9,291.7c2.7,2.3-3,9.5-6.3,11.4c-3.2,1.8-5.9,0.8-5.9-2.5s2.6-7.4,5.9-9.3c0.6-0.4,0.1-0.3-0.9,0.3
				c-3.9,2.2-7,7.2-7,11.1s3.1,5.2,7,3c1.1-0.6,1.9-2,2.8-4c0,0,3.3-3.6,3.1-8L116.9,291.7z"/>
			<g>
				<path class="st2" d="M117.2,296.3c-1.6,2.6-2.2,3.4-4.4,5.5c-0.8,1.6-1.2,2.5-2.2,3.2C114.6,302.4,116.5,299.5,117.2,296.3z"/>
			</g>
			<path class="st2" d="M115.5,293.2c0.4-0.5,1-1.3,1.2-1.8c-0.4-0.2-1.2-0.2-1.7-0.3c0.3,0.6,0.5,1.3,0.5,2
				C115.5,293.1,115.5,293.2,115.5,293.2z"/>
			<path class="st21" d="M116.9,291.7c2.7,2.3-3,9.5-6.3,11.4c-3.2,1.8-5.9,0.8-5.9-2.5s2.6-7.4,5.9-9.3c0.6-0.4,0.1-0.3-0.9,0.3
				c-3.9,2.2-7,7.2-7,11.1s3.1,5.2,7,3c1.1-0.6,1.9-2,2.8-4c0,0,3.3-3.6,3.1-8L116.9,291.7z"/>
			<path class="st21" d="M115.5,293.2c0.4-0.5,1-1.3,1.2-1.8c-0.4-0.2-1.2-0.2-1.7-0.3c0.3,0.6,0.5,1.3,0.5,2
				C115.5,293.1,115.5,293.2,115.5,293.2z"/>
			<path class="st13" d="M101.4,305c-1.2,0-0.5-2,0.9-3.7c-2.1,2.2-3.9,5-3.1,6.1c1.4,1.8,6.8-1.4,12.1-7.2c2.9-3.2,4.1-5.4,5.7-8.5
				C110.8,300.3,104.2,305.1,101.4,305z"/>
			
				<ellipse transform="matrix(0.6011 -0.7992 0.7992 0.6011 -191.2704 205.4435)" class="st5" cx="110.2" cy="294.3" rx="4.2" ry="2.4"/>
			<g class="st20">
				<path class="st8" d="M117.2,296.3c-1.6,2.6-2.2,3.4-4.4,5.5c-0.8,1.6-1.2,2.5-2.2,3.2C114.6,302.4,116.5,299.5,117.2,296.3z"/>
			</g>
		</g>
		<g class="st20">
			<g>
				<path class="st8" d="M100.3,308c-0.6,0-1-0.2-1.3-0.6c-1.1-1.4,2.1-5.1,3.1-6.2c0,0,0.1,0,0.1,0c0,0,0.1,0,0.1,0
					c0.1,0,0.1,0.1,0,0.2c-1.1,1.3-1.7,2.6-1.4,3.2c0.1,0.2,0.2,0.2,0.4,0.2c0,0,0,0,0,0c0.5,0,0.9-0.1,1.5-0.3
					c-0.2-0.6-0.3-1.2-0.3-1.9c0-3.8,3-8.6,6.7-11c0.3-0.3,0.6-0.4,0.8-0.6c0.6-0.3,1.1-0.5,1.6-0.5c1,0,1.7,0.7,1.7,1.9
					c0,1.8-1.4,4.1-3.2,5.1c-0.6,0.3-1.1,0.5-1.6,0.5c-1,0-1.7-0.7-1.7-1.9c0-0.5,0.1-1,0.3-1.6c-1.5,1.9-2.4,4.2-2.4,6
					c0,1.1,0.3,2,0.9,2.5c3.5-2.4,7.6-6.5,11.1-11.5c0,0,0.1,0,0.1-0.1c0,0,0,0,0,0c0,0,0.1,0,0.1,0c0.5,0.4,0.7,1,0.7,1.7
					c0,2.4-2.6,6.1-5.1,8.4c-1,2.3-1.9,3.5-2.8,4c-1.2,0.7-2.5,1.1-3.6,1.1c0,0,0,0,0,0c-0.7,0-1.3-0.1-1.8-0.4
					C102.7,307.5,101.3,308,100.3,308z M115.5,294.6c-1.2,2.1-2.4,3.8-4.2,5.7c-1.2,1.3-2.4,2.5-3.6,3.6c0.9,0,1.8-0.3,2.8-0.9
					c0.5-0.3,1.2-0.8,1.9-1.4C112.6,301.3,115.2,298.3,115.5,294.6z"/>
				<path class="st19" d="M111.7,290.7c0.9,0,1.6,0.7,1.6,1.8c0,1.7-1.4,4-3.1,5c-0.6,0.3-1.1,0.5-1.6,0.5c-0.9,0-1.6-0.7-1.6-1.8
					c0-0.8,0.3-1.7,0.8-2.5c-1.8,2.1-3.1,4.7-3.1,6.9c0,1.2,0.4,2.1,1,2.7c3.2-2.1,7.3-6,11.2-11.6c2.2,1.9-1.3,7.1-4.4,9.9
					c0.2-0.2,3.1-3.5,3.1-7.5c-1.1,2-2.3,3.8-4.4,6.1c-1.3,1.4-2.6,2.7-3.8,3.8c0.1,0,0.2,0,0.3,0c0.9,0,1.9-0.3,2.9-0.9
					c0.6-0.3,1.2-0.8,1.9-1.4c0,0,0,0,0,0c-0.9,2-1.7,3.4-2.8,4c-1.3,0.7-2.5,1.1-3.5,1.1c-0.7,0-1.3-0.2-1.8-0.4
					c-1.6,1.1-3.1,1.7-4.1,1.7c-0.5,0-0.9-0.2-1.2-0.5c-0.8-1.1,1.1-3.8,3.1-6.1c-1.4,1.7-2.1,3.6-0.9,3.7c0,0,0,0,0.1,0
					c0.5,0,1-0.1,1.6-0.4c-0.2-0.6-0.4-1.2-0.4-2c0-3.8,3-8.5,6.7-10.9c0.3-0.2,0.5-0.4,0.8-0.6
					C110.7,290.8,111.3,290.7,111.7,290.7 M112.5,301.6L112.5,301.6 M111.7,290.4l0,0.2L111.7,290.4c-0.5,0-1.1,0.2-1.7,0.5
					c-0.3,0.2-0.5,0.3-0.9,0.6c-3.8,2.4-6.8,7.2-6.8,11.1c0,0.7,0.1,1.3,0.3,1.9c-0.5,0.2-0.9,0.3-1.3,0.3l-0.1,0
					c-0.2,0-0.3-0.1-0.3-0.2c-0.2-0.4,0.3-1.7,1.4-3.1c0.1-0.1,0.1-0.3,0-0.3c0,0-0.1-0.1-0.2-0.1c-0.1,0-0.1,0-0.2,0.1
					c-1.3,1.4-4.3,4.9-3.1,6.4c0.3,0.4,0.8,0.6,1.4,0.6c1,0,2.4-0.6,4.1-1.6c0.5,0.3,1.1,0.4,1.8,0.4c1.1,0,2.4-0.4,3.6-1.1
					c1-0.6,1.9-1.8,2.9-4.1c2.5-2.3,5.2-6,5.1-8.5c0-0.8-0.3-1.4-0.8-1.8c0,0-0.1-0.1-0.2-0.1c0,0,0,0,0,0c-0.1,0-0.1,0-0.2,0.1
					c-3.5,4.9-7.5,9-11,11.4c-0.5-0.5-0.8-1.4-0.8-2.4c0-1.6,0.7-3.6,1.9-5.3c-0.1,0.3-0.1,0.6-0.1,0.9c0,1.3,0.7,2.1,1.8,2.1
					c0.5,0,1.1-0.2,1.7-0.5c1.8-1,3.3-3.4,3.3-5.2C113.6,291.2,112.8,290.4,111.7,290.4L111.7,290.4z M108.1,303.7
					c1.1-1,2.2-2.1,3.3-3.3c1.6-1.8,2.8-3.3,3.9-5.2c-0.4,3.4-2.8,6.1-3,6.3c-0.7,0.6-1.3,1.1-1.9,1.4
					C109.6,303.3,108.8,303.6,108.1,303.7L108.1,303.7z M112.5,301.8L112.5,301.8L112.5,301.8L112.5,301.8z M112.5,301.8
					L112.5,301.8L112.5,301.8L112.5,301.8z"/>
			</g>
			<g>
				<path class="st8" d="M110.6,305.2c0,0-0.1,0-0.1-0.1c0-0.1,0-0.1,0-0.2c0.9-0.6,1.3-1.4,1.9-2.6l0.3-0.5c2.2-2.2,2.8-3,4.4-5.6
					c0,0,0.1-0.1,0.1-0.1c0,0,0,0,0,0c0.1,0,0.1,0.1,0.1,0.1C116.6,299.8,114.4,302.6,110.6,305.2
					C110.7,305.2,110.7,305.2,110.6,305.2z"/>
				<path class="st19" d="M117.2,296.3L117.2,296.3 M117.2,296.3c-0.7,3.3-2.6,6.1-6.6,8.8c1-0.7,1.4-1.6,2.2-3.2
					C115,299.7,115.6,298.9,117.2,296.3 M117.2,296C117.2,296,117.2,296,117.2,296c-0.1,0-0.1,0-0.1,0c0,0,0,0-0.1,0.1c0,0,0,0,0,0
					c-1.6,2.6-2.2,3.4-4.3,5.5c0,0,0,0,0,0.1l-0.3,0.5c-0.6,1.2-1,2-1.9,2.6c-0.1,0.1-0.1,0.2-0.1,0.3c0,0.1,0.1,0.1,0.2,0.1
					c0,0,0.1,0,0.1,0c3.7-2.5,5.9-5.4,6.7-8.9c0,0,0-0.1,0-0.1C117.5,296.1,117.4,296,117.2,296L117.2,296
					C117.2,296,117.2,296,117.2,296L117.2,296z M117.2,296.5L117.2,296.5L117.2,296.5L117.2,296.5z"/>
			</g>
		</g>
	</g>
	<polygon class="st2" points="75.1,324.5 75.3,389.2 44.9,372.2 44.8,307.5 	"/>
	<polygon class="st2" points="89.2,380.7 75.3,389.2 75.1,324.5 89.3,316.2 	"/>
	<g>
		<polygon class="st2" points="75.1,324.5 89.2,316.2 58.9,299.3 44.8,307.5 		"/>
		<polygon class="st7" points="75.1,324.5 89.2,316.2 58.9,299.3 44.8,307.5 		"/>
	</g>
	<polygon class="st6" points="75.1,324.5 75.3,389.2 44.9,372.2 44.8,307.5 	"/>
	<g>
		<g>
			<g>
				<polygon class="st5" points="68.8,363.8 72.2,365.9 72.2,359.9 68.8,357.9 				"/>
				<polygon class="st5" points="63.7,361.1 67,363.2 67.1,357.2 63.7,355.2 				"/>
				<polygon class="st5" points="68.8,372 72.2,374.1 72.2,368.1 68.8,366.1 				"/>
				<polygon class="st5" points="63.7,369.4 67,371.4 67.1,365.4 63.7,363.4 				"/>
				<polygon class="st5" points="68.8,380.3 72.2,382.3 72.2,376.3 68.8,374.3 				"/>
				<polygon class="st5" points="63.7,377.6 67,379.6 67.1,373.6 63.7,371.6 				"/>
			</g>
			<g>
				<polygon class="st5" points="58.3,358.5 61.6,360.5 61.7,354.6 58.3,352.6 				"/>
				<polygon class="st5" points="53.1,355.8 56.5,357.8 56.5,351.9 53.1,349.9 				"/>
				<polygon class="st5" points="58.3,366.7 61.6,368.7 61.7,362.8 58.3,360.8 				"/>
				<polygon class="st5" points="53.1,364 56.5,366.1 56.5,360.1 53.1,358.1 				"/>
				<polygon class="st5" points="58.3,374.9 61.6,377 61.7,371 58.3,369 				"/>
				<polygon class="st5" points="53.1,372.2 56.5,374.3 56.5,368.3 53.1,366.3 				"/>
			</g>
			<polygon class="st5" points="47.7,353.2 51.1,355.2 51.1,349.2 47.7,347.2 			"/>
			<polygon class="st5" points="47.7,361.4 51.1,363.4 51.1,357.5 47.7,355.5 			"/>
			<polygon class="st5" points="47.7,369.6 51.1,371.6 51.1,365.7 47.7,363.7 			"/>
		</g>
		<polygon class="st5" points="68.8,339 72.2,341 72.2,335 68.8,333 		"/>
		<polygon class="st5" points="63.7,336.3 67,338.3 67.1,332.3 63.7,330.3 		"/>
		<polygon class="st5" points="68.8,347.2 72.2,349.2 72.2,343.3 68.8,341.3 		"/>
		<polygon class="st5" points="63.7,344.5 67,346.5 67.1,340.6 63.7,338.6 		"/>
		<polygon class="st5" points="68.8,355.4 72.2,357.4 72.2,351.5 68.8,349.5 		"/>
		<polygon class="st5" points="63.7,352.7 67,354.7 67.1,348.8 63.7,346.8 		"/>
		<polygon class="st5" points="58.3,333.6 61.6,335.7 61.7,329.7 58.3,327.7 		"/>
		<polygon class="st5" points="53.1,331 56.5,333 56.5,327 53.1,325 		"/>
		<polygon class="st5" points="58.3,341.9 61.6,343.9 61.7,337.9 58.3,335.9 		"/>
		<polygon class="st5" points="53.1,339.2 56.5,341.2 56.5,335.2 53.1,333.2 		"/>
		<polygon class="st5" points="58.3,350.1 61.6,352.1 61.7,346.1 58.3,344.1 		"/>
		<polygon class="st5" points="53.1,347.4 56.5,349.4 56.5,343.5 53.1,341.5 		"/>
		<polygon class="st5" points="47.7,328.3 51.1,330.3 51.1,324.4 47.7,322.4 		"/>
		<polygon class="st5" points="47.7,336.5 51.1,338.6 51.1,332.6 47.7,330.6 		"/>
		<polygon class="st5" points="47.7,344.8 51.1,346.8 51.1,340.8 47.7,338.8 		"/>
	</g>
	<g>
		<polygon class="st5" points="82,364.2 78.6,366.2 78.6,360.3 82,358.3 		"/>
		<polygon class="st5" points="86.8,361.6 83.4,363.6 83.4,357.7 86.8,355.7 		"/>
		<polygon class="st5" points="82,372.2 78.6,374.2 78.6,368.2 82,366.2 		"/>
		<polygon class="st5" points="86.8,369.6 83.4,371.6 83.4,365.6 86.8,363.6 		"/>
		<polygon class="st5" points="82,380.1 78.6,382.1 78.6,376.2 82,374.2 		"/>
		<polygon class="st5" points="86.8,377.5 83.4,379.6 83.4,373.6 86.8,371.6 		"/>
	</g>
	<g>
		<polygon class="st5" points="82,339.9 78.6,342 78.6,336 82,334 		"/>
		<polygon class="st5" points="86.8,337.4 83.4,339.4 83.4,333.4 86.8,331.4 		"/>
		<polygon class="st5" points="68.6,330.8 72,332.9 72,326.9 68.6,324.9 		"/>
		<polygon class="st5" points="63.5,328.1 66.8,330.2 66.9,324.2 63.5,322.2 		"/>
		<polygon class="st5" points="58.1,325.5 61.4,327.5 61.5,321.6 58.1,319.6 		"/>
		<polygon class="st5" points="52.9,322.8 56.3,324.8 56.3,318.9 52.9,316.9 		"/>
		<polygon class="st5" points="47.5,320.2 50.9,322.2 50.9,316.2 47.5,314.2 		"/>
		<polygon class="st5" points="81.8,331.8 78.4,333.8 78.4,327.9 81.8,325.9 		"/>
		<polygon class="st5" points="86.6,329.2 83.2,331.3 83.2,325.3 86.6,323.3 		"/>
		<polygon class="st5" points="82,347.9 78.6,349.9 78.6,344 82,342 		"/>
		<polygon class="st5" points="86.8,345.3 83.4,347.4 83.4,341.4 86.8,339.4 		"/>
		<polygon class="st5" points="82,355.9 78.6,357.9 78.6,351.9 82,349.9 		"/>
		<polygon class="st5" points="86.8,353.3 83.4,355.3 83.4,349.4 86.8,347.4 		"/>
	</g>
	<g>
		<polygon class="st5" points="130.8,336.4 127.4,338.4 127.4,332.5 130.8,330.5 		"/>
		<polygon class="st5" points="135.6,333.8 132.2,335.9 132.2,329.9 135.6,327.9 		"/>
		<polygon class="st5" points="130.8,344.4 127.4,346.4 127.4,340.4 130.8,338.4 		"/>
		<polygon class="st5" points="135.6,341.8 132.2,343.8 132.2,337.9 135.6,335.9 		"/>
		<polygon class="st5" points="130.8,352.3 127.4,354.4 127.4,348.4 130.8,346.4 		"/>
		<polygon class="st5" points="135.6,349.8 132.2,351.8 132.2,345.8 135.6,343.8 		"/>
	</g>
	<g>
		<polygon class="st5" points="130.8,312.2 127.4,314.2 127.4,308.2 130.8,306.2 		"/>
		<polygon class="st5" points="135.6,309.6 132.2,311.6 132.2,305.6 135.6,303.6 		"/>
		<polygon class="st5" points="130.8,304.2 127.4,306.2 127.4,300.2 130.8,298.2 		"/>
		<polygon class="st5" points="135.6,301.6 132.2,303.6 132.2,297.6 135.6,295.6 		"/>
		<polygon class="st5" points="130.8,320.1 127.4,322.1 127.4,316.2 130.8,314.2 		"/>
		<polygon class="st5" points="135.6,317.5 132.2,319.6 132.2,313.6 135.6,311.6 		"/>
		<polygon class="st5" points="130.8,328.1 127.4,330.1 127.4,324.1 130.8,322.1 		"/>
		<polygon class="st5" points="135.6,325.5 132.2,327.5 132.2,321.6 135.6,319.6 		"/>
	</g>
	<g>
		<g>
			<polygon class="st5" points="98.2,367.7 94.8,369.7 94.8,363.8 98.2,361.8 			"/>
			<polygon class="st5" points="98.2,375.7 94.8,377.7 94.8,371.7 98.2,369.7 			"/>
			<g>
				<polygon class="st5" points="98.1,360 94.7,362.1 94.7,356.1 98.1,354.1 				"/>
				<polygon class="st5" points="102.9,357.1 99.6,359.1 99.5,353.1 102.9,351.1 				"/>
				<polygon class="st5" points="107.8,354.2 104.4,356.2 104.4,350.2 107.8,348.3 				"/>
				<polygon class="st5" points="112.5,351.4 109.1,353.4 109.1,347.4 112.5,345.4 				"/>
				<polygon class="st5" points="117.2,348.5 113.9,350.5 113.8,344.5 117.2,342.5 				"/>
				<polygon class="st5" points="122,345.6 118.7,347.6 118.6,341.7 122,339.7 				"/>
			</g>
			<g>
				<polygon class="st5" points="98.1,352.1 94.7,354.1 94.7,348.1 98.1,346.1 				"/>
				<polygon class="st5" points="102.9,349.1 99.6,351.1 99.5,345.2 102.9,343.2 				"/>
				<polygon class="st5" points="107.8,346.2 104.4,348.3 104.4,342.3 107.8,340.3 				"/>
				<polygon class="st5" points="112.5,343.4 109.1,345.4 109.1,339.5 112.5,337.5 				"/>
				<polygon class="st5" points="117.2,340.5 113.9,342.5 113.8,336.6 117.2,334.6 				"/>
				<polygon class="st5" points="122,337.6 118.7,339.7 118.6,333.7 122,331.7 				"/>
			</g>
			<g>
				<polygon class="st5" points="98.1,344.1 94.7,346.1 94.7,340.2 98.1,338.2 				"/>
				<polygon class="st5" points="102.9,341.1 99.6,343.2 99.5,337.2 102.9,335.2 				"/>
				<polygon class="st5" points="107.8,338.3 104.4,340.3 104.4,334.3 107.8,332.3 				"/>
				<polygon class="st5" points="112.5,335.4 109.1,337.5 109.1,331.5 112.5,329.5 				"/>
				<polygon class="st5" points="117.2,332.6 113.9,334.6 113.8,328.6 117.2,326.6 				"/>
				<polygon class="st5" points="122,329.7 118.7,331.7 118.6,325.7 122,323.7 				"/>
			</g>
			<g>
				<polygon class="st5" points="98.1,336.1 94.7,338.2 94.7,332.2 98.1,330.2 				"/>
				<polygon class="st5" points="102.9,333.2 99.6,335.2 99.5,329.2 102.9,327.2 				"/>
				<polygon class="st5" points="107.8,330.3 104.4,332.3 104.4,326.4 107.8,324.4 				"/>
				<polygon class="st5" points="112.5,327.5 109.1,329.5 109.1,323.5 112.5,321.5 				"/>
				<polygon class="st5" points="117.2,324.6 113.9,326.6 113.8,320.7 117.2,318.7 				"/>
				<polygon class="st5" points="122,321.7 118.7,323.7 118.6,317.8 122,315.8 				"/>
			</g>
			<g>
				<polygon class="st5" points="98.1,328.2 94.7,330.2 94.7,324.3 98.1,322.3 				"/>
				<polygon class="st5" points="102.9,325.2 99.6,327.2 99.5,321.3 102.9,319.3 				"/>
				<polygon class="st5" points="107.8,322.3 104.4,324.4 104.4,318.4 107.8,316.4 				"/>
				<polygon class="st5" points="112.5,319.5 109.1,321.5 109.1,315.6 112.5,313.6 				"/>
				<polygon class="st5" points="117.2,316.6 113.9,318.7 113.8,312.7 117.2,310.7 				"/>
				<polygon class="st5" points="122,313.7 118.7,315.8 118.6,309.8 122,307.8 				"/>
			</g>
		</g>
		<polygon class="st5" points="122.1,353.6 118.7,355.6 118.7,349.6 122.1,347.6 		"/>
		<polygon class="st5" points="122.1,361.4 118.7,363.4 118.7,357.5 122.1,355.5 		"/>
	</g>
	<g class="st18">
		<g>
			<path class="st8" d="M94.3,320.5c-0.5,0-0.8-0.3-0.8-0.9c0-0.8,0.6-1.7,1.4-2.2c0.3-0.2,0.5-0.2,0.7-0.2c0.2,0,0.3,0.1,0.5,0.2
				l0.1,0.1l-0.7,0.9l-0.1-0.1c-0.1,0-0.1-0.1-0.2-0.1c-0.1,0-0.2,0-0.2,0.1c-0.3,0.2-0.5,0.6-0.5,0.9c0,0.1,0,0.3,0.2,0.3
				c0.1,0,0.1,0,0.2-0.1c0.2-0.1,0.4-0.3,0.5-0.6l0-0.1l0.8,0.1l-0.1,0.2c-0.3,0.6-0.6,1-1.1,1.2C94.8,320.4,94.5,320.5,94.3,320.5z
				"/>
			<path class="st19" d="M95.6,317.3c0.2,0,0.3,0,0.4,0.1l-0.5,0.7c-0.1,0-0.1-0.1-0.2-0.1c-0.1,0-0.2,0-0.3,0.1
				c-0.3,0.2-0.6,0.6-0.6,1v0c0,0.3,0.1,0.4,0.3,0.4c0.1,0,0.2,0,0.3-0.1c0.3-0.1,0.4-0.4,0.6-0.6L96,319c-0.2,0.5-0.6,0.9-1.1,1.2
				c-0.2,0.1-0.5,0.2-0.7,0.2c-0.4,0-0.6-0.3-0.6-0.8v0c0-0.7,0.6-1.6,1.3-2C95.2,317.4,95.5,317.3,95.6,317.3 M95.6,317.1
				c-0.2,0-0.5,0.1-0.8,0.3c-0.8,0.5-1.4,1.4-1.4,2.3c0,0.6,0.3,1,0.9,1c0.2,0,0.5-0.1,0.8-0.2c0.5-0.3,0.9-0.7,1.2-1.3l0.2-0.3
				l-0.3,0l-0.5-0.1l-0.2,0l-0.1,0.1c-0.1,0.2-0.3,0.4-0.5,0.5c-0.1,0.1-0.1,0.1-0.2,0.1c-0.1,0-0.1-0.1-0.1-0.2
				c0-0.3,0.2-0.6,0.5-0.8c0.1,0,0.1-0.1,0.2-0.1c0,0,0.1,0,0.1,0l0.2,0.1l0.1-0.2l0.5-0.7l0.1-0.2l-0.2-0.2
				C96,317.1,95.8,317.1,95.6,317.1L95.6,317.1z"/>
		</g>
		<g>
			<path class="st8" d="M96.8,319c-0.5,0-0.8-0.3-0.8-0.9c0-0.8,0.6-1.7,1.4-2.2c0.3-0.2,0.5-0.2,0.8-0.2c0.5,0,0.8,0.3,0.8,0.9
				c0,0.8-0.6,1.7-1.4,2.2C97.3,318.9,97.1,319,96.8,319z M97.8,316.7c-0.1,0-0.2,0-0.3,0.1c-0.4,0.2-0.6,0.6-0.6,0.9
				c0,0.1,0,0.3,0.2,0.3c0.1,0,0.2,0,0.3-0.1c0.4-0.2,0.6-0.6,0.6-0.9C98,316.9,98,316.7,97.8,316.7z"/>
			<path class="st19" d="M98.2,315.9c0.4,0,0.6,0.3,0.6,0.7v0c0,0.7-0.6,1.6-1.3,2.1c-0.3,0.2-0.5,0.2-0.7,0.2
				c-0.4,0-0.6-0.3-0.6-0.7v0c0-0.7,0.6-1.6,1.3-2.1C97.8,315.9,98,315.9,98.2,315.9 M97.2,318.1c0.1,0,0.2,0,0.3-0.1
				c0.4-0.2,0.6-0.7,0.6-1v0c0-0.2-0.1-0.4-0.3-0.4c-0.1,0-0.2,0-0.3,0.1c-0.4,0.2-0.6,0.7-0.6,1v0C96.9,318,97,318.1,97.2,318.1
				 M98.2,315.6L98.2,315.6c-0.3,0-0.5,0.1-0.8,0.3c-0.8,0.5-1.5,1.5-1.5,2.3c0,0.6,0.3,1,0.9,1c0.3,0,0.5-0.1,0.8-0.3
				c0.8-0.5,1.5-1.5,1.5-2.3C99.1,316,98.8,315.6,98.2,315.6L98.2,315.6z M97.2,317.9c0,0-0.1,0-0.1-0.2c0-0.3,0.2-0.6,0.5-0.8
				c0.1-0.1,0.2-0.1,0.2-0.1c0,0,0.1,0.1,0.1,0.2c0,0.3-0.2,0.6-0.5,0.8C97.3,317.9,97.2,317.9,97.2,317.9L97.2,317.9z"/>
		</g>
		<g>
			<path class="st8" d="M99.1,315.1l1.2-0.7c0.3-0.2,0.5-0.2,0.7-0.2c0.1,0,0.1,0,0.2,0c0.2,0.1,0.3,0.3,0.3,0.6
				c0,0.4-0.2,0.7-0.5,1.1l0.6,0.6l-1,0.6l-0.5-0.5l-0.2,0.1v0.8l-0.9,0.5V315.1z M100,315.7l0.3-0.2c0.2-0.1,0.3-0.3,0.3-0.4l0-0.1
				c0,0-0.1,0-0.2,0.1l-0.4,0.2V315.7z"/>
			<path class="st19" d="M101.1,314.2c0.1,0,0.1,0,0.2,0c0.1,0.1,0.2,0.2,0.2,0.5v0c0,0.4-0.2,0.8-0.5,1.1l0.6,0.5l-0.8,0.5
				l-0.5-0.5l-0.3,0.2v0.8l-0.7,0.4v-2.5l1.2-0.7C100.7,314.3,100.9,314.2,101.1,314.2 M99.9,315.9l0.5-0.3c0.2-0.1,0.4-0.3,0.4-0.5
				v0c0-0.1,0-0.2-0.1-0.2c-0.1,0-0.1,0-0.2,0.1l-0.5,0.3V315.9 M101.1,314L101.1,314c-0.2,0-0.5,0.1-0.8,0.3l-1.2,0.7L99,315v0.1
				v2.5v0.4l0.4-0.2l0.7-0.4l0.1-0.1v-0.1v-0.6l0,0l0.4,0.3l0.1,0.1l0.2-0.1l0.8-0.5l0.3-0.2l-0.3-0.2l-0.4-0.4
				c0.3-0.3,0.4-0.7,0.4-1c0-0.4-0.2-0.6-0.4-0.7C101.2,314,101.1,314,101.1,314L101.1,314z M100.2,315.5l0.2-0.1
				C100.3,315.4,100.3,315.4,100.2,315.5L100.2,315.5L100.2,315.5L100.2,315.5z"/>
		</g>
		<g>
			<path class="st8" d="M101.7,313.6l1.1-0.7c0.3-0.2,0.5-0.2,0.7-0.2c0.3,0,0.5,0.2,0.5,0.6c0,0.6-0.4,1.2-1.1,1.6l-0.3,0.2v0.7
				l-0.9,0.5V313.6z M102.6,314.3l0.1-0.1c0.2-0.1,0.3-0.3,0.3-0.4l0-0.1c0,0-0.1,0-0.2,0.1l-0.3,0.2V314.3z"/>
			<path class="st19" d="M103.5,312.8c0.3,0,0.4,0.2,0.4,0.5v0c0,0.6-0.5,1.2-1.1,1.5l-0.3,0.2v0.7l-0.7,0.4v-2.5l1.1-0.6
				C103.1,312.9,103.3,312.8,103.5,312.8 M102.5,314.5l0.3-0.2c0.2-0.1,0.4-0.4,0.4-0.6v0c0-0.1-0.1-0.2-0.1-0.2
				c-0.1,0-0.2,0-0.3,0.1l-0.3,0.2V314.5 M103.5,312.6L103.5,312.6c-0.2,0-0.5,0.1-0.8,0.2l-1.1,0.6l-0.1,0.1v0.1v2.5v0.4l0.4-0.2
				l0.7-0.4l0.1-0.1v-0.1v-0.6l0.2-0.1c0.7-0.4,1.2-1.1,1.2-1.7C104.1,312.8,103.8,312.6,103.5,312.6L103.5,312.6z M102.7,314
				l0.2-0.1C102.9,314,102.8,314,102.7,314L102.7,314L102.7,314z"/>
		</g>
		<g>
			<path class="st8" d="M104.7,314.5c-0.5,0-0.8-0.3-0.8-0.9c0-0.8,0.6-1.7,1.4-2.2c0.3-0.2,0.5-0.2,0.8-0.2c0.5,0,0.8,0.3,0.8,0.9
				c0,0.8-0.6,1.7-1.4,2.2C105.2,314.4,105,314.5,104.7,314.5z M105.7,312.2c-0.1,0-0.2,0-0.3,0.1c-0.4,0.2-0.6,0.6-0.6,0.9
				c0,0.1,0,0.3,0.2,0.3c0.1,0,0.2,0,0.3-0.1c0.4-0.2,0.6-0.6,0.6-0.9C105.9,312.3,105.9,312.2,105.7,312.2z"/>
			<path class="st19" d="M106.1,311.3c0.4,0,0.6,0.3,0.6,0.7v0c0,0.7-0.6,1.6-1.3,2.1c-0.3,0.2-0.5,0.2-0.7,0.2
				c-0.4,0-0.6-0.3-0.6-0.7v0c0-0.7,0.6-1.6,1.3-2.1C105.7,311.4,105.9,311.3,106.1,311.3 M105.1,313.6c0.1,0,0.2,0,0.3-0.1
				c0.4-0.2,0.6-0.7,0.6-1v0c0-0.2-0.1-0.4-0.3-0.4c-0.1,0-0.2,0-0.3,0.1c-0.4,0.2-0.6,0.7-0.6,1v0
				C104.8,313.4,104.9,313.6,105.1,313.6 M106.1,311L106.1,311c-0.3,0-0.5,0.1-0.8,0.3c-0.8,0.5-1.5,1.5-1.5,2.3c0,0.6,0.3,1,0.9,1
				c0.3,0,0.5-0.1,0.8-0.3c0.8-0.5,1.5-1.5,1.5-2.3C107,311.4,106.7,311,106.1,311L106.1,311z M105.1,313.3c0,0-0.1,0-0.1-0.2
				c0-0.3,0.2-0.6,0.5-0.8c0.1-0.1,0.2-0.1,0.2-0.1c0,0,0.1,0.1,0.1,0.2c0,0.3-0.2,0.6-0.5,0.8C105.2,313.3,105.1,313.3,105.1,313.3
				L105.1,313.3z"/>
		</g>
		<g>
			<path class="st8" d="M107,310.5l1.2-0.7c0.3-0.2,0.5-0.2,0.7-0.2c0.1,0,0.1,0,0.2,0c0.2,0.1,0.3,0.3,0.3,0.6
				c0,0.4-0.2,0.7-0.5,1.1l0.6,0.6l-1,0.6l-0.5-0.5l-0.2,0.1v0.8l-0.9,0.5V310.5z M107.9,311.2l0.3-0.2c0.2-0.1,0.3-0.3,0.3-0.4
				l0-0.1c0,0-0.1,0-0.2,0.1l-0.4,0.2V311.2z"/>
			<path class="st19" d="M109,309.7c0.1,0,0.1,0,0.2,0c0.1,0.1,0.2,0.2,0.2,0.5v0c0,0.4-0.2,0.8-0.5,1.1l0.6,0.5l-0.8,0.5l-0.5-0.5
				l-0.3,0.2v0.8l-0.7,0.4v-2.5l1.2-0.7C108.6,309.7,108.8,309.7,109,309.7 M107.8,311.4l0.5-0.3c0.2-0.1,0.4-0.3,0.4-0.5v0
				c0-0.1,0-0.2-0.1-0.2c-0.1,0-0.1,0-0.2,0.1l-0.5,0.3V311.4 M109,309.4L109,309.4c-0.2,0-0.5,0.1-0.8,0.3l-1.2,0.7l-0.1,0.1v0.1
				v2.5v0.4l0.4-0.2l0.7-0.4l0.1-0.1v-0.1v-0.6l0,0l0.4,0.3l0.1,0.1l0.2-0.1l0.8-0.5l0.3-0.2l-0.3-0.2l-0.4-0.4
				c0.3-0.3,0.4-0.7,0.4-1c0-0.4-0.2-0.6-0.4-0.7C109.1,309.4,109,309.4,109,309.4L109,309.4z M108.1,310.9l0.2-0.1
				C108.2,310.8,108.2,310.9,108.1,310.9L108.1,310.9L108.1,310.9L108.1,310.9z"/>
		</g>
		<g>
			<path class="st8" d="M110.4,308.6l0.7-0.5l0.1-0.1l1.2,2.1l-1,0.6l-0.2-0.3l-0.8,0.5l-0.1,0.5l-0.8,0.5l-0.3,0.2L110.4,308.6z
				 M110.8,309.8l0.2-0.1l-0.1-0.2L110.8,309.8z"/>
			<path class="st19" d="M111.2,308.2l1.1,1.9l-0.7,0.4l-0.2-0.3l-1,0.6l-0.2,0.5l-0.7,0.4l1.1-3.1L111.2,308.2 M110.5,310.1
				l0.6-0.3l-0.3-0.5L110.5,310.1 M111.3,307.9L111,308l-0.7,0.4l-0.1,0l0,0.1l-1.1,3.1l-0.2,0.6l0.6-0.3l0.7-0.4l0.1,0l0-0.1
				l0.1-0.5l0.7-0.4l0.1,0.1l0.1,0.2l0.2-0.1l0.7-0.4l0.2-0.1l-0.1-0.2l-1.1-1.9L111.3,307.9L111.3,307.9z"/>
		</g>
		<g>
			<polygon class="st8" points="112.6,308.2 111.9,308.6 111.9,307.7 114.3,306.3 114.3,307.2 113.6,307.6 113.6,309.5 112.6,310 
							"/>
			<path class="st19" d="M114.2,306.5v0.6l-0.7,0.4v1.9l-0.7,0.4v-1.9l-0.7,0.4v-0.6L114.2,306.5 M114.4,306.1l-0.4,0.2l-2.2,1.3
				l-0.1,0.1v0.1v0.6v0.4l0.4-0.2l0.4-0.2v1.4v0.4l0.4-0.2l0.7-0.4l0.1-0.1v-0.1v-1.7l0.6-0.4l0.1-0.1v-0.1v-0.6V306.1L114.4,306.1z
				"/>
		</g>
		<g>
			<polygon class="st8" points="114.4,306.3 116.6,305 116.6,305.8 115.3,306.6 115.3,306.7 116.5,306 116.5,306.8 115.3,307.5 
				115.3,307.6 116.6,306.9 116.6,307.7 114.4,309 			"/>
			<path class="st19" d="M116.5,305.2v0.6l-1.3,0.8v0.4l1.2-0.7v0.5l-1.2,0.7v0.4l1.3-0.8v0.6l-2,1.2v-2.5L116.5,305.2 M116.7,304.8
				l-0.4,0.2l-2,1.2l-0.1,0.1v0.1v2.5v0.4l0.4-0.2l2-1.2l0.1-0.1v-0.1v-0.6v-0.4l-0.1,0.1v-0.5V306l0.1-0.1v-0.1v-0.6V304.8
				L116.7,304.8z"/>
		</g>
		<g>
			<path class="st8" d="M117.9,306.8c-0.1,0-0.2,0-0.3,0l-0.1,0l0.5-0.9l0.1,0c0.1,0,0.1,0,0.2,0c0.2,0,0.4-0.1,0.6-0.2
				c0.2-0.1,0.2-0.2,0.2-0.2c0,0-0.2,0.1-0.3,0.1c-0.2,0.1-0.5,0.2-0.6,0.2c-0.1,0-0.3,0-0.3-0.1c-0.1-0.1-0.1-0.2-0.1-0.4
				c0-0.5,0.4-1.1,1-1.5c0.3-0.2,0.6-0.3,0.9-0.3c0.1,0,0.1,0,0.2,0l0.2,0l-0.5,0.9l-0.1,0c0,0-0.1,0-0.1,0c-0.2,0-0.3,0.1-0.5,0.1
				c-0.1,0.1-0.2,0.2-0.2,0.2c0,0,0.2-0.1,0.3-0.1c0.3-0.1,0.5-0.1,0.6-0.1c0.3,0,0.5,0.2,0.5,0.5c0,0.6-0.4,1.1-1.1,1.5
				C118.5,306.7,118.2,306.8,117.9,306.8z"/>
			<path class="st19" d="M119.6,303.6c0.1,0,0.1,0,0.2,0l-0.3,0.7c0,0-0.1,0-0.1,0c-0.2,0-0.4,0.1-0.6,0.2c-0.2,0.1-0.2,0.2-0.2,0.3
				v0c0,0.1,0,0.1,0.1,0.1c0.1,0,0.2,0,0.4-0.1c0.2-0.1,0.4-0.1,0.6-0.1c0.2,0,0.3,0.1,0.3,0.4v0c0,0.5-0.4,1-1,1.4
				c-0.3,0.2-0.6,0.3-0.9,0.3c-0.1,0-0.2,0-0.2,0l0.4-0.7c0.1,0,0.1,0,0.2,0c0.2,0,0.4-0.1,0.6-0.2c0.2-0.1,0.3-0.2,0.3-0.3v0
				c0-0.1,0-0.1-0.1-0.1c-0.1,0-0.2,0-0.3,0.1c-0.2,0.1-0.4,0.1-0.6,0.1c-0.2,0-0.3-0.1-0.3-0.4v0c0-0.5,0.4-1,1-1.4
				C119.1,303.7,119.3,303.6,119.6,303.6 M119.6,303.3c-0.3,0-0.6,0.1-1,0.3c-0.7,0.4-1.1,1-1.1,1.6c0,0.3,0.1,0.5,0.3,0.6l0,0
				l-0.4,0.7l-0.2,0.3l0.3,0.1c0.1,0,0.2,0,0.3,0c0.3,0,0.7-0.1,1-0.3c0.7-0.4,1.1-1,1.1-1.6c0-0.3-0.2-0.6-0.4-0.6l0.3-0.7l0.1-0.3
				l-0.3-0.1C119.7,303.3,119.7,303.3,119.6,303.3L119.6,303.3z"/>
		</g>
		<g>
			<polygon class="st8" points="120,304.8 120.9,304.3 120.9,305.3 120,305.8 			"/>
			<path class="st19" d="M120.8,304.5v0.7l-0.7,0.4v-0.7L120.8,304.5 M121,304.1l-0.4,0.2l-0.7,0.4l-0.1,0.1v0.1v0.7v0.4l0.4-0.2
				l0.7-0.4l0.1-0.1v-0.1v-0.7V304.1L121,304.1z"/>
		</g>
		<g>
			<polygon class="st8" points="121,302.4 122,301.9 122,303.7 123.2,303.1 123.2,303.9 121,305.2 			"/>
			<path class="st19" d="M121.9,302.1v1.9l1.2-0.7v0.6l-1.9,1.1v-2.5L121.9,302.1 M122.1,301.6l-0.4,0.2l-0.7,0.4l-0.1,0.1v0.1v2.5
				v0.4l0.4-0.2l1.9-1.1l0.1-0.1v-0.1v-0.6v-0.4l-0.4,0.2l-0.8,0.5v-1.4V301.6L122.1,301.6z"/>
		</g>
	</g>
	<path class="st6" d="M39.4,366.3c0.3-2.7,2.4-15.5,5.9-10.4C43.4,353,41,360.3,39.4,366.3z"/>
	<g>
		<g>
			<rect x="37.6" y="364.9" class="st2" width="0.8" height="3.4"/>
			<rect x="38.4" y="364.9" class="st13" width="0.8" height="3.4"/>
			<path class="st5" d="M45.6,357.9c0,3.9-3.1,7-7,7s-7-3.1-7-7c0-3.9,3.1-21.3,7-21.3S45.6,354,45.6,357.9z"/>
			<path class="st14" d="M38.4,362.1c-3.3,0-5.6-1-6.6-6c-0.1,0.6-0.2,1.1-0.2,1.7c0,3.9,3.1,7,7,7s7-3.1,7-7
				c0-2.8-1.7-10.6-1.8-11.2C44.9,357.6,41.7,362.1,38.4,362.1z"/>
		</g>
		<path class="st6" d="M31.9,355.7c1.4-7.7,4.3-23.8,8.7-17.4C36.9,334.6,33.9,348,31.9,355.7z"/>
	</g>
	<g>
		<path class="st2" d="M206.8,343.9L206.8,343.9c0.6,0.8,0.4,1.9-0.4,2.4l-5.2,3.7c-0.8,0.6-1.9,0.4-2.4-0.4l0,0
			c-0.6-0.8-0.4-1.9,0.4-2.4l5.2-3.7C205.2,342.9,206.3,343.1,206.8,343.9z"/>
		<path class="st21" d="M206.8,343.9L206.8,343.9c0.6,0.8,0.4,1.9-0.4,2.4l-5.2,3.7c-0.8,0.6-1.9,0.4-2.4-0.4l0,0
			c-0.6-0.8-0.4-1.9,0.4-2.4l5.2-3.7C205.2,342.9,206.3,343.1,206.8,343.9z"/>
	</g>
	<g>
		<path class="st2" d="M207.5,357.6l0.2,0.2c0.6,0.8,0.4,1.9-0.4,2.4l-5.8,4.2c-0.8,0.6-1.9,0.4-2.4-0.4l-0.2-0.2
			c-0.6-0.8-0.4-1.9,0.4-2.4l5.8-4.2C205.8,356.6,206.9,356.8,207.5,357.6z"/>
		<path class="st21" d="M207.5,357.6l0.2,0.2c0.6,0.8,0.4,1.9-0.4,2.4l-5.8,4.2c-0.8,0.6-1.9,0.4-2.4-0.4l-0.2-0.2
			c-0.6-0.8-0.4-1.9,0.4-2.4l5.8-4.2C205.8,356.6,206.9,356.8,207.5,357.6z"/>
	</g>
	<g>
		<path class="st2" d="M211.5,358.5l0.4,0.5c0.6,0.7,0.6,1.8-0.1,2.5l-5.6,5.1c-0.7,0.6-1.8,0.6-2.5-0.1l-0.4-0.5
			c-0.6-0.7-0.6-1.8,0.1-2.5l5.6-5.1C209.8,357.7,210.9,357.8,211.5,358.5z"/>
		<path class="st21" d="M211.5,358.5l0.4,0.5c0.6,0.7,0.6,1.8-0.1,2.5l-5.6,5.1c-0.7,0.6-1.8,0.6-2.5-0.1l-0.4-0.5
			c-0.6-0.7-0.6-1.8,0.1-2.5l5.6-5.1C209.8,357.7,210.9,357.8,211.5,358.5z"/>
	</g>
	<path class="st13" d="M206.6,375.1l-4.1,2.8c-0.4,0.2-0.8,0.3-1.2,0.3l-0.9-0.1c-0.3,0-0.6-0.3-0.6-0.6l0,0c0-1.6,0.8-3.1,2.2-3.9
		l2.5-1.6l2.1,0.7V375.1z"/>
	<path class="st13" d="M202.4,372.8l-4.1,2.8c-0.4,0.2-0.8,0.3-1.2,0.3l-0.9-0.1c-0.3,0-0.6-0.3-0.6-0.6l0,0c0-1.6,0.8-3.1,2.2-3.9
		l2.5-1.6l2.1,0.7V372.8z"/>
	<g>
		<path class="st2" d="M200,350.3L200,350.3c-1-0.1-1.7-0.9-1.6-1.8l0.4-6.4c0.1-1,0.9-1.7,1.8-1.6l0,0c1,0.1,1.7,0.9,1.6,1.8
			l-0.4,6.4C201.8,349.6,201,350.3,200,350.3z"/>
		<path class="st21" d="M200,350.3L200,350.3c-1-0.1-1.7-0.9-1.6-1.8l0.4-6.4c0.1-1,0.9-1.7,1.8-1.6l0,0c1,0.1,1.7,0.9,1.6,1.8
			l-0.4,6.4C201.8,349.6,201,350.3,200,350.3z"/>
	</g>
	<path class="st13" d="M212.6,361.7l-7.7-3.7c-0.2-0.1-0.4-0.3-0.4-0.6v-15l2.2-0.8c1.7-0.6,3.6-0.2,4.9,1.1l0.8,0.8
		c1.1,1.1,1.7,2.6,1.6,4.2l-0.4,13.4C213.6,361.6,213.1,361.9,212.6,361.7z"/>
	<g>
		<path class="st2" d="M210.4,345.9l1.4,4.6c0,0.1-0.1,0.3-0.2,0.2l-3.3-0.6c-0.9-0.2-1.8,0.4-1.9,1.3l0,0c-0.2,0.9,0.4,1.8,1.3,1.9
			l5.8,1.1c0.8,0.2,1.7-0.3,1.9-1.2l0,0c0.2-0.8,0.2-1.7,0-2.5l-1.8-5.9c-0.3-0.9-1.2-1.4-2.1-1.1h0
			C210.6,344.1,210.1,345,210.4,345.9z"/>
		<path class="st21" d="M210.4,345.9l1.4,4.6c0,0.1-0.1,0.3-0.2,0.2l-3.3-0.6c-0.9-0.2-1.8,0.4-1.9,1.3l0,0
			c-0.2,0.9,0.4,1.8,1.3,1.9l5.8,1.1c0.8,0.2,1.7-0.3,1.9-1.2l0,0c0.2-0.8,0.2-1.7,0-2.5l-1.8-5.9c-0.3-0.9-1.2-1.4-2.1-1.1h0
			C210.6,344.1,210.1,345,210.4,345.9z"/>
	</g>
	<g>
		<path class="st5" d="M202.3,339c0.7,0.4,1,1.3,0.6,2.1l-0.5,0.9c0.1,0.1,0.2,0.2,0.3,0.4c0.1,0.4-0.1,0.8-0.5,0.9
			c-0.4,0.1-1.4,0.4-2.2-0.1c-0.8-0.5-1-1.3-0.6-2.1l0.8-1.4C200.6,338.9,201.6,338.6,202.3,339z"/>
		<path class="st10" d="M202.3,339c0.7,0.4,1,1.3,0.6,2.1l-0.5,0.9c0.1,0.1,0.2,0.2,0.3,0.4c0.1,0.4-0.1,0.8-0.5,0.9
			c-0.4,0.1-1.4,0.4-2.2-0.1c-0.8-0.5-1-1.3-0.6-2.1l0.8-1.4C200.6,338.9,201.6,338.6,202.3,339z"/>
	</g>
	<g>
		<path class="st5" d="M203.9,350.8c0-0.9,0.8-1.5,1.6-1.5l1.1,0.1c0-0.1,0.1-0.3,0.2-0.4c0.3-0.3,0.7-0.3,1,0s0.9,1.1,0.8,2
			s-0.8,1.5-1.6,1.5l-1.6-0.1C204.5,352.4,203.8,351.6,203.9,350.8z"/>
		<path class="st10" d="M203.9,350.8c0-0.9,0.8-1.5,1.6-1.5l1.1,0.1c0-0.1,0.1-0.3,0.2-0.4c0.3-0.3,0.7-0.3,1,0s0.9,1.1,0.8,2
			s-0.8,1.5-1.6,1.5l-1.6-0.1C204.5,352.4,203.8,351.6,203.9,350.8z"/>
	</g>
	<g>
		<path class="st13" d="M203.3,338.5l-0.1,0.3c0,0,0,0.1-0.1,0.1l-1.4,0.4c-0.1,0-0.1,0.1-0.1,0.1l-0.6,2.8c0,0.1,0.3,0.3,0.4,0.3
			l1.6-0.8c0.1,0,0.1-0.1,0.1-0.1l0.6-2.7l0.1-0.2l0.4-0.2c0-0.1-0.3-0.2-0.4-0.2l-0.3,0.1C203.4,338.4,203.3,338.4,203.3,338.5z"/>
		<path class="st2" d="M203.6,338.7l-0.1,0.3c0,0,0,0.1-0.1,0.1l-1.4,0.4c-0.1,0-0.1,0.1-0.1,0.1l-0.6,2.8c0,0.1,0,0.1,0.1,0.1
			l1.9-0.6c0.1,0,0.1-0.1,0.1-0.1l0.6-2.7l0.1-0.2l0.1-0.4c0-0.1,0-0.1-0.1-0.1l-0.3,0.1C203.7,338.6,203.7,338.6,203.6,338.7z"/>
		<polygon class="st13" points="203.6,340.1 201.9,340.6 202.1,339.7 203.8,339.1 		"/>
		<g>
			<polygon class="st13" points="202.3,341 201.8,341.2 201.9,340.8 202.4,340.6 			"/>
			<polygon class="st13" points="202.9,340.8 202.4,341 202.5,340.6 203,340.4 			"/>
			<polygon class="st13" points="203.5,340.7 203,340.8 203.1,340.4 203.6,340.2 			"/>
			<polygon class="st13" points="202.1,341.5 201.7,341.7 201.8,341.3 202.2,341.1 			"/>
			<polygon class="st13" points="202.8,341.3 202.3,341.5 202.4,341.1 202.9,340.9 			"/>
			<polygon class="st13" points="203.4,341.2 202.9,341.3 203,340.9 203.5,340.7 			"/>
			<polygon class="st13" points="202,342 201.6,342.2 201.7,341.8 202.1,341.6 			"/>
			<polygon class="st13" points="202.7,341.8 202.2,342 202.3,341.6 202.7,341.4 			"/>
			<polygon class="st13" points="203.3,341.7 202.8,341.8 202.9,341.4 203.4,341.2 			"/>
		</g>
	</g>
	<g>
		<g>
			<path class="st5" d="M206.9,343.3l-0.3,0c-1.2,0.2-2.2-0.6-2.4-1.8l-0.3-2.3c-0.2-1.2,0.6-2.2,1.8-2.4l0.3,0
				c1.2-0.2,2.2,0.6,2.4,1.8l0.3,2.3C208.9,342.1,208.1,343.2,206.9,343.3z"/>
			<path class="st10" d="M206.9,343.3l-0.3,0c-1.2,0.2-2.2-0.6-2.4-1.8l-0.3-2.3c-0.2-1.2,0.6-2.2,1.8-2.4l0.3,0
				c1.2-0.2,2.2,0.6,2.4,1.8l0.3,2.3C208.9,342.1,208.1,343.2,206.9,343.3z"/>
		</g>
		<g>
			<path class="st2" d="M203.9,336.7c-0.6,0.7-0.2,1,0.3,1.3l2,0.6c1.2,0.7,1.3,3,1.3,3c0.5,0.2,1.2,0,1.4-0.6c0,0,0.4-4.3-0.2-4.6
				C208.8,336.5,206,334.2,203.9,336.7z"/>
			<path class="st13" d="M203.9,336.7c-0.6,0.7-0.2,1,0.3,1.3l2,0.6c1.2,0.7,1.3,3,1.3,3c0.5,0.2,1.2,0,1.4-0.6c0,0,0.4-4.3-0.2-4.6
				C208.8,336.5,206,334.2,203.9,336.7z"/>
		</g>
	</g>
	<g>
		<path class="st2" d="M200.7,371.9l-0.3,0c-1,0-1.8-0.7-1.8-1.7l-0.2-7.2c0-1,0.7-1.8,1.7-1.8l0.3,0c1,0,1.8,0.7,1.8,1.7l0.2,7.2
			C202.4,371.1,201.7,371.9,200.7,371.9z"/>
		<path class="st21" d="M200.7,371.9l-0.3,0c-1,0-1.8-0.7-1.8-1.7l-0.2-7.2c0-1,0.7-1.8,1.7-1.8l0.3,0c1,0,1.8,0.7,1.8,1.7l0.2,7.2
			C202.4,371.1,201.7,371.9,200.7,371.9z"/>
	</g>
	<g>
		<path class="st2" d="M205,374l-0.3,0c-1,0-1.8-0.7-1.8-1.7l-0.2-7.2c0-1,0.7-1.8,1.7-1.8l0.3,0c1,0,1.8,0.7,1.8,1.7l0.2,7.2
			C206.7,373.1,206,373.9,205,374z"/>
		<path class="st21" d="M205,374l-0.3,0c-1,0-1.8-0.7-1.8-1.7l-0.2-7.2c0-1,0.7-1.8,1.7-1.8l0.3,0c1,0,1.8,0.7,1.8,1.7l0.2,7.2
			C206.7,373.1,206,373.9,205,374z"/>
	</g>
	<g>
		<path class="st2" d="M224.5,368.7l0.2,0.2c0.6,0.8,0.4,1.9-0.4,2.4l-5.8,4.2c-0.8,0.6-1.9,0.4-2.4-0.4l-0.2-0.2
			c-0.6-0.8-0.4-1.9,0.4-2.4l5.8-4.2C222.9,367.7,224,367.9,224.5,368.7z"/>
		<path class="st21" d="M224.5,368.7l0.2,0.2c0.6,0.8,0.4,1.9-0.4,2.4l-5.8,4.2c-0.8,0.6-1.9,0.4-2.4-0.4l-0.2-0.2
			c-0.6-0.8-0.4-1.9,0.4-2.4l5.8-4.2C222.9,367.7,224,367.9,224.5,368.7z"/>
	</g>
	<g>
		<path class="st2" d="M228.6,369.6l0.4,0.5c0.6,0.7,0.6,1.8-0.1,2.5l-5.6,5.1c-0.7,0.6-1.8,0.6-2.5-0.1l-0.4-0.5
			c-0.6-0.7-0.6-1.8,0.1-2.5l5.6-5.1C226.8,368.9,227.9,368.9,228.6,369.6z"/>
		<path class="st21" d="M228.6,369.6l0.4,0.5c0.6,0.7,0.6,1.8-0.1,2.5l-5.6,5.1c-0.7,0.6-1.8,0.6-2.5-0.1l-0.4-0.5
			c-0.6-0.7-0.6-1.8,0.1-2.5l5.6-5.1C226.8,368.9,227.9,368.9,228.6,369.6z"/>
	</g>
	<g>
		<path class="st2" d="M223.6,355L223.6,355c0.6,0.8,0.4,1.9-0.4,2.4l-5.2,3.7c-0.8,0.6-1.9,0.4-2.4-0.4h0c-0.6-0.8-0.4-1.9,0.4-2.4
			l5.2-3.7C222,354,223.1,354.2,223.6,355z"/>
		<path class="st3" d="M223.6,355L223.6,355c0.6,0.8,0.4,1.9-0.4,2.4l-5.2,3.7c-0.8,0.6-1.9,0.4-2.4-0.4h0c-0.6-0.8-0.4-1.9,0.4-2.4
			l5.2-3.7C222,354,223.1,354.2,223.6,355z"/>
	</g>
	<path class="st13" d="M229.6,372.8l-7.7-3.7c-0.2-0.1-0.4-0.3-0.4-0.6v-15l2.2-0.8c1.7-0.6,3.6-0.2,4.9,1.1l0.8,0.8
		c1.1,1.1,1.7,2.6,1.6,4.2l-0.4,13.4C230.6,372.7,230.1,373,229.6,372.8z"/>
	<path class="st5" d="M223.9,354.5l-0.3,0c-1.2,0.2-2.2-0.6-2.4-1.8l-0.3-2.3c-0.2-1.2,0.6-2.2,1.8-2.4l0.3,0
		c1.2-0.2,2.2,0.6,2.4,1.8l0.3,2.3C225.9,353.2,225.1,354.3,223.9,354.5z"/>
	<path class="st8" d="M225.4,351.5c0.3-0.1,0.2,1.2,0.3,0.9c0,0,0.6-0.4,0.6-0.7c0-0.2-0.3-0.5-0.3-0.8c0-0.2,0.3-0.6,0.3-0.8
		c0-0.2-0.3-0.4-0.3-0.6c0-0.2,0.2-0.3,0.2-0.5c0-0.3-0.5-0.6-0.5-0.8c0-0.3-0.2-0.7-0.3-0.7c0,0-0.4,0-0.7-0.2
		c-0.2-0.1-0.2-0.3-0.5-0.4c-0.2-0.1-0.8,0.2-1,0.1c-0.3-0.1-0.4-0.3-0.7-0.2c-0.3,0-0.4,0.3-0.7,0.5c-0.2,0.1-0.6,0-0.8,0.1
		c-0.2,0.1-0.3,0.9-0.3,0.9c-0.6,0.2-0.5,0.9,0.1,1.1l2.3,0.5c0.7,0.4,1.3,0.9,0.8,2.9c0,0.1,0,0.2,0,0.2c0.1,2.4-2.9,2.1-2.9-0.4
		c0-0.5-0.2,0.3-0.2,0.3c-0.2,0.1-0.4,0.5-0.3,0.8c0,0-0.1,0.2,0.1,0.5c0.1,0.1-0.1,0.3,0.1,0.5c0.1,0.1,0.1,0.5,0.2,0.7
		c0.1,0.2,0.2,0.1,0.4,0.2c0.1,0.1,0,0.3,0.1,0.4c0.1,0.2,0.7,0.1,0.8,0.2c0.2,0.2,0.5,0.4,0.6,0.3c0,0,0.2-0.2,0.6-0.3
		c0.2,0,0.3,0.1,0.6,0c0.1-0.1,0.4-0.5,0.6-0.6c0.2-0.1,0.4-0.1,0.6-0.2c0.2-0.2,0.1-0.4,0.2-0.7c0.1-0.2,0.4-0.3,0.4-0.5
		c0-0.2-0.3-0.7-0.3-0.7c0.3-0.4-0.9,0-0.7-1.1l0,0C225.1,351.9,225.3,351.5,225.4,351.5z"/>
	<path class="st8" d="M223.1,385.6l-3.9,2.6c-0.3,0.2-0.7,0-0.7-0.4v-0.4c0-1.9,1-3.6,2.6-4.6l1.1-0.6c0.6-0.4,1.4,0.1,1.4,0.8v1.9
		C223.5,385.2,223.4,385.5,223.1,385.6z"/>
	<path class="st8" d="M218.5,384.2l-3.9,2.6c-0.3,0.2-0.7,0-0.7-0.4V386c0-1.9,1-3.6,2.6-4.6l1.1-0.6c0.6-0.4,1.4,0.1,1.4,0.8v1.9
		C218.9,383.8,218.8,384.1,218.5,384.2z"/>
	<g>
		<path class="st2" d="M222.1,385.1l-0.3,0c-1,0-1.8-0.7-1.8-1.7l-0.2-7.2c0-1,0.7-1.8,1.7-1.8l0.3,0c1,0,1.8,0.7,1.8,1.7l0.2,7.2
			C223.8,384.3,223,385.1,222.1,385.1z"/>
		<path class="st21" d="M222.1,385.1l-0.3,0c-1,0-1.8-0.7-1.8-1.7l-0.2-7.2c0-1,0.7-1.8,1.7-1.8l0.3,0c1,0,1.8,0.7,1.8,1.7l0.2,7.2
			C223.8,384.3,223,385.1,222.1,385.1z"/>
	</g>
	<g>
		<path class="st2" d="M217.8,383l-0.3,0c-1,0-1.8-0.7-1.8-1.7l-0.2-7.2c0-1,0.7-1.8,1.7-1.8l0.3,0c1,0,1.8,0.7,1.8,1.7l0.2,7.2
			C219.5,382.2,218.7,383,217.8,383z"/>
		<path class="st21" d="M217.8,383l-0.3,0c-1,0-1.8-0.7-1.8-1.7l-0.2-7.2c0-1,0.7-1.8,1.7-1.8l0.3,0c1,0,1.8,0.7,1.8,1.7l0.2,7.2
			C219.5,382.2,218.7,383,217.8,383z"/>
	</g>
	<polygon class="st2" points="220,356.1 227.8,360.5 227.8,373.3 220,368.9 	"/>
	<path class="st5" d="M220.6,362c0.2-0.8,1-1.3,1.9-1.1l1,0.3c0.1-0.1,0.1-0.3,0.3-0.4c0.3-0.2,0.8-0.1,1,0.2
		c0.2,0.3,0.7,1.2,0.4,2.1c-0.3,0.9-1,1.3-1.9,1.1l-1.6-0.4C220.9,363.7,220.4,362.8,220.6,362z"/>
	<g>
		<path class="st2" d="M227.3,357.3l1.4,4.6c0,0.1-0.1,0.3-0.2,0.2l-3.3-0.6c-0.9-0.2-1.8,0.4-1.9,1.3l0,0c-0.2,0.9,0.4,1.8,1.3,1.9
			l5.8,1.1c0.8,0.2,1.7-0.3,1.9-1.2l0,0c0.2-0.8,0.2-1.7,0-2.5l-1.8-5.9c-0.3-0.9-1.2-1.4-2.1-1.1l0,0
			C227.5,355.5,227,356.4,227.3,357.3z"/>
		<path class="st3" d="M227.3,357.3l1.4,4.6c0,0.1-0.1,0.3-0.2,0.2l-3.3-0.6c-0.9-0.2-1.8,0.4-1.9,1.3l0,0c-0.2,0.9,0.4,1.8,1.3,1.9
			l5.8,1.1c0.8,0.2,1.7-0.3,1.9-1.2l0,0c0.2-0.8,0.2-1.7,0-2.5l-1.8-5.9c-0.3-0.9-1.2-1.4-2.1-1.1l0,0
			C227.5,355.5,227,356.4,227.3,357.3z"/>
	</g>
	<g>
		<path class="st2" d="M220.6,367.1L220.6,367.1c-0.9,0.4-1.9,0.1-2.3-0.8l-2.8-5.8c-0.4-0.9-0.1-1.9,0.8-2.3l0,0
			c0.9-0.4,1.9-0.1,2.3,0.8l2.8,5.8C221.9,365.7,221.5,366.7,220.6,367.1z"/>
		<path class="st3" d="M220.6,367.1L220.6,367.1c-0.9,0.4-1.9,0.1-2.3-0.8l-2.8-5.8c-0.4-0.9-0.1-1.9,0.8-2.3l0,0
			c0.9-0.4,1.9-0.1,2.3,0.8l2.8,5.8C221.9,365.7,221.5,366.7,220.6,367.1z"/>
	</g>
	<path class="st5" d="M223.8,367.9c0.5-0.7,0.2-1.6-0.5-2.1l-0.9-0.6c0.1-0.1,0.1-0.3,0.1-0.4c-0.1-0.4-0.5-0.6-0.8-0.5
		c-0.4,0.1-1.4,0.3-1.8,1.1c-0.4,0.8-0.2,1.6,0.5,2.1l1.4,0.9C222.4,368.8,223.4,368.6,223.8,367.9z"/>
	<g>
		<path class="st13" d="M146.9,399l0.5-7.3h3.4l-0.6,9c0,0.3-0.2,0.7-0.4,0.9l-5.7,7.3l-3.3-1l5.7-8
			C146.8,399.7,146.9,399.4,146.9,399z"/>
		<g>
			<path class="st2" d="M149.6,378.5L149.6,378.5c-0.8,0.5-1.1,1.5-0.6,2.3l3.1,5.4c0.5,0.8,1.5,1.1,2.3,0.6l0,0
				c0.8-0.5,1.1-1.5,0.6-2.3l-3.1-5.4C151.4,378.3,150.4,378.1,149.6,378.5z"/>
			<path class="st21" d="M149.6,378.5L149.6,378.5c-0.8,0.5-1.1,1.5-0.6,2.3l3.1,5.4c0.5,0.8,1.5,1.1,2.3,0.6l0,0
				c0.8-0.5,1.1-1.5,0.6-2.3l-3.1-5.4C151.4,378.3,150.4,378.1,149.6,378.5z"/>
		</g>
		<g>
			<path class="st2" d="M152.8,384.6L152.8,384.6c-0.6,0.7-0.6,1.7,0.1,2.4l4.5,4.3c0.7,0.6,1.7,0.6,2.4-0.1l0,0
				c0.6-0.7,0.6-1.7-0.1-2.4l-4.5-4.3C154.5,383.9,153.4,383.9,152.8,384.6z"/>
			<path class="st21" d="M152.8,384.6L152.8,384.6c-0.6,0.7-0.6,1.7,0.1,2.4l4.5,4.3c0.7,0.6,1.7,0.6,2.4-0.1l0,0
				c0.6-0.7,0.6-1.7-0.1-2.4l-4.5-4.3C154.5,383.9,153.4,383.9,152.8,384.6z"/>
		</g>
		<path class="st17" d="M146.9,399l0.5-7.3h3.4l-0.6,9c0,0.3-0.2,0.7-0.4,0.9l-5.7,7.3l-3.3-1l5.7-8
			C146.8,399.7,146.9,399.4,146.9,399z"/>
		<path class="st13" d="M143.4,391.7h4.1v3l4.1,5.7l3.3,8.3l-2.5,2.2l-4.5-9.3l-3.4-4.6c-0.7-0.9-1.1-2-1.1-3.1L143.4,391.7z"/>
		<path class="st2" d="M143.9,395.5l7.5-3.6c0.2-0.1,0.3-0.3,0.3-0.6l-0.3-6.1l0.9-1.7c0.7-1.3,0.1-3.5-0.6-4.7l-1.5-1.3l-0.6-1.4
			c-1.7-0.6-1.7-0.6-2.7,1.2l-3.1,1.8c-1,1.1,0.7,6.8,0.8,8.3l-2,3.5l0.4,4.1C142.9,395.4,143.4,395.7,143.9,395.5z"/>
		<path class="st8" d="M151.5,371c0-0.2-0.1-0.4-0.3-0.6c0-0.4-0.4-0.8-0.9-0.8c0,0,0,0-0.1,0c-0.1-0.3-0.3-0.5-0.9-0.5
			c-1.1,0-1.4,0-1.4,0c-0.4,0-0.7,0.3-0.8,0.6c0,0,0,0,0,0c-0.1,0-0.1,0-0.1,0c-0.5,0-0.9,0.4-0.9,0.8c-0.2,0.1-0.3,0.3-0.3,0.6
			c-0.3,0.1-0.7,0.2-0.7,0.7c0,0.8,0,0.8,0,0.8c0,0.4,0.3,0.7,0.7,0.8v0.4c0,0.5,0.4,0.9,0.9,0.9h0.9c0.1,0.3,0.5,0.5,0.8,0.5
			l0.4-0.6c0,0.1,0.1,0.1,0.2,0.1l0.2,0.4c0.4,0,0.7-0.2,0.8-0.5h0.9c0.5,0,0.9-0.4,0.9-0.9v-0.4c0.4-0.1,0.7-0.4,0.7-0.8
			c0,0,0,0,0-0.8C152.2,371.2,151.8,371,151.5,371z"/>
		<path class="st8" d="M153.4,412.6l5.4-2.1c0.3-0.1,0.4-0.4,0.3-0.7l0,0c-0.5-1.3-1.9-1.9-3.2-1.4l-4,1.5l0.9,2.4
			C152.9,412.6,153.1,412.7,153.4,412.6z"/>
		<path class="st8" d="M140.8,411.1l5.5,1.7c0.3,0.1,0.6-0.1,0.7-0.4l0,0c0.4-1.3-0.3-2.7-1.6-3l-4.1-1.2l-0.7,2.4
			C140.5,410.7,140.6,411,140.8,411.1z"/>
		<path class="st13" d="M148.6,377.3L148.6,377.3c1,0,1.9-0.8,1.9-1.9v-1.6c0-1-0.8-1.9-1.9-1.9l0,0c-1,0-1.9,0.8-1.9,1.9v1.6
			C146.7,376.4,147.5,377.3,148.6,377.3z"/>
		<polygon class="st13" points="146.6,378.7 150.1,381.9 150.5,378.8 149.9,376.7 147.1,376.7 		"/>
		<g>
			<path class="st13" d="M161.5,390.6c0.1-0.7-0.4-1.4-1.2-1.4l-1-0.1c0-0.1,0-0.3-0.1-0.4c-0.2-0.3-0.6-0.3-0.9-0.1
				c-0.3,0.2-1.1,0.8-1.2,1.6s0.4,1.4,1.2,1.4l1.5,0.1C160.6,391.8,161.4,391.3,161.5,390.6z"/>
			<path class="st14" d="M161.5,390.6c0.1-0.7-0.4-1.4-1.2-1.4l-1-0.1c0-0.1,0-0.3-0.1-0.4c-0.2-0.3-0.6-0.3-0.9-0.1
				c-0.3,0.2-1.1,0.8-1.2,1.6s0.4,1.4,1.2,1.4l1.5,0.1C160.6,391.8,161.4,391.3,161.5,390.6z"/>
		</g>
		<g>
			<path class="st13" d="M141.1,394.7c0.7,0.3,1.4,0,1.7-0.7l0.4-0.9c0.1,0,0.3,0.1,0.4,0c0.3-0.1,0.5-0.5,0.3-0.8s-0.5-1.3-1.2-1.6
				c-0.7-0.3-1.4,0-1.7,0.7l-0.5,1.4C140.1,393.5,140.4,394.4,141.1,394.7z"/>
			<path class="st14" d="M141.1,394.7c0.7,0.3,1.4,0,1.7-0.7l0.4-0.9c0.1,0,0.3,0.1,0.4,0c0.3-0.1,0.5-0.5,0.3-0.8s-0.5-1.3-1.2-1.6
				c-0.7-0.3-1.4,0-1.7,0.7l-0.5,1.4C140.1,393.5,140.4,394.4,141.1,394.7z"/>
		</g>
		<g>
			<g>
				<path class="st2" d="M145.2,379.5L145.2,379.5c-0.7-0.6-1.8-0.6-2.4,0.1l-4.2,4.6c-0.6,0.7-0.6,1.8,0.1,2.4l0,0
					c0.7,0.6,1.8,0.6,2.4-0.1l4.2-4.6C145.9,381.2,145.9,380.1,145.2,379.5z"/>
				<path class="st21" d="M145.2,379.5L145.2,379.5c-0.7-0.6-1.8-0.6-2.4,0.1l-4.2,4.6c-0.6,0.7-0.6,1.8,0.1,2.4l0,0
					c0.7,0.6,1.8,0.6,2.4-0.1l4.2-4.6C145.9,381.2,145.9,380.1,145.2,379.5z"/>
			</g>
			<g>
				<path class="st2" d="M139.4,383.9L139.4,383.9c-0.9,0.2-1.4,1.2-1.2,2.1l1.6,6c0.2,0.9,1.2,1.4,2.1,1.2l0,0
					c0.9-0.2,1.4-1.2,1.2-2.1l-1.6-6C141.2,384.2,140.3,383.7,139.4,383.9z"/>
				<path class="st21" d="M139.4,383.9L139.4,383.9c-0.9,0.2-1.4,1.2-1.2,2.1l1.6,6c0.2,0.9,1.2,1.4,2.1,1.2l0,0
					c0.9-0.2,1.4-1.2,1.2-2.1l-1.6-6C141.2,384.2,140.3,383.7,139.4,383.9z"/>
			</g>
		</g>
		<path class="st8" d="M148.9,370.8h-0.4c-0.2,0-0.3,0.1-0.4,0.2h-0.3c-0.3,0-0.5,0.2-0.5,0.5h-0.1c-0.3,0-0.5,0.2-0.5,0.5v0.2h-0.3
			c-0.3,0-0.5,0.2-0.5,0.5v0.4c0,0.2,0.2,0.4,0.4,0.5c-0.1,0.1-0.1,0.2-0.1,0.3v0.4c0,0.3,0.2,0.5,0.5,0.5h0.4
			c0.3,0,0.5-0.2,0.5-0.5v-0.4c0-0.2-0.2-0.4-0.4-0.5c0.1-0.1,0.1-0.2,0.1-0.3v-0.2h0.3c0.3,0,0.5-0.2,0.5-0.5h0.1
			c0.2,0,0.3-0.1,0.4-0.2h0.3c0.3,0,0.5-0.2,0.5-0.5v-0.4C149.4,371.1,149.2,370.8,148.9,370.8z"/>
	</g>
	<path class="st8" d="M158.2,328.8l-0.3-0.1c-0.2-0.1-0.3-0.2-0.3-0.4l-0.3-0.1c-0.2-0.1-0.3-0.3-0.3-0.6l-0.1,0
		c-0.2-0.1-0.4-0.4-0.3-0.6l0.1-0.2l-0.3-0.1c-0.2-0.1-0.4-0.4-0.3-0.6l0.1-0.3c0.1-0.2,0.3-0.3,0.5-0.3c0-0.1,0-0.2,0-0.3l0.1-0.3
		c0.1-0.2,0.4-0.4,0.6-0.3l0.3,0.1c0.2,0.1,0.4,0.4,0.3,0.6l-0.1,0.3c-0.1,0.2-0.3,0.3-0.5,0.3c0,0.1,0,0.2,0,0.3l-0.1,0.2l0.3,0.1
		c0.2,0.1,0.3,0.3,0.3,0.6l0.1,0c0.2,0.1,0.3,0.2,0.3,0.4l0.3,0.1c0.2,0.1,0.4,0.4,0.3,0.6l-0.1,0.3
		C158.7,328.8,158.4,328.9,158.2,328.8z"/>
	<path class="st8" d="M155.8,326.8l0.1-0.3c0.1-0.2,0.3-0.3,0.5-0.3c0-0.1,0-0.2,0-0.3l0.1-0.1l-0.2-0.1c-0.2-0.1-0.4-0.4-0.3-0.6
		l0.1-0.3c0.1-0.2,0.3-0.3,0.5-0.3c0-0.1,0-0.2,0-0.3l0.1-0.3c0.1-0.2,0.4-0.4,0.6-0.3l0.3,0.1c0.2,0.1,0.4,0.4,0.3,0.6l-0.1,0.3
		c-0.1,0.2-0.3,0.3-0.5,0.3c0,0.1,0,0.2,0,0.3l-0.1,0.1l0.2,0.1c0.1,0.1,0.2,0.1,0.3,0.3c0.1,0.1,0.1,0.3,0.1,0.4l0.1,0
		c0.2,0.1,0.3,0.2,0.3,0.4l0.3,0.1c0.2,0.1,0.4,0.4,0.3,0.6l-0.1,0.3c-0.1,0.2-0.4,0.4-0.6,0.3l-0.3-0.1c0,0-0.1-0.1-0.1-0.1
		c0,0.1,0,0.1,0,0.2l0.1,0c0.2,0.1,0.3,0.2,0.3,0.4l0.3,0.1c0.2,0.1,0.4,0.4,0.3,0.6l-0.1,0.3c-0.1,0.2-0.4,0.4-0.6,0.3l-0.3-0.1
		c-0.2-0.1-0.3-0.2-0.3-0.4l-0.3-0.1c-0.2-0.1-0.3-0.3-0.3-0.6l-0.1,0c-0.2-0.1-0.4-0.4-0.3-0.6l0.1-0.2l-0.3-0.1
		C155.8,327.3,155.7,327,155.8,326.8z"/>
	<path class="st13" d="M161.6,350.7l-0.5-7.3h-3.4l0.6,9c0,0.3,0.2,0.7,0.4,0.9l5.7,7.3l3.3-1l-5.7-8
		C161.8,351.4,161.6,351.1,161.6,350.7z"/>
	<g>
		<path class="st2" d="M159.4,330.5l0.2,0.1c0.6,0.3,0.8,1.1,0.4,1.6l-3.7,6.2c-0.3,0.6-1.1,0.8-1.6,0.4l-0.2-0.1
			c-0.6-0.3-0.8-1.1-0.4-1.6l3.7-6.2C158.1,330.4,158.8,330.2,159.4,330.5z"/>
		<path class="st21" d="M159.4,330.5l0.2,0.1c0.6,0.3,0.8,1.1,0.4,1.6l-3.7,6.2c-0.3,0.6-1.1,0.8-1.6,0.4l-0.2-0.1
			c-0.6-0.3-0.8-1.1-0.4-1.6l3.7-6.2C158.1,330.4,158.8,330.2,159.4,330.5z"/>
	</g>
	<g>
		<path class="st2" d="M156.3,336.8l0.2,0.2c0.4,0.5,0.3,1.3-0.2,1.7l-5.7,4.4c-0.5,0.4-1.3,0.3-1.7-0.2l-0.2-0.2
			c-0.4-0.5-0.3-1.3,0.2-1.7l5.7-4.4C155.1,336.2,155.9,336.3,156.3,336.8z"/>
		<path class="st21" d="M156.3,336.8l0.2,0.2c0.4,0.5,0.3,1.3-0.2,1.7l-5.7,4.4c-0.5,0.4-1.3,0.3-1.7-0.2l-0.2-0.2
			c-0.4-0.5-0.3-1.3,0.2-1.7l5.7-4.4C155.1,336.2,155.9,336.3,156.3,336.8z"/>
	</g>
	<path class="st17" d="M161.6,350.7l-0.5-7.3h-3.4l0.6,9c0,0.3,0.2,0.7,0.4,0.9l5.7,7.3l3.3-1l-5.7-8
		C161.8,351.4,161.6,351.1,161.6,350.7z"/>
	<path class="st8" d="M165.2,343.5h-4.1v3l-4.1,5.7l-3.3,8.3l2.5,2.2l4.5-9.3l3.4-4.6c0.7-0.9,1.1-2,1.1-3.1L165.2,343.5z"/>
	<path class="st13" d="M164.7,347.2l-6.8-0.6l-0.7-0.7c-0.2-0.1-0.4-2.6-0.4-2.8l0.3-6.1l-0.9-1.7c-0.7-1.3-0.1-3.5,0.6-4.7l1.5-1.3
		l0.6-1.4c1.7-0.6,1.7-0.6,2.7,1.2l3.1,1.8c1,1.1-0.7,6.8-0.8,8.3l0.5,0.9c0.9,1.7,1.4,3.6,1.2,5.5l-0.1,1.2
		C165.6,347.1,165.1,347.4,164.7,347.2z"/>
	<path class="st8" d="M157.1,322.7c0-0.2,0.1-0.4,0.3-0.6c0-0.4,0.4-0.8,0.9-0.8c0,0,0,0,0.1,0c0.1-0.3,0.3-0.5,0.9-0.5
		c1.1,0,1.4,0,1.4,0c0.4,0,0.7,0.3,0.8,0.6c0,0,0,0,0,0c0.1,0,0.1,0,0.1,0c0.5,0,0.9,0.4,0.9,0.8c0.2,0.1,0.3,0.3,0.3,0.6
		c0.3,0.1,0.7,0.2,0.7,0.7c0,0.8,0,0.8,0,0.8c0,0.4-0.3,0.7-0.7,0.8v0.4c0,0.5-0.4,0.9-0.9,0.9h-0.9c-0.1,0.3-0.5,0.5-0.8,0.5
		l-0.4-0.6c0,0.1-0.1,0.1-0.2,0.1l-0.2,0.4c-0.4,0-0.7-0.2-0.8-0.5h-0.9c-0.5,0-0.9-0.4-0.9-0.9V325c-0.4-0.1-0.7-0.4-0.7-0.8
		c0,0,0,0,0-0.8C156.4,322.9,156.8,322.8,157.1,322.7z"/>
	<path class="st13" d="M155.2,364.4l-5.4-2.1c-0.3-0.1-0.4-0.4-0.3-0.7l0,0c0.5-1.3,1.9-1.9,3.2-1.4l4,1.5l-0.9,2.4
		C155.7,364.3,155.4,364.4,155.2,364.4z"/>
	<path class="st13" d="M167.7,362.8l-5.5,1.7c-0.3,0.1-0.6-0.1-0.7-0.4v0c-0.4-1.3,0.3-2.7,1.6-3l4.1-1.2l0.7,2.4
		C168.1,362.5,168,362.7,167.7,362.8z"/>
	<path class="st5" d="M161.6,328.7c0.2-0.3,0.3-0.7,0.3-1.1v-2.1c0-1-0.8-1.9-1.9-1.9h-0.3c-1,0-1.9,0.8-1.9,1.9v2.1
		c0,0.6,0.3,1.1,0.7,1.5l-0.4,1.4l-0.8,2l1.1,1.2l3-0.4l0.6-2.8L161.6,328.7z"/>
	<g>
		<path class="st5" d="M145.4,342.3c-0.1-0.7,0.4-1.4,1.2-1.4l1-0.1c0-0.1,0-0.3,0.1-0.4c0.2-0.3,0.6-0.3,0.9-0.1
			c0.3,0.2,1.1,0.8,1.2,1.6s-0.4,1.4-1.2,1.4l-1.5,0.1C146.3,343.6,145.5,343,145.4,342.3z"/>
		<path class="st3" d="M145.4,342.3c-0.1-0.7,0.4-1.4,1.2-1.4l1-0.1c0-0.1,0-0.3,0.1-0.4c0.2-0.3,0.6-0.3,0.9-0.1
			c0.3,0.2,1.1,0.8,1.2,1.6s-0.4,1.4-1.2,1.4l-1.5,0.1C146.3,343.6,145.5,343,145.4,342.3z"/>
	</g>
	<g>
		<g>
			<g>
				<polygon class="st19" points="175.6,341 165.5,340.8 161.9,346.6 172,346.8 				"/>
				<polygon class="st10" points="175.6,341 165.5,340.8 161.9,346.6 172,346.8 				"/>
			</g>
			<polygon class="st10" points="175.6,341 165.5,340.8 161.9,346.6 172,346.8 			"/>
		</g>
		<g>
			<polygon class="st19" points="175.3,340.6 165.3,340.4 161.7,346.2 171.8,346.4 			"/>
			<polygon class="st10" points="175.3,340.6 165.3,340.4 161.7,346.2 171.8,346.4 			"/>
		</g>
		<g>
			<g>
				<polygon class="st19" points="175.1,340.1 165,340 161.4,345.7 171.5,346 				"/>
				<polygon class="st10" points="175.1,340.1 165,340 161.4,345.7 171.5,346 				"/>
			</g>
			<polygon class="st10" points="175.1,340.1 165,340 161.4,345.7 171.5,346 			"/>
		</g>
		<g>
			<polygon class="st19" points="174.9,339.7 164.8,339.5 161.2,345.3 171.3,345.5 			"/>
			<polygon class="st10" points="174.9,339.7 164.8,339.5 161.2,345.3 171.3,345.5 			"/>
		</g>
		<polygon class="st19" points="174.6,339.3 164.6,339.1 161,344.9 171.1,345.1 		"/>
	</g>
	<g>
		<path class="st5" d="M167.6,347.6c-0.7,0.3-1.4,0-1.7-0.7l-0.4-0.9c-0.1,0-0.3,0.1-0.4,0c-0.3-0.1-0.5-0.5-0.3-0.8
			s0.5-1.3,1.2-1.6c0.7-0.3,1.4,0,1.7,0.7l0.5,1.4C168.6,346.4,168.3,347.3,167.6,347.6z"/>
		<path class="st3" d="M167.6,347.6c-0.7,0.3-1.4,0-1.7-0.7l-0.4-0.9c-0.1,0-0.3,0.1-0.4,0c-0.3-0.1-0.5-0.5-0.3-0.8
			s0.5-1.3,1.2-1.6c0.7-0.3,1.4,0,1.7,0.7l0.5,1.4C168.6,346.4,168.3,347.3,167.6,347.6z"/>
	</g>
	<g>
		<path class="st2" d="M163.5,331.1l0.3-0.3c0.5-0.4,1.2-0.4,1.6,0.1l4.5,5c0.4,0.5,0.4,1.2-0.1,1.6l-0.3,0.3
			c-0.5,0.4-1.2,0.4-1.6-0.1l-4.5-5C163,332.3,163,331.6,163.5,331.1z"/>
		<path class="st21" d="M163.5,331.1l0.3-0.3c0.5-0.4,1.2-0.4,1.6,0.1l4.5,5c0.4,0.5,0.4,1.2-0.1,1.6l-0.3,0.3
			c-0.5,0.4-1.2,0.4-1.6-0.1l-4.5-5C163,332.3,163,331.6,163.5,331.1z"/>
	</g>
	<g>
		<path class="st2" d="M169.3,335.7l0.4,0.1c0.6,0.2,1,0.8,0.8,1.4l-1.9,7.1c-0.2,0.6-0.8,1-1.4,0.8l-0.4-0.1
			c-0.6-0.2-1-0.8-0.8-1.4l1.9-7.1C168.1,335.9,168.7,335.5,169.3,335.7z"/>
		<path class="st21" d="M169.3,335.7l0.4,0.1c0.6,0.2,1,0.8,0.8,1.4l-1.9,7.1c-0.2,0.6-0.8,1-1.4,0.8l-0.4-0.1
			c-0.6-0.2-1-0.8-0.8-1.4l1.9-7.1C168.1,335.9,168.7,335.5,169.3,335.7z"/>
	</g>
	<g>
		<rect x="43.1" y="373.1" class="st2" width="0.5" height="2.2"/>
		<rect x="43.7" y="373.1" class="st13" width="0.5" height="2.2"/>
		<path class="st5" d="M48.4,368.5c0,2.5-2.1,4.6-4.6,4.6s-4.6-2.1-4.6-4.6s2.1-14,4.6-14S48.4,366,48.4,368.5z"/>
		<path class="st14" d="M43.7,371.3c-2.1,0-3.7-0.7-4.3-3.9c-0.1,0.4-0.1,0.7-0.1,1.1c0,2.5,2.1,4.6,4.6,4.6s4.6-2.1,4.6-4.6
			c0-1.9-1.1-6.9-1.2-7.3C47.9,368.4,45.8,371.3,43.7,371.3z"/>
	</g>
	<path class="st10" d="M161.6,328.7c0.2-0.3,0.3-0.7,0.3-1.1v-2.1c0-1-0.8-1.9-1.9-1.9h-0.3c-1,0-1.9,0.8-1.9,1.9v2.1
		c0,0.6,0.3,1.1,0.7,1.5l-0.4,1.4l-0.8,2l1.1,1.2l3-0.4l0.6-2.8L161.6,328.7z"/>
	<g class="st20">
		<path class="st2" d="M145.4,342.3c-0.1-0.7,0.4-1.4,1.2-1.4l1-0.1c0-0.1,0-0.3,0.1-0.4c0.2-0.3,0.6-0.3,0.9-0.1
			c0.3,0.2,1.1,0.8,1.2,1.6s-0.4,1.4-1.2,1.4l-1.5,0.1C146.3,343.6,145.5,343,145.4,342.3z"/>
		<path class="st10" d="M145.4,342.3c-0.1-0.7,0.4-1.4,1.2-1.4l1-0.1c0-0.1,0-0.3,0.1-0.4c0.2-0.3,0.6-0.3,0.9-0.1
			c0.3,0.2,1.1,0.8,1.2,1.6s-0.4,1.4-1.2,1.4l-1.5,0.1C146.3,343.6,145.5,343,145.4,342.3z"/>
	</g>
	<g class="st20">
		<path class="st2" d="M167.6,347.6c-0.7,0.3-1.4,0-1.7-0.7l-0.4-0.9c-0.1,0-0.3,0.1-0.4,0c-0.3-0.1-0.5-0.5-0.3-0.8
			s0.5-1.3,1.2-1.6c0.7-0.3,1.4,0,1.7,0.7l0.5,1.4C168.6,346.4,168.3,347.3,167.6,347.6z"/>
		<path class="st10" d="M167.6,347.6c-0.7,0.3-1.4,0-1.7-0.7l-0.4-0.9c-0.1,0-0.3,0.1-0.4,0c-0.3-0.1-0.5-0.5-0.3-0.8
			s0.5-1.3,1.2-1.6c0.7-0.3,1.4,0,1.7,0.7l0.5,1.4C168.6,346.4,168.3,347.3,167.6,347.6z"/>
	</g>
	<path class="st8" d="M159.1,323.1v0.4c0,0.3,0.2,0.5,0.5,0.5h0.3c0.1,0.1,0.2,0.2,0.4,0.2h0.1c0,0.3,0.2,0.5,0.5,0.5h0.3v0.2
		c0,0.1,0,0.2,0.1,0.3c-0.2,0.1-0.4,0.2-0.4,0.5v0.4c0,0.3,0.2,0.5,0.5,0.5h0.4c0,0,0,0,0.1,0c0,0-0.1,0-0.1,0.1l-0.3,0.2
		c-0.2,0.2-0.2,0.5-0.1,0.7l0,0c0,0,0,0-0.1,0l-0.3,0.2c-0.2,0.2-0.2,0.5-0.1,0.7l0.2,0.3c0,0,0.1,0.1,0.1,0.1c0,0.2,0,0.3,0.1,0.5
		l0.2,0.3c0.2,0.2,0.4,0.2,0.6,0.1l0.2,0.2c0.2,0.2,0.5,0.2,0.7,0.1l0.3-0.2c0.1-0.1,0.1-0.2,0.2-0.3c0.2,0.1,0.4,0.1,0.6,0l0.3-0.2
		c0.2-0.2,0.2-0.5,0.1-0.7l-0.2-0.2l0.2-0.1c0.1-0.1,0.2-0.3,0.2-0.5c0.1-0.2,0.1-0.4,0-0.5c0-0.1,0-0.3-0.1-0.4l0,0
		c0.2-0.2,0.2-0.5,0.1-0.7l-0.1-0.1c0.2-0.2,0.2-0.5,0-0.7l-0.2-0.3c0.1-0.2,0-0.3-0.1-0.5l-0.2-0.3c-0.1-0.2-0.4-0.2-0.6-0.1
		c0-0.1,0-0.2-0.1-0.3l-0.2-0.3c-0.2-0.2-0.5-0.2-0.7-0.1l-0.3,0.2c-0.1,0.1-0.2,0.2-0.2,0.3h-0.3v-0.2c0-0.3-0.2-0.5-0.5-0.5h-0.1
		c0-0.3-0.2-0.5-0.5-0.5h-0.3c-0.1-0.1-0.2-0.2-0.4-0.2h-0.4C159.4,322.6,159.1,322.8,159.1,323.1z M162.5,328.3
		C162.5,328.3,162.5,328.3,162.5,328.3C162.5,328.2,162.5,328.2,162.5,328.3L162.5,328.3C162.6,328.3,162.6,328.3,162.5,328.3
		C162.5,328.3,162.5,328.3,162.5,328.3z"/>
</g>
</svg>
