<?xml version="1.0" encoding="utf-8"?>
<!-- Generator: Adobe Illustrator 23.0.1, SVG Export Plug-In . SVG Version: 6.00 Build 0)  -->
<svg version="1.1" id="Capa_1" xmlns="http://www.w3.org/2000/svg" xmlns:xlink="http://www.w3.org/1999/xlink" x="0px" y="0px"
	 viewBox="0 0 798.5 585.2" style="enable-background:new 0 0 798.5 585.2;" xml:space="preserve">
<style type="text/css">
	.st0{display:none;}
	.st1{display:inline;opacity:0.5;}
	.st2{fill:#508A99;}
	.st3{opacity:0.33;fill:#FFFFFF;enable-background:new    ;}
	.st4{opacity:0.66;fill:#FFFFFF;enable-background:new    ;}
	.st5{fill:#81BCBF;}
	.st6{opacity:0.33;fill:#508A99;enable-background:new    ;}
	.st7{fill:#585799;}
	.st8{fill:#B6CE99;}
	.st9{opacity:0.33;fill:#585799;enable-background:new    ;}
	.st10{opacity:0.66;fill:#508A99;enable-background:new    ;}
	.st11{opacity:0.66;fill:#81BCBF;enable-background:new    ;}
	.st12{opacity:0.33;fill:#81BCBF;enable-background:new    ;}
	.st13{fill:#FFFFFF;}
	.st14{opacity:0.66;fill:#585799;enable-background:new    ;}
	.st15{opacity:0.33;fill:#B6CE99;enable-background:new    ;}
	.st16{opacity:0.66;fill:#B6CE99;enable-background:new    ;}
</style>
<g id="Ejemplo" class="st0">
	
		<image style="display:inline;overflow:visible;opacity:0.3;enable-background:new    ;" width="863" height="611" xlink:href="../../../../Material/GetFileAttachment.png"  transform="matrix(1 0 0 1 -96.5047 -101.8247)">
	</image>
</g>
<g id="Retícula" class="st0">
	<g class="st1">
		
			<image style="overflow:visible;enable-background:new    ;" width="1300" height="918" xlink:href="../../../../Material/cuadrícula-isométrica.jpg"  transform="matrix(0.4533 0 0 0.4533 43.2403 196.3419)">
		</image>
		
			<image style="overflow:visible;enable-background:new    ;" width="1300" height="918" xlink:href="../../../../Material/cuadrícula-isométrica.jpg"  transform="matrix(0.4533 0 0 0.4533 43.2403 -213.6581)">
		</image>
		
			<image style="overflow:visible;enable-background:new    ;" width="1300" height="918" xlink:href="../../../../Material/cuadrícula-isométrica.jpg"  transform="matrix(0.4533 0 0 0.4533 632.2403 196.3419)">
		</image>
		
			<image style="overflow:visible;enable-background:new    ;" width="1300" height="918" xlink:href="../../../../Material/cuadrícula-isométrica.jpg"  transform="matrix(0.4533 0 0 0.4533 632.2403 -213.6581)">
		</image>
		
			<image style="overflow:visible;enable-background:new    ;" width="1300" height="918" xlink:href="../../../../Material/cuadrícula-isométrica.jpg"  transform="matrix(0.4533 0 0 0.4533 -546.7597 196.3419)">
		</image>
		
			<image style="overflow:visible;enable-background:new    ;" width="1300" height="918" xlink:href="../../../../Material/cuadrícula-isométrica.jpg"  transform="matrix(0.4533 0 0 0.4533 -546.7597 -213.6581)">
		</image>
	</g>
</g>
<g id="Números">
	<polyline class="st2" points="236.6,573.2 378.7,491.3 378.7,503.1 236.6,585.2 	"/>
	<polyline class="st2" points="236.6,585.2 124.3,521 124.3,509.2 236.6,573.2 	"/>
	<polyline class="st3" points="236.6,585.2 124.3,521 124.3,509.2 236.6,573.2 	"/>
	<polyline class="st2" points="236.6,573.2 378.7,491.3 267.1,427.3 124.3,509.2 236.6,573.2 236.6,585.2 	"/>
	<polyline class="st4" points="236.6,573.2 378.7,491.3 267.1,427.3 124.3,509.2 236.6,573.2 236.6,585.2 	"/>
	<g>
		<ellipse class="st5" cx="316.6" cy="466.7" rx="7.5" ry="4.6"/>
		<ellipse class="st6" cx="316.6" cy="466.7" rx="7.5" ry="4.6"/>
		<path class="st2" d="M316.6,471.3c-3.8,0-7-1.8-7.4-4c0.2,1.4,0.6,5.2,0.9,8.4c0.5,4.4,12,4.4,12.7,0.2c0.3-2.3,0.9-6.8,1.2-8.5
			C323.5,469.6,320.4,471.3,316.6,471.3z"/>
		<ellipse class="st7" cx="316.6" cy="466.7" rx="6.2" ry="3.8"/>
		<g>
			<g>
				<rect x="315.4" y="463.1" class="st5" width="1.1" height="4.4"/>
				<rect x="316.4" y="463.1" class="st2" width="1.1" height="4.4"/>
				<path class="st8" d="M325.7,454.1c0,5-4,9-9,9s-9-4-9-9s4-27.5,9-27.5S325.7,449.1,325.7,454.1z"/>
				<path class="st6" d="M316.4,459.5c-4.2,0-7.2-1.3-8.5-7.7c-0.2,0.7-0.3,1.5-0.3,2.2c0,5,4,9,9,9s9-4,9-9
					c0-3.7-2.2-13.7-2.3-14.4C324.8,453.8,320.7,459.5,316.4,459.5z"/>
			</g>
			<path class="st3" d="M308,451.2c1.7-9.9,5.5-30.7,11.3-22.4C314.5,424.1,310.6,441.4,308,451.2z"/>
		</g>
	</g>
	<polygon class="st7" points="337.2,489.7 340,491.4 340,489 337.2,487.4 	"/>
	<polygon class="st7" points="341.9,490.1 340,491.4 340,489 	"/>
	<polygon class="st6" points="337.2,489.7 340,491.4 340,489 337.2,487.4 	"/>
	<polygon class="st5" points="354.9,471.6 340,480.3 340,485.7 354.9,477 	"/>
	<g>
		<polyline class="st5" points="340,480.3 337.2,478.7 352.2,470 354.9,471.6 		"/>
		<polyline class="st4" points="340,480.3 337.2,478.7 352.2,470 354.9,471.6 		"/>
	</g>
	<g>
		<polygon class="st5" points="354.9,477 340,485.7 354.5,494 369.5,485.3 		"/>
		<polygon class="st4" points="354.9,477 340,485.7 354.5,494 369.5,485.3 		"/>
	</g>
	<g>
		<polygon class="st5" points="352.3,478.5 352.3,466.7 366.8,475 366.8,486.9 		"/>
		<polygon class="st3" points="352.3,478.5 352.3,466.7 366.8,475 366.8,486.9 		"/>
	</g>
	<polygon class="st5" points="354.5,488.7 354.5,494 340,485.6 340,480.3 337.2,478.6 337.2,487.4 357.3,499 357.3,490.3 	"/>
	<polygon class="st3" points="354.5,488.7 354.5,494 340,485.6 340,480.3 337.2,478.6 337.2,487.4 357.3,499 357.3,490.3 	"/>
	<polygon class="st5" points="372.2,481.6 357.3,490.3 357.3,499 372.2,490.3 	"/>
	<g>
		<g>
			<path class="st5" d="M347,486.5l0.2,0.2c0.6,0.8,0.4,1.9-0.4,2.4l-5.8,4.2c-0.8,0.6-1.9,0.4-2.4-0.4l-0.2-0.2
				c-0.6-0.8-0.4-1.9,0.4-2.4l5.8-4.2C345.3,485.5,346.4,485.7,347,486.5z"/>
			<path class="st9" d="M347,486.5l0.2,0.2c0.6,0.8,0.4,1.9-0.4,2.4l-5.8,4.2c-0.8,0.6-1.9,0.4-2.4-0.4l-0.2-0.2
				c-0.6-0.8-0.4-1.9,0.4-2.4l5.8-4.2C345.3,485.5,346.4,485.7,347,486.5z"/>
		</g>
		<g>
			<path class="st5" d="M340.2,500.8h-0.3c-1,0-1.8-0.7-1.8-1.7l-0.2-7.2c0-1,0.7-1.8,1.7-1.8h0.3c1,0,1.8,0.7,1.8,1.7l0.2,7.2
				C341.9,500,341.2,500.8,340.2,500.8z"/>
			<path class="st9" d="M340.2,500.8h-0.3c-1,0-1.8-0.7-1.8-1.7l-0.2-7.2c0-1,0.7-1.8,1.7-1.8h0.3c1,0,1.8,0.7,1.8,1.7l0.2,7.2
				C341.9,500,341.2,500.8,340.2,500.8z"/>
		</g>
		<g>
			<path class="st5" d="M351.1,487.4l0.4,0.5c0.6,0.7,0.6,1.8-0.1,2.5l-5.6,5.1c-0.7,0.6-1.8,0.6-2.5-0.1l-0.4-0.5
				c-0.6-0.7-0.6-1.8,0.1-2.5l5.6-5.1C349.3,486.6,350.4,486.7,351.1,487.4z"/>
			<path class="st9" d="M351.1,487.4l0.4,0.5c0.6,0.7,0.6,1.8-0.1,2.5l-5.6,5.1c-0.7,0.6-1.8,0.6-2.5-0.1l-0.4-0.5
				c-0.6-0.7-0.6-1.8,0.1-2.5l5.6-5.1C349.3,486.6,350.4,486.7,351.1,487.4z"/>
		</g>
		<g>
			<path class="st5" d="M344.5,502.9h-0.3c-1,0-1.8-0.7-1.8-1.7l-0.2-7.2c0-1,0.7-1.8,1.7-1.8h0.3c1,0,1.8,0.7,1.8,1.7l0.2,7.2
				C346.2,502,345.5,502.8,344.5,502.9z"/>
			<path class="st9" d="M344.5,502.9h-0.3c-1,0-1.8-0.7-1.8-1.7l-0.2-7.2c0-1,0.7-1.8,1.7-1.8h0.3c1,0,1.8,0.7,1.8,1.7l0.2,7.2
				C346.2,502,345.5,502.8,344.5,502.9z"/>
		</g>
		<polygon class="st10" points="346.1,504 343.3,505.9 343.3,503.5 346.1,501.8 		"/>
	</g>
	<polyline class="st5" points="299.5,504.1 307,499.6 304,497.9 299.1,500.8 	"/>
	<polyline class="st4" points="302.2,502.5 307,499.6 304,497.9 299.1,500.8 	"/>
	<polygon class="st5" points="307,499.6 292,508.6 292,517.3 307,508.4 	"/>
	<polygon class="st4" points="307,505.9 294,512.9 308.1,520.7 321.2,513.7 	"/>
	<polyline class="st3" points="302.2,502.5 307,499.6 304,497.9 299.1,500.8 	"/>
	<g>
		<rect x="227" y="450.3" class="st7" width="15.8" height="16.5"/>
		<path class="st7" d="M236.2,483.6L236.2,483.6l-32.8,16.2c-6.9,4.6-13.8,0.3-15.1-0.7c-3.5-2.6-23.2-15.1-23.2-15.1v20.1
			c0,1.9,1.3,3.1,4.2,5.1c0,0,20.9,12.7,22,13.2l0,0l0,0c2,0.9,4.7,1.4,7.6,1.4c3.6,0,6.8-0.8,8.9-2.2l58.7-33.1l0,0
			c2.4-1.4,3.8-3.5,3.8-5.7v-22.1C270.4,460.6,243.9,478.8,236.2,483.6z"/>
		<path class="st2" d="M268.8,459.5v0.8c-5.8-5.6-25.6-15.7-25.6-15.7c-4.8-2.8-10.2-2.4-13.6-0.7c-1.2,0.6-2,1.4-2.7,2.2v-0.8h-1
			v3.1l0,0c0,0.1,0,0.2,0,0.3c0.3,2.1,2.3,3.9,5.7,4.9l0,0c0,0,12.2,5.2,4.5,9.9l0,0l-32.8,20.2c-6.9,4.6-13.8,0.3-15.1-0.7
			c-3.5-2.6-5.4-4.8-11.8-4.8c-4.3,0-8.1,1.2-10,3V481H165v3.1c0,1.9,1.3,3.1,4.2,5.1c0,0,20.9,12.7,22,13.2l0,0l0,0
			c2,0.9,4.7,1.4,7.6,1.4c3.6,0,6.8-0.8,8.9-2.2l58.7-33.1l0,0c2.4-1.4,3.8-3.5,3.8-5.7v-3.1L268.8,459.5z"/>
		<path class="st3" d="M268.8,459.5v0.8c-5.8-5.6-25.6-15.7-25.6-15.7c-4.8-2.8-10.2-2.4-13.6-0.7c-1.2,0.6-2,1.4-2.7,2.2v-0.8h-1
			v3.1l0,0c0,0.1,0,0.2,0,0.3c0.3,2.1,2.3,3.9,5.7,4.9l0,0c0,0,12.2,5.2,4.5,9.9l0,0l-32.8,20.2c-6.9,4.6-13.8,0.3-15.1-0.7
			c-3.5-2.6-5.4-4.8-11.8-4.8c-4.3,0-8.1,1.2-10,3V481H165v3.1c0,1.9,1.3,3.1,4.2,5.1c0,0,20.9,12.7,22,13.2l0,0l0,0
			c2,0.9,4.7,1.4,7.6,1.4c3.6,0,6.8-0.8,8.9-2.2l58.7-33.1l0,0c2.4-1.4,3.8-3.5,3.8-5.7v-3.1L268.8,459.5z"/>
		<path class="st2" d="M270.4,459.6c0-4.3-27.2-18.2-27.2-18.2c-4.8-2.8-10.2-2.4-13.6-0.7c-2.6,1.3-3.8,3.6-3.6,4.9
			c0.3,2.1,2.3,3.9,5.7,4.9l0,0c0,0,12.2,5.2,4.5,9.9l0,0l-30.7,18.9c-6.9,4.6-15.5,0.4-16.8-0.5c-3.5-2.6-5.4-4.8-11.8-4.8
			c-6.3,0-11.9,3.7-11.9,6.8c0,1.9,1.3,3.1,4.2,5.1c0,0,20.9,12.7,22,13.2l0,0l0,0c2,0.9,4.7,1.4,7.6,1.4c3.6,0,6.8-0.8,8.9-2.2
			l58.7-33.1l0,0C268.9,463.9,270.4,461.9,270.4,459.6z"/>
		<path class="st4" d="M270.4,459.6c0-4.3-27.2-18.2-27.2-18.2c-4.8-2.8-10.2-2.4-13.6-0.7c-2.6,1.3-3.8,3.6-3.6,4.9
			c0.3,2.1,2.3,3.9,5.7,4.9l0,0c0,0,12.2,5.2,4.5,9.9l0,0l-30.7,18.9c-6.9,4.6-15.5,0.4-16.8-0.5c-3.5-2.6-5.4-4.8-11.8-4.8
			c-6.3,0-11.9,3.7-11.9,6.8c0,1.9,1.3,3.1,4.2,5.1c0,0,20.9,12.7,22,13.2l0,0l0,0c2,0.9,4.7,1.4,7.6,1.4c3.6,0,6.8-0.8,8.9-2.2
			l58.7-33.1l0,0C268.9,463.9,270.4,461.9,270.4,459.6z"/>
		<path class="st4" d="M270.4,459.6c0-4.3-27.2-18.2-27.2-18.2c-4.8-2.8-10.2-2.4-13.6-0.7c-2.6,1.3-3.8,3.6-3.6,4.9
			c0.3,2.1,2.3,3.9,5.7,4.9l0,0c0,0,12.2,5.2,4.5,9.9l0,0l-30.7,18.9c-6.9,4.6-15.5,0.4-16.8-0.5c-3.5-2.6-5.4-4.8-11.8-4.8
			c-6.3,0-11.9,3.7-11.9,6.8c0,1.9,1.3,3.1,4.2,5.1c0,0,20.9,12.7,22,13.2l0,0l0,0c2,0.9,4.7,1.4,7.6,1.4c3.6,0,6.8-0.8,8.9-2.2
			l58.7-33.1l0,0C268.9,463.9,270.4,461.9,270.4,459.6z"/>
	</g>
	<g>
		<polygon class="st2" points="225.7,474.4 224.9,474.8 225.6,475.2 226.4,474.8 		"/>
		<polygon class="st2" points="226.8,473.8 226,474.2 226.7,474.6 227.5,474.2 		"/>
		<polygon class="st2" points="228,473.1 227.2,473.6 227.9,474 228.6,473.6 		"/>
		<polygon class="st2" points="229.1,472.5 228.3,473 229,473.4 229.8,473 		"/>
		<polygon class="st2" points="230.2,471.9 229.4,472.3 230.1,472.8 230.9,472.3 		"/>
		<polygon class="st2" points="231.4,471.3 230.6,471.7 231.3,472.2 232.1,471.7 		"/>
		<polygon class="st2" points="232.5,470.7 231.7,471.1 232.4,471.5 233.2,471.1 		"/>
		<polygon class="st2" points="233.6,470.1 232.9,470.5 233.5,470.9 234.3,470.5 		"/>
		<polygon class="st2" points="234.8,469.5 234,469.9 234.7,470.3 235.5,469.9 		"/>
		<polygon class="st2" points="224.6,473.8 223.9,474.2 224.5,474.6 225.3,474.2 		"/>
		<polygon class="st2" points="225.8,473.1 225,473.6 225.7,474 226.5,473.6 		"/>
		<polygon class="st2" points="226.9,472.5 226.1,473 226.8,473.4 227.6,473 		"/>
		<polygon class="st2" points="228.1,471.9 227.3,472.3 227.9,472.8 228.7,472.3 		"/>
		<polygon class="st2" points="229.2,471.3 228.4,471.7 229.1,472.2 229.9,471.7 		"/>
		<polygon class="st2" points="230.3,470.7 229.5,471.1 230.2,471.5 231,471.1 		"/>
		<polygon class="st2" points="231.5,470.1 230.7,470.5 231.4,470.9 232.1,470.5 		"/>
		<polygon class="st2" points="232.6,469.5 231.8,469.9 232.5,470.3 233.3,469.9 		"/>
		<polygon class="st2" points="233.7,468.9 233,469.3 233.6,469.7 234.4,469.3 		"/>
		<polygon class="st2" points="223.6,473.1 222.8,473.6 223.5,474 224.3,473.6 		"/>
		<polygon class="st2" points="224.7,472.5 224,473 224.6,473.4 225.4,473 		"/>
		<polygon class="st2" points="225.9,471.9 225.1,472.3 225.8,472.8 226.6,472.3 		"/>
		<polygon class="st2" points="227,471.3 226.2,471.7 226.9,472.2 227.7,471.7 		"/>
		<polygon class="st2" points="228.1,470.7 227.4,471.1 228,471.5 228.8,471.1 		"/>
		<polygon class="st2" points="229.3,470.1 228.5,470.5 229.2,470.9 230,470.5 		"/>
		<polygon class="st2" points="230.4,469.5 229.6,469.9 230.3,470.3 231.1,469.9 		"/>
		<polygon class="st2" points="231.6,468.9 230.8,469.3 231.4,469.7 232.2,469.3 		"/>
		<polygon class="st2" points="232.7,468.3 231.9,468.7 232.6,469.1 233.4,468.7 		"/>
	</g>
	<g>
		<ellipse class="st5" cx="331.4" cy="473.2" rx="7.5" ry="4.6"/>
		<ellipse class="st6" cx="331.4" cy="473.2" rx="7.5" ry="4.6"/>
		<path class="st2" d="M331.4,477.8c-3.8,0-7-1.8-7.4-4c0.2,1.4,0.6,5.2,0.9,8.4c0.5,4.4,12,4.4,12.7,0.2c0.3-2.3,0.9-6.8,1.2-8.5
			C338.3,476.1,335.2,477.8,331.4,477.8z"/>
		<ellipse class="st7" cx="331.4" cy="473.2" rx="6.2" ry="3.8"/>
		<rect x="330.2" y="459" class="st5" width="1.2" height="14.8"/>
		<rect x="331.4" y="459" class="st2" width="1.2" height="14.8"/>
		<circle class="st8" cx="331.6" cy="449.2" r="9.8"/>
		<path class="st6" d="M331.6,454.2c-4.6,0-8.4-3.1-9.5-7.4c-0.2,0.8-0.3,1.6-0.3,2.4c0,5.4,4.4,9.8,9.8,9.8s9.8-4.4,9.8-9.8
			c0-0.8-0.1-1.7-0.3-2.4C340,451,336.2,454.2,331.6,454.2z"/>
	</g>
	<g>
		<polygon class="st7" points="344.3,501 332.4,509 332.4,515 344.3,508 		"/>
		<polygon class="st7" points="319.5,500.9 332.4,509 332.4,515 319.5,507.4 		"/>
		<polygon class="st6" points="319.5,500.9 332.4,509 332.4,515 319.5,507.4 		"/>
		<polygon class="st5" points="348,496.9 332.4,506.3 332.4,510 348,500.8 		"/>
		<polyline class="st5" points="332.4,510 316.8,500.8 316.8,496.9 332.4,506.3 		"/>
		<polyline class="st5" points="348,496.9 332.4,487.8 316.8,496.9 332.4,506.3 		"/>
		<polyline class="st3" points="332.4,510 316.8,500.8 316.8,496.9 332.4,506.3 		"/>
		<polyline class="st4" points="348,496.9 332.4,487.8 316.8,496.9 332.4,506.3 		"/>
	</g>
	<polygon class="st7" points="360,499.5 357.3,501.4 357.3,499 360,497.4 	"/>
	<polygon class="st7" points="346.1,504 343.3,505.9 343.3,503.5 346.1,501.8 	"/>
	<polygon class="st7" points="354.5,499.8 357.3,501.4 357.3,499 354.5,497.4 	"/>
	<polygon class="st5" points="369.5,473.5 366.8,475 366.8,481.5 369.4,479.9 	"/>
	<g>
		<polygon class="st5" points="369.5,473.5 366.8,475 352.3,466.7 354.9,465.2 		"/>
		<polygon class="st4" points="369.5,473.5 366.8,475 352.3,466.7 354.9,465.2 		"/>
	</g>
	<g>
		<polygon class="st5" points="372.2,481.6 357.3,490.3 354.5,488.6 369.5,479.9 		"/>
		<polygon class="st4" points="372.2,481.6 357.3,490.3 354.5,488.6 369.5,479.9 		"/>
	</g>
	<polygon class="st7" points="372.2,492.5 369.5,494.3 369.5,491.9 372.2,490.3 	"/>
	<polygon class="st7" points="367.4,493.1 369.5,494.3 369.5,491.9 	"/>
	<polygon class="st6" points="354.5,499.8 357.3,501.4 357.3,499 354.5,497.4 	"/>
	<polygon class="st6" points="367.4,493.1 369.5,494.3 369.5,491.9 	"/>
	<polygon class="st7" points="235.7,460.4 254.3,449.4 253.4,448.9 234.8,459.9 234.8,474.5 235.7,475 	"/>
	<polygon class="st7" points="243.6,477 239.8,474.7 239.5,475.4 243.6,477.9 250.7,474.1 250,473.5 	"/>
	<g>
		<polygon class="st7" points="232.7,467.7 221.7,473.7 225.5,476 236.6,470.1 		"/>
		<polygon class="st7" points="225.5,476 221.7,473.7 221.4,474.4 225.5,476.9 237.2,470.6 236.6,470.1 		"/>
		<polygon class="st6" points="225.5,476 225.5,476.9 237.2,470.6 236.6,470.1 		"/>
		<g>
			<polygon class="st5" points="225.7,474.5 224.9,474.9 225.6,475.4 226.4,474.9 			"/>
			<polygon class="st5" points="226.8,473.9 226,474.3 226.7,474.7 227.5,474.3 			"/>
			<polygon class="st5" points="228,473.3 227.2,473.7 227.9,474.1 228.6,473.7 			"/>
			<polygon class="st5" points="229.1,472.7 228.3,473.1 229,473.5 229.8,473.1 			"/>
			<polygon class="st5" points="230.2,472.1 229.4,472.5 230.1,472.9 230.9,472.5 			"/>
			<polygon class="st5" points="231.4,471.5 230.6,471.9 231.3,472.3 232.1,471.9 			"/>
			<polygon class="st5" points="232.5,470.9 231.7,471.3 232.4,471.7 233.2,471.3 			"/>
			<polygon class="st5" points="233.6,470.2 232.9,470.7 233.5,471.1 234.3,470.7 			"/>
			<polygon class="st5" points="234.8,469.6 234,470 234.7,470.5 235.5,470 			"/>
			<polygon class="st5" points="224.6,473.9 223.9,474.3 224.5,474.7 225.3,474.3 			"/>
			<polygon class="st5" points="225.8,473.3 225,473.7 225.7,474.1 226.5,473.7 			"/>
			<polygon class="st5" points="226.9,472.7 226.1,473.1 226.8,473.5 227.6,473.1 			"/>
			<polygon class="st5" points="228.1,472.1 227.3,472.5 227.9,472.9 228.7,472.5 			"/>
			<polygon class="st5" points="229.2,471.5 228.4,471.9 229.1,472.3 229.9,471.9 			"/>
			<polygon class="st5" points="230.3,470.9 229.5,471.3 230.2,471.7 231,471.3 			"/>
			<polygon class="st5" points="231.5,470.2 230.7,470.7 231.4,471.1 232.1,470.7 			"/>
			<polygon class="st5" points="232.6,469.6 231.8,470 232.5,470.5 233.3,470 			"/>
			<polygon class="st5" points="233.7,469 233,469.4 233.6,469.9 234.4,469.4 			"/>
			<polygon class="st5" points="223.6,473.3 222.8,473.7 223.5,474.1 224.3,473.7 			"/>
			<polygon class="st5" points="224.7,472.7 224,473.1 224.6,473.5 225.4,473.1 			"/>
			<polygon class="st5" points="225.9,472.1 225.1,472.5 225.8,472.9 226.6,472.5 			"/>
			<polygon class="st5" points="227,471.5 226.2,471.9 226.9,472.3 227.7,471.9 			"/>
			<polygon class="st5" points="228.1,470.9 227.4,471.3 228,471.7 228.8,471.3 			"/>
			<polygon class="st5" points="229.3,470.2 228.5,470.7 229.2,471.1 230,470.7 			"/>
			<polygon class="st5" points="230.4,469.6 229.6,470 230.3,470.5 231.1,470 			"/>
			<polygon class="st5" points="231.6,469 230.8,469.4 231.4,469.9 232.2,469.4 			"/>
			<polygon class="st5" points="232.7,468.4 231.9,468.8 232.6,469.2 233.4,468.8 			"/>
		</g>
		<polygon class="st11" points="225.5,476 221.7,473.7 221.4,474.4 225.5,476.9 		"/>
	</g>
	<polygon class="st7" points="247.8,473.5 247.8,461.9 244.1,464.1 244.1,475.7 	"/>
	<polygon class="st7" points="244.1,464.1 247.8,461.9 246.9,458.4 243.2,460.5 243.2,475.2 244.1,475.7 	"/>
	<g>
		<polygon class="st7" points="254.3,464 254.3,449.4 235.7,460.4 235.7,475 		"/>
		<polygon class="st11" points="235.7,460.4 254.3,449.4 253.4,448.9 234.8,459.9 		"/>
		<polygon class="st12" points="235.7,460.4 234.8,459.9 234.8,474.5 235.7,475 		"/>
		<polygon class="st7" points="246.2,471.2 239.8,474.7 243.6,477 250,473.5 		"/>
		<polygon class="st11" points="243.6,477 239.8,474.7 239.5,475.4 243.6,477.9 		"/>
		<polygon class="st12" points="243.6,477 243.6,477.9 250.7,474.1 250,473.5 		"/>
		<polygon class="st11" points="244.1,464.1 247.8,461.9 246.9,458.4 243.2,460.5 		"/>
		<polygon class="st12" points="244.1,464.1 243.2,460.5 243.2,475.2 244.1,475.7 		"/>
		<polygon class="st6" points="247.8,473.5 247.8,461.9 244.1,464.1 244.1,475.7 		"/>
	</g>
	<polygon class="st8" points="313.8,515.9 315.2,516 316.2,505.1 314.3,505.2 	"/>
	<path class="st8" d="M317.2,515.8c0,0.6,1.1,0.6,1.1,0.6l1-10c0-0.6-1.1-1.1-1.1-1.1c-0.7-0.1-1.5,1.3-1.5,2L317.2,515.8z"/>
	<path class="st8" d="M319,507.2c0.3-0.2-0.9-1.8-0.9-1.8l-5,2.1c-0.3,0.1,0,1.3,0,1.3c0.3,0.6,1.3,1,1.6,0.7L319,507.2z"/>
	<path class="st8" d="M316,504.8L316,504.8c-0.3-0.4-0.8-0.6-1.3-0.4l-4.8,1.3c-0.2,0.1,0.4,1.4,0.5,1.7c0,0.1,0.1,0.2,0.1,0.3
		c0.4,0.5,1.3,0.8,1.5,0.6l3.5-2C316.2,506,316.3,505.3,316,504.8z"/>
	<path class="st7" d="M316.6,509.3l-4.1,2.5c-2.6,1.6-6,1.3-8-0.9c-1.1-1.2-1.7-2.7-1.7-4.2l0,0l9.1-3.3l2.9,2.1
		C316,506.4,316.7,507.8,316.6,509.3L316.6,509.3z"/>
	<path class="st7" d="M312.6,517.1c0,0.1,0,0.1,0,0.2l0.7,0.5l0.6-0.6l0.4,1.5l2.4,2c0.2,0.1,0.4,0,0.4-0.2l-0.2-1
		c-0.4-1.7-1.3-3.2-2.6-4.3l0,0L312.6,517.1z"/>
	<path class="st8" d="M308.1,494.4l0.4,0.1c1.2,0.3,2.4-0.5,2.7-1.7l0.5-2.4c0.3-1.2-0.5-2.4-1.7-2.7l-0.4-0.1
		c-1.2-0.3-2.4,0.5-2.7,1.7l-0.5,2.4C306.1,493,306.9,494.2,308.1,494.4z"/>
	<g>
		<path class="st7" d="M316,517.8c0,0.1,0,0.1,0,0.2l0.7,0.5l0.6-0.6l0.4,1.5l2.4,2c0.2,0.1,0.4,0,0.4-0.2l-0.2-1
			c-0.4-1.7-1.3-3.2-2.6-4.3l0,0L316,517.8z"/>
		<path class="st12" d="M316,517.8c0,0.1,0,0.1,0,0.2l0.7,0.5l0.6-0.6l0.4,1.5l2.4,2c0.2,0.1,0.4,0,0.4-0.2l-0.2-1
			c-0.4-1.7-1.3-3.2-2.6-4.3l0,0L316,517.8z"/>
	</g>
	<path class="st2" d="M313.8,500.9l-3.3-5.7l-4.4-2.1c-1.1-0.5-2.4,0.3-2.3,1.6l-0.1,6.9l-1.6,5.6l8,3.8l-0.8-7.9l0.2-1.7l0.6-0.7
		c0.3-0.3,0.4-0.7,0.3-1.1l-0.4-1.7l2.8,4.8l0,0l0,0h7.6V501L313.8,500.9L313.8,500.9z"/>
	<path class="st8" d="M323.7,500.6c-0.3-0.6-1-0.9-1.6-0.5l-0.8,0.5c-0.1-0.1-0.1-0.2-0.3-0.2c-0.3-0.1-0.6,0.1-0.8,0.4l0,0
		c-0.5,1.4,1,2.6,2.3,1.9l0.5-0.3C323.6,502.1,324,501.2,323.7,500.6z"/>
	<g>
		<rect x="227" y="450.3" class="st7" width="15.8" height="16.5"/>
		<path class="st7" d="M236.2,483.6L236.2,483.6l-32.8,16.2c-6.9,4.6-13.8,0.3-15.1-0.7c-3.5-2.6-23.2-15.1-23.2-15.1v20.1
			c0,1.9,1.3,3.1,4.2,5.1c0,0,20.9,12.7,22,13.2l0,0l0,0c2,0.9,4.7,1.4,7.6,1.4c3.6,0,6.8-0.8,8.9-2.2l58.7-33.1l0,0
			c2.4-1.4,3.8-3.5,3.8-5.7v-22.1C270.4,460.6,243.9,478.8,236.2,483.6z"/>
		<path class="st2" d="M268.8,459.5v0.8c-5.8-5.6-25.6-15.7-25.6-15.7c-4.8-2.8-10.2-2.4-13.6-0.7c-1.2,0.6-2,1.4-2.7,2.2v-0.8h-1
			v3.1l0,0c0,0.1,0,0.2,0,0.3c0.3,2.1,2.3,3.9,5.7,4.9l0,0c0,0,12.2,5.2,4.5,9.9l0,0l-32.8,20.2c-6.9,4.6-13.8,0.3-15.1-0.7
			c-3.5-2.6-5.4-4.8-11.8-4.8c-4.3,0-8.1,1.2-10,3V481H165v3.1c0,1.9,1.3,3.1,4.2,5.1c0,0,20.9,12.7,22,13.2l0,0l0,0
			c2,0.9,4.7,1.4,7.6,1.4c3.6,0,6.8-0.8,8.9-2.2l58.7-33.1l0,0c2.4-1.4,3.8-3.5,3.8-5.7v-3.1L268.8,459.5z"/>
		<path class="st3" d="M268.8,459.5v0.8c-5.8-5.6-25.6-15.7-25.6-15.7c-4.8-2.8-10.2-2.4-13.6-0.7c-1.2,0.6-2,1.4-2.7,2.2v-0.8h-1
			v3.1l0,0c0,0.1,0,0.2,0,0.3c0.3,2.1,2.3,3.9,5.7,4.9l0,0c0,0,12.2,5.2,4.5,9.9l0,0l-32.8,20.2c-6.9,4.6-13.8,0.3-15.1-0.7
			c-3.5-2.6-5.4-4.8-11.8-4.8c-4.3,0-8.1,1.2-10,3V481H165v3.1c0,1.9,1.3,3.1,4.2,5.1c0,0,20.9,12.7,22,13.2l0,0l0,0
			c2,0.9,4.7,1.4,7.6,1.4c3.6,0,6.8-0.8,8.9-2.2l58.7-33.1l0,0c2.4-1.4,3.8-3.5,3.8-5.7v-3.1L268.8,459.5z"/>
		<path class="st2" d="M270.4,459.6c0-4.3-27.2-18.2-27.2-18.2c-4.8-2.8-10.2-2.4-13.6-0.7c-2.6,1.3-3.8,3.6-3.6,4.9
			c0.3,2.1,2.3,3.9,5.7,4.9l0,0c0,0,12.2,5.2,4.5,9.9l0,0l-30.7,18.9c-6.9,4.6-15.5,0.4-16.8-0.5c-3.5-2.6-5.4-4.8-11.8-4.8
			c-6.3,0-11.9,3.7-11.9,6.8c0,1.9,1.3,3.1,4.2,5.1c0,0,20.9,12.7,22,13.2l0,0l0,0c2,0.9,4.7,1.4,7.6,1.4c3.6,0,6.8-0.8,8.9-2.2
			l58.7-33.1l0,0C268.9,463.9,270.4,461.9,270.4,459.6z"/>
		<path class="st4" d="M270.4,459.6c0-4.3-27.2-18.2-27.2-18.2c-4.8-2.8-10.2-2.4-13.6-0.7c-2.6,1.3-3.8,3.6-3.6,4.9
			c0.3,2.1,2.3,3.9,5.7,4.9l0,0c0,0,12.2,5.2,4.5,9.9l0,0l-30.7,18.9c-6.9,4.6-15.5,0.4-16.8-0.5c-3.5-2.6-5.4-4.8-11.8-4.8
			c-6.3,0-11.9,3.7-11.9,6.8c0,1.9,1.3,3.1,4.2,5.1c0,0,20.9,12.7,22,13.2l0,0l0,0c2,0.9,4.7,1.4,7.6,1.4c3.6,0,6.8-0.8,8.9-2.2
			l58.7-33.1l0,0C268.9,463.9,270.4,461.9,270.4,459.6z"/>
		<path class="st4" d="M270.4,459.6c0-4.3-27.2-18.2-27.2-18.2c-4.8-2.8-10.2-2.4-13.6-0.7c-2.6,1.3-3.8,3.6-3.6,4.9
			c0.3,2.1,2.3,3.9,5.7,4.9l0,0c0,0,12.2,5.2,4.5,9.9l0,0l-30.7,18.9c-6.9,4.6-15.5,0.4-16.8-0.5c-3.5-2.6-5.4-4.8-11.8-4.8
			c-6.3,0-11.9,3.7-11.9,6.8c0,1.9,1.3,3.1,4.2,5.1c0,0,20.9,12.7,22,13.2l0,0l0,0c2,0.9,4.7,1.4,7.6,1.4c3.6,0,6.8-0.8,8.9-2.2
			l58.7-33.1l0,0C268.9,463.9,270.4,461.9,270.4,459.6z"/>
	</g>
	<polygon class="st5" points="307,505.9 294,512.9 308.1,520.7 321.2,513.7 	"/>
	<polygon class="st5" points="324.4,509.5 309.4,518.5 309.4,527.2 324.4,518.2 	"/>
	<polygon class="st5" points="321.4,507.7 306.4,516.8 309.4,518.5 324.4,509.5 	"/>
	<polygon class="st5" points="306.4,516.8 306.4,508 292,499.9 292,508.6 289,506.9 289,515.6 309.4,527.2 309.4,518.5 	"/>
	<polyline class="st5" points="308.9,506.3 306.4,508 306.4,516.8 308.9,515.1 	"/>
	<polygon class="st5" points="294.6,498.2 308.9,506.3 306.4,508 292,499.9 	"/>
	<polygon class="st4" points="321.4,507.7 306.4,516.8 309.4,518.5 324.4,509.5 	"/>
	<g>
		<polyline class="st5" points="292,505.1 289,506.9 292.1,508.6 		"/>
		<polyline class="st4" points="292,505.1 289,506.9 292.1,508.6 		"/>
	</g>
	<polygon class="st4" points="294.6,498.2 308.9,506.3 306.4,508 292,499.9 	"/>
	<polygon class="st3" points="306.4,516.8 306.4,508 292,499.9 292,508.6 289,506.9 289,515.6 309.4,527.2 309.4,518.5 	"/>
	<polygon class="st3" points="321.4,507.7 306.4,516.8 309.4,518.5 324.4,509.5 	"/>
	<polyline class="st3" points="292,505.1 289,506.9 292.1,508.6 	"/>
	<polygon class="st7" points="312.2,527.7 309.4,529.6 309.4,527.2 312.2,525.6 	"/>
	<polyline class="st7" points="324.4,518.2 324.4,520.8 321.6,522.5 321.6,519.9 	"/>
	<polygon class="st7" points="306.6,528 309.4,529.6 309.4,527.2 306.6,525.7 	"/>
	<polygon class="st7" points="319.4,521.2 321.6,522.5 321.6,519.9 	"/>
	<polygon class="st7" points="293.7,518.3 291.8,519.6 291.8,517.2 	"/>
	<polygon class="st7" points="289,518 291.8,519.6 291.8,517.2 289,515.6 	"/>
	<polygon class="st6" points="306.6,528 309.4,529.6 309.4,527.2 306.6,525.7 	"/>
	<polygon class="st6" points="319.4,521.2 321.6,522.5 321.6,519.9 	"/>
	<polygon class="st6" points="289,518 291.8,519.6 291.8,517.2 289,515.6 	"/>
	<path class="st7" d="M311.7,488.4c0.3,0.9-0.4,2-1,2l-2.2,10.6c-1.4,0.2-5-0.9-5-0.9c-0.3,0-0.5-0.6-0.5-1.3
		c-0.1-0.8,1.7-8.6,2-9.4c0.1-0.3,0.2-0.5,0.3-0.8c0.7-2.1,3.1-3.2,5-2.2C310.8,486.9,311.4,487.4,311.7,488.4z"/>
	<polygon class="st13" points="231.4,449.5 240.2,444.6 246.1,448 237.3,453 	"/>
	<g>
		
			<rect x="241.2" y="450.5" transform="matrix(0.8417 -0.54 0.54 0.8417 -205.0268 202.517)" class="st2" width="3.3" height="0.8"/>
		
			<rect x="244.2" y="449.6" transform="matrix(0.8417 -0.54 0.54 0.8417 -204.3134 203.1775)" class="st8" width="0.2" height="0.8"/>
		
			<rect x="244.4" y="450.1" transform="matrix(0.8417 -0.54 0.54 0.8417 -204.4058 203.3063)" class="st9" width="0.2" height="0.2"/>
		<path class="st2" d="M245.8,449.6L245.8,449.6l0.1-0.2c0.2-0.1,0.9-0.7,0.8-1c-0.2-0.3-1,0.1-1.2,0.3l-1.2,0.8l0.5,0.7
			L245.8,449.6L245.8,449.6l-1.9,1.2c0.1,0.1,0.2,0.1,0.3,0.1l1.6-1C245.8,449.9,245.9,449.7,245.8,449.6z"/>
		<polygon class="st7" points="240.7,452.3 240.9,452 241.1,452.3 		"/>
		<polygon class="st13" points="241.1,452.2 241.7,452.2 241.2,451.5 240.9,452 		"/>
		
			<rect x="241.4" y="451.1" transform="matrix(0.8417 -0.54 0.54 0.8417 -205.1612 202.7015)" class="st14" width="3.3" height="0.2"/>
		<path class="st14" d="M246.6,448.5l-0.1-0.1c0,0.3-0.6,0.7-0.8,0.8l-1.2,0.8l0.1,0.2l1.2-0.8C246.1,449.4,246.8,448.8,246.6,448.5
			z"/>
		<path class="st14" d="M245.8,449.6L245.8,449.6h-0.2v0.1l-1.8,1.1c0.1,0.1,0.2,0.1,0.3,0.1l1.6-1
			C245.8,449.9,245.9,449.7,245.8,449.6z"/>
	</g>
	<g>
		<polygon class="st5" points="228.9,446 237.3,441.3 238.4,440.7 239.6,441.5 239.6,442.2 243.6,444.6 234.8,449.5 		"/>
		<polygon class="st8" points="228.5,445.7 236.9,441 238,440.4 239.2,441.2 239.2,441.9 243.2,444.2 234.4,449.2 		"/>
	</g>
	<g>
		<ellipse class="st7" cx="190.4" cy="483.1" rx="2.1" ry="1.3"/>
		<path class="st5" d="M190.4,481.8c0.3,0,0.6,0,0.8,0.1c0,0,0,0,0.1,0l0.1-0.3c0,0,0,0-0.1,0c-0.3-0.1-0.6-0.1-0.9-0.1
			c-0.4,0-0.7,0.1-1.1,0.2l0.1,0.3C189.6,481.9,190,481.8,190.4,481.8z"/>
		<g>
			
				<rect x="188.9" y="481.5" transform="matrix(0.8417 -0.54 0.54 0.8417 -230.9372 178.7173)" class="st2" width="0.8" height="3.3"/>
			<rect x="188" y="481.6" transform="matrix(0.8417 -0.54 0.54 0.8417 -230.294 178.0146)" class="st8" width="0.8" height="0.2"/>
			
				<rect x="188.5" y="481.4" transform="matrix(0.8417 -0.54 0.54 0.8417 -230.1565 178.0797)" class="st9" width="0.2" height="0.2"/>
			<path class="st2" d="M188.1,480.2C188.1,480.2,188,480.2,188.1,480.2l-0.2-0.1c-0.1-0.2-0.7-0.9-1-0.8s0.1,1,0.3,1.2l0.8,1.2
				l0.7-0.5l-0.6-0.9h0.1l1.1,1.8c0.1-0.1,0.1-0.2,0.1-0.3l-1-1.6C188.3,480.2,188.2,480.2,188.1,480.2z"/>
			<polygon class="st7" points="190.7,485.3 190.4,485.1 190.7,484.9 			"/>
			<polygon class="st13" points="190.7,484.9 190.6,484.3 189.9,484.8 190.4,485.1 			"/>
			
				<rect x="189.5" y="481.4" transform="matrix(0.8417 -0.54 0.54 0.8417 -230.8361 178.8774)" class="st14" width="0.2" height="3.3"/>
			<path class="st14" d="M186.9,479.4l-0.1,0.1c0.3,0,0.7,0.6,0.8,0.8l0.8,1.2l0.2-0.1l-0.8-1.2
				C187.8,479.9,187.2,479.2,186.9,479.4z"/>
			<path class="st14" d="M188.1,480.2C188.1,480.2,188,480.2,188.1,480.2v0.2h0.1l1.1,1.8c0.1-0.1,0.1-0.2,0.1-0.3l-1-1.6
				C188.3,480.2,188.2,480.2,188.1,480.2z"/>
		</g>
		<g>
			
				<rect x="189.7" y="482.6" transform="matrix(0.229 -0.9734 0.9734 0.229 -322.6212 558.6123)" class="st2" width="3.3" height="0.8"/>
			
				<rect x="191.7" y="480.8" transform="matrix(0.229 -0.9734 0.9734 0.229 -320.5273 557.6902)" class="st8" width="0.2" height="0.8"/>
			
				<rect x="192" y="481.2" transform="matrix(0.229 -0.9734 0.9734 0.229 -320.393 558.0475)" class="st9" width="0.2" height="0.2"/>
			<path class="st2" d="M192.6,480C192.6,479.9,192.6,479.9,192.6,480l-0.1-0.2c0.1-0.2,0.2-1.2-0.1-1.2c-0.3-0.1-0.6,0.8-0.7,1
				l-0.3,1.4l0.8,0.2l0.3-1.1L192.6,480l-0.5,2.1c0.1,0,0.2,0,0.3-0.2l0.4-1.8C192.8,480.1,192.7,480,192.6,480z"/>
			<polygon class="st7" points="190.8,485.4 190.7,485.1 191.1,485.1 			"/>
			<polygon class="st13" points="191,485.1 191.4,484.6 190.6,484.4 190.8,485 			"/>
			
				<rect x="190" y="483" transform="matrix(0.229 -0.9734 0.9734 0.229 -322.4483 559.029)" class="st14" width="3.3" height="0.2"/>
			<path class="st14" d="M192.4,478.6h-0.1c0.2,0.2,0.1,1,0,1.1l-0.3,1.4l0.2,0.1l0.3-1.4C192.6,479.6,192.8,478.6,192.4,478.6z"/>
			<path class="st14" d="M192.6,480C192.6,479.9,192.6,479.9,192.6,480l-0.1,0.2h0.1l-0.5,2c0.1,0,0.2,0,0.3-0.2l0.4-1.8
				C192.8,480.1,192.7,480,192.6,480z"/>
		</g>
		<path class="st2" d="M190.4,484.6c-1.3,0-2.3-0.6-2.5-1.3c0.1,0.5,0.2,1.7,0.3,2.8c0.2,1.5,4,1.5,4.2,0.1c0.1-0.8,0.3-2.3,0.4-2.8
			C192.6,484.1,191.6,484.6,190.4,484.6z"/>
		<path class="st5" d="M192.1,482l-0.1,0.3c0.3,0.2,0.5,0.5,0.5,0.8c0,0.7-0.9,1.3-2.1,1.3c-1.1,0-2.1-0.6-2.1-1.3
			c0-0.2,0.1-0.4,0.2-0.5l-0.2-0.3c-0.3,0.2-0.4,0.5-0.4,0.9c0,0.8,1.1,1.5,2.5,1.5s2.5-0.7,2.5-1.5c0-0.4-0.2-0.7-0.6-1
			c-0.1,0.1-0.2,0.1-0.2,0L192.1,482L192.1,482z"/>
	</g>
	<g>
		<g>
			<ellipse class="st5" cx="264.4" cy="458" rx="3" ry="1.8"/>
			<ellipse class="st6" cx="264.4" cy="458" rx="3" ry="1.8"/>
			<path class="st2" d="M264.4,459.8c-1.5,0-2.8-0.7-3-1.6c0.1,0.6,0.2,2.1,0.4,3.4c0.2,1.8,4.8,1.8,5.1,0.1
				c0.1-0.9,0.4-2.7,0.5-3.4C267.2,459.2,265.9,459.8,264.4,459.8z"/>
			<ellipse class="st7" cx="264.4" cy="458" rx="2.5" ry="1.5"/>
		</g>
		<g>
			<path class="st8" d="M263.7,456.5c0.7,0.1,1.2,0.7,1.1,1.4c-0.1,0.7-0.7,1.2-1.4,1.1c-0.7-0.1-2.1-2.3-3.5-1.8
				C259.1,457.5,260.8,456.1,263.7,456.5z"/>
			<path class="st8" d="M265,456.6c-0.7,0.1-1.2,0.7-1.1,1.4c0.1,0.7,0.7,1.2,1.4,1.1c0.7-0.1,2.1-2.3,3.5-1.8
				C269.5,457.5,267.9,456.1,265,456.6z"/>
			<path class="st8" d="M265.7,458c-0.3-0.3-0.8-0.3-1.1,0.1s-0.3,0.8,0.1,1.1c0.3,0.3,1.9,0.1,2.2,0.9
				C267,460.5,267,459.1,265.7,458z"/>
			<path class="st8" d="M262.7,457.4c0.4-0.1,0.8,0.1,1,0.4c0.1,0.4-0.1,0.8-0.4,1c-0.4,0.1-1.7-0.6-2.3,0
				C260.6,459.2,261.1,458,262.7,457.4z"/>
			<g>
				<path class="st8" d="M265.2,456.2c-0.1,0.4-0.4,0.7-0.8,0.6s-0.7-0.4-0.6-0.8s1.3-1.2,1-2C264.6,453.5,265.4,454.5,265.2,456.2z
					"/>
				<path class="st12" d="M265.2,456.2c-0.1,0.4-0.4,0.7-0.8,0.6s-0.7-0.4-0.6-0.8s1.3-1.2,1-2C264.6,453.5,265.4,454.5,265.2,456.2
					z"/>
			</g>
			<path class="st12" d="M264.3,458.1c-0.3,0.3-0.9,0.4-1.3,0.5c-0.3,0-1.1-0.3-1.7-0.2c-0.4,0.4-0.5,0.7-0.3,0.5
				c0.6-0.6,1.8,0.1,2.2,0C263.7,458.8,264.2,458.4,264.3,458.1z"/>
			<path class="st12" d="M264.7,458.9c-0.2-0.2-0.5-0.5-0.4-0.8c-0.2,0.3,0,0.7,0.3,1s1.9,0.1,2.2,0.9c0.1,0.2,0.1,0,0-0.4
				C266.3,459,265,459.1,264.7,458.9z"/>
			<path class="st8" d="M263.3,458.3c0.2-0.4,0.6-0.5,1-0.4c0.4,0.2,0.5,0.6,0.4,1s-1.6,0.8-1.6,1.6
				C263,461,262.5,459.8,263.3,458.3z"/>
			<path class="st12" d="M268.3,456.9c-1.7,0.1-2,0.9-2.5,1.3l0.4,0.2c0.7-0.6,1.6-1.5,2.6-1.2C269.2,457.4,268.8,457.1,268.3,456.9
				z"/>
			<path class="st12" d="M262.3,457.6c-0.7-0.5-1.5-1-2.3-0.7l0,0c-0.4,0.2-0.5,0.4-0.2,0.3c0.7-0.2,1.4,0.2,2,0.7L262.3,457.6z"/>
			<g>
				<path class="st8" d="M263.7,455.7c0.3,0.2,0.4,0.7,0.2,1s-0.7,0.4-1,0.2s-0.5-1.7-1.3-1.8C261.1,455,262.3,454.7,263.7,455.7z"
					/>
				<path class="st12" d="M263.1,456.7c-0.2-0.4-0.7-1.7-1.5-1.7c-0.1,0-0.2,0.1,0,0.1c0.9,0.1,1,1.5,1.2,1.8s0.5,0.4,0.9,0.2
					C263.3,457.1,263.2,456.9,263.1,456.7z"/>
			</g>
			<g>
				<path class="st8" d="M264.3,456.1c-0.5,0.4-0.6,1.1-0.3,1.6c0.4,0.5,1.1,0.6,1.6,0.3s0.7-2.6,2-2.8
					C268.3,455,266.5,454.6,264.3,456.1z"/>
				<path class="st12" d="M267.7,455c-1.3,0-1.9,1.9-2.2,2.4c-0.4,0.5-1,0.6-1,0.6c-0.6-0.1,0.8,0.3,1.3,0s0.7-2.6,2-2.8
					C267.9,455.1,267.8,455,267.7,455z"/>
			</g>
			<path class="st12" d="M264.6,458.2c0,0.1,0,0.3,0,0.5c-0.2,0.4-1.6,0.8-1.6,1.6l0,0c0,0.3,0.1,0.4,0.1,0.2c0-0.9,1.4-1.3,1.6-1.6
				C264.8,458.7,264.7,458.4,264.6,458.2z"/>
		</g>
	</g>
	<g>
		<g>
			<ellipse class="st5" cx="174.9" cy="477.7" rx="3" ry="1.8"/>
			<ellipse class="st6" cx="174.9" cy="477.7" rx="3" ry="1.8"/>
			<path class="st2" d="M174.9,479.5c-1.5,0-2.8-0.7-3-1.6c0.1,0.6,0.2,2.1,0.4,3.4c0.2,1.8,4.8,1.8,5.1,0.1
				c0.1-0.9,0.4-2.7,0.5-3.4C177.7,478.8,176.4,479.5,174.9,479.5z"/>
			<ellipse class="st7" cx="174.9" cy="477.7" rx="2.5" ry="1.5"/>
		</g>
		<g>
			<path class="st8" d="M174.2,476.1c0.7,0.1,1.2,0.7,1.1,1.4c-0.1,0.7-0.7,1.2-1.4,1.1s-2.1-2.3-3.5-1.8
				C169.6,477.1,171.3,475.7,174.2,476.1z"/>
			<path class="st8" d="M175.5,476.2c-0.7,0.1-1.2,0.7-1.1,1.4c0.1,0.7,0.7,1.2,1.4,1.1s2.1-2.3,3.5-1.8
				C180.1,477.2,178.4,475.8,175.5,476.2z"/>
			<path class="st8" d="M176.2,477.6c-0.3-0.3-0.8-0.3-1.1,0.1c-0.3,0.3-0.3,0.8,0.1,1.1c0.3,0.3,1.9,0.1,2.2,0.9
				C177.5,480.1,177.5,478.8,176.2,477.6z"/>
			<path class="st8" d="M173.2,477.1c0.4-0.1,0.8,0.1,1,0.4c0.1,0.4-0.1,0.8-0.4,1c-0.4,0.1-1.7-0.6-2.3,0
				C171.1,478.9,171.6,477.7,173.2,477.1z"/>
			<g>
				<path class="st8" d="M175.7,475.8c-0.1,0.4-0.4,0.7-0.8,0.6c-0.4-0.1-0.7-0.4-0.6-0.8c0.1-0.4,1.3-1.2,1-2
					C175.1,473.2,175.9,474.2,175.7,475.8z"/>
				<path class="st12" d="M175.7,475.8c-0.1,0.4-0.4,0.7-0.8,0.6c-0.4-0.1-0.7-0.4-0.6-0.8c0.1-0.4,1.3-1.2,1-2
					C175.1,473.2,175.9,474.2,175.7,475.8z"/>
			</g>
			<path class="st12" d="M174.8,477.8c-0.3,0.3-0.9,0.4-1.3,0.5c-0.3,0-1.1-0.3-1.7-0.2c-0.4,0.4-0.5,0.7-0.3,0.5
				c0.6-0.6,1.8,0.1,2.2,0C174.3,478.5,174.7,478.1,174.8,477.8z"/>
			<path class="st12" d="M175.2,478.5c-0.2-0.2-0.5-0.5-0.4-0.8c-0.2,0.3,0,0.7,0.3,1s1.9,0.1,2.2,0.9c0.1,0.2,0.1,0,0-0.4
				C176.8,478.6,175.5,478.8,175.2,478.5z"/>
			<path class="st8" d="M173.8,478c0.2-0.4,0.6-0.5,1-0.4c0.4,0.2,0.5,0.6,0.4,1c-0.2,0.4-1.6,0.8-1.6,1.6
				C173.6,480.7,173.1,479.5,173.8,478z"/>
			<path class="st12" d="M178.9,476.6c-1.7,0.1-2,0.9-2.5,1.3l0.4,0.2c0.7-0.6,1.6-1.5,2.6-1.2C179.7,477.1,179.3,476.8,178.9,476.6
				z"/>
			<path class="st12" d="M172.8,477.3c-0.7-0.5-1.5-1-2.3-0.7l0,0c-0.4,0.2-0.5,0.4-0.2,0.3c0.7-0.2,1.4,0.2,2,0.7L172.8,477.3z"/>
			<g>
				<path class="st8" d="M174.3,475.4c0.3,0.2,0.4,0.7,0.2,1s-0.7,0.4-1,0.2s-0.5-1.7-1.3-1.8C171.6,474.7,172.9,474.4,174.3,475.4z
					"/>
				<path class="st12" d="M173.6,476.3c-0.2-0.4-0.7-1.7-1.5-1.7c-0.1,0-0.2,0.1,0,0.1c0.9,0.1,1,1.5,1.2,1.8s0.5,0.4,0.9,0.2
					C173.9,476.8,173.7,476.6,173.6,476.3z"/>
			</g>
			<g>
				<path class="st8" d="M174.9,475.8c-0.5,0.4-0.6,1.1-0.3,1.6c0.4,0.5,1.1,0.6,1.6,0.3c0.5-0.4,0.7-2.6,2-2.8
					C178.9,474.7,177,474.3,174.9,475.8z"/>
				<path class="st12" d="M178.2,474.7c-1.3,0-1.9,1.9-2.2,2.4c-0.4,0.5-1,0.6-1,0.6c-0.6-0.1,0.8,0.3,1.3,0s0.7-2.6,2-2.8
					C178.4,474.8,178.4,474.7,178.2,474.7z"/>
			</g>
			<path class="st12" d="M175.1,477.9c0,0.1,0,0.3,0,0.5c-0.2,0.4-1.6,0.8-1.6,1.6l0,0c0,0.3,0.1,0.4,0.1,0.2c0-0.9,1.4-1.3,1.6-1.6
				C175.3,478.4,175.2,478.1,175.1,477.9z"/>
		</g>
	</g>
	<g>
		<ellipse class="st6" cx="216.5" cy="480.8" rx="2" ry="1.4"/>
		<path class="st2" d="M219,481.2c-0.2-0.1-0.5,0.1-0.7,0.4c0-0.2,0.1-0.5,0.1-0.6c-0.1,0.7-1,1.2-1.9,1.2c-1,0-1.8-0.5-1.9-1.2
			c0,0.4,0.2,1.6,0.2,2.5c0.1,1.3,3.1,1.3,3.3,0c0-0.1,0-0.1,0-0.2c0.1,0.2,0.2,0.3,0.3,0.3c0.4,0.1,0.8-0.3,1-1
			C219.6,481.9,219.4,481.3,219,481.2z M219.1,482.4c-0.1,0.5-0.4,0.9-0.6,0.8c-0.2-0.1-0.4-0.5-0.2-1c0.1-0.5,0.4-0.6,0.6-0.5
			C219.1,481.8,219.2,482,219.1,482.4z"/>
		<ellipse class="st7" cx="216.5" cy="480.8" rx="1.6" ry="1.1"/>
		<path class="st11" d="M216.5,480.6c-0.6,0-1.2,0.3-1.4,0.6c0.3,0.4,0.8,0.6,1.4,0.6s1.2-0.3,1.4-0.6
			C217.7,480.9,217.1,480.6,216.5,480.6z"/>
	</g>
	<g>
		<ellipse class="st6" cx="332.6" cy="500.3" rx="2" ry="1.4"/>
		<path class="st2" d="M335.2,500.7c-0.2-0.1-0.5,0.1-0.7,0.4c0-0.2,0.1-0.5,0.1-0.6c-0.1,0.7-1,1.2-1.9,1.2c-1,0-1.8-0.5-1.9-1.2
			c0,0.4,0.2,1.6,0.2,2.5c0.1,1.3,3.1,1.3,3.3,0c0-0.1,0-0.1,0-0.2c0.1,0.2,0.2,0.3,0.3,0.3c0.4,0.1,0.8-0.3,1-1
			C335.7,501.4,335.5,500.8,335.2,500.7z M335.3,501.9c-0.1,0.5-0.4,0.9-0.6,0.8s-0.4-0.5-0.2-1c0.1-0.5,0.4-0.6,0.6-0.5
			S335.3,501.5,335.3,501.9z"/>
		<ellipse class="st7" cx="332.6" cy="500.3" rx="1.6" ry="1.1"/>
		<path class="st11" d="M332.6,500.1c-0.6,0-1.2,0.3-1.4,0.6c0.3,0.4,0.8,0.6,1.4,0.6s1.2-0.3,1.4-0.6
			C333.8,500.4,333.2,500.1,332.6,500.1z"/>
	</g>
	<g>
		<ellipse class="st15" cx="332.1" cy="490.3" rx="2" ry="1.4"/>
		<path class="st8" d="M329.2,492.1c0.2,0.7,0.6,1.1,1,1c0.1,0,0.2-0.2,0.3-0.3c0,0.1,0,0.1,0,0.2c0.2,1.3,3.2,1.3,3.3,0
			c0.1-0.9,0.2-2.1,0.2-2.5c-0.1,0.7-0.9,1.2-1.9,1.2s-1.8-0.5-1.9-1.2c0,0.1,0,0.4,0.1,0.6c-0.2-0.3-0.5-0.5-0.7-0.4
			C329.2,490.8,329,491.4,329.2,492.1z M329.7,491.2c0.2-0.1,0.5,0.1,0.6,0.5c0.1,0.5,0,0.9-0.2,1s-0.6-0.3-0.6-0.8
			C329.4,491.5,329.5,491.3,329.7,491.2z"/>
		<ellipse class="st7" cx="332.1" cy="490.3" rx="1.6" ry="1.1"/>
		<path class="st16" d="M332.1,490.2c0.6,0,1.2,0.3,1.4,0.6c-0.3,0.4-0.8,0.6-1.4,0.6s-1.2-0.3-1.4-0.6
			C330.9,490.4,331.5,490.2,332.1,490.2z"/>
	</g>
	<g>
		<path class="st5" d="M346.1,472.8L346.1,472.8c0.6,0.8,0.4,1.9-0.4,2.4l-5.2,3.7c-0.8,0.6-1.9,0.4-2.4-0.4l0,0
			c-0.6-0.8-0.4-1.9,0.4-2.4l5.2-3.7C344.5,471.8,345.6,472,346.1,472.8z"/>
		<path class="st9" d="M346.1,472.8L346.1,472.8c0.6,0.8,0.4,1.9-0.4,2.4l-5.2,3.7c-0.8,0.6-1.9,0.4-2.4-0.4l0,0
			c-0.6-0.8-0.4-1.9,0.4-2.4l5.2-3.7C344.5,471.8,345.6,472,346.1,472.8z"/>
	</g>
	<g>
		<path class="st5" d="M340.5,478.7L340.5,478.7c-0.7,0.7-1.8,0.6-2.5-0.1l-4.4-4.6c-0.7-0.7-0.6-1.8,0.1-2.5l0,0
			c0.7-0.7,1.8-0.6,2.5,0.1l4.4,4.6C341.3,477,341.2,478.1,340.5,478.7z"/>
		<path class="st9" d="M340.5,478.7L340.5,478.7c-0.7,0.7-1.8,0.6-2.5-0.1l-4.4-4.6c-0.7-0.7-0.6-1.8,0.1-2.5l0,0
			c0.7-0.7,1.8-0.6,2.5,0.1l4.4,4.6C341.3,477,341.2,478.1,340.5,478.7z"/>
	</g>
	<path class="st2" d="M352.1,490.6l-7.7-3.7c-0.2-0.1-0.4-0.3-0.4-0.6v-15l2.2-0.8c1.7-0.6,3.6-0.2,4.9,1.1l0.8,0.8
		c1.1,1.1,1.7,2.6,1.6,4.2l-0.4,13.4C353.1,490.5,352.6,490.8,352.1,490.6z"/>
	<path class="st8" d="M346.4,472.2h-0.3c-1.2,0.2-2.2-0.6-2.4-1.8l-0.3-2.3c-0.2-1.2,0.6-2.2,1.8-2.4h0.3c1.2-0.2,2.2,0.6,2.4,1.8
		l0.3,2.3C348.4,471,347.6,472.1,346.4,472.2z"/>
	<path class="st8" d="M333.1,469.6c0.7-0.4,1.7-0.2,2.1,0.6l0.5,0.9c0.1-0.1,0.3-0.1,0.4,0c0.4,0.1,0.6,0.5,0.5,0.9
		s-0.4,1.4-1.2,1.8c-0.8,0.4-1.7,0.2-2.1-0.6l-0.8-1.4C332.1,470.9,332.4,470,333.1,469.6z"/>
	<path class="st8" d="M343.2,479.5c0.2-0.8,1-1.3,1.9-1.1l1,0.3c0.1-0.1,0.1-0.3,0.3-0.4c0.3-0.2,0.8-0.1,1,0.2
		c0.2,0.3,0.7,1.2,0.4,2.1s-1,1.3-1.9,1.1l-1.6-0.4C343.5,481.1,343,480.3,343.2,479.5z"/>
	<g>
		<path class="st5" d="M349.9,474.8l1.4,4.6c0,0.1-0.1,0.3-0.2,0.2l-3.3-0.6c-0.9-0.2-1.8,0.4-1.9,1.3l0,0c-0.2,0.9,0.4,1.8,1.3,1.9
			l5.8,1.1c0.8,0.2,1.7-0.3,1.9-1.2l0,0c0.2-0.8,0.2-1.7,0-2.5l-1.8-5.9c-0.3-0.9-1.2-1.4-2.1-1.1l0,0
			C350.1,473,349.6,473.9,349.9,474.8z"/>
		<path class="st9" d="M349.9,474.8l1.4,4.6c0,0.1-0.1,0.3-0.2,0.2l-3.3-0.6c-0.9-0.2-1.8,0.4-1.9,1.3l0,0c-0.2,0.9,0.4,1.8,1.3,1.9
			l5.8,1.1c0.8,0.2,1.7-0.3,1.9-1.2l0,0c0.2-0.8,0.2-1.7,0-2.5l-1.8-5.9c-0.3-0.9-1.2-1.4-2.1-1.1l0,0
			C350.1,473,349.6,473.9,349.9,474.8z"/>
	</g>
	<path class="st2" d="M343.4,465.6c-0.6,0.7-0.2,1,0.3,1.3l2,0.6c1.2,0.7,1.3,3,1.3,3c0.5,0.2,1.2,0,1.4-0.6c0,0,0.4-4.3-0.2-4.6
		C348.3,465.4,345.5,463.1,343.4,465.6z"/>
	<g>
		<polygon class="st7" points="227.1,482 227.1,483 221,479.9 221,478.8 		"/>
		<polygon class="st7" points="227.1,482 241.1,473.4 241.5,474.2 227.1,483 		"/>
		<g>
			<g>
				<polygon class="st7" points="235.1,470.1 241.1,473.4 227.1,482 221,478.8 				"/>
				<g>
					<polygon class="st5" points="227.3,478.4 226.5,479 227.3,479.4 228.1,478.9 					"/>
					<polygon class="st5" points="228.6,477.6 227.7,478.2 228.5,478.6 229.4,478.1 					"/>
					<polygon class="st5" points="228.5,479.1 227.7,479.7 228.5,480.1 229.4,479.6 					"/>
					<polygon class="st5" points="229.8,478.3 228.9,478.9 229.7,479.3 230.6,478.8 					"/>
					<polygon class="st5" points="229.8,476.9 228.6,477.6 229.4,478.1 230.7,477.3 					"/>
					<polygon class="st5" points="232.4,475.3 231.5,475.8 232.3,476.3 233.2,475.7 					"/>
					<polygon class="st5" points="233.6,474.5 232.7,475 233.5,475.5 234.4,474.9 					"/>
					<polygon class="st5" points="236,474.5 232,476.9 232.8,477.4 236.8,474.9 					"/>
					<polygon class="st5" points="234.9,473.7 234,474.3 234.8,474.7 235.7,474.1 					"/>
					<polygon class="st5" points="236.1,472.9 235.3,473.5 236.1,473.9 236.9,473.4 					"/>
					<polygon class="st5" points="237.3,473.7 236.5,474.2 237.3,474.6 238.1,474.1 					"/>
					<polygon class="st5" points="238.7,472.9 237.8,473.5 238.6,473.9 239.5,473.3 					"/>
					<polygon class="st5" points="237.4,472.1 236.5,472.7 237.3,473.1 238.2,472.6 					"/>
					<polygon class="st5" points="226.1,477.8 225.2,478.3 226,478.8 226.9,478.2 					"/>
					<polygon class="st5" points="227.3,477 226.5,477.6 227.7,478.2 228.6,477.6 					"/>
					<polygon class="st5" points="228.6,476.2 227.7,476.8 228.5,477.2 229.4,476.7 					"/>
					<polygon class="st5" points="229.9,475.4 229,476 229.8,476.4 230.7,475.9 					"/>
					<polygon class="st5" points="231.1,474.7 230.2,475.2 231,475.6 231.9,475.1 					"/>
					<polygon class="st5" points="232.4,473.9 231.5,474.4 232.3,474.8 233.2,474.3 					"/>
					<polygon class="st5" points="233.6,473.1 232.8,473.6 233.6,474.1 234.4,473.5 					"/>
					<polygon class="st5" points="234.9,472.3 234,472.8 234.8,473.3 235.7,472.7 					"/>
					<polygon class="st5" points="236.1,471.5 235.3,472.1 236.1,472.5 237,472 					"/>
					<polygon class="st5" points="224.8,477.2 224,477.7 224.8,478.1 225.7,477.6 					"/>
					<polygon class="st5" points="226,479.3 225.1,479.8 225.9,480.2 226.8,479.7 					"/>
					<polygon class="st5" points="227.2,480 226.3,480.5 227.1,480.9 228,480.4 					"/>
					<polygon class="st5" points="224.7,478.6 223.9,479.2 224.7,479.6 225.6,479.1 					"/>
					<polygon class="st5" points="223.5,478 222.6,478.6 223.4,479 224.3,478.4 					"/>
					<polygon class="st5" points="226.1,476.4 225.2,476.9 226,477.4 226.9,476.8 					"/>
					<polygon class="st5" points="227.4,475.6 226.5,476.1 227.3,476.6 228.2,476 					"/>
					<polygon class="st5" points="228.6,474.8 227.7,475.4 228.5,475.8 229.4,475.3 					"/>
					<polygon class="st5" points="229.9,474 229,474.6 229.8,475 230.7,474.5 					"/>
					<polygon class="st5" points="231.1,473.3 230.3,473.8 231.1,474.2 231.9,473.7 					"/>
					<polygon class="st5" points="232.4,472.5 231.5,473 232.3,473.4 233.2,472.9 					"/>
					<polygon class="st5" points="233.6,471.7 232.8,472.2 233.6,472.7 234.5,472.1 					"/>
					<polygon class="st5" points="234.9,470.9 234,471.4 234.8,471.9 235.7,471.3 					"/>
				</g>
			</g>
			<polygon class="st6" points="227.1,482 227.1,483 221,479.9 221,478.8 			"/>
			<polygon class="st11" points="227.1,482 241.1,473.4 241.5,474.2 227.1,483 			"/>
		</g>
	</g>
	<g>
		<g>
			<polygon class="st7" points="244.1,473.1 244.1,459 226.2,469.5 226.2,483.6 			"/>
			<polygon class="st7" points="226.2,469.5 225.3,469 225.3,483.1 226.2,483.6 			"/>
			<polygon class="st7" points="226.2,469.5 244.1,459 243.3,458.5 225.3,469 			"/>
			<polygon class="st11" points="226.2,469.5 244.1,459 243.3,458.5 225.3,469 			"/>
			<polygon class="st12" points="226.2,469.5 225.3,469 225.3,483.1 226.2,483.6 			"/>
		</g>
	</g>
	<path class="st5" d="M203.8,475l-0.2,5.7c0,0.2,0,0.4,0.5,0.2l2.4-1.3c0.9-0.5,2.1-0.5,2.6,0.5c0.5,0.9,0,1.9-0.9,2.3l-5.7,3
		c-0.9,0.5-2.7,0.1-2.4-3.4v-7c0-1.1,0.9-1.9,1.9-1.9l0,0C202.9,473.1,203.8,473.9,203.8,475z"/>
	<g>
		<g>
			<g>
				<path class="st5" d="M199,501.5l-0.2,0.2c-0.6,0.8-0.4,2,0.4,2.6l6.3,4.5c0.8,0.6,2,0.4,2.6-0.4l0.2-0.2c0.6-0.8,0.4-2-0.4-2.6
					l-6.3-4.5C200.8,500.4,199.6,500.6,199,501.5z"/>
				<path class="st9" d="M199,501.5l-0.2,0.2c-0.6,0.8-0.4,2,0.4,2.6l6.3,4.5c0.8,0.6,2,0.4,2.6-0.4l0.2-0.2c0.6-0.8,0.4-2-0.4-2.6
					l-6.3-4.5C200.8,500.4,199.6,500.6,199,501.5z"/>
			</g>
			<g>
				<path class="st5" d="M204.9,507.6l0.1,0.3c0.4,0.9,1.5,1.4,2.4,1l7.2-2.9c0.9-0.4,1.4-1.5,1-2.4l-0.1-0.3
					c-0.4-0.9-1.5-1.4-2.4-1l-7.2,2.9C205,505.6,204.6,506.7,204.9,507.6z"/>
				<path class="st9" d="M204.9,507.6l0.1,0.3c0.4,0.9,1.5,1.4,2.4,1l7.2-2.9c0.9-0.4,1.4-1.5,1-2.4l-0.1-0.3
					c-0.4-0.9-1.5-1.4-2.4-1l-7.2,2.9C205,505.6,204.6,506.7,204.9,507.6z"/>
			</g>
		</g>
		<path class="st2" d="M195.6,527.3l0.6-8.7h4l-0.7,10.7c0,0.4-0.2,0.8-0.5,1.1l-6.8,8.7l-4-1.2l6.8-9.6
			C195.4,528.1,195.6,527.7,195.6,527.3z"/>
		<path class="st8" d="M191.4,518.7h4.8v3.6l11.2,15.6l-3,2.6l-7.7-10l-4.1-5.5c-0.8-1.1-1.3-2.4-1.3-3.7L191.4,518.7z"/>
		<path class="st5" d="M192,523.1l8.9-4.3c0.3-0.1,0.4-0.4,0.4-0.7v-17.3l-2.5-0.9c-2-0.7-4.2-0.2-5.6,1.3l-0.9,0.9
			c-1.2,1.3-1.9,3-1.9,4.8l0.5,15.4C190.9,523,191.5,523.4,192,523.1z"/>
		<path class="st2" d="M195.6,493.2c0,0-0.2-1.3,1.1-1.3s1.7,0,1.7,0c0.6,0,1,0.5,1,1v0.5c0,0,1.1,0,1.1,0.9s0,0.9,0,0.9
			c0,0.6-0.5,1-1,1H199c-0.6,0-1,0.5-1,1l0,0c0,0.6-0.5,1-1,1h-1.8c-0.6,0-1-0.5-1-1v-3.1c0-0.6,0.5-1,1-1h0.4L195.6,493.2
			L195.6,493.2z"/>
		<path class="st7" d="M205.6,542.4l6.4-2.5c0.3-0.1,0.5-0.5,0.4-0.8l0,0c-0.6-1.5-2.3-2.2-3.8-1.7l-4.7,1.8l1.1,2.8
			C205.1,542.4,205.4,542.5,205.6,542.4z"/>
		<path class="st7" d="M188.4,541.6l6.5,2c0.3,0.1,0.7-0.1,0.8-0.4l0,0c0.5-1.5-0.4-3.2-1.9-3.6l-4.9-1.5L188,541
			C187.9,541.3,188.1,541.5,188.4,541.6z"/>
		<path class="st8" d="M197.3,501.5h0.5c1.1,0,2-0.9,2-2v-2.4c0-1.1-0.9-2-2-2h-0.5c-1.1,0-2,0.9-2,2v2.4
			C195.3,500.6,196.2,501.5,197.3,501.5z"/>
		<g>
			<path class="st5" d="M193.7,505.5v5.5c0,0.2,0.2,0.3,0.3,0.2l3.4-1.8c0.9-0.5,2.1-0.1,2.6,0.8l0,0c0.5,0.9,0.1,2.1-0.8,2.6
				l-6,3.2c-0.9,0.5-1.9,0.2-2.5-0.6l0,0c-0.5-0.8-0.8-1.8-0.8-2.8v-7c0-1.1,0.9-1.9,1.9-1.9l0,0
				C192.8,503.5,193.7,504.4,193.7,505.5z"/>
			<path class="st9" d="M193.7,505.5v5.5c0,0.2,0.2,0.3,0.3,0.2l3.4-1.8c0.9-0.5,2.1-0.1,2.6,0.8l0,0c0.5,0.9,0.1,2.1-0.8,2.6
				l-6,3.2c-0.9,0.5-1.9,0.2-2.5-0.6l0,0c-0.5-0.8-0.8-1.8-0.8-2.8v-7c0-1.1,0.9-1.9,1.9-1.9l0,0
				C192.8,503.5,193.7,504.4,193.7,505.5z"/>
		</g>
	</g>
	<g>
		<path class="st5" d="M208.3,472.2l4.9,2.5c0.1,0.1,0.2,0.3,0,0.4l-3.2,2.2c-0.9,0.6-1.1,1.8-0.5,2.7l0,0c0.6,0.9,1.8,1.1,2.7,0.5
			l5.6-3.9c2.6-1.7,0.1-3.9-1.5-4.5l-6.3-3.2c-0.9-0.5-2.1-0.1-2.6,0.8l0,0C207,470.5,207.4,471.7,208.3,472.2z"/>
		<path class="st9" d="M208.3,472.2l4.9,2.5c0.1,0.1,0.2,0.3,0,0.4l-3.2,2.2c-0.9,0.6-1.1,1.8-0.5,2.7l0,0c0.6,0.9,1.8,1.1,2.7,0.5
			l5.6-3.9c2.6-1.7,0-3.6-1.5-4.5l-6.3-3.2c-0.9-0.5-2.1-0.1-2.6,0.8l0,0C207,470.5,207.4,471.7,208.3,472.2z"/>
	</g>
	<path class="st5" d="M201.1,482.3l8.9-4.3c0.3-0.1,0.4-0.4,0.4-0.7l1.5-2.2c0.4-0.9,0.3-2-0.4-2.8l-1.5-1.6l-1-2.5
		c-2-0.7-4.2-0.2-5.6,1.3l-0.9,0.9c-1.2,1.3-2.2,3-2.1,4.8v6.4C200.2,482.2,200.6,482.6,201.1,482.3z"/>
	<path class="st8" d="M207.2,468.4h0.5c1.1,0,2-0.9,2-2V464c0-1.1-0.9-2-2-2h-0.5c-1.1,0-2,0.9-2,2v2.4
		C205.2,467.5,206.1,468.4,207.2,468.4z"/>
	<path class="st9" d="M203.8,474.8l-0.2,5.7c0,0.2,0,0.4,0.5,0.2l2.4-1.3c0.9-0.5,2.1-0.5,2.6,0.5c0.5,0.9,0,1.9-0.9,2.3l-5.7,3
		c-0.9,0.5-2.7,0.1-2.4-3.4v-7c0-1.1,0.9-1.9,1.9-1.9l0,0C202.9,472.9,203.8,473.8,203.8,474.8z"/>
	<path class="st2" d="M205.5,458.7c1.3,0,1.3,0,1.3,0c0.6,0,2.7,0.5,2.7,2.5c0,0.9,0,0.9,0,0.9c0,0.6-1.1,1-1.6,1h-0.5
		c-0.6,0-1,7.5-1,8l0,0c0,0.6-0.5,1-1,1h-1.8c-0.6,0-1-0.5-1-1v-8.9C202.4,460.2,204.2,458.7,205.5,458.7z"/>
	<path class="st9" d="M205.5,458.7c1.3,0,1.3,0,1.3,0c0.6,0,2.7,0.5,2.7,2.5c0,0.9,0,0.9,0,0.9c0,0.6-1.1,1-1.6,1h-0.5
		c-0.6,0-1,7.5-1,8l0,0c0,0.6-0.5,1-1,1h-1.8c-0.6,0-1-0.5-1-1v-8.9C202.4,460.2,204.2,458.7,205.5,458.7z"/>
	<g>
		<g>
			<g id="XMLID_65_">
				<g>
					<path class="st5" d="M212.5,505L212.5,505"/>
				</g>
			</g>
		</g>
	</g>
	<polyline class="st2" points="236.6,585.2 124.3,521 124.3,509.2 236.6,573.2 	"/>
	<polyline class="st3" points="236.6,585.2 124.3,521 124.3,509.2 236.6,573.2 	"/>
	<g>
		<g>
			<path class="st5" d="M308.4,360.8l-34.3,59.3l-8,6.5c-1.8,1.4-4.5,4.1-4.3,8.2v7.1l15-9.2l36-61.8l15.8-9.1v-6.1
				c0-3.3-2.6-4.3-5.7-2.8L308.4,360.8z"/>
			<g>
				<path class="st5" d="M323.7,351.1c0,0-1.1-0.5-3.6,0.8l-13.7,7.6L272,419.1l-7.5,6.2c-1.8,1.4-4.8,4.6-4.9,8.8v6.7l2,1.1
					c0,0,0-5.5,0-7c0-4.7,2.8-7,4.3-8.3l8-6.5l34.3-59.3c0,0,12.5-7,14.5-8c2-1.1,3.1-0.7,3.6-0.5L323.7,351.1z"/>
				<path class="st5" d="M331.7,342.6l0.1,0.1C331.9,342.6,331.8,342.6,331.7,342.6z"/>
			</g>
		</g>
		<g>
			<path class="st3" d="M308.4,360.8l-34.3,59.3l-8,6.5c-1.8,1.4-4.5,4.1-4.3,8.2v7.1l15-9.2l36-61.8l15.8-9.1v-6.1
				c0-3.3-2.6-4.3-5.7-2.8L308.4,360.8z"/>
			<g>
				<path class="st4" d="M323.7,351.1c0,0-1.1-0.5-3.6,0.8l-13.7,7.6L272,419.1l-7.5,6.2c-1.8,1.4-4.8,4.6-4.9,8.8v6.7l2,1.1
					c0,0,0-5.5,0-7c0-4.7,2.8-7,4.3-8.3l8-6.5l34.3-59.3c0,0,12.5-7,14.5-8c2-1.1,3.1-0.7,3.6-0.5L323.7,351.1z"/>
				<path class="st5" d="M331.7,342.6l0.1,0.1C331.9,342.6,331.8,342.6,331.7,342.6z"/>
			</g>
		</g>
	</g>
	<polyline class="st2" points="341.7,370.2 327.1,360.9 310.3,369.4 326.8,379.1 329.6,377.5 	"/>
	<polyline class="st7" points="321.2,388.8 304.7,379 304.7,382.3 321.2,391.9 321.2,388.8 	"/>
	<polygon class="st2" points="324,384 307.5,374.4 310.3,372.7 326.8,382.3 	"/>
	<polyline class="st7" points="324,387.2 307.5,377.4 307.5,374.4 324,384 	"/>
	<polyline class="st2" points="324,384 324,387.2 307.5,377.4 304.7,379 321.2,388.8 324,387.2 	"/>
	<polyline class="st7" points="315.5,398.4 299.1,388.7 299,392 315.5,401.5 315.5,398.4 	"/>
	<polygon class="st2" points="318.3,393.4 301.8,383.7 304.7,382.3 321.2,391.9 	"/>
	<polyline class="st7" points="318.3,396.8 301.8,387 301.8,383.7 318.3,393.4 	"/>
	<polyline class="st2" points="318.3,393.4 318.3,396.8 301.8,387 299.1,388.7 315.5,398.4 318.3,396.8 	"/>
	<polyline class="st7" points="309.9,408.1 293.4,398.4 293.4,401.6 309.9,411.2 309.9,408.1 	"/>
	<polygon class="st2" points="312.7,403.3 296.2,393.7 299,392 315.5,401.5 	"/>
	<polyline class="st7" points="312.7,406.5 296.2,396.7 296.2,393.7 312.7,403.3 	"/>
	<polyline class="st2" points="312.7,403.3 312.7,406.5 296.2,396.7 293.4,398.4 309.9,408.1 312.7,406.5 	"/>
	<polyline class="st7" points="304.2,417.7 287.7,408 287.7,411.2 304.2,420.7 304.2,417.7 	"/>
	<polygon class="st2" points="307,412.8 290.5,403.1 293.4,401.6 309.9,411.2 	"/>
	<polyline class="st7" points="307,416.1 290.5,406.3 290.5,403.1 307,412.8 	"/>
	<polyline class="st2" points="307,412.8 307,416.1 290.5,406.3 287.7,408 304.2,417.7 307,416.1 	"/>
	<polygon class="st2" points="301.3,422.4 284.8,412.8 287.7,411.2 304.2,420.7 	"/>
	<polyline class="st7" points="301.3,425.6 284.8,415.8 284.8,412.8 301.3,422.4 	"/>
	<polyline class="st2" points="301.3,422.4 301.3,425.6 284.8,415.8 282.2,417.4 298.7,427.1 301.3,425.6 	"/>
	<polyline class="st2" points="298.8,430.3 282.3,420.7 282.2,417.4 298.7,427.1 	"/>
	<polyline class="st2" points="293.2,436.8 276.7,427.1 276.7,432.6 293.2,442.3 293.2,436.8 	"/>
	<polygon class="st2" points="296,432 279.5,422.4 282.3,420.7 298.8,430.3 	"/>
	<polyline class="st7" points="296,435.2 279.5,425.4 279.5,422.4 296,432 	"/>
	<polyline class="st2" points="296,432 296,435.2 279.5,425.4 276.7,427.1 293.2,436.8 296,435.2 	"/>
	<polyline class="st7" points="326.8,379.1 310.3,369.4 310.3,372.7 326.8,382.3 326.8,379.1 	"/>
	<polyline class="st2" points="329.6,377.5 313.8,367.9 310.3,369.4 326.8,379.1 329.6,377.5 	"/>
	<polyline class="st2" points="293.2,442.3 276.7,432.6 261.7,441.9 278.1,451.6 	"/>
	<polyline class="st7" points="321.2,388.8 304.7,379 304.7,382.3 321.2,391.9 321.2,388.8 	"/>
	<polyline class="st7" points="324,387.2 307.5,377.4 307.5,374.4 324,384 	"/>
	<polyline class="st7" points="315.5,398.4 299.1,388.7 299,392 315.5,401.5 315.5,398.4 	"/>
	<polyline class="st7" points="318.3,396.8 301.8,387 301.8,383.7 318.3,393.4 	"/>
	<polyline class="st7" points="309.9,408.1 293.4,398.4 293.4,401.6 309.9,411.2 309.9,408.1 	"/>
	<polyline class="st7" points="312.7,406.5 296.2,396.7 296.2,393.7 312.7,403.3 	"/>
	<polyline class="st7" points="304.2,417.7 287.7,408 287.7,411.2 304.2,420.7 304.2,417.7 	"/>
	<polyline class="st7" points="307,416.1 290.5,406.3 290.5,403.1 307,412.8 	"/>
	<polyline class="st7" points="301.3,425.6 284.8,415.8 284.8,412.8 301.3,422.4 	"/>
	<polyline class="st2" points="296,435.2 279.5,425.4 279.5,422.4 296,432 	"/>
	<polyline class="st7" points="326.8,379.1 310.3,369.4 310.3,372.7 326.8,382.3 326.8,379.1 	"/>
	<polyline class="st7" points="321.2,388.8 304.7,379 304.7,382.3 321.2,391.9 321.2,388.8 	"/>
	<polyline class="st7" points="324,387.2 307.5,377.4 307.5,374.4 324,384 	"/>
	<polyline class="st7" points="315.5,398.4 299.1,388.7 299,392 315.5,401.5 315.5,398.4 	"/>
	<polyline class="st7" points="318.3,396.8 301.8,387 301.8,383.7 318.3,393.4 	"/>
	<polyline class="st7" points="309.9,408.1 293.4,398.4 293.4,401.6 309.9,411.2 309.9,408.1 	"/>
	<polyline class="st7" points="312.7,406.5 296.2,396.7 296.2,393.7 312.7,403.3 	"/>
	<polyline class="st7" points="304.2,417.7 287.7,408 287.7,411.2 304.2,420.7 304.2,417.7 	"/>
	<polyline class="st7" points="307,416.1 290.5,406.3 290.5,403.1 307,412.8 	"/>
	<polyline class="st7" points="301.3,425.6 284.8,415.8 284.8,412.8 301.3,422.4 	"/>
	<polyline class="st7" points="326.8,379.1 310.3,369.4 310.3,372.7 326.8,382.3 326.8,379.1 	"/>
	<g>
		<polygon class="st11" points="324,384 307.5,374.4 310.3,372.7 326.8,382.3 		"/>
		<polyline class="st11" points="324,384 324,387.2 307.5,377.4 304.7,379 321.2,388.8 324,387.2 		"/>
		<polygon class="st11" points="318.3,393.4 301.8,383.7 304.7,382.3 321.2,391.9 		"/>
		<polyline class="st11" points="318.3,393.4 318.3,396.8 301.8,387 299.1,388.7 315.5,398.4 318.3,396.8 		"/>
		<polygon class="st11" points="312.7,403.3 296.2,393.7 299,392 315.5,401.5 		"/>
		<polyline class="st11" points="312.7,403.3 312.7,406.5 296.2,396.7 293.4,398.4 309.9,408.1 312.7,406.5 		"/>
		<polygon class="st11" points="307,412.8 290.5,403.1 293.4,401.6 309.9,411.2 		"/>
		<polyline class="st11" points="307,412.8 307,416.1 290.5,406.3 287.7,408 304.2,417.7 307,416.1 		"/>
		<polygon class="st11" points="301.3,422.4 284.8,412.8 287.7,411.2 304.2,420.7 		"/>
		<polyline class="st11" points="301.3,422.4 301.3,425.6 284.8,415.8 282.2,417.4 298.7,427.1 301.3,425.6 		"/>
		<polygon class="st11" points="296,432 279.5,422.4 282.3,420.7 298.8,430.3 		"/>
		<polyline class="st11" points="296,435.2 279.5,425.4 276.7,427.1 293.2,436.8 296,435.2 		"/>
		<polyline class="st11" points="329.6,377.5 313.5,367.8 310.3,369.4 326.8,379.1 329.6,377.5 		"/>
		<polyline class="st11" points="316.9,366.1 313.7,367.7 329.8,377.3 332.6,375.6 		"/>
		<polyline class="st11" points="320,364.5 317.1,366 332.8,375.5 335.6,373.8 		"/>
		<polyline class="st11" points="287,446.1 270.5,436.4 267.7,438.1 284.3,447.8 		"/>
		<polyline class="st11" points="290,444.2 273.5,434.6 270.7,436.3 287.2,445.9 		"/>
		<polyline class="st11" points="292.9,442.5 276.3,432.9 273.7,434.5 290.3,444 		"/>
		<polyline class="st11" points="281,449.8 264.5,440.1 261.7,441.9 278.7,451.9 		"/>
		<polyline class="st11" points="284,447.9 267.5,438.3 264.7,440 281.3,449.6 		"/>
		<polyline class="st11" points="338.5,372.1 323.4,362.7 320.2,364.4 335.9,373.7 		"/>
		<polyline class="st11" points="341.5,370.3 326.9,361 323.7,362.6 338.7,372 		"/>
	</g>
	<polyline class="st2" points="321.2,388.8 304.7,379 304.7,382.3 321.2,391.9 321.2,388.8 	"/>
	<polyline class="st2" points="324,387.2 307.5,377.4 307.5,374.4 324,384 	"/>
	<polyline class="st2" points="315.5,398.4 299.1,388.7 299,392 315.5,401.5 315.5,398.4 	"/>
	<polyline class="st2" points="318.3,396.8 301.8,387 301.8,383.7 318.3,393.4 	"/>
	<polyline class="st2" points="309.9,408.1 293.4,398.4 293.4,401.6 309.9,411.2 309.9,408.1 	"/>
	<polyline class="st2" points="312.7,406.5 296.2,396.7 296.2,393.7 312.7,403.3 	"/>
	<polyline class="st2" points="304.2,417.7 287.7,408 287.7,411.2 304.2,420.7 304.2,417.7 	"/>
	<polyline class="st2" points="307,416.1 290.5,406.3 290.5,403.1 307,412.8 	"/>
	<polyline class="st2" points="301.3,425.6 284.8,415.8 284.8,412.8 301.3,422.4 	"/>
	<polyline class="st2" points="326.8,379.1 310.3,369.4 310.3,372.7 326.8,382.3 326.8,379.1 	"/>
	<g>
		<g>
			<path class="st5" d="M325.4,370.8l-34.3,59.3l-8,6.5c-1.8,1.4-4.5,4.1-4.3,8.2v7.1l14.7-9.5l36.3-61.6l15.8-9.1v-6.1
				c0-3.3-2.6-4.3-5.7-2.8L325.4,370.8z"/>
			<g>
				<path class="st5" d="M340.7,361.1c0,0-1.1-0.5-3.6,0.8l-13.7,7.6L289,429.1l-7.5,6.2c-1.8,1.4-4.8,4.6-4.9,8.8v6.7l2.1,1.1
					c0,0,0-5.5,0-7c0-4.7,2.8-7,4.3-8.3l8-6.5l34.3-59.3c0,0,12.5-7,14.5-8c2-1.1,3.1-0.7,3.6-0.5L340.7,361.1z"/>
				<path class="st5" d="M348.7,352.6l0.1,0.1C348.9,352.6,348.8,352.6,348.7,352.6z"/>
			</g>
		</g>
		<g>
			<path class="st3" d="M325.4,370.8l-34.3,59.3l-8,6.5c-1.8,1.4-4.5,4.1-4.3,8.2v7.1l14.7-9.5l36.3-61.6l15.8-9.1v-6.1
				c0-3.3-2.6-4.3-5.7-2.8L325.4,370.8z"/>
			<g>
				<path class="st4" d="M340.7,361.1c0,0-1.1-0.5-3.6,0.8l-13.7,7.6L289,429.1l-7.5,6.2c-1.8,1.4-4.8,4.6-4.9,8.8v6.7l2.1,1.1
					c0,0,0-5.5,0-7c0-4.7,2.8-7,4.3-8.3l8-6.5l34.3-59.3c0,0,12.5-7,14.5-8c2-1.1,3.1-0.7,3.6-0.5L340.7,361.1z"/>
				<path class="st5" d="M348.7,352.6l0.1,0.1C348.9,352.6,348.8,352.6,348.7,352.6z"/>
			</g>
		</g>
	</g>
	<g>
		<polyline class="st5" points="292,505.1 289,506.9 292.1,508.6 		"/>
		<polyline class="st4" points="292,505.1 289,506.9 292.1,508.6 		"/>
	</g>
	<polygon class="st3" points="321.4,507.7 306.4,516.8 309.4,518.5 324.4,509.5 	"/>
	<polyline class="st3" points="292,505.1 289,506.9 292.1,508.6 	"/>
	<polygon class="st7" points="293.7,518.3 291.8,519.6 291.8,517.2 	"/>
	<path class="st7" d="M311.7,488.4c0.3,0.9-0.4,2-1,2l-2.2,10.6c-1.4,0.2-5-0.9-5-0.9c-0.3,0-0.5-0.6-0.5-1.3
		c-0.1-0.8,1.7-8.6,2-9.4c0.1-0.3,0.2-0.5,0.3-0.8c0.7-2.1,3.1-3.2,5-2.2C310.8,486.9,311.4,487.4,311.7,488.4z"/>
	<g>
		<ellipse class="st6" cx="216.5" cy="480.8" rx="2" ry="1.4"/>
		<path class="st2" d="M219,481.2c-0.2-0.1-0.5,0.1-0.7,0.4c0-0.2,0.1-0.5,0.1-0.6c-0.1,0.7-1,1.2-1.9,1.2c-1,0-1.8-0.5-1.9-1.2
			c0,0.4,0.2,1.6,0.2,2.5c0.1,1.3,3.1,1.3,3.3,0c0-0.1,0-0.1,0-0.2c0.1,0.2,0.2,0.3,0.3,0.3c0.4,0.1,0.8-0.3,1-1
			C219.6,481.9,219.4,481.3,219,481.2z M219.1,482.4c-0.1,0.5-0.4,0.9-0.6,0.8c-0.2-0.1-0.4-0.5-0.2-1c0.1-0.5,0.4-0.6,0.6-0.5
			C219.1,481.8,219.2,482,219.1,482.4z"/>
		<ellipse class="st7" cx="216.5" cy="480.8" rx="1.6" ry="1.1"/>
		<path class="st11" d="M216.5,480.6c-0.6,0-1.2,0.3-1.4,0.6c0.3,0.4,0.8,0.6,1.4,0.6s1.2-0.3,1.4-0.6
			C217.7,480.9,217.1,480.6,216.5,480.6z"/>
	</g>
	<g>
		<path class="st5" d="M208.3,472.2l4.9,2.5c0.1,0.1,0.2,0.3,0,0.4l-3.2,2.2c-0.9,0.6-1.1,1.8-0.5,2.7l0,0c0.6,0.9,1.8,1.1,2.7,0.5
			l5.6-3.9c2.6-1.7,0.1-3.9-1.5-4.5l-6.3-3.2c-0.9-0.5-2.1-0.1-2.6,0.8l0,0C207,470.5,207.4,471.7,208.3,472.2z"/>
		<path class="st9" d="M208.3,472.2l4.9,2.5c0.1,0.1,0.2,0.3,0,0.4l-3.2,2.2c-0.9,0.6-1.1,1.8-0.5,2.7l0,0c0.6,0.9,1.8,1.1,2.7,0.5
			l5.6-3.9c2.6-1.7,0-3.6-1.5-4.5l-6.3-3.2c-0.9-0.5-2.1-0.1-2.6,0.8l0,0C207,470.5,207.4,471.7,208.3,472.2z"/>
	</g>
</g>
<title>Artboard 8</title>
<g>
	<path class="st2" d="M235.4,491.5V503c0,1.2-1,2.3-2.3,2.3l0,0h-18.6c-1.2,0-2.3-1-2.3-2.3l0,0v-11.5c0-1.2,1-2.3,2.3-2.3l0,0h3.4
		c0.3,0,0.6,0.3,0.6,0.6s-0.3,0.6-0.6,0.6h-3.4c-0.6,0-1.1,0.5-1.1,1l0,0V503c0,0.6,0.5,1.1,1.1,1.1l0,0h18.6c0.6,0,1.1-0.5,1.1-1.1
		l0,0v-11.5c0-0.6-0.5-1.1-1.1-1.1l0,0h-3.4c-0.3,0-0.6-0.3-0.6-0.6s0.3-0.6,0.6-0.6h3.4C234.4,489.2,235.4,490.3,235.4,491.5
		L235.4,491.5z"/>
	<path class="st13" d="M231.8,488.4h-5.1v-2.8h-1.5v-0.1c0-1.2-0.9-2.1-2.1-2.1c-1.2,0-2.1,0.9-2.1,2.1v0.1h-1.6v2.8h-5.1
		c-1.6,0-2.8,1.3-2.8,2.8v10.3c0,1.6,1.3,2.8,2.8,2.8h17.4c1.6,0,2.8-1.3,2.8-2.8v-10.3C234.6,489.7,233.3,488.4,231.8,488.4z"/>
	<path class="st5" d="M226.8,485.1h-1.3c-0.3-1.3-1.7-2.2-3-1.8c-0.9,0.2-1.6,0.9-1.8,1.8h-1.3c-0.3,0-0.6,0.3-0.6,0.6v2.3
		c0,0.3,0.3,0.6,0.6,0.6h7.5c0.3,0,0.6-0.3,0.6-0.6v-2.3C227.4,485.4,227.1,485.1,226.8,485.1L226.8,485.1z M226.2,487.4H220v-1.1
		h1.2c0.3,0,0.6-0.3,0.6-0.6c0-0.7,0.5-1.3,1.3-1.4c0.7,0,1.3,0.5,1.4,1.3v0.1c0,0.3,0.3,0.6,0.6,0.6h1.2L226.2,487.4z M234.6,490.7
		v11.5c0,1.2-1,2.3-2.3,2.3l0,0h-18.6c-1.2,0-2.3-1-2.3-2.3l0,0v-11.5c0-1.2,1-2.3,2.3-2.3l0,0h3.4c0.3,0,0.6,0.3,0.6,0.6
		s-0.3,0.6-0.6,0.6h-3.4c-0.6,0-1.1,0.5-1.1,1l0,0v11.5c0,0.6,0.5,1.1,1.1,1.1l0,0h18.6c0.6,0,1.1-0.5,1.1-1.1l0,0v-11.5
		c0-0.6-0.5-1.1-1.1-1.1l0,0h-3.4c-0.3,0-0.6-0.3-0.6-0.6s0.3-0.6,0.6-0.6h3.4C233.6,488.4,234.6,489.4,234.6,490.7L234.6,490.7z
		 M219.1,497.1c1.2,0,2.2-1,2.2-2.3c0-1.2-1-2.2-2.3-2.2c-1.2,0-2.2,1-2.2,2.3C216.8,496.1,217.8,497.1,219.1,497.1z M219.1,493.7
		c0.6,0,1,0.5,1,1.1s-0.5,1-1.1,1s-1-0.5-1-1.1C218,494.2,218.5,493.7,219.1,493.7L219.1,493.7z M221.8,500.8v-1.2
		c0-0.5-0.4-0.9-0.9-0.9h-0.3l-1,1c-0.3,0.3-0.8,0.3-1.1,0l-1-1h-0.3c-0.5,0-0.9,0.4-0.9,0.9v1.2c0,0.3-0.3,0.6-0.6,0.6
		s-0.6-0.3-0.6-0.6v-1.2c0-1.1,1-2.1,2.1-2h0.5c0.2,0,0.3,0.1,0.4,0.2l0.9,0.9l0.9-0.9c0.1-0.1,0.3-0.2,0.4-0.2h0.5
		c1.1,0,2.1,0.9,2.1,2v1.2c0,0.3-0.3,0.6-0.6,0.6S221.8,501.1,221.8,500.8z M231.7,493.8c0,0.3-0.3,0.6-0.6,0.6h-7.6
		c-0.3,0-0.6-0.3-0.6-0.6c0-0.3,0.3-0.6,0.6-0.6h7.6C231.5,493.2,231.7,493.5,231.7,493.8z M231.7,496.4c0,0.3-0.3,0.6-0.6,0.6h-6
		c-0.3,0-0.6-0.3-0.6-0.6c0-0.3,0.3-0.6,0.6-0.6h6C231.5,495.8,231.7,496.1,231.7,496.4L231.7,496.4L231.7,496.4z M231.7,499
		c0,0.3-0.3,0.6-0.6,0.6h-6c-0.3,0-0.6-0.3-0.6-0.6s0.3-0.6,0.6-0.6h6C231.5,498.4,231.7,498.7,231.7,499
		C231.7,499,231.7,499.1,231.7,499L231.7,499z"/>
</g>
</svg>
