<?xml version="1.0" encoding="utf-8"?>
<!-- Generator: Adobe Illustrator 23.0.1, SVG Export Plug-In . SVG Version: 6.00 Build 0)  -->
<svg version="1.1" xmlns="http://www.w3.org/2000/svg" xmlns:xlink="http://www.w3.org/1999/xlink" x="0px" y="0px"
	 viewBox="0 0 798.5 585.2" style="enable-background:new 0 0 798.5 585.2;" xml:space="preserve">
<style type="text/css">
	.st0{display:none;}
	.st1{display:inline;opacity:0.5;}
	.st2{fill:#81BCBF;}
	.st3{opacity:0.33;fill:#B6CE99;}
	.st4{opacity:0.66;fill:#B6CE99;}
	.st5{fill:#B6CE99;}
	.st6{opacity:0.33;fill:#FFFFFF;}
	.st7{opacity:0.66;fill:#FFFFFF;}
	.st8{fill:#585799;}
	.st9{opacity:0.5;fill:#B6CE99;}
	.st10{opacity:0.33;fill:#81BCBF;}
	.st11{opacity:0.66;fill:#81BCBF;}
	.st12{opacity:0.5;fill:#585799;}
	.st13{fill:#508A99;}
	.st14{opacity:0.33;fill:#508A99;}
	.st15{opacity:0.66;fill:#508A99;}
	.st16{fill:none;}
	.st17{opacity:0.66;fill:#585799;}
	.st18{opacity:0.66;}
	.st19{fill:#FFFFFF;}
	.st20{opacity:0.33;}
	.st21{opacity:0.33;fill:#585799;}
	.st22{fill:none;stroke:#FFFFFF;stroke-width:0.25;stroke-miterlimit:10;}
	.st23{opacity:0.5;fill:#81BCBF;}
	.st24{opacity:0.5;fill:#FFFFFF;}
	.st25{opacity:0.2;}
	.st26{fill-rule:evenodd;clip-rule:evenodd;fill:#FFFFFF;}
</style>
<g id="Ejemplo" class="st0">
</g>
<g id="Retícula" class="st0">
	<g class="st1">
		
			<image style="overflow:visible;" width="1300" height="918" xlink:href="../../../../Material/cuadrícula-isométrica.jpg"  transform="matrix(0.4533 0 0 0.4533 -203.1028 196.3419)">
		</image>
		
			<image style="overflow:visible;" width="1300" height="918" xlink:href="../../../../Material/cuadrícula-isométrica.jpg"  transform="matrix(0.4533 0 0 0.4533 -203.1028 -213.6581)">
		</image>
	</g>
</g>
<g id="Números">
	<polyline class="st8" points="388.9,169.4 521,93.1 521,104.9 388.9,181.3 	"/>
	<polyline class="st8" points="388.9,181.3 277.6,116.2 277.6,104.4 388.9,169.4 	"/>
	<polyline class="st8" points="388.9,169.4 521,93.1 409.1,28.8 277.6,104.4 388.9,169.4 388.9,181.3 	"/>
	<polyline class="st15" points="388.9,169.4 521,93.1 409.1,28.8 277.6,104.4 388.9,169.4 388.9,181.3 	"/>
	<polyline class="st14" points="388.9,181.3 277.6,116.2 277.6,104.4 388.9,169.4 	"/>
	<g>
		<ellipse class="st2" cx="423" cy="46.9" rx="7.5" ry="4.6"/>
		<ellipse class="st14" cx="423" cy="46.9" rx="7.5" ry="4.6"/>
		<path class="st13" d="M423,51.5c-3.8,0-7-1.8-7.4-4c0.2,1.4,0.6,5.2,0.9,8.4c0.5,4.4,12,4.4,12.7,0.2c0.3-2.3,0.9-6.8,1.2-8.5
			C429.9,49.8,426.8,51.5,423,51.5z"/>
		<ellipse class="st8" cx="423" cy="46.9" rx="6.2" ry="3.8"/>
		<g>
			<g>
				<rect x="421.8" y="43.3" class="st2" width="1.1" height="4.4"/>
				<rect x="422.8" y="43.3" class="st13" width="1.1" height="4.4"/>
				<path class="st5" d="M432.1,34.3c0,5-4,9-9,9s-9-4-9-9s4-27.5,9-27.5S432.1,29.3,432.1,34.3z"/>
				<path class="st14" d="M422.8,39.7c-4.2,0-7.2-1.3-8.5-7.7c-0.2,0.7-0.3,1.5-0.3,2.2c0,5,4,9,9,9c5,0,9-4,9-9
					c0-3.7-2.2-13.7-2.3-14.4C431.2,34,427.1,39.7,422.8,39.7z"/>
			</g>
			<path class="st6" d="M414.4,31.5c1.7-9.9,5.5-30.7,11.3-22.4C420.9,4.3,417,21.6,414.4,31.5z"/>
		</g>
	</g>
	<g>
		<polygon class="st13" points="441.9,53.5 416.9,66.7 441.1,79.3 466.1,66.2 		"/>
		<polygon class="st15" points="441.9,53.5 416.9,66.7 441.1,79.3 466.1,66.2 		"/>
	</g>
	<g class="st20">
		<polygon class="st8" points="441.9,53.5 416.9,66.7 441.1,79.3 466.1,66.2 		"/>
		<polygon class="st17" points="441.9,53.5 416.9,66.7 441.1,79.3 465.5,65.8 		"/>
	</g>
	<polyline class="st13" points="416.9,66.7 412.7,58.6 413.4,57.8 437.5,45.4 441.9,53.5 	"/>
	<g>
		<polyline class="st8" points="416.9,66.7 417.7,60.1 441.1,48.2 441.9,53.5 		"/>
	</g>
	<polygon class="st8" points="450.4,97.6 445.8,100.4 445.8,96.8 450.4,94.3 	"/>
	<polygon class="st8" points="441.1,97.9 445.8,100.4 445.8,96.8 441.1,94.4 	"/>
	<polygon class="st8" points="412.3,82.8 416.9,85.3 416.9,81.7 412.3,79.3 	"/>
	<path class="st8" d="M465.4,42.3l-4.7,1.6c0,0,1.1,0.5,1.1,2c0,1.5,0,14.5,0,14.5l4.4-2.4c0,0,0-12.3,0-13.8
		C466.1,43.1,465.4,42.3,465.4,42.3z"/>
	<polygon class="st8" points="420.1,83.4 416.9,85.3 416.9,81.7 	"/>
	<g>
		<path class="st13" d="M465.4,42.3l-4,2.3c0,0-0.3-0.8-1.6-1.4c-0.9-0.4-18.1-9.4-18.1-9.4c-1.9-0.7-2.9,0.2-2.9,0.2l3-1.6
			c0.9-0.4,1.8-0.7,2.8-0.8l0,0c1-0.1,2,0.1,2.8,0.6c0,0,15.6,8,16.4,8.4C464.6,41.1,465.4,42.3,465.4,42.3z"/>
	</g>
	<g>
		<path class="st2" d="M437.5,54.2V36.3c0-2.1,2.3-3.5,4.1-2.5l17.7,9.2l0.8,0.4c0.9,0.5,1.5,1.5,1.5,2.5v17.9
			c0,2.1-2.3,3.5-4.2,2.5L439,56.7C438.1,56.2,437.5,55.2,437.5,54.2z"/>
	</g>
	<polygon class="st8" points="470.8,62.8 445.8,76.9 445.8,96.8 470.8,83.7 	"/>
	<g>
		<path class="st13" d="M470.8,62.8l-25,14l-5.7-4.8l26-14c0,0,0,0,2.3,1.2C470.8,60.5,470.8,62.8,470.8,62.8z"/>
	</g>
	<polygon class="st8" points="470.8,86.9 466.1,89.7 466.1,86.1 470.8,83.6 	"/>
	<polygon class="st8" points="462.7,87.9 466.1,89.7 466.1,86.1 	"/>
	<polygon class="st14" points="441.1,97.9 445.8,100.4 445.8,96.8 441.1,94.4 	"/>
	<polygon class="st14" points="412.3,82.8 416.9,85.3 416.9,81.7 412.3,79.3 	"/>
	<polygon class="st14" points="462.7,87.9 466.1,89.7 466.1,86.1 	"/>
	<path class="st2" d="M439.6,73.9c0,2.3-1.9,3.3-3.4,2.5l-16.1-8.6c-0.8-0.4-1.2-1.2-1.2-2.1v-4c0.2-1.9-1.8-3.4-3.2-3.8
		c-1.4-0.4-3.4,0.3-3.4,2.1v18c0,0.9,0.5,1.7,1.2,2.1l32.1,16.8c0.1,0,0.1,0,0.1-0.1V75.9c0.1-2.3-1.5-3.6-3.1-4.1
		C440.9,71.4,439.6,71.5,439.6,73.9z"/>
	<g class="st18">
		<path class="st13" d="M437.5,54.2V36.3c0-2.1,2.3-3.5,4.1-2.5l18.5,9.5c0.9,0.5,1.5,1.6,1.5,2.6v17.9c0,2.1-2.3,3.5-4.2,2.5
			L439,56.7C438.1,56.2,437.5,55.2,437.5,54.2z"/>
	</g>
	<path class="st15" d="M439.6,73.9c0,2.3-1.9,3.3-3.4,2.5l-16.1-8.6c-0.8-0.4-1.2-1.2-1.2-2.1v-4c0.2-1.9-1.8-3.4-3.2-3.8
		c-1.4-0.4-3.4,0.3-3.4,2.1v18c0,0.9,0.5,1.7,1.2,2.1l32.1,16.8c0.1,0,0.1,0,0.1-0.1V75.9c0.1-2.3-1.5-3.6-3.1-4.1
		C440.9,71.4,439.6,71.5,439.6,73.9z"/>
	<path class="st17" d="M416.9,81.7L416.9,81.7l3.2,1.7L416.9,81.7z M445.8,96.8l-0.1-0.1c0.1,0,0.1,0,0.1-0.1V96.8l3-1.6L445.8,96.8
		z"/>
	<path class="st11" d="M468.4,59.3c-2.3-1.2-2.3-1.2-2.3-1.2l-4.4,2.4v0l4.4-2.3c0,0,0-12.3,0-13.8c0-1.1-0.7-2-0.7-2
		s-0.8-1.2-1.7-1.7c-0.9-0.5-16.4-8.4-16.4-8.4c-0.9-0.4-1.9-0.6-2.8-0.6c-1,0.1-1.9,0.3-2.8,0.8l-2.5,1.3c0.1,0,0.1-0.1,0.2-0.1
		c-0.2,0.1-0.4,0.1-0.6,0.3l0.3-0.2c-0.3,0.1-0.5,0.3-0.5,0.3l0.2-0.1c-0.8,0.5-1.4,1.4-1.4,2.4v9.1l-24,12.5l-0.7,0.7l0,0.1
		c-0.3,0.3-0.5,0.8-0.5,1.3v18c0,0.9,0.5,1.7,1.2,2.1l32.1,16.8c0.1,0,0.1,0,0.1-0.1v0.1l25-13.1V62.8
		C470.8,62.8,470.8,60.5,468.4,59.3z M461.5,44.9c0,0,0,0.1,0,0.1C461.5,45,461.5,44.9,461.5,44.9z M461.6,45.2
		c0.1,0.2,0.1,0.4,0.1,0.7C461.7,45.7,461.7,45.4,461.6,45.2z M442.2,34.1l-0.6-0.3c0,0,0,0,0,0c0,0,0,0,0,0
		C441.6,33.8,441.8,33.9,442.2,34.1z"/>
	<g>
		<path class="st13" d="M443.8,67.6l0.9,1.1c0.6,0.8-3.7,2.3-4.6,3.3S440,75,438.8,76c-0.5,0.4-1.3,1.1-1.3,1.1
			c-0.8,0.6-2,0.5-2.6-0.3l-0.9-1.1c-0.6-0.8-0.5-2,0.3-2.6l6.9-5.7C442,66.7,443.1,66.8,443.8,67.6z"/>
		<path class="st13" d="M439.7,65l0.6,1.3c0.4,0.9,0.1,2-0.9,2.5l-8.1,3.9c-0.9,0.4-2,0.1-2.5-0.9l-0.6-1.3c-0.4-0.9-0.1-2,0.9-2.5
			l8.1-3.9C438.2,63.7,439.3,64.1,439.7,65z"/>
		<path class="st14" d="M439.7,65l0.6,1.3c0.4,0.9,0.1,2-0.9,2.5l-8.1,3.9c-0.9,0.4-2,0.1-2.5-0.9l-0.6-1.3c-0.4-0.9-0.1-2,0.9-2.5
			l8.1-3.9C438.2,63.7,439.3,64.1,439.7,65z"/>
		<path class="st8" d="M439.7,65l0.6,1.3c0.4,0.9,0.1,2-0.9,2.5l-8.1,3.9c-0.9,0.4-2,0.1-2.5-0.9l-0.6-1.3c-0.4-0.9-0.1-2,0.9-2.5
			l8.1-3.9C438.2,63.7,439.3,64.1,439.7,65z"/>
		<path class="st14" d="M439.7,65l0.6,1.3c0.4,0.9,0.1,2-0.9,2.5l-8.1,3.9c-0.9,0.4-2,0.1-2.5-0.9l-0.6-1.3c-0.4-0.9-0.1-2,0.9-2.5
			l8.1-3.9C438.2,63.7,439.3,64.1,439.7,65z"/>
	</g>
	<g>
		<path class="st13" d="M440.4,49.9l0.2,0.2c0.8,0.6,1.1,1.7,0.5,2.6l-4.3,6.4c-0.6,0.8-1.7,1.1-2.6,0.5l-0.2-0.2
			c-0.8-0.6-1.1-1.7-0.5-2.6l4.3-6.4C438.4,49.5,439.6,49.3,440.4,49.9z"/>
		<path class="st14" d="M440.4,49.9l0.2,0.2c0.8,0.6,1.1,1.7,0.5,2.6l-4.3,6.4c-0.6,0.8-1.7,1.1-2.6,0.5l-0.2-0.2
			c-0.8-0.6-1.1-1.7-0.5-2.6l4.3-6.4C438.4,49.5,439.6,49.3,440.4,49.9z"/>
	</g>
	<g>
		<path class="st13" d="M436.9,58.2l0,0.3c0,1-0.8,1.9-1.8,1.9l-7.7,0.1c-1,0-1.9-0.8-1.9-1.8l0-0.3c0-1,0.8-1.9,1.8-1.9l7.7-0.1
			C436.1,56.4,436.9,57.2,436.9,58.2z"/>
		<path class="st14" d="M436.9,58.2l0,0.3c0,1-0.8,1.9-1.8,1.9l-7.7,0.1c-1,0-1.9-0.8-1.9-1.8l0-0.3c0-1,0.8-1.9,1.8-1.9l7.7-0.1
			C436.1,56.4,436.9,57.2,436.9,58.2z"/>
	</g>
	<g>
		<polygon class="st13" points="314.8,101.5 335,89.9 335,101.4 340.6,98.2 340.6,78.3 307.8,97.6 307.8,117.1 314.8,113.1 		"/>
		<polygon class="st2" points="340.6,78.3 307.8,97.6 287.9,86.2 320.8,66.8 		"/>
		<polygon class="st2" points="287.9,105.5 287.9,86.2 307.8,97.6 307.8,117.1 		"/>
		<polygon class="st23" points="325,95.5 335,89.8 335,101.3 		"/>
		<polygon class="st7" points="340.6,78.3 307.8,97.6 287.9,86.2 320.8,66.8 		"/>
		<polygon class="st6" points="287.9,105.5 287.9,86.2 307.8,97.6 307.8,117.1 		"/>
	</g>
	<g>
		<polygon class="st8" points="320.6,76 327.7,80.1 328.4,81 312.7,90 304.9,85.6 305.6,84.6 		"/>
		<polygon class="st15" points="320.6,76 327.7,80.1 328.4,81 312.7,90 304.9,85.6 305.6,84.6 		"/>
		<polygon class="st21" points="320.6,75.9 327.7,80.1 312.9,88.7 305.6,84.6 		"/>
	</g>
	<polygon class="st8" points="330.9,74.3 330.9,48.9 298.6,67.9 298.6,93.4 	"/>
	<g>
		<ellipse class="st2" cx="389.8" cy="149.7" rx="7.5" ry="4.6"/>
		<ellipse class="st14" cx="389.8" cy="149.7" rx="7.5" ry="4.6"/>
		<path class="st13" d="M389.8,154.3c-3.8,0-7-1.8-7.4-4c0.2,1.4,0.6,5.2,0.9,8.4c0.5,4.4,12,4.4,12.7,0.2c0.3-2.3,0.9-6.8,1.2-8.5
			C396.6,152.6,393.5,154.3,389.8,154.3z"/>
		<ellipse class="st8" cx="389.8" cy="149.7" rx="6.2" ry="3.8"/>
		<rect x="388.6" y="135.5" class="st2" width="1.2" height="14.8"/>
		<rect x="389.8" y="135.5" class="st13" width="1.2" height="14.8"/>
		<circle class="st5" cx="390" cy="125.7" r="9.8"/>
		<path class="st14" d="M390,130.7c-4.6,0-8.4-3.1-9.5-7.4c-0.2,0.8-0.3,1.6-0.3,2.4c0,5.4,4.4,9.8,9.8,9.8s9.8-4.4,9.8-9.8
			c0-0.8-0.1-1.7-0.3-2.4C398.4,127.5,394.6,130.7,390,130.7z"/>
	</g>
	<g>
		<polygon class="st2" points="406.6,3.8 347.4,38.1 347.4,84.6 406.6,50.3 		"/>
		<polygon class="st2" points="341.1,34.3 347.4,38.1 406.6,3.8 400.3,0 		"/>
		<polygon class="st7" points="341.1,34.3 347.4,38.1 406.6,3.8 400.3,0 		"/>
		<g>
			<polygon class="st13" points="361,32.9 367.1,29.3 367.1,47.7 360.8,43.9 			"/>
			<polygon class="st2" points="349.3,50.3 349.3,57.8 367.1,47.7 360.8,43.9 			"/>
			<polygon class="st8" points="349.3,50.3 349.4,39.5 361,32.9 360.8,43.9 			"/>
			<polygon class="st14" points="349.3,50.3 349.3,57.8 367.1,47.7 360.8,43.9 			"/>
			<polygon class="st15" points="349.3,50.3 349.4,39.5 361,32.9 360.8,43.9 			"/>
		</g>
		<g>
			<polygon class="st13" points="379.9,22 386.1,18.4 386.1,36.8 379.7,33 			"/>
			<polygon class="st2" points="368.2,39.4 368.2,46.9 386.1,36.8 379.7,33 			"/>
			<polygon class="st8" points="368.2,39.4 368.4,28.6 379.9,22 379.7,33 			"/>
			<polygon class="st14" points="368.2,39.4 368.2,46.9 386.1,36.8 379.7,33 			"/>
			<polygon class="st15" points="368.2,39.4 368.4,28.6 379.9,22 379.7,33 			"/>
		</g>
		<g>
			<polygon class="st13" points="398.9,11 405,7.3 405,25.7 398.6,21.9 			"/>
			<polygon class="st2" points="387.2,28.3 387.1,35.9 405,25.7 398.6,21.9 			"/>
			<polygon class="st8" points="387.2,28.3 387.3,17.6 398.9,11 398.6,21.9 			"/>
			<polygon class="st14" points="387.2,28.3 387.1,35.9 405,25.7 398.6,21.9 			"/>
			<polygon class="st15" points="387.2,28.3 387.3,17.6 398.9,11 398.6,21.9 			"/>
		</g>
		<g>
			<polygon class="st13" points="361,52.9 367.1,49.3 367.1,67.7 360.8,63.9 			"/>
			<polygon class="st2" points="349.3,70.3 349.3,77.8 367.1,67.7 360.8,63.9 			"/>
			<polygon class="st8" points="349.3,70.3 349.4,59.5 361,52.9 360.8,63.9 			"/>
			<polygon class="st14" points="349.3,70.3 349.3,77.8 367.1,67.7 360.8,63.9 			"/>
			<polygon class="st15" points="349.3,70.3 349.4,59.5 361,52.9 360.8,63.9 			"/>
		</g>
		<g>
			<polygon class="st13" points="379.9,42 386.1,38.4 386.1,56.8 379.7,53 			"/>
			<polygon class="st2" points="368.2,59.4 368.2,66.9 386.1,56.8 379.7,53 			"/>
			<polygon class="st8" points="368.2,59.4 368.4,48.6 379.9,42 379.7,53 			"/>
			<polygon class="st14" points="368.2,59.4 368.2,66.9 386.1,56.8 379.7,53 			"/>
			<polygon class="st15" points="368.2,59.4 368.4,48.6 379.9,42 379.7,53 			"/>
		</g>
		<g>
			<polygon class="st13" points="398.9,31 405,27.3 405,45.7 398.7,41.9 			"/>
			<polygon class="st2" points="387.2,48.3 387.1,55.9 405,45.7 398.7,41.9 			"/>
			<polygon class="st8" points="387.2,48.3 387.3,37.6 398.9,31 398.7,41.9 			"/>
			<polygon class="st14" points="387.2,48.3 387.1,55.9 405,45.7 398.7,41.9 			"/>
			<polygon class="st15" points="387.2,48.3 387.3,37.6 398.9,31 398.7,41.9 			"/>
		</g>
		<line class="st16" x1="398.6" y1="21.9" x2="404.9" y2="25.7"/>
		<g>
			<polygon class="st13" points="402.7,19.5 395.6,23.8 395.6,30.1 402.6,25.9 402.6,21.6 402.7,21.5 			"/>
			<g>
				<polygon class="st10" points="402.7,19.5 395.6,23.8 395.6,30.1 402.6,25.9 402.6,21.6 402.7,21.5 				"/>
				<polygon class="st2" points="389.4,20.8 395.6,23.8 395.6,30.1 389.5,27.2 389.5,22.6 389.4,22.5 389.4,22.1 				"/>
				<polygon class="st6" points="402,22.9 396.3,26.1 396.3,28.9 402,25.6 				"/>
				<polygon class="st2" points="402.7,19.5 395.6,23.8 389.4,20.8 396.5,16.5 				"/>
				<polygon class="st7" points="402.7,19.5 395.6,23.8 389.4,20.8 396.5,16.5 				"/>
				<polygon class="st15" points="395.6,25.8 395.6,25.5 389.5,22.6 389.5,22.9 				"/>
				<polygon class="st17" points="395.6,25.8 395.6,25.5 402.6,21.6 402.6,21.8 				"/>
			</g>
		</g>
		<g>
			<polygon class="st5" points="364.8,60.8 357.7,65.1 357.7,71.4 364.7,67.2 364.7,62.8 364.8,62.8 			"/>
			<g>
				<polygon class="st10" points="364.8,60.8 357.7,65.1 357.7,71.4 364.7,67.2 364.7,62.8 364.8,62.8 				"/>
				<polygon class="st5" points="351.5,62.1 357.7,65.1 357.7,71.4 351.6,68.5 351.6,63.9 351.5,63.8 351.5,63.4 				"/>
				<polygon class="st6" points="364.1,64.2 358.4,67.4 358.4,70.2 364.1,66.9 				"/>
				<polygon class="st5" points="364.8,60.8 357.7,65.1 351.5,62.1 358.6,57.8 				"/>
				<polygon class="st6" points="364.8,60.8 357.7,65.1 351.5,62.1 358.6,57.8 				"/>
				<polygon class="st11" points="357.7,67.1 357.7,66.8 351.6,63.9 351.6,64.2 				"/>
				<polygon class="st15" points="357.7,67.1 357.7,66.8 364.7,62.8 364.7,63.1 				"/>
			</g>
		</g>
		<g>
			<g>
				<g>
					<polygon class="st2" points="365.2,38.6 363.4,39.6 363.4,48.9 365.2,47.9 					"/>
					<polygon class="st2" points="357.2,36.6 363.4,39.6 363.4,48.9 357.2,45.9 					"/>
					<polygon class="st7" points="359,39.2 361.6,40.4 361.6,42.3 359,41.1 					"/>
					<polygon class="st7" points="364.8,40.6 363.7,41.2 363.7,46.9 364.8,46.3 					"/>
					<polygon class="st2" points="365.2,38.6 363.4,39.6 357.2,36.6 359,35.6 					"/>
					<polygon class="st7" points="365.2,38.6 363.4,39.6 357.2,36.6 359,35.6 					"/>
					<polygon class="st7" points="364.4,38.4 363.1,39.2 357.5,36.4 358.7,35.7 					"/>
					<polygon class="st7" points="363.3,39 363.1,39.2 357.5,36.4 357.7,36.3 					"/>
					<polygon class="st7" points="363.7,38.8 363.4,39 357.8,36.2 358,36.1 					"/>
					<polygon class="st7" points="364,38.6 363.8,38.8 358.2,36 358.4,35.9 					"/>
					<polygon class="st7" points="364.4,38.4 364.1,38.6 358.5,35.8 358.7,35.7 					"/>
				</g>
				<polygon class="st6" points="357.2,36.6 363.4,39.6 363.4,48.9 357.2,45.9 				"/>
			</g>
			<g>
				<g>
					<polygon class="st8" points="363.2,39.7 361.4,40.7 361.4,50 363.2,49 					"/>
					<polygon class="st8" points="355.2,37.7 361.4,40.7 361.4,50 355.2,47 					"/>
					<polygon class="st7" points="357,40.3 359.6,41.5 359.6,43.4 357,42.1 					"/>
					<polygon class="st7" points="362.8,41.7 361.7,42.3 361.7,48 362.8,47.4 					"/>
					<polygon class="st8" points="363.2,39.7 361.4,40.7 355.2,37.7 357,36.7 					"/>
					<polygon class="st7" points="363.2,39.7 361.4,40.7 355.2,37.7 357,36.7 					"/>
					<polygon class="st7" points="362.4,39.5 361.1,40.2 355.5,37.5 356.7,36.8 					"/>
					<polygon class="st7" points="361.3,40.1 361.1,40.2 355.5,37.5 355.7,37.4 					"/>
					<polygon class="st7" points="361.7,39.9 361.4,40 355.8,37.3 356,37.2 					"/>
					<polygon class="st7" points="362,39.7 361.8,39.8 356.2,37.1 356.4,37 					"/>
					<polygon class="st7" points="362.4,39.5 362.1,39.7 356.5,36.9 356.7,36.8 					"/>
				</g>
				<polygon class="st10" points="355.2,37.7 361.4,40.7 361.4,50 355.2,47 				"/>
			</g>
			<g>
				<polygon class="st5" points="361.2,40.8 359.4,41.8 359.4,51.1 361.2,50.1 				"/>
				<polygon class="st5" points="353.2,38.8 359.4,41.8 359.4,51.1 353.2,48.1 				"/>
				<polygon class="st7" points="355,41.4 357.6,42.6 357.6,44.5 355,43.2 				"/>
				<polygon class="st5" points="361.2,40.8 359.4,41.8 353.2,38.8 355,37.8 				"/>
				<polygon class="st6" points="361.2,40.8 359.4,41.8 353.2,38.8 355,37.8 				"/>
				<polygon class="st7" points="360.4,40.6 359.1,41.3 353.5,38.6 354.7,37.9 				"/>
				<polygon class="st7" points="359.3,41.2 359.1,41.3 353.5,38.6 353.7,38.5 				"/>
				<polygon class="st7" points="359.7,41 359.4,41.1 353.8,38.4 354,38.3 				"/>
				<polygon class="st7" points="360,40.8 359.8,40.9 354.2,38.2 354.4,38.1 				"/>
				<polygon class="st7" points="360.4,40.6 360.1,40.8 354.5,38 354.7,37.9 				"/>
				<polygon class="st7" points="360.8,42.8 359.7,43.4 359.7,49.1 360.8,48.5 				"/>
			</g>
			<g>
				<polygon class="st13" points="359.2,41.9 357.4,42.9 357.4,52.2 359.2,51.2 				"/>
				<polygon class="st2" points="351.2,39.9 357.4,42.9 357.4,52.2 351.2,49.2 				"/>
				<polygon class="st7" points="353,42.5 355.6,43.7 355.6,45.6 353,44.3 				"/>
				<polygon class="st7" points="358.8,43.9 357.7,44.5 357.7,50.2 358.8,49.6 				"/>
				<polygon class="st13" points="359.2,41.9 357.4,42.9 351.2,39.9 353,38.9 				"/>
				<polygon class="st11" points="359.2,41.9 357.4,42.9 351.2,39.9 353,38.9 				"/>
				<polygon class="st7" points="358.4,41.7 357.1,42.4 351.5,39.7 352.7,39 				"/>
				<polygon class="st7" points="357.3,42.3 357.1,42.4 351.5,39.7 351.7,39.6 				"/>
				<polygon class="st7" points="357.7,42.1 357.4,42.3 351.8,39.5 352,39.4 				"/>
				<polygon class="st7" points="358,41.9 357.8,42.1 352.2,39.3 352.4,39.2 				"/>
				<polygon class="st7" points="358.4,41.7 358.1,41.9 352.5,39.1 352.7,39 				"/>
			</g>
			<polygon class="st14" points="361.2,40.8 359.4,41.8 359.4,51.1 361.2,50.1 			"/>
		</g>
		<g>
			<g>
				<polygon class="st2" points="384.1,27.2 382.3,28.2 382.3,37.5 384.1,36.5 				"/>
				<polygon class="st2" points="376.1,25.2 382.3,28.2 382.3,37.5 376.1,34.5 				"/>
				<polygon class="st7" points="377.9,27.8 380.5,29.1 380.5,30.9 377.9,29.7 				"/>
				<polygon class="st7" points="383.7,29.3 382.7,29.9 382.7,35.5 383.7,34.9 				"/>
				<polygon class="st2" points="384.1,27.2 382.3,28.2 376.1,25.2 377.9,24.2 				"/>
				<polygon class="st7" points="384.1,27.2 382.3,28.2 376.1,25.2 377.9,24.2 				"/>
				<polygon class="st7" points="383.3,27.1 382,27.8 376.4,25 377.7,24.3 				"/>
				<polygon class="st7" points="382.2,27.6 382,27.8 376.4,25 376.6,24.9 				"/>
				<polygon class="st7" points="382.6,27.5 382.4,27.6 376.7,24.9 377,24.7 				"/>
				<polygon class="st7" points="382.9,27.3 382.7,27.4 377.1,24.6 377.3,24.5 				"/>
				<polygon class="st7" points="383.3,27.1 383.1,27.2 377.4,24.5 377.7,24.3 				"/>
			</g>
			<polygon class="st6" points="376.1,25.2 382.3,28.2 382.3,37.5 376.1,34.5 			"/>
		</g>
		<g>
			<g>
				<polygon class="st8" points="382.1,28.3 380.3,29.3 380.3,38.6 382.1,37.6 				"/>
				<polygon class="st8" points="374.1,26.3 380.3,29.3 380.3,38.6 374.1,35.6 				"/>
				<polygon class="st7" points="375.9,28.9 378.5,30.2 378.5,32 375.9,30.8 				"/>
				<polygon class="st7" points="381.7,30.3 380.7,30.9 380.7,36.6 381.7,36 				"/>
				<polygon class="st8" points="382.1,28.3 380.3,29.3 374.1,26.3 375.9,25.3 				"/>
				<polygon class="st7" points="382.1,28.3 380.3,29.3 374.1,26.3 375.9,25.3 				"/>
				<polygon class="st7" points="381.3,28.2 380,28.9 374.4,26.1 375.7,25.4 				"/>
				<polygon class="st7" points="380.2,28.7 380,28.9 374.4,26.1 374.6,26 				"/>
				<polygon class="st7" points="380.6,28.5 380.4,28.7 374.7,25.9 375,25.8 				"/>
				<polygon class="st7" points="380.9,28.3 380.7,28.5 375.1,25.7 375.3,25.6 				"/>
				<polygon class="st7" points="381.3,28.2 381.1,28.3 375.4,25.6 375.7,25.4 				"/>
			</g>
			<polygon class="st10" points="374.1,26.3 380.3,29.3 380.3,38.6 374.1,35.6 			"/>
		</g>
		<g>
			<g>
				<polygon class="st8" points="356.5,63.3 354.7,64.3 354.7,73.6 356.5,72.6 				"/>
				<polygon class="st8" points="348.5,61.3 354.7,64.3 354.7,73.6 348.5,70.6 				"/>
				<polygon class="st7" points="350.3,64 352.9,65.2 352.9,67 350.3,65.8 				"/>
				<polygon class="st7" points="356.1,65.4 355,66 355,71.6 356.1,71 				"/>
				<polygon class="st8" points="356.5,63.3 354.7,64.3 348.5,61.3 350.3,60.3 				"/>
				<polygon class="st7" points="356.5,63.3 354.7,64.3 348.5,61.3 350.3,60.3 				"/>
				<polygon class="st7" points="355.7,63.2 354.4,63.9 348.8,61.2 350,60.5 				"/>
				<polygon class="st7" points="354.6,63.8 354.4,63.9 348.8,61.2 349,61 				"/>
				<polygon class="st7" points="355,63.6 354.7,63.7 349.1,61 349.3,60.8 				"/>
				<polygon class="st7" points="355.3,63.4 355.1,63.5 349.5,60.8 349.7,60.6 				"/>
				<polygon class="st7" points="355.7,63.2 355.4,63.3 349.8,60.6 350,60.5 				"/>
			</g>
			<polygon class="st10" points="348.5,61.3 354.7,64.3 354.7,73.6 348.5,70.6 			"/>
		</g>
		<g>
			<polygon class="st5" points="354.5,64.4 352.7,65.4 352.7,74.7 354.5,73.7 			"/>
			<polygon class="st5" points="346.5,62.4 352.7,65.4 352.7,74.7 346.5,71.7 			"/>
			<polygon class="st7" points="348.3,65.1 350.9,66.3 350.9,68.1 348.3,66.9 			"/>
			<polygon class="st5" points="354.5,64.4 352.7,65.4 346.5,62.4 348.3,61.4 			"/>
			<polygon class="st6" points="354.5,64.4 352.7,65.4 346.5,62.4 348.3,61.4 			"/>
			<polygon class="st7" points="353.7,64.3 352.4,65 346.8,62.3 348,61.6 			"/>
			<polygon class="st7" points="352.6,64.9 352.4,65 346.8,62.3 347,62.1 			"/>
			<polygon class="st7" points="353,64.7 352.7,64.8 347.1,62.1 347.3,62 			"/>
			<polygon class="st7" points="353.3,64.5 353.1,64.6 347.5,61.9 347.7,61.7 			"/>
			<polygon class="st7" points="353.7,64.3 353.4,64.4 347.8,61.7 348,61.6 			"/>
			<polygon class="st7" points="354.1,66.5 353,67.1 353,72.7 354.1,72.1 			"/>
		</g>
		<polygon class="st14" points="354.5,64.4 352.7,65.4 352.7,74.7 354.5,73.7 		"/>
		<g>
			<polygon class="st8" points="382.1,52.1 375,56.3 375,62.7 381.9,58.5 382,54.1 382.1,54 			"/>
			<polygon class="st10" points="382.1,52.1 375,56.3 375,62.7 381.9,58.5 382,54.1 382.1,54 			"/>
			<polygon class="st8" points="368.8,53.3 375,56.3 375,62.7 368.9,59.7 368.9,55.1 368.8,55.1 368.8,54.6 			"/>
			<polygon class="st6" points="381.3,55.4 375.7,58.6 375.7,61.4 381.3,58.1 			"/>
			<polygon class="st8" points="382.1,52.1 375,56.3 368.8,53.3 375.9,49.1 			"/>
			<polygon class="st11" points="382.1,52.1 375,56.3 368.8,53.3 375.9,49.1 			"/>
			<polygon class="st17" points="375,58.4 375,58.1 382,54.1 382,54.4 			"/>
			<polygon class="st11" points="368.8,53.3 375,56.3 375,62.7 368.9,59.7 368.9,55.1 368.8,55.1 368.8,54.6 			"/>
			<polygon class="st6" points="382.1,52.1 375,56.3 368.8,53.3 375.9,49.1 			"/>
			<polygon class="st17" points="375,58.4 375,58.1 368.9,55.1 368.9,55.4 			"/>
		</g>
		<g>
			<polygon class="st2" points="341.1,34.3 347.4,38.1 347.4,84.6 341.1,80.8 			"/>
			<polygon class="st6" points="341.1,34.3 347.4,38.1 347.4,84.6 341.1,80.8 			"/>
		</g>
		<g>
			<polygon class="st13" points="379.7,31.7 378.1,31.5 376,40.2 377.8,40.2 			"/>
			<polygon class="st2" points="371.8,28.5 378.1,31.5 376,40.2 369.8,37.2 			"/>
			<polygon class="st7" points="373.2,31.2 375.8,32.4 375.3,34.4 372.7,33.1 			"/>
			<polygon class="st7" points="379.1,32.8 378.2,32.7 376.8,38.7 377.7,38.7 			"/>
			<polygon class="st11" points="379.7,31.7 378.1,31.5 371.8,28.5 373.5,28.7 			"/>
			<polygon class="st6" points="379,31.5 378.1,31.3 372.3,28.5 373.2,28.6 			"/>
		</g>
		<g>
			<polygon class="st5" points="403.6,38 401.9,37.8 399.9,46.5 401.7,46.5 			"/>
			<polygon class="st5" points="395.7,34.8 401.9,37.8 399.9,46.5 393.7,43.5 			"/>
			<polygon class="st7" points="397.1,37.5 399.7,38.7 399.2,40.7 396.6,39.4 			"/>
			<polygon class="st5" points="403.6,38 401.9,37.8 395.7,34.8 397.3,35 			"/>
			<polygon class="st6" points="402.9,37.8 402,37.6 396.2,34.8 397.1,34.9 			"/>
			<polygon class="st14" points="403.6,38 401.9,37.8 399.9,46.5 401.7,46.5 			"/>
			<polygon class="st7" points="402.9,39.2 402,39.1 400.7,45.1 401.6,45.1 			"/>
			<polygon class="st6" points="403.6,38 401.9,37.8 395.7,34.8 397.3,35 			"/>
		</g>
		<g>
			<g>
				<polygon class="st2" points="398.6,38.6 396.8,39.6 396.8,48.9 398.6,47.9 				"/>
				<polygon class="st2" points="390.6,36.6 396.8,39.6 396.8,48.9 390.6,45.9 				"/>
				<polygon class="st7" points="392.4,39.2 395,40.4 395,42.2 392.4,41 				"/>
				<polygon class="st7" points="398.2,40.6 397.1,41.2 397.1,46.8 398.2,46.2 				"/>
				<polygon class="st2" points="398.6,38.6 396.8,39.6 390.6,36.6 392.4,35.6 				"/>
				<polygon class="st7" points="398.6,38.6 396.8,39.6 390.6,36.6 392.4,35.6 				"/>
				<polygon class="st7" points="397.8,38.4 396.5,39.1 390.9,36.4 392.1,35.7 				"/>
				<polygon class="st7" points="396.7,39 396.5,39.1 390.9,36.4 391.1,36.3 				"/>
				<polygon class="st7" points="397.1,38.8 396.8,38.9 391.2,36.2 391.4,36.1 				"/>
				<polygon class="st7" points="397.4,38.6 397.2,38.7 391.6,36 391.8,35.9 				"/>
				<polygon class="st7" points="397.8,38.4 397.5,38.5 391.9,35.8 392.1,35.7 				"/>
			</g>
			<polygon class="st6" points="390.6,36.6 396.8,39.6 396.8,48.9 390.6,45.9 			"/>
		</g>
		<g>
			<g>
				<polygon class="st8" points="396.6,39.6 394.8,40.6 394.8,50 396.6,49 				"/>
				<polygon class="st8" points="388.6,37.6 394.8,40.6 394.8,50 388.6,47 				"/>
				<polygon class="st7" points="390.4,40.3 393,41.5 393,43.3 390.4,42.1 				"/>
				<polygon class="st7" points="396.2,41.7 395.1,42.3 395.1,47.9 396.2,47.3 				"/>
				<polygon class="st8" points="396.6,39.6 394.8,40.6 388.6,37.6 390.4,36.6 				"/>
				<polygon class="st7" points="396.6,39.6 394.8,40.6 388.6,37.6 390.4,36.6 				"/>
				<polygon class="st7" points="395.8,39.5 394.5,40.2 388.9,37.5 390.1,36.8 				"/>
				<polygon class="st7" points="394.7,40.1 394.5,40.2 388.9,37.5 389.1,37.4 				"/>
				<polygon class="st7" points="395.1,39.9 394.8,40 389.2,37.3 389.4,37.2 				"/>
				<polygon class="st7" points="395.4,39.7 395.2,39.8 389.6,37.1 389.8,37 				"/>
				<polygon class="st7" points="395.8,39.5 395.5,39.6 389.9,36.9 390.1,36.8 				"/>
			</g>
			<polygon class="st10" points="388.6,37.6 394.8,40.6 394.8,50 388.6,47 			"/>
		</g>
		<g>
			<polygon class="st5" points="394.6,40.8 392.8,41.8 392.8,51.1 394.6,50.1 			"/>
			<polygon class="st5" points="386.6,38.8 392.8,41.8 392.8,51.1 386.6,48.1 			"/>
			<polygon class="st7" points="388.4,41.4 391,42.6 391,44.4 388.4,43.2 			"/>
			<polygon class="st5" points="394.6,40.8 392.8,41.8 386.6,38.8 388.4,37.8 			"/>
			<polygon class="st6" points="394.6,40.8 392.8,41.8 386.6,38.8 388.4,37.8 			"/>
			<polygon class="st7" points="393.8,40.6 392.5,41.3 386.9,38.6 388.1,37.9 			"/>
			<polygon class="st7" points="392.7,41.2 392.5,41.3 386.9,38.6 387.1,38.5 			"/>
			<polygon class="st7" points="393.1,41 392.8,41.1 387.2,38.4 387.4,38.3 			"/>
			<polygon class="st7" points="393.4,40.8 393.2,40.9 387.6,38.2 387.8,38.1 			"/>
			<polygon class="st7" points="393.8,40.6 393.5,40.7 387.9,38 388.1,37.9 			"/>
			<polygon class="st7" points="394.2,42.8 393.1,43.4 393.1,49 394.2,48.4 			"/>
		</g>
		<polygon class="st14" points="394.6,40.8 392.8,41.8 392.8,51.1 394.6,50.1 		"/>
		<polygon class="st7" points="392.7,41.2 392.5,41.3 386.9,38.6 387.1,38.5 		"/>
		<path class="st2" d="M347.4,38.1l0,46.5l59.2-34.3V3.8L347.4,38.1z M367.1,67.7l-17.8,10.2l0-7.5l0.1-10.8l11.6-6.6l6.1-3.6
			L367.1,67.7z M367.1,47.7l-17.8,10.2l0-7.5l0.1-10.8l11.6-6.6l6.1-3.6L367.1,47.7z M386.1,56.8l-17.8,10.2l0-7.5l0.1-10.8
			l11.6-6.6l6.1-3.6L386.1,56.8z M386.1,36.8l-17.8,10.2l0-7.5l0.1-10.8l11.6-6.6l6.1-3.6L386.1,36.8z M405,45.7l-17.8,10.2l0-7.5
			l0.1-10.8l11.6-6.6l6.1-3.6L405,45.7z M405,25.7l-17.8,10.2l0-7.5l0.1-10.8l11.6-6.6l6.1-3.6L405,25.7z"/>
	</g>
	<polygon class="st2" points="328.9,72.9 328.9,53.6 301.3,69.5 301.3,89 	"/>
	<polygon class="st13" points="328.2,54 328.2,72.4 301.3,88 301.3,89 328.9,72.9 328.9,53.6 	"/>
	<polygon class="st8" points="298.6,67.9 330.9,48.9 330,48.4 297.6,67.4 297.6,92.9 298.6,93.4 	"/>
	<polygon class="st11" points="298.6,67.9 330.9,48.9 330,48.4 297.6,67.4 	"/>
	<polygon class="st10" points="298.6,67.9 297.6,67.4 297.6,92.9 298.6,93.4 	"/>
	<polygon class="st6" points="301.3,81.4 301.3,86.5 319.8,58.8 313.8,62.3 	"/>
	<polygon class="st6" points="309,65.1 301.3,69.5 301.3,77.3 	"/>
	<polyline class="st6" points="318.3,79 328.9,72.8 328.9,62.8 	"/>
	<path class="st19" d="M443.8,67.7l-4.2-0.8l1.5-18.7c2-0.7,4.2-0.2,5.6,1.3l0.9,1.1L443.8,67.7z"/>
	<path class="st13" d="M442.3,50.8c-0.2,0.7-2.5,14.3-1.6,14.3s4.1-12.9,4.1-13.7c0-0.5-0.9-1.6-1.2-1.6
		C443.1,49.8,442.3,50.5,442.3,50.8z"/>
	<path class="st2" d="M443,68.9l-3.4-1.9l1.1-14.6l3.4,5.1l0.8,10.2C445,68.7,443.9,69.3,443,68.9z"/>
	<polygon class="st2" points="439.9,67.2 444.6,69.5 447.2,52.8 439.7,56.9 	"/>
	<path class="st14" d="M439.5,67.2l4.3,2c0.6,0.3,1.4-0.1,1.5-0.8l1.8-15.5l-7.8,4.2L439.5,67.2z"/>
	<polygon class="st5" points="444.7,53.7 443.5,53.1 443.5,52.6 444.7,53.2 	"/>
	<g>
		<path class="st8" d="M443,48.9c-0.4,0.6,0.5,1.4,0.9,1.7c0,0,1.1,0,1.4-0.7c0.1-0.2,0-0.5-0.1-0.7C444.7,48.5,443.8,47.6,443,48.9
			z"/>
		<path class="st13" d="M443,48.5c-0.4,0.6,0.5,1.4,0.9,1.7c0,0,1.1,0,1.4-0.7c0.1-0.2,0-0.5-0.1-0.7
			C444.7,48.1,443.8,47.2,443,48.5z"/>
		<path class="st14" d="M443,48.9c-0.4,0.6,0.5,1.4,0.9,1.7c0,0,1.1,0,1.4-0.7c0.1-0.2,0-0.5-0.1-0.7
			C444.7,48.5,443.8,47.6,443,48.9z"/>
	</g>
	<g>
		<path class="st5" d="M444.7,48.8l-0.9,0c-1.2,0-2.3-1-2.3-2.2l0-3.2c0-1.2,1-2.3,2.2-2.3l0.9,0c1.2,0,2.3,1,2.3,2.2l0,3.2
			C446.9,47.7,445.9,48.7,444.7,48.8z"/>
		<path class="st13" d="M442,40.6c-0.8,0.7-0.4,1.2,0.2,1.5l2.3,1c1.3,1,1.1,3.8,1.1,3.8c0.6,0.3,1.4,0.1,1.7-0.5c0,0,1.1-5,0.5-5.3
			C447.7,41,444.7,38,442,40.6z"/>
		<path class="st13" d="M440.6,46c-0.5,0.5-0.3,0.8,0.1,1.1c0,0,3.7,1.2,3.6,0.1C444.3,47.1,442.5,44.2,440.6,46z"/>
	</g>
	<path class="st21" d="M447.2,50c0,0-5.6,9.9-5.7,17.9c-1.4-2.6-1.2-9.6-0.8-14.4l0.5-5.2l-2.4,1.4c-0.3,0.1-0.6,0.4-0.9,0.7
		l-4.1,6.1l-6.4,0.1c-1,0-1.8,0.9-1.8,1.9l0,0.3c0,1,0.9,1.8,1.9,1.8l7.7-0.1c0.9,0,1.6-0.7,1.8-1.5l0.6-0.9
		c-0.4,2.2-1.1,3.5-1.1,4.9c0,2.6,2.2,3.6,2.2,3.6c0,0.3,0.2,0.5,0.4,0.7l5.6,2.7l4.5-2.6l0.4-11.9C449.6,53.5,448.4,51.2,447.2,50z
		"/>
	<path class="st8" d="M436.2,76.4c0.7,0.4,1.5,0.4,2.1,0l0.6-0.5c0.4-0.5,0.6-1.1,0.7-2c0-1.3,0.4-2,1.1-2.2l4.4-2.2
		c-0.1-0.3-0.2-0.6-0.4-0.8c0,0-2.6-0.5-3.8-1.2l-6.7,5.5c-0.6,0.5-0.8,1.3-0.6,2L436.2,76.4z"/>
	<path class="st13" d="M447.2,50c0,0-5.6,9.9-5.7,17.9c-2.3-4.2-0.3-19.6-0.3-19.6l-2.8,1.7c-0.3,0.2-0.5,0.6-0.5,1
		c0.6,7.5-1.4,9.5-1.4,12c0,2.6,2.2,3.6,2.2,3.6c0,0.3,0.2,0.5,0.4,0.7l5.6,2.7l4.5-2.6l0.4-11.9C449.6,53.5,448.4,51.2,447.2,50z"
		/>
	<g>
		<g>
			<path class="st13" d="M446.5,55.4l1.8,5.9c0.1,0.2-0.1,0.3-0.3,0.3l-4.3-0.8c-1.2-0.2-2.3,0.5-2.5,1.7v0
				c-0.2,1.2,0.5,2.3,1.7,2.5l7.5,1.4c1.1,0.2,2.1-0.4,2.5-1.5v0c0.3-1.1,0.3-2.2,0-3.2l-2.3-7.5c-0.3-1.1-1.5-1.8-2.7-1.4v0
				C446.8,53.1,446.2,54.3,446.5,55.4z"/>
			<path class="st14" d="M446.5,55.4l1.8,5.9c0.1,0.2-0.1,0.3-0.3,0.3l-4.3-0.8c-1.2-0.2-2.3,0.5-2.5,1.7v0
				c-0.2,1.2,0.5,2.3,1.7,2.5l7.5,1.4c1.1,0.2,2.1-0.4,2.5-1.5v0c0.3-1.1,0.3-2.2,0-3.2l-2.3-7.5c-0.3-1.1-1.5-1.8-2.7-1.4v0
				C446.8,53.1,446.2,54.3,446.5,55.4z"/>
		</g>
		<g class="st20">
			<path class="st8" d="M446.5,55.4l1.8,5.9c0.1,0.2-0.1,0.3-0.3,0.3l-4.3-0.8c-1.2-0.2-2.3,0.5-2.5,1.7v0c-0.2,1.2,0.5,2.3,1.7,2.5
				l7.5,1.4c1.1,0.2,2.1-0.4,2.5-1.5v0c0.3-1.1,0.3-2.2,0-3.2l-2.3-7.5c-0.3-1.1-1.5-1.8-2.7-1.4v0
				C446.8,53.1,446.2,54.3,446.5,55.4z"/>
			<path class="st21" d="M446.5,55.4l1.8,5.9c0.1,0.2-0.1,0.3-0.3,0.3l-4.3-0.8c-1.2-0.2-2.3,0.5-2.5,1.7v0
				c-0.2,1.2,0.5,2.3,1.7,2.5l7.5,1.4c1.1,0.2,2.1-0.4,2.5-1.5v0c0.3-1.1,0.3-2.2,0-3.2l-2.3-7.5c-0.3-1.1-1.5-1.8-2.7-1.4v0
				C446.8,53.1,446.2,54.3,446.5,55.4z"/>
		</g>
	</g>
	<path class="st14" d="M436.2,76.4c0.2,0.1,0.4,0.2,0.6,0.2c0.1,0,0.3,0,0.4,0c0,0,0.1,0,0.1,0c0.4,0,0.7-0.1,1-0.3l0.6-0.5
		c0.1-0.1,0.2-0.3,0.3-0.4c0-0.1,0.1-0.1,0.1-0.2c0.1-0.1,0.1-0.3,0.1-0.4c0-0.1,0-0.1,0.1-0.2c0-0.2,0.1-0.5,0.1-0.7
		c0-1.1,0.3-1.7,0.8-2c0.5-0.3,4.7-2.3,4.7-2.3c-0.1-0.3-0.2-0.6-0.4-0.8c0,0-3,0.3-3.5-1.4l-6.9,5.7c-0.6,0.5-0.8,1.3-0.6,2
		L436.2,76.4z"/>
	<g>
		<g>
			<path class="st17" d="M457.5,108.2V89.6h-20.8v4.2l-32.7-19.9c-3.3-2-7.5-2.1-10.8-0.2l-12.4,7.1v-5.4h-12.3v14.3h0
				c-0.3,1.7,0.3,3.5,2,4.5l48.7,29.7c5.4,3.3,12.2,3.4,17.6,0.3l18.2-10.4C457.2,112.5,458,110.2,457.5,108.2z"/>
			<path class="st13" d="M368.4,71.4l2.7,4.2l49.1,29.9l9.8,3.1l0,2.1c-5.5,0-9.9-3.1-9.9-3.1l-49.3-30.1c0,0-2.7-1.5-2.5-4V71.4z"
				/>
			<path class="st13" d="M460.7,91l-2.6,4.5l-18.3,10.4l-9.7,2.7l0,2.1c5.1,0,9.9-2.7,9.9-2.7l18.1-10.4c2.1-1.2,2.7-3.8,2.7-3.8
				L460.7,91z"/>
			<path class="st13" d="M370.6,75.2l50.4,30.8c5.6,3.4,12.5,3.5,18.2,0.3l18.8-10.8c3.4-2,3.5-6.9,0.1-9l-53-32.3
				c-3.4-2.1-7.7-2.1-11.1-0.2l-23.4,13.4C367.7,69.1,367.7,73.4,370.6,75.2z"/>
		</g>
		<path class="st7" d="M370.7,75.2l50.4,30.7c5.6,3.4,12.6,3.5,18.3,0.3l18.9-10.8c3.4-2,3.5-6.9,0.1-8.9l-53-32.3
			c-3.4-2.1-7.7-2.1-11.2-0.2l-23.4,13.4C367.8,69.1,367.7,73.4,370.7,75.2z"/>
	</g>
	<path class="st5" d="M437.9,64.2c-0.3-1,0.2-2.1,1.2-2.4l1.2-0.4c0-0.2,0-0.4,0.1-0.5c0.2-0.4,0.7-0.6,1.1-0.4s1.6,0.8,1.8,1.9
		c0.3,1.1-0.2,2.1-1.2,2.4l-1.9,0.7C439.3,65.7,438.2,65.2,437.9,64.2z"/>
	<path class="st5" d="M422.8,58.7c-0.1-1,0.6-1.8,1.6-1.9l1.2-0.1c0-0.2,0.1-0.3,0.2-0.5c0.3-0.3,0.8-0.4,1.1-0.1
		c0.3,0.3,1.3,1.1,1.3,2.1s-0.6,1.8-1.6,1.9l-1.9,0.2C423.7,60.4,422.8,59.7,422.8,58.7z"/>
	<g>
		<g>
			<polygon class="st8" points="424.1,77.6 424.1,78.6 430.2,75.5 430.2,74.4 			"/>
			<polygon class="st8" points="424.1,77.6 410.1,69 409.8,69.8 424.1,78.6 			"/>
			<g>
				<g>
					<polygon class="st8" points="416.1,65.8 410.1,69 424.1,77.6 430.2,74.4 					"/>
					<g>
						<polygon class="st2" points="423.8,74 424.7,74.6 423.9,75 423,74.5 						"/>
						<polygon class="st2" points="422.6,73.3 423.5,73.8 422.6,74.2 421.8,73.7 						"/>
						<polygon class="st2" points="422.6,74.7 423.5,75.3 422.7,75.7 421.8,75.2 						"/>
						<polygon class="st2" points="421.4,74 422.2,74.5 421.4,74.9 420.6,74.4 						"/>
						<polygon class="st2" points="421.3,72.5 422.6,73.3 421.8,73.7 420.5,72.9 						"/>
						<polygon class="st2" points="418.8,70.9 419.7,71.4 418.9,71.9 418,71.3 						"/>
						<polygon class="st2" points="417.6,70.1 418.4,70.7 417.6,71.1 416.8,70.6 						"/>
						<polygon class="st2" points="415.2,70.1 419.2,72.6 418.4,73 414.4,70.5 						"/>
						<polygon class="st2" points="416.3,69.3 417.2,69.9 416.4,70.3 415.5,69.8 						"/>
						<polygon class="st2" points="415.1,68.6 415.9,69.1 415.1,69.5 414.3,69 						"/>
						<polygon class="st2" points="413.9,69.3 414.7,69.8 413.9,70.3 413.1,69.7 						"/>
						<polygon class="st2" points="412.5,68.5 413.4,69.1 412.6,69.5 411.7,69 						"/>
						<polygon class="st2" points="413.8,67.8 414.7,68.3 413.9,68.7 413,68.2 						"/>
						<polygon class="st2" points="425.1,73.4 425.9,74 425.1,74.4 424.3,73.8 						"/>
						<polygon class="st2" points="423.8,72.6 424.7,73.2 423.5,73.8 422.6,73.3 						"/>
						<polygon class="st2" points="422.6,71.9 423.4,72.4 422.6,72.8 421.8,72.3 						"/>
						<polygon class="st2" points="421.3,71.1 422.2,71.6 421.4,72 420.5,71.5 						"/>
						<polygon class="st2" points="420.1,70.3 420.9,70.8 420.1,71.3 419.3,70.7 						"/>
						<polygon class="st2" points="418.8,69.5 419.7,70 418.9,70.5 418,69.9 						"/>
						<polygon class="st2" points="417.6,68.7 418.4,69.3 417.6,69.7 416.7,69.1 						"/>
						<polygon class="st2" points="416.3,67.9 417.2,68.5 416.4,68.9 415.5,68.4 						"/>
						<polygon class="st2" points="415,67.2 415.9,67.7 415.1,68.1 414.2,67.6 						"/>
						<polygon class="st2" points="426.3,72.8 427.2,73.3 426.4,73.8 425.5,73.2 						"/>
						<polygon class="st2" points="425.2,74.9 426,75.4 425.2,75.8 424.4,75.3 						"/>
						<polygon class="st2" points="424,75.6 424.8,76.1 424,76.5 423.1,76 						"/>
						<polygon class="st2" points="426.4,74.3 427.3,74.8 426.5,75.2 425.6,74.7 						"/>
						<polygon class="st2" points="427.6,73.6 428.5,74.2 427.7,74.6 426.8,74.1 						"/>
						<polygon class="st2" points="425.1,72 425.9,72.6 425.1,73 424.2,72.4 						"/>
						<polygon class="st2" points="423.8,71.2 424.7,71.8 423.9,72.2 423,71.7 						"/>
						<polygon class="st2" points="422.6,70.5 423.4,71 422.6,71.4 421.7,70.9 						"/>
						<polygon class="st2" points="421.3,69.7 422.2,70.2 421.4,70.6 420.5,70.1 						"/>
						<polygon class="st2" points="420,68.9 420.9,69.4 420.1,69.9 419.2,69.3 						"/>
						<polygon class="st2" points="418.8,68.1 419.7,68.6 418.9,69.1 418,68.5 						"/>
						<polygon class="st2" points="417.5,67.3 418.4,67.9 417.6,68.3 416.7,67.7 						"/>
						<polygon class="st2" points="416.3,66.5 417.2,67.1 416.4,67.5 415.5,67 						"/>
					</g>
				</g>
				<polygon class="st14" points="424.1,77.6 424.1,78.6 430.2,75.5 430.2,74.4 				"/>
				<polygon class="st11" points="424.1,77.6 410.1,69 409.8,69.8 424.1,78.6 				"/>
			</g>
		</g>
		<g>
			<g>
				<polygon class="st8" points="409.3,70.6 409.3,59.6 423.5,67.9 423.5,79 				"/>
				<polygon class="st8" points="423.5,67.9 424.1,67.5 424.1,78.6 423.5,79 				"/>
				<polygon class="st8" points="423.5,67.9 409.3,59.6 410,59.2 424.1,67.5 				"/>
				<polygon class="st11" points="423.5,67.9 409.3,59.6 410,59.2 424.1,67.5 				"/>
				<polygon class="st10" points="423.5,67.9 424.1,67.5 424.1,78.6 423.5,79 				"/>
			</g>
		</g>
	</g>
	<polygon class="st19" points="426.2,80 435,75.1 440.9,78.5 432.1,83.5 	"/>
	<g>
		<ellipse class="st2" cx="378.8" cy="68.2" rx="2" ry="1.2"/>
		<ellipse class="st8" cx="378.8" cy="68.2" rx="1.7" ry="1"/>
		<g>
			<polygon class="st2" points="378.7,69.2 378.1,69.1 378.1,67.6 376.8,66.1 377.4,66.1 378.7,67.6 			"/>
			<polygon class="st2" points="377.4,66.1 376.8,66.1 376.8,64.4 377.4,64.3 			"/>
			<polygon class="st2" points="380.6,66.1 380,66.1 380,64.4 380.6,64.3 			"/>
			<polygon class="st2" points="377.3,65.8 377,66.1 374.8,65.2 375.1,64.9 			"/>
			<polygon class="st2" points="380,65.8 380.4,66.1 382.6,65.2 382.3,64.9 			"/>
			<polygon class="st13" points="379.3,69.1 378.7,69.2 378.7,67.6 380,66.1 380.6,66.1 379.3,67.6 			"/>
		</g>
		<g>
			<path class="st5" d="M383.5,64.7c0.1-0.2,0.1-0.3,0.1-0.5c0-0.1,0-0.2,0-0.2c0.3-0.3,0.3-0.6,0.3-0.5c-0.1,0.1-0.1,0.1-0.4,0.1
				c-0.1-0.1-0.2-0.2-0.3-0.3c0.1-0.4,0.2-0.5,0.4-0.5c0.3,0-0.9-0.3-1.5,0.4c0,0,0,0,0,0c0-0.5-0.2-0.9-0.5-1.2
				c0.4-0.4,0.5-0.8,0.4-0.6c-0.1,0.1-0.2,0.1-1.2,0.1c-0.1,0-0.2,0.1-0.3,0.2c-0.2-0.3-0.6-0.6-1.1-0.6c-0.3,0-0.6,0.1-0.8,0.3
				c-0.2-0.1-0.5-0.2-0.8-0.2c-1.1,0-2,0.9-2,2c0,0,0,0,0,0c0,0-0.1-0.1-0.1-0.1c-0.7-0.4-1.5,0.2-1.3,0.1c0.1,0,0.2,0,0.6,0.3
				c-0.4,0.2-0.7,0.6-0.7,1c0,0.1,0,0.2,0,0.3c-0.3,0.2-0.4,0.5-0.3,0.4c0.1-0.1,0.2-0.1,0.6,0c0,0.1,0.1,0.1,0.2,0.2
				c-0.1,0.3,0,0.5,0,0.4c0-0.1,0.1-0.1,0.3-0.3c0.1,0,0.2,0.1,0.4,0.1c0.6,0,1-0.4,1.1-1c0.1,0.1,0.2,0.1,0.2,0.2
				c-0.2,0.3-0.2,0.6-0.1,0.5c0-0.1,0.1-0.2,0.6-0.3c0.1,0,0.1,0,0.2,0.1c0,0.4,0.2,0.7,0.2,0.6c0-0.1,0-0.2,0.3-0.5
				c0.2,0,0.3,0,0.5-0.1c0.2,0.3,0.6,0.5,1,0.5c0.5,0,1-0.3,1.2-0.8c0.4,0,0.8-0.2,1-0.4c0,0.6,0.5,1,1.1,1c0.3,0,0.6-0.1,0.8-0.3
				c0.3-0.1,0.4-0.3,0.3-0.2C383.6,64.8,383.5,64.8,383.5,64.7z"/>
			<path class="st5" d="M376.3,64.7c0,0.1,0,0.1,0,0.2c0,0.1,0,0.1,0,0.1c0-0.1,0.1-0.1,0.2-0.1C376.4,64.7,376.4,64.7,376.3,64.7
				C376.3,64.6,376.3,64.6,376.3,64.7z"/>
			<path class="st5" d="M381.8,62.4c0-0.2-0.1-0.4-0.2-0.6c0,0-0.1,0.1-0.1,0.1C381.5,62.1,381.7,62.3,381.8,62.4z"/>
			<path class="st6" d="M375.7,63.5c0,0,0.1,0.1,0.1,0.1c0,0,0,0,0,0c0-1.1,0.9-2,2-2c0.3,0,0.5,0.1,0.8,0.2
				c0.2-0.2,0.5-0.3,0.8-0.3c0.4,0,0.8,0.2,1.1,0.6c0.1-0.1,0.2-0.2,0.3-0.2c0.4,0,0.6,0,0.8,0c0.3-0.3,0.4-0.6,0.3-0.5
				c-0.1,0.1-0.2,0.1-1.2,0.1c-0.1,0-0.2,0.1-0.3,0.2c-0.2-0.3-0.6-0.6-1.1-0.6c-0.3,0-0.6,0.1-0.8,0.3c-0.2-0.1-0.5-0.2-0.8-0.2
				c-1.1,0-2,0.9-2,2c0,0,0,0,0,0c0,0-0.1-0.1-0.1-0.1c-0.7-0.4-1.5,0.2-1.3,0.1c0.1,0,0.2,0,0.5,0.2
				C375,63.4,375.3,63.3,375.7,63.5z"/>
			<path class="st5" d="M374.2,64.5c0-0.4,0.3-0.8,0.7-1c-0.2-0.1-0.3-0.2-0.4-0.3c-0.3,0.2-0.5,0.5-0.5,0.9c0,0.1,0,0.2,0,0.3
				c-0.3,0.2-0.4,0.5-0.3,0.4c0.1-0.1,0.2-0.1,0.5,0c0,0,0,0,0,0C374.2,64.7,374.2,64.6,374.2,64.5z"/>
			<path class="st5" d="M381.4,64.3C381.4,64.3,381.4,64.4,381.4,64.3C381.4,64.4,381.4,64.3,381.4,64.3
				C381.4,64.3,381.4,64.3,381.4,64.3z"/>
			<path class="st5" d="M381.9,63.2c0.3-0.3,0.7-0.4,1.1-0.5c0.1-0.3,0.2-0.3,0.3-0.3c0.3,0-0.8-0.3-1.4,0.3
				C381.9,62.8,381.9,63,381.9,63.2C381.9,63.2,381.9,63.2,381.9,63.2z"/>
			<path class="st5" d="M383.4,63.6C383.4,63.6,383.4,63.6,383.4,63.6C383.4,63.6,383.4,63.6,383.4,63.6c0.3-0.3,0.3-0.6,0.3-0.5
				c-0.1,0.1-0.1,0.1-0.4,0.1c0,0-0.1-0.1-0.1-0.1c0,0.1,0,0.1-0.1,0.2C383.2,63.4,383.3,63.5,383.4,63.6z"/>
			<path class="st5" d="M377.2,65.1c0,0.1,0.1,0.2,0.1,0.2C377.3,65.2,377.3,65.1,377.2,65.1C377.2,65.1,377.2,65.1,377.2,65.1z"/>
			<path class="st5" d="M381.8,62.8C381.8,62.7,381.8,62.7,381.8,62.8c0-0.2,0-0.3,0-0.3C381.8,62.5,381.8,62.6,381.8,62.8
				C381.8,62.8,381.8,62.8,381.8,62.8z"/>
			<path class="st6" d="M383.2,63.1c0.1-0.3,0.2-0.3,0.3-0.3c0.1,0-0.1-0.1-0.4-0.1c0,0.1,0,0.1-0.1,0.2
				C383,62.9,383.1,63,383.2,63.1z"/>
			<path class="st14" d="M380.2,64.3c-0.2,0.5-0.6,0.8-1.2,0.8c-0.4,0-0.7-0.2-1-0.5c-0.2,0-0.3,0.1-0.5,0.1
				c-0.3,0.3-0.3,0.4-0.3,0.5c0,0,0,0,0,0c0.1,0.3,0.2,0.5,0.2,0.4c0-0.1,0-0.2,0.3-0.5c0.2,0,0.3,0,0.5-0.1c0.2,0.3,0.6,0.5,1,0.5
				c0.5,0,1-0.3,1.2-0.8c0.4,0,0.7-0.2,1-0.4c-0.1-0.1-0.1-0.3-0.1-0.4C381,64.1,380.6,64.3,380.2,64.3z"/>
			<path class="st14" d="M383.5,64.7c0.1-0.2,0.1-0.3,0.1-0.5c0-0.1,0-0.2,0-0.2c0.3-0.3,0.3-0.6,0.3-0.5c-0.1,0.1-0.1,0.1-0.4,0.1
				c0,0.1,0,0.1,0,0.2c0,0.2-0.1,0.4-0.1,0.5c0.1,0,0.1,0,0.2,0c0.1,0-0.1,0.1-0.3,0.2c-0.2,0.2-0.5,0.3-0.8,0.3
				c-0.4,0-0.7-0.2-0.9-0.5c0.1,0.5,0.5,0.9,1.1,0.9c0.3,0,0.6-0.1,0.8-0.3c0.3-0.1,0.4-0.3,0.3-0.2
				C383.6,64.8,383.5,64.8,383.5,64.7z"/>
			<path class="st5" d="M374.3,64.8C374.3,64.8,374.2,64.8,374.3,64.8c-0.4,0.2-0.5,0.5-0.4,0.4c0.1-0.1,0.2-0.1,0.6,0
				c0-0.1,0-0.1,0-0.2C374.4,64.9,374.3,64.9,374.3,64.8z"/>
			<path class="st14" d="M376.9,64.6c-0.2,0-0.3,0.1-0.4,0.1c0,0,0.1,0,0.1,0.1c-0.2,0.3-0.2,0.6-0.1,0.5c0-0.1,0.1-0.2,0.6-0.3
				c0,0,0.1,0,0.1,0c0-0.1-0.1-0.2-0.1-0.4C377,64.7,377,64.6,376.9,64.6z"/>
			<path class="st14" d="M376.3,64.6C376.3,64.6,376.3,64.6,376.3,64.6c0-0.1,0.1-0.1,0.1-0.2c-0.1-0.1-0.2-0.1-0.2-0.2
				c-0.1,0.6-0.5,1-1.1,1c-0.1,0-0.2,0-0.4-0.1c-0.1,0.1-0.2,0.1-0.2,0.2c0,0,0.1,0.1,0.1,0.1c-0.1,0.3,0,0.5,0,0.4
				c0-0.1,0.1-0.1,0.3-0.3c0.1,0,0.2,0.1,0.4,0.1c0.5,0,0.9-0.3,1-0.8C376.3,64.8,376.3,64.7,376.3,64.6
				C376.3,64.6,376.3,64.6,376.3,64.6z"/>
			<path class="st6" d="M374.2,64.5c0-0.4,0.3-0.8,0.7-1c-0.2-0.1-0.3-0.2-0.4-0.3c-0.3,0.2-0.5,0.5-0.5,0.9c0,0.1,0,0.2,0,0.3
				c-0.3,0.2-0.4,0.5-0.3,0.4c0.1-0.1,0.2-0.1,0.5,0c0,0,0,0,0,0C374.2,64.7,374.2,64.6,374.2,64.5z"/>
			<path class="st6" d="M381.9,63.2c0.3-0.3,0.7-0.4,1.1-0.5c0.1-0.3,0.2-0.3,0.3-0.3c0.3,0-0.8-0.3-1.4,0.3
				C381.9,62.8,381.9,63,381.9,63.2C381.9,63.2,381.9,63.2,381.9,63.2z"/>
			<path class="st14" d="M383.4,63.6C383.4,63.6,383.4,63.6,383.4,63.6C383.4,63.6,383.4,63.6,383.4,63.6c0.3-0.3,0.3-0.6,0.3-0.5
				c-0.1,0.1-0.1,0.1-0.4,0.1c0,0-0.1-0.1-0.1-0.1c0,0.1,0,0.1-0.1,0.2C383.2,63.4,383.3,63.5,383.4,63.6z"/>
		</g>
		<path class="st13" d="M378.8,69.4c-1,0-1.9-0.5-2-1.1c0,0.4,0.2,1.4,0.3,2.3c0.1,1.2,3.2,1.2,3.4,0c0.1-0.6,0.3-1.8,0.3-2.3
			C380.6,69,379.8,69.4,378.8,69.4z"/>
	</g>
	<g>
		
			<rect x="437.3" y="79.8" transform="matrix(0.54 0.8417 -0.8417 0.54 269.8939 -330.9252)" class="st13" width="0.8" height="3.3"/>
		
			<rect x="438.7" y="80.4" transform="matrix(0.54 0.8417 -0.8417 0.54 269.7745 -332.6242)" class="st5" width="0.8" height="0.2"/>
		
			<rect x="439.2" y="80.6" transform="matrix(0.54 0.8417 -0.8417 0.54 270.059 -332.6443)" class="st21" width="0.2" height="0.2"/>
		<path class="st13" d="M440.7,80.1C440.6,80.1,440.6,80.1,440.7,80.1l0.1-0.2c0.2-0.1,0.9-0.7,0.8-1c-0.2-0.3-1,0.1-1.2,0.3
			l-1.2,0.8l0.5,0.7l0.9-0.6l0,0.1l-1.8,1.1c0.1,0.1,0.2,0.1,0.3,0.1l1.6-1C440.7,80.4,440.7,80.2,440.7,80.1z"/>
		<polygon class="st8" points="435.6,82.8 435.7,82.5 435.9,82.8 		"/>
		<polygon class="st19" points="435.9,82.7 436.5,82.7 436.1,82 435.8,82.5 		"/>
		<rect x="436.2" y="81.6" transform="matrix(0.8417 -0.54 0.54 0.8417 25.2058 249.3436)" class="st17" width="3.3" height="0.2"/>
		<path class="st17" d="M441.5,79c0,0-0.1-0.1-0.1-0.1c0,0.3-0.6,0.7-0.8,0.8l-1.2,0.8l0.1,0.2l1.2-0.8
			C440.9,79.9,441.7,79.3,441.5,79z"/>
		<path class="st17" d="M440.7,80.1C440.6,80.1,440.6,80.1,440.7,80.1l-0.2,0l0,0.1l-1.8,1.1c0.1,0.1,0.2,0.1,0.3,0.1l1.6-1
			C440.7,80.4,440.7,80.2,440.7,80.1z"/>
	</g>
	<g>
		<polygon class="st2" points="392.5,60.8 400.9,56.1 402,55.5 403.2,56.3 403.2,57 407.2,59.3 398.4,64.3 		"/>
		<polygon class="st5" points="392.1,60.5 400.5,55.8 401.6,55.2 402.8,56 402.8,56.7 406.8,59 398,64 		"/>
	</g>
	<g>
		<polygon class="st2" points="392.1,60.1 400.5,55.4 401.6,54.8 402.8,55.6 402.8,56.3 406.8,58.6 398,63.6 		"/>
		<polygon class="st5" points="391.7,59.8 400.2,55.1 401.2,54.5 402.4,55.3 402.4,56 406.4,58.3 397.6,63.2 		"/>
	</g>
	<g>
		<polygon class="st2" points="392.3,59.2 400.7,54.5 401.8,53.9 403,54.7 403,55.4 407,57.7 398.2,62.7 		"/>
		<polygon class="st5" points="391.9,58.9 400.4,54.2 401.4,53.6 402.6,54.4 402.6,55.1 406.6,57.4 397.8,62.3 		"/>
	</g>
	<g>
		<polygon class="st2" points="392.3,58.5 400.7,53.8 401.8,53.2 403,54 403,54.7 407,57 398.2,62 		"/>
		<polygon class="st5" points="391.9,58.2 400.4,53.5 401.4,52.9 402.6,53.7 402.6,54.4 406.6,56.7 397.8,61.7 		"/>
	</g>
	<g>
		<g>
			<polygon class="st19" points="391.5,73.4 400.4,68.5 406.2,71.9 397.4,76.9 			"/>
			<polygon class="st10" points="391.5,73.4 400.4,68.5 406.2,71.9 397.4,76.9 			"/>
		</g>
		<g>
			<g>
				<polygon class="st19" points="391.5,72.9 400.4,68 406.2,71.4 397.4,76.4 				"/>
				<polygon class="st10" points="391.5,72.9 400.4,68 406.2,71.4 397.4,76.4 				"/>
			</g>
			<polygon class="st10" points="391.5,72.9 400.4,68 406.2,71.4 397.4,76.4 			"/>
		</g>
		<g>
			<polygon class="st19" points="391.5,72.4 400.4,67.5 406.2,70.9 397.4,75.9 			"/>
			<polygon class="st10" points="391.5,72.4 400.4,67.5 406.2,70.9 397.4,75.9 			"/>
		</g>
		<g>
			<g>
				<polygon class="st19" points="391.5,71.9 400.4,67 406.2,70.4 397.4,75.4 				"/>
				<polygon class="st10" points="391.5,71.9 400.4,67 406.2,70.4 397.4,75.4 				"/>
			</g>
			<polygon class="st10" points="391.5,71.9 400.4,67 406.2,70.4 397.4,75.4 			"/>
		</g>
		<g>
			<polygon class="st19" points="391.5,71.4 400.4,66.5 406.2,70 397.4,74.9 			"/>
			<polygon class="st10" points="391.5,71.4 400.4,66.5 406.2,70 397.4,74.9 			"/>
		</g>
		<g>
			<g>
				<polygon class="st19" points="391.5,70.9 400.4,66.1 406.2,69.5 397.4,74.4 				"/>
				<polygon class="st10" points="391.5,70.9 400.4,66.1 406.2,69.5 397.4,74.4 				"/>
			</g>
			<polygon class="st10" points="391.5,70.9 400.4,66.1 406.2,69.5 397.4,74.4 			"/>
		</g>
		<g>
			<polygon class="st19" points="391.5,70.5 400.4,65.6 406.2,69 397.4,73.9 			"/>
			<polygon class="st10" points="391.5,70.5 400.4,65.6 406.2,69 397.4,73.9 			"/>
		</g>
		<polygon class="st19" points="391.5,70 400.4,65.1 406.2,68.5 397.4,73.4 		"/>
	</g>
	<path class="st2" d="M431.4,82.2l-0.1-0.3c0,0-0.1,0-0.1,0L431.4,82.2C431.4,82.2,431.4,82.2,431.4,82.2z"/>
	<path class="st2" d="M431.4,82.2l-0.1-0.3c0,0-0.1,0-0.1,0L431.4,82.2C431.4,82.2,431.4,82.2,431.4,82.2z"/>
	<g>
		<ellipse class="st8" cx="432.5" cy="83.3" rx="2.1" ry="1.3"/>
		<path class="st2" d="M432.5,82c0.3,0,0.6,0,0.8,0.1c0,0,0,0,0.1,0l0.1-0.3c0,0,0,0-0.1,0c-0.3-0.1-0.6-0.1-0.9-0.1
			c-0.4,0-0.7,0.1-1.1,0.2l0.1,0.3C431.8,82.1,432.2,82,432.5,82z"/>
		<g>
			
				<rect x="431.1" y="81.7" transform="matrix(0.8417 -0.54 0.54 0.8417 23.3211 246.2118)" class="st13" width="0.8" height="3.3"/>
			<rect x="430.2" y="81.7" transform="matrix(0.8417 -0.54 0.54 0.8417 23.9763 245.4575)" class="st5" width="0.8" height="0.2"/>
			
				<rect x="430.7" y="81.6" transform="matrix(0.8417 -0.54 0.54 0.8417 24.1026 245.5672)" class="st21" width="0.2" height="0.2"/>
			<path class="st13" d="M430.3,80.4C430.3,80.4,430.2,80.4,430.3,80.4l-0.2-0.1c-0.1-0.2-0.7-0.9-1-0.8c-0.3,0.2,0.1,1,0.3,1.2
				l0.8,1.2l0.7-0.5l-0.6-0.9l0.1,0l1.1,1.8c0.1-0.1,0.1-0.2,0.1-0.3l-1-1.6C430.5,80.4,430.4,80.3,430.3,80.4z"/>
			<polygon class="st8" points="432.9,85.4 432.6,85.3 432.9,85.1 			"/>
			<polygon class="st19" points="432.8,85.1 432.8,84.5 432.1,84.9 432.6,85.2 			"/>
			
				<rect x="431.7" y="81.5" transform="matrix(0.8417 -0.54 0.54 0.8417 23.4474 246.3215)" class="st17" width="0.2" height="3.3"/>
			<path class="st17" d="M429.1,79.5c0,0-0.1,0.1-0.1,0.1c0.3,0,0.7,0.6,0.8,0.8l0.8,1.2l0.2-0.1l-0.8-1.2
				C430,80.1,429.4,79.3,429.1,79.5z"/>
			<path class="st17" d="M430.3,80.4C430.3,80.4,430.2,80.4,430.3,80.4l0,0.2l0.1,0l1.1,1.8c0.1-0.1,0.1-0.2,0.1-0.3l-1-1.6
				C430.5,80.4,430.4,80.3,430.3,80.4z"/>
		</g>
		<g>
			
				<rect x="433.2" y="81.5" transform="matrix(0.9734 0.229 -0.229 0.9734 30.5536 -97.0787)" class="st13" width="0.8" height="3.3"/>
			
				<rect x="433.6" y="81.3" transform="matrix(0.9734 0.229 -0.229 0.9734 30.1686 -97.2178)" class="st5" width="0.8" height="0.2"/>
			
				<rect x="434.2" y="81.3" transform="matrix(0.9734 0.229 -0.229 0.9734 30.1919 -97.2822)" class="st21" width="0.2" height="0.2"/>
			<path class="st13" d="M434.8,80.1C434.8,80.1,434.8,80.1,434.8,80.1l-0.1-0.2c0.1-0.2,0.2-1.2-0.1-1.2c-0.3-0.1-0.6,0.8-0.7,1
				l-0.3,1.4l0.8,0.2l0.3-1.1l0.1,0l-0.5,2c0.1,0,0.2,0,0.3-0.2l0.4-1.8C435,80.3,434.9,80.2,434.8,80.1z"/>
			<polygon class="st8" points="433,85.6 432.9,85.2 433.2,85.3 			"/>
			<polygon class="st19" points="433.2,85.3 433.6,84.8 432.8,84.6 433,85.2 			"/>
			
				<rect x="432.2" y="83.1" transform="matrix(0.229 -0.9734 0.9734 0.229 253.5487 486.4812)" class="st17" width="3.3" height="0.2"/>
			<path class="st17" d="M434.6,78.7c0,0-0.1,0-0.1,0c0.2,0.2,0.1,1,0,1.1l-0.3,1.4l0.2,0.1l0.3-1.4
				C434.8,79.7,434.9,78.8,434.6,78.7z"/>
			<path class="st17" d="M434.8,80.1C434.8,80.1,434.8,80.1,434.8,80.1l-0.1,0.2l0.1,0l-0.5,2c0.1,0,0.2,0,0.3-0.2l0.4-1.8
				C435,80.3,434.9,80.2,434.8,80.1z"/>
		</g>
		<path class="st13" d="M432.5,84.8c-1.3,0-2.3-0.6-2.5-1.3c0.1,0.5,0.2,1.7,0.3,2.8c0.2,1.5,4,1.5,4.2,0.1c0.1-0.8,0.3-2.3,0.4-2.8
			C434.8,84.2,433.8,84.8,432.5,84.8z"/>
		<path class="st2" d="M434.2,82.2l-0.1,0.3c0.3,0.2,0.5,0.5,0.5,0.8c0,0.7-0.9,1.3-2.1,1.3c-1.1,0-2.1-0.6-2.1-1.3
			c0-0.2,0.1-0.4,0.2-0.5c0,0-0.2-0.3-0.2-0.3c-0.3,0.2-0.4,0.5-0.4,0.9c0,0.8,1.1,1.5,2.5,1.5s2.5-0.7,2.5-1.5c0-0.4-0.2-0.7-0.6-1
			c-0.1,0.1-0.2,0.1-0.2,0L434.2,82.2C434.3,82.2,434.3,82.2,434.2,82.2z"/>
	</g>
	<g>
		<g>
			<ellipse class="st2" cx="381" cy="70.3" rx="3" ry="1.8"/>
			<ellipse class="st14" cx="381" cy="70.3" rx="3" ry="1.8"/>
			<path class="st13" d="M381,72.2c-1.5,0-2.8-0.7-3-1.6c0.1,0.6,0.2,2.1,0.4,3.4c0.2,1.8,4.8,1.8,5.1,0.1c0.1-0.9,0.4-2.7,0.5-3.4
				C383.8,71.5,382.5,72.2,381,72.2z"/>
			<ellipse class="st8" cx="381" cy="70.3" rx="2.5" ry="1.5"/>
		</g>
		<g>
			<path class="st5" d="M380.3,68.8c0.7,0.1,1.2,0.7,1.1,1.4c-0.1,0.7-0.7,1.2-1.4,1.1c-0.7-0.1-2.1-2.3-3.5-1.8
				C375.7,69.8,377.4,68.4,380.3,68.8z"/>
			<path class="st5" d="M381.6,68.9c-0.7,0.1-1.2,0.7-1.1,1.4c0.1,0.7,0.7,1.2,1.4,1.1c0.7-0.1,2.1-2.3,3.5-1.8
				C386.1,69.9,384.5,68.5,381.6,68.9z"/>
			<path class="st5" d="M382.3,70.3c-0.3-0.3-0.8-0.3-1.1,0.1c-0.3,0.3-0.3,0.8,0.1,1.1s1.9,0.1,2.2,0.9
				C383.6,72.8,383.6,71.5,382.3,70.3z"/>
			<path class="st5" d="M379.3,69.8c0.4-0.1,0.8,0.1,1,0.4c0.1,0.4-0.1,0.8-0.4,1c-0.4,0.1-1.7-0.6-2.3,0
				C377.2,71.5,377.7,70.4,379.3,69.8z"/>
			<g>
				<path class="st5" d="M381.8,68.5c-0.1,0.4-0.4,0.7-0.8,0.6s-0.7-0.4-0.6-0.8c0.1-0.4,1.3-1.2,1-2
					C381.2,65.9,382,66.8,381.8,68.5z"/>
				<path class="st10" d="M381.8,68.5c-0.1,0.4-0.4,0.7-0.8,0.6s-0.7-0.4-0.6-0.8c0.1-0.4,1.3-1.2,1-2
					C381.2,65.9,382,66.8,381.8,68.5z"/>
			</g>
			<path class="st10" d="M380.9,70.4c-0.3,0.3-0.9,0.4-1.3,0.5c-0.3,0-1.1-0.3-1.7-0.2c-0.4,0.4-0.5,0.7-0.3,0.5
				c0.6-0.6,1.8,0.1,2.2,0C380.3,71.2,380.8,70.7,380.9,70.4z"/>
			<path class="st10" d="M381.3,71.2c-0.2-0.2-0.5-0.5-0.4-0.8c-0.2,0.3,0,0.7,0.3,1c0.3,0.3,1.9,0.1,2.2,0.9c0.1,0.2,0.1,0,0-0.4
				C382.9,71.3,381.6,71.5,381.3,71.2z"/>
			<path class="st5" d="M379.9,70.6c0.2-0.4,0.6-0.5,1-0.4c0.4,0.2,0.5,0.6,0.4,1s-1.6,0.8-1.6,1.6
				C379.7,73.3,379.2,72.2,379.9,70.6z"/>
			<path class="st10" d="M384.9,69.2c-1.7,0.1-2,0.9-2.5,1.3l0.4,0.2c0.7-0.6,1.6-1.5,2.6-1.2C385.8,69.7,385.4,69.4,384.9,69.2z"/>
			<path class="st10" d="M378.9,69.9c-0.7-0.5-1.5-1-2.3-0.7c0,0,0,0,0,0c-0.4,0.2-0.5,0.4-0.2,0.3c0.7-0.2,1.4,0.2,2,0.7
				L378.9,69.9z"/>
			<g>
				<path class="st5" d="M380.3,68c0.3,0.2,0.4,0.7,0.2,1s-0.7,0.4-1,0.2s-0.5-1.7-1.3-1.8C377.7,67.3,379,67.1,380.3,68z"/>
				<path class="st10" d="M379.7,69c-0.2-0.4-0.7-1.7-1.5-1.7c-0.1,0-0.2,0.1,0,0.1c0.9,0.1,1,1.5,1.2,1.8c0.2,0.3,0.5,0.4,0.9,0.2
					C380,69.4,379.8,69.2,379.7,69z"/>
			</g>
			<g>
				<path class="st5" d="M381,68.4c-0.5,0.4-0.6,1.1-0.3,1.6c0.4,0.5,1.1,0.6,1.6,0.3c0.5-0.4,0.7-2.6,2-2.8
					C385,67.3,383.1,66.9,381,68.4z"/>
				<path class="st10" d="M384.3,67.3c-1.3,0-1.9,1.9-2.2,2.4c-0.4,0.5-1,0.6-1,0.6c-0.6-0.1,0.8,0.3,1.3,0s0.7-2.6,2-2.8
					C384.5,67.4,384.5,67.4,384.3,67.3z"/>
			</g>
			<path class="st10" d="M381.2,70.6c0,0.1,0,0.3,0,0.5c-0.2,0.4-1.6,0.8-1.6,1.6c0,0,0,0,0,0c0,0.3,0.1,0.4,0.1,0.2
				c0-0.9,1.4-1.3,1.6-1.6C381.4,71,381.3,70.8,381.2,70.6z"/>
		</g>
	</g>
	<g>
		<g>
			<polygon class="st2" points="425.8,101.2 425.9,99.2 434,94.7 434,96.7 			"/>
			<polygon class="st2" points="420.2,95.2 425.9,99.2 434,94.7 428.4,90.7 			"/>
			<polygon class="st7" points="423.4,95.5 425.7,97.2 427.3,96.3 425,94.6 			"/>
			<polygon class="st7" points="427.5,99.9 427.5,98.7 432.4,96 432.4,97.2 			"/>
			<polygon class="st2" points="425.8,101.2 425.9,99.2 420.2,95.2 420.2,97.2 			"/>
			<polygon class="st7" points="425.8,101.2 425.9,99.2 420.2,95.2 420.2,97.2 			"/>
			<polygon class="st7" points="425.3,100.6 425.3,99.1 420.2,95.5 420.2,97 			"/>
			<polygon class="st7" points="425.3,99.4 425.3,99.1 420.2,95.5 420.2,95.8 			"/>
			<polygon class="st7" points="425.3,99.8 425.3,99.5 420.2,95.9 420.2,96.2 			"/>
			<polygon class="st7" points="425.3,100.2 425.3,100 420.2,96.4 420.2,96.6 			"/>
			<polygon class="st7" points="425.3,100.6 425.3,100.3 420.2,96.7 420.2,97 			"/>
		</g>
		<polygon class="st6" points="420.2,95.2 425.9,99.2 434,94.7 428.4,90.7 		"/>
	</g>
	<g>
		<g>
			<polygon class="st8" points="425.8,98.4 425.9,96.3 434,91.8 434,93.8 			"/>
			<polygon class="st8" points="420.2,92.3 425.9,96.3 434,91.8 428.4,87.8 			"/>
			<polygon class="st7" points="423.4,92.6 425.7,94.3 427.3,93.4 425,91.8 			"/>
			<polygon class="st7" points="427.5,97.1 427.5,95.8 432.4,93.1 432.4,94.3 			"/>
			<polygon class="st8" points="425.8,98.4 425.9,96.3 420.2,92.3 420.2,94.4 			"/>
			<polygon class="st7" points="425.8,98.4 425.9,96.3 420.2,92.3 420.2,94.4 			"/>
			<polygon class="st7" points="425.3,97.7 425.3,96.3 420.2,92.7 420.2,94.1 			"/>
			<polygon class="st7" points="425.3,96.5 425.3,96.3 420.2,92.7 420.2,92.9 			"/>
			<polygon class="st7" points="425.3,96.9 425.3,96.7 420.2,93.1 420.2,93.3 			"/>
			<polygon class="st7" points="425.3,97.3 425.3,97.1 420.2,93.5 420.2,93.7 			"/>
			<polygon class="st7" points="425.3,97.7 425.3,97.5 420.2,93.9 420.2,94.1 			"/>
		</g>
		<polygon class="st10" points="420.2,92.3 425.9,96.3 434,91.8 428.4,87.8 		"/>
	</g>
	<g>
		<polygon class="st13" points="426.9,94.8 428.6,94.6 430.6,103.3 428.8,103.3 		"/>
		<polygon class="st2" points="434.8,91.6 428.6,94.6 430.6,103.3 436.8,100.3 		"/>
		<polygon class="st7" points="433.4,94.3 430.8,95.6 431.3,97.5 433.9,96.3 		"/>
		<polygon class="st7" points="427.5,95.9 428.5,95.8 429.8,101.8 428.9,101.8 		"/>
		<polygon class="st11" points="426.9,94.8 428.6,94.6 434.8,91.6 433.2,91.8 		"/>
		<polygon class="st6" points="427.6,94.6 428.5,94.5 434.3,91.6 433.4,91.8 		"/>
	</g>
	<g>
		<g>
			<g>
				<path class="st2" d="M340.4,82.7l-0.2,0.2c-0.6,0.8-0.4,2,0.4,2.6L347,90c0.8,0.6,2,0.4,2.6-0.4l0.2-0.2c0.6-0.8,0.4-2-0.4-2.6
					l-6.3-4.5C342.2,81.7,341,81.9,340.4,82.7z"/>
				<path class="st21" d="M340.4,82.7l-0.2,0.2c-0.6,0.8-0.4,2,0.4,2.6L347,90c0.8,0.6,2,0.4,2.6-0.4l0.2-0.2c0.6-0.8,0.4-2-0.4-2.6
					l-6.3-4.5C342.2,81.7,341,81.9,340.4,82.7z"/>
			</g>
			<g>
				<path class="st2" d="M346.3,88.8l0.1,0.3c0.4,0.9,1.5,1.4,2.4,1l7.2-2.9c0.9-0.4,1.4-1.5,1-2.4l-0.1-0.3c-0.4-0.9-1.5-1.4-2.4-1
					l-7.2,2.9C346.4,86.8,346,87.9,346.3,88.8z"/>
				<path class="st21" d="M346.3,88.8l0.1,0.3c0.4,0.9,1.5,1.4,2.4,1l7.2-2.9c0.9-0.4,1.4-1.5,1-2.4l-0.1-0.3
					c-0.4-0.9-1.5-1.4-2.4-1l-7.2,2.9C346.4,86.8,346,87.9,346.3,88.8z"/>
			</g>
		</g>
		<path class="st13" d="M337,108.5l0.6-8.7h4l-0.7,10.7c0,0.4-0.2,0.8-0.5,1.1l-6.8,8.7l-4-1.2l6.8-9.6
			C336.8,109.4,337,109,337,108.5z"/>
		<path class="st5" d="M332.8,99.9h4.8v3.6l11.2,15.6l-3,2.6l-7.7-10l-4.1-5.5c-0.8-1.1-1.3-2.4-1.3-3.7L332.8,99.9z"/>
		<path class="st2" d="M333.4,104.4l8.9-4.3c0.3-0.1,0.4-0.4,0.4-0.7V82.2l-2.5-0.9c-2-0.7-4.2-0.2-5.6,1.3l-0.9,0.9
			c-1.2,1.3-1.9,3-1.9,4.8l0.5,15.4C332.3,104.2,332.9,104.6,333.4,104.4z"/>
		<path class="st13" d="M337,74.4c0,0-0.2-1.3,1.1-1.3c1.3,0,1.7,0,1.7,0c0.6,0,1,0.5,1,1v0.5c0,0,1.1,0,1.1,0.9c0,0.9,0,0.9,0,0.9
			c0,0.6-0.5,1-1,1h-0.5c-0.6,0-1,0.5-1,1v0c0,0.6-0.5,1-1,1h-1.8c-0.6,0-1-0.5-1-1v-3.1c0-0.6,0.5-1,1-1H337z"/>
		<path class="st8" d="M347,123.6l6.4-2.5c0.3-0.1,0.5-0.5,0.4-0.8v0c-0.6-1.5-2.3-2.2-3.8-1.7l-4.7,1.8l1.1,2.8
			C346.5,123.6,346.8,123.7,347,123.6z"/>
		<path class="st8" d="M329.8,122.9l6.5,2c0.3,0.1,0.7-0.1,0.8-0.4l0,0c0.5-1.5-0.4-3.2-1.9-3.6l-4.9-1.5l-0.9,2.9
			C329.3,122.5,329.5,122.8,329.8,122.9z"/>
		<path class="st5" d="M338.7,82.7h0.5c1.1,0,2-0.9,2-2v-2.4c0-1.1-0.9-2-2-2h-0.5c-1.1,0-2,0.9-2,2v2.4
			C336.7,81.8,337.6,82.7,338.7,82.7z"/>
		<g>
			<path class="st2" d="M335.1,86.7v5.5c0,0.2,0.2,0.3,0.3,0.2l3.4-1.8c0.9-0.5,2.1-0.1,2.6,0.8l0,0c0.5,0.9,0.1,2.1-0.8,2.6l-6,3.2
				c-0.9,0.5-1.9,0.2-2.5-0.6l0,0c-0.5-0.8-0.8-1.8-0.8-2.8v-7c0-1.1,0.9-1.9,1.9-1.9h0C334.2,84.8,335.1,85.6,335.1,86.7z"/>
			<path class="st21" d="M335.1,86.7v5.5c0,0.2,0.2,0.3,0.3,0.2l3.4-1.8c0.9-0.5,2.1-0.1,2.6,0.8l0,0c0.5,0.9,0.1,2.1-0.8,2.6
				l-6,3.2c-0.9,0.5-1.9,0.2-2.5-0.6l0,0c-0.5-0.8-0.8-1.8-0.8-2.8v-7c0-1.1,0.9-1.9,1.9-1.9h0C334.2,84.8,335.1,85.6,335.1,86.7z"
				/>
		</g>
	</g>
	<path class="st5" d="M359.5,82.6c-0.6-0.8-1.7-0.9-2.5-0.2l-1,0.9c-0.1-0.1-0.3-0.2-0.5-0.2c-0.4,0-0.9,0.3-0.9,0.8
		s-0.2,1.8,0.5,2.6c0.7,0.8,1.7,0.9,2.5,0.2l1.5-1.3C359.9,84.6,360.1,83.4,359.5,82.6z"/>
	<path class="st5" d="M342.9,89.7c-0.6-0.8-1.7-0.9-2.5-0.2l-1,0.9c-0.1-0.1-0.3-0.2-0.5-0.2c-0.4,0-0.9,0.3-0.9,0.8
		c0,0.5-0.2,1.8,0.5,2.6c0.7,0.8,1.7,0.9,2.5,0.2l1.5-1.3C343.4,91.7,343.5,90.5,342.9,89.7z"/>
</g>
</svg>
