<?xml version="1.0" encoding="utf-8"?>
<!-- Generator: Adobe Illustrator 26.2.1, SVG Export Plug-In . SVG Version: 6.00 Build 0)  -->
<svg version="1.1" id="Capa_1" xmlns="http://www.w3.org/2000/svg" xmlns:xlink="http://www.w3.org/1999/xlink" x="0px" y="0px"
	 viewBox="0 0 98 98" style="enable-background:new 0 0 98 98;" xml:space="preserve">
<style type="text/css">
	.st0{fill:#FFFFFF;}
	.st1{fill:#78BB20;}
</style>
<circle class="st0" cx="49" cy="49" r="45"/>
<path class="st1" d="M49,98C22,98,0,76,0,49S22,0,49,0s49,22,49,49S76,98,49,98z M49,8C26.4,8,8,26.4,8,49s18.4,41,41,41
	s41-18.4,41-41S71.6,8,49,8z"/>
<g>
	<path class="st1" d="M48,32.2c-3.4,0-6.2-2.8-6.2-6.2s2.8-6.2,6.2-6.2s6.2,2.8,6.2,6.2S51.4,32.2,48,32.2z"/>
</g>
<path class="st1" d="M55.9,69.9h-2V42.8c0-2.8-2.2-5-5-5h-7.2c-2.8,0-5,2.2-5,5s2.2,5,5,5h2.2v22.1h-2.2c-2.8,0-5,2.2-5,5s2.2,5,5,5
	h7.2h7c2.8,0,5-2.2,5-5S58.7,69.9,55.9,69.9z"/>
</svg>
