<?xml version="1.0" encoding="utf-8"?>
<!-- Generator: Adobe Illustrator 26.2.1, SVG Export Plug-In . SVG Version: 6.00 Build 0)  -->
<svg version="1.1" id="Layer_1" xmlns="http://www.w3.org/2000/svg" xmlns:xlink="http://www.w3.org/1999/xlink" x="0px" y="0px"
	 viewBox="0 0 175.7 105.7" style="enable-background:new 0 0 175.7 105.7;" xml:space="preserve">
<style type="text/css">
	.st0{fill:#FFFFFF;}
</style>
<g>
	<polygon class="st0" points="18.2,105.6 156.7,105.6 87.8,36.7 	"/>
	<polygon points="15.5,102.2 26.3,91.7 22.7,88 16,94.6 4,82.4 0,86.3 	"/>
	<polygon points="28.7,89.3 39.8,78.5 36.7,75.4 29.7,82.2 26.3,78.8 32,73.3 28.8,70 23.1,75.5 20.3,72.5 27.1,65.9 24,62.8 
		13,73.6 	"/>
	<path d="M64.9,38.1c-4.5-4.6-12.2-4-15.9-0.4c-3.7,3.6-5.6,10.9-0.4,16.3c5.8,5.9,12.7,3.8,16.4,0.1C70.5,48.8,68.5,41.8,64.9,38.1
		z M61.6,51c-2.5,2.4-5.5,1.8-8.9-1.8c-2.9-3-2.7-6-0.6-8c1.4-1.4,4.4-2.7,7.9,0.9C64,46.2,64.1,48.6,61.6,51z"/>
	<polygon points="77.3,41.9 81.4,37.9 75.3,31.6 71.6,16.3 66.9,20.9 69.4,29.6 61.1,26.6 56.7,30.9 70.7,35.4 	"/>
	<path d="M55.6,63.2c0,0-9.9-3.4-10.4-3.3c-0.2,0,2.1-6.1-3-8.8c0,0-3.8-2.1-7.6,1.4l-8.1,8l15.7,15.8l4.1-4l-8.5-8.7l13.7,3.6
		L55.6,63.2z M40.2,61c-2.3,2.2-2.6,2.4-2.6,2.4s-3.6-3.7-3.7-3.8s2.6-2.5,3-2.9c0.2-0.2,1.9-1.3,3.3,0.2
		C40.1,56.9,42.5,58.7,40.2,61z"/>
	<polygon points="76.1,19.4 72.4,15.7 88.3,0 93.5,5.2 87.8,16.4 99.4,11.2 104.4,16.2 88.5,31.9 84.7,28.1 93.1,19.8 81.6,25 
		79.3,22.6 84.6,11.2 	"/>
	<polygon points="103.6,47.1 92.6,36 108.4,20.3 119.4,31.4 116.2,34.6 109.3,27.6 106.7,30.2 112.2,35.7 108.9,39 103.4,33.5 
		100,36.9 106.8,43.8 	"/>
	<polygon points="139.7,51.9 143.8,56 131.8,67.9 138.6,74.6 134.7,78.5 123.9,67.6 	"/>
	<polygon points="137.5,81.3 153.4,65.6 157.4,69.7 141.5,85.4 	"/>
	<polygon points="148.7,92.6 145,88.9 160.9,73.2 166.3,78.6 161.6,94.9 172.1,84.5 175.7,88.2 159.9,103.9 155.2,99.1 159.3,82 	
		"/>
	<path d="M132.6,44.7L123,35l-15.9,15.7l4.1,4.1l8.6-8.6l-3.1,14.2l4.2,4.2c0,0,3.3-10.1,3.4-10.6c0,0,3.6,2,7.5-1.4
		C131.8,52.6,135.5,49,132.6,44.7z M126.7,49.3c0,0-2,1.4-3.8-0.4l-2.8-2.9c0,0,3.4-3.3,3.8-3.8c0,0,2.6,2.6,2.9,2.9
		C127.2,45.4,129.2,46.9,126.7,49.3z"/>
</g>
</svg>
