<?xml version="1.0" encoding="utf-8"?>
<!-- Generator: Adobe Illustrator 22.1.0, SVG Export Plug-In . SVG Version: 6.00 Build 0)  -->
<svg version="1.1" id="PreZero_Logo" xmlns="http://www.w3.org/2000/svg" xmlns:xlink="http://www.w3.org/1999/xlink" x="0px"
	 y="0px" viewBox="0 0 1000 392.2" style="enable-background:new 0 0 1000 392.2;" xml:space="preserve">
<style type="text/css">
	.st0{fill:#A5C814;}
	.st1{fill:#003D4A;}
</style>
<path class="st0" d="M669.3,0C598.4,0,541,57.8,541,128.9v59.8c-0.2,7.9,6.1,14.4,14,14.6c0,0,0,0,0,0h0.2c8,0,14.5-6.5,14.5-14.6
	c0,0,0,0,0,0l0,0v-59.8c0-55,44.7-98.9,99.6-98.9H971v233c0,55-44.7,100-99.6,100h-100c-7.9-0.1-14.4,6.2-14.5,14.1c0,0,0,0,0,0v0.2
	c0,8,6.5,14.6,14.5,14.7h100c71,0,128.7-58,128.7-129V0H669.3z"/>
<path class="st1" d="M674.7,243.7H584c-23.9-0.1-43.3,19.2-43.4,43.1c0,0,0,0,0,0v61.7c0,24,19.5,43.8,43.4,43.8h90.7
	c23.9,0,43.4-19.8,43.4-43.8v-61.6c0-23.9-19.4-43.2-43.3-43.2c0,0,0,0,0,0H674.7z M689,348.4c0,7.9-6.4,14.3-14.3,14.3h-90.6
	c-7.9,0-14.3-6.4-14.3-14.3v-61.6c0-7.9,6.4-14.3,14.3-14.3h90.7c7.9,0,14.3,6.4,14.3,14.3L689,348.4L689,348.4z M518.8,258.2
	c0.1,7.9-6.2,14.4-14.1,14.6h-0.2l-50.4,0.1c-7.9,0-14.3,6.4-14.3,14.3v90.5c0,8-6.5,14.5-14.6,14.5c-8,0-14.5-6.5-14.5-14.5v-90.5
	c0-24,19.4-43.4,43.4-43.5h50.1C512.2,243.7,518.8,250.1,518.8,258.2C518.8,258.2,518.8,258.2,518.8,258.2z M334.3,243.6h-88.9
	c-24,0-43.4,19.5-43.4,43.5c0,0,0,0,0,0v61.6c0,24,19.4,43.4,43.4,43.5h88.7c8,0,14.5-6.5,14.5-14.5c0-8-6.5-14.6-14.5-14.6h-88.7
	c-7.9,0-14.3-6.4-14.3-14.3v-18h103.2c24.1,0,43.6-19.5,43.6-43.6S358.4,243.6,334.3,243.6L334.3,243.6z M334.3,301.6H231.1v-14.5
	c0-7.9,6.4-14.3,14.3-14.3h88.9c8,0.3,14.2,7,13.9,14.9C347.9,295.3,341.8,301.3,334.3,301.6L334.3,301.6z M175.6,377.6
	c0,8-6.5,14.5-14.5,14.6H14.5c-8,0-14.5-6.4-14.5-14.4c0-0.1,0-0.1,0-0.2c0-4.3,1.9-8.4,5.2-11.2l115.4-93.7H14.5
	c-8,0-14.6-6.5-14.6-14.5c0-8,6.5-14.6,14.6-14.6h146.2c8,0,14.5,6.5,14.5,14.6c0,0,0,0,0,0c0,4.3-1.9,8.4-5.2,11.2L52.6,363.1
	h108.5C169.1,363.1,175.6,369.6,175.6,377.6L175.6,377.6z M475.2,0h-88.9c-24,0.1-43.4,19.5-43.4,43.5v61.6
	c0,24,19.4,43.4,43.4,43.5H475c8,0,14.5-6.5,14.5-14.6c0-8-6.5-14.5-14.5-14.5h-88.6c-7.9,0-14.3-6.4-14.3-14.3v-18h103.2
	c24.1,0,43.6-19.6,43.5-43.6C518.8,19.5,499.3,0,475.2,0z M475.2,58H372V43.5c0-7.9,6.4-14.3,14.3-14.3h88.9c8,0.3,14.2,7,13.9,14.9
	C488.8,51.7,482.7,57.7,475.2,58L475.2,58z M320.9,14.5c0.1,7.9-6.2,14.4-14.1,14.6h-0.2l-50.4,0.1c-7.9,0-14.3,6.4-14.3,14.3l0,0
	V134c0,8-6.5,14.6-14.6,14.6s-14.6-6.5-14.6-14.6V43.5c0-23.9,19.4-43.4,43.3-43.5h50.1c8-0.1,14.6,6.4,14.7,14.4
	C320.9,14.4,320.9,14.5,320.9,14.5L320.9,14.5z M14.5,202.8c8,0,14.5-6.5,14.5-14.6c0,0,0,0,0,0l0,0v-39.6h103
	c24,0,43.4-19.5,43.4-43.5c0,0,0,0,0,0V43.5C175.4,19.5,156,0,132,0c0,0,0,0,0,0H43.4C19.4,0,0,19.5,0,43.5c0,0,0,0,0,0v144.8
	C0,196.3,6.5,202.8,14.5,202.8z M29.1,43.5c0-7.9,6.4-14.3,14.3-14.3H132c7.9,0,14.3,6.4,14.3,14.3l0,0v61.7
	c0,7.9-6.4,14.3-14.3,14.3l0,0H29L29.1,43.5z"/>
</svg>
