<?xml version="1.0" encoding="utf-8"?>
<!-- Generator: Adobe Illustrator 24.2.3, SVG Export Plug-In . SVG Version: 6.00 Build 0)  -->
<svg version="1.1" id="Capa_1" xmlns="http://www.w3.org/2000/svg" xmlns:xlink="http://www.w3.org/1999/xlink" x="0px" y="0px"
	 viewBox="0 0 45 45" style="enable-background:new 0 0 45 45;" xml:space="preserve">
<style type="text/css">
	.st0{fill:#DC7C26;}
	.st1{display:none;}
	.st2{display:inline;fill:#81BCBF;}
	.st3{display:inline;}
	.st4{fill:#81BCBF;}
</style>
<g id="Capa_1_1_">
	<g>
		<path class="st0" d="M22.6,0.3c-12.3,0-22.3,10-22.3,22.3s10,22.3,22.3,22.3c12.3,0,22.3-10,22.3-22.3S34.9,0.3,22.6,0.3z
			 M41.9,22.6c0,10.6-8.7,19.3-19.3,19.3S3.3,33.2,3.3,22.6S11.9,3.2,22.6,3.2S41.9,11.9,41.9,22.6z"/>
		<path class="st0" d="M22.7,11.3c-2.2,0-4,0.7-5.2,2.1c-1,1-1.6,2.3-1.8,3.8c-0.1,0.5,0.1,1,0.4,1.4c0.3,0.4,0.8,0.6,1.4,0.6
			c0.9,0,1.7-0.7,1.8-1.6c0.1-0.7,0.2-1.2,0.5-1.6c0.5-1,1.5-1.5,2.9-1.5c1.1,0,2,0.3,2.4,0.9l0,0c0.5,0.6,0.7,1.3,0.7,2.1
			c0,0.6-0.2,1.1-0.5,1.7c-0.2,0.3-0.4,0.6-0.8,0.9l-1.2,1.1c-1.2,1.1-1.9,2.2-2.3,3.1c-0.2,0.6-0.4,1.3-0.5,2c0,0.5,0.1,1,0.5,1.4
			c0.3,0.4,0.8,0.6,1.3,0.6c0.9,0,1.7-0.7,1.8-1.6c0.1-0.6,0.2-1.1,0.3-1.4c0.2-0.6,0.8-1.3,1.7-2.1c1.3-1.3,2.2-2.2,2.6-2.9
			c0.5-0.7,0.7-1.6,0.7-2.8c0-1.8-0.6-3.3-1.9-4.5C26.4,11.9,24.7,11.3,22.7,11.3z"/>
		<path class="st0" d="M22.4,30.8c-1.1,0-1.9,0.9-1.9,1.9c0,1.1,0.9,1.9,1.9,1.9s1.9-0.9,1.9-1.9S23.5,30.8,22.4,30.8z"/>
	</g>
</g>
<g id="Capa_2_1_" class="st1">
	<path class="st2" d="M-67.6,0.1c-6.5,0-12.7,2.8-16.9,7.7L-85,8.4c-3.2,4-5,9-5,14.2C-90.1,34.9-80,45-67.6,45s22.4-10.1,22.4-22.4
		S-55.2,0.1-67.6,0.1z M-55.5,21.2c-0.1-2.9-0.5-5.8-1.1-8.3c1.6-0.5,3.3-1.1,4.9-1.9c2.2,3,3.5,6.5,3.8,10.2
		C-48,21.2-55.5,21.2-55.5,21.2z M-58.2,21.2h-8.1v-6.6c2.3-0.1,4.7-0.4,7-1C-58.7,15.9-58.3,18.5-58.2,21.2z M-57.4,10.2
		C-57.8,9.1-58.2,8-58.8,7c-0.5-1.1-1.2-2-1.8-2.9c2.6,1,5,2.6,7,4.6C-54.8,9.3-56.1,9.8-57.4,10.2z M-66.3,11.8V3.1
		c2.5,0.8,4.7,3.6,6.2,7.9C-62.1,11.4-64.2,11.7-66.3,11.8z M-66.3,30.3v-6.4h8c-0.1,2.6-0.4,5.1-1,7.4
		C-61.5,30.7-63.9,30.4-66.3,30.3z M-60,33.9c-0.4,1-0.8,2-1.2,2.8c-1.4,2.8-3.2,4.7-5.1,5.3v-9C-64.2,33.1-62.1,33.4-60,33.9z
		 M-53.4,36.2c-2,2.1-4.5,3.7-7.2,4.8c1.3-1.7,2.4-3.8,3.3-6.3C-56,35.1-54.7,35.6-53.4,36.2z M-48,23.9c-0.2,3.7-1.5,7.1-3.7,10.1
		c-1.6-0.8-3.3-1.4-5-2c0.6-2.5,1-5.3,1.1-8.1L-48,23.9L-48,23.9z M-76,31.2c-0.6-2.3-0.9-4.8-1-7.3h8v6.4c-1.8,0.1-3.7,0.2-5.4,0.6
		C-75,30.9-75.5,31.1-76,31.2z M-69,33v9c-1.8-0.6-3.6-2.5-5-5.2c-0.5-0.9-0.9-1.9-1.2-3c0.5-0.1,1.1-0.2,1.6-0.3
		C-72.1,33.2-70.6,33.1-69,33z M-80.4,35.5c0.8-0.3,1.7-0.7,2.5-0.9c0.9,2.5,2,4.7,3.3,6.4c-2.7-1-5.2-2.7-7.3-4.8
		C-81.5,35.9-81,35.7-80.4,35.5z M-78.7,31.9c-2.5,0.8-4.2,1.6-5,2.1c-2.1-3-3.4-6.4-3.6-10.1h7.5C-79.7,26.7-79.3,29.4-78.7,31.9z
		 M-87.3,21.2c0.3-3.7,1.5-7.2,3.7-10.2c1.3,0.7,3.1,1.4,4.9,2c-0.6,2.6-1,5.4-1.1,8.2H-87.3z M-69,3.1v8.8
		c-1.6-0.1-3.1-0.2-4.7-0.5c-0.5-0.1-1.1-0.2-1.6-0.3C-73.7,6.7-71.5,3.9-69,3.1z M-76.5,7L-76.5,7c-0.5,1-1,2.2-1.4,3.4
		c-0.8-0.3-1.7-0.6-2.5-0.9c-0.5-0.2-0.9-0.4-1.3-0.6c2-2.1,4.4-3.6,7-4.7C-75.3,5-75.9,5.9-76.5,7z M-76,13.7
		c0.5,0.1,1,0.2,1.6,0.3c1.9,0.3,3.7,0.5,5.4,0.6v6.6h-8C-76.9,18.6-76.6,16-76,13.7z"/>
	<g class="st3">
		<path class="st4" d="M-21.2,28.9V17.8c0-0.8-0.6-1.5-1.5-1.5c-0.8,0-1.5,0.6-1.5,1.5v11.1l-3.1-3.1c-0.5-0.5-1.5-0.5-2,0
			c-0.3,0.3-0.4,0.6-0.4,1c0,0.4,0.1,0.8,0.4,1l5.6,5.6l0,0c0.1,0,0.1,0.1,0.2,0.2c0,0,0.1,0.1,0.1,0.1l0.1,0.1c0,0,0.1,0,0.1,0
			l0.1,0c0.1,0,0.2,0,0.3,0s0.2,0,0.3,0l0.2-0.1c0,0,0.1,0,0.1-0.1l0.1-0.1c0.1-0.1,0.2-0.1,0.2-0.2l5.6-5.6c0.3-0.3,0.4-0.6,0.4-1
			c0-0.4-0.1-0.8-0.4-1s-0.6-0.4-1-0.4l0,0c-0.4,0-0.8,0.1-1,0.4L-21.2,28.9z M-22.4,33.3L-22.4,33.3L-22.4,33.3L-22.4,33.3z"/>
		<path class="st4" d="M-4.6,11.7c0-0.1,0-0.1-0.1-0.1l-0.2-0.4l-0.1,0L-15.1,0.7l-0.1-0.1c-0.3-0.3-0.6-0.4-1-0.4h-20.5
			c-2.2,0-4,1.8-4,4v36.6c0,2.2,1.8,4,4,4h28.3c2.2,0,4-1.8,4-4V12.3l0-0.1c0-0.1,0-0.1,0-0.1l0.1,0L-4.6,11.7z M-14.8,10.8V5.2
			l5.4,5.6H-14.8z M-16.2,13.7h8.9v27.1c0,0.6-0.5,1.1-1.1,1.1h-28.2c-0.6,0-1.1-0.5-1.1-1.1V4.2c0-0.6,0.5-1.1,1.1-1.1h19.1v9.1
			C-17.7,13.1-17,13.7-16.2,13.7z"/>
	</g>
</g>
</svg>
