<svg xmlns="http://www.w3.org/2000/svg" viewBox="0 0 283.46 50.35"><defs><style>.cls-1{fill:#fff;}</style></defs><g id="Capa_2" data-name="Capa 2"><path class="cls-1" d="M66.53,66.3c0-2.49,3-3.89,6.58-3.89a16.1,16.1,0,0,1,8.88,3,.46.46,0,0,0,.65-.13l5.58-8.6a.46.46,0,0,0-.11-.63c-3.32-2.4-9.94-4.62-16-4.62-9.57,0-18.55,5.78-18.55,15,0,15.55,23.43,13,23.43,20.24,0,2.39-2.69,4.09-6.18,4.09A20.57,20.57,0,0,1,58,86.39a.47.47,0,0,0-.69.09l-5.73,8.46a.45.45,0,0,0,.11.64,33.43,33.43,0,0,0,19.07,6.21c10.17,0,19.25-5.68,19.25-15C90,70.09,66.53,72.58,66.53,66.3Z" transform="translate(-51.45 -51.45)"/><path class="cls-1" d="M117.47,51.45c-14.36,0-23.53,11.76-23.53,25.22,0,15.15,10.87,25.12,25.33,25.12,7.32,0,14.84-3,19.55-8.34a.48.48,0,0,0,0-.64l-6.73-6.73a.47.47,0,0,0-.67,0,17.05,17.05,0,0,1-11.84,5.24c-6.7,0-12.07-4.45-13-10.94a.47.47,0,0,1,.46-.53h32.58a.46.46,0,0,0,.46-.39,22.9,22.9,0,0,0,.23-3.3C140.3,62.71,130.83,51.45,117.47,51.45Zm9,18.94H107.66a.47.47,0,0,1-.46-.57,10.57,10.57,0,0,1,10.27-7.91,9.67,9.67,0,0,1,9.5,7.93A.47.47,0,0,1,126.51,70.39Z" transform="translate(-51.45 -51.45)"/><path class="cls-1" d="M309.19,51.45c-14.66,0-25.73,11.26-25.73,25.22s11.07,25.12,25.73,25.12,25.72-11.16,25.72-25.12S323.84,51.45,309.19,51.45Zm0,38.38c-7.58,0-12.76-5.88-12.76-13.16s5.18-13.26,12.76-13.26S322,69.39,322,76.67,316.76,89.83,309.19,89.83Z" transform="translate(-51.45 -51.45)"/><path class="cls-1" d="M256.65,51.45a23,23,0,0,0-11.07,2.72.67.67,0,0,0-.29.31L233.44,80.25a.78.78,0,0,0-.06.37c1.73,12.91,11.91,21.17,25.06,21.17,7.33,0,14.85-3,19.56-8.34a.48.48,0,0,0,0-.64l-6.74-6.73a.46.46,0,0,0-.65,0,17,17,0,0,1-11.85,5.25c-6.7,0-12.07-4.45-13-10.94a.47.47,0,0,1,.46-.53h32.57a.47.47,0,0,0,.47-.39,22.9,22.9,0,0,0,.23-3.3C279.48,62.71,270,51.45,256.65,51.45Zm9,18.94H246.83a.47.47,0,0,1-.45-.57,10.58,10.58,0,0,1,10.27-7.91,9.67,9.67,0,0,1,9.5,7.94A.46.46,0,0,1,265.69,70.39Z" transform="translate(-51.45 -51.45)"/><path class="cls-1" d="M234.06,52.44H221.63a.48.48,0,0,0-.43.28L208.49,81a.46.46,0,0,1-.85,0L194.93,52.72a.46.46,0,0,0-.42-.28H182.07a.46.46,0,0,0-.42.66l21.81,47.43a.46.46,0,0,0,.42.27h8.38a.48.48,0,0,0,.42-.27l21.8-47.43A.46.46,0,0,0,234.06,52.44Z" transform="translate(-51.45 -51.45)"/><path class="cls-1" d="M177.74,51.78a23.51,23.51,0,0,0-3.94-.33c-5.88,0-11.17,2.29-14.06,5.88V52.91a.47.47,0,0,0-.46-.47H147.75a.47.47,0,0,0-.47.47v47.42a.47.47,0,0,0,.47.47h12a.47.47,0,0,0,.47-.47V70.51a.46.46,0,0,1,.06-.23c1.65-2.88,6.09-6.87,11.71-6.87a21.57,21.57,0,0,1,4.18.36.47.47,0,0,0,.57-.39l1.37-11.08A.47.47,0,0,0,177.74,51.78Z" transform="translate(-51.45 -51.45)"/></g></svg>