<svg xmlns="http://www.w3.org/2000/svg" width="166" height="166" viewBox="0 0 166 166">
  <title>tipo-canal-03-white</title>
  <g id="Capa_2" data-name="Capa 2">
    <g style="opacity: 0.20000000298023224">
      <rect x="26.7" y="25.7" width="140.3" height="140.28" style="fill: #fff"/>
    </g>
    <rect x="3.7" y="3.6" width="143.4" height="143.43" style="fill: none;stroke: #fff;stroke-linecap: round;stroke-linejoin: round;stroke-width: 5px"/>
  </g>
  <g id="Capa_1" data-name="Capa 1">
    <path d="M108.9,145.4V116.2A35.4,35.4,0,0,0,90.6,86.8a25.2,25.2,0,1,0-33.3-.4,35.4,35.4,0,0,0-19,29.8c0,.5-.1,28.6-.1,29.2" style="fill: none;stroke: #fff;stroke-linecap: round;stroke-linejoin: round;stroke-width: 4px"/>
    <path d="M38.2,147.5c.1-7.3.1-31,.1-31.3A34.9,34.9,0,0,1,43.7,99a26,26,0,0,0-5.1-3.8,17,17,0,1,0-22.4-.3,23.8,23.8,0,0,0-12.8,20v17.6" style="fill: none;stroke: #fff;stroke-linecap: round;stroke-linejoin: round;stroke-width: 3px"/>
    <path d="M146.8,132.5V114.9a23.8,23.8,0,0,0-12.2-19.7,17,17,0,1,0-22.4-.3,23.5,23.5,0,0,0-7.5,6.2,36.2,36.2,0,0,1,4.2,15.1v16.3" style="fill: none;stroke: #fff;stroke-linecap: round;stroke-linejoin: round;stroke-width: 3px"/>
  </g>
</svg>
