<?xml version="1.0" encoding="utf-8"?>
<!-- Generator: Adobe Illustrator 22.1.0, SVG Export Plug-In . SVG Version: 6.00 Build 0)  -->
<svg version="1.1" id="Capa_1" xmlns="http://www.w3.org/2000/svg" xmlns:xlink="http://www.w3.org/1999/xlink" x="0px" y="0px"
	 viewBox="0 0 968.5 670.3" style="enable-background:new 0 0 968.5 670.3;" xml:space="preserve">
<style type="text/css">
	.st0{fill:#F4F4F4;}
</style>
<title>trama_roja</title>
<path class="st0" d="M282.7,480.2c-4.2,3.2-8.4,1.7-7.4-3.2l9.4-44.9c2.8-13.3,22.9-27.3,40.7-27.3h89.1c3.8,0,7,2.9,1,7.6
	c-3.8,3-31.2,24.2-33.2,25.7c-3.6,2.7-7.9,4.1-12.3,4h-33.2c-3.2,0.1-6.3,1.2-8.8,3.2L282.7,480.2z"/>
<path class="st0" d="M214.1,533.2c-2.8,2-7.1,1.5-6.1-3.5l17.2-81.7c0.7-3.2,0-5.9-5.9-5.9h-83c-3.8,0-7-2.9-1-7.6
	c3.8-3,31.2-24.2,33.2-25.6c3.6-2.7,7.9-4.1,12.3-4h57c19.9,0,35.6,12.7,31.5,32.2c-3.6,16.7-12.1,57-12.1,57
	c-1.6,7.6-8.3,12.2-12.2,15.2L214.1,533.2z"/>
<path class="st0" d="M305.6,393.9h-41.5c-5.6,0.1-10.2-4.3-10.3-9.8c0-0.7,0-1.4,0.2-2.1l8.9-41.5c1.1-6.7,6.8-11.7,13.6-11.9h41.5
	c5.6-0.1,10.2,4.3,10.3,9.8c0,0.7,0,1.4-0.2,2l-8.9,41.5C318.1,388.7,312.4,393.6,305.6,393.9z"/>
<path class="st0" d="M591,440.1c-3.1,2.4-6.2,1.3-5.5-2.4l7-33.2c2.1-9.8,16.9-20.1,30.1-20.1h65.8c2.8,0,5.2,2.1,0.8,5.6
	c-2.8,2.2-23.1,17.9-24.5,19c-2.6,2-5.8,3-9.1,2.9H631c-2.4,0.1-4.6,0.9-6.5,2.3L591,440.1z"/>
<path class="st0" d="M540.4,479.2c-2.1,1.5-5.3,1.1-4.5-2.6l12.7-60.4c0.5-2.4,0-4.4-4.4-4.4h-61.3c-2.8,0-5.2-2.1-0.8-5.6
	c2.8-2.2,23.1-17.9,24.5-19c2.6-2,5.8-3,9.1-2.9h42.2c14.7,0,26.3,9.4,23.3,23.8c-2.6,12.3-8.9,42.2-8.9,42.2c-1.2,5.6-6.2,9-9,11.2
	L540.4,479.2z"/>
<path class="st0" d="M608,376.2h-30.7c-4.1,0.1-7.5-3.2-7.6-7.3c0-0.5,0-1,0.1-1.5l6.6-30.7c0.8-4.9,5-8.6,10-8.8H617
	c4.1-0.1,7.5,3.1,7.6,7.3c0,0.5,0,1-0.1,1.5l-6.5,30.7C617.2,372.4,613,376,608,376.2z"/>
<path class="st0" d="M111.3,288c-3.1,2.4-6.2,1.3-5.5-2.4l7-33.2c2.1-9.8,16.9-20.1,30.1-20.1h65.9c2.8,0,5.1,2.1,0.8,5.6
	c-2.8,2.2-23.1,17.9-24.5,19c-2.6,2-5.8,3-9.1,2.9h-24.6c-2.4,0.1-4.6,0.9-6.5,2.3L111.3,288z"/>
<path class="st0" d="M60.7,327.1c-2,1.5-5.3,1.1-4.5-2.6l12.7-60.4c0.5-2.4,0-4.4-4.4-4.4H3.2c-2.8,0-5.2-2.1-0.7-5.6
	c2.8-2.2,23.1-17.9,24.5-19c2.6-2,5.8-3,9.1-2.9h42.1c14.7,0,26.3,9.4,23.3,23.8c-2.6,12.3-8.9,42.2-8.9,42.2c-1.2,5.6-6.2,9-9,11.2
	L60.7,327.1z"/>
<path class="st0" d="M128.3,224.1H97.6c-4.1,0.1-7.5-3.2-7.6-7.3c0-0.5,0-1,0.1-1.5l6.6-30.7c0.8-4.9,5-8.6,10-8.8h30.7
	c4.1-0.1,7.5,3.1,7.6,7.3c0,0.5,0,1-0.1,1.5l-6.6,30.7C137.5,220.3,133.3,224,128.3,224.1z"/>
<path class="st0" d="M472.9,366.3c-2.1,1.6-4.3,0.9-3.8-1.6l4.8-22.8c1.5-6.8,11.7-13.9,20.7-13.9h45.4c1.9,0,3.6,1.5,0.5,3.9
	c-1.9,1.5-15.9,12.3-16.9,13.1c-1.8,1.3-4,2-6.3,2h-16.9c-1.6,0.1-3.2,0.6-4.5,1.6L472.9,366.3z"/>
<path class="st0" d="M438,393.3c-1.4,1-3.6,0.8-3.1-1.8l8.8-41.6c0.3-1.6,0-3-3-3h-42.3c-1.9,0-3.5-1.5-0.5-3.8
	c1.9-1.5,15.9-12.3,16.9-13.1c1.8-1.3,4-2,6.3-2h29c10.1,0,18.1,6.5,16,16.4c-1.8,8.5-6.2,29.1-6.2,29.1c-0.8,3.9-4.2,6.2-6.2,7.7
	L438,393.3z"/>
<path class="st0" d="M484.6,322.3h-21.2c-2.8,0.1-5.2-2.2-5.3-5c0-0.4,0-0.7,0.1-1.1l4.5-21.2c0.6-3.4,3.5-5.9,6.9-6h21.2
	c2.8-0.1,5.2,2.2,5.3,5c0,0.3,0,0.7-0.1,1l-4.5,21.2C491,319.7,488.1,322.2,484.6,322.3z"/>
<path class="st0" d="M403.7,531.8c-1.5,1.2-3.1,0.6-2.7-1.2l3.5-16.4c1-4.8,8.4-9.9,14.8-9.9h32.5c1.4,0,2.5,1,0.4,2.8
	c-1.4,1.1-11.4,8.8-12.1,9.4c-1.3,1-2.9,1.5-4.5,1.4h-12.1c-1.2,0-2.3,0.4-3.2,1.2L403.7,531.8z"/>
<path class="st0" d="M378.7,551.1c-1,0.7-2.6,0.5-2.2-1.3l6.3-29.8c0.2-1.2,0-2.2-2.2-2.2h-30.3c-1.4,0-2.5-1-0.4-2.8
	c1.4-1.1,11.4-8.8,12.1-9.4c1.3-1,2.9-1.5,4.5-1.5h20.8c7.3,0,13,4.6,11.5,11.8c-1.3,6.1-4.4,20.8-4.4,20.8c-0.6,2.8-3,4.5-4.4,5.5
	L378.7,551.1z"/>
<path class="st0" d="M412.1,500.3h-15.2c-2,0.1-3.7-1.5-3.8-3.6c0-0.3,0-0.5,0.1-0.7l3.2-15.2c0.4-2.5,2.5-4.3,5-4.3h15.2
	c2-0.1,3.7,1.5,3.8,3.6c0,0.3,0,0.5-0.1,0.7l-3.2,15.2C416.7,498.4,414.6,500.2,412.1,500.3z"/>
<path class="st0" d="M599.1,264.2c-1.1,0.8-2.2,0.5-1.9-0.8l2.4-11.7c0.7-3.4,5.9-7.1,10.6-7.1h23.1c1,0,1.8,0.8,0.3,2
	c-1,0.8-8.1,6.3-8.6,6.7c-0.9,0.7-2.1,1-3.2,1h-8.6c-0.8,0-1.6,0.3-2.3,0.8L599.1,264.2z"/>
<path class="st0" d="M581.3,277.9c-0.7,0.5-1.9,0.4-1.6-0.9l4.5-21.2c0.2-0.8,0-1.5-1.5-1.5h-21.5c-1,0-1.8-0.8-0.3-2
	c1-0.8,8.1-6.3,8.6-6.7c0.9-0.7,2.1-1,3.2-1h14.8c5.2,0,9.2,3.3,8.2,8.4c-0.9,4.3-3.1,14.8-3.1,14.8c-0.4,2-2.2,3.2-3.2,3.9
	L581.3,277.9z"/>
<path class="st0" d="M605,241.8h-10.8c-1.4,0-2.6-1.1-2.7-2.6c0-0.2,0-0.3,0-0.5l2.3-10.8c0.3-1.7,1.8-3,3.5-3.1h10.8
	c1.4,0,2.6,1.1,2.7,2.5c0,0.2,0,0.4,0,0.5l-2.3,10.8C608.3,240.4,606.8,241.7,605,241.8z"/>
<path class="st0" d="M203.5,119.7c-1.1,0.8-2.2,0.4-1.9-0.8l2.5-11.6c0.7-3.4,5.9-7.1,10.6-7.1h23.1c1,0,1.8,0.7,0.3,2
	c-1,0.8-8.1,6.3-8.6,6.7c-0.9,0.7-2.1,1-3.2,1h-8.6c-0.8,0-1.6,0.3-2.3,0.8L203.5,119.7z"/>
<path class="st0" d="M185.7,133.5c-0.7,0.5-1.9,0.4-1.6-0.9l4.5-21.2c0.2-0.8,0-1.5-1.5-1.5h-21.5c-1,0-1.8-0.8-0.3-2
	c1-0.8,8.1-6.3,8.6-6.7c0.9-0.7,2.1-1,3.2-1h14.8c5.2,0,9.2,3.3,8.2,8.4c-0.9,4.3-3.1,14.8-3.1,14.8c-0.4,2-2.2,3.2-3.2,3.9
	L185.7,133.5z"/>
<path class="st0" d="M209.5,97.3h-10.8c-1.4,0-2.6-1.1-2.7-2.6c0-0.2,0-0.3,0-0.5l2.3-10.8c0.3-1.7,1.8-3,3.5-3.1h10.8
	c1.4,0,2.6,1.1,2.7,2.5c0,0.2,0,0.4,0,0.5L213,94.2C212.7,96,211.2,97.3,209.5,97.3z"/>
<path class="st0" d="M489.9,72.1c-1.1,0.8-2.2,0.4-1.9-0.8l2.5-11.6c0.7-3.4,6-7.1,10.6-7.1h23.1c1,0,1.8,0.7,0.3,2l-8.6,6.6
	c-0.9,0.7-2.1,1-3.2,1h-8.6c-0.8,0-1.6,0.3-2.3,0.8L489.9,72.1z"/>
<path class="st0" d="M472.1,85.9c-0.7,0.5-1.8,0.4-1.6-0.9l4.5-21.2c0.2-0.8,0-1.5-1.5-1.5h-21.5c-1,0-1.8-0.8-0.3-2l8.6-6.6
	c0.9-0.7,2.1-1,3.2-1h14.8c5.2,0,9.2,3.3,8.2,8.4c-0.9,4.3-3.1,14.8-3.1,14.8c-0.4,2-2.2,3.2-3.2,3.9L472.1,85.9z"/>
<path class="st0" d="M495.9,49.7h-10.8c-1.4,0-2.6-1.1-2.7-2.6c0-0.2,0-0.3,0-0.5l2.3-10.8c0.3-1.7,1.8-3,3.5-3.1h10.8
	c1.4,0,2.7,1.1,2.7,2.5c0,0.2,0,0.4,0,0.5l-2.3,10.8C499.1,48.4,497.6,49.7,495.9,49.7z"/>
<path class="st0" d="M806.3,343.5c-1.1,0.8-2.2,0.4-1.9-0.8l2.4-11.6c0.7-3.4,6-7.1,10.6-7.1h23.1c1,0,1.8,0.8,0.3,2
	c-1,0.8-8.1,6.3-8.6,6.7c-0.9,0.7-2.1,1-3.2,1h-8.6c-0.8,0-1.6,0.3-2.3,0.8L806.3,343.5z"/>
<path class="st0" d="M788.6,357.2c-0.7,0.5-1.8,0.4-1.6-0.9l4.5-21.2c0.2-0.8,0-1.5-1.5-1.5h-21.5c-1,0-1.8-0.8-0.3-2
	c1-0.8,8.1-6.3,8.6-6.7c0.9-0.7,2.1-1,3.2-1h14.8c5.2,0,9.2,3.3,8.2,8.4c-0.9,4.3-3.1,14.8-3.1,14.8c-0.4,2-2.2,3.2-3.2,3.9
	L788.6,357.2z"/>
<path class="st0" d="M812.3,321h-10.8c-1.4,0-2.6-1.1-2.7-2.6c0-0.2,0-0.3,0-0.5l2.3-10.8c0.3-1.7,1.8-3,3.5-3.1h10.8
	c1.4,0,2.6,1.1,2.7,2.6c0,0.2,0,0.4,0,0.5l-2.3,10.8C815.5,319.7,814.1,321,812.3,321z"/>
<path class="st0" d="M337.2,290.5c-1.1,0.8-2.2,0.4-1.9-0.8l2.5-11.6c0.7-3.4,5.9-7.1,10.6-7.1h23.1c1,0,1.8,0.8,0.3,2
	c-1,0.8-8.1,6.3-8.6,6.7c-0.9,0.7-2.1,1-3.2,1h-8.6c-0.8,0-1.6,0.3-2.3,0.8L337.2,290.5z"/>
<path class="st0" d="M319.4,304.3c-0.7,0.5-1.9,0.4-1.6-0.9l4.5-21.2c0.2-0.8,0-1.5-1.5-1.5h-21.5c-1,0-1.8-0.7-0.3-2
	c1-0.8,8.1-6.3,8.6-6.7c0.9-0.7,2.1-1,3.2-1h14.8c5.2,0,9.2,3.3,8.2,8.4c-0.9,4.3-3.1,14.8-3.1,14.8c-0.4,2-2.2,3.2-3.2,3.9
	L319.4,304.3z"/>
<path class="st0" d="M343.1,268.1h-10.8c-1.4,0-2.6-1.1-2.7-2.6c0-0.2,0-0.3,0-0.5l2.3-10.8c0.3-1.7,1.8-3,3.5-3.1h10.8
	c1.4,0,2.6,1.1,2.7,2.5c0,0.2,0,0.4,0,0.5l-2.3,10.8C346.4,266.8,344.9,268,343.1,268.1z"/>
<path class="st0" d="M654.8,545.1c-1.1,0.8-2.2,0.5-1.9-0.8l2.4-11.7c0.7-3.5,6-7.1,10.6-7.1h23.1c1,0,1.8,0.8,0.3,2
	c-1,0.8-8.1,6.3-8.6,6.7c-0.9,0.7-2.1,1-3.2,1h-8.6c-0.8,0-1.6,0.3-2.3,0.8L654.8,545.1z"/>
<path class="st0" d="M637.1,558.9c-0.7,0.5-1.8,0.4-1.6-0.9l4.5-21.2c0.2-0.8,0-1.5-1.5-1.5h-21.5c-1,0-1.8-0.8-0.3-2
	c1-0.8,8.1-6.3,8.6-6.7c0.9-0.7,2.1-1,3.2-1h14.8c5.2,0,9.2,3.3,8.2,8.3c-0.9,4.3-3.1,14.8-3.1,14.8c-0.4,2-2.2,3.2-3.2,3.9
	L637.1,558.9z"/>
<path class="st0" d="M660.8,522.7H650c-1.4,0-2.6-1.1-2.7-2.6c0-0.2,0-0.3,0-0.5l2.3-10.8c0.3-1.7,1.8-3,3.5-3.1H664
	c1.4,0,2.7,1.1,2.7,2.5c0,0.2,0,0.4,0,0.5l-2.3,10.8C664,521.3,662.5,522.6,660.8,522.7z"/>
<path class="st0" d="M151.9,385c-1.5,1.2-3.1,0.6-2.7-1.2l3.4-16.4c1-4.8,8.4-9.9,14.9-9.9H200c1.4,0,2.5,1,0.4,2.8
	c-1.4,1.1-11.4,8.8-12.1,9.4c-1.3,1-2.9,1.5-4.5,1.4h-12.1c-1.2,0-2.3,0.4-3.2,1.2L151.9,385z"/>
<path class="st0" d="M126.9,404.3c-1,0.7-2.6,0.5-2.2-1.3l6.3-29.8c0.2-1.2,0-2.2-2.2-2.2H98.5c-1.4,0-2.5-1-0.4-2.8
	c1.4-1.1,11.4-8.8,12.1-9.4c1.3-1,2.9-1.5,4.5-1.5h20.8c7.2,0,13,4.6,11.5,11.8c-1.3,6.1-4.4,20.8-4.4,20.8c-0.6,2.8-3,4.5-4.4,5.5
	L126.9,404.3z"/>
<path class="st0" d="M160.3,353.5h-15.2c-2,0-3.7-1.6-3.8-3.6c0-0.2,0-0.5,0.1-0.7l3.2-15.2c0.4-2.4,2.5-4.3,5-4.3h15.2
	c2,0,3.7,1.6,3.8,3.6c0,0.2,0,0.5-0.1,0.7l-3.2,15.2C164.9,351.6,162.8,353.4,160.3,353.5z"/>
<path class="st0" d="M298.8,206.4c-2,1.5-4,0.8-3.5-1.5l4.5-21.5c1.4-6.4,11-13,19.5-13h42.6c1.8,0,3.3,1.4,0.5,3.6
	c-1.8,1.4-15,11.6-15.9,12.3c-1.7,1.3-3.8,1.9-5.9,1.9h-16c-1.5,0-3,0.6-4.2,1.5L298.8,206.4z"/>
<path class="st0" d="M265.9,231.8c-1.3,1-3.4,0.7-2.9-1.7l8.2-39.1c0.3-1.5,0-2.8-2.8-2.8h-39.7c-1.8,0-3.3-1.4-0.5-3.6
	c1.8-1.4,15-11.6,15.9-12.3c1.7-1.3,3.8-1.9,5.9-1.9h27.3c9.5,0,17,6.1,15.1,15.4c-1.7,8-5.8,27.3-5.8,27.3c-0.8,3.6-4,5.9-5.8,7.2
	L265.9,231.8z"/>
<path class="st0" d="M309.8,165h-19.9c-2.7,0.1-4.9-2-4.9-4.7c0-0.3,0-0.7,0.1-1l4.2-19.9c0.5-3.2,3.2-5.6,6.5-5.7h19.9
	c2.7-0.1,4.9,2,4.9,4.7c0,0.3,0,0.6-0.1,1l-4.2,19.9C315.7,162.5,313,164.9,309.8,165z"/>
<path class="st0" d="M695.1,181.2c-2,1.5-4,0.8-3.5-1.5l4.5-21.5c1.3-6.4,11-13,19.5-13h42.7c1.8,0,3.3,1.4,0.5,3.6
	c-1.8,1.4-15,11.6-15.9,12.3c-1.7,1.3-3.8,1.9-5.9,1.9h-15.9c-1.5,0-3,0.6-4.2,1.5L695.1,181.2z"/>
<path class="st0" d="M662.3,206.6c-1.3,1-3.4,0.7-2.9-1.7l8.2-39.1c0.3-1.6,0-2.8-2.8-2.8H625c-1.8,0-3.3-1.4-0.5-3.6
	c1.8-1.4,15-11.6,15.9-12.3c1.7-1.3,3.8-1.9,5.9-1.9h27.3c9.5,0,17,6.1,15.1,15.4c-1.7,8-5.8,27.3-5.8,27.3c-0.8,3.6-4,5.9-5.8,7.2
	L662.3,206.6z"/>
<path class="st0" d="M706.1,139.9h-19.9c-2.7,0.1-4.9-2-4.9-4.7c0-0.3,0-0.6,0.1-1l4.2-19.9c0.5-3.2,3.2-5.6,6.5-5.7h19.9
	c2.7-0.1,4.9,2,4.9,4.7c0,0.3,0,0.7-0.1,1l-4.2,19.9C712,137.4,709.3,139.8,706.1,139.9z"/>
<path class="st0" d="M903.3,493c-2,1.5-4,0.8-3.5-1.5l4.5-21.5c1.4-6.3,11-13,19.5-13h42.7c1.8,0,3.3,1.4,0.5,3.6
	c-1.8,1.4-14.9,11.6-15.9,12.3c-1.7,1.3-3.8,1.9-5.9,1.9h-15.9c-1.5,0-3,0.6-4.2,1.5L903.3,493z"/>
<path class="st0" d="M870.5,518.3c-1.3,1-3.4,0.7-2.9-1.7l8.2-39.1c0.3-1.5,0-2.8-2.8-2.8h-39.7c-1.8,0-3.3-1.4-0.5-3.6
	c1.8-1.4,15-11.6,15.9-12.3c1.7-1.3,3.8-1.9,5.9-1.9h27.3c9.5,0,17,6.1,15.1,15.4c-1.7,8-5.8,27.3-5.8,27.3c-0.8,3.6-4,5.8-5.8,7.2
	L870.5,518.3z"/>
<path class="st0" d="M914.3,451.6h-19.9c-2.7,0.1-4.9-2-5-4.7c0-0.3,0-0.7,0.1-1l4.2-19.9c0.5-3.2,3.2-5.6,6.5-5.7h19.9
	c2.7-0.1,4.9,2,4.9,4.7c0,0.3,0,0.7-0.1,1l-4.2,19.9C920.2,449.1,917.5,451.5,914.3,451.6z"/>
<path class="st0" d="M279.6,641.1c-2.3,1.7-4.6,0.9-4-1.7l5.1-24.3c1.5-7.2,12.4-14.7,22-14.7h48.1c2,0,3.8,1.5,0.5,4.1
	c-2,1.6-16.9,13.1-17.9,13.9c-1.9,1.4-4.3,2.2-6.7,2.1h-18c-1.7,0.1-3.4,0.7-4.7,1.7L279.6,641.1z"/>
<path class="st0" d="M242.6,669.8c-1.5,1.1-3.9,0.8-3.3-1.9l9.3-44.2c0.4-1.8,0-3.2-3.2-3.2h-44.9c-2,0-3.8-1.6-0.5-4.1
	c2-1.6,16.9-13.1,17.9-13.9c1.9-1.4,4.3-2.2,6.7-2.2h30.8c10.7,0,19.2,6.9,17,17.4c-1.9,9-6.5,30.8-6.5,30.8
	c-0.9,4.1-4.5,6.6-6.6,8.2L242.6,669.8z"/>
<path class="st0" d="M292,594.4h-22.4c-3,0.1-5.5-2.3-5.6-5.3c0-0.4,0-0.7,0.1-1.1l4.8-22.5c0.6-3.6,3.7-6.3,7.3-6.4h22.5
	c3-0.1,5.5,2.3,5.6,5.3c0,0.4,0,0.7-0.1,1.1l-4.8,22.5C298.8,591.6,295.7,594.3,292,594.4z"/>
<path class="st0" d="M121.4,571.9c-2.1,1.6-4.3,0.9-3.8-1.6l4.8-22.9c1.4-6.8,11.7-13.9,20.7-13.9h45.4c1.9,0,3.5,1.5,0.5,3.8
	c-1.9,1.5-15.9,12.3-16.9,13.1c-1.8,1.3-4,2-6.3,2h-16.9c-1.6,0.1-3.2,0.6-4.5,1.6L121.4,571.9z"/>
<path class="st0" d="M86.5,598.9c-1.4,1-3.6,0.7-3.1-1.8l8.8-41.6c0.3-1.6,0-3-3-3H46.9c-1.9,0-3.5-1.5-0.5-3.8
	c1.9-1.5,15.9-12.3,16.9-13.1c1.8-1.3,4-2,6.3-2h29c10.1,0,18.1,6.5,16,16.4c-1.8,8.5-6.1,29-6.1,29c-0.8,3.9-4.2,6.2-6.2,7.7
	L86.5,598.9z"/>
<path class="st0" d="M133.1,527.9h-21.2c-2.8,0.1-5.2-2.2-5.3-5c0-0.3,0-0.7,0.1-1l4.5-21.2c0.6-3.4,3.5-5.9,6.9-6h21.2
	c2.8-0.1,5.2,2.2,5.3,5c0,0.3,0,0.7-0.1,1l-4.5,21.2C139.4,525.2,136.5,527.8,133.1,527.9z"/>
<path class="st0" d="M416,195.2c-0.5,0.4-1.1,0.2-1-0.4l1.2-5.9c0.4-1.7,3-3.6,5.3-3.6h11.7c0.5,0,0.9,0.4,0.1,1
	c-0.5,0.4-4.1,3.2-4.3,3.4c-0.5,0.3-1,0.5-1.6,0.5H423c-0.4,0-0.8,0.2-1.2,0.4L416,195.2z"/>
<path class="st0" d="M407,202.1c-0.4,0.3-0.9,0.2-0.8-0.5l2.3-10.7c0.1-0.4,0-0.8-0.8-0.8h-10.9c-0.5,0-0.9-0.4-0.1-1
	c0.5-0.4,4.1-3.2,4.3-3.4c0.5-0.4,1-0.5,1.6-0.5h7.5c2.6,0,4.7,1.7,4.1,4.2c-0.5,2.2-1.6,7.5-1.6,7.5c-0.3,0.8-0.8,1.5-1.6,2
	L407,202.1z"/>
<path class="st0" d="M419,183.9h-5.4c-0.7,0-1.3-0.6-1.4-1.3c0-0.1,0-0.2,0-0.3l1.2-5.5c0.2-0.9,0.9-1.5,1.8-1.5h5.5
	c0.7,0,1.3,0.6,1.3,1.3c0,0.1,0,0.2,0,0.3l-1.1,5.4C420.6,183.2,419.9,183.8,419,183.9z"/>
<path class="st0" d="M539.7,19.9c-0.6,0.4-1.1,0.2-1-0.4l1.2-5.9c0.4-1.7,3-3.6,5.3-3.6h11.7c0.5,0,0.9,0.4,0.1,1
	c-0.5,0.4-4.1,3.2-4.3,3.4c-0.5,0.3-1,0.5-1.6,0.5h-4.3c-0.4,0-0.8,0.2-1.2,0.4L539.7,19.9z"/>
<path class="st0" d="M530.7,26.9c-0.4,0.3-0.9,0.2-0.8-0.5l2.3-10.7c0.1-0.4,0-0.8-0.8-0.8h-10.9c-0.5,0-0.9-0.4-0.1-1l4.3-3.4
	c0.5-0.3,1-0.5,1.6-0.5h7.5c2.6,0,4.7,1.7,4.1,4.2c-0.5,2.2-1.6,7.5-1.6,7.5c-0.3,0.8-0.8,1.6-1.6,2L530.7,26.9z"/>
<path class="st0" d="M542.7,8.6h-5.4c-0.7,0-1.3-0.6-1.4-1.3c0-0.1,0-0.2,0-0.3l1.2-5.4c0.1-0.9,0.9-1.5,1.8-1.6h5.4
	c0.7,0,1.3,0.5,1.4,1.3c0,0.1,0,0.2,0,0.3L544.4,7C544.3,7.9,543.5,8.5,542.7,8.6z"/>
<path class="st0" d="M506.6,558c-0.5,0.4-1.1,0.2-1-0.4l1.2-5.9c0.4-1.7,3-3.6,5.3-3.6h11.7c0.5,0,0.9,0.4,0.1,1l-4.3,3.4
	c-0.5,0.3-1,0.5-1.6,0.5h-4.4c-0.4,0-0.8,0.2-1.2,0.4L506.6,558z"/>
<path class="st0" d="M497.6,564.9c-0.4,0.3-0.9,0.2-0.8-0.5l2.2-10.7c0.1-0.4,0-0.8-0.8-0.8h-10.9c-0.5,0-0.9-0.4-0.1-1
	c0.5-0.4,4.1-3.2,4.3-3.4c0.5-0.3,1-0.5,1.6-0.5h7.5c2.6,0,4.7,1.7,4.1,4.2c-0.5,2.2-1.6,7.5-1.6,7.5c-0.3,0.8-0.8,1.6-1.6,2
	L497.6,564.9z"/>
<path class="st0" d="M509.6,546.6h-5.5c-0.7,0-1.3-0.6-1.4-1.3c0-0.1,0-0.2,0-0.3l1.2-5.4c0.1-0.9,0.9-1.5,1.8-1.6h5.5
	c0.7,0,1.3,0.6,1.4,1.3c0,0.1,0,0.2,0,0.3l-1.2,5.4C511.3,545.9,510.5,546.6,509.6,546.6z"/>
<path class="st0" d="M832.1,261c-0.5,0.4-1.1,0.2-1-0.4l1.2-5.9c0.4-1.7,3-3.6,5.3-3.6h11.7c0.5,0,0.9,0.4,0.1,1
	c-0.5,0.4-4.1,3.2-4.3,3.4c-0.5,0.3-1,0.5-1.6,0.5h-4.4c-0.4,0-0.8,0.2-1.2,0.4L832.1,261z"/>
<path class="st0" d="M823.1,268c-0.4,0.3-0.9,0.2-0.8-0.5l2.3-10.7c0.1-0.4,0-0.8-0.8-0.8h-10.9c-0.5,0-0.9-0.4-0.1-1
	c0.5-0.4,4.1-3.2,4.3-3.4c0.5-0.3,1-0.5,1.6-0.5h7.5c2.6,0,4.7,1.7,4.1,4.2c-0.5,2.2-1.6,7.5-1.6,7.5c-0.3,0.8-0.8,1.5-1.6,2
	L823.1,268z"/>
<path class="st0" d="M835.1,249.7h-5.4c-0.7,0-1.3-0.6-1.4-1.3c0-0.1,0-0.2,0-0.3l1.2-5.4c0.2-0.9,0.9-1.5,1.8-1.6h5.5
	c0.7,0,1.3,0.6,1.4,1.3c0,0.1,0,0.2,0,0.3l-1.2,5.4C836.8,249,836,249.7,835.1,249.7z"/>
</svg>
